<?xml version="1.0" encoding="UTF-8" standalone="no"?>
<!-- Created with Inkscape (http://www.inkscape.org/) -->

<svg
   width="210mm"
   height="297mm"
   viewBox="0 0 210 297"
   version="1.1"
   id="svg5"
   inkscape:version="1.2.2 (b0a8486541, 2022-12-01)"
   sodipodi:docname="dotbot-top.svg"
   xmlns:inkscape="http://www.inkscape.org/namespaces/inkscape"
   xmlns:sodipodi="http://sodipodi.sourceforge.net/DTD/sodipodi-0.dtd"
   xmlns="http://www.w3.org/2000/svg"
   xmlns:svg="http://www.w3.org/2000/svg">
  <sodipodi:namedview
     id="namedview7"
     pagecolor="#505050"
     bordercolor="#eeeeee"
     borderopacity="1"
     inkscape:showpageshadow="0"
     inkscape:pageopacity="0"
     inkscape:pagecheckerboard="0"
     inkscape:deskcolor="#505050"
     inkscape:document-units="mm"
     showgrid="false"
     inkscape:zoom="8.0000002"
     inkscape:cx="363.93749"
     inkscape:cy="353.87499"
     inkscape:window-width="1920"
     inkscape:window-height="1011"
     inkscape:window-x="0"
     inkscape:window-y="0"
     inkscape:window-maximized="1"
     inkscape:current-layer="layer1"
     showguides="true">
    <inkscape:grid
       type="xygrid"
       id="grid251" />
  </sodipodi:namedview>
  <defs
     id="defs2">
    <inkscape:path-effect
       effect="bend_path"
       id="path-effect1923"
       is_visible="true"
       lpeversion="1"
       bendpath="M 68.11707,128.41538 91.186419,146.4026"
       prop_scale="1"
       scale_y_rel="false"
       vertical="false"
       hide_knot="false"
       bendpath-nodetypes="cc" />
    <inkscape:path-effect
       effect="bend_path"
       id="path-effect1908"
       is_visible="true"
       lpeversion="1"
       bendpath="M 139.57849,147.48729 162.69066,129.6898"
       prop_scale="1"
       scale_y_rel="false"
       vertical="false"
       hide_knot="false"
       bendpath-nodetypes="cc" />
    <inkscape:path-effect
       effect="bend_path"
       id="path-effect1906"
       is_visible="true"
       lpeversion="1"
       bendpath="m 137.16275,143.99446 h 25.74141"
       prop_scale="1"
       scale_y_rel="false"
       vertical="false"
       hide_knot="false" />
    <inkscape:path-effect
       effect="skeletal"
       id="path-effect1902"
       is_visible="true"
       lpeversion="1"
       pattern="M 0,0 H 1"
       copytype="single_stretched"
       prop_scale="1"
       scale_y_rel="false"
       spacing="0"
       normal_offset="0"
       tang_offset="0"
       prop_units="false"
       vertical_pattern="false"
       hide_knot="false"
       fuse_tolerance="0" />
    <inkscape:path-effect
       effect="perspective-envelope"
       up_left_point="137.16275,141.23218"
       up_right_point="162.90416,141.23218"
       down_left_point="137.16275,146.75674"
       down_right_point="162.90416,146.75674"
       id="path-effect1900"
       is_visible="true"
       lpeversion="1"
       deform_type="perspective"
       horizontal_mirror="false"
       vertical_mirror="false"
       overflow_perspective="false" />
    <inkscape:path-effect
       effect="fillet_chamfer"
       id="path-effect592"
       is_visible="true"
       lpeversion="1"
       nodesatellites_param="F,0,0,1,0,4,0,1 @ F,0,0,1,0,4,0,1 @ F,0,0,1,0,4,0,1 @ F,0,0,1,0,4,0,1"
       unit="mm"
       method="auto"
       mode="F"
       radius="4"
       chamfer_steps="1"
       flexible="false"
       use_knot_distance="true"
       apply_no_radius="true"
       apply_with_radius="true"
       only_selected="false"
       hide_knots="false" />
    <inkscape:path-effect
       effect="fillet_chamfer"
       id="path-effect528"
       is_visible="true"
       lpeversion="1"
       nodesatellites_param="F,0,0,1,0,4,0,1 @ F,0,0,1,0,4,0,1 @ F,0,0,1,0,4,0,1 @ F,0,0,1,0,4,0,1"
       unit="mm"
       method="auto"
       mode="F"
       radius="4"
       chamfer_steps="1"
       flexible="false"
       use_knot_distance="true"
       apply_no_radius="true"
       apply_with_radius="true"
       only_selected="false"
       hide_knots="false" />
    <inkscape:path-effect
       effect="fillet_chamfer"
       id="path-effect522"
       is_visible="true"
       lpeversion="1"
       nodesatellites_param="F,0,0,1,0,4,0,1 @ F,0,0,1,0,4,0,1 @ F,0,0,1,0,4,0,1 @ F,0,0,1,0,4,0,1"
       unit="mm"
       method="auto"
       mode="F"
       radius="4"
       chamfer_steps="1"
       flexible="false"
       use_knot_distance="true"
       apply_no_radius="true"
       apply_with_radius="true"
       only_selected="false"
       hide_knots="false" />
    <inkscape:path-effect
       effect="fillet_chamfer"
       id="path-effect6380"
       is_visible="true"
       lpeversion="1"
       nodesatellites_param="F,0,0,1,0,4,0,1 @ F,0,0,1,0,4,0,1 @ F,0,0,1,0,4,0,1 @ F,0,0,1,0,4,0,1"
       unit="mm"
       method="auto"
       mode="F"
       radius="4"
       chamfer_steps="1"
       flexible="false"
       use_knot_distance="true"
       apply_no_radius="true"
       apply_with_radius="true"
       only_selected="false"
       hide_knots="false" />
    <inkscape:path-effect
       effect="fillet_chamfer"
       id="path-effect695"
       is_visible="true"
       lpeversion="1"
       nodesatellites_param="F,0,0,1,0,4,0,1 @ F,0,0,1,0,4,0,1 @ F,0,0,1,0,4,0,1 @ F,0,0,1,0,4,0,1 @ F,0,0,1,0,4,0,1 @ F,0,0,1,0,4,0,1 @ F,0,0,1,0,4,0,1"
       unit="mm"
       method="auto"
       mode="F"
       radius="4"
       chamfer_steps="1"
       flexible="false"
       use_knot_distance="true"
       apply_no_radius="true"
       apply_with_radius="true"
       only_selected="false"
       hide_knots="false" />
    <inkscape:path-effect
       effect="fillet_chamfer"
       id="path-effect3617"
       is_visible="true"
       lpeversion="1"
       nodesatellites_param="F,0,0,1,0,0,0,1 @ F,0,0,1,0,0,0,1 @ F,0,0,1,0,4,0,1 @ F,0,0,1,0,0,0,1 @ F,0,0,1,0,0,0,1 @ F,0,0,1,0,4,0,1 @ F,0,0,1,0,0,0,1 @ F,0,0,1,0,0,0,1"
       unit="mm"
       method="auto"
       mode="F"
       radius="4"
       chamfer_steps="1"
       flexible="false"
       use_knot_distance="true"
       apply_no_radius="true"
       apply_with_radius="true"
       only_selected="false"
       hide_knots="false" />
    <inkscape:path-effect
       effect="fillet_chamfer"
       id="path-effect2622"
       is_visible="true"
       lpeversion="1"
       nodesatellites_param="F,0,0,1,0,4,0,1 @ F,0,0,1,0,4,0,1 @ F,0,0,1,0,0,0,1 @ F,0,0,1,0,0,0,1"
       unit="mm"
       method="auto"
       mode="F"
       radius="4"
       chamfer_steps="1"
       flexible="false"
       use_knot_distance="true"
       apply_no_radius="true"
       apply_with_radius="true"
       only_selected="false"
       hide_knots="false" />
    <inkscape:path-effect
       effect="fillet_chamfer"
       id="path-effect440"
       is_visible="true"
       lpeversion="1"
       nodesatellites_param="F,0,0,1,0,4,0,1 @ F,0,0,1,0,4,0,1 @ F,0,0,1,0,4,0,1 @ F,0,0,1,0,4,0,1"
       unit="mm"
       method="auto"
       mode="F"
       radius="4"
       chamfer_steps="1"
       flexible="false"
       use_knot_distance="true"
       apply_no_radius="true"
       apply_with_radius="true"
       only_selected="false"
       hide_knots="false" />
    <inkscape:path-effect
       effect="fillet_chamfer"
       id="path-effect438"
       is_visible="true"
       lpeversion="1"
       nodesatellites_param="F,0,0,1,0,4,0,1 @ F,0,0,1,0,4,0,1 @ F,0,0,1,0,4,0,1 @ F,0,0,1,0,4,0,1"
       unit="mm"
       method="auto"
       mode="F"
       radius="4"
       chamfer_steps="1"
       flexible="false"
       use_knot_distance="true"
       apply_no_radius="true"
       apply_with_radius="true"
       only_selected="false"
       hide_knots="false" />
    <inkscape:path-effect
       effect="fillet_chamfer"
       id="path-effect5931"
       is_visible="true"
       lpeversion="1"
       nodesatellites_param="F,0,0,1,0,4,0,1 @ F,0,0,1,0,4,0,1 @ F,0,0,1,0,4,0,1 @ F,0,0,1,0,4,0,1 @ F,0,0,1,0,4,0,1 @ F,0,0,1,0,4,0,1 @ F,0,0,1,0,4,0,1 @ F,0,0,1,0,4,0,1"
       unit="mm"
       method="auto"
       mode="F"
       radius="4"
       chamfer_steps="1"
       flexible="false"
       use_knot_distance="true"
       apply_no_radius="true"
       apply_with_radius="true"
       only_selected="false"
       hide_knots="false" />
    <inkscape:path-effect
       effect="fillet_chamfer"
       id="path-effect2622-3"
       is_visible="true"
       lpeversion="1"
       nodesatellites_param="F,0,0,1,0,4,0,1 @ F,0,0,1,0,4,0,1 @ F,0,0,1,0,0,0,1 @ F,0,0,1,0,0,0,1"
       unit="mm"
       method="auto"
       mode="F"
       radius="4"
       chamfer_steps="1"
       flexible="false"
       use_knot_distance="true"
       apply_no_radius="true"
       apply_with_radius="true"
       only_selected="false"
       hide_knots="false" />
  </defs>
  <g
     inkscape:label="Layer 1"
     inkscape:groupmode="layer"
     id="layer1">
    <path
       id="rect4193"
       style="fill:none;stroke:#ff0000;stroke-width:0.154435"
       d="m 105.0002,163.69688 a 5.6515502,5.8717204 0 0 0 -5.65165,5.87182 5.6515502,5.8717204 0 0 0 0.004,0.11153 h -7.109323 a 4.6662938,4.848081 0 0 0 -4.666007,4.84841 v 28.93076 a 4.6662938,4.848081 0 0 0 4.666007,4.8484 h 7.106923 a 5.6515502,5.8717204 0 0 0 5.64984,5.82234 5.6515502,5.8717204 0 0 0 5.64926,-5.82234 h 7.10691 a 4.6662938,4.848081 0 0 0 4.66662,-4.8484 v -28.93076 a 4.6662938,4.848081 0 0 0 -4.66662,-4.84841 h -7.10933 a 5.6515502,5.8717204 0 0 0 0.004,-0.11153 5.6515502,5.8717204 0 0 0 -5.65106,-5.87182 z" />
    <path
       id="rect409"
       style="fill:none;stroke:#ff0000;stroke-width:0.105465;stroke-dasharray:none"
       d="m 58.96239,143.72697 c -2.208948,1.3e-4 -3.999865,1.79105 -4,4 v 31.89888 c 1.38e-4,2.20895 1.791054,3.99962 4,3.99975 h 1.899242 c 2.208946,-1.3e-4 3.999618,-1.7908 3.999756,-3.99975 v -0.43202 c 0.0254,-0.17304 0.03818,-0.34739 0.03824,-0.52193 v -13.51597 h 9.867098 v -2.95951 h -9.867097 v -13.51597 c -1.3e-4,-0.17402 -0.0129,-0.34785 -0.03824,-0.52038 v -0.43357 c -1.35e-4,-2.20895 -1.790808,-3.99962 -3.999756,-3.99975 z"
       sodipodi:nodetypes="cccccsccccccccccc" />
    <path
       id="rect409-3"
       style="fill:none;stroke:#ff0000;stroke-width:0.105465;stroke-dasharray:none"
       d="m 148.966,143.7252 c -2.20915,-1.5e-4 -4.00014,1.7906 -4.00027,3.99975 l 3.3e-4,14.47147 h -9.77046 v 2.95951 h 9.77046 v 14.47147 c 1.3e-4,2.20915 1.79112,3.99991 4.00027,3.99976 h 1.90172 c 2.20916,1.5e-4 4.03134,-1.79061 4.03134,-3.99976 v -0.52503 c 0.0191,-0.14288 -0.002,-0.28657 0,-0.43047 l -3.4e-4,-29.99193 c -2.7e-4,-0.15666 0.0207,-0.31268 0,-0.46823 v -0.48679 c 0,-2.20915 -1.82151,-3.9999 -4.03066,-3.99975 z"
       sodipodi:nodetypes="cccccccccsccccscc" />
    <rect
       style="fill:none;stroke:#ff0000;stroke-width:0.125744;stroke-dasharray:none"
       id="rect1022-5"
       width="7.9742556"
       height="2.9742556"
       x="101.01287"
       y="119.81908" />
    <path
       id="rect1022-5-7"
       style="fill:none;stroke:#ff0000;stroke-width:0.125744"
       d="m 101.47727,83.49 v 2.871 L 88.456875,86.37 c -2.209352,0.0016 -3.999036,1.794648 -3.997172,4.004 l 0.0098,7.999275 2.41484,-0.0021 0.001,1.453658 5.042587,-0.0036 -0.001,-1.453658 2.520777,-0.0016 -0.0041,-3.992975 c -0.0019,-2.209555 1.788137,-4.002726 3.997693,-4.004 l 14.04359,-0.01 c 2.20935,-0.0016 4.00157,1.78865 4.00285,3.998 l 0.004,3.992952 2.54248,-0.0021 10e-4,1.405082 5.04259,-0.0036 -0.001,-1.405082 2.39262,-0.0016 -0.01,-7.999652 c -10e-4,-2.20935 -1.7935,-3.999575 -4.00285,-3.998 l -13.00541,0.01 V 83.49 h -1.45263 -5.06842 z"
       sodipodi:nodetypes="ccccccccccccccccccccccccccc" />
    <path
       sodipodi:type="star"
       style="fill:#0000ff;fill-opacity:1;stroke:none;stroke-width:0.1"
       id="path773"
       inkscape:flatsided="false"
       sodipodi:sides="5"
       sodipodi:cx="71.026192"
       sodipodi:cy="134.05568"
       sodipodi:r1="3.5521953"
       sodipodi:r2="1.7760975"
       sodipodi:arg1="-0.32395187"
       sodipodi:arg2="0.30436666"
       inkscape:rounded="0"
       inkscape:randomized="0"
       d="m 74.393619,132.92496 -1.672965,1.663 0.421507,2.32092 -2.098577,-1.07719 -2.077079,1.11808 0.375973,-2.32873 -1.705212,-1.62991 2.330941,-0.36205 1.0232,-2.12543 1.064628,2.10498 z"
       inkscape:transform-center-x="0.010749956"
       inkscape:transform-center-y="-0.32896691"
       transform="translate(-1.9978161,51.152322)" />
    <path
       sodipodi:type="star"
       style="fill:#0000ff;fill-opacity:1;stroke:none;stroke-width:0.1"
       id="path773-2"
       inkscape:flatsided="false"
       sodipodi:sides="5"
       sodipodi:cx="71.026192"
       sodipodi:cy="134.05568"
       sodipodi:r1="3.5521953"
       sodipodi:r2="1.7760975"
       sodipodi:arg1="-0.32395187"
       sodipodi:arg2="0.30436666"
       inkscape:rounded="0"
       inkscape:randomized="0"
       d="m 74.393619,132.92496 -1.672965,1.663 0.421507,2.32092 -2.098577,-1.07719 -2.077079,1.11808 0.375973,-2.32873 -1.705212,-1.62991 2.330941,-0.36205 1.0232,-2.12543 1.064628,2.10498 z"
       inkscape:transform-center-x="0.010749956"
       inkscape:transform-center-y="-0.32896691"
       transform="translate(70.29121,-4.482573)" />
    <path
       sodipodi:type="star"
       style="fill:#0000ff;fill-opacity:1;stroke:none;stroke-width:0.1"
       id="path775"
       inkscape:flatsided="false"
       sodipodi:sides="5"
       sodipodi:cx="131.27722"
       sodipodi:cy="135.30029"
       sodipodi:r1="3.1797538"
       sodipodi:r2="1.5898768"
       sodipodi:arg1="0.87349341"
       sodipodi:arg2="1.5018119"
       inkscape:rounded="0"
       inkscape:randomized="0"
       d="m 133.31911,137.73782 -1.9323,-0.85143 -1.79684,1.10909 0.21265,-2.10083 -1.61006,-1.36617 2.06372,-0.44695 0.80176,-1.95343 1.06281,1.8246 2.10557,0.15888 -1.40687,1.57462 z"
       inkscape:transform-center-x="0.067731819"
       inkscape:transform-center-y="-0.23850375"
       transform="translate(-2.752292,49.962731)" />
    <path
       sodipodi:type="star"
       style="fill:#0000ff;fill-opacity:1;stroke:none;stroke-width:0.1"
       id="path777"
       inkscape:flatsided="false"
       sodipodi:sides="5"
       sodipodi:cx="135.62999"
       sodipodi:cy="143.96014"
       sodipodi:r1="3.8089535"
       sodipodi:r2="1.9044766"
       sodipodi:arg1="0.2533285"
       sodipodi:arg2="0.88164703"
       inkscape:rounded="0"
       inkscape:randomized="0"
       d="m 139.31737,144.91477 -2.47636,0.51522 -0.97946,2.33206 -1.25525,-2.19595 -2.52058,-0.21088 1.70058,-1.87239 -0.57835,-2.46239 2.30626,1.03875 2.16315,-1.31096 -0.27523,2.51437 z"
       inkscape:transform-center-x="-0.071553858"
       inkscape:transform-center-y="0.29499475"
       transform="translate(-6.8740042,52.137275)" />
    <path
       sodipodi:type="star"
       style="fill:#0000ff;fill-opacity:1;stroke:none;stroke-width:0.1"
       id="path777-7"
       inkscape:flatsided="false"
       sodipodi:sides="5"
       sodipodi:cx="135.62999"
       sodipodi:cy="143.96014"
       sodipodi:r1="3.8089535"
       sodipodi:r2="1.9044766"
       sodipodi:arg1="0.2533285"
       sodipodi:arg2="0.88164703"
       inkscape:rounded="0"
       inkscape:randomized="0"
       d="m 139.31737,144.91477 -2.47636,0.51522 -0.97946,2.33206 -1.25525,-2.19595 -2.52058,-0.21088 1.70058,-1.87239 -0.57835,-2.46239 2.30626,1.03875 2.16315,-1.31096 -0.27523,2.51437 z"
       inkscape:transform-center-x="-0.071553858"
       inkscape:transform-center-y="0.29499475"
       transform="translate(-23.840529,-30.339116)" />
    <path
       sodipodi:type="star"
       style="fill:#0000ff;fill-opacity:1;stroke:none;stroke-width:0.1"
       id="path779"
       inkscape:flatsided="false"
       sodipodi:sides="5"
       sodipodi:cx="143.76682"
       sodipodi:cy="133.49144"
       sodipodi:r1="5.1018362"
       sodipodi:r2="2.5509176"
       sodipodi:arg1="1.6428258"
       sodipodi:arg2="2.2711444"
       inkscape:rounded="0"
       inkscape:randomized="0"
       d="m 143.39965,138.58005 -1.27686,-3.13813 -3.30899,-0.72721 2.58997,-2.1841 -0.33092,-3.37175 2.87755,1.78828 3.10447,-1.35666 -0.81155,3.28932 2.24959,2.5333 -3.37911,0.24463 z"
       inkscape:transform-center-x="0.11346203"
       inkscape:transform-center-y="0.37800995"
       transform="translate(-4.1980604,54.291158)" />
    <path
       sodipodi:type="star"
       style="fill:#0000ff;fill-opacity:1;stroke:none;stroke-width:0.1"
       id="path781"
       inkscape:flatsided="false"
       sodipodi:sides="5"
       sodipodi:cx="71.759026"
       sodipodi:cy="141.73318"
       sodipodi:r1="2.9968929"
       sodipodi:r2="1.4984461"
       sodipodi:arg1="0.72259336"
       sodipodi:arg2="1.3509119"
       inkscape:rounded="0"
       inkscape:randomized="0"
       d="m 74.006975,143.71513 -1.921113,-0.51958 -1.517121,1.28801 -0.09951,-1.98764 -1.693788,-1.04485 1.85961,-0.70886 0.470302,-1.93376 1.248814,1.54955 1.984452,-0.15029 -1.087801,1.66653 z"
       inkscape:transform-center-x="0.2019969"
       inkscape:transform-center-y="-0.087179566"
       transform="translate(10.993639,58.661425)" />
    <path
       sodipodi:type="star"
       style="fill:#0000ff;fill-opacity:1;stroke:none;stroke-width:0.1"
       id="path781-3"
       inkscape:flatsided="false"
       sodipodi:sides="5"
       sodipodi:cx="71.759026"
       sodipodi:cy="141.73318"
       sodipodi:r1="2.9968929"
       sodipodi:r2="1.4984461"
       sodipodi:arg1="0.72259336"
       sodipodi:arg2="1.3509119"
       inkscape:rounded="0"
       inkscape:randomized="0"
       d="m 74.006975,143.71513 -1.921113,-0.51958 -1.517121,1.28801 -0.09951,-1.98764 -1.693788,-1.04485 1.85961,-0.70886 0.470302,-1.93376 1.248814,1.54955 1.984452,-0.15029 -1.087801,1.66653 z"
       inkscape:transform-center-x="0.2019969"
       inkscape:transform-center-y="-0.087179566"
       transform="translate(53.724557,22.777317)" />
    <path
       sodipodi:type="star"
       style="fill:#0000ff;fill-opacity:1;stroke:none;stroke-width:0.1"
       id="path781-3-5"
       inkscape:flatsided="false"
       sodipodi:sides="5"
       sodipodi:cx="71.759026"
       sodipodi:cy="141.73318"
       sodipodi:r1="2.9968929"
       sodipodi:r2="1.4984461"
       sodipodi:arg1="0.72259336"
       sodipodi:arg2="1.3509119"
       inkscape:rounded="0"
       inkscape:randomized="0"
       d="m 74.006975,143.71513 -1.921113,-0.51958 -1.517121,1.28801 -0.09951,-1.98764 -1.693788,-1.04485 1.85961,-0.70886 0.470302,-1.93376 1.248814,1.54955 1.984452,-0.15029 -1.087801,1.66653 z"
       inkscape:transform-center-x="0.2019969"
       inkscape:transform-center-y="-0.087179566"
       transform="translate(25.625564,-28.09612)" />
    <path
       sodipodi:type="star"
       style="fill:#0000ff;fill-opacity:1;stroke:none;stroke-width:0.1"
       id="path781-3-3"
       inkscape:flatsided="false"
       sodipodi:sides="5"
       sodipodi:cx="71.759026"
       sodipodi:cy="141.73318"
       sodipodi:r1="2.9968929"
       sodipodi:r2="1.4984461"
       sodipodi:arg1="0.72259336"
       sodipodi:arg2="1.3509119"
       inkscape:rounded="0"
       inkscape:randomized="0"
       d="m 74.006975,143.71513 -1.921113,-0.51958 -1.517121,1.28801 -0.09951,-1.98764 -1.693788,-1.04485 1.85961,-0.70886 0.470302,-1.93376 1.248814,1.54955 1.984452,-0.15029 -1.087801,1.66653 z"
       inkscape:transform-center-x="0.2019969"
       inkscape:transform-center-y="-0.087179566"
       transform="translate(12.995617,-23.572009)" />
    <path
       sodipodi:type="star"
       style="fill:#0000ff;fill-opacity:1;stroke:none;stroke-width:0.1"
       id="path781-3-56"
       inkscape:flatsided="false"
       sodipodi:sides="5"
       sodipodi:cx="71.759026"
       sodipodi:cy="141.73318"
       sodipodi:r1="2.9968929"
       sodipodi:r2="1.4984461"
       sodipodi:arg1="0.72259336"
       sodipodi:arg2="1.3509119"
       inkscape:rounded="0"
       inkscape:randomized="0"
       d="m 74.006975,143.71513 -1.921113,-0.51958 -1.517121,1.28801 -0.09951,-1.98764 -1.693788,-1.04485 1.85961,-0.70886 0.470302,-1.93376 1.248814,1.54955 1.984452,-0.15029 -1.087801,1.66653 z"
       inkscape:transform-center-x="0.2019969"
       inkscape:transform-center-y="-0.087179566"
       transform="translate(50.585093,-20.737908)" />
    <path
       sodipodi:type="star"
       style="fill:#0000ff;fill-opacity:1;stroke:none;stroke-width:0.1"
       id="path781-3-56-9"
       inkscape:flatsided="false"
       sodipodi:sides="5"
       sodipodi:cx="71.759026"
       sodipodi:cy="141.73318"
       sodipodi:r1="2.9968929"
       sodipodi:r2="1.4984461"
       sodipodi:arg1="0.72259336"
       sodipodi:arg2="1.3509119"
       inkscape:rounded="0"
       inkscape:randomized="0"
       d="m 74.006975,143.71513 -1.921113,-0.51958 -1.517121,1.28801 -0.09951,-1.98764 -1.693788,-1.04485 1.85961,-0.70886 0.470302,-1.93376 1.248814,1.54955 1.984452,-0.15029 -1.087801,1.66653 z"
       inkscape:transform-center-x="0.2019969"
       inkscape:transform-center-y="-0.087179566"
       transform="translate(69.07435,1.025035)" />
    <path
       sodipodi:type="star"
       style="fill:#0000ff;fill-opacity:1;stroke:none;stroke-width:0.1"
       id="path781-3-56-1"
       inkscape:flatsided="false"
       sodipodi:sides="5"
       sodipodi:cx="71.759026"
       sodipodi:cy="141.73318"
       sodipodi:r1="2.9968929"
       sodipodi:r2="1.4984461"
       sodipodi:arg1="0.72259336"
       sodipodi:arg2="1.3509119"
       inkscape:rounded="0"
       inkscape:randomized="0"
       d="m 74.006975,143.71513 -1.921113,-0.51958 -1.517121,1.28801 -0.09951,-1.98764 -1.693788,-1.04485 1.85961,-0.70886 0.470302,-1.93376 1.248814,1.54955 1.984452,-0.15029 -1.087801,1.66653 z"
       inkscape:transform-center-x="0.2019969"
       inkscape:transform-center-y="-0.087179566"
       transform="translate(-1.5731819,8.04086)" />
    <path
       sodipodi:type="star"
       style="fill:#0000ff;fill-opacity:1;stroke:none;stroke-width:0.1"
       id="path781-3-56-2"
       inkscape:flatsided="false"
       sodipodi:sides="5"
       sodipodi:cx="71.759026"
       sodipodi:cy="141.73318"
       sodipodi:r1="2.9968929"
       sodipodi:r2="1.4984461"
       sodipodi:arg1="0.72259336"
       sodipodi:arg2="1.3509119"
       inkscape:rounded="0"
       inkscape:randomized="0"
       d="m 74.006975,143.71513 -1.921113,-0.51958 -1.517121,1.28801 -0.09951,-1.98764 -1.693788,-1.04485 1.85961,-0.70886 0.470302,-1.93376 1.248814,1.54955 1.984452,-0.15029 -1.087801,1.66653 z"
       inkscape:transform-center-x="0.2019969"
       inkscape:transform-center-y="-0.087179566"
       transform="translate(17.219729,22.691876)" />
    <path
       sodipodi:type="star"
       style="fill:#0000ff;fill-opacity:1;stroke:none;stroke-width:0.1"
       id="path781-6"
       inkscape:flatsided="false"
       sodipodi:sides="5"
       sodipodi:cx="71.759026"
       sodipodi:cy="141.73318"
       sodipodi:r1="2.9968929"
       sodipodi:r2="1.4984461"
       sodipodi:arg1="0.72259336"
       sodipodi:arg2="1.3509119"
       inkscape:rounded="0"
       inkscape:randomized="0"
       d="m 74.006975,143.71513 -1.921113,-0.51958 -1.517121,1.28801 -0.09951,-1.98764 -1.693788,-1.04485 1.85961,-0.70886 0.470302,-1.93376 1.248814,1.54955 1.984452,-0.15029 -1.087801,1.66653 z"
       inkscape:transform-center-x="0.2019969"
       inkscape:transform-center-y="-0.087179566"
       transform="translate(6.1408053,31.949329)" />
    <path
       sodipodi:type="star"
       style="fill:#0000ff;fill-opacity:1;stroke:none;stroke-width:0.1"
       id="path781-6-6"
       inkscape:flatsided="false"
       sodipodi:sides="5"
       sodipodi:cx="71.759026"
       sodipodi:cy="141.73318"
       sodipodi:r1="2.9968929"
       sodipodi:r2="1.4984461"
       sodipodi:arg1="0.72259336"
       sodipodi:arg2="1.3509119"
       inkscape:rounded="0"
       inkscape:randomized="0"
       d="m 74.006975,143.71513 -1.921113,-0.51958 -1.517121,1.28801 -0.09951,-1.98764 -1.693788,-1.04485 1.85961,-0.70886 0.470302,-1.93376 1.248814,1.54955 1.984452,-0.15029 -1.087801,1.66653 z"
       inkscape:transform-center-x="0.2019969"
       inkscape:transform-center-y="-0.087179566"
       transform="translate(6.8052478,39.479064)" />
    <path
       sodipodi:type="star"
       style="fill:#0000ff;fill-opacity:1;stroke:none;stroke-width:0.1"
       id="path781-7"
       inkscape:flatsided="false"
       sodipodi:sides="5"
       sodipodi:cx="71.759026"
       sodipodi:cy="141.73318"
       sodipodi:r1="2.9968929"
       sodipodi:r2="1.4984461"
       sodipodi:arg1="0.72259336"
       sodipodi:arg2="1.3509119"
       inkscape:rounded="0"
       inkscape:randomized="0"
       d="m 74.006975,143.71513 -1.921113,-0.51958 -1.517121,1.28801 -0.09951,-1.98764 -1.693788,-1.04485 1.85961,-0.70886 0.470302,-1.93376 1.248814,1.54955 1.984452,-0.15029 -1.087801,1.66653 z"
       inkscape:transform-center-x="0.2019969"
       inkscape:transform-center-y="-0.087179566"
       transform="translate(59.635993,33.547621)" />
    <path
       sodipodi:type="star"
       style="fill:#0000ff;fill-opacity:1;stroke:none;stroke-width:0.1"
       id="path783"
       inkscape:flatsided="false"
       sodipodi:sides="5"
       sodipodi:cx="81.203407"
       sodipodi:cy="139.04237"
       sodipodi:r1="4.7870941"
       sodipodi:r2="2.3935463"
       sodipodi:arg1="1.1755236"
       sodipodi:arg2="1.8038421"
       inkscape:rounded="0"
       inkscape:randomized="0"
       d="m 83.046725,143.46034 -2.396088,-2.08912 -3.079351,0.78948 1.246445,-2.92439 -1.702416,-2.68467 3.166434,0.28175 2.0272,-2.4487 0.710518,3.09852 2.955295,1.17129 -2.727309,1.63324 z"
       inkscape:transform-center-x="-0.34163001"
       inkscape:transform-center-y="-0.11986085"
       transform="translate(-2.6200003,53.421951)" />
    <path
       sodipodi:type="star"
       style="fill:#0000ff;fill-opacity:1;stroke:none;stroke-width:0.1"
       id="path783-3"
       inkscape:flatsided="false"
       sodipodi:sides="5"
       sodipodi:cx="81.203407"
       sodipodi:cy="139.04237"
       sodipodi:r1="4.7870941"
       sodipodi:r2="2.3935463"
       sodipodi:arg1="1.1755236"
       sodipodi:arg2="1.8038421"
       inkscape:rounded="0"
       inkscape:randomized="0"
       d="m 83.046725,143.46034 -2.396088,-2.08912 -3.079351,0.78948 1.246445,-2.92439 -1.702416,-2.68467 3.166434,0.28175 2.0272,-2.4487 0.710518,3.09852 2.955295,1.17129 -2.727309,1.63324 z"
       inkscape:transform-center-x="-0.34163001"
       inkscape:transform-center-y="-0.11986085"
       transform="translate(-14.12087,-4.378137)" />
    <circle
       style="fill:none;stroke:#ff0000;stroke-width:0.122096;stroke-opacity:1"
       id="path557"
       cx="105"
       cy="163.25621"
       r="55.255501" />
    <path
       id="rect590"
       d="M 78.960221,126.34745 H 130.8544 a 4,4 0 0 1 4,4 v 24.36474 a 4,4 0 0 1 -4,4 H 78.960221 a 4,4 0 0 1 -4,-4 v -24.36474 a 4,4 0 0 1 4,-4 z"
       style="fill:none;stroke:#ff0000;stroke-width:0.0997709" />
    <g
       aria-label="DotBot"
       transform="matrix(0.92946128,0,0,1.0758921,-2.8616104,51.149969)"
       id="text904"
       style="font-weight:bold;font-size:7.42408px;font-family:'DejaVu Sans Mono';-inkscape-font-specification:'DejaVu Sans Mono, Bold';fill:#0000ff;fill-opacity:1;stroke:none;stroke-width:0.0442207"
       inkscape:path-effect="#path-effect1908"
       class="UnoptimicedTransforms">
      <path
         d="m 139.35629,145.39821 2.12544,2.76014 0.26038,-0.2005 c 0.37755,-0.29074 0.56626,-0.60228 0.56611,-0.93464 -0.002,-0.33427 -0.19633,-0.75319 -0.58412,-1.25678 -0.38483,-0.49975 -0.73789,-0.79216 -1.05917,-0.87723 -0.32129,-0.0851 -0.67071,0.0178 -1.04827,0.30851 z m -1.54848,-0.0246 1.02852,-0.79201 c 0.79416,-0.61154 1.49493,-0.88428 2.10231,-0.81821 0.6059,0.0642 1.20079,0.47537 1.78468,1.23361 0.58536,0.76017 0.83313,1.44326 0.74329,2.04927 -0.0913,0.6041 -0.53405,1.21192 -1.32822,1.82346 l -1.02851,0.79201 z"
         id="path1885"
         inkscape:original-d="m 138.23214,142.20369 v 3.48366 h 0.29 q 0.63076,0 0.89901,-0.39513 0.26825,-0.39875 0.26825,-1.35214 0,-0.94613 -0.26825,-1.34126 -0.26825,-0.39513 -0.89901,-0.39513 z m -1.06939,-0.96426 h 1.14552 q 1.32676,0 1.91039,0.63438 0.58363,0.63076 0.58363,2.06627 0,1.43914 -0.58363,2.07715 -0.58363,0.63438 -1.91039,0.63438 h -1.14552 z"
         style="fill:#0000ff;fill-opacity:1;stroke:none" />
      <path
         d="m 144.67162,142.76008 c -0.22783,0.17544 -0.33828,0.40233 -0.33135,0.68066 0.005,0.27641 0.12984,0.57258 0.37312,0.88851 0.24329,0.31595 0.4986,0.51283 0.76591,0.59064 0.26584,0.0759 0.51268,0.0262 0.74051,-0.1493 0.23001,-0.17711 0.34228,-0.40388 0.33682,-0.6803 -0.007,-0.27832 -0.13204,-0.57545 -0.37533,-0.89139 -0.24329,-0.31594 -0.49785,-0.51186 -0.76369,-0.58776 -0.26732,-0.0778 -0.51599,-0.0282 -0.74599,0.14894 z m -0.91188,2.30353 c -0.39958,-0.5189 -0.56396,-1.04658 -0.49315,-1.58303 0.0715,-0.54005 0.36439,-1.00808 0.87865,-1.40407 0.51642,-0.39768 1.04374,-0.56125 1.58196,-0.49072 0.53891,0.0669 1.00816,0.35986 1.40774,0.87876 0.39958,0.5189 0.56362,1.04838 0.49211,1.58842 -0.0708,0.53646 -0.36443,1.00352 -0.88085,1.4012 -0.51425,0.396 -1.04084,0.56053 -1.57976,0.49359 -0.53822,-0.0705 -1.00712,-0.36524 -1.4067,-0.88415 z"
         id="path1887"
         inkscape:original-d="m 143.36882,143.35645 q -0.38063,0 -0.59813,0.33713 -0.2175,0.3335 -0.2175,0.93163 0,0.59814 0.2175,0.93526 0.2175,0.33351 0.59813,0.33351 0.38425,0 0.60176,-0.33351 0.2175,-0.33712 0.2175,-0.93526 0,-0.59813 -0.2175,-0.93163 -0.21751,-0.33713 -0.60176,-0.33713 z m -1.87777,1.26876 q 0,-0.98238 0.5075,-1.55514 0.51114,-0.57638 1.37027,-0.57638 0.86276,0 1.37026,0.57638 0.51113,0.57276 0.51113,1.55514 0,0.98239 -0.51113,1.55877 -0.5075,0.57276 -1.37026,0.57276 -0.85913,0 -1.37027,-0.57276 -0.5075,-0.57638 -0.5075,-1.55877 z"
         style="fill:#0000ff;fill-opacity:1;stroke:none" />
      <path
         d="m 147.75563,137.96493 0.70332,0.91334 1.24658,-0.95992 0.49763,0.64623 -1.24658,0.95993 1.1722,1.52224 c 0.11059,0.14361 0.22927,0.21693 0.35604,0.21997 0.12746,-5.5e-4 0.28341,-0.0718 0.46785,-0.21386 l 0.73233,-0.56393 0.49763,0.64623 -0.80067,0.61656 c -0.54681,0.42106 -0.97574,0.62936 -1.28682,0.62489 -0.31255,-0.006 -0.62954,-0.21829 -0.95097,-0.63571 l -1.14124,-1.48203 -0.93087,0.71681 -0.49763,-0.64624 0.93087,-0.71681 -0.70332,-0.91334 z"
         id="path1889"
         inkscape:original-d="m 148.10675,141.43881 v 1.15276 h 1.38839 v 0.81563 h -1.38839 v 1.92127 q 0,0.27188 0.1305,0.39151 0.13412,0.116 0.44225,0.116 h 0.81564 v 0.81563 h -0.89176 q -0.91351,0 -1.23614,-0.29 -0.32263,-0.29363 -0.32263,-1.08389 v -1.87052 h -1.03676 v -0.81563 h 1.03676 v -1.15276 z"
         style="fill:#0000ff;fill-opacity:1;stroke:none" />
      <path
         d="m 152.53832,137.75923 0.97757,1.26949 0.63794,-0.49124 c 0.30595,-0.2356 0.48429,-0.44613 0.53503,-0.63161 0.0529,-0.18715 -0.008,-0.39465 -0.18383,-0.62251 -0.17841,-0.23169 -0.3707,-0.34898 -0.57687,-0.35188 -0.20617,-0.003 -0.45681,0.10926 -0.7519,0.3365 z m -1.28721,-1.6716 0.76746,0.99664 0.63794,-0.49124 c 0.24302,-0.18714 0.38603,-0.35827 0.42904,-0.51339 0.0452,-0.15679 -7e-5,-0.32327 -0.13572,-0.49943 -0.13565,-0.17616 -0.28686,-0.26256 -0.45364,-0.25919 -0.16608,-2.2e-4 -0.36846,0.0916 -0.60714,0.27537 z m -1.44736,0.0394 1.56555,-1.20555 c 0.54029,-0.41605 1.01609,-0.63756 1.42739,-0.66451 0.41201,-0.0306 0.75661,0.13416 1.03381,0.49414 0.21232,0.27573 0.29791,0.55296 0.25677,0.83171 -0.0411,0.27874 -0.20726,0.55003 -0.49838,0.81386 0.3961,-0.25319 0.7597,-0.3578 1.09081,-0.31384 0.33328,0.0423 0.62967,0.23193 0.88918,0.56893 0.31848,0.41359 0.4082,0.82185 0.26914,1.2248 -0.13906,0.40295 -0.52647,0.84921 -1.16223,1.33878 l -1.56555,1.20555 z"
         id="path1891"
         inkscape:original-d="m 151.56141,144.19383 v 1.60227 h 0.71051 q 0.51113,0 0.71413,-0.174 0.20663,-0.174 0.20663,-0.60538 0,-0.43863 -0.21388,-0.63076 -0.21388,-0.19213 -0.70688,-0.19213 z m 0,-2.10977 v 1.25789 h 0.71051 q 0.406,0 0.57638,-0.145 0.174,-0.145 0.174,-0.47851 0,-0.3335 -0.17763,-0.48213 -0.174,-0.15225 -0.57275,-0.15225 z m -1.03314,-0.85188 h 1.74365 q 0.90263,0 1.35576,0.34438 0.45676,0.34075 0.45676,1.02226 0,0.522 -0.26826,0.81563 -0.26825,0.29363 -0.78663,0.34076 0.61988,0.0616 0.93163,0.41687 0.31538,0.35526 0.31538,0.99327 0,0.783 -0.47125,1.13463 -0.47126,0.35163 -1.53339,0.35163 h -1.74365 z"
         style="fill:#0000ff;fill-opacity:1;stroke:none" />
      <path
         d="m 156.71104,133.48915 c -0.22784,0.17544 -0.33829,0.40233 -0.33135,0.68065 0.005,0.27641 0.12983,0.57258 0.37312,0.88852 0.24329,0.31594 0.49859,0.51282 0.7659,0.59064 0.26585,0.0759 0.51269,0.0261 0.74052,-0.1493 0.23,-0.17711 0.34227,-0.40388 0.33682,-0.6803 -0.007,-0.27832 -0.13205,-0.57545 -0.37534,-0.89139 -0.24329,-0.31594 -0.49785,-0.51186 -0.76369,-0.58777 -0.26732,-0.0778 -0.51598,-0.0282 -0.74598,0.14895 z m -0.91188,2.30353 c -0.39958,-0.5189 -0.56397,-1.04658 -0.49316,-1.58304 0.0715,-0.54004 0.36439,-1.00806 0.87865,-1.40407 0.51643,-0.39767 1.04375,-0.56124 1.58196,-0.49072 0.53892,0.0669 1.00817,0.35986 1.40774,0.87876 0.39959,0.51891 0.56362,1.04838 0.49212,1.58843 -0.0708,0.53646 -0.36443,1.00352 -0.88085,1.40119 -0.51426,0.39601 -1.04085,0.56054 -1.57977,0.4936 -0.53821,-0.0705 -1.00711,-0.36524 -1.40669,-0.88415 z"
         id="path1893"
         inkscape:original-d="m 156.77784,143.35645 q -0.38063,0 -0.59813,0.33713 -0.2175,0.3335 -0.2175,0.93163 0,0.59814 0.2175,0.93526 0.2175,0.33351 0.59813,0.33351 0.38425,0 0.60176,-0.33351 0.2175,-0.33712 0.2175,-0.93526 0,-0.59813 -0.2175,-0.93163 -0.21751,-0.33713 -0.60176,-0.33713 z m -1.87777,1.26876 q 0,-0.98238 0.5075,-1.55514 0.51113,-0.57638 1.37027,-0.57638 0.86276,0 1.37026,0.57638 0.51113,0.57276 0.51113,1.55514 0,0.98239 -0.51113,1.55877 -0.5075,0.57276 -1.37026,0.57276 -0.85914,0 -1.37027,-0.57276 -0.5075,-0.57638 -0.5075,-1.55877 z"
         style="fill:#0000ff;fill-opacity:1;stroke:none" />
      <path
         d="m 159.79505,128.694 0.70332,0.91334 1.24658,-0.95993 0.49763,0.64624 -1.24658,0.95992 1.1722,1.52225 c 0.11058,0.14361 0.22926,0.21693 0.35604,0.21997 0.12746,-5.5e-4 0.28341,-0.0718 0.46785,-0.21386 l 0.73233,-0.56393 0.49763,0.64623 -0.80068,0.61656 c -0.5468,0.42106 -0.97574,0.62936 -1.28681,0.62489 -0.31255,-0.006 -0.62954,-0.21829 -0.95098,-0.63571 l -1.14124,-1.48204 -0.93086,0.71681 -0.49763,-0.64623 0.93086,-0.71681 -0.70331,-0.91334 z"
         id="path1895"
         inkscape:original-d="m 161.51577,141.43881 v 1.15276 h 1.38839 v 0.81563 h -1.38839 v 1.92127 q 0,0.27188 0.1305,0.39151 0.13412,0.116 0.44225,0.116 h 0.81564 v 0.81563 h -0.89176 q -0.91351,0 -1.23614,-0.29 -0.32263,-0.29363 -0.32263,-1.08389 v -1.87052 h -1.03676 v -0.81563 h 1.03676 v -1.15276 z"
         style="fill:#0000ff;fill-opacity:1;stroke:none" />
    </g>
    <g
       aria-label="DotBot"
       transform="matrix(0.92946124,0,0,1.0758921,-2.8616104,51.149969)"
       id="text904-8"
       style="font-weight:bold;font-size:7.42408px;font-family:'DejaVu Sans Mono';-inkscape-font-specification:'DejaVu Sans Mono, Bold';fill:#0000ff;fill-opacity:1;stroke:none;stroke-width:0.0442207"
       inkscape:path-effect="#path-effect1923"
       class="UnoptimicedTransforms">
      <path
         d="m 70.086949,127.68052 -2.142053,2.74727 0.2599,0.20265 c 0.376855,0.29383 0.726404,0.39936 1.048649,0.31659 0.323729,-0.0847 0.681002,-0.37763 1.071819,-0.87887 0.387841,-0.49743 0.582613,-0.91249 0.584314,-1.24519 0.0017,-0.3327 -0.185875,-0.64597 -0.562729,-0.9398 z m -0.36547,-1.50768 1.026604,0.80045 c 0.792694,0.61806 1.233366,1.2298 1.322017,1.8352 0.09014,0.6035 -0.159021,1.2826 -0.747471,2.03732 -0.589942,0.75662 -1.190028,1.1667 -1.800259,1.23025 -0.608746,0.0616 -1.309466,-0.21657 -2.10216,-0.83464 l -1.026603,-0.80045 z"
         id="path1910"
         inkscape:original-d="m 65.690437,137.65402 v 3.48366 h 0.290003 q 0.630757,0 0.89901,-0.39513 0.268253,-0.39875 0.268253,-1.35214 0,-0.94613 -0.268253,-1.34126 -0.268253,-0.39513 -0.89901,-0.39513 z m -1.069386,-0.96426 h 1.145512 q 1.326764,0 1.910395,0.63438 0.583632,0.63076 0.583632,2.06627 0,1.43915 -0.583632,2.07715 -0.583631,0.63438 -1.910395,0.63438 h -1.145512 z"
         style="fill:#0000ff;fill-opacity:1;stroke:none" />
      <path
         d="m 73.981607,132.17895 c -0.227412,-0.17732 -0.475192,-0.22801 -0.743339,-0.15209 -0.266664,0.074 -0.522589,0.26826 -0.767777,0.58272 -0.245188,0.31447 -0.371905,0.61098 -0.380153,0.88955 -0.0068,0.27665 0.103566,0.50364 0.330978,0.68095 0.229578,0.17901 0.477697,0.2315 0.744357,0.15749 0.268147,-0.0759 0.524815,-0.27112 0.770002,-0.58558 0.245188,-0.31446 0.371164,-0.61003 0.377928,-0.88669 0.0082,-0.27857 -0.102418,-0.50735 -0.331996,-0.68635 z m -2.462999,-0.31155 c 0.402705,-0.51649 0.873058,-0.80708 1.411058,-0.87178 0.541658,-0.0649 1.069138,0.10272 1.58244,0.50294 0.515468,0.40191 0.806672,0.87259 0.873612,1.41205 0.0706,0.53922 -0.09545,1.06708 -0.49816,1.58357 -0.4027,0.51648 -0.874878,0.80718 -1.416532,0.8721 -0.538005,0.0647 -1.064741,-0.1039 -1.580209,-0.50581 -0.513302,-0.40022 -0.80525,-0.86995 -0.875843,-1.40918 -0.06694,-0.53945 0.100933,-1.06741 0.503634,-1.58389 z"
         id="path1912"
         inkscape:original-d="m 70.827117,138.80678 q -0.380629,0 -0.598131,0.33713 -0.217502,0.33351 -0.217502,0.93164 0,0.59813 0.217502,0.93526 0.217502,0.3335 0.598131,0.3335 0.384254,0 0.601757,-0.3335 0.217502,-0.33713 0.217502,-0.93526 0,-0.59813 -0.217502,-0.93164 -0.217503,-0.33713 -0.601757,-0.33713 z m -1.87777,1.26877 q 0,-0.98239 0.507506,-1.55514 0.51113,-0.57639 1.370264,-0.57639 0.86276,0 1.370265,0.57639 0.511131,0.57275 0.511131,1.55514 0,0.98238 -0.511131,1.55876 -0.507505,0.57276 -1.370265,0.57276 -0.859134,0 -1.370264,-0.57276 -0.507506,-0.57638 -0.507506,-1.55876 z"
         style="fill:#0000ff;fill-opacity:1;stroke:none" />
      <path
         d="m 79.406848,133.97737 -0.708816,0.90908 1.24427,0.97016 -0.501519,0.64322 -1.24427,-0.97016 -1.181361,1.51515 c -0.11145,0.14294 -0.15271,0.27625 -0.123779,0.39994 0.03258,0.12347 0.140925,0.25697 0.325021,0.40051 l 0.730967,0.56994 -0.501519,0.64322 -0.799191,-0.62314 c -0.54579,-0.42555 -0.855625,-0.78971 -0.929507,-1.09247 -0.07239,-0.30466 0.05338,-0.66474 0.377331,-1.08021 l 1.150156,-1.47512 -0.929142,-0.72446 0.50152,-0.64322 0.929141,0.72446 0.708816,-0.90909 z"
         id="path1914"
         inkscape:original-d="m 75.565043,136.88914 v 1.15276 h 1.38839 v 0.81563 h -1.38839 v 1.92127 q 0,0.27188 0.130502,0.39151 0.134126,0.116 0.442255,0.116 h 0.815633 v 0.81563 h -0.891759 q -0.91351,0 -1.236139,-0.29 -0.322628,-0.29363 -0.322628,-1.08389 v -1.87052 h -1.036761 v -0.81563 h 1.036761 v -1.15276 z"
         style="fill:#0000ff;fill-opacity:1;stroke:none" />
      <path
         d="m 80.808876,138.56403 -0.985207,1.26357 0.636754,0.49648 c 0.305382,0.2381 0.55438,0.3587 0.746993,0.36179 0.194779,0.005 0.380585,-0.10623 0.557418,-0.33303 0.179805,-0.23061 0.245195,-0.44623 0.196169,-0.64688 -0.04903,-0.20064 -0.22082,-0.41579 -0.515374,-0.64545 z m 1.297273,-1.66381 -0.773458,0.992 0.636753,0.49647 c 0.242574,0.18914 0.444477,0.28527 0.605709,0.28841 0.163399,0.005 0.313454,-0.0804 0.450163,-0.25577 0.136714,-0.17534 0.182469,-0.34345 0.137266,-0.50433 -0.04154,-0.16111 -0.181437,-0.33454 -0.419679,-0.5203 z m -0.402084,-1.39372 1.562647,1.2184 c 0.539292,0.42048 0.873718,0.8268 1.003277,1.21894 0.133213,0.39193 0.06014,0.76704 -0.219231,1.12534 -0.213984,0.27444 -0.461293,0.42637 -0.741926,0.45577 -0.280638,0.0294 -0.585474,-0.0642 -0.914507,-0.28094 0.345106,0.32115 0.53797,0.64773 0.578594,0.97975 0.0428,0.33369 -0.06657,0.66825 -0.3281,1.00368 -0.320974,0.41166 -0.694311,0.60016 -1.120011,0.56549 -0.425695,-0.0347 -0.955837,-0.29939 -1.590426,-0.79418 l -1.562647,-1.2184 z"
         id="path1916"
         inkscape:original-d="m 79.019706,139.64417 v 1.60226 h 0.710507 q 0.511131,0 0.714133,-0.174 0.206627,-0.174 0.206627,-0.60538 0,-0.43863 -0.213877,-0.63076 -0.213877,-0.19212 -0.706883,-0.19212 z m 0,-2.10978 v 1.25789 h 0.710507 q 0.406005,0 0.576381,-0.145 0.174002,-0.145 0.174002,-0.4785 0,-0.33351 -0.177627,-0.48213 -0.174001,-0.15226 -0.572756,-0.15226 z m -1.033136,-0.85188 h 1.743643 q 0.902635,0 1.355765,0.34438 0.456755,0.34075 0.456755,1.02226 0,0.52201 -0.268253,0.81563 -0.268253,0.29363 -0.786634,0.34076 0.619882,0.0616 0.931635,0.41688 0.315379,0.35525 0.315379,0.99326 0,0.78301 -0.471255,1.13464 -0.471255,0.35162 -1.533392,0.35162 H 77.98657 Z"
         style="fill:#0000ff;fill-opacity:1;stroke:none" />
      <path
         d="m 85.998721,141.54872 c -0.227412,-0.17732 -0.475192,-0.22801 -0.74334,-0.15209 -0.266664,0.074 -0.522589,0.26826 -0.767777,0.58272 -0.245188,0.31446 -0.371905,0.61098 -0.380153,0.88955 -0.0068,0.27665 0.103567,0.50364 0.330979,0.68095 0.229578,0.17901 0.477697,0.2315 0.744356,0.15749 0.268148,-0.0759 0.524816,-0.27112 0.770003,-0.58558 0.245188,-0.31446 0.371164,-0.61003 0.377927,-0.88669 0.0082,-0.27857 -0.102417,-0.50735 -0.331995,-0.68635 z m -2.462999,-0.31155 c 0.402705,-0.51649 0.873057,-0.80708 1.411057,-0.87178 0.541659,-0.0649 1.069139,0.10272 1.582441,0.50294 0.515467,0.40191 0.806671,0.87259 0.873612,1.41204 0.0706,0.53923 -0.09546,1.06709 -0.49816,1.58357 -0.402701,0.51648 -0.874879,0.80719 -1.416532,0.87211 -0.538005,0.0647 -1.064741,-0.1039 -1.580209,-0.50581 -0.513302,-0.40022 -0.80525,-0.86995 -0.875844,-1.40918 -0.06694,-0.53945 0.100934,-1.06741 0.503635,-1.58389 z"
         id="path1918"
         inkscape:original-d="m 84.236137,138.80678 q -0.380629,0 -0.598132,0.33713 -0.217502,0.33351 -0.217502,0.93164 0,0.59813 0.217502,0.93526 0.217503,0.3335 0.598132,0.3335 0.384254,0 0.601756,-0.3335 0.217503,-0.33713 0.217503,-0.93526 0,-0.59813 -0.217503,-0.93164 -0.217502,-0.33713 -0.601756,-0.33713 z m -1.87777,1.26877 q 0,-0.98239 0.507505,-1.55514 0.511131,-0.57639 1.370265,-0.57639 0.862759,0 1.370265,0.57639 0.51113,0.57275 0.51113,1.55514 0,0.98238 -0.51113,1.55876 -0.507506,0.57276 -1.370265,0.57276 -0.859134,0 -1.370265,-0.57276 -0.507505,-0.57638 -0.507505,-1.55876 z"
         style="fill:#0000ff;fill-opacity:1;stroke:none" />
      <path
         d="m 91.423962,143.34714 -0.708816,0.90908 1.24427,0.97016 -0.501519,0.64322 -1.24427,-0.97016 -1.181361,1.51515 c -0.11145,0.14293 -0.15271,0.27625 -0.12378,0.39994 0.03258,0.12346 0.140925,0.25697 0.325021,0.40051 l 0.730968,0.56994 -0.501519,0.64321 -0.799192,-0.62313 c -0.54579,-0.42555 -0.855625,-0.78971 -0.929506,-1.09247 -0.07239,-0.30467 0.05338,-0.66474 0.37733,-1.08021 l 1.150156,-1.47512 -0.929141,-0.72446 0.501519,-0.64322 0.929141,0.72446 0.708816,-0.90909 z"
         id="path1920"
         inkscape:original-d="m 88.974063,136.88914 v 1.15276 h 1.38839 v 0.81563 h -1.38839 v 1.92127 q 0,0.27188 0.130501,0.39151 0.134127,0.116 0.442255,0.116 h 0.815634 v 0.81563 h -0.89176 q -0.91351,0 -1.236138,-0.29 -0.322629,-0.29363 -0.322629,-1.08389 v -1.87052 h -1.036761 v -0.81563 h 1.036761 v -1.15276 z"
         style="fill:#0000ff;fill-opacity:1;stroke:none" />
    </g>
  </g>
</svg>
