%TF.GenerationSoftware,KiCad,Pcbnew,(5.1.9)-1*%
%TF.CreationDate,2021-03-26T18:59:29+01:00*%
%TF.ProjectId,DotBot,446f7442-6f74-42e6-9b69-6361645f7063,rev?*%
%TF.SameCoordinates,Original*%
%TF.FileFunction,Copper,L2,Inr*%
%TF.FilePolarity,Positive*%
%FSLAX46Y46*%
G04 Gerber Fmt 4.6, Leading zero omitted, Abs format (unit mm)*
G04 Created by KiCad (PCBNEW (5.1.9)-1) date 2021-03-26 18:59:29*
%MOMM*%
%LPD*%
G01*
G04 APERTURE LIST*
%TA.AperFunction,ComponentPad*%
%ADD10O,1.000000X1.000000*%
%TD*%
%TA.AperFunction,ComponentPad*%
%ADD11R,1.000000X1.000000*%
%TD*%
%TA.AperFunction,ComponentPad*%
%ADD12O,1.700000X1.700000*%
%TD*%
%TA.AperFunction,ComponentPad*%
%ADD13R,1.700000X1.700000*%
%TD*%
%TA.AperFunction,ComponentPad*%
%ADD14R,0.850000X0.850000*%
%TD*%
%TA.AperFunction,ComponentPad*%
%ADD15C,0.500000*%
%TD*%
%TA.AperFunction,ViaPad*%
%ADD16C,0.800000*%
%TD*%
%TA.AperFunction,Conductor*%
%ADD17C,0.500000*%
%TD*%
%TA.AperFunction,Conductor*%
%ADD18C,1.000000*%
%TD*%
%TA.AperFunction,Conductor*%
%ADD19C,0.300000*%
%TD*%
%TA.AperFunction,Conductor*%
%ADD20C,2.000000*%
%TD*%
%TA.AperFunction,Conductor*%
%ADD21C,0.200000*%
%TD*%
%TA.AperFunction,Conductor*%
%ADD22C,1.500000*%
%TD*%
%TA.AperFunction,Conductor*%
%ADD23C,0.400000*%
%TD*%
G04 APERTURE END LIST*
D10*
%TO.N,P1_09*%
%TO.C,J5*%
X110500000Y-65070000D03*
%TO.N,P0_28*%
X110500000Y-63800000D03*
%TO.N,P0_02*%
X110500000Y-62530000D03*
%TO.N,P0_11*%
X110500000Y-61260000D03*
%TO.N,P0_15*%
X110500000Y-59990000D03*
%TO.N,P0_17*%
X110500000Y-58720000D03*
%TO.N,P0_04*%
X110500000Y-57450000D03*
%TO.N,P0_03*%
X110500000Y-56180000D03*
%TO.N,P0_05*%
X110500000Y-54910000D03*
%TO.N,P0_20*%
X110500000Y-53640000D03*
%TO.N,P0_29*%
X110500000Y-52370000D03*
D11*
%TO.N,P0_30*%
X110500000Y-51100000D03*
%TD*%
D12*
%TO.N,GND*%
%TO.C,J6*%
X109580000Y-70760000D03*
X109580000Y-73300000D03*
%TO.N,VDD*%
X107040000Y-70760000D03*
%TO.N,P0_09*%
X107040000Y-73300000D03*
%TO.N,P0_10*%
X104500000Y-70760000D03*
D13*
%TO.N,P0_31*%
X104500000Y-73300000D03*
%TD*%
D12*
%TO.N,Net-(J2-Pad2)*%
%TO.C,J2*%
X100200000Y-76760000D03*
D13*
%TO.N,Net-(J2-Pad1)*%
X100200000Y-79300000D03*
%TD*%
D14*
%TO.N,GND*%
%TO.C,TP3*%
X77000000Y-53300000D03*
%TD*%
%TO.N,GND*%
%TO.C,TP2*%
X87100000Y-73500000D03*
%TD*%
%TO.N,GND*%
%TO.C,TP1*%
X89700000Y-72500000D03*
%TD*%
D12*
%TO.N,Net-(J4-Pad2)*%
%TO.C,J4*%
X88822000Y-62226000D03*
D13*
%TO.N,GND*%
X91362000Y-62226000D03*
%TD*%
D12*
%TO.N,Net-(J1-Pad2)*%
%TO.C,J1*%
X90750000Y-76810000D03*
D13*
%TO.N,Net-(J1-Pad1)*%
X90750000Y-79350000D03*
%TD*%
D15*
%TO.N,GND*%
%TO.C,U3*%
X94000000Y-72750000D03*
X94000000Y-71250000D03*
X95500000Y-72750000D03*
X95500000Y-71250000D03*
X97000000Y-72750000D03*
X97000000Y-71250000D03*
%TD*%
D16*
%TO.N,GND*%
X82400000Y-63700000D03*
X80500000Y-71400000D03*
X80540000Y-73460000D03*
X83400000Y-61000000D03*
X78800000Y-53300000D03*
X78800000Y-59700000D03*
X88500000Y-66800000D03*
X84300000Y-49900000D03*
X86500000Y-77300000D03*
X104000000Y-75800000D03*
X98700000Y-52800000D03*
X99500000Y-53400000D03*
%TO.N,+3V3*%
X82100000Y-54900000D03*
X83700000Y-50800000D03*
X94900000Y-48300000D03*
X94675724Y-50475724D03*
X76600000Y-56900000D03*
X102800000Y-77500000D03*
%TO.N,VDD*%
X97000000Y-49000000D03*
X92525728Y-55725728D03*
%TO.N,TS4231_D*%
X81000000Y-52500000D03*
X88300000Y-51900000D03*
%TO.N,GND*%
X91362000Y-66262000D03*
X94625000Y-79675000D03*
X96575000Y-79625000D03*
X95299986Y-79099986D03*
X95825000Y-77975000D03*
X95650000Y-79875000D03*
X95974979Y-54800000D03*
X98450000Y-62125000D03*
X83219662Y-63880338D03*
X77100000Y-59200000D03*
%TO.N,+3V3*%
X84362357Y-79250010D03*
%TO.N,+6V*%
X88200000Y-65700000D03*
X81400000Y-61700000D03*
%TO.N,VDD*%
X103825000Y-55950000D03*
X99100000Y-58600000D03*
%TO.N,P0_30*%
X100000000Y-48900000D03*
%TO.N,P0_29*%
X98500000Y-48900000D03*
%TO.N,P0_05*%
X101500000Y-53700000D03*
X98375000Y-76950000D03*
X99925000Y-73275000D03*
%TO.N,P0_04*%
X92700000Y-76875000D03*
X97000000Y-58700000D03*
X99200000Y-74100000D03*
%TO.N,P0_03*%
X94400000Y-57100000D03*
%TO.N,P0_17*%
X86800000Y-81000000D03*
X102874537Y-52720132D03*
X107500000Y-77225000D03*
X107400000Y-56300000D03*
X107200000Y-58800000D03*
%TO.N,P0_15*%
X104813516Y-53625904D03*
X108100000Y-55600000D03*
%TO.N,P1_09*%
X98700000Y-68175000D03*
X101950000Y-68175000D03*
X110475000Y-68175000D03*
%TO.N,P0_11*%
X98750000Y-69125000D03*
X102550000Y-69125000D03*
X111700000Y-68800000D03*
%TO.N,P0_28*%
X92386772Y-69011772D03*
X96725000Y-64650000D03*
%TO.N,P0_02*%
X91900000Y-69950000D03*
X95850000Y-64050000D03*
%TO.N,P0_10*%
X112800001Y-72699999D03*
%TO.N,P0_31*%
X112800000Y-75300000D03*
%TO.N,P0_20*%
X85769669Y-66430331D03*
X98700000Y-51500000D03*
%TO.N,P0_09*%
X112200000Y-74300000D03*
%TD*%
D17*
%TO.N,GND*%
X90774000Y-62226000D02*
X91362000Y-62226000D01*
X89500000Y-63500000D02*
X90774000Y-62226000D01*
X85100000Y-61000000D02*
X87600000Y-63500000D01*
X83400000Y-61000000D02*
X85100000Y-61000000D01*
X87600000Y-63500000D02*
X89500000Y-63500000D01*
X78800000Y-53300000D02*
X78800000Y-54200000D01*
X78800000Y-54200000D02*
X78800000Y-59700000D01*
D18*
X99500000Y-53400000D02*
X99244000Y-53400000D01*
X99300000Y-53400000D02*
X98700000Y-52800000D01*
X99500000Y-53400000D02*
X99300000Y-53400000D01*
D17*
X82000000Y-49900000D02*
X84300000Y-49900000D01*
X78800000Y-53100000D02*
X82000000Y-49900000D01*
X78800000Y-54200000D02*
X78800000Y-53100000D01*
D19*
X77000000Y-53300000D02*
X78800000Y-53300000D01*
D18*
X82540000Y-73760000D02*
X90038000Y-66262000D01*
X90038000Y-66262000D02*
X91362000Y-66262000D01*
D20*
X91857002Y-66262000D02*
X91362000Y-66262000D01*
X94000000Y-68404998D02*
X91857002Y-66262000D01*
X94000000Y-71250000D02*
X94000000Y-68404998D01*
X95500000Y-69904998D02*
X91857002Y-66262000D01*
X95500000Y-71250000D02*
X95500000Y-69904998D01*
X97000000Y-70851000D02*
X91362000Y-65213000D01*
X97000000Y-71250000D02*
X97000000Y-70851000D01*
X91362000Y-65213000D02*
X91362000Y-62226000D01*
X91362000Y-66262000D02*
X91362000Y-65213000D01*
X95299986Y-74049986D02*
X94000000Y-72750000D01*
X95299986Y-79099986D02*
X95299986Y-74049986D01*
X95825000Y-72425000D02*
X97000000Y-71250000D01*
X95825000Y-77975000D02*
X95825000Y-72425000D01*
D18*
X96575000Y-73825000D02*
X94000000Y-71250000D01*
X96575000Y-79625000D02*
X96575000Y-73825000D01*
X96325000Y-79875000D02*
X96575000Y-79625000D01*
X95650000Y-79875000D02*
X96325000Y-79875000D01*
X94825000Y-79875000D02*
X94625000Y-79675000D01*
X95650000Y-79875000D02*
X94825000Y-79875000D01*
X94625000Y-73375000D02*
X94000000Y-72750000D01*
X94625000Y-79675000D02*
X94625000Y-73375000D01*
X96575000Y-73175000D02*
X97000000Y-72750000D01*
X96575000Y-79625000D02*
X96575000Y-73175000D01*
D19*
X95994000Y-57594000D02*
X95994000Y-54819021D01*
X95994000Y-54819021D02*
X95974979Y-54800000D01*
D21*
X91362000Y-62226000D02*
X98349000Y-62226000D01*
X98349000Y-62226000D02*
X98450000Y-62125000D01*
D18*
X80540000Y-71440000D02*
X80500000Y-71400000D01*
X80540000Y-73460000D02*
X80540000Y-71440000D01*
X80500000Y-72500000D02*
X81760000Y-73760000D01*
X80500000Y-71400000D02*
X80500000Y-72500000D01*
X81760000Y-73760000D02*
X82540000Y-73760000D01*
X81460000Y-73460000D02*
X81760000Y-73760000D01*
X80540000Y-73460000D02*
X81460000Y-73460000D01*
D17*
X80580000Y-73500000D02*
X80540000Y-73460000D01*
X87100000Y-73500000D02*
X80580000Y-73500000D01*
D22*
X82400000Y-63700000D02*
X83100000Y-63700000D01*
X83100000Y-63700000D02*
X83800000Y-64400000D01*
X89188000Y-64400000D02*
X91362000Y-62226000D01*
X83800000Y-64400000D02*
X89188000Y-64400000D01*
D17*
X89000000Y-81000000D02*
X86500000Y-78500000D01*
X101800000Y-80300000D02*
X101100000Y-81000000D01*
X101100000Y-81000000D02*
X89000000Y-81000000D01*
X101800000Y-76800000D02*
X101800000Y-80300000D01*
X104000000Y-75800000D02*
X102800000Y-75800000D01*
D23*
X86500000Y-77300000D02*
X86500000Y-78500000D01*
X89500000Y-66800000D02*
X90038000Y-66262000D01*
X88500000Y-66800000D02*
X89500000Y-66800000D01*
D17*
X86500000Y-78500000D02*
X81200000Y-78500000D01*
X77100000Y-74400000D02*
X77100000Y-59765685D01*
X81200000Y-78500000D02*
X77100000Y-74400000D01*
X77100000Y-59765685D02*
X77100000Y-59200000D01*
D19*
X93750001Y-72500001D02*
X94000000Y-72750000D01*
X89700000Y-72500000D02*
X93750001Y-72500001D01*
D18*
X97922000Y-54722000D02*
X96722000Y-55922000D01*
X99244000Y-53400000D02*
X97922000Y-54722000D01*
X91362000Y-62038000D02*
X91362000Y-62226000D01*
X95806000Y-57594000D02*
X91362000Y-62038000D01*
X95994000Y-57594000D02*
X95806000Y-57594000D01*
X95900000Y-56744000D02*
X95900000Y-57594000D01*
X96722000Y-55922000D02*
X95900000Y-56744000D01*
X96722000Y-55822000D02*
X96722000Y-55922000D01*
X96400000Y-55500000D02*
X96722000Y-55822000D01*
X97600000Y-54300000D02*
X96400000Y-55500000D01*
X97600000Y-53900000D02*
X97600000Y-54300000D01*
X98700000Y-52800000D02*
X97600000Y-53900000D01*
D17*
X102350000Y-76250000D02*
X101800000Y-76800000D01*
X102800000Y-75800000D02*
X102350000Y-76250000D01*
D23*
X109580000Y-73300000D02*
X109580000Y-70760000D01*
X92900000Y-63000000D02*
X92136000Y-63000000D01*
X92136000Y-63000000D02*
X91362000Y-62226000D01*
X96900000Y-67000000D02*
X92900000Y-63000000D01*
X105820000Y-67000000D02*
X96900000Y-67000000D01*
X109580000Y-70760000D02*
X105820000Y-67000000D01*
X104000000Y-75800000D02*
X108500000Y-75800000D01*
X109580000Y-74720000D02*
X109580000Y-73300000D01*
X108500000Y-75800000D02*
X109580000Y-74720000D01*
%TD*%
M02*
