%TF.GenerationSoftware,KiCad,Pcbnew,(5.1.9)-1*%
%TF.CreationDate,2021-03-26T19:47:33+01:00*%
%TF.ProjectId,DotBot,446f7442-6f74-42e6-9b69-6361645f7063,rev?*%
%TF.SameCoordinates,Original*%
%TF.FileFunction,Soldermask,Top*%
%TF.FilePolarity,Negative*%
%FSLAX46Y46*%
G04 Gerber Fmt 4.6, Leading zero omitted, Abs format (unit mm)*
G04 Created by KiCad (PCBNEW (5.1.9)-1) date 2021-03-26 19:47:33*
%MOMM*%
%LPD*%
G01*
G04 APERTURE LIST*
%ADD10O,1.000000X1.000000*%
%ADD11R,1.000000X1.000000*%
%ADD12O,1.700000X1.700000*%
%ADD13R,1.700000X1.700000*%
%ADD14C,2.200000*%
%ADD15R,0.850000X0.850000*%
%ADD16R,2.790000X0.740000*%
%ADD17C,0.400000*%
%ADD18R,1.400000X1.200000*%
%ADD19R,1.400000X2.000000*%
%ADD20R,0.900000X0.800000*%
%ADD21R,2.310000X2.460000*%
%ADD22R,0.650000X1.060000*%
%ADD23C,0.290000*%
G04 APERTURE END LIST*
D10*
%TO.C,J5*%
X110500000Y-65070000D03*
X110500000Y-63800000D03*
X110500000Y-62530000D03*
X110500000Y-61260000D03*
X110500000Y-59990000D03*
X110500000Y-58720000D03*
X110500000Y-57450000D03*
X110500000Y-56180000D03*
X110500000Y-54910000D03*
X110500000Y-53640000D03*
X110500000Y-52370000D03*
D11*
X110500000Y-51100000D03*
%TD*%
D12*
%TO.C,J6*%
X109580000Y-70760000D03*
X109580000Y-73300000D03*
X107040000Y-70760000D03*
X107040000Y-73300000D03*
X104500000Y-70760000D03*
D13*
X104500000Y-73300000D03*
%TD*%
D14*
%TO.C,REF\u002A\u002A*%
X78500000Y-78500000D03*
%TD*%
%TO.C,REF\u002A\u002A*%
X111500000Y-78500000D03*
%TD*%
%TO.C,REF\u002A\u002A*%
X110700000Y-46200000D03*
%TD*%
%TO.C,C7*%
G36*
G01*
X95100000Y-67550000D02*
X95100000Y-67050000D01*
G75*
G02*
X95325000Y-66825000I225000J0D01*
G01*
X95775000Y-66825000D01*
G75*
G02*
X96000000Y-67050000I0J-225000D01*
G01*
X96000000Y-67550000D01*
G75*
G02*
X95775000Y-67775000I-225000J0D01*
G01*
X95325000Y-67775000D01*
G75*
G02*
X95100000Y-67550000I0J225000D01*
G01*
G37*
G36*
G01*
X96650000Y-67550000D02*
X96650000Y-67050000D01*
G75*
G02*
X96875000Y-66825000I225000J0D01*
G01*
X97325000Y-66825000D01*
G75*
G02*
X97550000Y-67050000I0J-225000D01*
G01*
X97550000Y-67550000D01*
G75*
G02*
X97325000Y-67775000I-225000J0D01*
G01*
X96875000Y-67775000D01*
G75*
G02*
X96650000Y-67550000I0J225000D01*
G01*
G37*
%TD*%
D12*
%TO.C,J2*%
X100200000Y-76760000D03*
D13*
X100200000Y-79300000D03*
%TD*%
%TO.C,C14*%
G36*
G01*
X93750000Y-61675000D02*
X94250000Y-61675000D01*
G75*
G02*
X94475000Y-61900000I0J-225000D01*
G01*
X94475000Y-62350000D01*
G75*
G02*
X94250000Y-62575000I-225000J0D01*
G01*
X93750000Y-62575000D01*
G75*
G02*
X93525000Y-62350000I0J225000D01*
G01*
X93525000Y-61900000D01*
G75*
G02*
X93750000Y-61675000I225000J0D01*
G01*
G37*
G36*
G01*
X93750000Y-60125000D02*
X94250000Y-60125000D01*
G75*
G02*
X94475000Y-60350000I0J-225000D01*
G01*
X94475000Y-60800000D01*
G75*
G02*
X94250000Y-61025000I-225000J0D01*
G01*
X93750000Y-61025000D01*
G75*
G02*
X93525000Y-60800000I0J225000D01*
G01*
X93525000Y-60350000D01*
G75*
G02*
X93750000Y-60125000I225000J0D01*
G01*
G37*
%TD*%
D15*
%TO.C,TP3*%
X77000000Y-53300000D03*
%TD*%
%TO.C,TP2*%
X87100000Y-73500000D03*
%TD*%
%TO.C,TP1*%
X89700000Y-72500000D03*
%TD*%
%TO.C,R13*%
G36*
G01*
X84075000Y-75325000D02*
X84075000Y-75875000D01*
G75*
G02*
X83875000Y-76075000I-200000J0D01*
G01*
X83475000Y-76075000D01*
G75*
G02*
X83275000Y-75875000I0J200000D01*
G01*
X83275000Y-75325000D01*
G75*
G02*
X83475000Y-75125000I200000J0D01*
G01*
X83875000Y-75125000D01*
G75*
G02*
X84075000Y-75325000I0J-200000D01*
G01*
G37*
G36*
G01*
X85725000Y-75325000D02*
X85725000Y-75875000D01*
G75*
G02*
X85525000Y-76075000I-200000J0D01*
G01*
X85125000Y-76075000D01*
G75*
G02*
X84925000Y-75875000I0J200000D01*
G01*
X84925000Y-75325000D01*
G75*
G02*
X85125000Y-75125000I200000J0D01*
G01*
X85525000Y-75125000D01*
G75*
G02*
X85725000Y-75325000I0J-200000D01*
G01*
G37*
%TD*%
%TO.C,D2*%
G36*
G01*
X81750000Y-75856250D02*
X81750000Y-75343750D01*
G75*
G02*
X81968750Y-75125000I218750J0D01*
G01*
X82406250Y-75125000D01*
G75*
G02*
X82625000Y-75343750I0J-218750D01*
G01*
X82625000Y-75856250D01*
G75*
G02*
X82406250Y-76075000I-218750J0D01*
G01*
X81968750Y-76075000D01*
G75*
G02*
X81750000Y-75856250I0J218750D01*
G01*
G37*
G36*
G01*
X80175000Y-75856250D02*
X80175000Y-75343750D01*
G75*
G02*
X80393750Y-75125000I218750J0D01*
G01*
X80831250Y-75125000D01*
G75*
G02*
X81050000Y-75343750I0J-218750D01*
G01*
X81050000Y-75856250D01*
G75*
G02*
X80831250Y-76075000I-218750J0D01*
G01*
X80393750Y-76075000D01*
G75*
G02*
X80175000Y-75856250I0J218750D01*
G01*
G37*
%TD*%
D16*
%TO.C,J3*%
X100365000Y-59860000D03*
X104435000Y-59860000D03*
X100365000Y-61130000D03*
X104435000Y-61130000D03*
X100365000Y-62400000D03*
X104435000Y-62400000D03*
X100365000Y-63670000D03*
X104435000Y-63670000D03*
X100365000Y-64940000D03*
X104435000Y-64940000D03*
%TD*%
D12*
%TO.C,J4*%
X88822000Y-62226000D03*
D13*
X91362000Y-62226000D03*
%TD*%
D12*
%TO.C,J1*%
X90750000Y-76810000D03*
D13*
X90750000Y-79350000D03*
%TD*%
D17*
%TO.C,U4*%
X81212000Y-51120000D03*
X80712000Y-51120000D03*
X80212000Y-51120000D03*
X80212000Y-50620000D03*
X81212000Y-50620000D03*
X81212000Y-50120000D03*
X80212000Y-50120000D03*
X80712000Y-50120000D03*
X80712000Y-50620000D03*
%TD*%
%TO.C,C1*%
G36*
G01*
X82066000Y-49860000D02*
X82406000Y-49860000D01*
G75*
G02*
X82546000Y-50000000I0J-140000D01*
G01*
X82546000Y-50280000D01*
G75*
G02*
X82406000Y-50420000I-140000J0D01*
G01*
X82066000Y-50420000D01*
G75*
G02*
X81926000Y-50280000I0J140000D01*
G01*
X81926000Y-50000000D01*
G75*
G02*
X82066000Y-49860000I140000J0D01*
G01*
G37*
G36*
G01*
X82066000Y-50820000D02*
X82406000Y-50820000D01*
G75*
G02*
X82546000Y-50960000I0J-140000D01*
G01*
X82546000Y-51240000D01*
G75*
G02*
X82406000Y-51380000I-140000J0D01*
G01*
X82066000Y-51380000D01*
G75*
G02*
X81926000Y-51240000I0J140000D01*
G01*
X81926000Y-50960000D01*
G75*
G02*
X82066000Y-50820000I140000J0D01*
G01*
G37*
%TD*%
%TO.C,C2*%
G36*
G01*
X79170000Y-50380000D02*
X78830000Y-50380000D01*
G75*
G02*
X78690000Y-50240000I0J140000D01*
G01*
X78690000Y-49960000D01*
G75*
G02*
X78830000Y-49820000I140000J0D01*
G01*
X79170000Y-49820000D01*
G75*
G02*
X79310000Y-49960000I0J-140000D01*
G01*
X79310000Y-50240000D01*
G75*
G02*
X79170000Y-50380000I-140000J0D01*
G01*
G37*
G36*
G01*
X79170000Y-51340000D02*
X78830000Y-51340000D01*
G75*
G02*
X78690000Y-51200000I0J140000D01*
G01*
X78690000Y-50920000D01*
G75*
G02*
X78830000Y-50780000I140000J0D01*
G01*
X79170000Y-50780000D01*
G75*
G02*
X79310000Y-50920000I0J-140000D01*
G01*
X79310000Y-51200000D01*
G75*
G02*
X79170000Y-51340000I-140000J0D01*
G01*
G37*
%TD*%
%TO.C,C3*%
G36*
G01*
X83840000Y-77470000D02*
X83840000Y-77130000D01*
G75*
G02*
X83980000Y-76990000I140000J0D01*
G01*
X84260000Y-76990000D01*
G75*
G02*
X84400000Y-77130000I0J-140000D01*
G01*
X84400000Y-77470000D01*
G75*
G02*
X84260000Y-77610000I-140000J0D01*
G01*
X83980000Y-77610000D01*
G75*
G02*
X83840000Y-77470000I0J140000D01*
G01*
G37*
G36*
G01*
X84800000Y-77470000D02*
X84800000Y-77130000D01*
G75*
G02*
X84940000Y-76990000I140000J0D01*
G01*
X85220000Y-76990000D01*
G75*
G02*
X85360000Y-77130000I0J-140000D01*
G01*
X85360000Y-77470000D01*
G75*
G02*
X85220000Y-77610000I-140000J0D01*
G01*
X84940000Y-77610000D01*
G75*
G02*
X84800000Y-77470000I0J140000D01*
G01*
G37*
%TD*%
%TO.C,C4*%
G36*
G01*
X105800000Y-77370000D02*
X105800000Y-77030000D01*
G75*
G02*
X105940000Y-76890000I140000J0D01*
G01*
X106220000Y-76890000D01*
G75*
G02*
X106360000Y-77030000I0J-140000D01*
G01*
X106360000Y-77370000D01*
G75*
G02*
X106220000Y-77510000I-140000J0D01*
G01*
X105940000Y-77510000D01*
G75*
G02*
X105800000Y-77370000I0J140000D01*
G01*
G37*
G36*
G01*
X104840000Y-77370000D02*
X104840000Y-77030000D01*
G75*
G02*
X104980000Y-76890000I140000J0D01*
G01*
X105260000Y-76890000D01*
G75*
G02*
X105400000Y-77030000I0J-140000D01*
G01*
X105400000Y-77370000D01*
G75*
G02*
X105260000Y-77510000I-140000J0D01*
G01*
X104980000Y-77510000D01*
G75*
G02*
X104840000Y-77370000I0J140000D01*
G01*
G37*
%TD*%
%TO.C,C5*%
G36*
G01*
X95975000Y-65525000D02*
X95975000Y-66025000D01*
G75*
G02*
X95750000Y-66250000I-225000J0D01*
G01*
X95300000Y-66250000D01*
G75*
G02*
X95075000Y-66025000I0J225000D01*
G01*
X95075000Y-65525000D01*
G75*
G02*
X95300000Y-65300000I225000J0D01*
G01*
X95750000Y-65300000D01*
G75*
G02*
X95975000Y-65525000I0J-225000D01*
G01*
G37*
G36*
G01*
X94425000Y-65525000D02*
X94425000Y-66025000D01*
G75*
G02*
X94200000Y-66250000I-225000J0D01*
G01*
X93750000Y-66250000D01*
G75*
G02*
X93525000Y-66025000I0J225000D01*
G01*
X93525000Y-65525000D01*
G75*
G02*
X93750000Y-65300000I225000J0D01*
G01*
X94200000Y-65300000D01*
G75*
G02*
X94425000Y-65525000I0J-225000D01*
G01*
G37*
%TD*%
%TO.C,C6*%
G36*
G01*
X92750000Y-67075000D02*
X92750000Y-67575000D01*
G75*
G02*
X92525000Y-67800000I-225000J0D01*
G01*
X92075000Y-67800000D01*
G75*
G02*
X91850000Y-67575000I0J225000D01*
G01*
X91850000Y-67075000D01*
G75*
G02*
X92075000Y-66850000I225000J0D01*
G01*
X92525000Y-66850000D01*
G75*
G02*
X92750000Y-67075000I0J-225000D01*
G01*
G37*
G36*
G01*
X94300000Y-67075000D02*
X94300000Y-67575000D01*
G75*
G02*
X94075000Y-67800000I-225000J0D01*
G01*
X93625000Y-67800000D01*
G75*
G02*
X93400000Y-67575000I0J225000D01*
G01*
X93400000Y-67075000D01*
G75*
G02*
X93625000Y-66850000I225000J0D01*
G01*
X94075000Y-66850000D01*
G75*
G02*
X94300000Y-67075000I0J-225000D01*
G01*
G37*
%TD*%
%TO.C,C8*%
G36*
G01*
X82470000Y-72985000D02*
X82470000Y-73935000D01*
G75*
G02*
X82220000Y-74185000I-250000J0D01*
G01*
X81720000Y-74185000D01*
G75*
G02*
X81470000Y-73935000I0J250000D01*
G01*
X81470000Y-72985000D01*
G75*
G02*
X81720000Y-72735000I250000J0D01*
G01*
X82220000Y-72735000D01*
G75*
G02*
X82470000Y-72985000I0J-250000D01*
G01*
G37*
G36*
G01*
X84370000Y-72985000D02*
X84370000Y-73935000D01*
G75*
G02*
X84120000Y-74185000I-250000J0D01*
G01*
X83620000Y-74185000D01*
G75*
G02*
X83370000Y-73935000I0J250000D01*
G01*
X83370000Y-72985000D01*
G75*
G02*
X83620000Y-72735000I250000J0D01*
G01*
X84120000Y-72735000D01*
G75*
G02*
X84370000Y-72985000I0J-250000D01*
G01*
G37*
%TD*%
%TO.C,C9*%
G36*
G01*
X84370000Y-70935000D02*
X84370000Y-71885000D01*
G75*
G02*
X84120000Y-72135000I-250000J0D01*
G01*
X83620000Y-72135000D01*
G75*
G02*
X83370000Y-71885000I0J250000D01*
G01*
X83370000Y-70935000D01*
G75*
G02*
X83620000Y-70685000I250000J0D01*
G01*
X84120000Y-70685000D01*
G75*
G02*
X84370000Y-70935000I0J-250000D01*
G01*
G37*
G36*
G01*
X82470000Y-70935000D02*
X82470000Y-71885000D01*
G75*
G02*
X82220000Y-72135000I-250000J0D01*
G01*
X81720000Y-72135000D01*
G75*
G02*
X81470000Y-71885000I0J250000D01*
G01*
X81470000Y-70935000D01*
G75*
G02*
X81720000Y-70685000I250000J0D01*
G01*
X82220000Y-70685000D01*
G75*
G02*
X82470000Y-70935000I0J-250000D01*
G01*
G37*
%TD*%
%TO.C,C10*%
G36*
G01*
X83540000Y-69820000D02*
X83540000Y-69480000D01*
G75*
G02*
X83680000Y-69340000I140000J0D01*
G01*
X83960000Y-69340000D01*
G75*
G02*
X84100000Y-69480000I0J-140000D01*
G01*
X84100000Y-69820000D01*
G75*
G02*
X83960000Y-69960000I-140000J0D01*
G01*
X83680000Y-69960000D01*
G75*
G02*
X83540000Y-69820000I0J140000D01*
G01*
G37*
G36*
G01*
X84500000Y-69820000D02*
X84500000Y-69480000D01*
G75*
G02*
X84640000Y-69340000I140000J0D01*
G01*
X84920000Y-69340000D01*
G75*
G02*
X85060000Y-69480000I0J-140000D01*
G01*
X85060000Y-69820000D01*
G75*
G02*
X84920000Y-69960000I-140000J0D01*
G01*
X84640000Y-69960000D01*
G75*
G02*
X84500000Y-69820000I0J140000D01*
G01*
G37*
%TD*%
%TO.C,C11*%
G36*
G01*
X78550000Y-58025000D02*
X79050000Y-58025000D01*
G75*
G02*
X79275000Y-58250000I0J-225000D01*
G01*
X79275000Y-58700000D01*
G75*
G02*
X79050000Y-58925000I-225000J0D01*
G01*
X78550000Y-58925000D01*
G75*
G02*
X78325000Y-58700000I0J225000D01*
G01*
X78325000Y-58250000D01*
G75*
G02*
X78550000Y-58025000I225000J0D01*
G01*
G37*
G36*
G01*
X78550000Y-56475000D02*
X79050000Y-56475000D01*
G75*
G02*
X79275000Y-56700000I0J-225000D01*
G01*
X79275000Y-57150000D01*
G75*
G02*
X79050000Y-57375000I-225000J0D01*
G01*
X78550000Y-57375000D01*
G75*
G02*
X78325000Y-57150000I0J225000D01*
G01*
X78325000Y-56700000D01*
G75*
G02*
X78550000Y-56475000I225000J0D01*
G01*
G37*
%TD*%
%TO.C,C12*%
G36*
G01*
X80075000Y-60750000D02*
X80075000Y-60250000D01*
G75*
G02*
X80300000Y-60025000I225000J0D01*
G01*
X80750000Y-60025000D01*
G75*
G02*
X80975000Y-60250000I0J-225000D01*
G01*
X80975000Y-60750000D01*
G75*
G02*
X80750000Y-60975000I-225000J0D01*
G01*
X80300000Y-60975000D01*
G75*
G02*
X80075000Y-60750000I0J225000D01*
G01*
G37*
G36*
G01*
X81625000Y-60750000D02*
X81625000Y-60250000D01*
G75*
G02*
X81850000Y-60025000I225000J0D01*
G01*
X82300000Y-60025000D01*
G75*
G02*
X82525000Y-60250000I0J-225000D01*
G01*
X82525000Y-60750000D01*
G75*
G02*
X82300000Y-60975000I-225000J0D01*
G01*
X81850000Y-60975000D01*
G75*
G02*
X81625000Y-60750000I0J225000D01*
G01*
G37*
%TD*%
%TO.C,C13*%
G36*
G01*
X85850000Y-64575000D02*
X85850000Y-65525000D01*
G75*
G02*
X85600000Y-65775000I-250000J0D01*
G01*
X85100000Y-65775000D01*
G75*
G02*
X84850000Y-65525000I0J250000D01*
G01*
X84850000Y-64575000D01*
G75*
G02*
X85100000Y-64325000I250000J0D01*
G01*
X85600000Y-64325000D01*
G75*
G02*
X85850000Y-64575000I0J-250000D01*
G01*
G37*
G36*
G01*
X83950000Y-64575000D02*
X83950000Y-65525000D01*
G75*
G02*
X83700000Y-65775000I-250000J0D01*
G01*
X83200000Y-65775000D01*
G75*
G02*
X82950000Y-65525000I0J250000D01*
G01*
X82950000Y-64575000D01*
G75*
G02*
X83200000Y-64325000I250000J0D01*
G01*
X83700000Y-64325000D01*
G75*
G02*
X83950000Y-64575000I0J-250000D01*
G01*
G37*
%TD*%
D18*
%TO.C,D1*%
X78200000Y-47300000D03*
D19*
X84300000Y-47300000D03*
%TD*%
%TO.C,L1*%
G36*
G01*
X82100000Y-69200000D02*
X80400000Y-69200000D01*
G75*
G02*
X80150000Y-68950000I0J250000D01*
G01*
X80150000Y-68200000D01*
G75*
G02*
X80400000Y-67950000I250000J0D01*
G01*
X82100000Y-67950000D01*
G75*
G02*
X82350000Y-68200000I0J-250000D01*
G01*
X82350000Y-68950000D01*
G75*
G02*
X82100000Y-69200000I-250000J0D01*
G01*
G37*
G36*
G01*
X82100000Y-67050000D02*
X80400000Y-67050000D01*
G75*
G02*
X80150000Y-66800000I0J250000D01*
G01*
X80150000Y-66050000D01*
G75*
G02*
X80400000Y-65800000I250000J0D01*
G01*
X82100000Y-65800000D01*
G75*
G02*
X82350000Y-66050000I0J-250000D01*
G01*
X82350000Y-66800000D01*
G75*
G02*
X82100000Y-67050000I-250000J0D01*
G01*
G37*
%TD*%
D20*
%TO.C,Q1*%
X90316000Y-53944000D03*
X90316000Y-52044000D03*
X88316000Y-52994000D03*
%TD*%
%TO.C,Q2*%
X90316000Y-50250000D03*
X90316000Y-48350000D03*
X88316000Y-49300000D03*
%TD*%
%TO.C,Q4*%
X89850000Y-59450000D03*
X89850000Y-57550000D03*
X87850000Y-58500000D03*
%TD*%
%TO.C,R1*%
G36*
G01*
X91975000Y-71725000D02*
X91425000Y-71725000D01*
G75*
G02*
X91225000Y-71525000I0J200000D01*
G01*
X91225000Y-71125000D01*
G75*
G02*
X91425000Y-70925000I200000J0D01*
G01*
X91975000Y-70925000D01*
G75*
G02*
X92175000Y-71125000I0J-200000D01*
G01*
X92175000Y-71525000D01*
G75*
G02*
X91975000Y-71725000I-200000J0D01*
G01*
G37*
G36*
G01*
X91975000Y-73375000D02*
X91425000Y-73375000D01*
G75*
G02*
X91225000Y-73175000I0J200000D01*
G01*
X91225000Y-72775000D01*
G75*
G02*
X91425000Y-72575000I200000J0D01*
G01*
X91975000Y-72575000D01*
G75*
G02*
X92175000Y-72775000I0J-200000D01*
G01*
X92175000Y-73175000D01*
G75*
G02*
X91975000Y-73375000I-200000J0D01*
G01*
G37*
%TD*%
%TO.C,R2*%
G36*
G01*
X78520000Y-52485000D02*
X78520000Y-52115000D01*
G75*
G02*
X78655000Y-51980000I135000J0D01*
G01*
X78925000Y-51980000D01*
G75*
G02*
X79060000Y-52115000I0J-135000D01*
G01*
X79060000Y-52485000D01*
G75*
G02*
X78925000Y-52620000I-135000J0D01*
G01*
X78655000Y-52620000D01*
G75*
G02*
X78520000Y-52485000I0J135000D01*
G01*
G37*
G36*
G01*
X79540000Y-52485000D02*
X79540000Y-52115000D01*
G75*
G02*
X79675000Y-51980000I135000J0D01*
G01*
X79945000Y-51980000D01*
G75*
G02*
X80080000Y-52115000I0J-135000D01*
G01*
X80080000Y-52485000D01*
G75*
G02*
X79945000Y-52620000I-135000J0D01*
G01*
X79675000Y-52620000D01*
G75*
G02*
X79540000Y-52485000I0J135000D01*
G01*
G37*
%TD*%
%TO.C,R3*%
G36*
G01*
X97475000Y-78975000D02*
X96925000Y-78975000D01*
G75*
G02*
X96725000Y-78775000I0J200000D01*
G01*
X96725000Y-78375000D01*
G75*
G02*
X96925000Y-78175000I200000J0D01*
G01*
X97475000Y-78175000D01*
G75*
G02*
X97675000Y-78375000I0J-200000D01*
G01*
X97675000Y-78775000D01*
G75*
G02*
X97475000Y-78975000I-200000J0D01*
G01*
G37*
G36*
G01*
X97475000Y-77325000D02*
X96925000Y-77325000D01*
G75*
G02*
X96725000Y-77125000I0J200000D01*
G01*
X96725000Y-76725000D01*
G75*
G02*
X96925000Y-76525000I200000J0D01*
G01*
X97475000Y-76525000D01*
G75*
G02*
X97675000Y-76725000I0J-200000D01*
G01*
X97675000Y-77125000D01*
G75*
G02*
X97475000Y-77325000I-200000J0D01*
G01*
G37*
%TD*%
%TO.C,R4*%
G36*
G01*
X94175000Y-77325000D02*
X93625000Y-77325000D01*
G75*
G02*
X93425000Y-77125000I0J200000D01*
G01*
X93425000Y-76725000D01*
G75*
G02*
X93625000Y-76525000I200000J0D01*
G01*
X94175000Y-76525000D01*
G75*
G02*
X94375000Y-76725000I0J-200000D01*
G01*
X94375000Y-77125000D01*
G75*
G02*
X94175000Y-77325000I-200000J0D01*
G01*
G37*
G36*
G01*
X94175000Y-78975000D02*
X93625000Y-78975000D01*
G75*
G02*
X93425000Y-78775000I0J200000D01*
G01*
X93425000Y-78375000D01*
G75*
G02*
X93625000Y-78175000I200000J0D01*
G01*
X94175000Y-78175000D01*
G75*
G02*
X94375000Y-78375000I0J-200000D01*
G01*
X94375000Y-78775000D01*
G75*
G02*
X94175000Y-78975000I-200000J0D01*
G01*
G37*
%TD*%
%TO.C,R5*%
G36*
G01*
X93155000Y-51475000D02*
X93705000Y-51475000D01*
G75*
G02*
X93905000Y-51675000I0J-200000D01*
G01*
X93905000Y-52075000D01*
G75*
G02*
X93705000Y-52275000I-200000J0D01*
G01*
X93155000Y-52275000D01*
G75*
G02*
X92955000Y-52075000I0J200000D01*
G01*
X92955000Y-51675000D01*
G75*
G02*
X93155000Y-51475000I200000J0D01*
G01*
G37*
G36*
G01*
X93155000Y-53125000D02*
X93705000Y-53125000D01*
G75*
G02*
X93905000Y-53325000I0J-200000D01*
G01*
X93905000Y-53725000D01*
G75*
G02*
X93705000Y-53925000I-200000J0D01*
G01*
X93155000Y-53925000D01*
G75*
G02*
X92955000Y-53725000I0J200000D01*
G01*
X92955000Y-53325000D01*
G75*
G02*
X93155000Y-53125000I200000J0D01*
G01*
G37*
%TD*%
%TO.C,R6*%
G36*
G01*
X93185000Y-47875000D02*
X93735000Y-47875000D01*
G75*
G02*
X93935000Y-48075000I0J-200000D01*
G01*
X93935000Y-48475000D01*
G75*
G02*
X93735000Y-48675000I-200000J0D01*
G01*
X93185000Y-48675000D01*
G75*
G02*
X92985000Y-48475000I0J200000D01*
G01*
X92985000Y-48075000D01*
G75*
G02*
X93185000Y-47875000I200000J0D01*
G01*
G37*
G36*
G01*
X93185000Y-49525000D02*
X93735000Y-49525000D01*
G75*
G02*
X93935000Y-49725000I0J-200000D01*
G01*
X93935000Y-50125000D01*
G75*
G02*
X93735000Y-50325000I-200000J0D01*
G01*
X93185000Y-50325000D01*
G75*
G02*
X92985000Y-50125000I0J200000D01*
G01*
X92985000Y-49725000D01*
G75*
G02*
X93185000Y-49525000I200000J0D01*
G01*
G37*
%TD*%
%TO.C,R7*%
G36*
G01*
X92135000Y-52485000D02*
X91585000Y-52485000D01*
G75*
G02*
X91385000Y-52285000I0J200000D01*
G01*
X91385000Y-51885000D01*
G75*
G02*
X91585000Y-51685000I200000J0D01*
G01*
X92135000Y-51685000D01*
G75*
G02*
X92335000Y-51885000I0J-200000D01*
G01*
X92335000Y-52285000D01*
G75*
G02*
X92135000Y-52485000I-200000J0D01*
G01*
G37*
G36*
G01*
X92135000Y-54135000D02*
X91585000Y-54135000D01*
G75*
G02*
X91385000Y-53935000I0J200000D01*
G01*
X91385000Y-53535000D01*
G75*
G02*
X91585000Y-53335000I200000J0D01*
G01*
X92135000Y-53335000D01*
G75*
G02*
X92335000Y-53535000I0J-200000D01*
G01*
X92335000Y-53935000D01*
G75*
G02*
X92135000Y-54135000I-200000J0D01*
G01*
G37*
%TD*%
%TO.C,R8*%
G36*
G01*
X92165000Y-48835000D02*
X91615000Y-48835000D01*
G75*
G02*
X91415000Y-48635000I0J200000D01*
G01*
X91415000Y-48235000D01*
G75*
G02*
X91615000Y-48035000I200000J0D01*
G01*
X92165000Y-48035000D01*
G75*
G02*
X92365000Y-48235000I0J-200000D01*
G01*
X92365000Y-48635000D01*
G75*
G02*
X92165000Y-48835000I-200000J0D01*
G01*
G37*
G36*
G01*
X92165000Y-50485000D02*
X91615000Y-50485000D01*
G75*
G02*
X91415000Y-50285000I0J200000D01*
G01*
X91415000Y-49885000D01*
G75*
G02*
X91615000Y-49685000I200000J0D01*
G01*
X92165000Y-49685000D01*
G75*
G02*
X92365000Y-49885000I0J-200000D01*
G01*
X92365000Y-50285000D01*
G75*
G02*
X92165000Y-50485000I-200000J0D01*
G01*
G37*
%TD*%
%TO.C,R9*%
G36*
G01*
X86325000Y-70125000D02*
X85775000Y-70125000D01*
G75*
G02*
X85575000Y-69925000I0J200000D01*
G01*
X85575000Y-69525000D01*
G75*
G02*
X85775000Y-69325000I200000J0D01*
G01*
X86325000Y-69325000D01*
G75*
G02*
X86525000Y-69525000I0J-200000D01*
G01*
X86525000Y-69925000D01*
G75*
G02*
X86325000Y-70125000I-200000J0D01*
G01*
G37*
G36*
G01*
X86325000Y-68475000D02*
X85775000Y-68475000D01*
G75*
G02*
X85575000Y-68275000I0J200000D01*
G01*
X85575000Y-67875000D01*
G75*
G02*
X85775000Y-67675000I200000J0D01*
G01*
X86325000Y-67675000D01*
G75*
G02*
X86525000Y-67875000I0J-200000D01*
G01*
X86525000Y-68275000D01*
G75*
G02*
X86325000Y-68475000I-200000J0D01*
G01*
G37*
%TD*%
%TO.C,R10*%
G36*
G01*
X87325000Y-69325000D02*
X87875000Y-69325000D01*
G75*
G02*
X88075000Y-69525000I0J-200000D01*
G01*
X88075000Y-69925000D01*
G75*
G02*
X87875000Y-70125000I-200000J0D01*
G01*
X87325000Y-70125000D01*
G75*
G02*
X87125000Y-69925000I0J200000D01*
G01*
X87125000Y-69525000D01*
G75*
G02*
X87325000Y-69325000I200000J0D01*
G01*
G37*
G36*
G01*
X87325000Y-67675000D02*
X87875000Y-67675000D01*
G75*
G02*
X88075000Y-67875000I0J-200000D01*
G01*
X88075000Y-68275000D01*
G75*
G02*
X87875000Y-68475000I-200000J0D01*
G01*
X87325000Y-68475000D01*
G75*
G02*
X87125000Y-68275000I0J200000D01*
G01*
X87125000Y-67875000D01*
G75*
G02*
X87325000Y-67675000I200000J0D01*
G01*
G37*
%TD*%
%TO.C,R11*%
G36*
G01*
X90875000Y-57775000D02*
X90875000Y-57225000D01*
G75*
G02*
X91075000Y-57025000I200000J0D01*
G01*
X91475000Y-57025000D01*
G75*
G02*
X91675000Y-57225000I0J-200000D01*
G01*
X91675000Y-57775000D01*
G75*
G02*
X91475000Y-57975000I-200000J0D01*
G01*
X91075000Y-57975000D01*
G75*
G02*
X90875000Y-57775000I0J200000D01*
G01*
G37*
G36*
G01*
X92525000Y-57775000D02*
X92525000Y-57225000D01*
G75*
G02*
X92725000Y-57025000I200000J0D01*
G01*
X93125000Y-57025000D01*
G75*
G02*
X93325000Y-57225000I0J-200000D01*
G01*
X93325000Y-57775000D01*
G75*
G02*
X93125000Y-57975000I-200000J0D01*
G01*
X92725000Y-57975000D01*
G75*
G02*
X92525000Y-57775000I0J200000D01*
G01*
G37*
%TD*%
%TO.C,R12*%
G36*
G01*
X93275000Y-58775000D02*
X93275000Y-59325000D01*
G75*
G02*
X93075000Y-59525000I-200000J0D01*
G01*
X92675000Y-59525000D01*
G75*
G02*
X92475000Y-59325000I0J200000D01*
G01*
X92475000Y-58775000D01*
G75*
G02*
X92675000Y-58575000I200000J0D01*
G01*
X93075000Y-58575000D01*
G75*
G02*
X93275000Y-58775000I0J-200000D01*
G01*
G37*
G36*
G01*
X91625000Y-58775000D02*
X91625000Y-59325000D01*
G75*
G02*
X91425000Y-59525000I-200000J0D01*
G01*
X91025000Y-59525000D01*
G75*
G02*
X90825000Y-59325000I0J200000D01*
G01*
X90825000Y-58775000D01*
G75*
G02*
X91025000Y-58575000I200000J0D01*
G01*
X91425000Y-58575000D01*
G75*
G02*
X91625000Y-58775000I0J-200000D01*
G01*
G37*
%TD*%
%TO.C,U1*%
X85800000Y-79700000D03*
X83800000Y-80650000D03*
X83800000Y-78750000D03*
%TD*%
%TO.C,U2*%
X106700000Y-79800000D03*
X104700000Y-80750000D03*
X104700000Y-78850000D03*
%TD*%
%TO.C,U3*%
G36*
G01*
X93325000Y-75650000D02*
X93125000Y-75650000D01*
G75*
G02*
X93025000Y-75550000I0J100000D01*
G01*
X93025000Y-74175000D01*
G75*
G02*
X93125000Y-74075000I100000J0D01*
G01*
X93325000Y-74075000D01*
G75*
G02*
X93425000Y-74175000I0J-100000D01*
G01*
X93425000Y-75550000D01*
G75*
G02*
X93325000Y-75650000I-100000J0D01*
G01*
G37*
G36*
G01*
X93975000Y-75650000D02*
X93775000Y-75650000D01*
G75*
G02*
X93675000Y-75550000I0J100000D01*
G01*
X93675000Y-74175000D01*
G75*
G02*
X93775000Y-74075000I100000J0D01*
G01*
X93975000Y-74075000D01*
G75*
G02*
X94075000Y-74175000I0J-100000D01*
G01*
X94075000Y-75550000D01*
G75*
G02*
X93975000Y-75650000I-100000J0D01*
G01*
G37*
G36*
G01*
X94625000Y-75650000D02*
X94425000Y-75650000D01*
G75*
G02*
X94325000Y-75550000I0J100000D01*
G01*
X94325000Y-74175000D01*
G75*
G02*
X94425000Y-74075000I100000J0D01*
G01*
X94625000Y-74075000D01*
G75*
G02*
X94725000Y-74175000I0J-100000D01*
G01*
X94725000Y-75550000D01*
G75*
G02*
X94625000Y-75650000I-100000J0D01*
G01*
G37*
G36*
G01*
X95275000Y-75650000D02*
X95075000Y-75650000D01*
G75*
G02*
X94975000Y-75550000I0J100000D01*
G01*
X94975000Y-74175000D01*
G75*
G02*
X95075000Y-74075000I100000J0D01*
G01*
X95275000Y-74075000D01*
G75*
G02*
X95375000Y-74175000I0J-100000D01*
G01*
X95375000Y-75550000D01*
G75*
G02*
X95275000Y-75650000I-100000J0D01*
G01*
G37*
G36*
G01*
X95925000Y-75650000D02*
X95725000Y-75650000D01*
G75*
G02*
X95625000Y-75550000I0J100000D01*
G01*
X95625000Y-74175000D01*
G75*
G02*
X95725000Y-74075000I100000J0D01*
G01*
X95925000Y-74075000D01*
G75*
G02*
X96025000Y-74175000I0J-100000D01*
G01*
X96025000Y-75550000D01*
G75*
G02*
X95925000Y-75650000I-100000J0D01*
G01*
G37*
G36*
G01*
X96575000Y-75650000D02*
X96375000Y-75650000D01*
G75*
G02*
X96275000Y-75550000I0J100000D01*
G01*
X96275000Y-74175000D01*
G75*
G02*
X96375000Y-74075000I100000J0D01*
G01*
X96575000Y-74075000D01*
G75*
G02*
X96675000Y-74175000I0J-100000D01*
G01*
X96675000Y-75550000D01*
G75*
G02*
X96575000Y-75650000I-100000J0D01*
G01*
G37*
G36*
G01*
X97225000Y-75650000D02*
X97025000Y-75650000D01*
G75*
G02*
X96925000Y-75550000I0J100000D01*
G01*
X96925000Y-74175000D01*
G75*
G02*
X97025000Y-74075000I100000J0D01*
G01*
X97225000Y-74075000D01*
G75*
G02*
X97325000Y-74175000I0J-100000D01*
G01*
X97325000Y-75550000D01*
G75*
G02*
X97225000Y-75650000I-100000J0D01*
G01*
G37*
G36*
G01*
X97875000Y-75650000D02*
X97675000Y-75650000D01*
G75*
G02*
X97575000Y-75550000I0J100000D01*
G01*
X97575000Y-74175000D01*
G75*
G02*
X97675000Y-74075000I100000J0D01*
G01*
X97875000Y-74075000D01*
G75*
G02*
X97975000Y-74175000I0J-100000D01*
G01*
X97975000Y-75550000D01*
G75*
G02*
X97875000Y-75650000I-100000J0D01*
G01*
G37*
G36*
G01*
X97875000Y-69925000D02*
X97675000Y-69925000D01*
G75*
G02*
X97575000Y-69825000I0J100000D01*
G01*
X97575000Y-68450000D01*
G75*
G02*
X97675000Y-68350000I100000J0D01*
G01*
X97875000Y-68350000D01*
G75*
G02*
X97975000Y-68450000I0J-100000D01*
G01*
X97975000Y-69825000D01*
G75*
G02*
X97875000Y-69925000I-100000J0D01*
G01*
G37*
G36*
G01*
X97225000Y-69925000D02*
X97025000Y-69925000D01*
G75*
G02*
X96925000Y-69825000I0J100000D01*
G01*
X96925000Y-68450000D01*
G75*
G02*
X97025000Y-68350000I100000J0D01*
G01*
X97225000Y-68350000D01*
G75*
G02*
X97325000Y-68450000I0J-100000D01*
G01*
X97325000Y-69825000D01*
G75*
G02*
X97225000Y-69925000I-100000J0D01*
G01*
G37*
G36*
G01*
X96575000Y-69925000D02*
X96375000Y-69925000D01*
G75*
G02*
X96275000Y-69825000I0J100000D01*
G01*
X96275000Y-68450000D01*
G75*
G02*
X96375000Y-68350000I100000J0D01*
G01*
X96575000Y-68350000D01*
G75*
G02*
X96675000Y-68450000I0J-100000D01*
G01*
X96675000Y-69825000D01*
G75*
G02*
X96575000Y-69925000I-100000J0D01*
G01*
G37*
G36*
G01*
X95925000Y-69925000D02*
X95725000Y-69925000D01*
G75*
G02*
X95625000Y-69825000I0J100000D01*
G01*
X95625000Y-68450000D01*
G75*
G02*
X95725000Y-68350000I100000J0D01*
G01*
X95925000Y-68350000D01*
G75*
G02*
X96025000Y-68450000I0J-100000D01*
G01*
X96025000Y-69825000D01*
G75*
G02*
X95925000Y-69925000I-100000J0D01*
G01*
G37*
G36*
G01*
X95275000Y-69925000D02*
X95075000Y-69925000D01*
G75*
G02*
X94975000Y-69825000I0J100000D01*
G01*
X94975000Y-68450000D01*
G75*
G02*
X95075000Y-68350000I100000J0D01*
G01*
X95275000Y-68350000D01*
G75*
G02*
X95375000Y-68450000I0J-100000D01*
G01*
X95375000Y-69825000D01*
G75*
G02*
X95275000Y-69925000I-100000J0D01*
G01*
G37*
G36*
G01*
X94625000Y-69925000D02*
X94425000Y-69925000D01*
G75*
G02*
X94325000Y-69825000I0J100000D01*
G01*
X94325000Y-68450000D01*
G75*
G02*
X94425000Y-68350000I100000J0D01*
G01*
X94625000Y-68350000D01*
G75*
G02*
X94725000Y-68450000I0J-100000D01*
G01*
X94725000Y-69825000D01*
G75*
G02*
X94625000Y-69925000I-100000J0D01*
G01*
G37*
G36*
G01*
X93975000Y-69925000D02*
X93775000Y-69925000D01*
G75*
G02*
X93675000Y-69825000I0J100000D01*
G01*
X93675000Y-68450000D01*
G75*
G02*
X93775000Y-68350000I100000J0D01*
G01*
X93975000Y-68350000D01*
G75*
G02*
X94075000Y-68450000I0J-100000D01*
G01*
X94075000Y-69825000D01*
G75*
G02*
X93975000Y-69925000I-100000J0D01*
G01*
G37*
G36*
G01*
X93325000Y-69925000D02*
X93125000Y-69925000D01*
G75*
G02*
X93025000Y-69825000I0J100000D01*
G01*
X93025000Y-68450000D01*
G75*
G02*
X93125000Y-68350000I100000J0D01*
G01*
X93325000Y-68350000D01*
G75*
G02*
X93425000Y-68450000I0J-100000D01*
G01*
X93425000Y-69825000D01*
G75*
G02*
X93325000Y-69925000I-100000J0D01*
G01*
G37*
D21*
X95500000Y-72000000D03*
%TD*%
%TO.C,U5*%
G36*
G01*
X95748600Y-49699400D02*
X95748600Y-49699400D01*
G75*
G02*
X96104200Y-49343800I355600J0D01*
G01*
X96104200Y-49343800D01*
G75*
G02*
X96459800Y-49699400I0J-355600D01*
G01*
X96459800Y-49699400D01*
G75*
G02*
X96104200Y-50055000I-355600J0D01*
G01*
X96104200Y-50055000D01*
G75*
G02*
X95748600Y-49699400I0J355600D01*
G01*
G37*
G36*
G01*
X95748600Y-50690000D02*
X95748600Y-50690000D01*
G75*
G02*
X96104200Y-50334400I355600J0D01*
G01*
X96104200Y-50334400D01*
G75*
G02*
X96459800Y-50690000I0J-355600D01*
G01*
X96459800Y-50690000D01*
G75*
G02*
X96104200Y-51045600I-355600J0D01*
G01*
X96104200Y-51045600D01*
G75*
G02*
X95748600Y-50690000I0J355600D01*
G01*
G37*
G36*
G01*
X95748600Y-51706000D02*
X95748600Y-51706000D01*
G75*
G02*
X96104200Y-51350400I355600J0D01*
G01*
X96104200Y-51350400D01*
G75*
G02*
X96459800Y-51706000I0J-355600D01*
G01*
X96459800Y-51706000D01*
G75*
G02*
X96104200Y-52061600I-355600J0D01*
G01*
X96104200Y-52061600D01*
G75*
G02*
X95748600Y-51706000I0J355600D01*
G01*
G37*
G36*
G01*
X95748600Y-52696600D02*
X95748600Y-52696600D01*
G75*
G02*
X96104200Y-52341000I355600J0D01*
G01*
X96104200Y-52341000D01*
G75*
G02*
X96459800Y-52696600I0J-355600D01*
G01*
X96459800Y-52696600D01*
G75*
G02*
X96104200Y-53052200I-355600J0D01*
G01*
X96104200Y-53052200D01*
G75*
G02*
X95748600Y-52696600I0J355600D01*
G01*
G37*
G36*
G01*
X95748600Y-53712600D02*
X95748600Y-53712600D01*
G75*
G02*
X96104200Y-53357000I355600J0D01*
G01*
X96104200Y-53357000D01*
G75*
G02*
X96459800Y-53712600I0J-355600D01*
G01*
X96459800Y-53712600D01*
G75*
G02*
X96104200Y-54068200I-355600J0D01*
G01*
X96104200Y-54068200D01*
G75*
G02*
X95748600Y-53712600I0J355600D01*
G01*
G37*
G36*
G01*
X96739200Y-50690000D02*
X96739200Y-50690000D01*
G75*
G02*
X97094800Y-50334400I355600J0D01*
G01*
X97094800Y-50334400D01*
G75*
G02*
X97450400Y-50690000I0J-355600D01*
G01*
X97450400Y-50690000D01*
G75*
G02*
X97094800Y-51045600I-355600J0D01*
G01*
X97094800Y-51045600D01*
G75*
G02*
X96739200Y-50690000I0J355600D01*
G01*
G37*
G36*
G01*
X96739200Y-51706000D02*
X96739200Y-51706000D01*
G75*
G02*
X97094800Y-51350400I355600J0D01*
G01*
X97094800Y-51350400D01*
G75*
G02*
X97450400Y-51706000I0J-355600D01*
G01*
X97450400Y-51706000D01*
G75*
G02*
X97094800Y-52061600I-355600J0D01*
G01*
X97094800Y-52061600D01*
G75*
G02*
X96739200Y-51706000I0J355600D01*
G01*
G37*
G36*
G01*
X96739200Y-52696600D02*
X96739200Y-52696600D01*
G75*
G02*
X97094800Y-52341000I355600J0D01*
G01*
X97094800Y-52341000D01*
G75*
G02*
X97450400Y-52696600I0J-355600D01*
G01*
X97450400Y-52696600D01*
G75*
G02*
X97094800Y-53052200I-355600J0D01*
G01*
X97094800Y-53052200D01*
G75*
G02*
X96739200Y-52696600I0J355600D01*
G01*
G37*
G36*
G01*
X99736400Y-54703200D02*
X99736400Y-54703200D01*
G75*
G02*
X100092000Y-54347600I355600J0D01*
G01*
X100092000Y-54347600D01*
G75*
G02*
X100447600Y-54703200I0J-355600D01*
G01*
X100447600Y-54703200D01*
G75*
G02*
X100092000Y-55058800I-355600J0D01*
G01*
X100092000Y-55058800D01*
G75*
G02*
X99736400Y-54703200I0J355600D01*
G01*
G37*
G36*
G01*
X100752400Y-54703200D02*
X100752400Y-54703200D01*
G75*
G02*
X101108000Y-54347600I355600J0D01*
G01*
X101108000Y-54347600D01*
G75*
G02*
X101463600Y-54703200I0J-355600D01*
G01*
X101463600Y-54703200D01*
G75*
G02*
X101108000Y-55058800I-355600J0D01*
G01*
X101108000Y-55058800D01*
G75*
G02*
X100752400Y-54703200I0J355600D01*
G01*
G37*
G36*
G01*
X101743000Y-54703200D02*
X101743000Y-54703200D01*
G75*
G02*
X102098600Y-54347600I355600J0D01*
G01*
X102098600Y-54347600D01*
G75*
G02*
X102454200Y-54703200I0J-355600D01*
G01*
X102454200Y-54703200D01*
G75*
G02*
X102098600Y-55058800I-355600J0D01*
G01*
X102098600Y-55058800D01*
G75*
G02*
X101743000Y-54703200I0J355600D01*
G01*
G37*
G36*
G01*
X102733600Y-54703200D02*
X102733600Y-54703200D01*
G75*
G02*
X103089200Y-54347600I355600J0D01*
G01*
X103089200Y-54347600D01*
G75*
G02*
X103444800Y-54703200I0J-355600D01*
G01*
X103444800Y-54703200D01*
G75*
G02*
X103089200Y-55058800I-355600J0D01*
G01*
X103089200Y-55058800D01*
G75*
G02*
X102733600Y-54703200I0J355600D01*
G01*
G37*
G36*
G01*
X103749600Y-54703200D02*
X103749600Y-54703200D01*
G75*
G02*
X104105200Y-54347600I355600J0D01*
G01*
X104105200Y-54347600D01*
G75*
G02*
X104460800Y-54703200I0J-355600D01*
G01*
X104460800Y-54703200D01*
G75*
G02*
X104105200Y-55058800I-355600J0D01*
G01*
X104105200Y-55058800D01*
G75*
G02*
X103749600Y-54703200I0J355600D01*
G01*
G37*
G36*
G01*
X104740200Y-54703200D02*
X104740200Y-54703200D01*
G75*
G02*
X105095800Y-54347600I355600J0D01*
G01*
X105095800Y-54347600D01*
G75*
G02*
X105451400Y-54703200I0J-355600D01*
G01*
X105451400Y-54703200D01*
G75*
G02*
X105095800Y-55058800I-355600J0D01*
G01*
X105095800Y-55058800D01*
G75*
G02*
X104740200Y-54703200I0J355600D01*
G01*
G37*
G36*
G01*
X104740200Y-52696600D02*
X104740200Y-52696600D01*
G75*
G02*
X105095800Y-52341000I355600J0D01*
G01*
X105095800Y-52341000D01*
G75*
G02*
X105451400Y-52696600I0J-355600D01*
G01*
X105451400Y-52696600D01*
G75*
G02*
X105095800Y-53052200I-355600J0D01*
G01*
X105095800Y-53052200D01*
G75*
G02*
X104740200Y-52696600I0J355600D01*
G01*
G37*
G36*
G01*
X104740200Y-51706000D02*
X104740200Y-51706000D01*
G75*
G02*
X105095800Y-51350400I355600J0D01*
G01*
X105095800Y-51350400D01*
G75*
G02*
X105451400Y-51706000I0J-355600D01*
G01*
X105451400Y-51706000D01*
G75*
G02*
X105095800Y-52061600I-355600J0D01*
G01*
X105095800Y-52061600D01*
G75*
G02*
X104740200Y-51706000I0J355600D01*
G01*
G37*
G36*
G01*
X104740200Y-50690000D02*
X104740200Y-50690000D01*
G75*
G02*
X105095800Y-50334400I355600J0D01*
G01*
X105095800Y-50334400D01*
G75*
G02*
X105451400Y-50690000I0J-355600D01*
G01*
X105451400Y-50690000D01*
G75*
G02*
X105095800Y-51045600I-355600J0D01*
G01*
X105095800Y-51045600D01*
G75*
G02*
X104740200Y-50690000I0J355600D01*
G01*
G37*
G36*
G01*
X104740200Y-49699400D02*
X104740200Y-49699400D01*
G75*
G02*
X105095800Y-49343800I355600J0D01*
G01*
X105095800Y-49343800D01*
G75*
G02*
X105451400Y-49699400I0J-355600D01*
G01*
X105451400Y-49699400D01*
G75*
G02*
X105095800Y-50055000I-355600J0D01*
G01*
X105095800Y-50055000D01*
G75*
G02*
X104740200Y-49699400I0J355600D01*
G01*
G37*
G36*
G01*
X103749600Y-52696600D02*
X103749600Y-52696600D01*
G75*
G02*
X104105200Y-52341000I355600J0D01*
G01*
X104105200Y-52341000D01*
G75*
G02*
X104460800Y-52696600I0J-355600D01*
G01*
X104460800Y-52696600D01*
G75*
G02*
X104105200Y-53052200I-355600J0D01*
G01*
X104105200Y-53052200D01*
G75*
G02*
X103749600Y-52696600I0J355600D01*
G01*
G37*
G36*
G01*
X103749600Y-51706000D02*
X103749600Y-51706000D01*
G75*
G02*
X104105200Y-51350400I355600J0D01*
G01*
X104105200Y-51350400D01*
G75*
G02*
X104460800Y-51706000I0J-355600D01*
G01*
X104460800Y-51706000D01*
G75*
G02*
X104105200Y-52061600I-355600J0D01*
G01*
X104105200Y-52061600D01*
G75*
G02*
X103749600Y-51706000I0J355600D01*
G01*
G37*
G36*
G01*
X103749600Y-50690000D02*
X103749600Y-50690000D01*
G75*
G02*
X104105200Y-50334400I355600J0D01*
G01*
X104105200Y-50334400D01*
G75*
G02*
X104460800Y-50690000I0J-355600D01*
G01*
X104460800Y-50690000D01*
G75*
G02*
X104105200Y-51045600I-355600J0D01*
G01*
X104105200Y-51045600D01*
G75*
G02*
X103749600Y-50690000I0J355600D01*
G01*
G37*
G36*
G01*
X103749600Y-49699400D02*
X103749600Y-49699400D01*
G75*
G02*
X104105200Y-49343800I355600J0D01*
G01*
X104105200Y-49343800D01*
G75*
G02*
X104460800Y-49699400I0J-355600D01*
G01*
X104460800Y-49699400D01*
G75*
G02*
X104105200Y-50055000I-355600J0D01*
G01*
X104105200Y-50055000D01*
G75*
G02*
X103749600Y-49699400I0J355600D01*
G01*
G37*
G36*
G01*
X102733600Y-49699400D02*
X102733600Y-49699400D01*
G75*
G02*
X103089200Y-49343800I355600J0D01*
G01*
X103089200Y-49343800D01*
G75*
G02*
X103444800Y-49699400I0J-355600D01*
G01*
X103444800Y-49699400D01*
G75*
G02*
X103089200Y-50055000I-355600J0D01*
G01*
X103089200Y-50055000D01*
G75*
G02*
X102733600Y-49699400I0J355600D01*
G01*
G37*
G36*
G01*
X101743000Y-49699400D02*
X101743000Y-49699400D01*
G75*
G02*
X102098600Y-49343800I355600J0D01*
G01*
X102098600Y-49343800D01*
G75*
G02*
X102454200Y-49699400I0J-355600D01*
G01*
X102454200Y-49699400D01*
G75*
G02*
X102098600Y-50055000I-355600J0D01*
G01*
X102098600Y-50055000D01*
G75*
G02*
X101743000Y-49699400I0J355600D01*
G01*
G37*
G36*
G01*
X100752400Y-51706000D02*
X100752400Y-51706000D01*
G75*
G02*
X101108000Y-51350400I355600J0D01*
G01*
X101108000Y-51350400D01*
G75*
G02*
X101463600Y-51706000I0J-355600D01*
G01*
X101463600Y-51706000D01*
G75*
G02*
X101108000Y-52061600I-355600J0D01*
G01*
X101108000Y-52061600D01*
G75*
G02*
X100752400Y-51706000I0J355600D01*
G01*
G37*
G36*
G01*
X100752400Y-52696600D02*
X100752400Y-52696600D01*
G75*
G02*
X101108000Y-52341000I355600J0D01*
G01*
X101108000Y-52341000D01*
G75*
G02*
X101463600Y-52696600I0J-355600D01*
G01*
X101463600Y-52696600D01*
G75*
G02*
X101108000Y-53052200I-355600J0D01*
G01*
X101108000Y-53052200D01*
G75*
G02*
X100752400Y-52696600I0J355600D01*
G01*
G37*
G36*
G01*
X99736400Y-51706000D02*
X99736400Y-51706000D01*
G75*
G02*
X100092000Y-51350400I355600J0D01*
G01*
X100092000Y-51350400D01*
G75*
G02*
X100447600Y-51706000I0J-355600D01*
G01*
X100447600Y-51706000D01*
G75*
G02*
X100092000Y-52061600I-355600J0D01*
G01*
X100092000Y-52061600D01*
G75*
G02*
X99736400Y-51706000I0J355600D01*
G01*
G37*
G36*
G01*
X99736400Y-52696600D02*
X99736400Y-52696600D01*
G75*
G02*
X100092000Y-52341000I355600J0D01*
G01*
X100092000Y-52341000D01*
G75*
G02*
X100447600Y-52696600I0J-355600D01*
G01*
X100447600Y-52696600D01*
G75*
G02*
X100092000Y-53052200I-355600J0D01*
G01*
X100092000Y-53052200D01*
G75*
G02*
X99736400Y-52696600I0J355600D01*
G01*
G37*
%TD*%
D22*
%TO.C,U6*%
X80450000Y-58900000D03*
X81400000Y-58900000D03*
X82350000Y-58900000D03*
X82350000Y-56700000D03*
X80450000Y-56700000D03*
%TD*%
D23*
%TO.C,U7*%
X83350000Y-66850000D03*
X83350000Y-67250000D03*
X83350000Y-67650000D03*
X83350000Y-68050000D03*
X83350000Y-68450000D03*
X83750000Y-66850000D03*
X83750000Y-67250000D03*
X83750000Y-67650000D03*
X83750000Y-68050000D03*
X83750000Y-68450000D03*
X84150000Y-66850000D03*
X84150000Y-67250000D03*
X84150000Y-67650000D03*
X84150000Y-68050000D03*
X84150000Y-68450000D03*
%TD*%
M02*
