%TF.GenerationSoftware,KiCad,Pcbnew,(5.1.6)-1*%
%TF.CreationDate,2021-06-21T18:56:37+02:00*%
%TF.ProjectId,DotBot,446f7442-6f74-42e6-9b69-6361645f7063,rev?*%
%TF.SameCoordinates,Original*%
%TF.FileFunction,Legend,Top*%
%TF.FilePolarity,Positive*%
%FSLAX46Y46*%
G04 Gerber Fmt 4.6, Leading zero omitted, Abs format (unit mm)*
G04 Created by KiCad (PCBNEW (5.1.6)-1) date 2021-06-21 18:56:37*
%MOMM*%
%LPD*%
G01*
G04 APERTURE LIST*
%ADD10C,0.150000*%
%ADD11C,0.120000*%
%ADD12C,0.100000*%
%ADD13C,0.105664*%
G04 APERTURE END LIST*
D10*
X106271428Y-75189285D02*
X106342857Y-75189285D01*
X106414285Y-75225000D01*
X106450000Y-75260714D01*
X106485714Y-75332142D01*
X106521428Y-75475000D01*
X106521428Y-75653571D01*
X106485714Y-75796428D01*
X106450000Y-75867857D01*
X106414285Y-75903571D01*
X106342857Y-75939285D01*
X106271428Y-75939285D01*
X106200000Y-75903571D01*
X106164285Y-75867857D01*
X106128571Y-75796428D01*
X106092857Y-75653571D01*
X106092857Y-75475000D01*
X106128571Y-75332142D01*
X106164285Y-75260714D01*
X106200000Y-75225000D01*
X106271428Y-75189285D01*
X106842857Y-75867857D02*
X106878571Y-75903571D01*
X106842857Y-75939285D01*
X106807142Y-75903571D01*
X106842857Y-75867857D01*
X106842857Y-75939285D01*
X107342857Y-75189285D02*
X107414285Y-75189285D01*
X107485714Y-75225000D01*
X107521428Y-75260714D01*
X107557142Y-75332142D01*
X107592857Y-75475000D01*
X107592857Y-75653571D01*
X107557142Y-75796428D01*
X107521428Y-75867857D01*
X107485714Y-75903571D01*
X107414285Y-75939285D01*
X107342857Y-75939285D01*
X107271428Y-75903571D01*
X107235714Y-75867857D01*
X107200000Y-75796428D01*
X107164285Y-75653571D01*
X107164285Y-75475000D01*
X107200000Y-75332142D01*
X107235714Y-75260714D01*
X107271428Y-75225000D01*
X107342857Y-75189285D01*
X107950000Y-75939285D02*
X108092857Y-75939285D01*
X108164285Y-75903571D01*
X108200000Y-75867857D01*
X108271428Y-75760714D01*
X108307142Y-75617857D01*
X108307142Y-75332142D01*
X108271428Y-75260714D01*
X108235714Y-75225000D01*
X108164285Y-75189285D01*
X108021428Y-75189285D01*
X107950000Y-75225000D01*
X107914285Y-75260714D01*
X107878571Y-75332142D01*
X107878571Y-75510714D01*
X107914285Y-75582142D01*
X107950000Y-75617857D01*
X108021428Y-75653571D01*
X108164285Y-75653571D01*
X108235714Y-75617857D01*
X108271428Y-75582142D01*
X108307142Y-75510714D01*
X112028571Y-73225000D02*
X111957142Y-73189285D01*
X111850000Y-73189285D01*
X111742857Y-73225000D01*
X111671428Y-73296428D01*
X111635714Y-73367857D01*
X111600000Y-73510714D01*
X111600000Y-73617857D01*
X111635714Y-73760714D01*
X111671428Y-73832142D01*
X111742857Y-73903571D01*
X111850000Y-73939285D01*
X111921428Y-73939285D01*
X112028571Y-73903571D01*
X112064285Y-73867857D01*
X112064285Y-73617857D01*
X111921428Y-73617857D01*
X112385714Y-73939285D02*
X112385714Y-73189285D01*
X112814285Y-73939285D01*
X112814285Y-73189285D01*
X113171428Y-73939285D02*
X113171428Y-73189285D01*
X113350000Y-73189285D01*
X113457142Y-73225000D01*
X113528571Y-73296428D01*
X113564285Y-73367857D01*
X113600000Y-73510714D01*
X113600000Y-73617857D01*
X113564285Y-73760714D01*
X113528571Y-73832142D01*
X113457142Y-73903571D01*
X113350000Y-73939285D01*
X113171428Y-73939285D01*
X112028571Y-70425000D02*
X111957142Y-70389285D01*
X111850000Y-70389285D01*
X111742857Y-70425000D01*
X111671428Y-70496428D01*
X111635714Y-70567857D01*
X111600000Y-70710714D01*
X111600000Y-70817857D01*
X111635714Y-70960714D01*
X111671428Y-71032142D01*
X111742857Y-71103571D01*
X111850000Y-71139285D01*
X111921428Y-71139285D01*
X112028571Y-71103571D01*
X112064285Y-71067857D01*
X112064285Y-70817857D01*
X111921428Y-70817857D01*
X112385714Y-71139285D02*
X112385714Y-70389285D01*
X112814285Y-71139285D01*
X112814285Y-70389285D01*
X113171428Y-71139285D02*
X113171428Y-70389285D01*
X113350000Y-70389285D01*
X113457142Y-70425000D01*
X113528571Y-70496428D01*
X113564285Y-70567857D01*
X113600000Y-70710714D01*
X113600000Y-70817857D01*
X113564285Y-70960714D01*
X113528571Y-71032142D01*
X113457142Y-71103571D01*
X113350000Y-71139285D01*
X113171428Y-71139285D01*
X106000000Y-67989285D02*
X106250000Y-68739285D01*
X106500000Y-67989285D01*
X106750000Y-68739285D02*
X106750000Y-67989285D01*
X106928571Y-67989285D01*
X107035714Y-68025000D01*
X107107142Y-68096428D01*
X107142857Y-68167857D01*
X107178571Y-68310714D01*
X107178571Y-68417857D01*
X107142857Y-68560714D01*
X107107142Y-68632142D01*
X107035714Y-68703571D01*
X106928571Y-68739285D01*
X106750000Y-68739285D01*
X107500000Y-68739285D02*
X107500000Y-67989285D01*
X107678571Y-67989285D01*
X107785714Y-68025000D01*
X107857142Y-68096428D01*
X107892857Y-68167857D01*
X107928571Y-68310714D01*
X107928571Y-68417857D01*
X107892857Y-68560714D01*
X107857142Y-68632142D01*
X107785714Y-68703571D01*
X107678571Y-68739285D01*
X107500000Y-68739285D01*
X100671428Y-72889285D02*
X100742857Y-72889285D01*
X100814285Y-72925000D01*
X100850000Y-72960714D01*
X100885714Y-73032142D01*
X100921428Y-73175000D01*
X100921428Y-73353571D01*
X100885714Y-73496428D01*
X100850000Y-73567857D01*
X100814285Y-73603571D01*
X100742857Y-73639285D01*
X100671428Y-73639285D01*
X100600000Y-73603571D01*
X100564285Y-73567857D01*
X100528571Y-73496428D01*
X100492857Y-73353571D01*
X100492857Y-73175000D01*
X100528571Y-73032142D01*
X100564285Y-72960714D01*
X100600000Y-72925000D01*
X100671428Y-72889285D01*
X101242857Y-73567857D02*
X101278571Y-73603571D01*
X101242857Y-73639285D01*
X101207142Y-73603571D01*
X101242857Y-73567857D01*
X101242857Y-73639285D01*
X101528571Y-72889285D02*
X101992857Y-72889285D01*
X101742857Y-73175000D01*
X101850000Y-73175000D01*
X101921428Y-73210714D01*
X101957142Y-73246428D01*
X101992857Y-73317857D01*
X101992857Y-73496428D01*
X101957142Y-73567857D01*
X101921428Y-73603571D01*
X101850000Y-73639285D01*
X101635714Y-73639285D01*
X101564285Y-73603571D01*
X101528571Y-73567857D01*
X102707142Y-73639285D02*
X102278571Y-73639285D01*
X102492857Y-73639285D02*
X102492857Y-72889285D01*
X102421428Y-72996428D01*
X102350000Y-73067857D01*
X102278571Y-73103571D01*
X100771428Y-70389285D02*
X100842857Y-70389285D01*
X100914285Y-70425000D01*
X100950000Y-70460714D01*
X100985714Y-70532142D01*
X101021428Y-70675000D01*
X101021428Y-70853571D01*
X100985714Y-70996428D01*
X100950000Y-71067857D01*
X100914285Y-71103571D01*
X100842857Y-71139285D01*
X100771428Y-71139285D01*
X100700000Y-71103571D01*
X100664285Y-71067857D01*
X100628571Y-70996428D01*
X100592857Y-70853571D01*
X100592857Y-70675000D01*
X100628571Y-70532142D01*
X100664285Y-70460714D01*
X100700000Y-70425000D01*
X100771428Y-70389285D01*
X101342857Y-71067857D02*
X101378571Y-71103571D01*
X101342857Y-71139285D01*
X101307142Y-71103571D01*
X101342857Y-71067857D01*
X101342857Y-71139285D01*
X102092857Y-71139285D02*
X101664285Y-71139285D01*
X101878571Y-71139285D02*
X101878571Y-70389285D01*
X101807142Y-70496428D01*
X101735714Y-70567857D01*
X101664285Y-70603571D01*
X102557142Y-70389285D02*
X102628571Y-70389285D01*
X102700000Y-70425000D01*
X102735714Y-70460714D01*
X102771428Y-70532142D01*
X102807142Y-70675000D01*
X102807142Y-70853571D01*
X102771428Y-70996428D01*
X102735714Y-71067857D01*
X102700000Y-71103571D01*
X102628571Y-71139285D01*
X102557142Y-71139285D01*
X102485714Y-71103571D01*
X102450000Y-71067857D01*
X102414285Y-70996428D01*
X102378571Y-70853571D01*
X102378571Y-70675000D01*
X102414285Y-70532142D01*
X102450000Y-70460714D01*
X102485714Y-70425000D01*
X102557142Y-70389285D01*
X106771428Y-51989285D02*
X106842857Y-51989285D01*
X106914285Y-52025000D01*
X106950000Y-52060714D01*
X106985714Y-52132142D01*
X107021428Y-52275000D01*
X107021428Y-52453571D01*
X106985714Y-52596428D01*
X106950000Y-52667857D01*
X106914285Y-52703571D01*
X106842857Y-52739285D01*
X106771428Y-52739285D01*
X106700000Y-52703571D01*
X106664285Y-52667857D01*
X106628571Y-52596428D01*
X106592857Y-52453571D01*
X106592857Y-52275000D01*
X106628571Y-52132142D01*
X106664285Y-52060714D01*
X106700000Y-52025000D01*
X106771428Y-51989285D01*
X107342857Y-52667857D02*
X107378571Y-52703571D01*
X107342857Y-52739285D01*
X107307142Y-52703571D01*
X107342857Y-52667857D01*
X107342857Y-52739285D01*
X107664285Y-52060714D02*
X107700000Y-52025000D01*
X107771428Y-51989285D01*
X107950000Y-51989285D01*
X108021428Y-52025000D01*
X108057142Y-52060714D01*
X108092857Y-52132142D01*
X108092857Y-52203571D01*
X108057142Y-52310714D01*
X107628571Y-52739285D01*
X108092857Y-52739285D01*
X108450000Y-52739285D02*
X108592857Y-52739285D01*
X108664285Y-52703571D01*
X108700000Y-52667857D01*
X108771428Y-52560714D01*
X108807142Y-52417857D01*
X108807142Y-52132142D01*
X108771428Y-52060714D01*
X108735714Y-52025000D01*
X108664285Y-51989285D01*
X108521428Y-51989285D01*
X108450000Y-52025000D01*
X108414285Y-52060714D01*
X108378571Y-52132142D01*
X108378571Y-52310714D01*
X108414285Y-52382142D01*
X108450000Y-52417857D01*
X108521428Y-52453571D01*
X108664285Y-52453571D01*
X108735714Y-52417857D01*
X108771428Y-52382142D01*
X108807142Y-52310714D01*
X106771428Y-60889285D02*
X106842857Y-60889285D01*
X106914285Y-60925000D01*
X106950000Y-60960714D01*
X106985714Y-61032142D01*
X107021428Y-61175000D01*
X107021428Y-61353571D01*
X106985714Y-61496428D01*
X106950000Y-61567857D01*
X106914285Y-61603571D01*
X106842857Y-61639285D01*
X106771428Y-61639285D01*
X106700000Y-61603571D01*
X106664285Y-61567857D01*
X106628571Y-61496428D01*
X106592857Y-61353571D01*
X106592857Y-61175000D01*
X106628571Y-61032142D01*
X106664285Y-60960714D01*
X106700000Y-60925000D01*
X106771428Y-60889285D01*
X107342857Y-61567857D02*
X107378571Y-61603571D01*
X107342857Y-61639285D01*
X107307142Y-61603571D01*
X107342857Y-61567857D01*
X107342857Y-61639285D01*
X108092857Y-61639285D02*
X107664285Y-61639285D01*
X107878571Y-61639285D02*
X107878571Y-60889285D01*
X107807142Y-60996428D01*
X107735714Y-61067857D01*
X107664285Y-61103571D01*
X108807142Y-61639285D02*
X108378571Y-61639285D01*
X108592857Y-61639285D02*
X108592857Y-60889285D01*
X108521428Y-60996428D01*
X108450000Y-61067857D01*
X108378571Y-61103571D01*
X107021428Y-65439285D02*
X106592857Y-65439285D01*
X106807142Y-65439285D02*
X106807142Y-64689285D01*
X106735714Y-64796428D01*
X106664285Y-64867857D01*
X106592857Y-64903571D01*
X107342857Y-65367857D02*
X107378571Y-65403571D01*
X107342857Y-65439285D01*
X107307142Y-65403571D01*
X107342857Y-65367857D01*
X107342857Y-65439285D01*
X107842857Y-64689285D02*
X107914285Y-64689285D01*
X107985714Y-64725000D01*
X108021428Y-64760714D01*
X108057142Y-64832142D01*
X108092857Y-64975000D01*
X108092857Y-65153571D01*
X108057142Y-65296428D01*
X108021428Y-65367857D01*
X107985714Y-65403571D01*
X107914285Y-65439285D01*
X107842857Y-65439285D01*
X107771428Y-65403571D01*
X107735714Y-65367857D01*
X107700000Y-65296428D01*
X107664285Y-65153571D01*
X107664285Y-64975000D01*
X107700000Y-64832142D01*
X107735714Y-64760714D01*
X107771428Y-64725000D01*
X107842857Y-64689285D01*
X108450000Y-65439285D02*
X108592857Y-65439285D01*
X108664285Y-65403571D01*
X108700000Y-65367857D01*
X108771428Y-65260714D01*
X108807142Y-65117857D01*
X108807142Y-64832142D01*
X108771428Y-64760714D01*
X108735714Y-64725000D01*
X108664285Y-64689285D01*
X108521428Y-64689285D01*
X108450000Y-64725000D01*
X108414285Y-64760714D01*
X108378571Y-64832142D01*
X108378571Y-65010714D01*
X108414285Y-65082142D01*
X108450000Y-65117857D01*
X108521428Y-65153571D01*
X108664285Y-65153571D01*
X108735714Y-65117857D01*
X108771428Y-65082142D01*
X108807142Y-65010714D01*
X106771428Y-59589285D02*
X106842857Y-59589285D01*
X106914285Y-59625000D01*
X106950000Y-59660714D01*
X106985714Y-59732142D01*
X107021428Y-59875000D01*
X107021428Y-60053571D01*
X106985714Y-60196428D01*
X106950000Y-60267857D01*
X106914285Y-60303571D01*
X106842857Y-60339285D01*
X106771428Y-60339285D01*
X106700000Y-60303571D01*
X106664285Y-60267857D01*
X106628571Y-60196428D01*
X106592857Y-60053571D01*
X106592857Y-59875000D01*
X106628571Y-59732142D01*
X106664285Y-59660714D01*
X106700000Y-59625000D01*
X106771428Y-59589285D01*
X107342857Y-60267857D02*
X107378571Y-60303571D01*
X107342857Y-60339285D01*
X107307142Y-60303571D01*
X107342857Y-60267857D01*
X107342857Y-60339285D01*
X108092857Y-60339285D02*
X107664285Y-60339285D01*
X107878571Y-60339285D02*
X107878571Y-59589285D01*
X107807142Y-59696428D01*
X107735714Y-59767857D01*
X107664285Y-59803571D01*
X108771428Y-59589285D02*
X108414285Y-59589285D01*
X108378571Y-59946428D01*
X108414285Y-59910714D01*
X108485714Y-59875000D01*
X108664285Y-59875000D01*
X108735714Y-59910714D01*
X108771428Y-59946428D01*
X108807142Y-60017857D01*
X108807142Y-60196428D01*
X108771428Y-60267857D01*
X108735714Y-60303571D01*
X108664285Y-60339285D01*
X108485714Y-60339285D01*
X108414285Y-60303571D01*
X108378571Y-60267857D01*
X106771428Y-58389285D02*
X106842857Y-58389285D01*
X106914285Y-58425000D01*
X106950000Y-58460714D01*
X106985714Y-58532142D01*
X107021428Y-58675000D01*
X107021428Y-58853571D01*
X106985714Y-58996428D01*
X106950000Y-59067857D01*
X106914285Y-59103571D01*
X106842857Y-59139285D01*
X106771428Y-59139285D01*
X106700000Y-59103571D01*
X106664285Y-59067857D01*
X106628571Y-58996428D01*
X106592857Y-58853571D01*
X106592857Y-58675000D01*
X106628571Y-58532142D01*
X106664285Y-58460714D01*
X106700000Y-58425000D01*
X106771428Y-58389285D01*
X107342857Y-59067857D02*
X107378571Y-59103571D01*
X107342857Y-59139285D01*
X107307142Y-59103571D01*
X107342857Y-59067857D01*
X107342857Y-59139285D01*
X108092857Y-59139285D02*
X107664285Y-59139285D01*
X107878571Y-59139285D02*
X107878571Y-58389285D01*
X107807142Y-58496428D01*
X107735714Y-58567857D01*
X107664285Y-58603571D01*
X108342857Y-58389285D02*
X108842857Y-58389285D01*
X108521428Y-59139285D01*
X106771428Y-63389285D02*
X106842857Y-63389285D01*
X106914285Y-63425000D01*
X106950000Y-63460714D01*
X106985714Y-63532142D01*
X107021428Y-63675000D01*
X107021428Y-63853571D01*
X106985714Y-63996428D01*
X106950000Y-64067857D01*
X106914285Y-64103571D01*
X106842857Y-64139285D01*
X106771428Y-64139285D01*
X106700000Y-64103571D01*
X106664285Y-64067857D01*
X106628571Y-63996428D01*
X106592857Y-63853571D01*
X106592857Y-63675000D01*
X106628571Y-63532142D01*
X106664285Y-63460714D01*
X106700000Y-63425000D01*
X106771428Y-63389285D01*
X107342857Y-64067857D02*
X107378571Y-64103571D01*
X107342857Y-64139285D01*
X107307142Y-64103571D01*
X107342857Y-64067857D01*
X107342857Y-64139285D01*
X107664285Y-63460714D02*
X107700000Y-63425000D01*
X107771428Y-63389285D01*
X107950000Y-63389285D01*
X108021428Y-63425000D01*
X108057142Y-63460714D01*
X108092857Y-63532142D01*
X108092857Y-63603571D01*
X108057142Y-63710714D01*
X107628571Y-64139285D01*
X108092857Y-64139285D01*
X108521428Y-63710714D02*
X108450000Y-63675000D01*
X108414285Y-63639285D01*
X108378571Y-63567857D01*
X108378571Y-63532142D01*
X108414285Y-63460714D01*
X108450000Y-63425000D01*
X108521428Y-63389285D01*
X108664285Y-63389285D01*
X108735714Y-63425000D01*
X108771428Y-63460714D01*
X108807142Y-63532142D01*
X108807142Y-63567857D01*
X108771428Y-63639285D01*
X108735714Y-63675000D01*
X108664285Y-63710714D01*
X108521428Y-63710714D01*
X108450000Y-63746428D01*
X108414285Y-63782142D01*
X108378571Y-63853571D01*
X108378571Y-63996428D01*
X108414285Y-64067857D01*
X108450000Y-64103571D01*
X108521428Y-64139285D01*
X108664285Y-64139285D01*
X108735714Y-64103571D01*
X108771428Y-64067857D01*
X108807142Y-63996428D01*
X108807142Y-63853571D01*
X108771428Y-63782142D01*
X108735714Y-63746428D01*
X108664285Y-63710714D01*
X106771428Y-57089285D02*
X106842857Y-57089285D01*
X106914285Y-57125000D01*
X106950000Y-57160714D01*
X106985714Y-57232142D01*
X107021428Y-57375000D01*
X107021428Y-57553571D01*
X106985714Y-57696428D01*
X106950000Y-57767857D01*
X106914285Y-57803571D01*
X106842857Y-57839285D01*
X106771428Y-57839285D01*
X106700000Y-57803571D01*
X106664285Y-57767857D01*
X106628571Y-57696428D01*
X106592857Y-57553571D01*
X106592857Y-57375000D01*
X106628571Y-57232142D01*
X106664285Y-57160714D01*
X106700000Y-57125000D01*
X106771428Y-57089285D01*
X107342857Y-57767857D02*
X107378571Y-57803571D01*
X107342857Y-57839285D01*
X107307142Y-57803571D01*
X107342857Y-57767857D01*
X107342857Y-57839285D01*
X107842857Y-57089285D02*
X107914285Y-57089285D01*
X107985714Y-57125000D01*
X108021428Y-57160714D01*
X108057142Y-57232142D01*
X108092857Y-57375000D01*
X108092857Y-57553571D01*
X108057142Y-57696428D01*
X108021428Y-57767857D01*
X107985714Y-57803571D01*
X107914285Y-57839285D01*
X107842857Y-57839285D01*
X107771428Y-57803571D01*
X107735714Y-57767857D01*
X107700000Y-57696428D01*
X107664285Y-57553571D01*
X107664285Y-57375000D01*
X107700000Y-57232142D01*
X107735714Y-57160714D01*
X107771428Y-57125000D01*
X107842857Y-57089285D01*
X108735714Y-57339285D02*
X108735714Y-57839285D01*
X108557142Y-57053571D02*
X108378571Y-57589285D01*
X108842857Y-57589285D01*
X106771428Y-62189285D02*
X106842857Y-62189285D01*
X106914285Y-62225000D01*
X106950000Y-62260714D01*
X106985714Y-62332142D01*
X107021428Y-62475000D01*
X107021428Y-62653571D01*
X106985714Y-62796428D01*
X106950000Y-62867857D01*
X106914285Y-62903571D01*
X106842857Y-62939285D01*
X106771428Y-62939285D01*
X106700000Y-62903571D01*
X106664285Y-62867857D01*
X106628571Y-62796428D01*
X106592857Y-62653571D01*
X106592857Y-62475000D01*
X106628571Y-62332142D01*
X106664285Y-62260714D01*
X106700000Y-62225000D01*
X106771428Y-62189285D01*
X107342857Y-62867857D02*
X107378571Y-62903571D01*
X107342857Y-62939285D01*
X107307142Y-62903571D01*
X107342857Y-62867857D01*
X107342857Y-62939285D01*
X107842857Y-62189285D02*
X107914285Y-62189285D01*
X107985714Y-62225000D01*
X108021428Y-62260714D01*
X108057142Y-62332142D01*
X108092857Y-62475000D01*
X108092857Y-62653571D01*
X108057142Y-62796428D01*
X108021428Y-62867857D01*
X107985714Y-62903571D01*
X107914285Y-62939285D01*
X107842857Y-62939285D01*
X107771428Y-62903571D01*
X107735714Y-62867857D01*
X107700000Y-62796428D01*
X107664285Y-62653571D01*
X107664285Y-62475000D01*
X107700000Y-62332142D01*
X107735714Y-62260714D01*
X107771428Y-62225000D01*
X107842857Y-62189285D01*
X108378571Y-62260714D02*
X108414285Y-62225000D01*
X108485714Y-62189285D01*
X108664285Y-62189285D01*
X108735714Y-62225000D01*
X108771428Y-62260714D01*
X108807142Y-62332142D01*
X108807142Y-62403571D01*
X108771428Y-62510714D01*
X108342857Y-62939285D01*
X108807142Y-62939285D01*
X106771428Y-55789285D02*
X106842857Y-55789285D01*
X106914285Y-55825000D01*
X106950000Y-55860714D01*
X106985714Y-55932142D01*
X107021428Y-56075000D01*
X107021428Y-56253571D01*
X106985714Y-56396428D01*
X106950000Y-56467857D01*
X106914285Y-56503571D01*
X106842857Y-56539285D01*
X106771428Y-56539285D01*
X106700000Y-56503571D01*
X106664285Y-56467857D01*
X106628571Y-56396428D01*
X106592857Y-56253571D01*
X106592857Y-56075000D01*
X106628571Y-55932142D01*
X106664285Y-55860714D01*
X106700000Y-55825000D01*
X106771428Y-55789285D01*
X107342857Y-56467857D02*
X107378571Y-56503571D01*
X107342857Y-56539285D01*
X107307142Y-56503571D01*
X107342857Y-56467857D01*
X107342857Y-56539285D01*
X107842857Y-55789285D02*
X107914285Y-55789285D01*
X107985714Y-55825000D01*
X108021428Y-55860714D01*
X108057142Y-55932142D01*
X108092857Y-56075000D01*
X108092857Y-56253571D01*
X108057142Y-56396428D01*
X108021428Y-56467857D01*
X107985714Y-56503571D01*
X107914285Y-56539285D01*
X107842857Y-56539285D01*
X107771428Y-56503571D01*
X107735714Y-56467857D01*
X107700000Y-56396428D01*
X107664285Y-56253571D01*
X107664285Y-56075000D01*
X107700000Y-55932142D01*
X107735714Y-55860714D01*
X107771428Y-55825000D01*
X107842857Y-55789285D01*
X108342857Y-55789285D02*
X108807142Y-55789285D01*
X108557142Y-56075000D01*
X108664285Y-56075000D01*
X108735714Y-56110714D01*
X108771428Y-56146428D01*
X108807142Y-56217857D01*
X108807142Y-56396428D01*
X108771428Y-56467857D01*
X108735714Y-56503571D01*
X108664285Y-56539285D01*
X108450000Y-56539285D01*
X108378571Y-56503571D01*
X108342857Y-56467857D01*
X106771428Y-54489285D02*
X106842857Y-54489285D01*
X106914285Y-54525000D01*
X106950000Y-54560714D01*
X106985714Y-54632142D01*
X107021428Y-54775000D01*
X107021428Y-54953571D01*
X106985714Y-55096428D01*
X106950000Y-55167857D01*
X106914285Y-55203571D01*
X106842857Y-55239285D01*
X106771428Y-55239285D01*
X106700000Y-55203571D01*
X106664285Y-55167857D01*
X106628571Y-55096428D01*
X106592857Y-54953571D01*
X106592857Y-54775000D01*
X106628571Y-54632142D01*
X106664285Y-54560714D01*
X106700000Y-54525000D01*
X106771428Y-54489285D01*
X107342857Y-55167857D02*
X107378571Y-55203571D01*
X107342857Y-55239285D01*
X107307142Y-55203571D01*
X107342857Y-55167857D01*
X107342857Y-55239285D01*
X107842857Y-54489285D02*
X107914285Y-54489285D01*
X107985714Y-54525000D01*
X108021428Y-54560714D01*
X108057142Y-54632142D01*
X108092857Y-54775000D01*
X108092857Y-54953571D01*
X108057142Y-55096428D01*
X108021428Y-55167857D01*
X107985714Y-55203571D01*
X107914285Y-55239285D01*
X107842857Y-55239285D01*
X107771428Y-55203571D01*
X107735714Y-55167857D01*
X107700000Y-55096428D01*
X107664285Y-54953571D01*
X107664285Y-54775000D01*
X107700000Y-54632142D01*
X107735714Y-54560714D01*
X107771428Y-54525000D01*
X107842857Y-54489285D01*
X108771428Y-54489285D02*
X108414285Y-54489285D01*
X108378571Y-54846428D01*
X108414285Y-54810714D01*
X108485714Y-54775000D01*
X108664285Y-54775000D01*
X108735714Y-54810714D01*
X108771428Y-54846428D01*
X108807142Y-54917857D01*
X108807142Y-55096428D01*
X108771428Y-55167857D01*
X108735714Y-55203571D01*
X108664285Y-55239285D01*
X108485714Y-55239285D01*
X108414285Y-55203571D01*
X108378571Y-55167857D01*
X106771428Y-53189285D02*
X106842857Y-53189285D01*
X106914285Y-53225000D01*
X106950000Y-53260714D01*
X106985714Y-53332142D01*
X107021428Y-53475000D01*
X107021428Y-53653571D01*
X106985714Y-53796428D01*
X106950000Y-53867857D01*
X106914285Y-53903571D01*
X106842857Y-53939285D01*
X106771428Y-53939285D01*
X106700000Y-53903571D01*
X106664285Y-53867857D01*
X106628571Y-53796428D01*
X106592857Y-53653571D01*
X106592857Y-53475000D01*
X106628571Y-53332142D01*
X106664285Y-53260714D01*
X106700000Y-53225000D01*
X106771428Y-53189285D01*
X107342857Y-53867857D02*
X107378571Y-53903571D01*
X107342857Y-53939285D01*
X107307142Y-53903571D01*
X107342857Y-53867857D01*
X107342857Y-53939285D01*
X107664285Y-53260714D02*
X107700000Y-53225000D01*
X107771428Y-53189285D01*
X107950000Y-53189285D01*
X108021428Y-53225000D01*
X108057142Y-53260714D01*
X108092857Y-53332142D01*
X108092857Y-53403571D01*
X108057142Y-53510714D01*
X107628571Y-53939285D01*
X108092857Y-53939285D01*
X108557142Y-53189285D02*
X108628571Y-53189285D01*
X108700000Y-53225000D01*
X108735714Y-53260714D01*
X108771428Y-53332142D01*
X108807142Y-53475000D01*
X108807142Y-53653571D01*
X108771428Y-53796428D01*
X108735714Y-53867857D01*
X108700000Y-53903571D01*
X108628571Y-53939285D01*
X108557142Y-53939285D01*
X108485714Y-53903571D01*
X108450000Y-53867857D01*
X108414285Y-53796428D01*
X108378571Y-53653571D01*
X108378571Y-53475000D01*
X108414285Y-53332142D01*
X108450000Y-53260714D01*
X108485714Y-53225000D01*
X108557142Y-53189285D01*
X106771428Y-50689285D02*
X106842857Y-50689285D01*
X106914285Y-50725000D01*
X106950000Y-50760714D01*
X106985714Y-50832142D01*
X107021428Y-50975000D01*
X107021428Y-51153571D01*
X106985714Y-51296428D01*
X106950000Y-51367857D01*
X106914285Y-51403571D01*
X106842857Y-51439285D01*
X106771428Y-51439285D01*
X106700000Y-51403571D01*
X106664285Y-51367857D01*
X106628571Y-51296428D01*
X106592857Y-51153571D01*
X106592857Y-50975000D01*
X106628571Y-50832142D01*
X106664285Y-50760714D01*
X106700000Y-50725000D01*
X106771428Y-50689285D01*
X107342857Y-51367857D02*
X107378571Y-51403571D01*
X107342857Y-51439285D01*
X107307142Y-51403571D01*
X107342857Y-51367857D01*
X107342857Y-51439285D01*
X107628571Y-50689285D02*
X108092857Y-50689285D01*
X107842857Y-50975000D01*
X107950000Y-50975000D01*
X108021428Y-51010714D01*
X108057142Y-51046428D01*
X108092857Y-51117857D01*
X108092857Y-51296428D01*
X108057142Y-51367857D01*
X108021428Y-51403571D01*
X107950000Y-51439285D01*
X107735714Y-51439285D01*
X107664285Y-51403571D01*
X107628571Y-51367857D01*
X108557142Y-50689285D02*
X108628571Y-50689285D01*
X108700000Y-50725000D01*
X108735714Y-50760714D01*
X108771428Y-50832142D01*
X108807142Y-50975000D01*
X108807142Y-51153571D01*
X108771428Y-51296428D01*
X108735714Y-51367857D01*
X108700000Y-51403571D01*
X108628571Y-51439285D01*
X108557142Y-51439285D01*
X108485714Y-51403571D01*
X108450000Y-51367857D01*
X108414285Y-51296428D01*
X108378571Y-51153571D01*
X108378571Y-50975000D01*
X108414285Y-50832142D01*
X108450000Y-50760714D01*
X108485714Y-50725000D01*
X108557142Y-50689285D01*
D11*
%TO.C,R2*%
X79137221Y-53010000D02*
X79462779Y-53010000D01*
X79137221Y-51990000D02*
X79462779Y-51990000D01*
%TO.C,C2*%
X77937221Y-50910000D02*
X78262779Y-50910000D01*
X77937221Y-49890000D02*
X78262779Y-49890000D01*
%TO.C,C1*%
X82190000Y-50937221D02*
X82190000Y-51262779D01*
X83210000Y-50937221D02*
X83210000Y-51262779D01*
%TO.C,C14*%
X89310000Y-68558578D02*
X89310000Y-68041422D01*
X87890000Y-68558578D02*
X87890000Y-68041422D01*
%TO.C,C10*%
X80241422Y-64210000D02*
X80758578Y-64210000D01*
X80241422Y-62790000D02*
X80758578Y-62790000D01*
%TO.C,C5*%
X95008578Y-64790000D02*
X94491422Y-64790000D01*
X95008578Y-66210000D02*
X94491422Y-66210000D01*
%TO.C,U8*%
X79800000Y-67910000D02*
X82250000Y-67910000D01*
X81600000Y-64690000D02*
X79800000Y-64690000D01*
%TO.C,U7*%
X90000000Y-48040000D02*
X86550000Y-48040000D01*
X90000000Y-48040000D02*
X91950000Y-48040000D01*
X90000000Y-53160000D02*
X88050000Y-53160000D01*
X90000000Y-53160000D02*
X91950000Y-53160000D01*
%TO.C,L1*%
X78550000Y-74800000D02*
X84850000Y-74800000D01*
X78550000Y-68600000D02*
X84850000Y-68600000D01*
%TO.C,D3*%
X87400000Y-68500000D02*
X87400000Y-72350000D01*
X85400000Y-68500000D02*
X85400000Y-72350000D01*
X87400000Y-68500000D02*
X85400000Y-68500000D01*
%TO.C,D2*%
X88450000Y-54150000D02*
X85550000Y-54150000D01*
X88450000Y-56450000D02*
X85550000Y-56450000D01*
X88450000Y-55850000D02*
X88450000Y-56450000D01*
%TO.C,C13*%
X85562779Y-65390000D02*
X85237221Y-65390000D01*
X85562779Y-66410000D02*
X85237221Y-66410000D01*
%TO.C,C9*%
X85562779Y-57790000D02*
X85237221Y-57790000D01*
X85562779Y-58810000D02*
X85237221Y-58810000D01*
%TO.C,C8*%
X93262779Y-46490000D02*
X92937221Y-46490000D01*
X93262779Y-47510000D02*
X92937221Y-47510000D01*
%TO.C,C4*%
X105437221Y-77710000D02*
X105762779Y-77710000D01*
X105437221Y-76690000D02*
X105762779Y-76690000D01*
%TO.C,C3*%
X84437221Y-77610000D02*
X84762779Y-77610000D01*
X84437221Y-76590000D02*
X84762779Y-76590000D01*
%TO.C,J5*%
X109390000Y-65765000D02*
X110192470Y-65765000D01*
X110807530Y-65765000D02*
X111610000Y-65765000D01*
X109390000Y-51860000D02*
X109390000Y-65765000D01*
X111610000Y-51860000D02*
X111610000Y-65765000D01*
X109390000Y-51860000D02*
X109936529Y-51860000D01*
X111063471Y-51860000D02*
X111610000Y-51860000D01*
X109390000Y-51100000D02*
X109390000Y-50340000D01*
X109390000Y-50340000D02*
X110500000Y-50340000D01*
%TO.C,J6*%
X110910000Y-74630000D02*
X110910000Y-69430000D01*
X105770000Y-74630000D02*
X110910000Y-74630000D01*
X103170000Y-69430000D02*
X110910000Y-69430000D01*
X105770000Y-74630000D02*
X105770000Y-72030000D01*
X105770000Y-72030000D02*
X103170000Y-72030000D01*
X103170000Y-72030000D02*
X103170000Y-69430000D01*
X104500000Y-74630000D02*
X103170000Y-74630000D01*
X103170000Y-74630000D02*
X103170000Y-73300000D01*
%TO.C,C7*%
X96184420Y-67810000D02*
X96465580Y-67810000D01*
X96184420Y-66790000D02*
X96465580Y-66790000D01*
%TO.C,J2*%
X101530000Y-75430000D02*
X98870000Y-75430000D01*
X101530000Y-78030000D02*
X101530000Y-75430000D01*
X98870000Y-78030000D02*
X98870000Y-75430000D01*
X101530000Y-78030000D02*
X98870000Y-78030000D01*
X101530000Y-79300000D02*
X101530000Y-80630000D01*
X101530000Y-80630000D02*
X100200000Y-80630000D01*
%TO.C,TP3*%
X76305000Y-53615000D02*
X77000000Y-53615000D01*
X76305000Y-54300000D02*
X76305000Y-53615000D01*
X77608276Y-54985000D02*
X77695000Y-54985000D01*
X76305000Y-54985000D02*
X76391724Y-54985000D01*
X77695000Y-54985000D02*
X77695000Y-54860000D01*
X76305000Y-54985000D02*
X76305000Y-54860000D01*
X76305000Y-54985000D02*
X77695000Y-54985000D01*
%TO.C,TP1*%
X89005000Y-71815000D02*
X89700000Y-71815000D01*
X89005000Y-72500000D02*
X89005000Y-71815000D01*
X90308276Y-73185000D02*
X90395000Y-73185000D01*
X89005000Y-73185000D02*
X89091724Y-73185000D01*
X90395000Y-73185000D02*
X90395000Y-73060000D01*
X89005000Y-73185000D02*
X89005000Y-73060000D01*
X89005000Y-73185000D02*
X90395000Y-73185000D01*
%TO.C,J3*%
X104165000Y-65570000D02*
X104165000Y-65635000D01*
X100635000Y-65570000D02*
X100635000Y-65635000D01*
X104165000Y-59165000D02*
X104165000Y-59230000D01*
X100635000Y-59165000D02*
X100635000Y-59230000D01*
X99310000Y-59230000D02*
X100635000Y-59230000D01*
X100635000Y-65635000D02*
X104165000Y-65635000D01*
X100635000Y-59165000D02*
X104165000Y-59165000D01*
%TO.C,J4*%
X87492000Y-60896000D02*
X87492000Y-63556000D01*
X90092000Y-60896000D02*
X87492000Y-60896000D01*
X90092000Y-63556000D02*
X87492000Y-63556000D01*
X90092000Y-60896000D02*
X90092000Y-63556000D01*
X91362000Y-60896000D02*
X92692000Y-60896000D01*
X92692000Y-60896000D02*
X92692000Y-62226000D01*
%TO.C,J1*%
X92080000Y-75480000D02*
X89420000Y-75480000D01*
X92080000Y-78080000D02*
X92080000Y-75480000D01*
X89420000Y-78080000D02*
X89420000Y-75480000D01*
X92080000Y-78080000D02*
X89420000Y-78080000D01*
X92080000Y-79350000D02*
X92080000Y-80680000D01*
X92080000Y-80680000D02*
X90750000Y-80680000D01*
D12*
%TO.C,U4*%
X79912000Y-51420000D02*
X79912000Y-49820000D01*
X81512000Y-51420000D02*
X79912000Y-51420000D01*
X81512000Y-49820000D02*
X81512000Y-51420000D01*
X79912000Y-49820000D02*
X81512000Y-49820000D01*
D11*
X79712000Y-50020000D02*
G75*
G03*
X79712000Y-50020000I-100000J0D01*
G01*
%TO.C,C6*%
X93215580Y-67835000D02*
X92934420Y-67835000D01*
X93215580Y-66815000D02*
X92934420Y-66815000D01*
%TO.C,C11*%
X79310000Y-57559420D02*
X79310000Y-57840580D01*
X78290000Y-57559420D02*
X78290000Y-57840580D01*
%TO.C,C12*%
X81159420Y-61010000D02*
X81440580Y-61010000D01*
X81159420Y-59990000D02*
X81440580Y-59990000D01*
%TO.C,D1*%
X84100000Y-45600000D02*
G75*
G03*
X84100000Y-45600000I-200000J0D01*
G01*
X79000000Y-49300000D02*
X79000000Y-45300000D01*
X83400000Y-49300000D02*
X79000000Y-49300000D01*
X83400000Y-45300000D02*
X83400000Y-49300000D01*
X79000000Y-45300000D02*
X83400000Y-45300000D01*
%TO.C,Q4*%
X88920000Y-59460000D02*
X88920000Y-58000000D01*
X92080000Y-59460000D02*
X92080000Y-57300000D01*
X92080000Y-59460000D02*
X91150000Y-59460000D01*
X88920000Y-59460000D02*
X89850000Y-59460000D01*
%TO.C,R1*%
X91177500Y-72387258D02*
X91177500Y-71912742D01*
X92222500Y-72387258D02*
X92222500Y-71912742D01*
%TO.C,R3*%
X97722500Y-77987258D02*
X97722500Y-77512742D01*
X96677500Y-77987258D02*
X96677500Y-77512742D01*
%TO.C,R4*%
X93377500Y-77987258D02*
X93377500Y-77512742D01*
X94422500Y-77987258D02*
X94422500Y-77512742D01*
%TO.C,R5*%
X90762742Y-54922500D02*
X91237258Y-54922500D01*
X90762742Y-53877500D02*
X91237258Y-53877500D01*
%TO.C,R6*%
X85637258Y-66977500D02*
X85162742Y-66977500D01*
X85637258Y-68022500D02*
X85162742Y-68022500D01*
%TO.C,R7*%
X85162742Y-63777500D02*
X85637258Y-63777500D01*
X85162742Y-64822500D02*
X85637258Y-64822500D01*
%TO.C,U1*%
X85560000Y-81280000D02*
X85560000Y-80350000D01*
X85560000Y-78120000D02*
X85560000Y-79050000D01*
X85560000Y-78120000D02*
X83400000Y-78120000D01*
X85560000Y-81280000D02*
X84100000Y-81280000D01*
%TO.C,U2*%
X106460000Y-81380000D02*
X106460000Y-80450000D01*
X106460000Y-78220000D02*
X106460000Y-79150000D01*
X106460000Y-78220000D02*
X104300000Y-78220000D01*
X106460000Y-81380000D02*
X105000000Y-81380000D01*
%TO.C,U3*%
X92740000Y-72000000D02*
X92740000Y-75650000D01*
X92740000Y-72000000D02*
X92740000Y-69800000D01*
X98260000Y-72000000D02*
X98260000Y-74200000D01*
X98260000Y-72000000D02*
X98260000Y-69800000D01*
D12*
%TO.C,U5*%
X95596200Y-56379600D02*
X105603800Y-56379600D01*
X95596200Y-56379600D02*
X95596200Y-42079400D01*
X105603800Y-56379600D02*
X105603800Y-42079400D01*
X95596200Y-42079400D02*
X105603800Y-42079400D01*
D11*
%TO.C,U6*%
X79790000Y-56900000D02*
X79790000Y-59350000D01*
X83010000Y-58700000D02*
X83010000Y-56900000D01*
%TD*%
%TO.C,R2*%
D10*
X76633333Y-52852380D02*
X76300000Y-52376190D01*
X76061904Y-52852380D02*
X76061904Y-51852380D01*
X76442857Y-51852380D01*
X76538095Y-51900000D01*
X76585714Y-51947619D01*
X76633333Y-52042857D01*
X76633333Y-52185714D01*
X76585714Y-52280952D01*
X76538095Y-52328571D01*
X76442857Y-52376190D01*
X76061904Y-52376190D01*
X77014285Y-51947619D02*
X77061904Y-51900000D01*
X77157142Y-51852380D01*
X77395238Y-51852380D01*
X77490476Y-51900000D01*
X77538095Y-51947619D01*
X77585714Y-52042857D01*
X77585714Y-52138095D01*
X77538095Y-52280952D01*
X76966666Y-52852380D01*
X77585714Y-52852380D01*
%TO.C,C2*%
X77633333Y-49327142D02*
X77585714Y-49374761D01*
X77442857Y-49422380D01*
X77347619Y-49422380D01*
X77204761Y-49374761D01*
X77109523Y-49279523D01*
X77061904Y-49184285D01*
X77014285Y-48993809D01*
X77014285Y-48850952D01*
X77061904Y-48660476D01*
X77109523Y-48565238D01*
X77204761Y-48470000D01*
X77347619Y-48422380D01*
X77442857Y-48422380D01*
X77585714Y-48470000D01*
X77633333Y-48517619D01*
X78014285Y-48517619D02*
X78061904Y-48470000D01*
X78157142Y-48422380D01*
X78395238Y-48422380D01*
X78490476Y-48470000D01*
X78538095Y-48517619D01*
X78585714Y-48612857D01*
X78585714Y-48708095D01*
X78538095Y-48850952D01*
X77966666Y-49422380D01*
X78585714Y-49422380D01*
%TO.C,C1*%
X84487142Y-51266666D02*
X84534761Y-51314285D01*
X84582380Y-51457142D01*
X84582380Y-51552380D01*
X84534761Y-51695238D01*
X84439523Y-51790476D01*
X84344285Y-51838095D01*
X84153809Y-51885714D01*
X84010952Y-51885714D01*
X83820476Y-51838095D01*
X83725238Y-51790476D01*
X83630000Y-51695238D01*
X83582380Y-51552380D01*
X83582380Y-51457142D01*
X83630000Y-51314285D01*
X83677619Y-51266666D01*
X84582380Y-50314285D02*
X84582380Y-50885714D01*
X84582380Y-50600000D02*
X83582380Y-50600000D01*
X83725238Y-50695238D01*
X83820476Y-50790476D01*
X83868095Y-50885714D01*
%TO.C,C14*%
X90657142Y-69142857D02*
X90704761Y-69190476D01*
X90752380Y-69333333D01*
X90752380Y-69428571D01*
X90704761Y-69571428D01*
X90609523Y-69666666D01*
X90514285Y-69714285D01*
X90323809Y-69761904D01*
X90180952Y-69761904D01*
X89990476Y-69714285D01*
X89895238Y-69666666D01*
X89800000Y-69571428D01*
X89752380Y-69428571D01*
X89752380Y-69333333D01*
X89800000Y-69190476D01*
X89847619Y-69142857D01*
X90752380Y-68190476D02*
X90752380Y-68761904D01*
X90752380Y-68476190D02*
X89752380Y-68476190D01*
X89895238Y-68571428D01*
X89990476Y-68666666D01*
X90038095Y-68761904D01*
X90085714Y-67333333D02*
X90752380Y-67333333D01*
X89704761Y-67571428D02*
X90419047Y-67809523D01*
X90419047Y-67190476D01*
%TO.C,C10*%
X76757142Y-64057142D02*
X76709523Y-64104761D01*
X76566666Y-64152380D01*
X76471428Y-64152380D01*
X76328571Y-64104761D01*
X76233333Y-64009523D01*
X76185714Y-63914285D01*
X76138095Y-63723809D01*
X76138095Y-63580952D01*
X76185714Y-63390476D01*
X76233333Y-63295238D01*
X76328571Y-63200000D01*
X76471428Y-63152380D01*
X76566666Y-63152380D01*
X76709523Y-63200000D01*
X76757142Y-63247619D01*
X77709523Y-64152380D02*
X77138095Y-64152380D01*
X77423809Y-64152380D02*
X77423809Y-63152380D01*
X77328571Y-63295238D01*
X77233333Y-63390476D01*
X77138095Y-63438095D01*
X78328571Y-63152380D02*
X78423809Y-63152380D01*
X78519047Y-63200000D01*
X78566666Y-63247619D01*
X78614285Y-63342857D01*
X78661904Y-63533333D01*
X78661904Y-63771428D01*
X78614285Y-63961904D01*
X78566666Y-64057142D01*
X78519047Y-64104761D01*
X78423809Y-64152380D01*
X78328571Y-64152380D01*
X78233333Y-64104761D01*
X78185714Y-64057142D01*
X78138095Y-63961904D01*
X78090476Y-63771428D01*
X78090476Y-63533333D01*
X78138095Y-63342857D01*
X78185714Y-63247619D01*
X78233333Y-63200000D01*
X78328571Y-63152380D01*
%TO.C,C5*%
X94333333Y-64182142D02*
X94285714Y-64229761D01*
X94142857Y-64277380D01*
X94047619Y-64277380D01*
X93904761Y-64229761D01*
X93809523Y-64134523D01*
X93761904Y-64039285D01*
X93714285Y-63848809D01*
X93714285Y-63705952D01*
X93761904Y-63515476D01*
X93809523Y-63420238D01*
X93904761Y-63325000D01*
X94047619Y-63277380D01*
X94142857Y-63277380D01*
X94285714Y-63325000D01*
X94333333Y-63372619D01*
X95238095Y-63277380D02*
X94761904Y-63277380D01*
X94714285Y-63753571D01*
X94761904Y-63705952D01*
X94857142Y-63658333D01*
X95095238Y-63658333D01*
X95190476Y-63705952D01*
X95238095Y-63753571D01*
X95285714Y-63848809D01*
X95285714Y-64086904D01*
X95238095Y-64182142D01*
X95190476Y-64229761D01*
X95095238Y-64277380D01*
X94857142Y-64277380D01*
X94761904Y-64229761D01*
X94714285Y-64182142D01*
%TO.C,U8*%
X77352380Y-67061904D02*
X78161904Y-67061904D01*
X78257142Y-67014285D01*
X78304761Y-66966666D01*
X78352380Y-66871428D01*
X78352380Y-66680952D01*
X78304761Y-66585714D01*
X78257142Y-66538095D01*
X78161904Y-66490476D01*
X77352380Y-66490476D01*
X77780952Y-65871428D02*
X77733333Y-65966666D01*
X77685714Y-66014285D01*
X77590476Y-66061904D01*
X77542857Y-66061904D01*
X77447619Y-66014285D01*
X77400000Y-65966666D01*
X77352380Y-65871428D01*
X77352380Y-65680952D01*
X77400000Y-65585714D01*
X77447619Y-65538095D01*
X77542857Y-65490476D01*
X77590476Y-65490476D01*
X77685714Y-65538095D01*
X77733333Y-65585714D01*
X77780952Y-65680952D01*
X77780952Y-65871428D01*
X77828571Y-65966666D01*
X77876190Y-66014285D01*
X77971428Y-66061904D01*
X78161904Y-66061904D01*
X78257142Y-66014285D01*
X78304761Y-65966666D01*
X78352380Y-65871428D01*
X78352380Y-65680952D01*
X78304761Y-65585714D01*
X78257142Y-65538095D01*
X78161904Y-65490476D01*
X77971428Y-65490476D01*
X77876190Y-65538095D01*
X77828571Y-65585714D01*
X77780952Y-65680952D01*
%TO.C,U7*%
X86538095Y-46652380D02*
X86538095Y-47461904D01*
X86585714Y-47557142D01*
X86633333Y-47604761D01*
X86728571Y-47652380D01*
X86919047Y-47652380D01*
X87014285Y-47604761D01*
X87061904Y-47557142D01*
X87109523Y-47461904D01*
X87109523Y-46652380D01*
X87490476Y-46652380D02*
X88157142Y-46652380D01*
X87728571Y-47652380D01*
%TO.C,L1*%
X81533333Y-72152380D02*
X81057142Y-72152380D01*
X81057142Y-71152380D01*
X82390476Y-72152380D02*
X81819047Y-72152380D01*
X82104761Y-72152380D02*
X82104761Y-71152380D01*
X82009523Y-71295238D01*
X81914285Y-71390476D01*
X81819047Y-71438095D01*
%TO.C,D3*%
X85761904Y-74352380D02*
X85761904Y-73352380D01*
X86000000Y-73352380D01*
X86142857Y-73400000D01*
X86238095Y-73495238D01*
X86285714Y-73590476D01*
X86333333Y-73780952D01*
X86333333Y-73923809D01*
X86285714Y-74114285D01*
X86238095Y-74209523D01*
X86142857Y-74304761D01*
X86000000Y-74352380D01*
X85761904Y-74352380D01*
X86666666Y-73352380D02*
X87285714Y-73352380D01*
X86952380Y-73733333D01*
X87095238Y-73733333D01*
X87190476Y-73780952D01*
X87238095Y-73828571D01*
X87285714Y-73923809D01*
X87285714Y-74161904D01*
X87238095Y-74257142D01*
X87190476Y-74304761D01*
X87095238Y-74352380D01*
X86809523Y-74352380D01*
X86714285Y-74304761D01*
X86666666Y-74257142D01*
%TO.C,D2*%
X85052380Y-56188095D02*
X84052380Y-56188095D01*
X84052380Y-55950000D01*
X84100000Y-55807142D01*
X84195238Y-55711904D01*
X84290476Y-55664285D01*
X84480952Y-55616666D01*
X84623809Y-55616666D01*
X84814285Y-55664285D01*
X84909523Y-55711904D01*
X85004761Y-55807142D01*
X85052380Y-55950000D01*
X85052380Y-56188095D01*
X84147619Y-55235714D02*
X84100000Y-55188095D01*
X84052380Y-55092857D01*
X84052380Y-54854761D01*
X84100000Y-54759523D01*
X84147619Y-54711904D01*
X84242857Y-54664285D01*
X84338095Y-54664285D01*
X84480952Y-54711904D01*
X85052380Y-55283333D01*
X85052380Y-54664285D01*
%TO.C,C13*%
X87585714Y-66485714D02*
X87547619Y-66523809D01*
X87433333Y-66561904D01*
X87357142Y-66561904D01*
X87242857Y-66523809D01*
X87166666Y-66447619D01*
X87128571Y-66371428D01*
X87090476Y-66219047D01*
X87090476Y-66104761D01*
X87128571Y-65952380D01*
X87166666Y-65876190D01*
X87242857Y-65800000D01*
X87357142Y-65761904D01*
X87433333Y-65761904D01*
X87547619Y-65800000D01*
X87585714Y-65838095D01*
X88347619Y-66561904D02*
X87890476Y-66561904D01*
X88119047Y-66561904D02*
X88119047Y-65761904D01*
X88042857Y-65876190D01*
X87966666Y-65952380D01*
X87890476Y-65990476D01*
X88614285Y-65761904D02*
X89109523Y-65761904D01*
X88842857Y-66066666D01*
X88957142Y-66066666D01*
X89033333Y-66104761D01*
X89071428Y-66142857D01*
X89109523Y-66219047D01*
X89109523Y-66409523D01*
X89071428Y-66485714D01*
X89033333Y-66523809D01*
X88957142Y-66561904D01*
X88728571Y-66561904D01*
X88652380Y-66523809D01*
X88614285Y-66485714D01*
%TO.C,C9*%
X87633333Y-58757142D02*
X87585714Y-58804761D01*
X87442857Y-58852380D01*
X87347619Y-58852380D01*
X87204761Y-58804761D01*
X87109523Y-58709523D01*
X87061904Y-58614285D01*
X87014285Y-58423809D01*
X87014285Y-58280952D01*
X87061904Y-58090476D01*
X87109523Y-57995238D01*
X87204761Y-57900000D01*
X87347619Y-57852380D01*
X87442857Y-57852380D01*
X87585714Y-57900000D01*
X87633333Y-57947619D01*
X88109523Y-58852380D02*
X88300000Y-58852380D01*
X88395238Y-58804761D01*
X88442857Y-58757142D01*
X88538095Y-58614285D01*
X88585714Y-58423809D01*
X88585714Y-58042857D01*
X88538095Y-57947619D01*
X88490476Y-57900000D01*
X88395238Y-57852380D01*
X88204761Y-57852380D01*
X88109523Y-57900000D01*
X88061904Y-57947619D01*
X88014285Y-58042857D01*
X88014285Y-58280952D01*
X88061904Y-58376190D01*
X88109523Y-58423809D01*
X88204761Y-58471428D01*
X88395238Y-58471428D01*
X88490476Y-58423809D01*
X88538095Y-58376190D01*
X88585714Y-58280952D01*
%TO.C,C8*%
X92933333Y-46057142D02*
X92885714Y-46104761D01*
X92742857Y-46152380D01*
X92647619Y-46152380D01*
X92504761Y-46104761D01*
X92409523Y-46009523D01*
X92361904Y-45914285D01*
X92314285Y-45723809D01*
X92314285Y-45580952D01*
X92361904Y-45390476D01*
X92409523Y-45295238D01*
X92504761Y-45200000D01*
X92647619Y-45152380D01*
X92742857Y-45152380D01*
X92885714Y-45200000D01*
X92933333Y-45247619D01*
X93504761Y-45580952D02*
X93409523Y-45533333D01*
X93361904Y-45485714D01*
X93314285Y-45390476D01*
X93314285Y-45342857D01*
X93361904Y-45247619D01*
X93409523Y-45200000D01*
X93504761Y-45152380D01*
X93695238Y-45152380D01*
X93790476Y-45200000D01*
X93838095Y-45247619D01*
X93885714Y-45342857D01*
X93885714Y-45390476D01*
X93838095Y-45485714D01*
X93790476Y-45533333D01*
X93695238Y-45580952D01*
X93504761Y-45580952D01*
X93409523Y-45628571D01*
X93361904Y-45676190D01*
X93314285Y-45771428D01*
X93314285Y-45961904D01*
X93361904Y-46057142D01*
X93409523Y-46104761D01*
X93504761Y-46152380D01*
X93695238Y-46152380D01*
X93790476Y-46104761D01*
X93838095Y-46057142D01*
X93885714Y-45961904D01*
X93885714Y-45771428D01*
X93838095Y-45676190D01*
X93790476Y-45628571D01*
X93695238Y-45580952D01*
%TO.C,C4*%
X107933333Y-77557142D02*
X107885714Y-77604761D01*
X107742857Y-77652380D01*
X107647619Y-77652380D01*
X107504761Y-77604761D01*
X107409523Y-77509523D01*
X107361904Y-77414285D01*
X107314285Y-77223809D01*
X107314285Y-77080952D01*
X107361904Y-76890476D01*
X107409523Y-76795238D01*
X107504761Y-76700000D01*
X107647619Y-76652380D01*
X107742857Y-76652380D01*
X107885714Y-76700000D01*
X107933333Y-76747619D01*
X108790476Y-76985714D02*
X108790476Y-77652380D01*
X108552380Y-76604761D02*
X108314285Y-77319047D01*
X108933333Y-77319047D01*
%TO.C,C3*%
X81933333Y-77357142D02*
X81885714Y-77404761D01*
X81742857Y-77452380D01*
X81647619Y-77452380D01*
X81504761Y-77404761D01*
X81409523Y-77309523D01*
X81361904Y-77214285D01*
X81314285Y-77023809D01*
X81314285Y-76880952D01*
X81361904Y-76690476D01*
X81409523Y-76595238D01*
X81504761Y-76500000D01*
X81647619Y-76452380D01*
X81742857Y-76452380D01*
X81885714Y-76500000D01*
X81933333Y-76547619D01*
X82266666Y-76452380D02*
X82885714Y-76452380D01*
X82552380Y-76833333D01*
X82695238Y-76833333D01*
X82790476Y-76880952D01*
X82838095Y-76928571D01*
X82885714Y-77023809D01*
X82885714Y-77261904D01*
X82838095Y-77357142D01*
X82790476Y-77404761D01*
X82695238Y-77452380D01*
X82409523Y-77452380D01*
X82314285Y-77404761D01*
X82266666Y-77357142D01*
%TO.C,J5*%
X110166666Y-48857380D02*
X110166666Y-49571666D01*
X110119047Y-49714523D01*
X110023809Y-49809761D01*
X109880952Y-49857380D01*
X109785714Y-49857380D01*
X111119047Y-48857380D02*
X110642857Y-48857380D01*
X110595238Y-49333571D01*
X110642857Y-49285952D01*
X110738095Y-49238333D01*
X110976190Y-49238333D01*
X111071428Y-49285952D01*
X111119047Y-49333571D01*
X111166666Y-49428809D01*
X111166666Y-49666904D01*
X111119047Y-49762142D01*
X111071428Y-49809761D01*
X110976190Y-49857380D01*
X110738095Y-49857380D01*
X110642857Y-49809761D01*
X110595238Y-49762142D01*
%TO.C,C7*%
X97133333Y-66157142D02*
X97085714Y-66204761D01*
X96942857Y-66252380D01*
X96847619Y-66252380D01*
X96704761Y-66204761D01*
X96609523Y-66109523D01*
X96561904Y-66014285D01*
X96514285Y-65823809D01*
X96514285Y-65680952D01*
X96561904Y-65490476D01*
X96609523Y-65395238D01*
X96704761Y-65300000D01*
X96847619Y-65252380D01*
X96942857Y-65252380D01*
X97085714Y-65300000D01*
X97133333Y-65347619D01*
X97466666Y-65252380D02*
X98133333Y-65252380D01*
X97704761Y-66252380D01*
%TO.C,J2*%
X102266666Y-78752380D02*
X102266666Y-79466666D01*
X102219047Y-79609523D01*
X102123809Y-79704761D01*
X101980952Y-79752380D01*
X101885714Y-79752380D01*
X102695238Y-78847619D02*
X102742857Y-78800000D01*
X102838095Y-78752380D01*
X103076190Y-78752380D01*
X103171428Y-78800000D01*
X103219047Y-78847619D01*
X103266666Y-78942857D01*
X103266666Y-79038095D01*
X103219047Y-79180952D01*
X102647619Y-79752380D01*
X103266666Y-79752380D01*
%TO.C,J3*%
X102066666Y-57617380D02*
X102066666Y-58331666D01*
X102019047Y-58474523D01*
X101923809Y-58569761D01*
X101780952Y-58617380D01*
X101685714Y-58617380D01*
X102447619Y-57617380D02*
X103066666Y-57617380D01*
X102733333Y-57998333D01*
X102876190Y-57998333D01*
X102971428Y-58045952D01*
X103019047Y-58093571D01*
X103066666Y-58188809D01*
X103066666Y-58426904D01*
X103019047Y-58522142D01*
X102971428Y-58569761D01*
X102876190Y-58617380D01*
X102590476Y-58617380D01*
X102495238Y-58569761D01*
X102447619Y-58522142D01*
%TO.C,J4*%
X85866666Y-60852380D02*
X85866666Y-61566666D01*
X85819047Y-61709523D01*
X85723809Y-61804761D01*
X85580952Y-61852380D01*
X85485714Y-61852380D01*
X86771428Y-61185714D02*
X86771428Y-61852380D01*
X86533333Y-60804761D02*
X86295238Y-61519047D01*
X86914285Y-61519047D01*
%TO.C,J1*%
X87766666Y-78852380D02*
X87766666Y-79566666D01*
X87719047Y-79709523D01*
X87623809Y-79804761D01*
X87480952Y-79852380D01*
X87385714Y-79852380D01*
X88766666Y-79852380D02*
X88195238Y-79852380D01*
X88480952Y-79852380D02*
X88480952Y-78852380D01*
X88385714Y-78995238D01*
X88290476Y-79090476D01*
X88195238Y-79138095D01*
%TO.C,U4*%
X80938095Y-52752380D02*
X80938095Y-53561904D01*
X80985714Y-53657142D01*
X81033333Y-53704761D01*
X81128571Y-53752380D01*
X81319047Y-53752380D01*
X81414285Y-53704761D01*
X81461904Y-53657142D01*
X81509523Y-53561904D01*
X81509523Y-52752380D01*
X82414285Y-53085714D02*
X82414285Y-53752380D01*
X82176190Y-52704761D02*
X81938095Y-53419047D01*
X82557142Y-53419047D01*
%TO.C,C6*%
X91933333Y-66157142D02*
X91885714Y-66204761D01*
X91742857Y-66252380D01*
X91647619Y-66252380D01*
X91504761Y-66204761D01*
X91409523Y-66109523D01*
X91361904Y-66014285D01*
X91314285Y-65823809D01*
X91314285Y-65680952D01*
X91361904Y-65490476D01*
X91409523Y-65395238D01*
X91504761Y-65300000D01*
X91647619Y-65252380D01*
X91742857Y-65252380D01*
X91885714Y-65300000D01*
X91933333Y-65347619D01*
X92790476Y-65252380D02*
X92600000Y-65252380D01*
X92504761Y-65300000D01*
X92457142Y-65347619D01*
X92361904Y-65490476D01*
X92314285Y-65680952D01*
X92314285Y-66061904D01*
X92361904Y-66157142D01*
X92409523Y-66204761D01*
X92504761Y-66252380D01*
X92695238Y-66252380D01*
X92790476Y-66204761D01*
X92838095Y-66157142D01*
X92885714Y-66061904D01*
X92885714Y-65823809D01*
X92838095Y-65728571D01*
X92790476Y-65680952D01*
X92695238Y-65633333D01*
X92504761Y-65633333D01*
X92409523Y-65680952D01*
X92361904Y-65728571D01*
X92314285Y-65823809D01*
%TO.C,C11*%
X77757142Y-58342857D02*
X77804761Y-58390476D01*
X77852380Y-58533333D01*
X77852380Y-58628571D01*
X77804761Y-58771428D01*
X77709523Y-58866666D01*
X77614285Y-58914285D01*
X77423809Y-58961904D01*
X77280952Y-58961904D01*
X77090476Y-58914285D01*
X76995238Y-58866666D01*
X76900000Y-58771428D01*
X76852380Y-58628571D01*
X76852380Y-58533333D01*
X76900000Y-58390476D01*
X76947619Y-58342857D01*
X77852380Y-57390476D02*
X77852380Y-57961904D01*
X77852380Y-57676190D02*
X76852380Y-57676190D01*
X76995238Y-57771428D01*
X77090476Y-57866666D01*
X77138095Y-57961904D01*
X77852380Y-56438095D02*
X77852380Y-57009523D01*
X77852380Y-56723809D02*
X76852380Y-56723809D01*
X76995238Y-56819047D01*
X77090476Y-56914285D01*
X77138095Y-57009523D01*
%TO.C,C12*%
X77657142Y-60907142D02*
X77609523Y-60954761D01*
X77466666Y-61002380D01*
X77371428Y-61002380D01*
X77228571Y-60954761D01*
X77133333Y-60859523D01*
X77085714Y-60764285D01*
X77038095Y-60573809D01*
X77038095Y-60430952D01*
X77085714Y-60240476D01*
X77133333Y-60145238D01*
X77228571Y-60050000D01*
X77371428Y-60002380D01*
X77466666Y-60002380D01*
X77609523Y-60050000D01*
X77657142Y-60097619D01*
X78609523Y-61002380D02*
X78038095Y-61002380D01*
X78323809Y-61002380D02*
X78323809Y-60002380D01*
X78228571Y-60145238D01*
X78133333Y-60240476D01*
X78038095Y-60288095D01*
X78990476Y-60097619D02*
X79038095Y-60050000D01*
X79133333Y-60002380D01*
X79371428Y-60002380D01*
X79466666Y-60050000D01*
X79514285Y-60097619D01*
X79561904Y-60192857D01*
X79561904Y-60288095D01*
X79514285Y-60430952D01*
X78942857Y-61002380D01*
X79561904Y-61002380D01*
%TO.C,D1*%
X80561904Y-44952380D02*
X80561904Y-43952380D01*
X80800000Y-43952380D01*
X80942857Y-44000000D01*
X81038095Y-44095238D01*
X81085714Y-44190476D01*
X81133333Y-44380952D01*
X81133333Y-44523809D01*
X81085714Y-44714285D01*
X81038095Y-44809523D01*
X80942857Y-44904761D01*
X80800000Y-44952380D01*
X80561904Y-44952380D01*
X82085714Y-44952380D02*
X81514285Y-44952380D01*
X81800000Y-44952380D02*
X81800000Y-43952380D01*
X81704761Y-44095238D01*
X81609523Y-44190476D01*
X81514285Y-44238095D01*
%TO.C,Q4*%
X93547619Y-58495238D02*
X93500000Y-58590476D01*
X93404761Y-58685714D01*
X93261904Y-58828571D01*
X93214285Y-58923809D01*
X93214285Y-59019047D01*
X93452380Y-58971428D02*
X93404761Y-59066666D01*
X93309523Y-59161904D01*
X93119047Y-59209523D01*
X92785714Y-59209523D01*
X92595238Y-59161904D01*
X92500000Y-59066666D01*
X92452380Y-58971428D01*
X92452380Y-58780952D01*
X92500000Y-58685714D01*
X92595238Y-58590476D01*
X92785714Y-58542857D01*
X93119047Y-58542857D01*
X93309523Y-58590476D01*
X93404761Y-58685714D01*
X93452380Y-58780952D01*
X93452380Y-58971428D01*
X92785714Y-57685714D02*
X93452380Y-57685714D01*
X92404761Y-57923809D02*
X93119047Y-58161904D01*
X93119047Y-57542857D01*
%TO.C,R1*%
X92152380Y-69866666D02*
X91676190Y-70200000D01*
X92152380Y-70438095D02*
X91152380Y-70438095D01*
X91152380Y-70057142D01*
X91200000Y-69961904D01*
X91247619Y-69914285D01*
X91342857Y-69866666D01*
X91485714Y-69866666D01*
X91580952Y-69914285D01*
X91628571Y-69961904D01*
X91676190Y-70057142D01*
X91676190Y-70438095D01*
X92152380Y-68914285D02*
X92152380Y-69485714D01*
X92152380Y-69200000D02*
X91152380Y-69200000D01*
X91295238Y-69295238D01*
X91390476Y-69390476D01*
X91438095Y-69485714D01*
%TO.C,R3*%
X97133333Y-80502380D02*
X96800000Y-80026190D01*
X96561904Y-80502380D02*
X96561904Y-79502380D01*
X96942857Y-79502380D01*
X97038095Y-79550000D01*
X97085714Y-79597619D01*
X97133333Y-79692857D01*
X97133333Y-79835714D01*
X97085714Y-79930952D01*
X97038095Y-79978571D01*
X96942857Y-80026190D01*
X96561904Y-80026190D01*
X97466666Y-79502380D02*
X98085714Y-79502380D01*
X97752380Y-79883333D01*
X97895238Y-79883333D01*
X97990476Y-79930952D01*
X98038095Y-79978571D01*
X98085714Y-80073809D01*
X98085714Y-80311904D01*
X98038095Y-80407142D01*
X97990476Y-80454761D01*
X97895238Y-80502380D01*
X97609523Y-80502380D01*
X97514285Y-80454761D01*
X97466666Y-80407142D01*
%TO.C,R4*%
X93833333Y-80502380D02*
X93500000Y-80026190D01*
X93261904Y-80502380D02*
X93261904Y-79502380D01*
X93642857Y-79502380D01*
X93738095Y-79550000D01*
X93785714Y-79597619D01*
X93833333Y-79692857D01*
X93833333Y-79835714D01*
X93785714Y-79930952D01*
X93738095Y-79978571D01*
X93642857Y-80026190D01*
X93261904Y-80026190D01*
X94690476Y-79835714D02*
X94690476Y-80502380D01*
X94452380Y-79454761D02*
X94214285Y-80169047D01*
X94833333Y-80169047D01*
%TO.C,R5*%
X93175000Y-54839285D02*
X92925000Y-54482142D01*
X92746428Y-54839285D02*
X92746428Y-54089285D01*
X93032142Y-54089285D01*
X93103571Y-54125000D01*
X93139285Y-54160714D01*
X93175000Y-54232142D01*
X93175000Y-54339285D01*
X93139285Y-54410714D01*
X93103571Y-54446428D01*
X93032142Y-54482142D01*
X92746428Y-54482142D01*
X93853571Y-54089285D02*
X93496428Y-54089285D01*
X93460714Y-54446428D01*
X93496428Y-54410714D01*
X93567857Y-54375000D01*
X93746428Y-54375000D01*
X93817857Y-54410714D01*
X93853571Y-54446428D01*
X93889285Y-54517857D01*
X93889285Y-54696428D01*
X93853571Y-54767857D01*
X93817857Y-54803571D01*
X93746428Y-54839285D01*
X93567857Y-54839285D01*
X93496428Y-54803571D01*
X93460714Y-54767857D01*
%TO.C,R6*%
X83639285Y-67665000D02*
X83282142Y-67915000D01*
X83639285Y-68093571D02*
X82889285Y-68093571D01*
X82889285Y-67807857D01*
X82925000Y-67736428D01*
X82960714Y-67700714D01*
X83032142Y-67665000D01*
X83139285Y-67665000D01*
X83210714Y-67700714D01*
X83246428Y-67736428D01*
X83282142Y-67807857D01*
X83282142Y-68093571D01*
X82889285Y-67022142D02*
X82889285Y-67165000D01*
X82925000Y-67236428D01*
X82960714Y-67272142D01*
X83067857Y-67343571D01*
X83210714Y-67379285D01*
X83496428Y-67379285D01*
X83567857Y-67343571D01*
X83603571Y-67307857D01*
X83639285Y-67236428D01*
X83639285Y-67093571D01*
X83603571Y-67022142D01*
X83567857Y-66986428D01*
X83496428Y-66950714D01*
X83317857Y-66950714D01*
X83246428Y-66986428D01*
X83210714Y-67022142D01*
X83175000Y-67093571D01*
X83175000Y-67236428D01*
X83210714Y-67307857D01*
X83246428Y-67343571D01*
X83317857Y-67379285D01*
%TO.C,R7*%
X87475000Y-64739285D02*
X87225000Y-64382142D01*
X87046428Y-64739285D02*
X87046428Y-63989285D01*
X87332142Y-63989285D01*
X87403571Y-64025000D01*
X87439285Y-64060714D01*
X87475000Y-64132142D01*
X87475000Y-64239285D01*
X87439285Y-64310714D01*
X87403571Y-64346428D01*
X87332142Y-64382142D01*
X87046428Y-64382142D01*
X87725000Y-63989285D02*
X88225000Y-63989285D01*
X87903571Y-64739285D01*
%TO.C,U1*%
X81952380Y-80461904D02*
X82761904Y-80461904D01*
X82857142Y-80414285D01*
X82904761Y-80366666D01*
X82952380Y-80271428D01*
X82952380Y-80080952D01*
X82904761Y-79985714D01*
X82857142Y-79938095D01*
X82761904Y-79890476D01*
X81952380Y-79890476D01*
X82952380Y-78890476D02*
X82952380Y-79461904D01*
X82952380Y-79176190D02*
X81952380Y-79176190D01*
X82095238Y-79271428D01*
X82190476Y-79366666D01*
X82238095Y-79461904D01*
%TO.C,U2*%
X107652380Y-80661904D02*
X108461904Y-80661904D01*
X108557142Y-80614285D01*
X108604761Y-80566666D01*
X108652380Y-80471428D01*
X108652380Y-80280952D01*
X108604761Y-80185714D01*
X108557142Y-80138095D01*
X108461904Y-80090476D01*
X107652380Y-80090476D01*
X107747619Y-79661904D02*
X107700000Y-79614285D01*
X107652380Y-79519047D01*
X107652380Y-79280952D01*
X107700000Y-79185714D01*
X107747619Y-79138095D01*
X107842857Y-79090476D01*
X107938095Y-79090476D01*
X108080952Y-79138095D01*
X108652380Y-79709523D01*
X108652380Y-79090476D01*
%TO.C,U3*%
X98652380Y-72761904D02*
X99461904Y-72761904D01*
X99557142Y-72714285D01*
X99604761Y-72666666D01*
X99652380Y-72571428D01*
X99652380Y-72380952D01*
X99604761Y-72285714D01*
X99557142Y-72238095D01*
X99461904Y-72190476D01*
X98652380Y-72190476D01*
X98652380Y-71809523D02*
X98652380Y-71190476D01*
X99033333Y-71523809D01*
X99033333Y-71380952D01*
X99080952Y-71285714D01*
X99128571Y-71238095D01*
X99223809Y-71190476D01*
X99461904Y-71190476D01*
X99557142Y-71238095D01*
X99604761Y-71285714D01*
X99652380Y-71380952D01*
X99652380Y-71666666D01*
X99604761Y-71761904D01*
X99557142Y-71809523D01*
%TO.C,U5*%
X106004523Y-49467619D02*
X107032619Y-49467619D01*
X107153571Y-49407142D01*
X107214047Y-49346666D01*
X107274523Y-49225714D01*
X107274523Y-48983809D01*
X107214047Y-48862857D01*
X107153571Y-48802380D01*
X107032619Y-48741904D01*
X106004523Y-48741904D01*
X106004523Y-47532380D02*
X106004523Y-48137142D01*
X106609285Y-48197619D01*
X106548809Y-48137142D01*
X106488333Y-48016190D01*
X106488333Y-47713809D01*
X106548809Y-47592857D01*
X106609285Y-47532380D01*
X106730238Y-47471904D01*
X107032619Y-47471904D01*
X107153571Y-47532380D01*
X107214047Y-47592857D01*
X107274523Y-47713809D01*
X107274523Y-48016190D01*
X107214047Y-48137142D01*
X107153571Y-48197619D01*
D13*
X98009915Y-47058765D02*
X98120224Y-47095535D01*
X98156993Y-47132304D01*
X98193763Y-47205843D01*
X98193763Y-47316152D01*
X98156993Y-47389691D01*
X98120224Y-47426460D01*
X98046685Y-47463230D01*
X97752529Y-47463230D01*
X97752529Y-46691070D01*
X98009915Y-46691070D01*
X98083454Y-46727840D01*
X98120224Y-46764609D01*
X98156993Y-46838148D01*
X98156993Y-46911687D01*
X98120224Y-46985226D01*
X98083454Y-47021996D01*
X98009915Y-47058765D01*
X97752529Y-47058765D01*
X98965923Y-47389691D02*
X98929153Y-47426460D01*
X98818845Y-47463230D01*
X98745306Y-47463230D01*
X98634997Y-47426460D01*
X98561458Y-47352921D01*
X98524689Y-47279382D01*
X98487919Y-47132304D01*
X98487919Y-47021996D01*
X98524689Y-46874918D01*
X98561458Y-46801379D01*
X98634997Y-46727840D01*
X98745306Y-46691070D01*
X98818845Y-46691070D01*
X98929153Y-46727840D01*
X98965923Y-46764609D01*
X99407157Y-47021996D02*
X99333618Y-46985226D01*
X99296849Y-46948457D01*
X99260079Y-46874918D01*
X99260079Y-46838148D01*
X99296849Y-46764609D01*
X99333618Y-46727840D01*
X99407157Y-46691070D01*
X99554235Y-46691070D01*
X99627774Y-46727840D01*
X99664544Y-46764609D01*
X99701313Y-46838148D01*
X99701313Y-46874918D01*
X99664544Y-46948457D01*
X99627774Y-46985226D01*
X99554235Y-47021996D01*
X99407157Y-47021996D01*
X99333618Y-47058765D01*
X99296849Y-47095535D01*
X99260079Y-47169074D01*
X99260079Y-47316152D01*
X99296849Y-47389691D01*
X99333618Y-47426460D01*
X99407157Y-47463230D01*
X99554235Y-47463230D01*
X99627774Y-47426460D01*
X99664544Y-47389691D01*
X99701313Y-47316152D01*
X99701313Y-47169074D01*
X99664544Y-47095535D01*
X99627774Y-47058765D01*
X99554235Y-47021996D01*
X99958700Y-46691070D02*
X100436704Y-46691070D01*
X100179317Y-46985226D01*
X100289626Y-46985226D01*
X100363165Y-47021996D01*
X100399934Y-47058765D01*
X100436704Y-47132304D01*
X100436704Y-47316152D01*
X100399934Y-47389691D01*
X100363165Y-47426460D01*
X100289626Y-47463230D01*
X100069009Y-47463230D01*
X99995470Y-47426460D01*
X99958700Y-47389691D01*
X100694091Y-46691070D02*
X101172094Y-46691070D01*
X100914708Y-46985226D01*
X101025016Y-46985226D01*
X101098555Y-47021996D01*
X101135325Y-47058765D01*
X101172094Y-47132304D01*
X101172094Y-47316152D01*
X101135325Y-47389691D01*
X101098555Y-47426460D01*
X101025016Y-47463230D01*
X100804399Y-47463230D01*
X100730860Y-47426460D01*
X100694091Y-47389691D01*
X101503020Y-47169074D02*
X102091333Y-47169074D01*
X102348719Y-46691070D02*
X102606106Y-47463230D01*
X102863493Y-46691070D01*
X103451805Y-46948457D02*
X103451805Y-47463230D01*
X103267957Y-46654300D02*
X103084110Y-47205843D01*
X103562113Y-47205843D01*
%TO.C,U6*%
D10*
X79238095Y-54752380D02*
X79238095Y-55561904D01*
X79285714Y-55657142D01*
X79333333Y-55704761D01*
X79428571Y-55752380D01*
X79619047Y-55752380D01*
X79714285Y-55704761D01*
X79761904Y-55657142D01*
X79809523Y-55561904D01*
X79809523Y-54752380D01*
X80714285Y-54752380D02*
X80523809Y-54752380D01*
X80428571Y-54800000D01*
X80380952Y-54847619D01*
X80285714Y-54990476D01*
X80238095Y-55180952D01*
X80238095Y-55561904D01*
X80285714Y-55657142D01*
X80333333Y-55704761D01*
X80428571Y-55752380D01*
X80619047Y-55752380D01*
X80714285Y-55704761D01*
X80761904Y-55657142D01*
X80809523Y-55561904D01*
X80809523Y-55323809D01*
X80761904Y-55228571D01*
X80714285Y-55180952D01*
X80619047Y-55133333D01*
X80428571Y-55133333D01*
X80333333Y-55180952D01*
X80285714Y-55228571D01*
X80238095Y-55323809D01*
%TD*%
M02*
