%TF.GenerationSoftware,KiCad,Pcbnew,(5.1.9)-1*%
%TF.CreationDate,2021-03-26T19:47:33+01:00*%
%TF.ProjectId,DotBot,446f7442-6f74-42e6-9b69-6361645f7063,rev?*%
%TF.SameCoordinates,Original*%
%TF.FileFunction,Copper,L4,Bot*%
%TF.FilePolarity,Positive*%
%FSLAX46Y46*%
G04 Gerber Fmt 4.6, Leading zero omitted, Abs format (unit mm)*
G04 Created by KiCad (PCBNEW (5.1.9)-1) date 2021-03-26 19:47:33*
%MOMM*%
%LPD*%
G01*
G04 APERTURE LIST*
%TA.AperFunction,ComponentPad*%
%ADD10O,1.000000X1.000000*%
%TD*%
%TA.AperFunction,ComponentPad*%
%ADD11R,1.000000X1.000000*%
%TD*%
%TA.AperFunction,ComponentPad*%
%ADD12O,1.700000X1.700000*%
%TD*%
%TA.AperFunction,ComponentPad*%
%ADD13R,1.700000X1.700000*%
%TD*%
%TA.AperFunction,ComponentPad*%
%ADD14R,0.850000X0.850000*%
%TD*%
%TA.AperFunction,ComponentPad*%
%ADD15C,0.500000*%
%TD*%
%TA.AperFunction,SMDPad,CuDef*%
%ADD16R,3.500000X2.000000*%
%TD*%
%TA.AperFunction,ViaPad*%
%ADD17C,0.800000*%
%TD*%
%TA.AperFunction,Conductor*%
%ADD18C,0.200000*%
%TD*%
%TA.AperFunction,Conductor*%
%ADD19C,0.250000*%
%TD*%
%TA.AperFunction,Conductor*%
%ADD20C,0.254000*%
%TD*%
%TA.AperFunction,Conductor*%
%ADD21C,0.100000*%
%TD*%
G04 APERTURE END LIST*
D10*
%TO.P,J5,12*%
%TO.N,P1_09*%
X110500000Y-65070000D03*
%TO.P,J5,11*%
%TO.N,P0_28*%
X110500000Y-63800000D03*
%TO.P,J5,10*%
%TO.N,P0_02*%
X110500000Y-62530000D03*
%TO.P,J5,9*%
%TO.N,P0_11*%
X110500000Y-61260000D03*
%TO.P,J5,8*%
%TO.N,P0_15*%
X110500000Y-59990000D03*
%TO.P,J5,7*%
%TO.N,P0_17*%
X110500000Y-58720000D03*
%TO.P,J5,6*%
%TO.N,P0_04*%
X110500000Y-57450000D03*
%TO.P,J5,5*%
%TO.N,P0_03*%
X110500000Y-56180000D03*
%TO.P,J5,4*%
%TO.N,P0_05*%
X110500000Y-54910000D03*
%TO.P,J5,3*%
%TO.N,P0_20*%
X110500000Y-53640000D03*
%TO.P,J5,2*%
%TO.N,P0_29*%
X110500000Y-52370000D03*
D11*
%TO.P,J5,1*%
%TO.N,P0_30*%
X110500000Y-51100000D03*
%TD*%
D12*
%TO.P,J6,6*%
%TO.N,GND*%
X109580000Y-70760000D03*
%TO.P,J6,5*%
X109580000Y-73300000D03*
%TO.P,J6,4*%
%TO.N,VDD*%
X107040000Y-70760000D03*
%TO.P,J6,3*%
%TO.N,P0_09*%
X107040000Y-73300000D03*
%TO.P,J6,2*%
%TO.N,P0_10*%
X104500000Y-70760000D03*
D13*
%TO.P,J6,1*%
%TO.N,P0_31*%
X104500000Y-73300000D03*
%TD*%
D12*
%TO.P,J2,2*%
%TO.N,Net-(J2-Pad2)*%
X100200000Y-76760000D03*
D13*
%TO.P,J2,1*%
%TO.N,Net-(J2-Pad1)*%
X100200000Y-79300000D03*
%TD*%
D14*
%TO.P,TP3,1*%
%TO.N,GND*%
X77000000Y-53300000D03*
%TD*%
%TO.P,TP2,1*%
%TO.N,GND*%
X87100000Y-73500000D03*
%TD*%
%TO.P,TP1,1*%
%TO.N,GND*%
X89700000Y-72500000D03*
%TD*%
D12*
%TO.P,J4,2*%
%TO.N,Net-(J4-Pad2)*%
X88822000Y-62226000D03*
D13*
%TO.P,J4,1*%
%TO.N,GND*%
X91362000Y-62226000D03*
%TD*%
D12*
%TO.P,J1,2*%
%TO.N,Net-(J1-Pad2)*%
X90750000Y-76810000D03*
D13*
%TO.P,J1,1*%
%TO.N,Net-(J1-Pad1)*%
X90750000Y-79350000D03*
%TD*%
D15*
%TO.P,U3,17*%
%TO.N,GND*%
X94000000Y-72750000D03*
X94000000Y-71250000D03*
X95500000Y-72750000D03*
X95500000Y-71250000D03*
X97000000Y-72750000D03*
X97000000Y-71250000D03*
D16*
X95500000Y-72000000D03*
%TD*%
D17*
%TO.N,GND*%
X82400000Y-63700000D03*
X80500000Y-71400000D03*
X80540000Y-73460000D03*
X83400000Y-61000000D03*
X78800000Y-53300000D03*
X78800000Y-59700000D03*
X88500000Y-66800000D03*
X84300000Y-49900000D03*
X86500000Y-77300000D03*
X104000000Y-75800000D03*
X98700000Y-52800000D03*
X99500000Y-53400000D03*
%TO.N,+3V3*%
X82100000Y-54900000D03*
X83700000Y-50800000D03*
X94900000Y-48300000D03*
X94675724Y-50475724D03*
X76600000Y-56900000D03*
X102800000Y-77500000D03*
%TO.N,VDD*%
X97000000Y-49000000D03*
X92525728Y-55725728D03*
%TO.N,TS4231_D*%
X81000000Y-52500000D03*
X88300000Y-51900000D03*
%TO.N,GND*%
X91362000Y-66262000D03*
X94625000Y-79675000D03*
X96575000Y-79625000D03*
X95299986Y-79099986D03*
X95825000Y-77975000D03*
X95650000Y-79875000D03*
X95974979Y-54800000D03*
X98450000Y-62125000D03*
X83219662Y-63880338D03*
X77100000Y-59200000D03*
%TO.N,+3V3*%
X84362357Y-79250010D03*
%TO.N,+6V*%
X88200000Y-65700000D03*
X81400000Y-61700000D03*
%TO.N,VDD*%
X103825000Y-55950000D03*
X99100000Y-58600000D03*
%TO.N,P0_30*%
X100000000Y-48900000D03*
%TO.N,P0_29*%
X98500000Y-48900000D03*
%TO.N,P0_05*%
X101500000Y-53700000D03*
X98375000Y-76950000D03*
X99925000Y-73275000D03*
%TO.N,P0_04*%
X92700000Y-76875000D03*
X97000000Y-58700000D03*
X99200000Y-74100000D03*
%TO.N,P0_03*%
X94400000Y-57100000D03*
%TO.N,P0_17*%
X86800000Y-81000000D03*
X102874537Y-52720132D03*
X107500000Y-77225000D03*
X107400000Y-56300000D03*
X107200000Y-58800000D03*
%TO.N,P0_15*%
X104813516Y-53625904D03*
X108100000Y-55600000D03*
%TO.N,P1_09*%
X98700000Y-68175000D03*
X101950000Y-68175000D03*
X110475000Y-68175000D03*
%TO.N,P0_11*%
X98750000Y-69125000D03*
X102550000Y-69125000D03*
X111700000Y-68800000D03*
%TO.N,P0_28*%
X92386772Y-69011772D03*
X96725000Y-64650000D03*
%TO.N,P0_02*%
X91900000Y-69950000D03*
X95850000Y-64050000D03*
%TO.N,P0_10*%
X112800001Y-72699999D03*
%TO.N,P0_31*%
X112800000Y-75300000D03*
%TO.N,P0_20*%
X85769669Y-66430331D03*
X98700000Y-51500000D03*
%TO.N,P0_09*%
X112200000Y-74300000D03*
%TD*%
D18*
%TO.N,TS4231_D*%
X81600000Y-51900000D02*
X88300000Y-51900000D01*
X81000000Y-52500000D02*
X81600000Y-51900000D01*
%TO.N,P0_30*%
X101400000Y-50300000D02*
X100000000Y-48900000D01*
X106900000Y-50300000D02*
X101400000Y-50300000D01*
X107700000Y-51100000D02*
X106900000Y-50300000D01*
X110500000Y-51100000D02*
X107700000Y-51100000D01*
%TO.N,P0_29*%
X100300000Y-50700000D02*
X98500000Y-48900000D01*
X106000000Y-50700000D02*
X100300000Y-50700000D01*
X107670000Y-52370000D02*
X106000000Y-50700000D01*
X110500000Y-52370000D02*
X107670000Y-52370000D01*
%TO.N,P0_05*%
X102300000Y-51900000D02*
X104300000Y-51900000D01*
X101500000Y-52700000D02*
X102300000Y-51900000D01*
X101500000Y-53700000D02*
X101500000Y-52700000D01*
X107310000Y-54910000D02*
X106950000Y-54550000D01*
X110500000Y-54910000D02*
X107310000Y-54910000D01*
X104300000Y-51900000D02*
X106950000Y-54550000D01*
X99925000Y-75400000D02*
X99925000Y-73275000D01*
X98375000Y-76950000D02*
X99925000Y-75400000D01*
%TO.N,P0_04*%
X110500000Y-57450000D02*
X98250000Y-57450000D01*
X98250000Y-57450000D02*
X97000000Y-58700000D01*
X96425000Y-76875000D02*
X99200000Y-74100000D01*
X92700000Y-76875000D02*
X96425000Y-76875000D01*
%TO.N,P0_03*%
X109580000Y-57100000D02*
X94400000Y-57100000D01*
X110500000Y-56180000D02*
X109580000Y-57100000D01*
%TO.N,P0_17*%
X107500000Y-80400000D02*
X107500000Y-78900000D01*
X106900000Y-81000000D02*
X107500000Y-80400000D01*
X86800000Y-81000000D02*
X106900000Y-81000000D01*
X107500000Y-78900000D02*
X107500000Y-77225000D01*
X106454405Y-56300000D02*
X107400000Y-56300000D01*
X102874537Y-52720132D02*
X106454405Y-56300000D01*
X110420000Y-58800000D02*
X110500000Y-58720000D01*
X107200000Y-58800000D02*
X110420000Y-58800000D01*
%TO.N,P0_15*%
X104813516Y-53625904D02*
X106787612Y-55600000D01*
X106787612Y-55600000D02*
X108100000Y-55600000D01*
%TO.N,P1_09*%
X98700000Y-68175000D02*
X101950000Y-68175000D01*
D19*
X109775000Y-68175000D02*
X109800000Y-68200000D01*
X101950000Y-68175000D02*
X109775000Y-68175000D01*
X109775000Y-68175000D02*
X110475000Y-68175000D01*
%TO.N,P0_11*%
X98750000Y-69125000D02*
X102550000Y-69125000D01*
X109675000Y-69125000D02*
X109700000Y-69100000D01*
X102550000Y-69125000D02*
X109675000Y-69125000D01*
X111375000Y-69125000D02*
X111700000Y-68800000D01*
X109675000Y-69125000D02*
X111375000Y-69125000D01*
D18*
%TO.N,P0_28*%
X96725000Y-64673544D02*
X96725000Y-64650000D01*
X92386772Y-69011772D02*
X96725000Y-64673544D01*
D19*
X109650000Y-64650000D02*
X108950000Y-64650000D01*
X110500000Y-63800000D02*
X109650000Y-64650000D01*
X108950000Y-64650000D02*
X109600000Y-64650000D01*
X96725000Y-64650000D02*
X108950000Y-64650000D01*
D18*
%TO.N,P0_02*%
X91399998Y-69449998D02*
X91399998Y-68500002D01*
X91900000Y-69950000D02*
X91399998Y-69449998D01*
X91399998Y-68500002D02*
X95850000Y-64050000D01*
D19*
X95850000Y-64050000D02*
X96249999Y-63650001D01*
X109379999Y-63650001D02*
X108750001Y-63650001D01*
X110500000Y-62530000D02*
X109379999Y-63650001D01*
X96249999Y-63650001D02*
X108750001Y-63650001D01*
D18*
%TO.N,P0_10*%
X112800001Y-72699999D02*
X112100002Y-72000000D01*
X105740000Y-72000000D02*
X104500000Y-70760000D01*
X112100002Y-72000000D02*
X105740000Y-72000000D01*
%TO.N,P0_31*%
X106500000Y-75300000D02*
X104500000Y-73300000D01*
X112800000Y-75300000D02*
X106500000Y-75300000D01*
%TO.N,P0_20*%
X105200000Y-51500000D02*
X98700000Y-51500000D01*
X107340000Y-53640000D02*
X105200000Y-51500000D01*
X110500000Y-53640000D02*
X107340000Y-53640000D01*
D19*
X95300000Y-51500000D02*
X98700000Y-51500000D01*
X85769669Y-61030331D02*
X95300000Y-51500000D01*
X85769669Y-66430331D02*
X85769669Y-61030331D01*
D18*
%TO.N,P0_09*%
X112200000Y-74300000D02*
X111800001Y-74699999D01*
X111800001Y-74699999D02*
X108439999Y-74699999D01*
X108439999Y-74699999D02*
X107040000Y-73300000D01*
%TD*%
D20*
%TO.N,GND*%
X94948575Y-46668450D02*
X95031052Y-46768948D01*
X95131550Y-46851425D01*
X95246207Y-46912710D01*
X95370617Y-46950450D01*
X95467581Y-46960000D01*
X95500000Y-46963193D01*
X95532419Y-46960000D01*
X105667581Y-46960000D01*
X105700000Y-46963193D01*
X105732419Y-46960000D01*
X105829383Y-46950450D01*
X105953793Y-46912710D01*
X106068450Y-46851425D01*
X106168948Y-46768948D01*
X106251425Y-46668450D01*
X106273580Y-46627000D01*
X109015945Y-46627000D01*
X109031675Y-46706081D01*
X109162463Y-47021831D01*
X109352337Y-47305998D01*
X109594002Y-47547663D01*
X109878169Y-47737537D01*
X110193919Y-47868325D01*
X110529117Y-47935000D01*
X110870883Y-47935000D01*
X111206081Y-47868325D01*
X111521831Y-47737537D01*
X111805998Y-47547663D01*
X112047663Y-47305998D01*
X112237537Y-47021831D01*
X112368325Y-46706081D01*
X112384055Y-46627000D01*
X114310831Y-46627000D01*
X114340000Y-47024207D01*
X114340001Y-80726618D01*
X113726620Y-81340000D01*
X107599446Y-81340000D01*
X107994197Y-80945250D01*
X108022237Y-80922238D01*
X108045250Y-80894197D01*
X108045253Y-80894194D01*
X108103708Y-80822967D01*
X108114087Y-80810320D01*
X108182337Y-80682633D01*
X108211616Y-80586114D01*
X108224365Y-80544086D01*
X108228264Y-80504494D01*
X108235000Y-80436105D01*
X108235000Y-80436098D01*
X108238555Y-80400001D01*
X108235000Y-80363904D01*
X108235000Y-78329117D01*
X109765000Y-78329117D01*
X109765000Y-78670883D01*
X109831675Y-79006081D01*
X109962463Y-79321831D01*
X110152337Y-79605998D01*
X110394002Y-79847663D01*
X110678169Y-80037537D01*
X110993919Y-80168325D01*
X111329117Y-80235000D01*
X111670883Y-80235000D01*
X112006081Y-80168325D01*
X112321831Y-80037537D01*
X112605998Y-79847663D01*
X112847663Y-79605998D01*
X113037537Y-79321831D01*
X113168325Y-79006081D01*
X113235000Y-78670883D01*
X113235000Y-78329117D01*
X113168325Y-77993919D01*
X113037537Y-77678169D01*
X112847663Y-77394002D01*
X112605998Y-77152337D01*
X112321831Y-76962463D01*
X112006081Y-76831675D01*
X111670883Y-76765000D01*
X111329117Y-76765000D01*
X110993919Y-76831675D01*
X110678169Y-76962463D01*
X110394002Y-77152337D01*
X110152337Y-77394002D01*
X109962463Y-77678169D01*
X109831675Y-77993919D01*
X109765000Y-78329117D01*
X108235000Y-78329117D01*
X108235000Y-77953711D01*
X108303937Y-77884774D01*
X108417205Y-77715256D01*
X108495226Y-77526898D01*
X108535000Y-77326939D01*
X108535000Y-77123061D01*
X108495226Y-76923102D01*
X108417205Y-76734744D01*
X108303937Y-76565226D01*
X108159774Y-76421063D01*
X107990256Y-76307795D01*
X107801898Y-76229774D01*
X107601939Y-76190000D01*
X107398061Y-76190000D01*
X107198102Y-76229774D01*
X107009744Y-76307795D01*
X106840226Y-76421063D01*
X106696063Y-76565226D01*
X106582795Y-76734744D01*
X106504774Y-76923102D01*
X106465000Y-77123061D01*
X106465000Y-77326939D01*
X106504774Y-77526898D01*
X106582795Y-77715256D01*
X106696063Y-77884774D01*
X106765001Y-77953712D01*
X106765000Y-78936104D01*
X106765001Y-78936114D01*
X106765000Y-80095553D01*
X106595554Y-80265000D01*
X101676746Y-80265000D01*
X101688072Y-80150000D01*
X101688072Y-78450000D01*
X101675812Y-78325518D01*
X101639502Y-78205820D01*
X101580537Y-78095506D01*
X101501185Y-77998815D01*
X101404494Y-77919463D01*
X101294180Y-77860498D01*
X101221620Y-77838487D01*
X101353475Y-77706632D01*
X101515990Y-77463411D01*
X101543058Y-77398061D01*
X101765000Y-77398061D01*
X101765000Y-77601939D01*
X101804774Y-77801898D01*
X101882795Y-77990256D01*
X101996063Y-78159774D01*
X102140226Y-78303937D01*
X102309744Y-78417205D01*
X102498102Y-78495226D01*
X102698061Y-78535000D01*
X102901939Y-78535000D01*
X103101898Y-78495226D01*
X103290256Y-78417205D01*
X103459774Y-78303937D01*
X103603937Y-78159774D01*
X103717205Y-77990256D01*
X103795226Y-77801898D01*
X103835000Y-77601939D01*
X103835000Y-77398061D01*
X103795226Y-77198102D01*
X103717205Y-77009744D01*
X103603937Y-76840226D01*
X103459774Y-76696063D01*
X103290256Y-76582795D01*
X103101898Y-76504774D01*
X102901939Y-76465000D01*
X102698061Y-76465000D01*
X102498102Y-76504774D01*
X102309744Y-76582795D01*
X102140226Y-76696063D01*
X101996063Y-76840226D01*
X101882795Y-77009744D01*
X101804774Y-77198102D01*
X101765000Y-77398061D01*
X101543058Y-77398061D01*
X101627932Y-77193158D01*
X101685000Y-76906260D01*
X101685000Y-76613740D01*
X101627932Y-76326842D01*
X101515990Y-76056589D01*
X101353475Y-75813368D01*
X101146632Y-75606525D01*
X100903411Y-75444010D01*
X100660000Y-75343186D01*
X100660000Y-74003711D01*
X100728937Y-73934774D01*
X100842205Y-73765256D01*
X100920226Y-73576898D01*
X100960000Y-73376939D01*
X100960000Y-73173061D01*
X100920226Y-72973102D01*
X100842205Y-72784744D01*
X100728937Y-72615226D01*
X100584774Y-72471063D01*
X100415256Y-72357795D01*
X100226898Y-72279774D01*
X100026939Y-72240000D01*
X99823061Y-72240000D01*
X99623102Y-72279774D01*
X99434744Y-72357795D01*
X99265226Y-72471063D01*
X99121063Y-72615226D01*
X99007795Y-72784744D01*
X98952000Y-72919444D01*
X98952000Y-70140097D01*
X99051898Y-70120226D01*
X99240256Y-70042205D01*
X99409774Y-69928937D01*
X99453711Y-69885000D01*
X101846289Y-69885000D01*
X101890226Y-69928937D01*
X102059744Y-70042205D01*
X102248102Y-70120226D01*
X102448061Y-70160000D01*
X102651939Y-70160000D01*
X102851898Y-70120226D01*
X103040256Y-70042205D01*
X103209774Y-69928937D01*
X103253711Y-69885000D01*
X103298662Y-69885000D01*
X103184010Y-70056589D01*
X103072068Y-70326842D01*
X103015000Y-70613740D01*
X103015000Y-70906260D01*
X103072068Y-71193158D01*
X103184010Y-71463411D01*
X103346525Y-71706632D01*
X103478380Y-71838487D01*
X103405820Y-71860498D01*
X103295506Y-71919463D01*
X103198815Y-71998815D01*
X103119463Y-72095506D01*
X103060498Y-72205820D01*
X103024188Y-72325518D01*
X103011928Y-72450000D01*
X103011928Y-74150000D01*
X103024188Y-74274482D01*
X103060498Y-74394180D01*
X103119463Y-74504494D01*
X103198815Y-74601185D01*
X103295506Y-74680537D01*
X103405820Y-74739502D01*
X103525518Y-74775812D01*
X103650000Y-74788072D01*
X104948626Y-74788072D01*
X105954746Y-75794193D01*
X105977762Y-75822238D01*
X106089680Y-75914087D01*
X106217367Y-75982337D01*
X106313886Y-76011616D01*
X106355914Y-76024365D01*
X106370132Y-76025765D01*
X106463895Y-76035000D01*
X106463902Y-76035000D01*
X106499999Y-76038555D01*
X106536096Y-76035000D01*
X112071289Y-76035000D01*
X112140226Y-76103937D01*
X112309744Y-76217205D01*
X112498102Y-76295226D01*
X112698061Y-76335000D01*
X112901939Y-76335000D01*
X113101898Y-76295226D01*
X113290256Y-76217205D01*
X113459774Y-76103937D01*
X113603937Y-75959774D01*
X113717205Y-75790256D01*
X113795226Y-75601898D01*
X113835000Y-75401939D01*
X113835000Y-75198061D01*
X113795226Y-74998102D01*
X113717205Y-74809744D01*
X113603937Y-74640226D01*
X113459774Y-74496063D01*
X113290256Y-74382795D01*
X113235000Y-74359907D01*
X113235000Y-74198061D01*
X113195226Y-73998102D01*
X113117205Y-73809744D01*
X113047867Y-73705972D01*
X113101899Y-73695225D01*
X113290257Y-73617204D01*
X113459775Y-73503936D01*
X113603938Y-73359773D01*
X113717206Y-73190255D01*
X113795227Y-73001897D01*
X113835001Y-72801938D01*
X113835001Y-72598060D01*
X113795227Y-72398101D01*
X113717206Y-72209743D01*
X113603938Y-72040225D01*
X113459775Y-71896062D01*
X113290257Y-71782794D01*
X113101899Y-71704773D01*
X112901940Y-71664999D01*
X112804447Y-71664999D01*
X112645260Y-71505812D01*
X112622240Y-71477762D01*
X112510322Y-71385913D01*
X112382635Y-71317663D01*
X112244087Y-71275635D01*
X112136107Y-71265000D01*
X112100002Y-71261444D01*
X112063897Y-71265000D01*
X110968942Y-71265000D01*
X111021481Y-71116891D01*
X110900814Y-70887000D01*
X109707000Y-70887000D01*
X109707000Y-70907000D01*
X109453000Y-70907000D01*
X109453000Y-70887000D01*
X109433000Y-70887000D01*
X109433000Y-70633000D01*
X109453000Y-70633000D01*
X109453000Y-70613000D01*
X109707000Y-70613000D01*
X109707000Y-70633000D01*
X110900814Y-70633000D01*
X111021481Y-70403109D01*
X110924157Y-70128748D01*
X110778963Y-69885000D01*
X111337678Y-69885000D01*
X111375000Y-69888676D01*
X111412322Y-69885000D01*
X111412333Y-69885000D01*
X111523986Y-69874003D01*
X111652564Y-69835000D01*
X111801939Y-69835000D01*
X112001898Y-69795226D01*
X112190256Y-69717205D01*
X112359774Y-69603937D01*
X112503937Y-69459774D01*
X112617205Y-69290256D01*
X112695226Y-69101898D01*
X112735000Y-68901939D01*
X112735000Y-68698061D01*
X112695226Y-68498102D01*
X112617205Y-68309744D01*
X112503937Y-68140226D01*
X112359774Y-67996063D01*
X112190256Y-67882795D01*
X112001898Y-67804774D01*
X111801939Y-67765000D01*
X111598061Y-67765000D01*
X111438588Y-67796721D01*
X111392205Y-67684744D01*
X111278937Y-67515226D01*
X111134774Y-67371063D01*
X110965256Y-67257795D01*
X110776898Y-67179774D01*
X110576939Y-67140000D01*
X110373061Y-67140000D01*
X110173102Y-67179774D01*
X109984744Y-67257795D01*
X109815226Y-67371063D01*
X109774961Y-67411328D01*
X109737678Y-67415000D01*
X102653711Y-67415000D01*
X102609774Y-67371063D01*
X102440256Y-67257795D01*
X102251898Y-67179774D01*
X102051939Y-67140000D01*
X101848061Y-67140000D01*
X101648102Y-67179774D01*
X101459744Y-67257795D01*
X101290226Y-67371063D01*
X101221289Y-67440000D01*
X99428711Y-67440000D01*
X99359774Y-67371063D01*
X99190256Y-67257795D01*
X99001898Y-67179774D01*
X98819108Y-67143415D01*
X97187162Y-65578842D01*
X97215256Y-65567205D01*
X97384774Y-65453937D01*
X97428711Y-65410000D01*
X109412317Y-65410000D01*
X109494176Y-65607624D01*
X109618388Y-65793520D01*
X109776480Y-65951612D01*
X109962376Y-66075824D01*
X110168933Y-66161383D01*
X110388212Y-66205000D01*
X110611788Y-66205000D01*
X110831067Y-66161383D01*
X111037624Y-66075824D01*
X111223520Y-65951612D01*
X111381612Y-65793520D01*
X111505824Y-65607624D01*
X111591383Y-65401067D01*
X111635000Y-65181788D01*
X111635000Y-64958212D01*
X111591383Y-64738933D01*
X111505824Y-64532376D01*
X111440759Y-64435000D01*
X111505824Y-64337624D01*
X111591383Y-64131067D01*
X111635000Y-63911788D01*
X111635000Y-63688212D01*
X111591383Y-63468933D01*
X111505824Y-63262376D01*
X111440759Y-63165000D01*
X111505824Y-63067624D01*
X111591383Y-62861067D01*
X111635000Y-62641788D01*
X111635000Y-62418212D01*
X111591383Y-62198933D01*
X111505824Y-61992376D01*
X111440759Y-61895000D01*
X111505824Y-61797624D01*
X111591383Y-61591067D01*
X111635000Y-61371788D01*
X111635000Y-61148212D01*
X111591383Y-60928933D01*
X111505824Y-60722376D01*
X111440759Y-60625000D01*
X111505824Y-60527624D01*
X111591383Y-60321067D01*
X111635000Y-60101788D01*
X111635000Y-59878212D01*
X111591383Y-59658933D01*
X111505824Y-59452376D01*
X111440759Y-59355000D01*
X111505824Y-59257624D01*
X111591383Y-59051067D01*
X111635000Y-58831788D01*
X111635000Y-58608212D01*
X111591383Y-58388933D01*
X111505824Y-58182376D01*
X111440759Y-58085000D01*
X111505824Y-57987624D01*
X111591383Y-57781067D01*
X111635000Y-57561788D01*
X111635000Y-57338212D01*
X111591383Y-57118933D01*
X111505824Y-56912376D01*
X111440759Y-56815000D01*
X111505824Y-56717624D01*
X111591383Y-56511067D01*
X111635000Y-56291788D01*
X111635000Y-56068212D01*
X111591383Y-55848933D01*
X111505824Y-55642376D01*
X111440759Y-55545000D01*
X111505824Y-55447624D01*
X111591383Y-55241067D01*
X111635000Y-55021788D01*
X111635000Y-54798212D01*
X111591383Y-54578933D01*
X111505824Y-54372376D01*
X111440759Y-54275000D01*
X111505824Y-54177624D01*
X111591383Y-53971067D01*
X111635000Y-53751788D01*
X111635000Y-53528212D01*
X111591383Y-53308933D01*
X111505824Y-53102376D01*
X111440759Y-53005000D01*
X111505824Y-52907624D01*
X111591383Y-52701067D01*
X111635000Y-52481788D01*
X111635000Y-52258212D01*
X111591383Y-52038933D01*
X111545112Y-51927226D01*
X111589502Y-51844180D01*
X111625812Y-51724482D01*
X111638072Y-51600000D01*
X111638072Y-50600000D01*
X111625812Y-50475518D01*
X111589502Y-50355820D01*
X111530537Y-50245506D01*
X111451185Y-50148815D01*
X111354494Y-50069463D01*
X111244180Y-50010498D01*
X111124482Y-49974188D01*
X111000000Y-49961928D01*
X110000000Y-49961928D01*
X109875518Y-49974188D01*
X109755820Y-50010498D01*
X109645506Y-50069463D01*
X109548815Y-50148815D01*
X109469463Y-50245506D01*
X109410498Y-50355820D01*
X109407713Y-50365000D01*
X108004447Y-50365000D01*
X107445258Y-49805812D01*
X107422238Y-49777762D01*
X107310320Y-49685913D01*
X107182633Y-49617663D01*
X107044085Y-49575635D01*
X106936105Y-49565000D01*
X106900000Y-49561444D01*
X106863895Y-49565000D01*
X101704447Y-49565000D01*
X101035000Y-48895554D01*
X101035000Y-48798061D01*
X100995226Y-48598102D01*
X100917205Y-48409744D01*
X100803937Y-48240226D01*
X100659774Y-48096063D01*
X100490256Y-47982795D01*
X100301898Y-47904774D01*
X100101939Y-47865000D01*
X99898061Y-47865000D01*
X99698102Y-47904774D01*
X99509744Y-47982795D01*
X99340226Y-48096063D01*
X99250000Y-48186289D01*
X99159774Y-48096063D01*
X98990256Y-47982795D01*
X98801898Y-47904774D01*
X98601939Y-47865000D01*
X98398061Y-47865000D01*
X98198102Y-47904774D01*
X98009744Y-47982795D01*
X97840226Y-48096063D01*
X97700000Y-48236289D01*
X97659774Y-48196063D01*
X97490256Y-48082795D01*
X97301898Y-48004774D01*
X97101939Y-47965000D01*
X96898061Y-47965000D01*
X96698102Y-48004774D01*
X96509744Y-48082795D01*
X96340226Y-48196063D01*
X96196063Y-48340226D01*
X96082795Y-48509744D01*
X96004774Y-48698102D01*
X95965000Y-48898061D01*
X95965000Y-49101939D01*
X96004774Y-49301898D01*
X96082795Y-49490256D01*
X96196063Y-49659774D01*
X96340226Y-49803937D01*
X96509744Y-49917205D01*
X96698102Y-49995226D01*
X96898061Y-50035000D01*
X97101939Y-50035000D01*
X97301898Y-49995226D01*
X97490256Y-49917205D01*
X97659774Y-49803937D01*
X97800000Y-49663711D01*
X97840226Y-49703937D01*
X98009744Y-49817205D01*
X98198102Y-49895226D01*
X98398061Y-49935000D01*
X98495554Y-49935000D01*
X99110179Y-50549626D01*
X99001898Y-50504774D01*
X98801939Y-50465000D01*
X98598061Y-50465000D01*
X98398102Y-50504774D01*
X98209744Y-50582795D01*
X98040226Y-50696063D01*
X97996289Y-50740000D01*
X95678433Y-50740000D01*
X95710724Y-50577663D01*
X95710724Y-50373785D01*
X95670950Y-50173826D01*
X95592929Y-49985468D01*
X95479661Y-49815950D01*
X95335498Y-49671787D01*
X95165980Y-49558519D01*
X94977622Y-49480498D01*
X94777663Y-49440724D01*
X94573785Y-49440724D01*
X94373826Y-49480498D01*
X94185468Y-49558519D01*
X94015950Y-49671787D01*
X93871787Y-49815950D01*
X93758519Y-49985468D01*
X93680498Y-50173826D01*
X93640724Y-50373785D01*
X93640724Y-50577663D01*
X93680498Y-50777622D01*
X93758519Y-50965980D01*
X93871787Y-51135498D01*
X94015950Y-51279661D01*
X94185468Y-51392929D01*
X94289272Y-51435926D01*
X85552199Y-60173000D01*
X79000000Y-60173000D01*
X78975224Y-60175440D01*
X78951399Y-60182667D01*
X78929443Y-60194403D01*
X78910197Y-60210197D01*
X78894403Y-60229443D01*
X78882667Y-60251399D01*
X78875440Y-60275224D01*
X78873000Y-60300000D01*
X78873000Y-73500000D01*
X78875440Y-73524776D01*
X78882667Y-73548601D01*
X78894403Y-73570557D01*
X78910197Y-73589803D01*
X80310197Y-74989803D01*
X80329443Y-75005597D01*
X80351399Y-75017333D01*
X80375224Y-75024560D01*
X80400000Y-75027000D01*
X88300000Y-75027000D01*
X88324776Y-75024560D01*
X88348601Y-75017333D01*
X88370557Y-75005597D01*
X88389803Y-74989803D01*
X88405597Y-74970557D01*
X88417333Y-74948601D01*
X88424560Y-74924776D01*
X88427000Y-74900000D01*
X88427000Y-72925000D01*
X88636928Y-72925000D01*
X88649188Y-73049482D01*
X88685498Y-73169180D01*
X88744463Y-73279494D01*
X88823815Y-73376185D01*
X88920506Y-73455537D01*
X89030820Y-73514502D01*
X89150518Y-73550812D01*
X89275000Y-73563072D01*
X89414250Y-73560000D01*
X89573000Y-73401250D01*
X89573000Y-72627000D01*
X89827000Y-72627000D01*
X89827000Y-73401250D01*
X89985750Y-73560000D01*
X90125000Y-73563072D01*
X90249482Y-73550812D01*
X90369180Y-73514502D01*
X90479494Y-73455537D01*
X90576185Y-73376185D01*
X90655537Y-73279494D01*
X90714502Y-73169180D01*
X90750812Y-73049482D01*
X90763072Y-72925000D01*
X90760000Y-72785750D01*
X90601250Y-72627000D01*
X89827000Y-72627000D01*
X89573000Y-72627000D01*
X88798750Y-72627000D01*
X88640000Y-72785750D01*
X88636928Y-72925000D01*
X88427000Y-72925000D01*
X88427000Y-72075000D01*
X88636928Y-72075000D01*
X88640000Y-72214250D01*
X88798750Y-72373000D01*
X89573000Y-72373000D01*
X89573000Y-71598750D01*
X89827000Y-71598750D01*
X89827000Y-72373000D01*
X90601250Y-72373000D01*
X90760000Y-72214250D01*
X90763072Y-72075000D01*
X90750812Y-71950518D01*
X90714502Y-71830820D01*
X90655537Y-71720506D01*
X90576185Y-71623815D01*
X90479494Y-71544463D01*
X90369180Y-71485498D01*
X90249482Y-71449188D01*
X90125000Y-71436928D01*
X89985750Y-71440000D01*
X89827000Y-71598750D01*
X89573000Y-71598750D01*
X89414250Y-71440000D01*
X89275000Y-71436928D01*
X89150518Y-71449188D01*
X89030820Y-71485498D01*
X88920506Y-71544463D01*
X88823815Y-71623815D01*
X88744463Y-71720506D01*
X88685498Y-71830820D01*
X88649188Y-71950518D01*
X88636928Y-72075000D01*
X88427000Y-72075000D01*
X88427000Y-69752999D01*
X90686854Y-67516932D01*
X91063887Y-67796667D01*
X90905806Y-67954748D01*
X90877761Y-67977764D01*
X90785912Y-68089682D01*
X90722779Y-68207795D01*
X90717662Y-68217369D01*
X90675633Y-68355917D01*
X90661442Y-68500002D01*
X90664999Y-68536116D01*
X90664998Y-69413892D01*
X90661442Y-69449998D01*
X90675633Y-69594083D01*
X90682056Y-69615256D01*
X90717661Y-69732630D01*
X90785911Y-69860317D01*
X90865000Y-69956687D01*
X90865000Y-70051939D01*
X90904774Y-70251898D01*
X90982795Y-70440256D01*
X91096063Y-70609774D01*
X91240226Y-70753937D01*
X91317181Y-70805356D01*
X91307831Y-75433709D01*
X91183158Y-75382068D01*
X90896260Y-75325000D01*
X90603740Y-75325000D01*
X90316842Y-75382068D01*
X90046589Y-75494010D01*
X89803368Y-75656525D01*
X89596525Y-75863368D01*
X89434010Y-76106589D01*
X89322068Y-76376842D01*
X89265000Y-76663740D01*
X89265000Y-76956260D01*
X89322068Y-77243158D01*
X89434010Y-77513411D01*
X89596525Y-77756632D01*
X89728380Y-77888487D01*
X89655820Y-77910498D01*
X89545506Y-77969463D01*
X89448815Y-78048815D01*
X89369463Y-78145506D01*
X89310498Y-78255820D01*
X89274188Y-78375518D01*
X89261928Y-78500000D01*
X89261928Y-80200000D01*
X89268330Y-80265000D01*
X87528711Y-80265000D01*
X87459774Y-80196063D01*
X87290256Y-80082795D01*
X87101898Y-80004774D01*
X86901939Y-79965000D01*
X86698061Y-79965000D01*
X86498102Y-80004774D01*
X86309744Y-80082795D01*
X86140226Y-80196063D01*
X85996063Y-80340226D01*
X85882795Y-80509744D01*
X85804774Y-80698102D01*
X85765000Y-80898061D01*
X85765000Y-81101939D01*
X85804774Y-81301898D01*
X85820556Y-81340000D01*
X80029392Y-81340000D01*
X79231917Y-81268827D01*
X78488110Y-81065344D01*
X77792096Y-80733363D01*
X77165870Y-80283374D01*
X76629223Y-79729597D01*
X76199129Y-79089549D01*
X75889171Y-78383447D01*
X75876128Y-78329117D01*
X76765000Y-78329117D01*
X76765000Y-78670883D01*
X76831675Y-79006081D01*
X76962463Y-79321831D01*
X77152337Y-79605998D01*
X77394002Y-79847663D01*
X77678169Y-80037537D01*
X77993919Y-80168325D01*
X78329117Y-80235000D01*
X78670883Y-80235000D01*
X79006081Y-80168325D01*
X79321831Y-80037537D01*
X79605998Y-79847663D01*
X79847663Y-79605998D01*
X80037537Y-79321831D01*
X80109510Y-79148071D01*
X83327357Y-79148071D01*
X83327357Y-79351949D01*
X83367131Y-79551908D01*
X83445152Y-79740266D01*
X83558420Y-79909784D01*
X83702583Y-80053947D01*
X83872101Y-80167215D01*
X84060459Y-80245236D01*
X84260418Y-80285010D01*
X84464296Y-80285010D01*
X84664255Y-80245236D01*
X84852613Y-80167215D01*
X85022131Y-80053947D01*
X85166294Y-79909784D01*
X85279562Y-79740266D01*
X85357583Y-79551908D01*
X85397357Y-79351949D01*
X85397357Y-79148071D01*
X85357583Y-78948112D01*
X85279562Y-78759754D01*
X85166294Y-78590236D01*
X85022131Y-78446073D01*
X84852613Y-78332805D01*
X84664255Y-78254784D01*
X84464296Y-78215010D01*
X84260418Y-78215010D01*
X84060459Y-78254784D01*
X83872101Y-78332805D01*
X83702583Y-78446073D01*
X83558420Y-78590236D01*
X83445152Y-78759754D01*
X83367131Y-78948112D01*
X83327357Y-79148071D01*
X80109510Y-79148071D01*
X80168325Y-79006081D01*
X80235000Y-78670883D01*
X80235000Y-78329117D01*
X80168325Y-77993919D01*
X80037537Y-77678169D01*
X79847663Y-77394002D01*
X79605998Y-77152337D01*
X79321831Y-76962463D01*
X79006081Y-76831675D01*
X78670883Y-76765000D01*
X78329117Y-76765000D01*
X77993919Y-76831675D01*
X77678169Y-76962463D01*
X77394002Y-77152337D01*
X77152337Y-77394002D01*
X76962463Y-77678169D01*
X76831675Y-77993919D01*
X76765000Y-78329117D01*
X75876128Y-78329117D01*
X75707935Y-77628543D01*
X75660000Y-76975793D01*
X75660000Y-57335224D01*
X75682795Y-57390256D01*
X75796063Y-57559774D01*
X75940226Y-57703937D01*
X76109744Y-57817205D01*
X76298102Y-57895226D01*
X76498061Y-57935000D01*
X76701939Y-57935000D01*
X76901898Y-57895226D01*
X77090256Y-57817205D01*
X77259774Y-57703937D01*
X77403937Y-57559774D01*
X77517205Y-57390256D01*
X77595226Y-57201898D01*
X77635000Y-57001939D01*
X77635000Y-56798061D01*
X77595226Y-56598102D01*
X77517205Y-56409744D01*
X77403937Y-56240226D01*
X77259774Y-56096063D01*
X77090256Y-55982795D01*
X76901898Y-55904774D01*
X76701939Y-55865000D01*
X76498061Y-55865000D01*
X76298102Y-55904774D01*
X76109744Y-55982795D01*
X75940226Y-56096063D01*
X75796063Y-56240226D01*
X75682795Y-56409744D01*
X75660000Y-56464776D01*
X75660000Y-54798061D01*
X81065000Y-54798061D01*
X81065000Y-55001939D01*
X81104774Y-55201898D01*
X81182795Y-55390256D01*
X81296063Y-55559774D01*
X81440226Y-55703937D01*
X81609744Y-55817205D01*
X81798102Y-55895226D01*
X81998061Y-55935000D01*
X82201939Y-55935000D01*
X82401898Y-55895226D01*
X82590256Y-55817205D01*
X82759774Y-55703937D01*
X82903937Y-55559774D01*
X83017205Y-55390256D01*
X83095226Y-55201898D01*
X83135000Y-55001939D01*
X83135000Y-54798061D01*
X83095226Y-54598102D01*
X83017205Y-54409744D01*
X82903937Y-54240226D01*
X82759774Y-54096063D01*
X82590256Y-53982795D01*
X82401898Y-53904774D01*
X82201939Y-53865000D01*
X81998061Y-53865000D01*
X81798102Y-53904774D01*
X81609744Y-53982795D01*
X81440226Y-54096063D01*
X81296063Y-54240226D01*
X81182795Y-54409744D01*
X81104774Y-54598102D01*
X81065000Y-54798061D01*
X75660000Y-54798061D01*
X75660000Y-53725000D01*
X75936928Y-53725000D01*
X75949188Y-53849482D01*
X75985498Y-53969180D01*
X76044463Y-54079494D01*
X76123815Y-54176185D01*
X76220506Y-54255537D01*
X76330820Y-54314502D01*
X76450518Y-54350812D01*
X76575000Y-54363072D01*
X76714250Y-54360000D01*
X76873000Y-54201250D01*
X76873000Y-53427000D01*
X77127000Y-53427000D01*
X77127000Y-54201250D01*
X77285750Y-54360000D01*
X77425000Y-54363072D01*
X77549482Y-54350812D01*
X77669180Y-54314502D01*
X77779494Y-54255537D01*
X77876185Y-54176185D01*
X77955537Y-54079494D01*
X78014502Y-53969180D01*
X78050812Y-53849482D01*
X78063072Y-53725000D01*
X78060000Y-53585750D01*
X77901250Y-53427000D01*
X77127000Y-53427000D01*
X76873000Y-53427000D01*
X76098750Y-53427000D01*
X75940000Y-53585750D01*
X75936928Y-53725000D01*
X75660000Y-53725000D01*
X75660000Y-52875000D01*
X75936928Y-52875000D01*
X75940000Y-53014250D01*
X76098750Y-53173000D01*
X76873000Y-53173000D01*
X76873000Y-52398750D01*
X77127000Y-52398750D01*
X77127000Y-53173000D01*
X77901250Y-53173000D01*
X78060000Y-53014250D01*
X78063072Y-52875000D01*
X78050812Y-52750518D01*
X78014502Y-52630820D01*
X77955537Y-52520506D01*
X77876185Y-52423815D01*
X77844804Y-52398061D01*
X79965000Y-52398061D01*
X79965000Y-52601939D01*
X80004774Y-52801898D01*
X80082795Y-52990256D01*
X80196063Y-53159774D01*
X80340226Y-53303937D01*
X80509744Y-53417205D01*
X80698102Y-53495226D01*
X80898061Y-53535000D01*
X81101939Y-53535000D01*
X81301898Y-53495226D01*
X81490256Y-53417205D01*
X81659774Y-53303937D01*
X81803937Y-53159774D01*
X81917205Y-52990256D01*
X81995226Y-52801898D01*
X82028424Y-52635000D01*
X87571289Y-52635000D01*
X87640226Y-52703937D01*
X87809744Y-52817205D01*
X87998102Y-52895226D01*
X88198061Y-52935000D01*
X88401939Y-52935000D01*
X88601898Y-52895226D01*
X88790256Y-52817205D01*
X88959774Y-52703937D01*
X89103937Y-52559774D01*
X89217205Y-52390256D01*
X89295226Y-52201898D01*
X89335000Y-52001939D01*
X89335000Y-51798061D01*
X89295226Y-51598102D01*
X89217205Y-51409744D01*
X89103937Y-51240226D01*
X88959774Y-51096063D01*
X88790256Y-50982795D01*
X88601898Y-50904774D01*
X88401939Y-50865000D01*
X88198061Y-50865000D01*
X87998102Y-50904774D01*
X87809744Y-50982795D01*
X87640226Y-51096063D01*
X87571289Y-51165000D01*
X84669088Y-51165000D01*
X84695226Y-51101898D01*
X84735000Y-50901939D01*
X84735000Y-50698061D01*
X84695226Y-50498102D01*
X84617205Y-50309744D01*
X84503937Y-50140226D01*
X84359774Y-49996063D01*
X84190256Y-49882795D01*
X84001898Y-49804774D01*
X83801939Y-49765000D01*
X83598061Y-49765000D01*
X83398102Y-49804774D01*
X83209744Y-49882795D01*
X83040226Y-49996063D01*
X82896063Y-50140226D01*
X82782795Y-50309744D01*
X82704774Y-50498102D01*
X82665000Y-50698061D01*
X82665000Y-50901939D01*
X82704774Y-51101898D01*
X82730912Y-51165000D01*
X81636096Y-51165000D01*
X81599999Y-51161445D01*
X81563902Y-51165000D01*
X81563895Y-51165000D01*
X81470132Y-51174235D01*
X81455914Y-51175635D01*
X81413886Y-51188384D01*
X81317367Y-51217663D01*
X81189680Y-51285913D01*
X81077762Y-51377762D01*
X81054746Y-51405807D01*
X80995553Y-51465000D01*
X80898061Y-51465000D01*
X80698102Y-51504774D01*
X80509744Y-51582795D01*
X80340226Y-51696063D01*
X80196063Y-51840226D01*
X80082795Y-52009744D01*
X80004774Y-52198102D01*
X79965000Y-52398061D01*
X77844804Y-52398061D01*
X77779494Y-52344463D01*
X77669180Y-52285498D01*
X77549482Y-52249188D01*
X77425000Y-52236928D01*
X77285750Y-52240000D01*
X77127000Y-52398750D01*
X76873000Y-52398750D01*
X76714250Y-52240000D01*
X76575000Y-52236928D01*
X76450518Y-52249188D01*
X76330820Y-52285498D01*
X76220506Y-52344463D01*
X76123815Y-52423815D01*
X76044463Y-52520506D01*
X75985498Y-52630820D01*
X75949188Y-52750518D01*
X75936928Y-52875000D01*
X75660000Y-52875000D01*
X75660000Y-48198061D01*
X93865000Y-48198061D01*
X93865000Y-48401939D01*
X93904774Y-48601898D01*
X93982795Y-48790256D01*
X94096063Y-48959774D01*
X94240226Y-49103937D01*
X94409744Y-49217205D01*
X94598102Y-49295226D01*
X94798061Y-49335000D01*
X95001939Y-49335000D01*
X95201898Y-49295226D01*
X95390256Y-49217205D01*
X95559774Y-49103937D01*
X95703937Y-48959774D01*
X95817205Y-48790256D01*
X95895226Y-48601898D01*
X95935000Y-48401939D01*
X95935000Y-48198061D01*
X95895226Y-47998102D01*
X95817205Y-47809744D01*
X95703937Y-47640226D01*
X95559774Y-47496063D01*
X95390256Y-47382795D01*
X95201898Y-47304774D01*
X95001939Y-47265000D01*
X94798061Y-47265000D01*
X94598102Y-47304774D01*
X94409744Y-47382795D01*
X94240226Y-47496063D01*
X94096063Y-47640226D01*
X93982795Y-47809744D01*
X93904774Y-47998102D01*
X93865000Y-48198061D01*
X75660000Y-48198061D01*
X75660000Y-47029392D01*
X75695913Y-46627000D01*
X94926420Y-46627000D01*
X94948575Y-46668450D01*
%TA.AperFunction,Conductor*%
D21*
G36*
X94948575Y-46668450D02*
G01*
X95031052Y-46768948D01*
X95131550Y-46851425D01*
X95246207Y-46912710D01*
X95370617Y-46950450D01*
X95467581Y-46960000D01*
X95500000Y-46963193D01*
X95532419Y-46960000D01*
X105667581Y-46960000D01*
X105700000Y-46963193D01*
X105732419Y-46960000D01*
X105829383Y-46950450D01*
X105953793Y-46912710D01*
X106068450Y-46851425D01*
X106168948Y-46768948D01*
X106251425Y-46668450D01*
X106273580Y-46627000D01*
X109015945Y-46627000D01*
X109031675Y-46706081D01*
X109162463Y-47021831D01*
X109352337Y-47305998D01*
X109594002Y-47547663D01*
X109878169Y-47737537D01*
X110193919Y-47868325D01*
X110529117Y-47935000D01*
X110870883Y-47935000D01*
X111206081Y-47868325D01*
X111521831Y-47737537D01*
X111805998Y-47547663D01*
X112047663Y-47305998D01*
X112237537Y-47021831D01*
X112368325Y-46706081D01*
X112384055Y-46627000D01*
X114310831Y-46627000D01*
X114340000Y-47024207D01*
X114340001Y-80726618D01*
X113726620Y-81340000D01*
X107599446Y-81340000D01*
X107994197Y-80945250D01*
X108022237Y-80922238D01*
X108045250Y-80894197D01*
X108045253Y-80894194D01*
X108103708Y-80822967D01*
X108114087Y-80810320D01*
X108182337Y-80682633D01*
X108211616Y-80586114D01*
X108224365Y-80544086D01*
X108228264Y-80504494D01*
X108235000Y-80436105D01*
X108235000Y-80436098D01*
X108238555Y-80400001D01*
X108235000Y-80363904D01*
X108235000Y-78329117D01*
X109765000Y-78329117D01*
X109765000Y-78670883D01*
X109831675Y-79006081D01*
X109962463Y-79321831D01*
X110152337Y-79605998D01*
X110394002Y-79847663D01*
X110678169Y-80037537D01*
X110993919Y-80168325D01*
X111329117Y-80235000D01*
X111670883Y-80235000D01*
X112006081Y-80168325D01*
X112321831Y-80037537D01*
X112605998Y-79847663D01*
X112847663Y-79605998D01*
X113037537Y-79321831D01*
X113168325Y-79006081D01*
X113235000Y-78670883D01*
X113235000Y-78329117D01*
X113168325Y-77993919D01*
X113037537Y-77678169D01*
X112847663Y-77394002D01*
X112605998Y-77152337D01*
X112321831Y-76962463D01*
X112006081Y-76831675D01*
X111670883Y-76765000D01*
X111329117Y-76765000D01*
X110993919Y-76831675D01*
X110678169Y-76962463D01*
X110394002Y-77152337D01*
X110152337Y-77394002D01*
X109962463Y-77678169D01*
X109831675Y-77993919D01*
X109765000Y-78329117D01*
X108235000Y-78329117D01*
X108235000Y-77953711D01*
X108303937Y-77884774D01*
X108417205Y-77715256D01*
X108495226Y-77526898D01*
X108535000Y-77326939D01*
X108535000Y-77123061D01*
X108495226Y-76923102D01*
X108417205Y-76734744D01*
X108303937Y-76565226D01*
X108159774Y-76421063D01*
X107990256Y-76307795D01*
X107801898Y-76229774D01*
X107601939Y-76190000D01*
X107398061Y-76190000D01*
X107198102Y-76229774D01*
X107009744Y-76307795D01*
X106840226Y-76421063D01*
X106696063Y-76565226D01*
X106582795Y-76734744D01*
X106504774Y-76923102D01*
X106465000Y-77123061D01*
X106465000Y-77326939D01*
X106504774Y-77526898D01*
X106582795Y-77715256D01*
X106696063Y-77884774D01*
X106765001Y-77953712D01*
X106765000Y-78936104D01*
X106765001Y-78936114D01*
X106765000Y-80095553D01*
X106595554Y-80265000D01*
X101676746Y-80265000D01*
X101688072Y-80150000D01*
X101688072Y-78450000D01*
X101675812Y-78325518D01*
X101639502Y-78205820D01*
X101580537Y-78095506D01*
X101501185Y-77998815D01*
X101404494Y-77919463D01*
X101294180Y-77860498D01*
X101221620Y-77838487D01*
X101353475Y-77706632D01*
X101515990Y-77463411D01*
X101543058Y-77398061D01*
X101765000Y-77398061D01*
X101765000Y-77601939D01*
X101804774Y-77801898D01*
X101882795Y-77990256D01*
X101996063Y-78159774D01*
X102140226Y-78303937D01*
X102309744Y-78417205D01*
X102498102Y-78495226D01*
X102698061Y-78535000D01*
X102901939Y-78535000D01*
X103101898Y-78495226D01*
X103290256Y-78417205D01*
X103459774Y-78303937D01*
X103603937Y-78159774D01*
X103717205Y-77990256D01*
X103795226Y-77801898D01*
X103835000Y-77601939D01*
X103835000Y-77398061D01*
X103795226Y-77198102D01*
X103717205Y-77009744D01*
X103603937Y-76840226D01*
X103459774Y-76696063D01*
X103290256Y-76582795D01*
X103101898Y-76504774D01*
X102901939Y-76465000D01*
X102698061Y-76465000D01*
X102498102Y-76504774D01*
X102309744Y-76582795D01*
X102140226Y-76696063D01*
X101996063Y-76840226D01*
X101882795Y-77009744D01*
X101804774Y-77198102D01*
X101765000Y-77398061D01*
X101543058Y-77398061D01*
X101627932Y-77193158D01*
X101685000Y-76906260D01*
X101685000Y-76613740D01*
X101627932Y-76326842D01*
X101515990Y-76056589D01*
X101353475Y-75813368D01*
X101146632Y-75606525D01*
X100903411Y-75444010D01*
X100660000Y-75343186D01*
X100660000Y-74003711D01*
X100728937Y-73934774D01*
X100842205Y-73765256D01*
X100920226Y-73576898D01*
X100960000Y-73376939D01*
X100960000Y-73173061D01*
X100920226Y-72973102D01*
X100842205Y-72784744D01*
X100728937Y-72615226D01*
X100584774Y-72471063D01*
X100415256Y-72357795D01*
X100226898Y-72279774D01*
X100026939Y-72240000D01*
X99823061Y-72240000D01*
X99623102Y-72279774D01*
X99434744Y-72357795D01*
X99265226Y-72471063D01*
X99121063Y-72615226D01*
X99007795Y-72784744D01*
X98952000Y-72919444D01*
X98952000Y-70140097D01*
X99051898Y-70120226D01*
X99240256Y-70042205D01*
X99409774Y-69928937D01*
X99453711Y-69885000D01*
X101846289Y-69885000D01*
X101890226Y-69928937D01*
X102059744Y-70042205D01*
X102248102Y-70120226D01*
X102448061Y-70160000D01*
X102651939Y-70160000D01*
X102851898Y-70120226D01*
X103040256Y-70042205D01*
X103209774Y-69928937D01*
X103253711Y-69885000D01*
X103298662Y-69885000D01*
X103184010Y-70056589D01*
X103072068Y-70326842D01*
X103015000Y-70613740D01*
X103015000Y-70906260D01*
X103072068Y-71193158D01*
X103184010Y-71463411D01*
X103346525Y-71706632D01*
X103478380Y-71838487D01*
X103405820Y-71860498D01*
X103295506Y-71919463D01*
X103198815Y-71998815D01*
X103119463Y-72095506D01*
X103060498Y-72205820D01*
X103024188Y-72325518D01*
X103011928Y-72450000D01*
X103011928Y-74150000D01*
X103024188Y-74274482D01*
X103060498Y-74394180D01*
X103119463Y-74504494D01*
X103198815Y-74601185D01*
X103295506Y-74680537D01*
X103405820Y-74739502D01*
X103525518Y-74775812D01*
X103650000Y-74788072D01*
X104948626Y-74788072D01*
X105954746Y-75794193D01*
X105977762Y-75822238D01*
X106089680Y-75914087D01*
X106217367Y-75982337D01*
X106313886Y-76011616D01*
X106355914Y-76024365D01*
X106370132Y-76025765D01*
X106463895Y-76035000D01*
X106463902Y-76035000D01*
X106499999Y-76038555D01*
X106536096Y-76035000D01*
X112071289Y-76035000D01*
X112140226Y-76103937D01*
X112309744Y-76217205D01*
X112498102Y-76295226D01*
X112698061Y-76335000D01*
X112901939Y-76335000D01*
X113101898Y-76295226D01*
X113290256Y-76217205D01*
X113459774Y-76103937D01*
X113603937Y-75959774D01*
X113717205Y-75790256D01*
X113795226Y-75601898D01*
X113835000Y-75401939D01*
X113835000Y-75198061D01*
X113795226Y-74998102D01*
X113717205Y-74809744D01*
X113603937Y-74640226D01*
X113459774Y-74496063D01*
X113290256Y-74382795D01*
X113235000Y-74359907D01*
X113235000Y-74198061D01*
X113195226Y-73998102D01*
X113117205Y-73809744D01*
X113047867Y-73705972D01*
X113101899Y-73695225D01*
X113290257Y-73617204D01*
X113459775Y-73503936D01*
X113603938Y-73359773D01*
X113717206Y-73190255D01*
X113795227Y-73001897D01*
X113835001Y-72801938D01*
X113835001Y-72598060D01*
X113795227Y-72398101D01*
X113717206Y-72209743D01*
X113603938Y-72040225D01*
X113459775Y-71896062D01*
X113290257Y-71782794D01*
X113101899Y-71704773D01*
X112901940Y-71664999D01*
X112804447Y-71664999D01*
X112645260Y-71505812D01*
X112622240Y-71477762D01*
X112510322Y-71385913D01*
X112382635Y-71317663D01*
X112244087Y-71275635D01*
X112136107Y-71265000D01*
X112100002Y-71261444D01*
X112063897Y-71265000D01*
X110968942Y-71265000D01*
X111021481Y-71116891D01*
X110900814Y-70887000D01*
X109707000Y-70887000D01*
X109707000Y-70907000D01*
X109453000Y-70907000D01*
X109453000Y-70887000D01*
X109433000Y-70887000D01*
X109433000Y-70633000D01*
X109453000Y-70633000D01*
X109453000Y-70613000D01*
X109707000Y-70613000D01*
X109707000Y-70633000D01*
X110900814Y-70633000D01*
X111021481Y-70403109D01*
X110924157Y-70128748D01*
X110778963Y-69885000D01*
X111337678Y-69885000D01*
X111375000Y-69888676D01*
X111412322Y-69885000D01*
X111412333Y-69885000D01*
X111523986Y-69874003D01*
X111652564Y-69835000D01*
X111801939Y-69835000D01*
X112001898Y-69795226D01*
X112190256Y-69717205D01*
X112359774Y-69603937D01*
X112503937Y-69459774D01*
X112617205Y-69290256D01*
X112695226Y-69101898D01*
X112735000Y-68901939D01*
X112735000Y-68698061D01*
X112695226Y-68498102D01*
X112617205Y-68309744D01*
X112503937Y-68140226D01*
X112359774Y-67996063D01*
X112190256Y-67882795D01*
X112001898Y-67804774D01*
X111801939Y-67765000D01*
X111598061Y-67765000D01*
X111438588Y-67796721D01*
X111392205Y-67684744D01*
X111278937Y-67515226D01*
X111134774Y-67371063D01*
X110965256Y-67257795D01*
X110776898Y-67179774D01*
X110576939Y-67140000D01*
X110373061Y-67140000D01*
X110173102Y-67179774D01*
X109984744Y-67257795D01*
X109815226Y-67371063D01*
X109774961Y-67411328D01*
X109737678Y-67415000D01*
X102653711Y-67415000D01*
X102609774Y-67371063D01*
X102440256Y-67257795D01*
X102251898Y-67179774D01*
X102051939Y-67140000D01*
X101848061Y-67140000D01*
X101648102Y-67179774D01*
X101459744Y-67257795D01*
X101290226Y-67371063D01*
X101221289Y-67440000D01*
X99428711Y-67440000D01*
X99359774Y-67371063D01*
X99190256Y-67257795D01*
X99001898Y-67179774D01*
X98819108Y-67143415D01*
X97187162Y-65578842D01*
X97215256Y-65567205D01*
X97384774Y-65453937D01*
X97428711Y-65410000D01*
X109412317Y-65410000D01*
X109494176Y-65607624D01*
X109618388Y-65793520D01*
X109776480Y-65951612D01*
X109962376Y-66075824D01*
X110168933Y-66161383D01*
X110388212Y-66205000D01*
X110611788Y-66205000D01*
X110831067Y-66161383D01*
X111037624Y-66075824D01*
X111223520Y-65951612D01*
X111381612Y-65793520D01*
X111505824Y-65607624D01*
X111591383Y-65401067D01*
X111635000Y-65181788D01*
X111635000Y-64958212D01*
X111591383Y-64738933D01*
X111505824Y-64532376D01*
X111440759Y-64435000D01*
X111505824Y-64337624D01*
X111591383Y-64131067D01*
X111635000Y-63911788D01*
X111635000Y-63688212D01*
X111591383Y-63468933D01*
X111505824Y-63262376D01*
X111440759Y-63165000D01*
X111505824Y-63067624D01*
X111591383Y-62861067D01*
X111635000Y-62641788D01*
X111635000Y-62418212D01*
X111591383Y-62198933D01*
X111505824Y-61992376D01*
X111440759Y-61895000D01*
X111505824Y-61797624D01*
X111591383Y-61591067D01*
X111635000Y-61371788D01*
X111635000Y-61148212D01*
X111591383Y-60928933D01*
X111505824Y-60722376D01*
X111440759Y-60625000D01*
X111505824Y-60527624D01*
X111591383Y-60321067D01*
X111635000Y-60101788D01*
X111635000Y-59878212D01*
X111591383Y-59658933D01*
X111505824Y-59452376D01*
X111440759Y-59355000D01*
X111505824Y-59257624D01*
X111591383Y-59051067D01*
X111635000Y-58831788D01*
X111635000Y-58608212D01*
X111591383Y-58388933D01*
X111505824Y-58182376D01*
X111440759Y-58085000D01*
X111505824Y-57987624D01*
X111591383Y-57781067D01*
X111635000Y-57561788D01*
X111635000Y-57338212D01*
X111591383Y-57118933D01*
X111505824Y-56912376D01*
X111440759Y-56815000D01*
X111505824Y-56717624D01*
X111591383Y-56511067D01*
X111635000Y-56291788D01*
X111635000Y-56068212D01*
X111591383Y-55848933D01*
X111505824Y-55642376D01*
X111440759Y-55545000D01*
X111505824Y-55447624D01*
X111591383Y-55241067D01*
X111635000Y-55021788D01*
X111635000Y-54798212D01*
X111591383Y-54578933D01*
X111505824Y-54372376D01*
X111440759Y-54275000D01*
X111505824Y-54177624D01*
X111591383Y-53971067D01*
X111635000Y-53751788D01*
X111635000Y-53528212D01*
X111591383Y-53308933D01*
X111505824Y-53102376D01*
X111440759Y-53005000D01*
X111505824Y-52907624D01*
X111591383Y-52701067D01*
X111635000Y-52481788D01*
X111635000Y-52258212D01*
X111591383Y-52038933D01*
X111545112Y-51927226D01*
X111589502Y-51844180D01*
X111625812Y-51724482D01*
X111638072Y-51600000D01*
X111638072Y-50600000D01*
X111625812Y-50475518D01*
X111589502Y-50355820D01*
X111530537Y-50245506D01*
X111451185Y-50148815D01*
X111354494Y-50069463D01*
X111244180Y-50010498D01*
X111124482Y-49974188D01*
X111000000Y-49961928D01*
X110000000Y-49961928D01*
X109875518Y-49974188D01*
X109755820Y-50010498D01*
X109645506Y-50069463D01*
X109548815Y-50148815D01*
X109469463Y-50245506D01*
X109410498Y-50355820D01*
X109407713Y-50365000D01*
X108004447Y-50365000D01*
X107445258Y-49805812D01*
X107422238Y-49777762D01*
X107310320Y-49685913D01*
X107182633Y-49617663D01*
X107044085Y-49575635D01*
X106936105Y-49565000D01*
X106900000Y-49561444D01*
X106863895Y-49565000D01*
X101704447Y-49565000D01*
X101035000Y-48895554D01*
X101035000Y-48798061D01*
X100995226Y-48598102D01*
X100917205Y-48409744D01*
X100803937Y-48240226D01*
X100659774Y-48096063D01*
X100490256Y-47982795D01*
X100301898Y-47904774D01*
X100101939Y-47865000D01*
X99898061Y-47865000D01*
X99698102Y-47904774D01*
X99509744Y-47982795D01*
X99340226Y-48096063D01*
X99250000Y-48186289D01*
X99159774Y-48096063D01*
X98990256Y-47982795D01*
X98801898Y-47904774D01*
X98601939Y-47865000D01*
X98398061Y-47865000D01*
X98198102Y-47904774D01*
X98009744Y-47982795D01*
X97840226Y-48096063D01*
X97700000Y-48236289D01*
X97659774Y-48196063D01*
X97490256Y-48082795D01*
X97301898Y-48004774D01*
X97101939Y-47965000D01*
X96898061Y-47965000D01*
X96698102Y-48004774D01*
X96509744Y-48082795D01*
X96340226Y-48196063D01*
X96196063Y-48340226D01*
X96082795Y-48509744D01*
X96004774Y-48698102D01*
X95965000Y-48898061D01*
X95965000Y-49101939D01*
X96004774Y-49301898D01*
X96082795Y-49490256D01*
X96196063Y-49659774D01*
X96340226Y-49803937D01*
X96509744Y-49917205D01*
X96698102Y-49995226D01*
X96898061Y-50035000D01*
X97101939Y-50035000D01*
X97301898Y-49995226D01*
X97490256Y-49917205D01*
X97659774Y-49803937D01*
X97800000Y-49663711D01*
X97840226Y-49703937D01*
X98009744Y-49817205D01*
X98198102Y-49895226D01*
X98398061Y-49935000D01*
X98495554Y-49935000D01*
X99110179Y-50549626D01*
X99001898Y-50504774D01*
X98801939Y-50465000D01*
X98598061Y-50465000D01*
X98398102Y-50504774D01*
X98209744Y-50582795D01*
X98040226Y-50696063D01*
X97996289Y-50740000D01*
X95678433Y-50740000D01*
X95710724Y-50577663D01*
X95710724Y-50373785D01*
X95670950Y-50173826D01*
X95592929Y-49985468D01*
X95479661Y-49815950D01*
X95335498Y-49671787D01*
X95165980Y-49558519D01*
X94977622Y-49480498D01*
X94777663Y-49440724D01*
X94573785Y-49440724D01*
X94373826Y-49480498D01*
X94185468Y-49558519D01*
X94015950Y-49671787D01*
X93871787Y-49815950D01*
X93758519Y-49985468D01*
X93680498Y-50173826D01*
X93640724Y-50373785D01*
X93640724Y-50577663D01*
X93680498Y-50777622D01*
X93758519Y-50965980D01*
X93871787Y-51135498D01*
X94015950Y-51279661D01*
X94185468Y-51392929D01*
X94289272Y-51435926D01*
X85552199Y-60173000D01*
X79000000Y-60173000D01*
X78975224Y-60175440D01*
X78951399Y-60182667D01*
X78929443Y-60194403D01*
X78910197Y-60210197D01*
X78894403Y-60229443D01*
X78882667Y-60251399D01*
X78875440Y-60275224D01*
X78873000Y-60300000D01*
X78873000Y-73500000D01*
X78875440Y-73524776D01*
X78882667Y-73548601D01*
X78894403Y-73570557D01*
X78910197Y-73589803D01*
X80310197Y-74989803D01*
X80329443Y-75005597D01*
X80351399Y-75017333D01*
X80375224Y-75024560D01*
X80400000Y-75027000D01*
X88300000Y-75027000D01*
X88324776Y-75024560D01*
X88348601Y-75017333D01*
X88370557Y-75005597D01*
X88389803Y-74989803D01*
X88405597Y-74970557D01*
X88417333Y-74948601D01*
X88424560Y-74924776D01*
X88427000Y-74900000D01*
X88427000Y-72925000D01*
X88636928Y-72925000D01*
X88649188Y-73049482D01*
X88685498Y-73169180D01*
X88744463Y-73279494D01*
X88823815Y-73376185D01*
X88920506Y-73455537D01*
X89030820Y-73514502D01*
X89150518Y-73550812D01*
X89275000Y-73563072D01*
X89414250Y-73560000D01*
X89573000Y-73401250D01*
X89573000Y-72627000D01*
X89827000Y-72627000D01*
X89827000Y-73401250D01*
X89985750Y-73560000D01*
X90125000Y-73563072D01*
X90249482Y-73550812D01*
X90369180Y-73514502D01*
X90479494Y-73455537D01*
X90576185Y-73376185D01*
X90655537Y-73279494D01*
X90714502Y-73169180D01*
X90750812Y-73049482D01*
X90763072Y-72925000D01*
X90760000Y-72785750D01*
X90601250Y-72627000D01*
X89827000Y-72627000D01*
X89573000Y-72627000D01*
X88798750Y-72627000D01*
X88640000Y-72785750D01*
X88636928Y-72925000D01*
X88427000Y-72925000D01*
X88427000Y-72075000D01*
X88636928Y-72075000D01*
X88640000Y-72214250D01*
X88798750Y-72373000D01*
X89573000Y-72373000D01*
X89573000Y-71598750D01*
X89827000Y-71598750D01*
X89827000Y-72373000D01*
X90601250Y-72373000D01*
X90760000Y-72214250D01*
X90763072Y-72075000D01*
X90750812Y-71950518D01*
X90714502Y-71830820D01*
X90655537Y-71720506D01*
X90576185Y-71623815D01*
X90479494Y-71544463D01*
X90369180Y-71485498D01*
X90249482Y-71449188D01*
X90125000Y-71436928D01*
X89985750Y-71440000D01*
X89827000Y-71598750D01*
X89573000Y-71598750D01*
X89414250Y-71440000D01*
X89275000Y-71436928D01*
X89150518Y-71449188D01*
X89030820Y-71485498D01*
X88920506Y-71544463D01*
X88823815Y-71623815D01*
X88744463Y-71720506D01*
X88685498Y-71830820D01*
X88649188Y-71950518D01*
X88636928Y-72075000D01*
X88427000Y-72075000D01*
X88427000Y-69752999D01*
X90686854Y-67516932D01*
X91063887Y-67796667D01*
X90905806Y-67954748D01*
X90877761Y-67977764D01*
X90785912Y-68089682D01*
X90722779Y-68207795D01*
X90717662Y-68217369D01*
X90675633Y-68355917D01*
X90661442Y-68500002D01*
X90664999Y-68536116D01*
X90664998Y-69413892D01*
X90661442Y-69449998D01*
X90675633Y-69594083D01*
X90682056Y-69615256D01*
X90717661Y-69732630D01*
X90785911Y-69860317D01*
X90865000Y-69956687D01*
X90865000Y-70051939D01*
X90904774Y-70251898D01*
X90982795Y-70440256D01*
X91096063Y-70609774D01*
X91240226Y-70753937D01*
X91317181Y-70805356D01*
X91307831Y-75433709D01*
X91183158Y-75382068D01*
X90896260Y-75325000D01*
X90603740Y-75325000D01*
X90316842Y-75382068D01*
X90046589Y-75494010D01*
X89803368Y-75656525D01*
X89596525Y-75863368D01*
X89434010Y-76106589D01*
X89322068Y-76376842D01*
X89265000Y-76663740D01*
X89265000Y-76956260D01*
X89322068Y-77243158D01*
X89434010Y-77513411D01*
X89596525Y-77756632D01*
X89728380Y-77888487D01*
X89655820Y-77910498D01*
X89545506Y-77969463D01*
X89448815Y-78048815D01*
X89369463Y-78145506D01*
X89310498Y-78255820D01*
X89274188Y-78375518D01*
X89261928Y-78500000D01*
X89261928Y-80200000D01*
X89268330Y-80265000D01*
X87528711Y-80265000D01*
X87459774Y-80196063D01*
X87290256Y-80082795D01*
X87101898Y-80004774D01*
X86901939Y-79965000D01*
X86698061Y-79965000D01*
X86498102Y-80004774D01*
X86309744Y-80082795D01*
X86140226Y-80196063D01*
X85996063Y-80340226D01*
X85882795Y-80509744D01*
X85804774Y-80698102D01*
X85765000Y-80898061D01*
X85765000Y-81101939D01*
X85804774Y-81301898D01*
X85820556Y-81340000D01*
X80029392Y-81340000D01*
X79231917Y-81268827D01*
X78488110Y-81065344D01*
X77792096Y-80733363D01*
X77165870Y-80283374D01*
X76629223Y-79729597D01*
X76199129Y-79089549D01*
X75889171Y-78383447D01*
X75876128Y-78329117D01*
X76765000Y-78329117D01*
X76765000Y-78670883D01*
X76831675Y-79006081D01*
X76962463Y-79321831D01*
X77152337Y-79605998D01*
X77394002Y-79847663D01*
X77678169Y-80037537D01*
X77993919Y-80168325D01*
X78329117Y-80235000D01*
X78670883Y-80235000D01*
X79006081Y-80168325D01*
X79321831Y-80037537D01*
X79605998Y-79847663D01*
X79847663Y-79605998D01*
X80037537Y-79321831D01*
X80109510Y-79148071D01*
X83327357Y-79148071D01*
X83327357Y-79351949D01*
X83367131Y-79551908D01*
X83445152Y-79740266D01*
X83558420Y-79909784D01*
X83702583Y-80053947D01*
X83872101Y-80167215D01*
X84060459Y-80245236D01*
X84260418Y-80285010D01*
X84464296Y-80285010D01*
X84664255Y-80245236D01*
X84852613Y-80167215D01*
X85022131Y-80053947D01*
X85166294Y-79909784D01*
X85279562Y-79740266D01*
X85357583Y-79551908D01*
X85397357Y-79351949D01*
X85397357Y-79148071D01*
X85357583Y-78948112D01*
X85279562Y-78759754D01*
X85166294Y-78590236D01*
X85022131Y-78446073D01*
X84852613Y-78332805D01*
X84664255Y-78254784D01*
X84464296Y-78215010D01*
X84260418Y-78215010D01*
X84060459Y-78254784D01*
X83872101Y-78332805D01*
X83702583Y-78446073D01*
X83558420Y-78590236D01*
X83445152Y-78759754D01*
X83367131Y-78948112D01*
X83327357Y-79148071D01*
X80109510Y-79148071D01*
X80168325Y-79006081D01*
X80235000Y-78670883D01*
X80235000Y-78329117D01*
X80168325Y-77993919D01*
X80037537Y-77678169D01*
X79847663Y-77394002D01*
X79605998Y-77152337D01*
X79321831Y-76962463D01*
X79006081Y-76831675D01*
X78670883Y-76765000D01*
X78329117Y-76765000D01*
X77993919Y-76831675D01*
X77678169Y-76962463D01*
X77394002Y-77152337D01*
X77152337Y-77394002D01*
X76962463Y-77678169D01*
X76831675Y-77993919D01*
X76765000Y-78329117D01*
X75876128Y-78329117D01*
X75707935Y-77628543D01*
X75660000Y-76975793D01*
X75660000Y-57335224D01*
X75682795Y-57390256D01*
X75796063Y-57559774D01*
X75940226Y-57703937D01*
X76109744Y-57817205D01*
X76298102Y-57895226D01*
X76498061Y-57935000D01*
X76701939Y-57935000D01*
X76901898Y-57895226D01*
X77090256Y-57817205D01*
X77259774Y-57703937D01*
X77403937Y-57559774D01*
X77517205Y-57390256D01*
X77595226Y-57201898D01*
X77635000Y-57001939D01*
X77635000Y-56798061D01*
X77595226Y-56598102D01*
X77517205Y-56409744D01*
X77403937Y-56240226D01*
X77259774Y-56096063D01*
X77090256Y-55982795D01*
X76901898Y-55904774D01*
X76701939Y-55865000D01*
X76498061Y-55865000D01*
X76298102Y-55904774D01*
X76109744Y-55982795D01*
X75940226Y-56096063D01*
X75796063Y-56240226D01*
X75682795Y-56409744D01*
X75660000Y-56464776D01*
X75660000Y-54798061D01*
X81065000Y-54798061D01*
X81065000Y-55001939D01*
X81104774Y-55201898D01*
X81182795Y-55390256D01*
X81296063Y-55559774D01*
X81440226Y-55703937D01*
X81609744Y-55817205D01*
X81798102Y-55895226D01*
X81998061Y-55935000D01*
X82201939Y-55935000D01*
X82401898Y-55895226D01*
X82590256Y-55817205D01*
X82759774Y-55703937D01*
X82903937Y-55559774D01*
X83017205Y-55390256D01*
X83095226Y-55201898D01*
X83135000Y-55001939D01*
X83135000Y-54798061D01*
X83095226Y-54598102D01*
X83017205Y-54409744D01*
X82903937Y-54240226D01*
X82759774Y-54096063D01*
X82590256Y-53982795D01*
X82401898Y-53904774D01*
X82201939Y-53865000D01*
X81998061Y-53865000D01*
X81798102Y-53904774D01*
X81609744Y-53982795D01*
X81440226Y-54096063D01*
X81296063Y-54240226D01*
X81182795Y-54409744D01*
X81104774Y-54598102D01*
X81065000Y-54798061D01*
X75660000Y-54798061D01*
X75660000Y-53725000D01*
X75936928Y-53725000D01*
X75949188Y-53849482D01*
X75985498Y-53969180D01*
X76044463Y-54079494D01*
X76123815Y-54176185D01*
X76220506Y-54255537D01*
X76330820Y-54314502D01*
X76450518Y-54350812D01*
X76575000Y-54363072D01*
X76714250Y-54360000D01*
X76873000Y-54201250D01*
X76873000Y-53427000D01*
X77127000Y-53427000D01*
X77127000Y-54201250D01*
X77285750Y-54360000D01*
X77425000Y-54363072D01*
X77549482Y-54350812D01*
X77669180Y-54314502D01*
X77779494Y-54255537D01*
X77876185Y-54176185D01*
X77955537Y-54079494D01*
X78014502Y-53969180D01*
X78050812Y-53849482D01*
X78063072Y-53725000D01*
X78060000Y-53585750D01*
X77901250Y-53427000D01*
X77127000Y-53427000D01*
X76873000Y-53427000D01*
X76098750Y-53427000D01*
X75940000Y-53585750D01*
X75936928Y-53725000D01*
X75660000Y-53725000D01*
X75660000Y-52875000D01*
X75936928Y-52875000D01*
X75940000Y-53014250D01*
X76098750Y-53173000D01*
X76873000Y-53173000D01*
X76873000Y-52398750D01*
X77127000Y-52398750D01*
X77127000Y-53173000D01*
X77901250Y-53173000D01*
X78060000Y-53014250D01*
X78063072Y-52875000D01*
X78050812Y-52750518D01*
X78014502Y-52630820D01*
X77955537Y-52520506D01*
X77876185Y-52423815D01*
X77844804Y-52398061D01*
X79965000Y-52398061D01*
X79965000Y-52601939D01*
X80004774Y-52801898D01*
X80082795Y-52990256D01*
X80196063Y-53159774D01*
X80340226Y-53303937D01*
X80509744Y-53417205D01*
X80698102Y-53495226D01*
X80898061Y-53535000D01*
X81101939Y-53535000D01*
X81301898Y-53495226D01*
X81490256Y-53417205D01*
X81659774Y-53303937D01*
X81803937Y-53159774D01*
X81917205Y-52990256D01*
X81995226Y-52801898D01*
X82028424Y-52635000D01*
X87571289Y-52635000D01*
X87640226Y-52703937D01*
X87809744Y-52817205D01*
X87998102Y-52895226D01*
X88198061Y-52935000D01*
X88401939Y-52935000D01*
X88601898Y-52895226D01*
X88790256Y-52817205D01*
X88959774Y-52703937D01*
X89103937Y-52559774D01*
X89217205Y-52390256D01*
X89295226Y-52201898D01*
X89335000Y-52001939D01*
X89335000Y-51798061D01*
X89295226Y-51598102D01*
X89217205Y-51409744D01*
X89103937Y-51240226D01*
X88959774Y-51096063D01*
X88790256Y-50982795D01*
X88601898Y-50904774D01*
X88401939Y-50865000D01*
X88198061Y-50865000D01*
X87998102Y-50904774D01*
X87809744Y-50982795D01*
X87640226Y-51096063D01*
X87571289Y-51165000D01*
X84669088Y-51165000D01*
X84695226Y-51101898D01*
X84735000Y-50901939D01*
X84735000Y-50698061D01*
X84695226Y-50498102D01*
X84617205Y-50309744D01*
X84503937Y-50140226D01*
X84359774Y-49996063D01*
X84190256Y-49882795D01*
X84001898Y-49804774D01*
X83801939Y-49765000D01*
X83598061Y-49765000D01*
X83398102Y-49804774D01*
X83209744Y-49882795D01*
X83040226Y-49996063D01*
X82896063Y-50140226D01*
X82782795Y-50309744D01*
X82704774Y-50498102D01*
X82665000Y-50698061D01*
X82665000Y-50901939D01*
X82704774Y-51101898D01*
X82730912Y-51165000D01*
X81636096Y-51165000D01*
X81599999Y-51161445D01*
X81563902Y-51165000D01*
X81563895Y-51165000D01*
X81470132Y-51174235D01*
X81455914Y-51175635D01*
X81413886Y-51188384D01*
X81317367Y-51217663D01*
X81189680Y-51285913D01*
X81077762Y-51377762D01*
X81054746Y-51405807D01*
X80995553Y-51465000D01*
X80898061Y-51465000D01*
X80698102Y-51504774D01*
X80509744Y-51582795D01*
X80340226Y-51696063D01*
X80196063Y-51840226D01*
X80082795Y-52009744D01*
X80004774Y-52198102D01*
X79965000Y-52398061D01*
X77844804Y-52398061D01*
X77779494Y-52344463D01*
X77669180Y-52285498D01*
X77549482Y-52249188D01*
X77425000Y-52236928D01*
X77285750Y-52240000D01*
X77127000Y-52398750D01*
X76873000Y-52398750D01*
X76714250Y-52240000D01*
X76575000Y-52236928D01*
X76450518Y-52249188D01*
X76330820Y-52285498D01*
X76220506Y-52344463D01*
X76123815Y-52423815D01*
X76044463Y-52520506D01*
X75985498Y-52630820D01*
X75949188Y-52750518D01*
X75936928Y-52875000D01*
X75660000Y-52875000D01*
X75660000Y-48198061D01*
X93865000Y-48198061D01*
X93865000Y-48401939D01*
X93904774Y-48601898D01*
X93982795Y-48790256D01*
X94096063Y-48959774D01*
X94240226Y-49103937D01*
X94409744Y-49217205D01*
X94598102Y-49295226D01*
X94798061Y-49335000D01*
X95001939Y-49335000D01*
X95201898Y-49295226D01*
X95390256Y-49217205D01*
X95559774Y-49103937D01*
X95703937Y-48959774D01*
X95817205Y-48790256D01*
X95895226Y-48601898D01*
X95935000Y-48401939D01*
X95935000Y-48198061D01*
X95895226Y-47998102D01*
X95817205Y-47809744D01*
X95703937Y-47640226D01*
X95559774Y-47496063D01*
X95390256Y-47382795D01*
X95201898Y-47304774D01*
X95001939Y-47265000D01*
X94798061Y-47265000D01*
X94598102Y-47304774D01*
X94409744Y-47382795D01*
X94240226Y-47496063D01*
X94096063Y-47640226D01*
X93982795Y-47809744D01*
X93904774Y-47998102D01*
X93865000Y-48198061D01*
X75660000Y-48198061D01*
X75660000Y-47029392D01*
X75695913Y-46627000D01*
X94926420Y-46627000D01*
X94948575Y-46668450D01*
G37*
%TD.AperFunction*%
D20*
X111765001Y-72801938D02*
X111804775Y-73001897D01*
X111882796Y-73190255D01*
X111952134Y-73294027D01*
X111898102Y-73304774D01*
X111709744Y-73382795D01*
X111540226Y-73496063D01*
X111396063Y-73640226D01*
X111282795Y-73809744D01*
X111218486Y-73964999D01*
X110904055Y-73964999D01*
X110924157Y-73931252D01*
X111021481Y-73656891D01*
X110900814Y-73427000D01*
X109707000Y-73427000D01*
X109707000Y-73447000D01*
X109453000Y-73447000D01*
X109453000Y-73427000D01*
X109433000Y-73427000D01*
X109433000Y-73173000D01*
X109453000Y-73173000D01*
X109453000Y-73153000D01*
X109707000Y-73153000D01*
X109707000Y-73173000D01*
X110900814Y-73173000D01*
X111021481Y-72943109D01*
X110947659Y-72735000D01*
X111765001Y-72735000D01*
X111765001Y-72801938D01*
%TA.AperFunction,Conductor*%
D21*
G36*
X111765001Y-72801938D02*
G01*
X111804775Y-73001897D01*
X111882796Y-73190255D01*
X111952134Y-73294027D01*
X111898102Y-73304774D01*
X111709744Y-73382795D01*
X111540226Y-73496063D01*
X111396063Y-73640226D01*
X111282795Y-73809744D01*
X111218486Y-73964999D01*
X110904055Y-73964999D01*
X110924157Y-73931252D01*
X111021481Y-73656891D01*
X110900814Y-73427000D01*
X109707000Y-73427000D01*
X109707000Y-73447000D01*
X109453000Y-73447000D01*
X109453000Y-73427000D01*
X109433000Y-73427000D01*
X109433000Y-73173000D01*
X109453000Y-73173000D01*
X109453000Y-73153000D01*
X109707000Y-73153000D01*
X109707000Y-73173000D01*
X110900814Y-73173000D01*
X111021481Y-72943109D01*
X110947659Y-72735000D01*
X111765001Y-72735000D01*
X111765001Y-72801938D01*
G37*
%TD.AperFunction*%
D20*
X100885914Y-52289680D02*
X100856632Y-52344463D01*
X100817664Y-52417367D01*
X100775635Y-52555915D01*
X100761444Y-52700000D01*
X100765001Y-52736114D01*
X100765001Y-52971288D01*
X100696063Y-53040226D01*
X100582795Y-53209744D01*
X100504774Y-53398102D01*
X100465000Y-53598061D01*
X100465000Y-53801939D01*
X100504774Y-54001898D01*
X100582795Y-54190256D01*
X100696063Y-54359774D01*
X100840226Y-54503937D01*
X101009744Y-54617205D01*
X101198102Y-54695226D01*
X101398061Y-54735000D01*
X101601939Y-54735000D01*
X101801898Y-54695226D01*
X101990256Y-54617205D01*
X102159774Y-54503937D01*
X102303937Y-54359774D01*
X102417205Y-54190256D01*
X102495226Y-54001898D01*
X102535000Y-53801939D01*
X102535000Y-53699767D01*
X102572639Y-53715358D01*
X102772598Y-53755132D01*
X102870091Y-53755132D01*
X104055538Y-54940580D01*
X103926939Y-54915000D01*
X103723061Y-54915000D01*
X103523102Y-54954774D01*
X103334744Y-55032795D01*
X103165226Y-55146063D01*
X103021063Y-55290226D01*
X102907795Y-55459744D01*
X102829774Y-55648102D01*
X102790000Y-55848061D01*
X102790000Y-56051939D01*
X102829774Y-56251898D01*
X102876623Y-56365000D01*
X95128711Y-56365000D01*
X95059774Y-56296063D01*
X94890256Y-56182795D01*
X94701898Y-56104774D01*
X94501939Y-56065000D01*
X94298061Y-56065000D01*
X94098102Y-56104774D01*
X93909744Y-56182795D01*
X93740226Y-56296063D01*
X93596063Y-56440226D01*
X93482795Y-56609744D01*
X93404774Y-56798102D01*
X93365000Y-56998061D01*
X93365000Y-57201939D01*
X93404774Y-57401898D01*
X93482795Y-57590256D01*
X93596063Y-57759774D01*
X93740226Y-57903937D01*
X93909744Y-58017205D01*
X94098102Y-58095226D01*
X94298061Y-58135000D01*
X94501939Y-58135000D01*
X94701898Y-58095226D01*
X94890256Y-58017205D01*
X95059774Y-57903937D01*
X95128711Y-57835000D01*
X96431613Y-57835000D01*
X96340226Y-57896063D01*
X96196063Y-58040226D01*
X96082795Y-58209744D01*
X96004774Y-58398102D01*
X95965000Y-58598061D01*
X95965000Y-58801939D01*
X96004774Y-59001898D01*
X96082795Y-59190256D01*
X96196063Y-59359774D01*
X96340226Y-59503937D01*
X96509744Y-59617205D01*
X96698102Y-59695226D01*
X96898061Y-59735000D01*
X97101939Y-59735000D01*
X97301898Y-59695226D01*
X97490256Y-59617205D01*
X97659774Y-59503937D01*
X97803937Y-59359774D01*
X97917205Y-59190256D01*
X97995226Y-59001898D01*
X98035000Y-58801939D01*
X98035000Y-58704446D01*
X98065000Y-58674446D01*
X98065000Y-58701939D01*
X98104774Y-58901898D01*
X98182795Y-59090256D01*
X98296063Y-59259774D01*
X98440226Y-59403937D01*
X98609744Y-59517205D01*
X98798102Y-59595226D01*
X98998061Y-59635000D01*
X99201939Y-59635000D01*
X99401898Y-59595226D01*
X99590256Y-59517205D01*
X99759774Y-59403937D01*
X99903937Y-59259774D01*
X100017205Y-59090256D01*
X100095226Y-58901898D01*
X100135000Y-58701939D01*
X100135000Y-58498061D01*
X100095226Y-58298102D01*
X100048377Y-58185000D01*
X106366146Y-58185000D01*
X106282795Y-58309744D01*
X106204774Y-58498102D01*
X106165000Y-58698061D01*
X106165000Y-58901939D01*
X106204774Y-59101898D01*
X106282795Y-59290256D01*
X106396063Y-59459774D01*
X106540226Y-59603937D01*
X106709744Y-59717205D01*
X106898102Y-59795226D01*
X107098061Y-59835000D01*
X107301939Y-59835000D01*
X107501898Y-59795226D01*
X107690256Y-59717205D01*
X107859774Y-59603937D01*
X107928711Y-59535000D01*
X109459952Y-59535000D01*
X109408617Y-59658933D01*
X109365000Y-59878212D01*
X109365000Y-60101788D01*
X109408617Y-60321067D01*
X109494176Y-60527624D01*
X109559241Y-60625000D01*
X109494176Y-60722376D01*
X109408617Y-60928933D01*
X109365000Y-61148212D01*
X109365000Y-61371788D01*
X109408617Y-61591067D01*
X109494176Y-61797624D01*
X109559241Y-61895000D01*
X109494176Y-61992376D01*
X109408617Y-62198933D01*
X109365000Y-62418212D01*
X109365000Y-62590199D01*
X109065198Y-62890001D01*
X96287321Y-62890001D01*
X96249998Y-62886325D01*
X96212676Y-62890001D01*
X96212666Y-62890001D01*
X96101013Y-62900998D01*
X95957752Y-62944455D01*
X95825774Y-63015000D01*
X95748061Y-63015000D01*
X95548102Y-63054774D01*
X95359744Y-63132795D01*
X95190226Y-63246063D01*
X95046063Y-63390226D01*
X94990709Y-63473069D01*
X93462890Y-62008325D01*
X93445557Y-61994403D01*
X93423601Y-61982667D01*
X93399776Y-61975440D01*
X93375000Y-61973000D01*
X92814250Y-61973000D01*
X92847000Y-61940250D01*
X92850072Y-61376000D01*
X92837812Y-61251518D01*
X92801502Y-61131820D01*
X92742537Y-61021506D01*
X92663185Y-60924815D01*
X92566494Y-60845463D01*
X92456180Y-60786498D01*
X92336482Y-60750188D01*
X92212000Y-60737928D01*
X91647750Y-60741000D01*
X91489000Y-60899750D01*
X91489000Y-61973000D01*
X91235000Y-61973000D01*
X91235000Y-60899750D01*
X91076250Y-60741000D01*
X90512000Y-60737928D01*
X90387518Y-60750188D01*
X90267820Y-60786498D01*
X90157506Y-60845463D01*
X90060815Y-60924815D01*
X89981463Y-61021506D01*
X89922498Y-61131820D01*
X89900487Y-61204380D01*
X89768632Y-61072525D01*
X89525411Y-60910010D01*
X89255158Y-60798068D01*
X89152375Y-60777623D01*
X88482651Y-60203574D01*
X88470557Y-60194403D01*
X88448601Y-60182667D01*
X88424776Y-60175440D01*
X88400000Y-60173000D01*
X87701801Y-60173000D01*
X91628668Y-56246133D01*
X91721791Y-56385502D01*
X91865954Y-56529665D01*
X92035472Y-56642933D01*
X92223830Y-56720954D01*
X92423789Y-56760728D01*
X92627667Y-56760728D01*
X92827626Y-56720954D01*
X93015984Y-56642933D01*
X93185502Y-56529665D01*
X93329665Y-56385502D01*
X93442933Y-56215984D01*
X93520954Y-56027626D01*
X93560728Y-55827667D01*
X93560728Y-55623789D01*
X93520954Y-55423830D01*
X93442933Y-55235472D01*
X93329665Y-55065954D01*
X93185502Y-54921791D01*
X93046134Y-54828668D01*
X95614802Y-52260000D01*
X97996289Y-52260000D01*
X98040226Y-52303937D01*
X98209744Y-52417205D01*
X98398102Y-52495226D01*
X98598061Y-52535000D01*
X98801939Y-52535000D01*
X99001898Y-52495226D01*
X99190256Y-52417205D01*
X99359774Y-52303937D01*
X99428711Y-52235000D01*
X100930789Y-52235000D01*
X100885914Y-52289680D01*
%TA.AperFunction,Conductor*%
D21*
G36*
X100885914Y-52289680D02*
G01*
X100856632Y-52344463D01*
X100817664Y-52417367D01*
X100775635Y-52555915D01*
X100761444Y-52700000D01*
X100765001Y-52736114D01*
X100765001Y-52971288D01*
X100696063Y-53040226D01*
X100582795Y-53209744D01*
X100504774Y-53398102D01*
X100465000Y-53598061D01*
X100465000Y-53801939D01*
X100504774Y-54001898D01*
X100582795Y-54190256D01*
X100696063Y-54359774D01*
X100840226Y-54503937D01*
X101009744Y-54617205D01*
X101198102Y-54695226D01*
X101398061Y-54735000D01*
X101601939Y-54735000D01*
X101801898Y-54695226D01*
X101990256Y-54617205D01*
X102159774Y-54503937D01*
X102303937Y-54359774D01*
X102417205Y-54190256D01*
X102495226Y-54001898D01*
X102535000Y-53801939D01*
X102535000Y-53699767D01*
X102572639Y-53715358D01*
X102772598Y-53755132D01*
X102870091Y-53755132D01*
X104055538Y-54940580D01*
X103926939Y-54915000D01*
X103723061Y-54915000D01*
X103523102Y-54954774D01*
X103334744Y-55032795D01*
X103165226Y-55146063D01*
X103021063Y-55290226D01*
X102907795Y-55459744D01*
X102829774Y-55648102D01*
X102790000Y-55848061D01*
X102790000Y-56051939D01*
X102829774Y-56251898D01*
X102876623Y-56365000D01*
X95128711Y-56365000D01*
X95059774Y-56296063D01*
X94890256Y-56182795D01*
X94701898Y-56104774D01*
X94501939Y-56065000D01*
X94298061Y-56065000D01*
X94098102Y-56104774D01*
X93909744Y-56182795D01*
X93740226Y-56296063D01*
X93596063Y-56440226D01*
X93482795Y-56609744D01*
X93404774Y-56798102D01*
X93365000Y-56998061D01*
X93365000Y-57201939D01*
X93404774Y-57401898D01*
X93482795Y-57590256D01*
X93596063Y-57759774D01*
X93740226Y-57903937D01*
X93909744Y-58017205D01*
X94098102Y-58095226D01*
X94298061Y-58135000D01*
X94501939Y-58135000D01*
X94701898Y-58095226D01*
X94890256Y-58017205D01*
X95059774Y-57903937D01*
X95128711Y-57835000D01*
X96431613Y-57835000D01*
X96340226Y-57896063D01*
X96196063Y-58040226D01*
X96082795Y-58209744D01*
X96004774Y-58398102D01*
X95965000Y-58598061D01*
X95965000Y-58801939D01*
X96004774Y-59001898D01*
X96082795Y-59190256D01*
X96196063Y-59359774D01*
X96340226Y-59503937D01*
X96509744Y-59617205D01*
X96698102Y-59695226D01*
X96898061Y-59735000D01*
X97101939Y-59735000D01*
X97301898Y-59695226D01*
X97490256Y-59617205D01*
X97659774Y-59503937D01*
X97803937Y-59359774D01*
X97917205Y-59190256D01*
X97995226Y-59001898D01*
X98035000Y-58801939D01*
X98035000Y-58704446D01*
X98065000Y-58674446D01*
X98065000Y-58701939D01*
X98104774Y-58901898D01*
X98182795Y-59090256D01*
X98296063Y-59259774D01*
X98440226Y-59403937D01*
X98609744Y-59517205D01*
X98798102Y-59595226D01*
X98998061Y-59635000D01*
X99201939Y-59635000D01*
X99401898Y-59595226D01*
X99590256Y-59517205D01*
X99759774Y-59403937D01*
X99903937Y-59259774D01*
X100017205Y-59090256D01*
X100095226Y-58901898D01*
X100135000Y-58701939D01*
X100135000Y-58498061D01*
X100095226Y-58298102D01*
X100048377Y-58185000D01*
X106366146Y-58185000D01*
X106282795Y-58309744D01*
X106204774Y-58498102D01*
X106165000Y-58698061D01*
X106165000Y-58901939D01*
X106204774Y-59101898D01*
X106282795Y-59290256D01*
X106396063Y-59459774D01*
X106540226Y-59603937D01*
X106709744Y-59717205D01*
X106898102Y-59795226D01*
X107098061Y-59835000D01*
X107301939Y-59835000D01*
X107501898Y-59795226D01*
X107690256Y-59717205D01*
X107859774Y-59603937D01*
X107928711Y-59535000D01*
X109459952Y-59535000D01*
X109408617Y-59658933D01*
X109365000Y-59878212D01*
X109365000Y-60101788D01*
X109408617Y-60321067D01*
X109494176Y-60527624D01*
X109559241Y-60625000D01*
X109494176Y-60722376D01*
X109408617Y-60928933D01*
X109365000Y-61148212D01*
X109365000Y-61371788D01*
X109408617Y-61591067D01*
X109494176Y-61797624D01*
X109559241Y-61895000D01*
X109494176Y-61992376D01*
X109408617Y-62198933D01*
X109365000Y-62418212D01*
X109365000Y-62590199D01*
X109065198Y-62890001D01*
X96287321Y-62890001D01*
X96249998Y-62886325D01*
X96212676Y-62890001D01*
X96212666Y-62890001D01*
X96101013Y-62900998D01*
X95957752Y-62944455D01*
X95825774Y-63015000D01*
X95748061Y-63015000D01*
X95548102Y-63054774D01*
X95359744Y-63132795D01*
X95190226Y-63246063D01*
X95046063Y-63390226D01*
X94990709Y-63473069D01*
X93462890Y-62008325D01*
X93445557Y-61994403D01*
X93423601Y-61982667D01*
X93399776Y-61975440D01*
X93375000Y-61973000D01*
X92814250Y-61973000D01*
X92847000Y-61940250D01*
X92850072Y-61376000D01*
X92837812Y-61251518D01*
X92801502Y-61131820D01*
X92742537Y-61021506D01*
X92663185Y-60924815D01*
X92566494Y-60845463D01*
X92456180Y-60786498D01*
X92336482Y-60750188D01*
X92212000Y-60737928D01*
X91647750Y-60741000D01*
X91489000Y-60899750D01*
X91489000Y-61973000D01*
X91235000Y-61973000D01*
X91235000Y-60899750D01*
X91076250Y-60741000D01*
X90512000Y-60737928D01*
X90387518Y-60750188D01*
X90267820Y-60786498D01*
X90157506Y-60845463D01*
X90060815Y-60924815D01*
X89981463Y-61021506D01*
X89922498Y-61131820D01*
X89900487Y-61204380D01*
X89768632Y-61072525D01*
X89525411Y-60910010D01*
X89255158Y-60798068D01*
X89152375Y-60777623D01*
X88482651Y-60203574D01*
X88470557Y-60194403D01*
X88448601Y-60182667D01*
X88424776Y-60175440D01*
X88400000Y-60173000D01*
X87701801Y-60173000D01*
X91628668Y-56246133D01*
X91721791Y-56385502D01*
X91865954Y-56529665D01*
X92035472Y-56642933D01*
X92223830Y-56720954D01*
X92423789Y-56760728D01*
X92627667Y-56760728D01*
X92827626Y-56720954D01*
X93015984Y-56642933D01*
X93185502Y-56529665D01*
X93329665Y-56385502D01*
X93442933Y-56215984D01*
X93520954Y-56027626D01*
X93560728Y-55827667D01*
X93560728Y-55623789D01*
X93520954Y-55423830D01*
X93442933Y-55235472D01*
X93329665Y-55065954D01*
X93185502Y-54921791D01*
X93046134Y-54828668D01*
X95614802Y-52260000D01*
X97996289Y-52260000D01*
X98040226Y-52303937D01*
X98209744Y-52417205D01*
X98398102Y-52495226D01*
X98598061Y-52535000D01*
X98801939Y-52535000D01*
X99001898Y-52495226D01*
X99190256Y-52417205D01*
X99359774Y-52303937D01*
X99428711Y-52235000D01*
X100930789Y-52235000D01*
X100885914Y-52289680D01*
G37*
%TD.AperFunction*%
%TD*%
M02*
