%TF.GenerationSoftware,KiCad,Pcbnew,(5.1.6)-1*%
%TF.CreationDate,2021-06-21T18:56:37+02:00*%
%TF.ProjectId,DotBot,446f7442-6f74-42e6-9b69-6361645f7063,rev?*%
%TF.SameCoordinates,Original*%
%TF.FileFunction,Soldermask,Top*%
%TF.FilePolarity,Negative*%
%FSLAX46Y46*%
G04 Gerber Fmt 4.6, Leading zero omitted, Abs format (unit mm)*
G04 Created by KiCad (PCBNEW (5.1.6)-1) date 2021-06-21 18:56:37*
%MOMM*%
%LPD*%
G01*
G04 APERTURE LIST*
%ADD10C,2.200000*%
%ADD11R,1.060000X0.650000*%
%ADD12R,1.600000X5.900000*%
%ADD13R,1.100000X1.100000*%
%ADD14R,1.000000X0.800000*%
%ADD15O,1.000000X1.000000*%
%ADD16R,1.000000X1.000000*%
%ADD17O,1.700000X1.700000*%
%ADD18R,1.700000X1.700000*%
%ADD19R,0.850000X0.850000*%
%ADD20R,2.790000X0.740000*%
%ADD21C,0.400000*%
%ADD22R,1.400000X1.200000*%
%ADD23R,1.400000X2.000000*%
%ADD24R,0.800000X0.900000*%
%ADD25R,0.900000X0.800000*%
%ADD26R,2.310000X2.460000*%
%ADD27R,0.650000X1.060000*%
G04 APERTURE END LIST*
%TO.C,R2*%
G36*
G01*
X79650000Y-52756250D02*
X79650000Y-52243750D01*
G75*
G02*
X79868750Y-52025000I218750J0D01*
G01*
X80306250Y-52025000D01*
G75*
G02*
X80525000Y-52243750I0J-218750D01*
G01*
X80525000Y-52756250D01*
G75*
G02*
X80306250Y-52975000I-218750J0D01*
G01*
X79868750Y-52975000D01*
G75*
G02*
X79650000Y-52756250I0J218750D01*
G01*
G37*
G36*
G01*
X78075000Y-52756250D02*
X78075000Y-52243750D01*
G75*
G02*
X78293750Y-52025000I218750J0D01*
G01*
X78731250Y-52025000D01*
G75*
G02*
X78950000Y-52243750I0J-218750D01*
G01*
X78950000Y-52756250D01*
G75*
G02*
X78731250Y-52975000I-218750J0D01*
G01*
X78293750Y-52975000D01*
G75*
G02*
X78075000Y-52756250I0J218750D01*
G01*
G37*
%TD*%
%TO.C,C2*%
G36*
G01*
X78450000Y-50656250D02*
X78450000Y-50143750D01*
G75*
G02*
X78668750Y-49925000I218750J0D01*
G01*
X79106250Y-49925000D01*
G75*
G02*
X79325000Y-50143750I0J-218750D01*
G01*
X79325000Y-50656250D01*
G75*
G02*
X79106250Y-50875000I-218750J0D01*
G01*
X78668750Y-50875000D01*
G75*
G02*
X78450000Y-50656250I0J218750D01*
G01*
G37*
G36*
G01*
X76875000Y-50656250D02*
X76875000Y-50143750D01*
G75*
G02*
X77093750Y-49925000I218750J0D01*
G01*
X77531250Y-49925000D01*
G75*
G02*
X77750000Y-50143750I0J-218750D01*
G01*
X77750000Y-50656250D01*
G75*
G02*
X77531250Y-50875000I-218750J0D01*
G01*
X77093750Y-50875000D01*
G75*
G02*
X76875000Y-50656250I0J218750D01*
G01*
G37*
%TD*%
%TO.C,C1*%
G36*
G01*
X82443750Y-51450000D02*
X82956250Y-51450000D01*
G75*
G02*
X83175000Y-51668750I0J-218750D01*
G01*
X83175000Y-52106250D01*
G75*
G02*
X82956250Y-52325000I-218750J0D01*
G01*
X82443750Y-52325000D01*
G75*
G02*
X82225000Y-52106250I0J218750D01*
G01*
X82225000Y-51668750D01*
G75*
G02*
X82443750Y-51450000I218750J0D01*
G01*
G37*
G36*
G01*
X82443750Y-49875000D02*
X82956250Y-49875000D01*
G75*
G02*
X83175000Y-50093750I0J-218750D01*
G01*
X83175000Y-50531250D01*
G75*
G02*
X82956250Y-50750000I-218750J0D01*
G01*
X82443750Y-50750000D01*
G75*
G02*
X82225000Y-50531250I0J218750D01*
G01*
X82225000Y-50093750D01*
G75*
G02*
X82443750Y-49875000I218750J0D01*
G01*
G37*
%TD*%
D10*
%TO.C,REF\u002A\u002A*%
X78500000Y-78500000D03*
%TD*%
%TO.C,REF\u002A\u002A*%
X111500000Y-78500000D03*
%TD*%
%TO.C,REF\u002A\u002A*%
X111500000Y-45500000D03*
%TD*%
%TO.C,C14*%
G36*
G01*
X89056250Y-67850000D02*
X88143750Y-67850000D01*
G75*
G02*
X87900000Y-67606250I0J243750D01*
G01*
X87900000Y-67118750D01*
G75*
G02*
X88143750Y-66875000I243750J0D01*
G01*
X89056250Y-66875000D01*
G75*
G02*
X89300000Y-67118750I0J-243750D01*
G01*
X89300000Y-67606250D01*
G75*
G02*
X89056250Y-67850000I-243750J0D01*
G01*
G37*
G36*
G01*
X89056250Y-69725000D02*
X88143750Y-69725000D01*
G75*
G02*
X87900000Y-69481250I0J243750D01*
G01*
X87900000Y-68993750D01*
G75*
G02*
X88143750Y-68750000I243750J0D01*
G01*
X89056250Y-68750000D01*
G75*
G02*
X89300000Y-68993750I0J-243750D01*
G01*
X89300000Y-69481250D01*
G75*
G02*
X89056250Y-69725000I-243750J0D01*
G01*
G37*
%TD*%
%TO.C,C10*%
G36*
G01*
X80950000Y-63956250D02*
X80950000Y-63043750D01*
G75*
G02*
X81193750Y-62800000I243750J0D01*
G01*
X81681250Y-62800000D01*
G75*
G02*
X81925000Y-63043750I0J-243750D01*
G01*
X81925000Y-63956250D01*
G75*
G02*
X81681250Y-64200000I-243750J0D01*
G01*
X81193750Y-64200000D01*
G75*
G02*
X80950000Y-63956250I0J243750D01*
G01*
G37*
G36*
G01*
X79075000Y-63956250D02*
X79075000Y-63043750D01*
G75*
G02*
X79318750Y-62800000I243750J0D01*
G01*
X79806250Y-62800000D01*
G75*
G02*
X80050000Y-63043750I0J-243750D01*
G01*
X80050000Y-63956250D01*
G75*
G02*
X79806250Y-64200000I-243750J0D01*
G01*
X79318750Y-64200000D01*
G75*
G02*
X79075000Y-63956250I0J243750D01*
G01*
G37*
%TD*%
%TO.C,C5*%
G36*
G01*
X94300000Y-65043750D02*
X94300000Y-65956250D01*
G75*
G02*
X94056250Y-66200000I-243750J0D01*
G01*
X93568750Y-66200000D01*
G75*
G02*
X93325000Y-65956250I0J243750D01*
G01*
X93325000Y-65043750D01*
G75*
G02*
X93568750Y-64800000I243750J0D01*
G01*
X94056250Y-64800000D01*
G75*
G02*
X94300000Y-65043750I0J-243750D01*
G01*
G37*
G36*
G01*
X96175000Y-65043750D02*
X96175000Y-65956250D01*
G75*
G02*
X95931250Y-66200000I-243750J0D01*
G01*
X95443750Y-66200000D01*
G75*
G02*
X95200000Y-65956250I0J243750D01*
G01*
X95200000Y-65043750D01*
G75*
G02*
X95443750Y-64800000I243750J0D01*
G01*
X95931250Y-64800000D01*
G75*
G02*
X96175000Y-65043750I0J-243750D01*
G01*
G37*
%TD*%
D11*
%TO.C,U8*%
X79600000Y-67250000D03*
X79600000Y-65350000D03*
X81800000Y-65350000D03*
X81800000Y-66300000D03*
X81800000Y-67250000D03*
%TD*%
%TO.C,U7*%
G36*
G01*
X91500000Y-48845000D02*
X91500000Y-48545000D01*
G75*
G02*
X91650000Y-48395000I150000J0D01*
G01*
X93300000Y-48395000D01*
G75*
G02*
X93450000Y-48545000I0J-150000D01*
G01*
X93450000Y-48845000D01*
G75*
G02*
X93300000Y-48995000I-150000J0D01*
G01*
X91650000Y-48995000D01*
G75*
G02*
X91500000Y-48845000I0J150000D01*
G01*
G37*
G36*
G01*
X91500000Y-50115000D02*
X91500000Y-49815000D01*
G75*
G02*
X91650000Y-49665000I150000J0D01*
G01*
X93300000Y-49665000D01*
G75*
G02*
X93450000Y-49815000I0J-150000D01*
G01*
X93450000Y-50115000D01*
G75*
G02*
X93300000Y-50265000I-150000J0D01*
G01*
X91650000Y-50265000D01*
G75*
G02*
X91500000Y-50115000I0J150000D01*
G01*
G37*
G36*
G01*
X91500000Y-51385000D02*
X91500000Y-51085000D01*
G75*
G02*
X91650000Y-50935000I150000J0D01*
G01*
X93300000Y-50935000D01*
G75*
G02*
X93450000Y-51085000I0J-150000D01*
G01*
X93450000Y-51385000D01*
G75*
G02*
X93300000Y-51535000I-150000J0D01*
G01*
X91650000Y-51535000D01*
G75*
G02*
X91500000Y-51385000I0J150000D01*
G01*
G37*
G36*
G01*
X91500000Y-52655000D02*
X91500000Y-52355000D01*
G75*
G02*
X91650000Y-52205000I150000J0D01*
G01*
X93300000Y-52205000D01*
G75*
G02*
X93450000Y-52355000I0J-150000D01*
G01*
X93450000Y-52655000D01*
G75*
G02*
X93300000Y-52805000I-150000J0D01*
G01*
X91650000Y-52805000D01*
G75*
G02*
X91500000Y-52655000I0J150000D01*
G01*
G37*
G36*
G01*
X86550000Y-52655000D02*
X86550000Y-52355000D01*
G75*
G02*
X86700000Y-52205000I150000J0D01*
G01*
X88350000Y-52205000D01*
G75*
G02*
X88500000Y-52355000I0J-150000D01*
G01*
X88500000Y-52655000D01*
G75*
G02*
X88350000Y-52805000I-150000J0D01*
G01*
X86700000Y-52805000D01*
G75*
G02*
X86550000Y-52655000I0J150000D01*
G01*
G37*
G36*
G01*
X86550000Y-51385000D02*
X86550000Y-51085000D01*
G75*
G02*
X86700000Y-50935000I150000J0D01*
G01*
X88350000Y-50935000D01*
G75*
G02*
X88500000Y-51085000I0J-150000D01*
G01*
X88500000Y-51385000D01*
G75*
G02*
X88350000Y-51535000I-150000J0D01*
G01*
X86700000Y-51535000D01*
G75*
G02*
X86550000Y-51385000I0J150000D01*
G01*
G37*
G36*
G01*
X86550000Y-50115000D02*
X86550000Y-49815000D01*
G75*
G02*
X86700000Y-49665000I150000J0D01*
G01*
X88350000Y-49665000D01*
G75*
G02*
X88500000Y-49815000I0J-150000D01*
G01*
X88500000Y-50115000D01*
G75*
G02*
X88350000Y-50265000I-150000J0D01*
G01*
X86700000Y-50265000D01*
G75*
G02*
X86550000Y-50115000I0J150000D01*
G01*
G37*
G36*
G01*
X86550000Y-48845000D02*
X86550000Y-48545000D01*
G75*
G02*
X86700000Y-48395000I150000J0D01*
G01*
X88350000Y-48395000D01*
G75*
G02*
X88500000Y-48545000I0J-150000D01*
G01*
X88500000Y-48845000D01*
G75*
G02*
X88350000Y-48995000I-150000J0D01*
G01*
X86700000Y-48995000D01*
G75*
G02*
X86550000Y-48845000I0J150000D01*
G01*
G37*
%TD*%
D12*
%TO.C,L1*%
X84050000Y-71700000D03*
X79350000Y-71700000D03*
%TD*%
D13*
%TO.C,D3*%
X86400000Y-72100000D03*
X86400000Y-69300000D03*
%TD*%
D14*
%TO.C,D2*%
X87750000Y-54750000D03*
X86250000Y-54750000D03*
X86250000Y-55850000D03*
X87750000Y-55850000D03*
%TD*%
%TO.C,C13*%
G36*
G01*
X85050000Y-65643750D02*
X85050000Y-66156250D01*
G75*
G02*
X84831250Y-66375000I-218750J0D01*
G01*
X84393750Y-66375000D01*
G75*
G02*
X84175000Y-66156250I0J218750D01*
G01*
X84175000Y-65643750D01*
G75*
G02*
X84393750Y-65425000I218750J0D01*
G01*
X84831250Y-65425000D01*
G75*
G02*
X85050000Y-65643750I0J-218750D01*
G01*
G37*
G36*
G01*
X86625000Y-65643750D02*
X86625000Y-66156250D01*
G75*
G02*
X86406250Y-66375000I-218750J0D01*
G01*
X85968750Y-66375000D01*
G75*
G02*
X85750000Y-66156250I0J218750D01*
G01*
X85750000Y-65643750D01*
G75*
G02*
X85968750Y-65425000I218750J0D01*
G01*
X86406250Y-65425000D01*
G75*
G02*
X86625000Y-65643750I0J-218750D01*
G01*
G37*
%TD*%
%TO.C,C9*%
G36*
G01*
X85050000Y-58043750D02*
X85050000Y-58556250D01*
G75*
G02*
X84831250Y-58775000I-218750J0D01*
G01*
X84393750Y-58775000D01*
G75*
G02*
X84175000Y-58556250I0J218750D01*
G01*
X84175000Y-58043750D01*
G75*
G02*
X84393750Y-57825000I218750J0D01*
G01*
X84831250Y-57825000D01*
G75*
G02*
X85050000Y-58043750I0J-218750D01*
G01*
G37*
G36*
G01*
X86625000Y-58043750D02*
X86625000Y-58556250D01*
G75*
G02*
X86406250Y-58775000I-218750J0D01*
G01*
X85968750Y-58775000D01*
G75*
G02*
X85750000Y-58556250I0J218750D01*
G01*
X85750000Y-58043750D01*
G75*
G02*
X85968750Y-57825000I218750J0D01*
G01*
X86406250Y-57825000D01*
G75*
G02*
X86625000Y-58043750I0J-218750D01*
G01*
G37*
%TD*%
%TO.C,C8*%
G36*
G01*
X92750000Y-46743750D02*
X92750000Y-47256250D01*
G75*
G02*
X92531250Y-47475000I-218750J0D01*
G01*
X92093750Y-47475000D01*
G75*
G02*
X91875000Y-47256250I0J218750D01*
G01*
X91875000Y-46743750D01*
G75*
G02*
X92093750Y-46525000I218750J0D01*
G01*
X92531250Y-46525000D01*
G75*
G02*
X92750000Y-46743750I0J-218750D01*
G01*
G37*
G36*
G01*
X94325000Y-46743750D02*
X94325000Y-47256250D01*
G75*
G02*
X94106250Y-47475000I-218750J0D01*
G01*
X93668750Y-47475000D01*
G75*
G02*
X93450000Y-47256250I0J218750D01*
G01*
X93450000Y-46743750D01*
G75*
G02*
X93668750Y-46525000I218750J0D01*
G01*
X94106250Y-46525000D01*
G75*
G02*
X94325000Y-46743750I0J-218750D01*
G01*
G37*
%TD*%
%TO.C,C4*%
G36*
G01*
X105950000Y-77456250D02*
X105950000Y-76943750D01*
G75*
G02*
X106168750Y-76725000I218750J0D01*
G01*
X106606250Y-76725000D01*
G75*
G02*
X106825000Y-76943750I0J-218750D01*
G01*
X106825000Y-77456250D01*
G75*
G02*
X106606250Y-77675000I-218750J0D01*
G01*
X106168750Y-77675000D01*
G75*
G02*
X105950000Y-77456250I0J218750D01*
G01*
G37*
G36*
G01*
X104375000Y-77456250D02*
X104375000Y-76943750D01*
G75*
G02*
X104593750Y-76725000I218750J0D01*
G01*
X105031250Y-76725000D01*
G75*
G02*
X105250000Y-76943750I0J-218750D01*
G01*
X105250000Y-77456250D01*
G75*
G02*
X105031250Y-77675000I-218750J0D01*
G01*
X104593750Y-77675000D01*
G75*
G02*
X104375000Y-77456250I0J218750D01*
G01*
G37*
%TD*%
%TO.C,C3*%
G36*
G01*
X84950000Y-77356250D02*
X84950000Y-76843750D01*
G75*
G02*
X85168750Y-76625000I218750J0D01*
G01*
X85606250Y-76625000D01*
G75*
G02*
X85825000Y-76843750I0J-218750D01*
G01*
X85825000Y-77356250D01*
G75*
G02*
X85606250Y-77575000I-218750J0D01*
G01*
X85168750Y-77575000D01*
G75*
G02*
X84950000Y-77356250I0J218750D01*
G01*
G37*
G36*
G01*
X83375000Y-77356250D02*
X83375000Y-76843750D01*
G75*
G02*
X83593750Y-76625000I218750J0D01*
G01*
X84031250Y-76625000D01*
G75*
G02*
X84250000Y-76843750I0J-218750D01*
G01*
X84250000Y-77356250D01*
G75*
G02*
X84031250Y-77575000I-218750J0D01*
G01*
X83593750Y-77575000D01*
G75*
G02*
X83375000Y-77356250I0J218750D01*
G01*
G37*
%TD*%
D15*
%TO.C,J5*%
X110500000Y-65070000D03*
X110500000Y-63800000D03*
X110500000Y-62530000D03*
X110500000Y-61260000D03*
X110500000Y-59990000D03*
X110500000Y-58720000D03*
X110500000Y-57450000D03*
X110500000Y-56180000D03*
X110500000Y-54910000D03*
X110500000Y-53640000D03*
X110500000Y-52370000D03*
D16*
X110500000Y-51100000D03*
%TD*%
D17*
%TO.C,J6*%
X109580000Y-70760000D03*
X109580000Y-73300000D03*
X107040000Y-70760000D03*
X107040000Y-73300000D03*
X104500000Y-70760000D03*
D18*
X104500000Y-73300000D03*
%TD*%
%TO.C,C7*%
G36*
G01*
X95100000Y-67550000D02*
X95100000Y-67050000D01*
G75*
G02*
X95325000Y-66825000I225000J0D01*
G01*
X95775000Y-66825000D01*
G75*
G02*
X96000000Y-67050000I0J-225000D01*
G01*
X96000000Y-67550000D01*
G75*
G02*
X95775000Y-67775000I-225000J0D01*
G01*
X95325000Y-67775000D01*
G75*
G02*
X95100000Y-67550000I0J225000D01*
G01*
G37*
G36*
G01*
X96650000Y-67550000D02*
X96650000Y-67050000D01*
G75*
G02*
X96875000Y-66825000I225000J0D01*
G01*
X97325000Y-66825000D01*
G75*
G02*
X97550000Y-67050000I0J-225000D01*
G01*
X97550000Y-67550000D01*
G75*
G02*
X97325000Y-67775000I-225000J0D01*
G01*
X96875000Y-67775000D01*
G75*
G02*
X96650000Y-67550000I0J225000D01*
G01*
G37*
%TD*%
D17*
%TO.C,J2*%
X100200000Y-76760000D03*
D18*
X100200000Y-79300000D03*
%TD*%
D19*
%TO.C,TP3*%
X77000000Y-54300000D03*
%TD*%
%TO.C,TP1*%
X89700000Y-72500000D03*
%TD*%
D20*
%TO.C,J3*%
X100365000Y-59860000D03*
X104435000Y-59860000D03*
X100365000Y-61130000D03*
X104435000Y-61130000D03*
X100365000Y-62400000D03*
X104435000Y-62400000D03*
X100365000Y-63670000D03*
X104435000Y-63670000D03*
X100365000Y-64940000D03*
X104435000Y-64940000D03*
%TD*%
D17*
%TO.C,J4*%
X88822000Y-62226000D03*
D18*
X91362000Y-62226000D03*
%TD*%
D17*
%TO.C,J1*%
X90750000Y-76810000D03*
D18*
X90750000Y-79350000D03*
%TD*%
D21*
%TO.C,U4*%
X81212000Y-51120000D03*
X80712000Y-51120000D03*
X80212000Y-51120000D03*
X80212000Y-50620000D03*
X81212000Y-50620000D03*
X81212000Y-50120000D03*
X80212000Y-50120000D03*
X80712000Y-50120000D03*
X80712000Y-50620000D03*
%TD*%
%TO.C,C6*%
G36*
G01*
X92750000Y-67075000D02*
X92750000Y-67575000D01*
G75*
G02*
X92525000Y-67800000I-225000J0D01*
G01*
X92075000Y-67800000D01*
G75*
G02*
X91850000Y-67575000I0J225000D01*
G01*
X91850000Y-67075000D01*
G75*
G02*
X92075000Y-66850000I225000J0D01*
G01*
X92525000Y-66850000D01*
G75*
G02*
X92750000Y-67075000I0J-225000D01*
G01*
G37*
G36*
G01*
X94300000Y-67075000D02*
X94300000Y-67575000D01*
G75*
G02*
X94075000Y-67800000I-225000J0D01*
G01*
X93625000Y-67800000D01*
G75*
G02*
X93400000Y-67575000I0J225000D01*
G01*
X93400000Y-67075000D01*
G75*
G02*
X93625000Y-66850000I225000J0D01*
G01*
X94075000Y-66850000D01*
G75*
G02*
X94300000Y-67075000I0J-225000D01*
G01*
G37*
%TD*%
%TO.C,C11*%
G36*
G01*
X78550000Y-58025000D02*
X79050000Y-58025000D01*
G75*
G02*
X79275000Y-58250000I0J-225000D01*
G01*
X79275000Y-58700000D01*
G75*
G02*
X79050000Y-58925000I-225000J0D01*
G01*
X78550000Y-58925000D01*
G75*
G02*
X78325000Y-58700000I0J225000D01*
G01*
X78325000Y-58250000D01*
G75*
G02*
X78550000Y-58025000I225000J0D01*
G01*
G37*
G36*
G01*
X78550000Y-56475000D02*
X79050000Y-56475000D01*
G75*
G02*
X79275000Y-56700000I0J-225000D01*
G01*
X79275000Y-57150000D01*
G75*
G02*
X79050000Y-57375000I-225000J0D01*
G01*
X78550000Y-57375000D01*
G75*
G02*
X78325000Y-57150000I0J225000D01*
G01*
X78325000Y-56700000D01*
G75*
G02*
X78550000Y-56475000I225000J0D01*
G01*
G37*
%TD*%
%TO.C,C12*%
G36*
G01*
X80075000Y-60750000D02*
X80075000Y-60250000D01*
G75*
G02*
X80300000Y-60025000I225000J0D01*
G01*
X80750000Y-60025000D01*
G75*
G02*
X80975000Y-60250000I0J-225000D01*
G01*
X80975000Y-60750000D01*
G75*
G02*
X80750000Y-60975000I-225000J0D01*
G01*
X80300000Y-60975000D01*
G75*
G02*
X80075000Y-60750000I0J225000D01*
G01*
G37*
G36*
G01*
X81625000Y-60750000D02*
X81625000Y-60250000D01*
G75*
G02*
X81850000Y-60025000I225000J0D01*
G01*
X82300000Y-60025000D01*
G75*
G02*
X82525000Y-60250000I0J-225000D01*
G01*
X82525000Y-60750000D01*
G75*
G02*
X82300000Y-60975000I-225000J0D01*
G01*
X81850000Y-60975000D01*
G75*
G02*
X81625000Y-60750000I0J225000D01*
G01*
G37*
%TD*%
D22*
%TO.C,D1*%
X78200000Y-47300000D03*
D23*
X84300000Y-47300000D03*
%TD*%
D24*
%TO.C,Q4*%
X91450000Y-57700000D03*
X89550000Y-57700000D03*
X90500000Y-59700000D03*
%TD*%
%TO.C,R1*%
G36*
G01*
X91975000Y-71725000D02*
X91425000Y-71725000D01*
G75*
G02*
X91225000Y-71525000I0J200000D01*
G01*
X91225000Y-71125000D01*
G75*
G02*
X91425000Y-70925000I200000J0D01*
G01*
X91975000Y-70925000D01*
G75*
G02*
X92175000Y-71125000I0J-200000D01*
G01*
X92175000Y-71525000D01*
G75*
G02*
X91975000Y-71725000I-200000J0D01*
G01*
G37*
G36*
G01*
X91975000Y-73375000D02*
X91425000Y-73375000D01*
G75*
G02*
X91225000Y-73175000I0J200000D01*
G01*
X91225000Y-72775000D01*
G75*
G02*
X91425000Y-72575000I200000J0D01*
G01*
X91975000Y-72575000D01*
G75*
G02*
X92175000Y-72775000I0J-200000D01*
G01*
X92175000Y-73175000D01*
G75*
G02*
X91975000Y-73375000I-200000J0D01*
G01*
G37*
%TD*%
%TO.C,R3*%
G36*
G01*
X97475000Y-78975000D02*
X96925000Y-78975000D01*
G75*
G02*
X96725000Y-78775000I0J200000D01*
G01*
X96725000Y-78375000D01*
G75*
G02*
X96925000Y-78175000I200000J0D01*
G01*
X97475000Y-78175000D01*
G75*
G02*
X97675000Y-78375000I0J-200000D01*
G01*
X97675000Y-78775000D01*
G75*
G02*
X97475000Y-78975000I-200000J0D01*
G01*
G37*
G36*
G01*
X97475000Y-77325000D02*
X96925000Y-77325000D01*
G75*
G02*
X96725000Y-77125000I0J200000D01*
G01*
X96725000Y-76725000D01*
G75*
G02*
X96925000Y-76525000I200000J0D01*
G01*
X97475000Y-76525000D01*
G75*
G02*
X97675000Y-76725000I0J-200000D01*
G01*
X97675000Y-77125000D01*
G75*
G02*
X97475000Y-77325000I-200000J0D01*
G01*
G37*
%TD*%
%TO.C,R4*%
G36*
G01*
X94175000Y-77325000D02*
X93625000Y-77325000D01*
G75*
G02*
X93425000Y-77125000I0J200000D01*
G01*
X93425000Y-76725000D01*
G75*
G02*
X93625000Y-76525000I200000J0D01*
G01*
X94175000Y-76525000D01*
G75*
G02*
X94375000Y-76725000I0J-200000D01*
G01*
X94375000Y-77125000D01*
G75*
G02*
X94175000Y-77325000I-200000J0D01*
G01*
G37*
G36*
G01*
X94175000Y-78975000D02*
X93625000Y-78975000D01*
G75*
G02*
X93425000Y-78775000I0J200000D01*
G01*
X93425000Y-78375000D01*
G75*
G02*
X93625000Y-78175000I200000J0D01*
G01*
X94175000Y-78175000D01*
G75*
G02*
X94375000Y-78375000I0J-200000D01*
G01*
X94375000Y-78775000D01*
G75*
G02*
X94175000Y-78975000I-200000J0D01*
G01*
G37*
%TD*%
%TO.C,R5*%
G36*
G01*
X89775000Y-54675000D02*
X89775000Y-54125000D01*
G75*
G02*
X89975000Y-53925000I200000J0D01*
G01*
X90375000Y-53925000D01*
G75*
G02*
X90575000Y-54125000I0J-200000D01*
G01*
X90575000Y-54675000D01*
G75*
G02*
X90375000Y-54875000I-200000J0D01*
G01*
X89975000Y-54875000D01*
G75*
G02*
X89775000Y-54675000I0J200000D01*
G01*
G37*
G36*
G01*
X91425000Y-54675000D02*
X91425000Y-54125000D01*
G75*
G02*
X91625000Y-53925000I200000J0D01*
G01*
X92025000Y-53925000D01*
G75*
G02*
X92225000Y-54125000I0J-200000D01*
G01*
X92225000Y-54675000D01*
G75*
G02*
X92025000Y-54875000I-200000J0D01*
G01*
X91625000Y-54875000D01*
G75*
G02*
X91425000Y-54675000I0J200000D01*
G01*
G37*
%TD*%
%TO.C,R6*%
G36*
G01*
X86625000Y-67225000D02*
X86625000Y-67775000D01*
G75*
G02*
X86425000Y-67975000I-200000J0D01*
G01*
X86025000Y-67975000D01*
G75*
G02*
X85825000Y-67775000I0J200000D01*
G01*
X85825000Y-67225000D01*
G75*
G02*
X86025000Y-67025000I200000J0D01*
G01*
X86425000Y-67025000D01*
G75*
G02*
X86625000Y-67225000I0J-200000D01*
G01*
G37*
G36*
G01*
X84975000Y-67225000D02*
X84975000Y-67775000D01*
G75*
G02*
X84775000Y-67975000I-200000J0D01*
G01*
X84375000Y-67975000D01*
G75*
G02*
X84175000Y-67775000I0J200000D01*
G01*
X84175000Y-67225000D01*
G75*
G02*
X84375000Y-67025000I200000J0D01*
G01*
X84775000Y-67025000D01*
G75*
G02*
X84975000Y-67225000I0J-200000D01*
G01*
G37*
%TD*%
%TO.C,R7*%
G36*
G01*
X85825000Y-64575000D02*
X85825000Y-64025000D01*
G75*
G02*
X86025000Y-63825000I200000J0D01*
G01*
X86425000Y-63825000D01*
G75*
G02*
X86625000Y-64025000I0J-200000D01*
G01*
X86625000Y-64575000D01*
G75*
G02*
X86425000Y-64775000I-200000J0D01*
G01*
X86025000Y-64775000D01*
G75*
G02*
X85825000Y-64575000I0J200000D01*
G01*
G37*
G36*
G01*
X84175000Y-64575000D02*
X84175000Y-64025000D01*
G75*
G02*
X84375000Y-63825000I200000J0D01*
G01*
X84775000Y-63825000D01*
G75*
G02*
X84975000Y-64025000I0J-200000D01*
G01*
X84975000Y-64575000D01*
G75*
G02*
X84775000Y-64775000I-200000J0D01*
G01*
X84375000Y-64775000D01*
G75*
G02*
X84175000Y-64575000I0J200000D01*
G01*
G37*
%TD*%
D25*
%TO.C,U1*%
X85800000Y-79700000D03*
X83800000Y-80650000D03*
X83800000Y-78750000D03*
%TD*%
%TO.C,U2*%
X106700000Y-79800000D03*
X104700000Y-80750000D03*
X104700000Y-78850000D03*
%TD*%
%TO.C,U3*%
G36*
G01*
X93325000Y-75650000D02*
X93125000Y-75650000D01*
G75*
G02*
X93025000Y-75550000I0J100000D01*
G01*
X93025000Y-74175000D01*
G75*
G02*
X93125000Y-74075000I100000J0D01*
G01*
X93325000Y-74075000D01*
G75*
G02*
X93425000Y-74175000I0J-100000D01*
G01*
X93425000Y-75550000D01*
G75*
G02*
X93325000Y-75650000I-100000J0D01*
G01*
G37*
G36*
G01*
X93975000Y-75650000D02*
X93775000Y-75650000D01*
G75*
G02*
X93675000Y-75550000I0J100000D01*
G01*
X93675000Y-74175000D01*
G75*
G02*
X93775000Y-74075000I100000J0D01*
G01*
X93975000Y-74075000D01*
G75*
G02*
X94075000Y-74175000I0J-100000D01*
G01*
X94075000Y-75550000D01*
G75*
G02*
X93975000Y-75650000I-100000J0D01*
G01*
G37*
G36*
G01*
X94625000Y-75650000D02*
X94425000Y-75650000D01*
G75*
G02*
X94325000Y-75550000I0J100000D01*
G01*
X94325000Y-74175000D01*
G75*
G02*
X94425000Y-74075000I100000J0D01*
G01*
X94625000Y-74075000D01*
G75*
G02*
X94725000Y-74175000I0J-100000D01*
G01*
X94725000Y-75550000D01*
G75*
G02*
X94625000Y-75650000I-100000J0D01*
G01*
G37*
G36*
G01*
X95275000Y-75650000D02*
X95075000Y-75650000D01*
G75*
G02*
X94975000Y-75550000I0J100000D01*
G01*
X94975000Y-74175000D01*
G75*
G02*
X95075000Y-74075000I100000J0D01*
G01*
X95275000Y-74075000D01*
G75*
G02*
X95375000Y-74175000I0J-100000D01*
G01*
X95375000Y-75550000D01*
G75*
G02*
X95275000Y-75650000I-100000J0D01*
G01*
G37*
G36*
G01*
X95925000Y-75650000D02*
X95725000Y-75650000D01*
G75*
G02*
X95625000Y-75550000I0J100000D01*
G01*
X95625000Y-74175000D01*
G75*
G02*
X95725000Y-74075000I100000J0D01*
G01*
X95925000Y-74075000D01*
G75*
G02*
X96025000Y-74175000I0J-100000D01*
G01*
X96025000Y-75550000D01*
G75*
G02*
X95925000Y-75650000I-100000J0D01*
G01*
G37*
G36*
G01*
X96575000Y-75650000D02*
X96375000Y-75650000D01*
G75*
G02*
X96275000Y-75550000I0J100000D01*
G01*
X96275000Y-74175000D01*
G75*
G02*
X96375000Y-74075000I100000J0D01*
G01*
X96575000Y-74075000D01*
G75*
G02*
X96675000Y-74175000I0J-100000D01*
G01*
X96675000Y-75550000D01*
G75*
G02*
X96575000Y-75650000I-100000J0D01*
G01*
G37*
G36*
G01*
X97225000Y-75650000D02*
X97025000Y-75650000D01*
G75*
G02*
X96925000Y-75550000I0J100000D01*
G01*
X96925000Y-74175000D01*
G75*
G02*
X97025000Y-74075000I100000J0D01*
G01*
X97225000Y-74075000D01*
G75*
G02*
X97325000Y-74175000I0J-100000D01*
G01*
X97325000Y-75550000D01*
G75*
G02*
X97225000Y-75650000I-100000J0D01*
G01*
G37*
G36*
G01*
X97875000Y-75650000D02*
X97675000Y-75650000D01*
G75*
G02*
X97575000Y-75550000I0J100000D01*
G01*
X97575000Y-74175000D01*
G75*
G02*
X97675000Y-74075000I100000J0D01*
G01*
X97875000Y-74075000D01*
G75*
G02*
X97975000Y-74175000I0J-100000D01*
G01*
X97975000Y-75550000D01*
G75*
G02*
X97875000Y-75650000I-100000J0D01*
G01*
G37*
G36*
G01*
X97875000Y-69925000D02*
X97675000Y-69925000D01*
G75*
G02*
X97575000Y-69825000I0J100000D01*
G01*
X97575000Y-68450000D01*
G75*
G02*
X97675000Y-68350000I100000J0D01*
G01*
X97875000Y-68350000D01*
G75*
G02*
X97975000Y-68450000I0J-100000D01*
G01*
X97975000Y-69825000D01*
G75*
G02*
X97875000Y-69925000I-100000J0D01*
G01*
G37*
G36*
G01*
X97225000Y-69925000D02*
X97025000Y-69925000D01*
G75*
G02*
X96925000Y-69825000I0J100000D01*
G01*
X96925000Y-68450000D01*
G75*
G02*
X97025000Y-68350000I100000J0D01*
G01*
X97225000Y-68350000D01*
G75*
G02*
X97325000Y-68450000I0J-100000D01*
G01*
X97325000Y-69825000D01*
G75*
G02*
X97225000Y-69925000I-100000J0D01*
G01*
G37*
G36*
G01*
X96575000Y-69925000D02*
X96375000Y-69925000D01*
G75*
G02*
X96275000Y-69825000I0J100000D01*
G01*
X96275000Y-68450000D01*
G75*
G02*
X96375000Y-68350000I100000J0D01*
G01*
X96575000Y-68350000D01*
G75*
G02*
X96675000Y-68450000I0J-100000D01*
G01*
X96675000Y-69825000D01*
G75*
G02*
X96575000Y-69925000I-100000J0D01*
G01*
G37*
G36*
G01*
X95925000Y-69925000D02*
X95725000Y-69925000D01*
G75*
G02*
X95625000Y-69825000I0J100000D01*
G01*
X95625000Y-68450000D01*
G75*
G02*
X95725000Y-68350000I100000J0D01*
G01*
X95925000Y-68350000D01*
G75*
G02*
X96025000Y-68450000I0J-100000D01*
G01*
X96025000Y-69825000D01*
G75*
G02*
X95925000Y-69925000I-100000J0D01*
G01*
G37*
G36*
G01*
X95275000Y-69925000D02*
X95075000Y-69925000D01*
G75*
G02*
X94975000Y-69825000I0J100000D01*
G01*
X94975000Y-68450000D01*
G75*
G02*
X95075000Y-68350000I100000J0D01*
G01*
X95275000Y-68350000D01*
G75*
G02*
X95375000Y-68450000I0J-100000D01*
G01*
X95375000Y-69825000D01*
G75*
G02*
X95275000Y-69925000I-100000J0D01*
G01*
G37*
G36*
G01*
X94625000Y-69925000D02*
X94425000Y-69925000D01*
G75*
G02*
X94325000Y-69825000I0J100000D01*
G01*
X94325000Y-68450000D01*
G75*
G02*
X94425000Y-68350000I100000J0D01*
G01*
X94625000Y-68350000D01*
G75*
G02*
X94725000Y-68450000I0J-100000D01*
G01*
X94725000Y-69825000D01*
G75*
G02*
X94625000Y-69925000I-100000J0D01*
G01*
G37*
G36*
G01*
X93975000Y-69925000D02*
X93775000Y-69925000D01*
G75*
G02*
X93675000Y-69825000I0J100000D01*
G01*
X93675000Y-68450000D01*
G75*
G02*
X93775000Y-68350000I100000J0D01*
G01*
X93975000Y-68350000D01*
G75*
G02*
X94075000Y-68450000I0J-100000D01*
G01*
X94075000Y-69825000D01*
G75*
G02*
X93975000Y-69925000I-100000J0D01*
G01*
G37*
G36*
G01*
X93325000Y-69925000D02*
X93125000Y-69925000D01*
G75*
G02*
X93025000Y-69825000I0J100000D01*
G01*
X93025000Y-68450000D01*
G75*
G02*
X93125000Y-68350000I100000J0D01*
G01*
X93325000Y-68350000D01*
G75*
G02*
X93425000Y-68450000I0J-100000D01*
G01*
X93425000Y-69825000D01*
G75*
G02*
X93325000Y-69925000I-100000J0D01*
G01*
G37*
D26*
X95500000Y-72000000D03*
%TD*%
%TO.C,U5*%
G36*
G01*
X95748600Y-49699400D02*
X95748600Y-49699400D01*
G75*
G02*
X96104200Y-49343800I355600J0D01*
G01*
X96104200Y-49343800D01*
G75*
G02*
X96459800Y-49699400I0J-355600D01*
G01*
X96459800Y-49699400D01*
G75*
G02*
X96104200Y-50055000I-355600J0D01*
G01*
X96104200Y-50055000D01*
G75*
G02*
X95748600Y-49699400I0J355600D01*
G01*
G37*
G36*
G01*
X95748600Y-50690000D02*
X95748600Y-50690000D01*
G75*
G02*
X96104200Y-50334400I355600J0D01*
G01*
X96104200Y-50334400D01*
G75*
G02*
X96459800Y-50690000I0J-355600D01*
G01*
X96459800Y-50690000D01*
G75*
G02*
X96104200Y-51045600I-355600J0D01*
G01*
X96104200Y-51045600D01*
G75*
G02*
X95748600Y-50690000I0J355600D01*
G01*
G37*
G36*
G01*
X95748600Y-51706000D02*
X95748600Y-51706000D01*
G75*
G02*
X96104200Y-51350400I355600J0D01*
G01*
X96104200Y-51350400D01*
G75*
G02*
X96459800Y-51706000I0J-355600D01*
G01*
X96459800Y-51706000D01*
G75*
G02*
X96104200Y-52061600I-355600J0D01*
G01*
X96104200Y-52061600D01*
G75*
G02*
X95748600Y-51706000I0J355600D01*
G01*
G37*
G36*
G01*
X95748600Y-52696600D02*
X95748600Y-52696600D01*
G75*
G02*
X96104200Y-52341000I355600J0D01*
G01*
X96104200Y-52341000D01*
G75*
G02*
X96459800Y-52696600I0J-355600D01*
G01*
X96459800Y-52696600D01*
G75*
G02*
X96104200Y-53052200I-355600J0D01*
G01*
X96104200Y-53052200D01*
G75*
G02*
X95748600Y-52696600I0J355600D01*
G01*
G37*
G36*
G01*
X95748600Y-53712600D02*
X95748600Y-53712600D01*
G75*
G02*
X96104200Y-53357000I355600J0D01*
G01*
X96104200Y-53357000D01*
G75*
G02*
X96459800Y-53712600I0J-355600D01*
G01*
X96459800Y-53712600D01*
G75*
G02*
X96104200Y-54068200I-355600J0D01*
G01*
X96104200Y-54068200D01*
G75*
G02*
X95748600Y-53712600I0J355600D01*
G01*
G37*
G36*
G01*
X96739200Y-50690000D02*
X96739200Y-50690000D01*
G75*
G02*
X97094800Y-50334400I355600J0D01*
G01*
X97094800Y-50334400D01*
G75*
G02*
X97450400Y-50690000I0J-355600D01*
G01*
X97450400Y-50690000D01*
G75*
G02*
X97094800Y-51045600I-355600J0D01*
G01*
X97094800Y-51045600D01*
G75*
G02*
X96739200Y-50690000I0J355600D01*
G01*
G37*
G36*
G01*
X96739200Y-51706000D02*
X96739200Y-51706000D01*
G75*
G02*
X97094800Y-51350400I355600J0D01*
G01*
X97094800Y-51350400D01*
G75*
G02*
X97450400Y-51706000I0J-355600D01*
G01*
X97450400Y-51706000D01*
G75*
G02*
X97094800Y-52061600I-355600J0D01*
G01*
X97094800Y-52061600D01*
G75*
G02*
X96739200Y-51706000I0J355600D01*
G01*
G37*
G36*
G01*
X96739200Y-52696600D02*
X96739200Y-52696600D01*
G75*
G02*
X97094800Y-52341000I355600J0D01*
G01*
X97094800Y-52341000D01*
G75*
G02*
X97450400Y-52696600I0J-355600D01*
G01*
X97450400Y-52696600D01*
G75*
G02*
X97094800Y-53052200I-355600J0D01*
G01*
X97094800Y-53052200D01*
G75*
G02*
X96739200Y-52696600I0J355600D01*
G01*
G37*
G36*
G01*
X99736400Y-54703200D02*
X99736400Y-54703200D01*
G75*
G02*
X100092000Y-54347600I355600J0D01*
G01*
X100092000Y-54347600D01*
G75*
G02*
X100447600Y-54703200I0J-355600D01*
G01*
X100447600Y-54703200D01*
G75*
G02*
X100092000Y-55058800I-355600J0D01*
G01*
X100092000Y-55058800D01*
G75*
G02*
X99736400Y-54703200I0J355600D01*
G01*
G37*
G36*
G01*
X100752400Y-54703200D02*
X100752400Y-54703200D01*
G75*
G02*
X101108000Y-54347600I355600J0D01*
G01*
X101108000Y-54347600D01*
G75*
G02*
X101463600Y-54703200I0J-355600D01*
G01*
X101463600Y-54703200D01*
G75*
G02*
X101108000Y-55058800I-355600J0D01*
G01*
X101108000Y-55058800D01*
G75*
G02*
X100752400Y-54703200I0J355600D01*
G01*
G37*
G36*
G01*
X101743000Y-54703200D02*
X101743000Y-54703200D01*
G75*
G02*
X102098600Y-54347600I355600J0D01*
G01*
X102098600Y-54347600D01*
G75*
G02*
X102454200Y-54703200I0J-355600D01*
G01*
X102454200Y-54703200D01*
G75*
G02*
X102098600Y-55058800I-355600J0D01*
G01*
X102098600Y-55058800D01*
G75*
G02*
X101743000Y-54703200I0J355600D01*
G01*
G37*
G36*
G01*
X102733600Y-54703200D02*
X102733600Y-54703200D01*
G75*
G02*
X103089200Y-54347600I355600J0D01*
G01*
X103089200Y-54347600D01*
G75*
G02*
X103444800Y-54703200I0J-355600D01*
G01*
X103444800Y-54703200D01*
G75*
G02*
X103089200Y-55058800I-355600J0D01*
G01*
X103089200Y-55058800D01*
G75*
G02*
X102733600Y-54703200I0J355600D01*
G01*
G37*
G36*
G01*
X103749600Y-54703200D02*
X103749600Y-54703200D01*
G75*
G02*
X104105200Y-54347600I355600J0D01*
G01*
X104105200Y-54347600D01*
G75*
G02*
X104460800Y-54703200I0J-355600D01*
G01*
X104460800Y-54703200D01*
G75*
G02*
X104105200Y-55058800I-355600J0D01*
G01*
X104105200Y-55058800D01*
G75*
G02*
X103749600Y-54703200I0J355600D01*
G01*
G37*
G36*
G01*
X104740200Y-54703200D02*
X104740200Y-54703200D01*
G75*
G02*
X105095800Y-54347600I355600J0D01*
G01*
X105095800Y-54347600D01*
G75*
G02*
X105451400Y-54703200I0J-355600D01*
G01*
X105451400Y-54703200D01*
G75*
G02*
X105095800Y-55058800I-355600J0D01*
G01*
X105095800Y-55058800D01*
G75*
G02*
X104740200Y-54703200I0J355600D01*
G01*
G37*
G36*
G01*
X104740200Y-52696600D02*
X104740200Y-52696600D01*
G75*
G02*
X105095800Y-52341000I355600J0D01*
G01*
X105095800Y-52341000D01*
G75*
G02*
X105451400Y-52696600I0J-355600D01*
G01*
X105451400Y-52696600D01*
G75*
G02*
X105095800Y-53052200I-355600J0D01*
G01*
X105095800Y-53052200D01*
G75*
G02*
X104740200Y-52696600I0J355600D01*
G01*
G37*
G36*
G01*
X104740200Y-51706000D02*
X104740200Y-51706000D01*
G75*
G02*
X105095800Y-51350400I355600J0D01*
G01*
X105095800Y-51350400D01*
G75*
G02*
X105451400Y-51706000I0J-355600D01*
G01*
X105451400Y-51706000D01*
G75*
G02*
X105095800Y-52061600I-355600J0D01*
G01*
X105095800Y-52061600D01*
G75*
G02*
X104740200Y-51706000I0J355600D01*
G01*
G37*
G36*
G01*
X104740200Y-50690000D02*
X104740200Y-50690000D01*
G75*
G02*
X105095800Y-50334400I355600J0D01*
G01*
X105095800Y-50334400D01*
G75*
G02*
X105451400Y-50690000I0J-355600D01*
G01*
X105451400Y-50690000D01*
G75*
G02*
X105095800Y-51045600I-355600J0D01*
G01*
X105095800Y-51045600D01*
G75*
G02*
X104740200Y-50690000I0J355600D01*
G01*
G37*
G36*
G01*
X104740200Y-49699400D02*
X104740200Y-49699400D01*
G75*
G02*
X105095800Y-49343800I355600J0D01*
G01*
X105095800Y-49343800D01*
G75*
G02*
X105451400Y-49699400I0J-355600D01*
G01*
X105451400Y-49699400D01*
G75*
G02*
X105095800Y-50055000I-355600J0D01*
G01*
X105095800Y-50055000D01*
G75*
G02*
X104740200Y-49699400I0J355600D01*
G01*
G37*
G36*
G01*
X103749600Y-52696600D02*
X103749600Y-52696600D01*
G75*
G02*
X104105200Y-52341000I355600J0D01*
G01*
X104105200Y-52341000D01*
G75*
G02*
X104460800Y-52696600I0J-355600D01*
G01*
X104460800Y-52696600D01*
G75*
G02*
X104105200Y-53052200I-355600J0D01*
G01*
X104105200Y-53052200D01*
G75*
G02*
X103749600Y-52696600I0J355600D01*
G01*
G37*
G36*
G01*
X103749600Y-51706000D02*
X103749600Y-51706000D01*
G75*
G02*
X104105200Y-51350400I355600J0D01*
G01*
X104105200Y-51350400D01*
G75*
G02*
X104460800Y-51706000I0J-355600D01*
G01*
X104460800Y-51706000D01*
G75*
G02*
X104105200Y-52061600I-355600J0D01*
G01*
X104105200Y-52061600D01*
G75*
G02*
X103749600Y-51706000I0J355600D01*
G01*
G37*
G36*
G01*
X103749600Y-50690000D02*
X103749600Y-50690000D01*
G75*
G02*
X104105200Y-50334400I355600J0D01*
G01*
X104105200Y-50334400D01*
G75*
G02*
X104460800Y-50690000I0J-355600D01*
G01*
X104460800Y-50690000D01*
G75*
G02*
X104105200Y-51045600I-355600J0D01*
G01*
X104105200Y-51045600D01*
G75*
G02*
X103749600Y-50690000I0J355600D01*
G01*
G37*
G36*
G01*
X103749600Y-49699400D02*
X103749600Y-49699400D01*
G75*
G02*
X104105200Y-49343800I355600J0D01*
G01*
X104105200Y-49343800D01*
G75*
G02*
X104460800Y-49699400I0J-355600D01*
G01*
X104460800Y-49699400D01*
G75*
G02*
X104105200Y-50055000I-355600J0D01*
G01*
X104105200Y-50055000D01*
G75*
G02*
X103749600Y-49699400I0J355600D01*
G01*
G37*
G36*
G01*
X102733600Y-49699400D02*
X102733600Y-49699400D01*
G75*
G02*
X103089200Y-49343800I355600J0D01*
G01*
X103089200Y-49343800D01*
G75*
G02*
X103444800Y-49699400I0J-355600D01*
G01*
X103444800Y-49699400D01*
G75*
G02*
X103089200Y-50055000I-355600J0D01*
G01*
X103089200Y-50055000D01*
G75*
G02*
X102733600Y-49699400I0J355600D01*
G01*
G37*
G36*
G01*
X101743000Y-49699400D02*
X101743000Y-49699400D01*
G75*
G02*
X102098600Y-49343800I355600J0D01*
G01*
X102098600Y-49343800D01*
G75*
G02*
X102454200Y-49699400I0J-355600D01*
G01*
X102454200Y-49699400D01*
G75*
G02*
X102098600Y-50055000I-355600J0D01*
G01*
X102098600Y-50055000D01*
G75*
G02*
X101743000Y-49699400I0J355600D01*
G01*
G37*
G36*
G01*
X100752400Y-51706000D02*
X100752400Y-51706000D01*
G75*
G02*
X101108000Y-51350400I355600J0D01*
G01*
X101108000Y-51350400D01*
G75*
G02*
X101463600Y-51706000I0J-355600D01*
G01*
X101463600Y-51706000D01*
G75*
G02*
X101108000Y-52061600I-355600J0D01*
G01*
X101108000Y-52061600D01*
G75*
G02*
X100752400Y-51706000I0J355600D01*
G01*
G37*
G36*
G01*
X100752400Y-52696600D02*
X100752400Y-52696600D01*
G75*
G02*
X101108000Y-52341000I355600J0D01*
G01*
X101108000Y-52341000D01*
G75*
G02*
X101463600Y-52696600I0J-355600D01*
G01*
X101463600Y-52696600D01*
G75*
G02*
X101108000Y-53052200I-355600J0D01*
G01*
X101108000Y-53052200D01*
G75*
G02*
X100752400Y-52696600I0J355600D01*
G01*
G37*
G36*
G01*
X99736400Y-51706000D02*
X99736400Y-51706000D01*
G75*
G02*
X100092000Y-51350400I355600J0D01*
G01*
X100092000Y-51350400D01*
G75*
G02*
X100447600Y-51706000I0J-355600D01*
G01*
X100447600Y-51706000D01*
G75*
G02*
X100092000Y-52061600I-355600J0D01*
G01*
X100092000Y-52061600D01*
G75*
G02*
X99736400Y-51706000I0J355600D01*
G01*
G37*
G36*
G01*
X99736400Y-52696600D02*
X99736400Y-52696600D01*
G75*
G02*
X100092000Y-52341000I355600J0D01*
G01*
X100092000Y-52341000D01*
G75*
G02*
X100447600Y-52696600I0J-355600D01*
G01*
X100447600Y-52696600D01*
G75*
G02*
X100092000Y-53052200I-355600J0D01*
G01*
X100092000Y-53052200D01*
G75*
G02*
X99736400Y-52696600I0J355600D01*
G01*
G37*
%TD*%
D27*
%TO.C,U6*%
X80450000Y-58900000D03*
X81400000Y-58900000D03*
X82350000Y-58900000D03*
X82350000Y-56700000D03*
X80450000Y-56700000D03*
%TD*%
M02*
