%TF.GenerationSoftware,KiCad,Pcbnew,(5.1.9)-1*%
%TF.CreationDate,2021-03-26T19:47:33+01:00*%
%TF.ProjectId,DotBot,446f7442-6f74-42e6-9b69-6361645f7063,rev?*%
%TF.SameCoordinates,Original*%
%TF.FileFunction,Legend,Top*%
%TF.FilePolarity,Positive*%
%FSLAX46Y46*%
G04 Gerber Fmt 4.6, Leading zero omitted, Abs format (unit mm)*
G04 Created by KiCad (PCBNEW (5.1.9)-1) date 2021-03-26 19:47:33*
%MOMM*%
%LPD*%
G01*
G04 APERTURE LIST*
%ADD10C,0.150000*%
%ADD11C,0.120000*%
%ADD12C,0.100000*%
%ADD13C,0.200000*%
%ADD14C,0.105664*%
G04 APERTURE END LIST*
D10*
X106271428Y-75189285D02*
X106342857Y-75189285D01*
X106414285Y-75225000D01*
X106450000Y-75260714D01*
X106485714Y-75332142D01*
X106521428Y-75475000D01*
X106521428Y-75653571D01*
X106485714Y-75796428D01*
X106450000Y-75867857D01*
X106414285Y-75903571D01*
X106342857Y-75939285D01*
X106271428Y-75939285D01*
X106200000Y-75903571D01*
X106164285Y-75867857D01*
X106128571Y-75796428D01*
X106092857Y-75653571D01*
X106092857Y-75475000D01*
X106128571Y-75332142D01*
X106164285Y-75260714D01*
X106200000Y-75225000D01*
X106271428Y-75189285D01*
X106842857Y-75867857D02*
X106878571Y-75903571D01*
X106842857Y-75939285D01*
X106807142Y-75903571D01*
X106842857Y-75867857D01*
X106842857Y-75939285D01*
X107342857Y-75189285D02*
X107414285Y-75189285D01*
X107485714Y-75225000D01*
X107521428Y-75260714D01*
X107557142Y-75332142D01*
X107592857Y-75475000D01*
X107592857Y-75653571D01*
X107557142Y-75796428D01*
X107521428Y-75867857D01*
X107485714Y-75903571D01*
X107414285Y-75939285D01*
X107342857Y-75939285D01*
X107271428Y-75903571D01*
X107235714Y-75867857D01*
X107200000Y-75796428D01*
X107164285Y-75653571D01*
X107164285Y-75475000D01*
X107200000Y-75332142D01*
X107235714Y-75260714D01*
X107271428Y-75225000D01*
X107342857Y-75189285D01*
X107950000Y-75939285D02*
X108092857Y-75939285D01*
X108164285Y-75903571D01*
X108200000Y-75867857D01*
X108271428Y-75760714D01*
X108307142Y-75617857D01*
X108307142Y-75332142D01*
X108271428Y-75260714D01*
X108235714Y-75225000D01*
X108164285Y-75189285D01*
X108021428Y-75189285D01*
X107950000Y-75225000D01*
X107914285Y-75260714D01*
X107878571Y-75332142D01*
X107878571Y-75510714D01*
X107914285Y-75582142D01*
X107950000Y-75617857D01*
X108021428Y-75653571D01*
X108164285Y-75653571D01*
X108235714Y-75617857D01*
X108271428Y-75582142D01*
X108307142Y-75510714D01*
X112028571Y-73225000D02*
X111957142Y-73189285D01*
X111850000Y-73189285D01*
X111742857Y-73225000D01*
X111671428Y-73296428D01*
X111635714Y-73367857D01*
X111600000Y-73510714D01*
X111600000Y-73617857D01*
X111635714Y-73760714D01*
X111671428Y-73832142D01*
X111742857Y-73903571D01*
X111850000Y-73939285D01*
X111921428Y-73939285D01*
X112028571Y-73903571D01*
X112064285Y-73867857D01*
X112064285Y-73617857D01*
X111921428Y-73617857D01*
X112385714Y-73939285D02*
X112385714Y-73189285D01*
X112814285Y-73939285D01*
X112814285Y-73189285D01*
X113171428Y-73939285D02*
X113171428Y-73189285D01*
X113350000Y-73189285D01*
X113457142Y-73225000D01*
X113528571Y-73296428D01*
X113564285Y-73367857D01*
X113600000Y-73510714D01*
X113600000Y-73617857D01*
X113564285Y-73760714D01*
X113528571Y-73832142D01*
X113457142Y-73903571D01*
X113350000Y-73939285D01*
X113171428Y-73939285D01*
X112028571Y-70425000D02*
X111957142Y-70389285D01*
X111850000Y-70389285D01*
X111742857Y-70425000D01*
X111671428Y-70496428D01*
X111635714Y-70567857D01*
X111600000Y-70710714D01*
X111600000Y-70817857D01*
X111635714Y-70960714D01*
X111671428Y-71032142D01*
X111742857Y-71103571D01*
X111850000Y-71139285D01*
X111921428Y-71139285D01*
X112028571Y-71103571D01*
X112064285Y-71067857D01*
X112064285Y-70817857D01*
X111921428Y-70817857D01*
X112385714Y-71139285D02*
X112385714Y-70389285D01*
X112814285Y-71139285D01*
X112814285Y-70389285D01*
X113171428Y-71139285D02*
X113171428Y-70389285D01*
X113350000Y-70389285D01*
X113457142Y-70425000D01*
X113528571Y-70496428D01*
X113564285Y-70567857D01*
X113600000Y-70710714D01*
X113600000Y-70817857D01*
X113564285Y-70960714D01*
X113528571Y-71032142D01*
X113457142Y-71103571D01*
X113350000Y-71139285D01*
X113171428Y-71139285D01*
X106000000Y-67989285D02*
X106250000Y-68739285D01*
X106500000Y-67989285D01*
X106750000Y-68739285D02*
X106750000Y-67989285D01*
X106928571Y-67989285D01*
X107035714Y-68025000D01*
X107107142Y-68096428D01*
X107142857Y-68167857D01*
X107178571Y-68310714D01*
X107178571Y-68417857D01*
X107142857Y-68560714D01*
X107107142Y-68632142D01*
X107035714Y-68703571D01*
X106928571Y-68739285D01*
X106750000Y-68739285D01*
X107500000Y-68739285D02*
X107500000Y-67989285D01*
X107678571Y-67989285D01*
X107785714Y-68025000D01*
X107857142Y-68096428D01*
X107892857Y-68167857D01*
X107928571Y-68310714D01*
X107928571Y-68417857D01*
X107892857Y-68560714D01*
X107857142Y-68632142D01*
X107785714Y-68703571D01*
X107678571Y-68739285D01*
X107500000Y-68739285D01*
X100671428Y-72889285D02*
X100742857Y-72889285D01*
X100814285Y-72925000D01*
X100850000Y-72960714D01*
X100885714Y-73032142D01*
X100921428Y-73175000D01*
X100921428Y-73353571D01*
X100885714Y-73496428D01*
X100850000Y-73567857D01*
X100814285Y-73603571D01*
X100742857Y-73639285D01*
X100671428Y-73639285D01*
X100600000Y-73603571D01*
X100564285Y-73567857D01*
X100528571Y-73496428D01*
X100492857Y-73353571D01*
X100492857Y-73175000D01*
X100528571Y-73032142D01*
X100564285Y-72960714D01*
X100600000Y-72925000D01*
X100671428Y-72889285D01*
X101242857Y-73567857D02*
X101278571Y-73603571D01*
X101242857Y-73639285D01*
X101207142Y-73603571D01*
X101242857Y-73567857D01*
X101242857Y-73639285D01*
X101528571Y-72889285D02*
X101992857Y-72889285D01*
X101742857Y-73175000D01*
X101850000Y-73175000D01*
X101921428Y-73210714D01*
X101957142Y-73246428D01*
X101992857Y-73317857D01*
X101992857Y-73496428D01*
X101957142Y-73567857D01*
X101921428Y-73603571D01*
X101850000Y-73639285D01*
X101635714Y-73639285D01*
X101564285Y-73603571D01*
X101528571Y-73567857D01*
X102707142Y-73639285D02*
X102278571Y-73639285D01*
X102492857Y-73639285D02*
X102492857Y-72889285D01*
X102421428Y-72996428D01*
X102350000Y-73067857D01*
X102278571Y-73103571D01*
X100771428Y-70389285D02*
X100842857Y-70389285D01*
X100914285Y-70425000D01*
X100950000Y-70460714D01*
X100985714Y-70532142D01*
X101021428Y-70675000D01*
X101021428Y-70853571D01*
X100985714Y-70996428D01*
X100950000Y-71067857D01*
X100914285Y-71103571D01*
X100842857Y-71139285D01*
X100771428Y-71139285D01*
X100700000Y-71103571D01*
X100664285Y-71067857D01*
X100628571Y-70996428D01*
X100592857Y-70853571D01*
X100592857Y-70675000D01*
X100628571Y-70532142D01*
X100664285Y-70460714D01*
X100700000Y-70425000D01*
X100771428Y-70389285D01*
X101342857Y-71067857D02*
X101378571Y-71103571D01*
X101342857Y-71139285D01*
X101307142Y-71103571D01*
X101342857Y-71067857D01*
X101342857Y-71139285D01*
X102092857Y-71139285D02*
X101664285Y-71139285D01*
X101878571Y-71139285D02*
X101878571Y-70389285D01*
X101807142Y-70496428D01*
X101735714Y-70567857D01*
X101664285Y-70603571D01*
X102557142Y-70389285D02*
X102628571Y-70389285D01*
X102700000Y-70425000D01*
X102735714Y-70460714D01*
X102771428Y-70532142D01*
X102807142Y-70675000D01*
X102807142Y-70853571D01*
X102771428Y-70996428D01*
X102735714Y-71067857D01*
X102700000Y-71103571D01*
X102628571Y-71139285D01*
X102557142Y-71139285D01*
X102485714Y-71103571D01*
X102450000Y-71067857D01*
X102414285Y-70996428D01*
X102378571Y-70853571D01*
X102378571Y-70675000D01*
X102414285Y-70532142D01*
X102450000Y-70460714D01*
X102485714Y-70425000D01*
X102557142Y-70389285D01*
X106771428Y-51989285D02*
X106842857Y-51989285D01*
X106914285Y-52025000D01*
X106950000Y-52060714D01*
X106985714Y-52132142D01*
X107021428Y-52275000D01*
X107021428Y-52453571D01*
X106985714Y-52596428D01*
X106950000Y-52667857D01*
X106914285Y-52703571D01*
X106842857Y-52739285D01*
X106771428Y-52739285D01*
X106700000Y-52703571D01*
X106664285Y-52667857D01*
X106628571Y-52596428D01*
X106592857Y-52453571D01*
X106592857Y-52275000D01*
X106628571Y-52132142D01*
X106664285Y-52060714D01*
X106700000Y-52025000D01*
X106771428Y-51989285D01*
X107342857Y-52667857D02*
X107378571Y-52703571D01*
X107342857Y-52739285D01*
X107307142Y-52703571D01*
X107342857Y-52667857D01*
X107342857Y-52739285D01*
X107664285Y-52060714D02*
X107700000Y-52025000D01*
X107771428Y-51989285D01*
X107950000Y-51989285D01*
X108021428Y-52025000D01*
X108057142Y-52060714D01*
X108092857Y-52132142D01*
X108092857Y-52203571D01*
X108057142Y-52310714D01*
X107628571Y-52739285D01*
X108092857Y-52739285D01*
X108450000Y-52739285D02*
X108592857Y-52739285D01*
X108664285Y-52703571D01*
X108700000Y-52667857D01*
X108771428Y-52560714D01*
X108807142Y-52417857D01*
X108807142Y-52132142D01*
X108771428Y-52060714D01*
X108735714Y-52025000D01*
X108664285Y-51989285D01*
X108521428Y-51989285D01*
X108450000Y-52025000D01*
X108414285Y-52060714D01*
X108378571Y-52132142D01*
X108378571Y-52310714D01*
X108414285Y-52382142D01*
X108450000Y-52417857D01*
X108521428Y-52453571D01*
X108664285Y-52453571D01*
X108735714Y-52417857D01*
X108771428Y-52382142D01*
X108807142Y-52310714D01*
X106771428Y-60889285D02*
X106842857Y-60889285D01*
X106914285Y-60925000D01*
X106950000Y-60960714D01*
X106985714Y-61032142D01*
X107021428Y-61175000D01*
X107021428Y-61353571D01*
X106985714Y-61496428D01*
X106950000Y-61567857D01*
X106914285Y-61603571D01*
X106842857Y-61639285D01*
X106771428Y-61639285D01*
X106700000Y-61603571D01*
X106664285Y-61567857D01*
X106628571Y-61496428D01*
X106592857Y-61353571D01*
X106592857Y-61175000D01*
X106628571Y-61032142D01*
X106664285Y-60960714D01*
X106700000Y-60925000D01*
X106771428Y-60889285D01*
X107342857Y-61567857D02*
X107378571Y-61603571D01*
X107342857Y-61639285D01*
X107307142Y-61603571D01*
X107342857Y-61567857D01*
X107342857Y-61639285D01*
X108092857Y-61639285D02*
X107664285Y-61639285D01*
X107878571Y-61639285D02*
X107878571Y-60889285D01*
X107807142Y-60996428D01*
X107735714Y-61067857D01*
X107664285Y-61103571D01*
X108807142Y-61639285D02*
X108378571Y-61639285D01*
X108592857Y-61639285D02*
X108592857Y-60889285D01*
X108521428Y-60996428D01*
X108450000Y-61067857D01*
X108378571Y-61103571D01*
X107021428Y-65439285D02*
X106592857Y-65439285D01*
X106807142Y-65439285D02*
X106807142Y-64689285D01*
X106735714Y-64796428D01*
X106664285Y-64867857D01*
X106592857Y-64903571D01*
X107342857Y-65367857D02*
X107378571Y-65403571D01*
X107342857Y-65439285D01*
X107307142Y-65403571D01*
X107342857Y-65367857D01*
X107342857Y-65439285D01*
X107842857Y-64689285D02*
X107914285Y-64689285D01*
X107985714Y-64725000D01*
X108021428Y-64760714D01*
X108057142Y-64832142D01*
X108092857Y-64975000D01*
X108092857Y-65153571D01*
X108057142Y-65296428D01*
X108021428Y-65367857D01*
X107985714Y-65403571D01*
X107914285Y-65439285D01*
X107842857Y-65439285D01*
X107771428Y-65403571D01*
X107735714Y-65367857D01*
X107700000Y-65296428D01*
X107664285Y-65153571D01*
X107664285Y-64975000D01*
X107700000Y-64832142D01*
X107735714Y-64760714D01*
X107771428Y-64725000D01*
X107842857Y-64689285D01*
X108450000Y-65439285D02*
X108592857Y-65439285D01*
X108664285Y-65403571D01*
X108700000Y-65367857D01*
X108771428Y-65260714D01*
X108807142Y-65117857D01*
X108807142Y-64832142D01*
X108771428Y-64760714D01*
X108735714Y-64725000D01*
X108664285Y-64689285D01*
X108521428Y-64689285D01*
X108450000Y-64725000D01*
X108414285Y-64760714D01*
X108378571Y-64832142D01*
X108378571Y-65010714D01*
X108414285Y-65082142D01*
X108450000Y-65117857D01*
X108521428Y-65153571D01*
X108664285Y-65153571D01*
X108735714Y-65117857D01*
X108771428Y-65082142D01*
X108807142Y-65010714D01*
X106771428Y-59589285D02*
X106842857Y-59589285D01*
X106914285Y-59625000D01*
X106950000Y-59660714D01*
X106985714Y-59732142D01*
X107021428Y-59875000D01*
X107021428Y-60053571D01*
X106985714Y-60196428D01*
X106950000Y-60267857D01*
X106914285Y-60303571D01*
X106842857Y-60339285D01*
X106771428Y-60339285D01*
X106700000Y-60303571D01*
X106664285Y-60267857D01*
X106628571Y-60196428D01*
X106592857Y-60053571D01*
X106592857Y-59875000D01*
X106628571Y-59732142D01*
X106664285Y-59660714D01*
X106700000Y-59625000D01*
X106771428Y-59589285D01*
X107342857Y-60267857D02*
X107378571Y-60303571D01*
X107342857Y-60339285D01*
X107307142Y-60303571D01*
X107342857Y-60267857D01*
X107342857Y-60339285D01*
X108092857Y-60339285D02*
X107664285Y-60339285D01*
X107878571Y-60339285D02*
X107878571Y-59589285D01*
X107807142Y-59696428D01*
X107735714Y-59767857D01*
X107664285Y-59803571D01*
X108771428Y-59589285D02*
X108414285Y-59589285D01*
X108378571Y-59946428D01*
X108414285Y-59910714D01*
X108485714Y-59875000D01*
X108664285Y-59875000D01*
X108735714Y-59910714D01*
X108771428Y-59946428D01*
X108807142Y-60017857D01*
X108807142Y-60196428D01*
X108771428Y-60267857D01*
X108735714Y-60303571D01*
X108664285Y-60339285D01*
X108485714Y-60339285D01*
X108414285Y-60303571D01*
X108378571Y-60267857D01*
X106771428Y-58389285D02*
X106842857Y-58389285D01*
X106914285Y-58425000D01*
X106950000Y-58460714D01*
X106985714Y-58532142D01*
X107021428Y-58675000D01*
X107021428Y-58853571D01*
X106985714Y-58996428D01*
X106950000Y-59067857D01*
X106914285Y-59103571D01*
X106842857Y-59139285D01*
X106771428Y-59139285D01*
X106700000Y-59103571D01*
X106664285Y-59067857D01*
X106628571Y-58996428D01*
X106592857Y-58853571D01*
X106592857Y-58675000D01*
X106628571Y-58532142D01*
X106664285Y-58460714D01*
X106700000Y-58425000D01*
X106771428Y-58389285D01*
X107342857Y-59067857D02*
X107378571Y-59103571D01*
X107342857Y-59139285D01*
X107307142Y-59103571D01*
X107342857Y-59067857D01*
X107342857Y-59139285D01*
X108092857Y-59139285D02*
X107664285Y-59139285D01*
X107878571Y-59139285D02*
X107878571Y-58389285D01*
X107807142Y-58496428D01*
X107735714Y-58567857D01*
X107664285Y-58603571D01*
X108342857Y-58389285D02*
X108842857Y-58389285D01*
X108521428Y-59139285D01*
X106771428Y-63389285D02*
X106842857Y-63389285D01*
X106914285Y-63425000D01*
X106950000Y-63460714D01*
X106985714Y-63532142D01*
X107021428Y-63675000D01*
X107021428Y-63853571D01*
X106985714Y-63996428D01*
X106950000Y-64067857D01*
X106914285Y-64103571D01*
X106842857Y-64139285D01*
X106771428Y-64139285D01*
X106700000Y-64103571D01*
X106664285Y-64067857D01*
X106628571Y-63996428D01*
X106592857Y-63853571D01*
X106592857Y-63675000D01*
X106628571Y-63532142D01*
X106664285Y-63460714D01*
X106700000Y-63425000D01*
X106771428Y-63389285D01*
X107342857Y-64067857D02*
X107378571Y-64103571D01*
X107342857Y-64139285D01*
X107307142Y-64103571D01*
X107342857Y-64067857D01*
X107342857Y-64139285D01*
X107664285Y-63460714D02*
X107700000Y-63425000D01*
X107771428Y-63389285D01*
X107950000Y-63389285D01*
X108021428Y-63425000D01*
X108057142Y-63460714D01*
X108092857Y-63532142D01*
X108092857Y-63603571D01*
X108057142Y-63710714D01*
X107628571Y-64139285D01*
X108092857Y-64139285D01*
X108521428Y-63710714D02*
X108450000Y-63675000D01*
X108414285Y-63639285D01*
X108378571Y-63567857D01*
X108378571Y-63532142D01*
X108414285Y-63460714D01*
X108450000Y-63425000D01*
X108521428Y-63389285D01*
X108664285Y-63389285D01*
X108735714Y-63425000D01*
X108771428Y-63460714D01*
X108807142Y-63532142D01*
X108807142Y-63567857D01*
X108771428Y-63639285D01*
X108735714Y-63675000D01*
X108664285Y-63710714D01*
X108521428Y-63710714D01*
X108450000Y-63746428D01*
X108414285Y-63782142D01*
X108378571Y-63853571D01*
X108378571Y-63996428D01*
X108414285Y-64067857D01*
X108450000Y-64103571D01*
X108521428Y-64139285D01*
X108664285Y-64139285D01*
X108735714Y-64103571D01*
X108771428Y-64067857D01*
X108807142Y-63996428D01*
X108807142Y-63853571D01*
X108771428Y-63782142D01*
X108735714Y-63746428D01*
X108664285Y-63710714D01*
X106771428Y-57089285D02*
X106842857Y-57089285D01*
X106914285Y-57125000D01*
X106950000Y-57160714D01*
X106985714Y-57232142D01*
X107021428Y-57375000D01*
X107021428Y-57553571D01*
X106985714Y-57696428D01*
X106950000Y-57767857D01*
X106914285Y-57803571D01*
X106842857Y-57839285D01*
X106771428Y-57839285D01*
X106700000Y-57803571D01*
X106664285Y-57767857D01*
X106628571Y-57696428D01*
X106592857Y-57553571D01*
X106592857Y-57375000D01*
X106628571Y-57232142D01*
X106664285Y-57160714D01*
X106700000Y-57125000D01*
X106771428Y-57089285D01*
X107342857Y-57767857D02*
X107378571Y-57803571D01*
X107342857Y-57839285D01*
X107307142Y-57803571D01*
X107342857Y-57767857D01*
X107342857Y-57839285D01*
X107842857Y-57089285D02*
X107914285Y-57089285D01*
X107985714Y-57125000D01*
X108021428Y-57160714D01*
X108057142Y-57232142D01*
X108092857Y-57375000D01*
X108092857Y-57553571D01*
X108057142Y-57696428D01*
X108021428Y-57767857D01*
X107985714Y-57803571D01*
X107914285Y-57839285D01*
X107842857Y-57839285D01*
X107771428Y-57803571D01*
X107735714Y-57767857D01*
X107700000Y-57696428D01*
X107664285Y-57553571D01*
X107664285Y-57375000D01*
X107700000Y-57232142D01*
X107735714Y-57160714D01*
X107771428Y-57125000D01*
X107842857Y-57089285D01*
X108735714Y-57339285D02*
X108735714Y-57839285D01*
X108557142Y-57053571D02*
X108378571Y-57589285D01*
X108842857Y-57589285D01*
X106771428Y-62189285D02*
X106842857Y-62189285D01*
X106914285Y-62225000D01*
X106950000Y-62260714D01*
X106985714Y-62332142D01*
X107021428Y-62475000D01*
X107021428Y-62653571D01*
X106985714Y-62796428D01*
X106950000Y-62867857D01*
X106914285Y-62903571D01*
X106842857Y-62939285D01*
X106771428Y-62939285D01*
X106700000Y-62903571D01*
X106664285Y-62867857D01*
X106628571Y-62796428D01*
X106592857Y-62653571D01*
X106592857Y-62475000D01*
X106628571Y-62332142D01*
X106664285Y-62260714D01*
X106700000Y-62225000D01*
X106771428Y-62189285D01*
X107342857Y-62867857D02*
X107378571Y-62903571D01*
X107342857Y-62939285D01*
X107307142Y-62903571D01*
X107342857Y-62867857D01*
X107342857Y-62939285D01*
X107842857Y-62189285D02*
X107914285Y-62189285D01*
X107985714Y-62225000D01*
X108021428Y-62260714D01*
X108057142Y-62332142D01*
X108092857Y-62475000D01*
X108092857Y-62653571D01*
X108057142Y-62796428D01*
X108021428Y-62867857D01*
X107985714Y-62903571D01*
X107914285Y-62939285D01*
X107842857Y-62939285D01*
X107771428Y-62903571D01*
X107735714Y-62867857D01*
X107700000Y-62796428D01*
X107664285Y-62653571D01*
X107664285Y-62475000D01*
X107700000Y-62332142D01*
X107735714Y-62260714D01*
X107771428Y-62225000D01*
X107842857Y-62189285D01*
X108378571Y-62260714D02*
X108414285Y-62225000D01*
X108485714Y-62189285D01*
X108664285Y-62189285D01*
X108735714Y-62225000D01*
X108771428Y-62260714D01*
X108807142Y-62332142D01*
X108807142Y-62403571D01*
X108771428Y-62510714D01*
X108342857Y-62939285D01*
X108807142Y-62939285D01*
X106771428Y-55789285D02*
X106842857Y-55789285D01*
X106914285Y-55825000D01*
X106950000Y-55860714D01*
X106985714Y-55932142D01*
X107021428Y-56075000D01*
X107021428Y-56253571D01*
X106985714Y-56396428D01*
X106950000Y-56467857D01*
X106914285Y-56503571D01*
X106842857Y-56539285D01*
X106771428Y-56539285D01*
X106700000Y-56503571D01*
X106664285Y-56467857D01*
X106628571Y-56396428D01*
X106592857Y-56253571D01*
X106592857Y-56075000D01*
X106628571Y-55932142D01*
X106664285Y-55860714D01*
X106700000Y-55825000D01*
X106771428Y-55789285D01*
X107342857Y-56467857D02*
X107378571Y-56503571D01*
X107342857Y-56539285D01*
X107307142Y-56503571D01*
X107342857Y-56467857D01*
X107342857Y-56539285D01*
X107842857Y-55789285D02*
X107914285Y-55789285D01*
X107985714Y-55825000D01*
X108021428Y-55860714D01*
X108057142Y-55932142D01*
X108092857Y-56075000D01*
X108092857Y-56253571D01*
X108057142Y-56396428D01*
X108021428Y-56467857D01*
X107985714Y-56503571D01*
X107914285Y-56539285D01*
X107842857Y-56539285D01*
X107771428Y-56503571D01*
X107735714Y-56467857D01*
X107700000Y-56396428D01*
X107664285Y-56253571D01*
X107664285Y-56075000D01*
X107700000Y-55932142D01*
X107735714Y-55860714D01*
X107771428Y-55825000D01*
X107842857Y-55789285D01*
X108342857Y-55789285D02*
X108807142Y-55789285D01*
X108557142Y-56075000D01*
X108664285Y-56075000D01*
X108735714Y-56110714D01*
X108771428Y-56146428D01*
X108807142Y-56217857D01*
X108807142Y-56396428D01*
X108771428Y-56467857D01*
X108735714Y-56503571D01*
X108664285Y-56539285D01*
X108450000Y-56539285D01*
X108378571Y-56503571D01*
X108342857Y-56467857D01*
X106771428Y-54489285D02*
X106842857Y-54489285D01*
X106914285Y-54525000D01*
X106950000Y-54560714D01*
X106985714Y-54632142D01*
X107021428Y-54775000D01*
X107021428Y-54953571D01*
X106985714Y-55096428D01*
X106950000Y-55167857D01*
X106914285Y-55203571D01*
X106842857Y-55239285D01*
X106771428Y-55239285D01*
X106700000Y-55203571D01*
X106664285Y-55167857D01*
X106628571Y-55096428D01*
X106592857Y-54953571D01*
X106592857Y-54775000D01*
X106628571Y-54632142D01*
X106664285Y-54560714D01*
X106700000Y-54525000D01*
X106771428Y-54489285D01*
X107342857Y-55167857D02*
X107378571Y-55203571D01*
X107342857Y-55239285D01*
X107307142Y-55203571D01*
X107342857Y-55167857D01*
X107342857Y-55239285D01*
X107842857Y-54489285D02*
X107914285Y-54489285D01*
X107985714Y-54525000D01*
X108021428Y-54560714D01*
X108057142Y-54632142D01*
X108092857Y-54775000D01*
X108092857Y-54953571D01*
X108057142Y-55096428D01*
X108021428Y-55167857D01*
X107985714Y-55203571D01*
X107914285Y-55239285D01*
X107842857Y-55239285D01*
X107771428Y-55203571D01*
X107735714Y-55167857D01*
X107700000Y-55096428D01*
X107664285Y-54953571D01*
X107664285Y-54775000D01*
X107700000Y-54632142D01*
X107735714Y-54560714D01*
X107771428Y-54525000D01*
X107842857Y-54489285D01*
X108771428Y-54489285D02*
X108414285Y-54489285D01*
X108378571Y-54846428D01*
X108414285Y-54810714D01*
X108485714Y-54775000D01*
X108664285Y-54775000D01*
X108735714Y-54810714D01*
X108771428Y-54846428D01*
X108807142Y-54917857D01*
X108807142Y-55096428D01*
X108771428Y-55167857D01*
X108735714Y-55203571D01*
X108664285Y-55239285D01*
X108485714Y-55239285D01*
X108414285Y-55203571D01*
X108378571Y-55167857D01*
X106771428Y-53189285D02*
X106842857Y-53189285D01*
X106914285Y-53225000D01*
X106950000Y-53260714D01*
X106985714Y-53332142D01*
X107021428Y-53475000D01*
X107021428Y-53653571D01*
X106985714Y-53796428D01*
X106950000Y-53867857D01*
X106914285Y-53903571D01*
X106842857Y-53939285D01*
X106771428Y-53939285D01*
X106700000Y-53903571D01*
X106664285Y-53867857D01*
X106628571Y-53796428D01*
X106592857Y-53653571D01*
X106592857Y-53475000D01*
X106628571Y-53332142D01*
X106664285Y-53260714D01*
X106700000Y-53225000D01*
X106771428Y-53189285D01*
X107342857Y-53867857D02*
X107378571Y-53903571D01*
X107342857Y-53939285D01*
X107307142Y-53903571D01*
X107342857Y-53867857D01*
X107342857Y-53939285D01*
X107664285Y-53260714D02*
X107700000Y-53225000D01*
X107771428Y-53189285D01*
X107950000Y-53189285D01*
X108021428Y-53225000D01*
X108057142Y-53260714D01*
X108092857Y-53332142D01*
X108092857Y-53403571D01*
X108057142Y-53510714D01*
X107628571Y-53939285D01*
X108092857Y-53939285D01*
X108557142Y-53189285D02*
X108628571Y-53189285D01*
X108700000Y-53225000D01*
X108735714Y-53260714D01*
X108771428Y-53332142D01*
X108807142Y-53475000D01*
X108807142Y-53653571D01*
X108771428Y-53796428D01*
X108735714Y-53867857D01*
X108700000Y-53903571D01*
X108628571Y-53939285D01*
X108557142Y-53939285D01*
X108485714Y-53903571D01*
X108450000Y-53867857D01*
X108414285Y-53796428D01*
X108378571Y-53653571D01*
X108378571Y-53475000D01*
X108414285Y-53332142D01*
X108450000Y-53260714D01*
X108485714Y-53225000D01*
X108557142Y-53189285D01*
X106771428Y-50689285D02*
X106842857Y-50689285D01*
X106914285Y-50725000D01*
X106950000Y-50760714D01*
X106985714Y-50832142D01*
X107021428Y-50975000D01*
X107021428Y-51153571D01*
X106985714Y-51296428D01*
X106950000Y-51367857D01*
X106914285Y-51403571D01*
X106842857Y-51439285D01*
X106771428Y-51439285D01*
X106700000Y-51403571D01*
X106664285Y-51367857D01*
X106628571Y-51296428D01*
X106592857Y-51153571D01*
X106592857Y-50975000D01*
X106628571Y-50832142D01*
X106664285Y-50760714D01*
X106700000Y-50725000D01*
X106771428Y-50689285D01*
X107342857Y-51367857D02*
X107378571Y-51403571D01*
X107342857Y-51439285D01*
X107307142Y-51403571D01*
X107342857Y-51367857D01*
X107342857Y-51439285D01*
X107628571Y-50689285D02*
X108092857Y-50689285D01*
X107842857Y-50975000D01*
X107950000Y-50975000D01*
X108021428Y-51010714D01*
X108057142Y-51046428D01*
X108092857Y-51117857D01*
X108092857Y-51296428D01*
X108057142Y-51367857D01*
X108021428Y-51403571D01*
X107950000Y-51439285D01*
X107735714Y-51439285D01*
X107664285Y-51403571D01*
X107628571Y-51367857D01*
X108557142Y-50689285D02*
X108628571Y-50689285D01*
X108700000Y-50725000D01*
X108735714Y-50760714D01*
X108771428Y-50832142D01*
X108807142Y-50975000D01*
X108807142Y-51153571D01*
X108771428Y-51296428D01*
X108735714Y-51367857D01*
X108700000Y-51403571D01*
X108628571Y-51439285D01*
X108557142Y-51439285D01*
X108485714Y-51403571D01*
X108450000Y-51367857D01*
X108414285Y-51296428D01*
X108378571Y-51153571D01*
X108378571Y-50975000D01*
X108414285Y-50832142D01*
X108450000Y-50760714D01*
X108485714Y-50725000D01*
X108557142Y-50689285D01*
D11*
%TO.C,J5*%
X109390000Y-65765000D02*
X110192470Y-65765000D01*
X110807530Y-65765000D02*
X111610000Y-65765000D01*
X109390000Y-51860000D02*
X109390000Y-65765000D01*
X111610000Y-51860000D02*
X111610000Y-65765000D01*
X109390000Y-51860000D02*
X109936529Y-51860000D01*
X111063471Y-51860000D02*
X111610000Y-51860000D01*
X109390000Y-51100000D02*
X109390000Y-50340000D01*
X109390000Y-50340000D02*
X110500000Y-50340000D01*
%TO.C,J6*%
X110910000Y-74630000D02*
X110910000Y-69430000D01*
X105770000Y-74630000D02*
X110910000Y-74630000D01*
X103170000Y-69430000D02*
X110910000Y-69430000D01*
X105770000Y-74630000D02*
X105770000Y-72030000D01*
X105770000Y-72030000D02*
X103170000Y-72030000D01*
X103170000Y-72030000D02*
X103170000Y-69430000D01*
X104500000Y-74630000D02*
X103170000Y-74630000D01*
X103170000Y-74630000D02*
X103170000Y-73300000D01*
%TO.C,C7*%
X96184420Y-67810000D02*
X96465580Y-67810000D01*
X96184420Y-66790000D02*
X96465580Y-66790000D01*
%TO.C,J2*%
X101530000Y-75430000D02*
X98870000Y-75430000D01*
X101530000Y-78030000D02*
X101530000Y-75430000D01*
X98870000Y-78030000D02*
X98870000Y-75430000D01*
X101530000Y-78030000D02*
X98870000Y-78030000D01*
X101530000Y-79300000D02*
X101530000Y-80630000D01*
X101530000Y-80630000D02*
X100200000Y-80630000D01*
%TO.C,C14*%
X94510000Y-61209420D02*
X94510000Y-61490580D01*
X93490000Y-61209420D02*
X93490000Y-61490580D01*
%TO.C,TP3*%
X76305000Y-52615000D02*
X77000000Y-52615000D01*
X76305000Y-53300000D02*
X76305000Y-52615000D01*
X77608276Y-53985000D02*
X77695000Y-53985000D01*
X76305000Y-53985000D02*
X76391724Y-53985000D01*
X77695000Y-53985000D02*
X77695000Y-53860000D01*
X76305000Y-53985000D02*
X76305000Y-53860000D01*
X76305000Y-53985000D02*
X77695000Y-53985000D01*
%TO.C,TP2*%
X86405000Y-72815000D02*
X87100000Y-72815000D01*
X86405000Y-73500000D02*
X86405000Y-72815000D01*
X87708276Y-74185000D02*
X87795000Y-74185000D01*
X86405000Y-74185000D02*
X86491724Y-74185000D01*
X87795000Y-74185000D02*
X87795000Y-74060000D01*
X86405000Y-74185000D02*
X86405000Y-74060000D01*
X86405000Y-74185000D02*
X87795000Y-74185000D01*
%TO.C,TP1*%
X89005000Y-71815000D02*
X89700000Y-71815000D01*
X89005000Y-72500000D02*
X89005000Y-71815000D01*
X90308276Y-73185000D02*
X90395000Y-73185000D01*
X89005000Y-73185000D02*
X89091724Y-73185000D01*
X90395000Y-73185000D02*
X90395000Y-73060000D01*
X89005000Y-73185000D02*
X89005000Y-73060000D01*
X89005000Y-73185000D02*
X90395000Y-73185000D01*
%TO.C,R13*%
X84737258Y-75077500D02*
X84262742Y-75077500D01*
X84737258Y-76122500D02*
X84262742Y-76122500D01*
%TO.C,D2*%
X79915000Y-76335000D02*
X82200000Y-76335000D01*
X79915000Y-74865000D02*
X79915000Y-76335000D01*
X82200000Y-74865000D02*
X79915000Y-74865000D01*
%TO.C,J3*%
X104165000Y-65570000D02*
X104165000Y-65635000D01*
X100635000Y-65570000D02*
X100635000Y-65635000D01*
X104165000Y-59165000D02*
X104165000Y-59230000D01*
X100635000Y-59165000D02*
X100635000Y-59230000D01*
X99310000Y-59230000D02*
X100635000Y-59230000D01*
X100635000Y-65635000D02*
X104165000Y-65635000D01*
X100635000Y-59165000D02*
X104165000Y-59165000D01*
%TO.C,J4*%
X87492000Y-60896000D02*
X87492000Y-63556000D01*
X90092000Y-60896000D02*
X87492000Y-60896000D01*
X90092000Y-63556000D02*
X87492000Y-63556000D01*
X90092000Y-60896000D02*
X90092000Y-63556000D01*
X91362000Y-60896000D02*
X92692000Y-60896000D01*
X92692000Y-60896000D02*
X92692000Y-62226000D01*
%TO.C,J1*%
X92080000Y-75480000D02*
X89420000Y-75480000D01*
X92080000Y-78080000D02*
X92080000Y-75480000D01*
X89420000Y-78080000D02*
X89420000Y-75480000D01*
X92080000Y-78080000D02*
X89420000Y-78080000D01*
X92080000Y-79350000D02*
X92080000Y-80680000D01*
X92080000Y-80680000D02*
X90750000Y-80680000D01*
D12*
%TO.C,U4*%
X79912000Y-51420000D02*
X79912000Y-49820000D01*
X81512000Y-51420000D02*
X79912000Y-51420000D01*
X81512000Y-49820000D02*
X81512000Y-51420000D01*
X79912000Y-49820000D02*
X81512000Y-49820000D01*
D11*
X79712000Y-50020000D02*
G75*
G03*
X79712000Y-50020000I-100000J0D01*
G01*
%TO.C,C1*%
X81876000Y-50512164D02*
X81876000Y-50727836D01*
X82596000Y-50512164D02*
X82596000Y-50727836D01*
%TO.C,C2*%
X78640000Y-50687836D02*
X78640000Y-50472164D01*
X79360000Y-50687836D02*
X79360000Y-50472164D01*
%TO.C,C3*%
X84492164Y-77660000D02*
X84707836Y-77660000D01*
X84492164Y-76940000D02*
X84707836Y-76940000D01*
%TO.C,C4*%
X105492164Y-76840000D02*
X105707836Y-76840000D01*
X105492164Y-77560000D02*
X105707836Y-77560000D01*
%TO.C,C5*%
X94890580Y-65265000D02*
X94609420Y-65265000D01*
X94890580Y-66285000D02*
X94609420Y-66285000D01*
%TO.C,C6*%
X93215580Y-67835000D02*
X92934420Y-67835000D01*
X93215580Y-66815000D02*
X92934420Y-66815000D01*
%TO.C,C8*%
X83181252Y-74195000D02*
X82658748Y-74195000D01*
X83181252Y-72725000D02*
X82658748Y-72725000D01*
%TO.C,C9*%
X83181252Y-70675000D02*
X82658748Y-70675000D01*
X83181252Y-72145000D02*
X82658748Y-72145000D01*
%TO.C,C10*%
X84192164Y-70010000D02*
X84407836Y-70010000D01*
X84192164Y-69290000D02*
X84407836Y-69290000D01*
%TO.C,C11*%
X79310000Y-57559420D02*
X79310000Y-57840580D01*
X78290000Y-57559420D02*
X78290000Y-57840580D01*
%TO.C,C12*%
X81159420Y-61010000D02*
X81440580Y-61010000D01*
X81159420Y-59990000D02*
X81440580Y-59990000D01*
%TO.C,C13*%
X84661252Y-64315000D02*
X84138748Y-64315000D01*
X84661252Y-65785000D02*
X84138748Y-65785000D01*
%TO.C,D1*%
X84100000Y-45600000D02*
G75*
G03*
X84100000Y-45600000I-200000J0D01*
G01*
X79000000Y-49300000D02*
X79000000Y-45300000D01*
X83400000Y-49300000D02*
X79000000Y-49300000D01*
X83400000Y-45300000D02*
X83400000Y-49300000D01*
X79000000Y-45300000D02*
X83400000Y-45300000D01*
%TO.C,L1*%
X82360000Y-67761252D02*
X82360000Y-67238748D01*
X80140000Y-67761252D02*
X80140000Y-67238748D01*
%TO.C,Q1*%
X88556000Y-51414000D02*
X90016000Y-51414000D01*
X88556000Y-54574000D02*
X90716000Y-54574000D01*
X88556000Y-54574000D02*
X88556000Y-53644000D01*
X88556000Y-51414000D02*
X88556000Y-52344000D01*
%TO.C,Q2*%
X88556000Y-47720000D02*
X90016000Y-47720000D01*
X88556000Y-50880000D02*
X90716000Y-50880000D01*
X88556000Y-50880000D02*
X88556000Y-49950000D01*
X88556000Y-47720000D02*
X88556000Y-48650000D01*
%TO.C,Q4*%
X88090000Y-56920000D02*
X89550000Y-56920000D01*
X88090000Y-60080000D02*
X90250000Y-60080000D01*
X88090000Y-60080000D02*
X88090000Y-59150000D01*
X88090000Y-56920000D02*
X88090000Y-57850000D01*
%TO.C,R1*%
X91177500Y-72387258D02*
X91177500Y-71912742D01*
X92222500Y-72387258D02*
X92222500Y-71912742D01*
%TO.C,R2*%
X79146359Y-52680000D02*
X79453641Y-52680000D01*
X79146359Y-51920000D02*
X79453641Y-51920000D01*
%TO.C,R3*%
X97722500Y-77987258D02*
X97722500Y-77512742D01*
X96677500Y-77987258D02*
X96677500Y-77512742D01*
%TO.C,R4*%
X93377500Y-77987258D02*
X93377500Y-77512742D01*
X94422500Y-77987258D02*
X94422500Y-77512742D01*
%TO.C,R5*%
X92907500Y-52462742D02*
X92907500Y-52937258D01*
X93952500Y-52462742D02*
X93952500Y-52937258D01*
%TO.C,R6*%
X92937500Y-48862742D02*
X92937500Y-49337258D01*
X93982500Y-48862742D02*
X93982500Y-49337258D01*
%TO.C,R7*%
X91337500Y-53147258D02*
X91337500Y-52672742D01*
X92382500Y-53147258D02*
X92382500Y-52672742D01*
%TO.C,R8*%
X91367500Y-49497258D02*
X91367500Y-49022742D01*
X92412500Y-49497258D02*
X92412500Y-49022742D01*
%TO.C,R9*%
X86572500Y-69137258D02*
X86572500Y-68662742D01*
X85527500Y-69137258D02*
X85527500Y-68662742D01*
%TO.C,R10*%
X88122500Y-68662742D02*
X88122500Y-69137258D01*
X87077500Y-68662742D02*
X87077500Y-69137258D01*
%TO.C,R11*%
X91862742Y-58022500D02*
X92337258Y-58022500D01*
X91862742Y-56977500D02*
X92337258Y-56977500D01*
%TO.C,R12*%
X92287258Y-58527500D02*
X91812742Y-58527500D01*
X92287258Y-59572500D02*
X91812742Y-59572500D01*
%TO.C,U1*%
X85560000Y-81280000D02*
X85560000Y-80350000D01*
X85560000Y-78120000D02*
X85560000Y-79050000D01*
X85560000Y-78120000D02*
X83400000Y-78120000D01*
X85560000Y-81280000D02*
X84100000Y-81280000D01*
%TO.C,U2*%
X106460000Y-81380000D02*
X106460000Y-80450000D01*
X106460000Y-78220000D02*
X106460000Y-79150000D01*
X106460000Y-78220000D02*
X104300000Y-78220000D01*
X106460000Y-81380000D02*
X105000000Y-81380000D01*
%TO.C,U3*%
X92740000Y-72000000D02*
X92740000Y-75650000D01*
X92740000Y-72000000D02*
X92740000Y-69800000D01*
X98260000Y-72000000D02*
X98260000Y-74200000D01*
X98260000Y-72000000D02*
X98260000Y-69800000D01*
D12*
%TO.C,U5*%
X95596200Y-56379600D02*
X105603800Y-56379600D01*
X95596200Y-56379600D02*
X95596200Y-42079400D01*
X105603800Y-56379600D02*
X105603800Y-42079400D01*
X95596200Y-42079400D02*
X105603800Y-42079400D01*
D11*
%TO.C,U6*%
X79790000Y-56900000D02*
X79790000Y-59350000D01*
X83010000Y-58700000D02*
X83010000Y-56900000D01*
D13*
%TO.C,U7*%
X82900000Y-66400000D02*
G75*
G03*
X82900000Y-66400000I-100000J0D01*
G01*
D11*
X82875000Y-68845000D02*
X82875000Y-68307500D01*
X83252500Y-68845000D02*
X82875000Y-68845000D01*
X84625000Y-66455000D02*
X84625000Y-66992500D01*
X84247500Y-66455000D02*
X84625000Y-66455000D01*
X84625000Y-68845000D02*
X84625000Y-68307500D01*
X84247500Y-68845000D02*
X84625000Y-68845000D01*
X84625000Y-66455000D02*
X84625000Y-66992500D01*
X84247500Y-66455000D02*
X84625000Y-66455000D01*
X84625000Y-66455000D02*
X84625000Y-66992500D01*
X84247500Y-66455000D02*
X84625000Y-66455000D01*
%TD*%
%TO.C,J5*%
D10*
X110166666Y-48857380D02*
X110166666Y-49571666D01*
X110119047Y-49714523D01*
X110023809Y-49809761D01*
X109880952Y-49857380D01*
X109785714Y-49857380D01*
X111119047Y-48857380D02*
X110642857Y-48857380D01*
X110595238Y-49333571D01*
X110642857Y-49285952D01*
X110738095Y-49238333D01*
X110976190Y-49238333D01*
X111071428Y-49285952D01*
X111119047Y-49333571D01*
X111166666Y-49428809D01*
X111166666Y-49666904D01*
X111119047Y-49762142D01*
X111071428Y-49809761D01*
X110976190Y-49857380D01*
X110738095Y-49857380D01*
X110642857Y-49809761D01*
X110595238Y-49762142D01*
%TO.C,C7*%
X97133333Y-66157142D02*
X97085714Y-66204761D01*
X96942857Y-66252380D01*
X96847619Y-66252380D01*
X96704761Y-66204761D01*
X96609523Y-66109523D01*
X96561904Y-66014285D01*
X96514285Y-65823809D01*
X96514285Y-65680952D01*
X96561904Y-65490476D01*
X96609523Y-65395238D01*
X96704761Y-65300000D01*
X96847619Y-65252380D01*
X96942857Y-65252380D01*
X97085714Y-65300000D01*
X97133333Y-65347619D01*
X97466666Y-65252380D02*
X98133333Y-65252380D01*
X97704761Y-66252380D01*
%TO.C,J2*%
X102266666Y-78752380D02*
X102266666Y-79466666D01*
X102219047Y-79609523D01*
X102123809Y-79704761D01*
X101980952Y-79752380D01*
X101885714Y-79752380D01*
X102695238Y-78847619D02*
X102742857Y-78800000D01*
X102838095Y-78752380D01*
X103076190Y-78752380D01*
X103171428Y-78800000D01*
X103219047Y-78847619D01*
X103266666Y-78942857D01*
X103266666Y-79038095D01*
X103219047Y-79180952D01*
X102647619Y-79752380D01*
X103266666Y-79752380D01*
%TO.C,C14*%
X95857142Y-62042857D02*
X95904761Y-62090476D01*
X95952380Y-62233333D01*
X95952380Y-62328571D01*
X95904761Y-62471428D01*
X95809523Y-62566666D01*
X95714285Y-62614285D01*
X95523809Y-62661904D01*
X95380952Y-62661904D01*
X95190476Y-62614285D01*
X95095238Y-62566666D01*
X95000000Y-62471428D01*
X94952380Y-62328571D01*
X94952380Y-62233333D01*
X95000000Y-62090476D01*
X95047619Y-62042857D01*
X95952380Y-61090476D02*
X95952380Y-61661904D01*
X95952380Y-61376190D02*
X94952380Y-61376190D01*
X95095238Y-61471428D01*
X95190476Y-61566666D01*
X95238095Y-61661904D01*
X95285714Y-60233333D02*
X95952380Y-60233333D01*
X94904761Y-60471428D02*
X95619047Y-60709523D01*
X95619047Y-60090476D01*
%TO.C,R13*%
X86717857Y-75939285D02*
X86467857Y-75582142D01*
X86289285Y-75939285D02*
X86289285Y-75189285D01*
X86575000Y-75189285D01*
X86646428Y-75225000D01*
X86682142Y-75260714D01*
X86717857Y-75332142D01*
X86717857Y-75439285D01*
X86682142Y-75510714D01*
X86646428Y-75546428D01*
X86575000Y-75582142D01*
X86289285Y-75582142D01*
X87432142Y-75939285D02*
X87003571Y-75939285D01*
X87217857Y-75939285D02*
X87217857Y-75189285D01*
X87146428Y-75296428D01*
X87075000Y-75367857D01*
X87003571Y-75403571D01*
X87682142Y-75189285D02*
X88146428Y-75189285D01*
X87896428Y-75475000D01*
X88003571Y-75475000D01*
X88075000Y-75510714D01*
X88110714Y-75546428D01*
X88146428Y-75617857D01*
X88146428Y-75796428D01*
X88110714Y-75867857D01*
X88075000Y-75903571D01*
X88003571Y-75939285D01*
X87789285Y-75939285D01*
X87717857Y-75903571D01*
X87682142Y-75867857D01*
%TO.C,D2*%
X78061904Y-75752380D02*
X78061904Y-74752380D01*
X78300000Y-74752380D01*
X78442857Y-74800000D01*
X78538095Y-74895238D01*
X78585714Y-74990476D01*
X78633333Y-75180952D01*
X78633333Y-75323809D01*
X78585714Y-75514285D01*
X78538095Y-75609523D01*
X78442857Y-75704761D01*
X78300000Y-75752380D01*
X78061904Y-75752380D01*
X79014285Y-74847619D02*
X79061904Y-74800000D01*
X79157142Y-74752380D01*
X79395238Y-74752380D01*
X79490476Y-74800000D01*
X79538095Y-74847619D01*
X79585714Y-74942857D01*
X79585714Y-75038095D01*
X79538095Y-75180952D01*
X78966666Y-75752380D01*
X79585714Y-75752380D01*
%TO.C,J3*%
X102066666Y-57617380D02*
X102066666Y-58331666D01*
X102019047Y-58474523D01*
X101923809Y-58569761D01*
X101780952Y-58617380D01*
X101685714Y-58617380D01*
X102447619Y-57617380D02*
X103066666Y-57617380D01*
X102733333Y-57998333D01*
X102876190Y-57998333D01*
X102971428Y-58045952D01*
X103019047Y-58093571D01*
X103066666Y-58188809D01*
X103066666Y-58426904D01*
X103019047Y-58522142D01*
X102971428Y-58569761D01*
X102876190Y-58617380D01*
X102590476Y-58617380D01*
X102495238Y-58569761D01*
X102447619Y-58522142D01*
%TO.C,J4*%
X85866666Y-60852380D02*
X85866666Y-61566666D01*
X85819047Y-61709523D01*
X85723809Y-61804761D01*
X85580952Y-61852380D01*
X85485714Y-61852380D01*
X86771428Y-61185714D02*
X86771428Y-61852380D01*
X86533333Y-60804761D02*
X86295238Y-61519047D01*
X86914285Y-61519047D01*
%TO.C,J1*%
X87766666Y-78852380D02*
X87766666Y-79566666D01*
X87719047Y-79709523D01*
X87623809Y-79804761D01*
X87480952Y-79852380D01*
X87385714Y-79852380D01*
X88766666Y-79852380D02*
X88195238Y-79852380D01*
X88480952Y-79852380D02*
X88480952Y-78852380D01*
X88385714Y-78995238D01*
X88290476Y-79090476D01*
X88195238Y-79138095D01*
%TO.C,U4*%
X80638095Y-51952380D02*
X80638095Y-52761904D01*
X80685714Y-52857142D01*
X80733333Y-52904761D01*
X80828571Y-52952380D01*
X81019047Y-52952380D01*
X81114285Y-52904761D01*
X81161904Y-52857142D01*
X81209523Y-52761904D01*
X81209523Y-51952380D01*
X82114285Y-52285714D02*
X82114285Y-52952380D01*
X81876190Y-51904761D02*
X81638095Y-52619047D01*
X82257142Y-52619047D01*
%TO.C,C1*%
X83593333Y-50977142D02*
X83545714Y-51024761D01*
X83402857Y-51072380D01*
X83307619Y-51072380D01*
X83164761Y-51024761D01*
X83069523Y-50929523D01*
X83021904Y-50834285D01*
X82974285Y-50643809D01*
X82974285Y-50500952D01*
X83021904Y-50310476D01*
X83069523Y-50215238D01*
X83164761Y-50120000D01*
X83307619Y-50072380D01*
X83402857Y-50072380D01*
X83545714Y-50120000D01*
X83593333Y-50167619D01*
X84545714Y-51072380D02*
X83974285Y-51072380D01*
X84260000Y-51072380D02*
X84260000Y-50072380D01*
X84164761Y-50215238D01*
X84069523Y-50310476D01*
X83974285Y-50358095D01*
%TO.C,C2*%
X78197142Y-50746666D02*
X78244761Y-50794285D01*
X78292380Y-50937142D01*
X78292380Y-51032380D01*
X78244761Y-51175238D01*
X78149523Y-51270476D01*
X78054285Y-51318095D01*
X77863809Y-51365714D01*
X77720952Y-51365714D01*
X77530476Y-51318095D01*
X77435238Y-51270476D01*
X77340000Y-51175238D01*
X77292380Y-51032380D01*
X77292380Y-50937142D01*
X77340000Y-50794285D01*
X77387619Y-50746666D01*
X77387619Y-50365714D02*
X77340000Y-50318095D01*
X77292380Y-50222857D01*
X77292380Y-49984761D01*
X77340000Y-49889523D01*
X77387619Y-49841904D01*
X77482857Y-49794285D01*
X77578095Y-49794285D01*
X77720952Y-49841904D01*
X78292380Y-50413333D01*
X78292380Y-49794285D01*
%TO.C,C3*%
X82675000Y-77567857D02*
X82639285Y-77603571D01*
X82532142Y-77639285D01*
X82460714Y-77639285D01*
X82353571Y-77603571D01*
X82282142Y-77532142D01*
X82246428Y-77460714D01*
X82210714Y-77317857D01*
X82210714Y-77210714D01*
X82246428Y-77067857D01*
X82282142Y-76996428D01*
X82353571Y-76925000D01*
X82460714Y-76889285D01*
X82532142Y-76889285D01*
X82639285Y-76925000D01*
X82675000Y-76960714D01*
X82925000Y-76889285D02*
X83389285Y-76889285D01*
X83139285Y-77175000D01*
X83246428Y-77175000D01*
X83317857Y-77210714D01*
X83353571Y-77246428D01*
X83389285Y-77317857D01*
X83389285Y-77496428D01*
X83353571Y-77567857D01*
X83317857Y-77603571D01*
X83246428Y-77639285D01*
X83032142Y-77639285D01*
X82960714Y-77603571D01*
X82925000Y-77567857D01*
%TO.C,C4*%
X103675000Y-77467857D02*
X103639285Y-77503571D01*
X103532142Y-77539285D01*
X103460714Y-77539285D01*
X103353571Y-77503571D01*
X103282142Y-77432142D01*
X103246428Y-77360714D01*
X103210714Y-77217857D01*
X103210714Y-77110714D01*
X103246428Y-76967857D01*
X103282142Y-76896428D01*
X103353571Y-76825000D01*
X103460714Y-76789285D01*
X103532142Y-76789285D01*
X103639285Y-76825000D01*
X103675000Y-76860714D01*
X104317857Y-77039285D02*
X104317857Y-77539285D01*
X104139285Y-76753571D02*
X103960714Y-77289285D01*
X104425000Y-77289285D01*
%TO.C,C5*%
X94603333Y-64642142D02*
X94555714Y-64689761D01*
X94412857Y-64737380D01*
X94317619Y-64737380D01*
X94174761Y-64689761D01*
X94079523Y-64594523D01*
X94031904Y-64499285D01*
X93984285Y-64308809D01*
X93984285Y-64165952D01*
X94031904Y-63975476D01*
X94079523Y-63880238D01*
X94174761Y-63785000D01*
X94317619Y-63737380D01*
X94412857Y-63737380D01*
X94555714Y-63785000D01*
X94603333Y-63832619D01*
X95508095Y-63737380D02*
X95031904Y-63737380D01*
X94984285Y-64213571D01*
X95031904Y-64165952D01*
X95127142Y-64118333D01*
X95365238Y-64118333D01*
X95460476Y-64165952D01*
X95508095Y-64213571D01*
X95555714Y-64308809D01*
X95555714Y-64546904D01*
X95508095Y-64642142D01*
X95460476Y-64689761D01*
X95365238Y-64737380D01*
X95127142Y-64737380D01*
X95031904Y-64689761D01*
X94984285Y-64642142D01*
%TO.C,C6*%
X91933333Y-66157142D02*
X91885714Y-66204761D01*
X91742857Y-66252380D01*
X91647619Y-66252380D01*
X91504761Y-66204761D01*
X91409523Y-66109523D01*
X91361904Y-66014285D01*
X91314285Y-65823809D01*
X91314285Y-65680952D01*
X91361904Y-65490476D01*
X91409523Y-65395238D01*
X91504761Y-65300000D01*
X91647619Y-65252380D01*
X91742857Y-65252380D01*
X91885714Y-65300000D01*
X91933333Y-65347619D01*
X92790476Y-65252380D02*
X92600000Y-65252380D01*
X92504761Y-65300000D01*
X92457142Y-65347619D01*
X92361904Y-65490476D01*
X92314285Y-65680952D01*
X92314285Y-66061904D01*
X92361904Y-66157142D01*
X92409523Y-66204761D01*
X92504761Y-66252380D01*
X92695238Y-66252380D01*
X92790476Y-66204761D01*
X92838095Y-66157142D01*
X92885714Y-66061904D01*
X92885714Y-65823809D01*
X92838095Y-65728571D01*
X92790476Y-65680952D01*
X92695238Y-65633333D01*
X92504761Y-65633333D01*
X92409523Y-65680952D01*
X92361904Y-65728571D01*
X92314285Y-65823809D01*
%TO.C,C8*%
X80033333Y-73836141D02*
X79985714Y-73883760D01*
X79842857Y-73931379D01*
X79747619Y-73931379D01*
X79604761Y-73883760D01*
X79509523Y-73788522D01*
X79461904Y-73693284D01*
X79414285Y-73502808D01*
X79414285Y-73359951D01*
X79461904Y-73169475D01*
X79509523Y-73074237D01*
X79604761Y-72978999D01*
X79747619Y-72931379D01*
X79842857Y-72931379D01*
X79985714Y-72978999D01*
X80033333Y-73026618D01*
X80604761Y-73359951D02*
X80509523Y-73312332D01*
X80461904Y-73264713D01*
X80414285Y-73169475D01*
X80414285Y-73121856D01*
X80461904Y-73026618D01*
X80509523Y-72978999D01*
X80604761Y-72931379D01*
X80795238Y-72931379D01*
X80890476Y-72978999D01*
X80938095Y-73026618D01*
X80985714Y-73121856D01*
X80985714Y-73169475D01*
X80938095Y-73264713D01*
X80890476Y-73312332D01*
X80795238Y-73359951D01*
X80604761Y-73359951D01*
X80509523Y-73407570D01*
X80461904Y-73455189D01*
X80414285Y-73550427D01*
X80414285Y-73740903D01*
X80461904Y-73836141D01*
X80509523Y-73883760D01*
X80604761Y-73931379D01*
X80795238Y-73931379D01*
X80890476Y-73883760D01*
X80938095Y-73836141D01*
X80985714Y-73740903D01*
X80985714Y-73550427D01*
X80938095Y-73455189D01*
X80890476Y-73407570D01*
X80795238Y-73359951D01*
%TO.C,C9*%
X80033333Y-71757142D02*
X79985714Y-71804761D01*
X79842857Y-71852380D01*
X79747619Y-71852380D01*
X79604761Y-71804761D01*
X79509523Y-71709523D01*
X79461904Y-71614285D01*
X79414285Y-71423809D01*
X79414285Y-71280952D01*
X79461904Y-71090476D01*
X79509523Y-70995238D01*
X79604761Y-70900000D01*
X79747619Y-70852380D01*
X79842857Y-70852380D01*
X79985714Y-70900000D01*
X80033333Y-70947619D01*
X80509523Y-71852380D02*
X80700000Y-71852380D01*
X80795238Y-71804761D01*
X80842857Y-71757142D01*
X80938095Y-71614285D01*
X80985714Y-71423809D01*
X80985714Y-71042857D01*
X80938095Y-70947619D01*
X80890476Y-70900000D01*
X80795238Y-70852380D01*
X80604761Y-70852380D01*
X80509523Y-70900000D01*
X80461904Y-70947619D01*
X80414285Y-71042857D01*
X80414285Y-71280952D01*
X80461904Y-71376190D01*
X80509523Y-71423809D01*
X80604761Y-71471428D01*
X80795238Y-71471428D01*
X80890476Y-71423809D01*
X80938095Y-71376190D01*
X80985714Y-71280952D01*
%TO.C,C10*%
D11*
X81750000Y-70200000D02*
X81716666Y-70233333D01*
X81616666Y-70266666D01*
X81550000Y-70266666D01*
X81450000Y-70233333D01*
X81383333Y-70166666D01*
X81350000Y-70100000D01*
X81316666Y-69966666D01*
X81316666Y-69866666D01*
X81350000Y-69733333D01*
X81383333Y-69666666D01*
X81450000Y-69600000D01*
X81550000Y-69566666D01*
X81616666Y-69566666D01*
X81716666Y-69600000D01*
X81750000Y-69633333D01*
X82416666Y-70266666D02*
X82016666Y-70266666D01*
X82216666Y-70266666D02*
X82216666Y-69566666D01*
X82150000Y-69666666D01*
X82083333Y-69733333D01*
X82016666Y-69766666D01*
X82850000Y-69566666D02*
X82916666Y-69566666D01*
X82983333Y-69600000D01*
X83016666Y-69633333D01*
X83050000Y-69700000D01*
X83083333Y-69833333D01*
X83083333Y-70000000D01*
X83050000Y-70133333D01*
X83016666Y-70200000D01*
X82983333Y-70233333D01*
X82916666Y-70266666D01*
X82850000Y-70266666D01*
X82783333Y-70233333D01*
X82750000Y-70200000D01*
X82716666Y-70133333D01*
X82683333Y-70000000D01*
X82683333Y-69833333D01*
X82716666Y-69700000D01*
X82750000Y-69633333D01*
X82783333Y-69600000D01*
X82850000Y-69566666D01*
%TO.C,C11*%
D10*
X77757142Y-58342857D02*
X77804761Y-58390476D01*
X77852380Y-58533333D01*
X77852380Y-58628571D01*
X77804761Y-58771428D01*
X77709523Y-58866666D01*
X77614285Y-58914285D01*
X77423809Y-58961904D01*
X77280952Y-58961904D01*
X77090476Y-58914285D01*
X76995238Y-58866666D01*
X76900000Y-58771428D01*
X76852380Y-58628571D01*
X76852380Y-58533333D01*
X76900000Y-58390476D01*
X76947619Y-58342857D01*
X77852380Y-57390476D02*
X77852380Y-57961904D01*
X77852380Y-57676190D02*
X76852380Y-57676190D01*
X76995238Y-57771428D01*
X77090476Y-57866666D01*
X77138095Y-57961904D01*
X77852380Y-56438095D02*
X77852380Y-57009523D01*
X77852380Y-56723809D02*
X76852380Y-56723809D01*
X76995238Y-56819047D01*
X77090476Y-56914285D01*
X77138095Y-57009523D01*
%TO.C,C12*%
X77657142Y-60907142D02*
X77609523Y-60954761D01*
X77466666Y-61002380D01*
X77371428Y-61002380D01*
X77228571Y-60954761D01*
X77133333Y-60859523D01*
X77085714Y-60764285D01*
X77038095Y-60573809D01*
X77038095Y-60430952D01*
X77085714Y-60240476D01*
X77133333Y-60145238D01*
X77228571Y-60050000D01*
X77371428Y-60002380D01*
X77466666Y-60002380D01*
X77609523Y-60050000D01*
X77657142Y-60097619D01*
X78609523Y-61002380D02*
X78038095Y-61002380D01*
X78323809Y-61002380D02*
X78323809Y-60002380D01*
X78228571Y-60145238D01*
X78133333Y-60240476D01*
X78038095Y-60288095D01*
X78990476Y-60097619D02*
X79038095Y-60050000D01*
X79133333Y-60002380D01*
X79371428Y-60002380D01*
X79466666Y-60050000D01*
X79514285Y-60097619D01*
X79561904Y-60192857D01*
X79561904Y-60288095D01*
X79514285Y-60430952D01*
X78942857Y-61002380D01*
X79561904Y-61002380D01*
%TO.C,C13*%
X83757142Y-63757142D02*
X83709523Y-63804761D01*
X83566666Y-63852380D01*
X83471428Y-63852380D01*
X83328571Y-63804761D01*
X83233333Y-63709523D01*
X83185714Y-63614285D01*
X83138095Y-63423809D01*
X83138095Y-63280952D01*
X83185714Y-63090476D01*
X83233333Y-62995238D01*
X83328571Y-62900000D01*
X83471428Y-62852380D01*
X83566666Y-62852380D01*
X83709523Y-62900000D01*
X83757142Y-62947619D01*
X84709523Y-63852380D02*
X84138095Y-63852380D01*
X84423809Y-63852380D02*
X84423809Y-62852380D01*
X84328571Y-62995238D01*
X84233333Y-63090476D01*
X84138095Y-63138095D01*
X85042857Y-62852380D02*
X85661904Y-62852380D01*
X85328571Y-63233333D01*
X85471428Y-63233333D01*
X85566666Y-63280952D01*
X85614285Y-63328571D01*
X85661904Y-63423809D01*
X85661904Y-63661904D01*
X85614285Y-63757142D01*
X85566666Y-63804761D01*
X85471428Y-63852380D01*
X85185714Y-63852380D01*
X85090476Y-63804761D01*
X85042857Y-63757142D01*
%TO.C,D1*%
X80561904Y-44952380D02*
X80561904Y-43952380D01*
X80800000Y-43952380D01*
X80942857Y-44000000D01*
X81038095Y-44095238D01*
X81085714Y-44190476D01*
X81133333Y-44380952D01*
X81133333Y-44523809D01*
X81085714Y-44714285D01*
X81038095Y-44809523D01*
X80942857Y-44904761D01*
X80800000Y-44952380D01*
X80561904Y-44952380D01*
X82085714Y-44952380D02*
X81514285Y-44952380D01*
X81800000Y-44952380D02*
X81800000Y-43952380D01*
X81704761Y-44095238D01*
X81609523Y-44190476D01*
X81514285Y-44238095D01*
%TO.C,L1*%
X79652380Y-67666666D02*
X79652380Y-68142857D01*
X78652380Y-68142857D01*
X79652380Y-66809523D02*
X79652380Y-67380952D01*
X79652380Y-67095238D02*
X78652380Y-67095238D01*
X78795238Y-67190476D01*
X78890476Y-67285714D01*
X78938095Y-67380952D01*
%TO.C,Q1*%
X86584761Y-53547619D02*
X86489523Y-53500000D01*
X86394285Y-53404761D01*
X86251428Y-53261904D01*
X86156190Y-53214285D01*
X86060952Y-53214285D01*
X86108571Y-53452380D02*
X86013333Y-53404761D01*
X85918095Y-53309523D01*
X85870476Y-53119047D01*
X85870476Y-52785714D01*
X85918095Y-52595238D01*
X86013333Y-52500000D01*
X86108571Y-52452380D01*
X86299047Y-52452380D01*
X86394285Y-52500000D01*
X86489523Y-52595238D01*
X86537142Y-52785714D01*
X86537142Y-53119047D01*
X86489523Y-53309523D01*
X86394285Y-53404761D01*
X86299047Y-53452380D01*
X86108571Y-53452380D01*
X87489523Y-53452380D02*
X86918095Y-53452380D01*
X87203809Y-53452380D02*
X87203809Y-52452380D01*
X87108571Y-52595238D01*
X87013333Y-52690476D01*
X86918095Y-52738095D01*
%TO.C,Q2*%
X89224761Y-47377619D02*
X89129523Y-47330000D01*
X89034285Y-47234761D01*
X88891428Y-47091904D01*
X88796190Y-47044285D01*
X88700952Y-47044285D01*
X88748571Y-47282380D02*
X88653333Y-47234761D01*
X88558095Y-47139523D01*
X88510476Y-46949047D01*
X88510476Y-46615714D01*
X88558095Y-46425238D01*
X88653333Y-46330000D01*
X88748571Y-46282380D01*
X88939047Y-46282380D01*
X89034285Y-46330000D01*
X89129523Y-46425238D01*
X89177142Y-46615714D01*
X89177142Y-46949047D01*
X89129523Y-47139523D01*
X89034285Y-47234761D01*
X88939047Y-47282380D01*
X88748571Y-47282380D01*
X89558095Y-46377619D02*
X89605714Y-46330000D01*
X89700952Y-46282380D01*
X89939047Y-46282380D01*
X90034285Y-46330000D01*
X90081904Y-46377619D01*
X90129523Y-46472857D01*
X90129523Y-46568095D01*
X90081904Y-46710952D01*
X89510476Y-47282380D01*
X90129523Y-47282380D01*
%TO.C,Q4*%
X89208761Y-56685619D02*
X89113523Y-56638000D01*
X89018285Y-56542761D01*
X88875428Y-56399904D01*
X88780190Y-56352285D01*
X88684952Y-56352285D01*
X88732571Y-56590380D02*
X88637333Y-56542761D01*
X88542095Y-56447523D01*
X88494476Y-56257047D01*
X88494476Y-55923714D01*
X88542095Y-55733238D01*
X88637333Y-55638000D01*
X88732571Y-55590380D01*
X88923047Y-55590380D01*
X89018285Y-55638000D01*
X89113523Y-55733238D01*
X89161142Y-55923714D01*
X89161142Y-56257047D01*
X89113523Y-56447523D01*
X89018285Y-56542761D01*
X88923047Y-56590380D01*
X88732571Y-56590380D01*
X90018285Y-55923714D02*
X90018285Y-56590380D01*
X89780190Y-55542761D02*
X89542095Y-56257047D01*
X90161142Y-56257047D01*
%TO.C,R1*%
X92152380Y-69866666D02*
X91676190Y-70200000D01*
X92152380Y-70438095D02*
X91152380Y-70438095D01*
X91152380Y-70057142D01*
X91200000Y-69961904D01*
X91247619Y-69914285D01*
X91342857Y-69866666D01*
X91485714Y-69866666D01*
X91580952Y-69914285D01*
X91628571Y-69961904D01*
X91676190Y-70057142D01*
X91676190Y-70438095D01*
X92152380Y-68914285D02*
X92152380Y-69485714D01*
X92152380Y-69200000D02*
X91152380Y-69200000D01*
X91295238Y-69295238D01*
X91390476Y-69390476D01*
X91438095Y-69485714D01*
%TO.C,R2*%
X79137333Y-53852380D02*
X78804000Y-53376190D01*
X78565904Y-53852380D02*
X78565904Y-52852380D01*
X78946857Y-52852380D01*
X79042095Y-52900000D01*
X79089714Y-52947619D01*
X79137333Y-53042857D01*
X79137333Y-53185714D01*
X79089714Y-53280952D01*
X79042095Y-53328571D01*
X78946857Y-53376190D01*
X78565904Y-53376190D01*
X79518285Y-52947619D02*
X79565904Y-52900000D01*
X79661142Y-52852380D01*
X79899238Y-52852380D01*
X79994476Y-52900000D01*
X80042095Y-52947619D01*
X80089714Y-53042857D01*
X80089714Y-53138095D01*
X80042095Y-53280952D01*
X79470666Y-53852380D01*
X80089714Y-53852380D01*
%TO.C,R3*%
X97133333Y-80502380D02*
X96800000Y-80026190D01*
X96561904Y-80502380D02*
X96561904Y-79502380D01*
X96942857Y-79502380D01*
X97038095Y-79550000D01*
X97085714Y-79597619D01*
X97133333Y-79692857D01*
X97133333Y-79835714D01*
X97085714Y-79930952D01*
X97038095Y-79978571D01*
X96942857Y-80026190D01*
X96561904Y-80026190D01*
X97466666Y-79502380D02*
X98085714Y-79502380D01*
X97752380Y-79883333D01*
X97895238Y-79883333D01*
X97990476Y-79930952D01*
X98038095Y-79978571D01*
X98085714Y-80073809D01*
X98085714Y-80311904D01*
X98038095Y-80407142D01*
X97990476Y-80454761D01*
X97895238Y-80502380D01*
X97609523Y-80502380D01*
X97514285Y-80454761D01*
X97466666Y-80407142D01*
%TO.C,R4*%
X93833333Y-80502380D02*
X93500000Y-80026190D01*
X93261904Y-80502380D02*
X93261904Y-79502380D01*
X93642857Y-79502380D01*
X93738095Y-79550000D01*
X93785714Y-79597619D01*
X93833333Y-79692857D01*
X93833333Y-79835714D01*
X93785714Y-79930952D01*
X93738095Y-79978571D01*
X93642857Y-80026190D01*
X93261904Y-80026190D01*
X94690476Y-79835714D02*
X94690476Y-80502380D01*
X94452380Y-79454761D02*
X94214285Y-80169047D01*
X94833333Y-80169047D01*
%TO.C,R5*%
X93275000Y-55139285D02*
X93025000Y-54782142D01*
X92846428Y-55139285D02*
X92846428Y-54389285D01*
X93132142Y-54389285D01*
X93203571Y-54425000D01*
X93239285Y-54460714D01*
X93275000Y-54532142D01*
X93275000Y-54639285D01*
X93239285Y-54710714D01*
X93203571Y-54746428D01*
X93132142Y-54782142D01*
X92846428Y-54782142D01*
X93953571Y-54389285D02*
X93596428Y-54389285D01*
X93560714Y-54746428D01*
X93596428Y-54710714D01*
X93667857Y-54675000D01*
X93846428Y-54675000D01*
X93917857Y-54710714D01*
X93953571Y-54746428D01*
X93989285Y-54817857D01*
X93989285Y-54996428D01*
X93953571Y-55067857D01*
X93917857Y-55103571D01*
X93846428Y-55139285D01*
X93667857Y-55139285D01*
X93596428Y-55103571D01*
X93560714Y-55067857D01*
%TO.C,R6*%
X93375000Y-47339285D02*
X93125000Y-46982142D01*
X92946428Y-47339285D02*
X92946428Y-46589285D01*
X93232142Y-46589285D01*
X93303571Y-46625000D01*
X93339285Y-46660714D01*
X93375000Y-46732142D01*
X93375000Y-46839285D01*
X93339285Y-46910714D01*
X93303571Y-46946428D01*
X93232142Y-46982142D01*
X92946428Y-46982142D01*
X94017857Y-46589285D02*
X93875000Y-46589285D01*
X93803571Y-46625000D01*
X93767857Y-46660714D01*
X93696428Y-46767857D01*
X93660714Y-46910714D01*
X93660714Y-47196428D01*
X93696428Y-47267857D01*
X93732142Y-47303571D01*
X93803571Y-47339285D01*
X93946428Y-47339285D01*
X94017857Y-47303571D01*
X94053571Y-47267857D01*
X94089285Y-47196428D01*
X94089285Y-47017857D01*
X94053571Y-46946428D01*
X94017857Y-46910714D01*
X93946428Y-46875000D01*
X93803571Y-46875000D01*
X93732142Y-46910714D01*
X93696428Y-46946428D01*
X93660714Y-47017857D01*
%TO.C,R7*%
X91775000Y-55339285D02*
X91525000Y-54982142D01*
X91346428Y-55339285D02*
X91346428Y-54589285D01*
X91632142Y-54589285D01*
X91703571Y-54625000D01*
X91739285Y-54660714D01*
X91775000Y-54732142D01*
X91775000Y-54839285D01*
X91739285Y-54910714D01*
X91703571Y-54946428D01*
X91632142Y-54982142D01*
X91346428Y-54982142D01*
X92025000Y-54589285D02*
X92525000Y-54589285D01*
X92203571Y-55339285D01*
%TO.C,R8*%
X91835000Y-47449285D02*
X91585000Y-47092142D01*
X91406428Y-47449285D02*
X91406428Y-46699285D01*
X91692142Y-46699285D01*
X91763571Y-46735000D01*
X91799285Y-46770714D01*
X91835000Y-46842142D01*
X91835000Y-46949285D01*
X91799285Y-47020714D01*
X91763571Y-47056428D01*
X91692142Y-47092142D01*
X91406428Y-47092142D01*
X92263571Y-47020714D02*
X92192142Y-46985000D01*
X92156428Y-46949285D01*
X92120714Y-46877857D01*
X92120714Y-46842142D01*
X92156428Y-46770714D01*
X92192142Y-46735000D01*
X92263571Y-46699285D01*
X92406428Y-46699285D01*
X92477857Y-46735000D01*
X92513571Y-46770714D01*
X92549285Y-46842142D01*
X92549285Y-46877857D01*
X92513571Y-46949285D01*
X92477857Y-46985000D01*
X92406428Y-47020714D01*
X92263571Y-47020714D01*
X92192142Y-47056428D01*
X92156428Y-47092142D01*
X92120714Y-47163571D01*
X92120714Y-47306428D01*
X92156428Y-47377857D01*
X92192142Y-47413571D01*
X92263571Y-47449285D01*
X92406428Y-47449285D01*
X92477857Y-47413571D01*
X92513571Y-47377857D01*
X92549285Y-47306428D01*
X92549285Y-47163571D01*
X92513571Y-47092142D01*
X92477857Y-47056428D01*
X92406428Y-47020714D01*
%TO.C,R9*%
D11*
X86466666Y-66866666D02*
X86133333Y-67100000D01*
X86466666Y-67266666D02*
X85766666Y-67266666D01*
X85766666Y-67000000D01*
X85800000Y-66933333D01*
X85833333Y-66900000D01*
X85900000Y-66866666D01*
X86000000Y-66866666D01*
X86066666Y-66900000D01*
X86100000Y-66933333D01*
X86133333Y-67000000D01*
X86133333Y-67266666D01*
X86466666Y-66533333D02*
X86466666Y-66400000D01*
X86433333Y-66333333D01*
X86400000Y-66300000D01*
X86300000Y-66233333D01*
X86166666Y-66200000D01*
X85900000Y-66200000D01*
X85833333Y-66233333D01*
X85800000Y-66266666D01*
X85766666Y-66333333D01*
X85766666Y-66466666D01*
X85800000Y-66533333D01*
X85833333Y-66566666D01*
X85900000Y-66600000D01*
X86066666Y-66600000D01*
X86133333Y-66566666D01*
X86166666Y-66533333D01*
X86200000Y-66466666D01*
X86200000Y-66333333D01*
X86166666Y-66266666D01*
X86133333Y-66233333D01*
X86066666Y-66200000D01*
%TO.C,R10*%
D10*
X88152380Y-66692857D02*
X87676190Y-67026190D01*
X88152380Y-67264285D02*
X87152380Y-67264285D01*
X87152380Y-66883333D01*
X87200000Y-66788095D01*
X87247619Y-66740476D01*
X87342857Y-66692857D01*
X87485714Y-66692857D01*
X87580952Y-66740476D01*
X87628571Y-66788095D01*
X87676190Y-66883333D01*
X87676190Y-67264285D01*
X88152380Y-65740476D02*
X88152380Y-66311904D01*
X88152380Y-66026190D02*
X87152380Y-66026190D01*
X87295238Y-66121428D01*
X87390476Y-66216666D01*
X87438095Y-66311904D01*
X87152380Y-65121428D02*
X87152380Y-65026190D01*
X87200000Y-64930952D01*
X87247619Y-64883333D01*
X87342857Y-64835714D01*
X87533333Y-64788095D01*
X87771428Y-64788095D01*
X87961904Y-64835714D01*
X88057142Y-64883333D01*
X88104761Y-64930952D01*
X88152380Y-65026190D01*
X88152380Y-65121428D01*
X88104761Y-65216666D01*
X88057142Y-65264285D01*
X87961904Y-65311904D01*
X87771428Y-65359523D01*
X87533333Y-65359523D01*
X87342857Y-65311904D01*
X87247619Y-65264285D01*
X87200000Y-65216666D01*
X87152380Y-65121428D01*
%TO.C,R11*%
X94407142Y-58052380D02*
X94073809Y-57576190D01*
X93835714Y-58052380D02*
X93835714Y-57052380D01*
X94216666Y-57052380D01*
X94311904Y-57100000D01*
X94359523Y-57147619D01*
X94407142Y-57242857D01*
X94407142Y-57385714D01*
X94359523Y-57480952D01*
X94311904Y-57528571D01*
X94216666Y-57576190D01*
X93835714Y-57576190D01*
X95359523Y-58052380D02*
X94788095Y-58052380D01*
X95073809Y-58052380D02*
X95073809Y-57052380D01*
X94978571Y-57195238D01*
X94883333Y-57290476D01*
X94788095Y-57338095D01*
X96311904Y-58052380D02*
X95740476Y-58052380D01*
X96026190Y-58052380D02*
X96026190Y-57052380D01*
X95930952Y-57195238D01*
X95835714Y-57290476D01*
X95740476Y-57338095D01*
%TO.C,R12*%
X94407142Y-59452380D02*
X94073809Y-58976190D01*
X93835714Y-59452380D02*
X93835714Y-58452380D01*
X94216666Y-58452380D01*
X94311904Y-58500000D01*
X94359523Y-58547619D01*
X94407142Y-58642857D01*
X94407142Y-58785714D01*
X94359523Y-58880952D01*
X94311904Y-58928571D01*
X94216666Y-58976190D01*
X93835714Y-58976190D01*
X95359523Y-59452380D02*
X94788095Y-59452380D01*
X95073809Y-59452380D02*
X95073809Y-58452380D01*
X94978571Y-58595238D01*
X94883333Y-58690476D01*
X94788095Y-58738095D01*
X95740476Y-58547619D02*
X95788095Y-58500000D01*
X95883333Y-58452380D01*
X96121428Y-58452380D01*
X96216666Y-58500000D01*
X96264285Y-58547619D01*
X96311904Y-58642857D01*
X96311904Y-58738095D01*
X96264285Y-58880952D01*
X95692857Y-59452380D01*
X96311904Y-59452380D01*
%TO.C,U1*%
X81952380Y-80461904D02*
X82761904Y-80461904D01*
X82857142Y-80414285D01*
X82904761Y-80366666D01*
X82952380Y-80271428D01*
X82952380Y-80080952D01*
X82904761Y-79985714D01*
X82857142Y-79938095D01*
X82761904Y-79890476D01*
X81952380Y-79890476D01*
X82952380Y-78890476D02*
X82952380Y-79461904D01*
X82952380Y-79176190D02*
X81952380Y-79176190D01*
X82095238Y-79271428D01*
X82190476Y-79366666D01*
X82238095Y-79461904D01*
%TO.C,U2*%
X107652380Y-80661904D02*
X108461904Y-80661904D01*
X108557142Y-80614285D01*
X108604761Y-80566666D01*
X108652380Y-80471428D01*
X108652380Y-80280952D01*
X108604761Y-80185714D01*
X108557142Y-80138095D01*
X108461904Y-80090476D01*
X107652380Y-80090476D01*
X107747619Y-79661904D02*
X107700000Y-79614285D01*
X107652380Y-79519047D01*
X107652380Y-79280952D01*
X107700000Y-79185714D01*
X107747619Y-79138095D01*
X107842857Y-79090476D01*
X107938095Y-79090476D01*
X108080952Y-79138095D01*
X108652380Y-79709523D01*
X108652380Y-79090476D01*
%TO.C,U3*%
X98452380Y-73461904D02*
X99261904Y-73461904D01*
X99357142Y-73414285D01*
X99404761Y-73366666D01*
X99452380Y-73271428D01*
X99452380Y-73080952D01*
X99404761Y-72985714D01*
X99357142Y-72938095D01*
X99261904Y-72890476D01*
X98452380Y-72890476D01*
X98452380Y-72509523D02*
X98452380Y-71890476D01*
X98833333Y-72223809D01*
X98833333Y-72080952D01*
X98880952Y-71985714D01*
X98928571Y-71938095D01*
X99023809Y-71890476D01*
X99261904Y-71890476D01*
X99357142Y-71938095D01*
X99404761Y-71985714D01*
X99452380Y-72080952D01*
X99452380Y-72366666D01*
X99404761Y-72461904D01*
X99357142Y-72509523D01*
%TO.C,U5*%
X106004523Y-49467619D02*
X107032619Y-49467619D01*
X107153571Y-49407142D01*
X107214047Y-49346666D01*
X107274523Y-49225714D01*
X107274523Y-48983809D01*
X107214047Y-48862857D01*
X107153571Y-48802380D01*
X107032619Y-48741904D01*
X106004523Y-48741904D01*
X106004523Y-47532380D02*
X106004523Y-48137142D01*
X106609285Y-48197619D01*
X106548809Y-48137142D01*
X106488333Y-48016190D01*
X106488333Y-47713809D01*
X106548809Y-47592857D01*
X106609285Y-47532380D01*
X106730238Y-47471904D01*
X107032619Y-47471904D01*
X107153571Y-47532380D01*
X107214047Y-47592857D01*
X107274523Y-47713809D01*
X107274523Y-48016190D01*
X107214047Y-48137142D01*
X107153571Y-48197619D01*
D14*
X98009915Y-47058765D02*
X98120224Y-47095535D01*
X98156993Y-47132304D01*
X98193763Y-47205843D01*
X98193763Y-47316152D01*
X98156993Y-47389691D01*
X98120224Y-47426460D01*
X98046685Y-47463230D01*
X97752529Y-47463230D01*
X97752529Y-46691070D01*
X98009915Y-46691070D01*
X98083454Y-46727840D01*
X98120224Y-46764609D01*
X98156993Y-46838148D01*
X98156993Y-46911687D01*
X98120224Y-46985226D01*
X98083454Y-47021996D01*
X98009915Y-47058765D01*
X97752529Y-47058765D01*
X98965923Y-47389691D02*
X98929153Y-47426460D01*
X98818845Y-47463230D01*
X98745306Y-47463230D01*
X98634997Y-47426460D01*
X98561458Y-47352921D01*
X98524689Y-47279382D01*
X98487919Y-47132304D01*
X98487919Y-47021996D01*
X98524689Y-46874918D01*
X98561458Y-46801379D01*
X98634997Y-46727840D01*
X98745306Y-46691070D01*
X98818845Y-46691070D01*
X98929153Y-46727840D01*
X98965923Y-46764609D01*
X99407157Y-47021996D02*
X99333618Y-46985226D01*
X99296849Y-46948457D01*
X99260079Y-46874918D01*
X99260079Y-46838148D01*
X99296849Y-46764609D01*
X99333618Y-46727840D01*
X99407157Y-46691070D01*
X99554235Y-46691070D01*
X99627774Y-46727840D01*
X99664544Y-46764609D01*
X99701313Y-46838148D01*
X99701313Y-46874918D01*
X99664544Y-46948457D01*
X99627774Y-46985226D01*
X99554235Y-47021996D01*
X99407157Y-47021996D01*
X99333618Y-47058765D01*
X99296849Y-47095535D01*
X99260079Y-47169074D01*
X99260079Y-47316152D01*
X99296849Y-47389691D01*
X99333618Y-47426460D01*
X99407157Y-47463230D01*
X99554235Y-47463230D01*
X99627774Y-47426460D01*
X99664544Y-47389691D01*
X99701313Y-47316152D01*
X99701313Y-47169074D01*
X99664544Y-47095535D01*
X99627774Y-47058765D01*
X99554235Y-47021996D01*
X99958700Y-46691070D02*
X100436704Y-46691070D01*
X100179317Y-46985226D01*
X100289626Y-46985226D01*
X100363165Y-47021996D01*
X100399934Y-47058765D01*
X100436704Y-47132304D01*
X100436704Y-47316152D01*
X100399934Y-47389691D01*
X100363165Y-47426460D01*
X100289626Y-47463230D01*
X100069009Y-47463230D01*
X99995470Y-47426460D01*
X99958700Y-47389691D01*
X100694091Y-46691070D02*
X101172094Y-46691070D01*
X100914708Y-46985226D01*
X101025016Y-46985226D01*
X101098555Y-47021996D01*
X101135325Y-47058765D01*
X101172094Y-47132304D01*
X101172094Y-47316152D01*
X101135325Y-47389691D01*
X101098555Y-47426460D01*
X101025016Y-47463230D01*
X100804399Y-47463230D01*
X100730860Y-47426460D01*
X100694091Y-47389691D01*
X101503020Y-47169074D02*
X102091333Y-47169074D01*
X102348719Y-46691070D02*
X102606106Y-47463230D01*
X102863493Y-46691070D01*
X103451805Y-46948457D02*
X103451805Y-47463230D01*
X103267957Y-46654300D02*
X103084110Y-47205843D01*
X103562113Y-47205843D01*
%TO.C,U6*%
D10*
X83452380Y-58561904D02*
X84261904Y-58561904D01*
X84357142Y-58514285D01*
X84404761Y-58466666D01*
X84452380Y-58371428D01*
X84452380Y-58180952D01*
X84404761Y-58085714D01*
X84357142Y-58038095D01*
X84261904Y-57990476D01*
X83452380Y-57990476D01*
X83452380Y-57085714D02*
X83452380Y-57276190D01*
X83500000Y-57371428D01*
X83547619Y-57419047D01*
X83690476Y-57514285D01*
X83880952Y-57561904D01*
X84261904Y-57561904D01*
X84357142Y-57514285D01*
X84404761Y-57466666D01*
X84452380Y-57371428D01*
X84452380Y-57180952D01*
X84404761Y-57085714D01*
X84357142Y-57038095D01*
X84261904Y-56990476D01*
X84023809Y-56990476D01*
X83928571Y-57038095D01*
X83880952Y-57085714D01*
X83833333Y-57180952D01*
X83833333Y-57371428D01*
X83880952Y-57466666D01*
X83928571Y-57514285D01*
X84023809Y-57561904D01*
%TO.C,U7*%
X81460380Y-65073904D02*
X82269904Y-65073904D01*
X82365142Y-65026285D01*
X82412761Y-64978666D01*
X82460380Y-64883428D01*
X82460380Y-64692952D01*
X82412761Y-64597714D01*
X82365142Y-64550095D01*
X82269904Y-64502476D01*
X81460380Y-64502476D01*
X81460380Y-64121523D02*
X81460380Y-63454857D01*
X82460380Y-63883428D01*
%TD*%
M02*
