%TF.GenerationSoftware,KiCad,Pcbnew,(5.1.9)-1*%
%TF.CreationDate,2021-03-26T19:47:33+01:00*%
%TF.ProjectId,DotBot,446f7442-6f74-42e6-9b69-6361645f7063,rev?*%
%TF.SameCoordinates,Original*%
%TF.FileFunction,Legend,Bot*%
%TF.FilePolarity,Positive*%
%FSLAX46Y46*%
G04 Gerber Fmt 4.6, Leading zero omitted, Abs format (unit mm)*
G04 Created by KiCad (PCBNEW (5.1.9)-1) date 2021-03-26 19:47:33*
%MOMM*%
%LPD*%
G01*
G04 APERTURE LIST*
%ADD10C,0.150000*%
G04 APERTURE END LIST*
D10*
X82138095Y-45727380D02*
X82138095Y-44727380D01*
X81900000Y-44727380D01*
X81757142Y-44775000D01*
X81661904Y-44870238D01*
X81614285Y-44965476D01*
X81566666Y-45155952D01*
X81566666Y-45298809D01*
X81614285Y-45489285D01*
X81661904Y-45584523D01*
X81757142Y-45679761D01*
X81900000Y-45727380D01*
X82138095Y-45727380D01*
X80995238Y-45727380D02*
X81090476Y-45679761D01*
X81138095Y-45632142D01*
X81185714Y-45536904D01*
X81185714Y-45251190D01*
X81138095Y-45155952D01*
X81090476Y-45108333D01*
X80995238Y-45060714D01*
X80852380Y-45060714D01*
X80757142Y-45108333D01*
X80709523Y-45155952D01*
X80661904Y-45251190D01*
X80661904Y-45536904D01*
X80709523Y-45632142D01*
X80757142Y-45679761D01*
X80852380Y-45727380D01*
X80995238Y-45727380D01*
X80376190Y-45060714D02*
X79995238Y-45060714D01*
X80233333Y-44727380D02*
X80233333Y-45584523D01*
X80185714Y-45679761D01*
X80090476Y-45727380D01*
X79995238Y-45727380D01*
X79328571Y-45203571D02*
X79185714Y-45251190D01*
X79138095Y-45298809D01*
X79090476Y-45394047D01*
X79090476Y-45536904D01*
X79138095Y-45632142D01*
X79185714Y-45679761D01*
X79280952Y-45727380D01*
X79661904Y-45727380D01*
X79661904Y-44727380D01*
X79328571Y-44727380D01*
X79233333Y-44775000D01*
X79185714Y-44822619D01*
X79138095Y-44917857D01*
X79138095Y-45013095D01*
X79185714Y-45108333D01*
X79233333Y-45155952D01*
X79328571Y-45203571D01*
X79661904Y-45203571D01*
X78519047Y-45727380D02*
X78614285Y-45679761D01*
X78661904Y-45632142D01*
X78709523Y-45536904D01*
X78709523Y-45251190D01*
X78661904Y-45155952D01*
X78614285Y-45108333D01*
X78519047Y-45060714D01*
X78376190Y-45060714D01*
X78280952Y-45108333D01*
X78233333Y-45155952D01*
X78185714Y-45251190D01*
X78185714Y-45536904D01*
X78233333Y-45632142D01*
X78280952Y-45679761D01*
X78376190Y-45727380D01*
X78519047Y-45727380D01*
X77900000Y-45060714D02*
X77519047Y-45060714D01*
X77757142Y-44727380D02*
X77757142Y-45584523D01*
X77709523Y-45679761D01*
X77614285Y-45727380D01*
X77519047Y-45727380D01*
X81328571Y-46710714D02*
X81090476Y-47377380D01*
X80852380Y-46710714D01*
X79947619Y-47377380D02*
X80519047Y-47377380D01*
X80233333Y-47377380D02*
X80233333Y-46377380D01*
X80328571Y-46520238D01*
X80423809Y-46615476D01*
X80519047Y-46663095D01*
X79519047Y-47282142D02*
X79471428Y-47329761D01*
X79519047Y-47377380D01*
X79566666Y-47329761D01*
X79519047Y-47282142D01*
X79519047Y-47377380D01*
X78614285Y-46710714D02*
X78614285Y-47377380D01*
X78852380Y-46329761D02*
X79090476Y-47044047D01*
X78471428Y-47044047D01*
X102904761Y-76728571D02*
X102761904Y-76776190D01*
X102714285Y-76823809D01*
X102666666Y-76919047D01*
X102666666Y-77061904D01*
X102714285Y-77157142D01*
X102761904Y-77204761D01*
X102857142Y-77252380D01*
X103238095Y-77252380D01*
X103238095Y-76252380D01*
X102904761Y-76252380D01*
X102809523Y-76300000D01*
X102761904Y-76347619D01*
X102714285Y-76442857D01*
X102714285Y-76538095D01*
X102761904Y-76633333D01*
X102809523Y-76680952D01*
X102904761Y-76728571D01*
X103238095Y-76728571D01*
X101714285Y-77252380D02*
X102285714Y-77252380D01*
X102000000Y-77252380D02*
X102000000Y-76252380D01*
X102095238Y-76395238D01*
X102190476Y-76490476D01*
X102285714Y-76538095D01*
X103004761Y-79228571D02*
X102861904Y-79276190D01*
X102814285Y-79323809D01*
X102766666Y-79419047D01*
X102766666Y-79561904D01*
X102814285Y-79657142D01*
X102861904Y-79704761D01*
X102957142Y-79752380D01*
X103338095Y-79752380D01*
X103338095Y-78752380D01*
X103004761Y-78752380D01*
X102909523Y-78800000D01*
X102861904Y-78847619D01*
X102814285Y-78942857D01*
X102814285Y-79038095D01*
X102861904Y-79133333D01*
X102909523Y-79180952D01*
X103004761Y-79228571D01*
X103338095Y-79228571D01*
X102385714Y-78847619D02*
X102338095Y-78800000D01*
X102242857Y-78752380D01*
X102004761Y-78752380D01*
X101909523Y-78800000D01*
X101861904Y-78847619D01*
X101814285Y-78942857D01*
X101814285Y-79038095D01*
X101861904Y-79180952D01*
X102433333Y-79752380D01*
X101814285Y-79752380D01*
X88764285Y-76966666D02*
X88288095Y-76966666D01*
X88859523Y-77252380D02*
X88526190Y-76252380D01*
X88192857Y-77252380D01*
X87335714Y-77252380D02*
X87907142Y-77252380D01*
X87621428Y-77252380D02*
X87621428Y-76252380D01*
X87716666Y-76395238D01*
X87811904Y-76490476D01*
X87907142Y-76538095D01*
X88764285Y-79516666D02*
X88288095Y-79516666D01*
X88859523Y-79802380D02*
X88526190Y-78802380D01*
X88192857Y-79802380D01*
X87907142Y-78897619D02*
X87859523Y-78850000D01*
X87764285Y-78802380D01*
X87526190Y-78802380D01*
X87430952Y-78850000D01*
X87383333Y-78897619D01*
X87335714Y-78992857D01*
X87335714Y-79088095D01*
X87383333Y-79230952D01*
X87954761Y-79802380D01*
X87335714Y-79802380D01*
X86747619Y-62371428D02*
X85985714Y-62371428D01*
X86366666Y-62752380D02*
X86366666Y-61990476D01*
X85652380Y-61752380D02*
X85319047Y-62752380D01*
X84985714Y-61752380D01*
X84319047Y-62228571D02*
X84176190Y-62276190D01*
X84128571Y-62323809D01*
X84080952Y-62419047D01*
X84080952Y-62561904D01*
X84128571Y-62657142D01*
X84176190Y-62704761D01*
X84271428Y-62752380D01*
X84652380Y-62752380D01*
X84652380Y-61752380D01*
X84319047Y-61752380D01*
X84223809Y-61800000D01*
X84176190Y-61847619D01*
X84128571Y-61942857D01*
X84128571Y-62038095D01*
X84176190Y-62133333D01*
X84223809Y-62180952D01*
X84319047Y-62228571D01*
X84652380Y-62228571D01*
X83223809Y-62752380D02*
X83223809Y-62228571D01*
X83271428Y-62133333D01*
X83366666Y-62085714D01*
X83557142Y-62085714D01*
X83652380Y-62133333D01*
X83223809Y-62704761D02*
X83319047Y-62752380D01*
X83557142Y-62752380D01*
X83652380Y-62704761D01*
X83700000Y-62609523D01*
X83700000Y-62514285D01*
X83652380Y-62419047D01*
X83557142Y-62371428D01*
X83319047Y-62371428D01*
X83223809Y-62323809D01*
X82890476Y-62085714D02*
X82509523Y-62085714D01*
X82747619Y-61752380D02*
X82747619Y-62609523D01*
X82700000Y-62704761D01*
X82604761Y-62752380D01*
X82509523Y-62752380D01*
X95361904Y-61800000D02*
X95457142Y-61752380D01*
X95600000Y-61752380D01*
X95742857Y-61800000D01*
X95838095Y-61895238D01*
X95885714Y-61990476D01*
X95933333Y-62180952D01*
X95933333Y-62323809D01*
X95885714Y-62514285D01*
X95838095Y-62609523D01*
X95742857Y-62704761D01*
X95600000Y-62752380D01*
X95504761Y-62752380D01*
X95361904Y-62704761D01*
X95314285Y-62657142D01*
X95314285Y-62323809D01*
X95504761Y-62323809D01*
X94885714Y-62752380D02*
X94885714Y-61752380D01*
X94314285Y-62752380D01*
X94314285Y-61752380D01*
X93838095Y-62752380D02*
X93838095Y-61752380D01*
X93600000Y-61752380D01*
X93457142Y-61800000D01*
X93361904Y-61895238D01*
X93314285Y-61990476D01*
X93266666Y-62180952D01*
X93266666Y-62323809D01*
X93314285Y-62514285D01*
X93361904Y-62609523D01*
X93457142Y-62704761D01*
X93600000Y-62752380D01*
X93838095Y-62752380D01*
%TO.C,TP3*%
X77946428Y-54589285D02*
X77517857Y-54589285D01*
X77732142Y-55339285D02*
X77732142Y-54589285D01*
X77267857Y-55339285D02*
X77267857Y-54589285D01*
X76982142Y-54589285D01*
X76910714Y-54625000D01*
X76875000Y-54660714D01*
X76839285Y-54732142D01*
X76839285Y-54839285D01*
X76875000Y-54910714D01*
X76910714Y-54946428D01*
X76982142Y-54982142D01*
X77267857Y-54982142D01*
X76589285Y-54589285D02*
X76125000Y-54589285D01*
X76375000Y-54875000D01*
X76267857Y-54875000D01*
X76196428Y-54910714D01*
X76160714Y-54946428D01*
X76125000Y-55017857D01*
X76125000Y-55196428D01*
X76160714Y-55267857D01*
X76196428Y-55303571D01*
X76267857Y-55339285D01*
X76482142Y-55339285D01*
X76553571Y-55303571D01*
X76589285Y-55267857D01*
%TO.C,TP2*%
X86061904Y-73052380D02*
X85490476Y-73052380D01*
X85776190Y-74052380D02*
X85776190Y-73052380D01*
X85157142Y-74052380D02*
X85157142Y-73052380D01*
X84776190Y-73052380D01*
X84680952Y-73100000D01*
X84633333Y-73147619D01*
X84585714Y-73242857D01*
X84585714Y-73385714D01*
X84633333Y-73480952D01*
X84680952Y-73528571D01*
X84776190Y-73576190D01*
X85157142Y-73576190D01*
X84204761Y-73147619D02*
X84157142Y-73100000D01*
X84061904Y-73052380D01*
X83823809Y-73052380D01*
X83728571Y-73100000D01*
X83680952Y-73147619D01*
X83633333Y-73242857D01*
X83633333Y-73338095D01*
X83680952Y-73480952D01*
X84252380Y-74052380D01*
X83633333Y-74052380D01*
%TO.C,TP1*%
X92861904Y-72052380D02*
X92290476Y-72052380D01*
X92576190Y-73052380D02*
X92576190Y-72052380D01*
X91957142Y-73052380D02*
X91957142Y-72052380D01*
X91576190Y-72052380D01*
X91480952Y-72100000D01*
X91433333Y-72147619D01*
X91385714Y-72242857D01*
X91385714Y-72385714D01*
X91433333Y-72480952D01*
X91480952Y-72528571D01*
X91576190Y-72576190D01*
X91957142Y-72576190D01*
X90433333Y-73052380D02*
X91004761Y-73052380D01*
X90719047Y-73052380D02*
X90719047Y-72052380D01*
X90814285Y-72195238D01*
X90909523Y-72290476D01*
X91004761Y-72338095D01*
%TD*%
M02*
