%TF.GenerationSoftware,KiCad,Pcbnew,(5.1.6)-1*%
%TF.CreationDate,2021-06-21T18:56:36+02:00*%
%TF.ProjectId,DotBot,446f7442-6f74-42e6-9b69-6361645f7063,rev?*%
%TF.SameCoordinates,Original*%
%TF.FileFunction,Copper,L1,Top*%
%TF.FilePolarity,Positive*%
%FSLAX46Y46*%
G04 Gerber Fmt 4.6, Leading zero omitted, Abs format (unit mm)*
G04 Created by KiCad (PCBNEW (5.1.6)-1) date 2021-06-21 18:56:36*
%MOMM*%
%LPD*%
G01*
G04 APERTURE LIST*
%TA.AperFunction,SMDPad,CuDef*%
%ADD10R,1.060000X0.650000*%
%TD*%
%TA.AperFunction,SMDPad,CuDef*%
%ADD11R,1.600000X5.900000*%
%TD*%
%TA.AperFunction,SMDPad,CuDef*%
%ADD12R,1.100000X1.100000*%
%TD*%
%TA.AperFunction,SMDPad,CuDef*%
%ADD13R,1.000000X0.800000*%
%TD*%
%TA.AperFunction,ComponentPad*%
%ADD14O,1.000000X1.000000*%
%TD*%
%TA.AperFunction,ComponentPad*%
%ADD15R,1.000000X1.000000*%
%TD*%
%TA.AperFunction,ComponentPad*%
%ADD16O,1.700000X1.700000*%
%TD*%
%TA.AperFunction,ComponentPad*%
%ADD17R,1.700000X1.700000*%
%TD*%
%TA.AperFunction,ComponentPad*%
%ADD18R,0.850000X0.850000*%
%TD*%
%TA.AperFunction,SMDPad,CuDef*%
%ADD19R,2.790000X0.740000*%
%TD*%
%TA.AperFunction,SMDPad,CuDef*%
%ADD20C,0.400000*%
%TD*%
%TA.AperFunction,SMDPad,CuDef*%
%ADD21R,1.400000X1.200000*%
%TD*%
%TA.AperFunction,SMDPad,CuDef*%
%ADD22R,1.400000X2.000000*%
%TD*%
%TA.AperFunction,SMDPad,CuDef*%
%ADD23R,0.800000X0.900000*%
%TD*%
%TA.AperFunction,SMDPad,CuDef*%
%ADD24R,0.900000X0.800000*%
%TD*%
%TA.AperFunction,Conductor*%
%ADD25R,5.000000X3.400000*%
%TD*%
%TA.AperFunction,ViaPad*%
%ADD26C,0.500000*%
%TD*%
%TA.AperFunction,SMDPad,CuDef*%
%ADD27R,0.650000X1.060000*%
%TD*%
%TA.AperFunction,ViaPad*%
%ADD28C,0.800000*%
%TD*%
%TA.AperFunction,Conductor*%
%ADD29C,0.200000*%
%TD*%
%TA.AperFunction,Conductor*%
%ADD30C,0.500000*%
%TD*%
%TA.AperFunction,Conductor*%
%ADD31C,1.000000*%
%TD*%
%TA.AperFunction,Conductor*%
%ADD32C,0.400000*%
%TD*%
%TA.AperFunction,Conductor*%
%ADD33C,0.250000*%
%TD*%
%TA.AperFunction,Conductor*%
%ADD34C,0.750000*%
%TD*%
%TA.AperFunction,Conductor*%
%ADD35C,2.000000*%
%TD*%
%TA.AperFunction,Conductor*%
%ADD36C,1.500000*%
%TD*%
%TA.AperFunction,Conductor*%
%ADD37C,0.300000*%
%TD*%
G04 APERTURE END LIST*
%TO.P,R2,2*%
%TO.N,Net-(R2-Pad2)*%
%TA.AperFunction,SMDPad,CuDef*%
G36*
G01*
X79650000Y-52756250D02*
X79650000Y-52243750D01*
G75*
G02*
X79868750Y-52025000I218750J0D01*
G01*
X80306250Y-52025000D01*
G75*
G02*
X80525000Y-52243750I0J-218750D01*
G01*
X80525000Y-52756250D01*
G75*
G02*
X80306250Y-52975000I-218750J0D01*
G01*
X79868750Y-52975000D01*
G75*
G02*
X79650000Y-52756250I0J218750D01*
G01*
G37*
%TD.AperFunction*%
%TO.P,R2,1*%
%TO.N,GND*%
%TA.AperFunction,SMDPad,CuDef*%
G36*
G01*
X78075000Y-52756250D02*
X78075000Y-52243750D01*
G75*
G02*
X78293750Y-52025000I218750J0D01*
G01*
X78731250Y-52025000D01*
G75*
G02*
X78950000Y-52243750I0J-218750D01*
G01*
X78950000Y-52756250D01*
G75*
G02*
X78731250Y-52975000I-218750J0D01*
G01*
X78293750Y-52975000D01*
G75*
G02*
X78075000Y-52756250I0J218750D01*
G01*
G37*
%TD.AperFunction*%
%TD*%
%TO.P,C2,2*%
%TO.N,Net-(C2-Pad2)*%
%TA.AperFunction,SMDPad,CuDef*%
G36*
G01*
X78450000Y-50656250D02*
X78450000Y-50143750D01*
G75*
G02*
X78668750Y-49925000I218750J0D01*
G01*
X79106250Y-49925000D01*
G75*
G02*
X79325000Y-50143750I0J-218750D01*
G01*
X79325000Y-50656250D01*
G75*
G02*
X79106250Y-50875000I-218750J0D01*
G01*
X78668750Y-50875000D01*
G75*
G02*
X78450000Y-50656250I0J218750D01*
G01*
G37*
%TD.AperFunction*%
%TO.P,C2,1*%
%TO.N,GND*%
%TA.AperFunction,SMDPad,CuDef*%
G36*
G01*
X76875000Y-50656250D02*
X76875000Y-50143750D01*
G75*
G02*
X77093750Y-49925000I218750J0D01*
G01*
X77531250Y-49925000D01*
G75*
G02*
X77750000Y-50143750I0J-218750D01*
G01*
X77750000Y-50656250D01*
G75*
G02*
X77531250Y-50875000I-218750J0D01*
G01*
X77093750Y-50875000D01*
G75*
G02*
X76875000Y-50656250I0J218750D01*
G01*
G37*
%TD.AperFunction*%
%TD*%
%TO.P,C1,2*%
%TO.N,+3V3*%
%TA.AperFunction,SMDPad,CuDef*%
G36*
G01*
X82443750Y-51450000D02*
X82956250Y-51450000D01*
G75*
G02*
X83175000Y-51668750I0J-218750D01*
G01*
X83175000Y-52106250D01*
G75*
G02*
X82956250Y-52325000I-218750J0D01*
G01*
X82443750Y-52325000D01*
G75*
G02*
X82225000Y-52106250I0J218750D01*
G01*
X82225000Y-51668750D01*
G75*
G02*
X82443750Y-51450000I218750J0D01*
G01*
G37*
%TD.AperFunction*%
%TO.P,C1,1*%
%TO.N,GND*%
%TA.AperFunction,SMDPad,CuDef*%
G36*
G01*
X82443750Y-49875000D02*
X82956250Y-49875000D01*
G75*
G02*
X83175000Y-50093750I0J-218750D01*
G01*
X83175000Y-50531250D01*
G75*
G02*
X82956250Y-50750000I-218750J0D01*
G01*
X82443750Y-50750000D01*
G75*
G02*
X82225000Y-50531250I0J218750D01*
G01*
X82225000Y-50093750D01*
G75*
G02*
X82443750Y-49875000I218750J0D01*
G01*
G37*
%TD.AperFunction*%
%TD*%
%TO.P,C14,2*%
%TO.N,GND*%
%TA.AperFunction,SMDPad,CuDef*%
G36*
G01*
X89056250Y-67850000D02*
X88143750Y-67850000D01*
G75*
G02*
X87900000Y-67606250I0J243750D01*
G01*
X87900000Y-67118750D01*
G75*
G02*
X88143750Y-66875000I243750J0D01*
G01*
X89056250Y-66875000D01*
G75*
G02*
X89300000Y-67118750I0J-243750D01*
G01*
X89300000Y-67606250D01*
G75*
G02*
X89056250Y-67850000I-243750J0D01*
G01*
G37*
%TD.AperFunction*%
%TO.P,C14,1*%
%TO.N,+6V*%
%TA.AperFunction,SMDPad,CuDef*%
G36*
G01*
X89056250Y-69725000D02*
X88143750Y-69725000D01*
G75*
G02*
X87900000Y-69481250I0J243750D01*
G01*
X87900000Y-68993750D01*
G75*
G02*
X88143750Y-68750000I243750J0D01*
G01*
X89056250Y-68750000D01*
G75*
G02*
X89300000Y-68993750I0J-243750D01*
G01*
X89300000Y-69481250D01*
G75*
G02*
X89056250Y-69725000I-243750J0D01*
G01*
G37*
%TD.AperFunction*%
%TD*%
%TO.P,C10,2*%
%TO.N,GND*%
%TA.AperFunction,SMDPad,CuDef*%
G36*
G01*
X80950000Y-63956250D02*
X80950000Y-63043750D01*
G75*
G02*
X81193750Y-62800000I243750J0D01*
G01*
X81681250Y-62800000D01*
G75*
G02*
X81925000Y-63043750I0J-243750D01*
G01*
X81925000Y-63956250D01*
G75*
G02*
X81681250Y-64200000I-243750J0D01*
G01*
X81193750Y-64200000D01*
G75*
G02*
X80950000Y-63956250I0J243750D01*
G01*
G37*
%TD.AperFunction*%
%TO.P,C10,1*%
%TO.N,VDD*%
%TA.AperFunction,SMDPad,CuDef*%
G36*
G01*
X79075000Y-63956250D02*
X79075000Y-63043750D01*
G75*
G02*
X79318750Y-62800000I243750J0D01*
G01*
X79806250Y-62800000D01*
G75*
G02*
X80050000Y-63043750I0J-243750D01*
G01*
X80050000Y-63956250D01*
G75*
G02*
X79806250Y-64200000I-243750J0D01*
G01*
X79318750Y-64200000D01*
G75*
G02*
X79075000Y-63956250I0J243750D01*
G01*
G37*
%TD.AperFunction*%
%TD*%
%TO.P,C5,2*%
%TO.N,GND*%
%TA.AperFunction,SMDPad,CuDef*%
G36*
G01*
X94300000Y-65043750D02*
X94300000Y-65956250D01*
G75*
G02*
X94056250Y-66200000I-243750J0D01*
G01*
X93568750Y-66200000D01*
G75*
G02*
X93325000Y-65956250I0J243750D01*
G01*
X93325000Y-65043750D01*
G75*
G02*
X93568750Y-64800000I243750J0D01*
G01*
X94056250Y-64800000D01*
G75*
G02*
X94300000Y-65043750I0J-243750D01*
G01*
G37*
%TD.AperFunction*%
%TO.P,C5,1*%
%TO.N,+6V*%
%TA.AperFunction,SMDPad,CuDef*%
G36*
G01*
X96175000Y-65043750D02*
X96175000Y-65956250D01*
G75*
G02*
X95931250Y-66200000I-243750J0D01*
G01*
X95443750Y-66200000D01*
G75*
G02*
X95200000Y-65956250I0J243750D01*
G01*
X95200000Y-65043750D01*
G75*
G02*
X95443750Y-64800000I243750J0D01*
G01*
X95931250Y-64800000D01*
G75*
G02*
X96175000Y-65043750I0J-243750D01*
G01*
G37*
%TD.AperFunction*%
%TD*%
D10*
%TO.P,U8,5*%
%TO.N,VDD*%
X79600000Y-67250000D03*
%TO.P,U8,4*%
%TO.N,P0_20*%
X79600000Y-65350000D03*
%TO.P,U8,3*%
%TO.N,Net-(C13-Pad2)*%
X81800000Y-65350000D03*
%TO.P,U8,2*%
%TO.N,GND*%
X81800000Y-66300000D03*
%TO.P,U8,1*%
%TO.N,Net-(D3-Pad2)*%
X81800000Y-67250000D03*
%TD*%
%TO.P,U7,8*%
%TO.N,+3V3*%
%TA.AperFunction,SMDPad,CuDef*%
G36*
G01*
X91500000Y-48845000D02*
X91500000Y-48545000D01*
G75*
G02*
X91650000Y-48395000I150000J0D01*
G01*
X93300000Y-48395000D01*
G75*
G02*
X93450000Y-48545000I0J-150000D01*
G01*
X93450000Y-48845000D01*
G75*
G02*
X93300000Y-48995000I-150000J0D01*
G01*
X91650000Y-48995000D01*
G75*
G02*
X91500000Y-48845000I0J150000D01*
G01*
G37*
%TD.AperFunction*%
%TO.P,U7,7*%
%TO.N,Net-(R5-Pad2)*%
%TA.AperFunction,SMDPad,CuDef*%
G36*
G01*
X91500000Y-50115000D02*
X91500000Y-49815000D01*
G75*
G02*
X91650000Y-49665000I150000J0D01*
G01*
X93300000Y-49665000D01*
G75*
G02*
X93450000Y-49815000I0J-150000D01*
G01*
X93450000Y-50115000D01*
G75*
G02*
X93300000Y-50265000I-150000J0D01*
G01*
X91650000Y-50265000D01*
G75*
G02*
X91500000Y-50115000I0J150000D01*
G01*
G37*
%TD.AperFunction*%
%TO.P,U7,6*%
%TO.N,P0_03*%
%TA.AperFunction,SMDPad,CuDef*%
G36*
G01*
X91500000Y-51385000D02*
X91500000Y-51085000D01*
G75*
G02*
X91650000Y-50935000I150000J0D01*
G01*
X93300000Y-50935000D01*
G75*
G02*
X93450000Y-51085000I0J-150000D01*
G01*
X93450000Y-51385000D01*
G75*
G02*
X93300000Y-51535000I-150000J0D01*
G01*
X91650000Y-51535000D01*
G75*
G02*
X91500000Y-51385000I0J150000D01*
G01*
G37*
%TD.AperFunction*%
%TO.P,U7,5*%
%TO.N,Net-(U7-Pad5)*%
%TA.AperFunction,SMDPad,CuDef*%
G36*
G01*
X91500000Y-52655000D02*
X91500000Y-52355000D01*
G75*
G02*
X91650000Y-52205000I150000J0D01*
G01*
X93300000Y-52205000D01*
G75*
G02*
X93450000Y-52355000I0J-150000D01*
G01*
X93450000Y-52655000D01*
G75*
G02*
X93300000Y-52805000I-150000J0D01*
G01*
X91650000Y-52805000D01*
G75*
G02*
X91500000Y-52655000I0J150000D01*
G01*
G37*
%TD.AperFunction*%
%TO.P,U7,4*%
%TO.N,GND*%
%TA.AperFunction,SMDPad,CuDef*%
G36*
G01*
X86550000Y-52655000D02*
X86550000Y-52355000D01*
G75*
G02*
X86700000Y-52205000I150000J0D01*
G01*
X88350000Y-52205000D01*
G75*
G02*
X88500000Y-52355000I0J-150000D01*
G01*
X88500000Y-52655000D01*
G75*
G02*
X88350000Y-52805000I-150000J0D01*
G01*
X86700000Y-52805000D01*
G75*
G02*
X86550000Y-52655000I0J150000D01*
G01*
G37*
%TD.AperFunction*%
%TO.P,U7,3*%
%TO.N,Net-(D2-Pad3)*%
%TA.AperFunction,SMDPad,CuDef*%
G36*
G01*
X86550000Y-51385000D02*
X86550000Y-51085000D01*
G75*
G02*
X86700000Y-50935000I150000J0D01*
G01*
X88350000Y-50935000D01*
G75*
G02*
X88500000Y-51085000I0J-150000D01*
G01*
X88500000Y-51385000D01*
G75*
G02*
X88350000Y-51535000I-150000J0D01*
G01*
X86700000Y-51535000D01*
G75*
G02*
X86550000Y-51385000I0J150000D01*
G01*
G37*
%TD.AperFunction*%
%TO.P,U7,2*%
%TO.N,Net-(D2-Pad4)*%
%TA.AperFunction,SMDPad,CuDef*%
G36*
G01*
X86550000Y-50115000D02*
X86550000Y-49815000D01*
G75*
G02*
X86700000Y-49665000I150000J0D01*
G01*
X88350000Y-49665000D01*
G75*
G02*
X88500000Y-49815000I0J-150000D01*
G01*
X88500000Y-50115000D01*
G75*
G02*
X88350000Y-50265000I-150000J0D01*
G01*
X86700000Y-50265000D01*
G75*
G02*
X86550000Y-50115000I0J150000D01*
G01*
G37*
%TD.AperFunction*%
%TO.P,U7,1*%
%TO.N,Net-(D2-Pad2)*%
%TA.AperFunction,SMDPad,CuDef*%
G36*
G01*
X86550000Y-48845000D02*
X86550000Y-48545000D01*
G75*
G02*
X86700000Y-48395000I150000J0D01*
G01*
X88350000Y-48395000D01*
G75*
G02*
X88500000Y-48545000I0J-150000D01*
G01*
X88500000Y-48845000D01*
G75*
G02*
X88350000Y-48995000I-150000J0D01*
G01*
X86700000Y-48995000D01*
G75*
G02*
X86550000Y-48845000I0J150000D01*
G01*
G37*
%TD.AperFunction*%
%TD*%
D11*
%TO.P,L1,2*%
%TO.N,Net-(D3-Pad2)*%
X84050000Y-71700000D03*
%TO.P,L1,1*%
%TO.N,VDD*%
X79350000Y-71700000D03*
%TD*%
D12*
%TO.P,D3,2*%
%TO.N,Net-(D3-Pad2)*%
X86400000Y-72100000D03*
%TO.P,D3,1*%
%TO.N,+6V*%
X86400000Y-69300000D03*
%TD*%
D13*
%TO.P,D2,4*%
%TO.N,Net-(D2-Pad4)*%
X87750000Y-54750000D03*
%TO.P,D2,3*%
%TO.N,Net-(D2-Pad3)*%
X86250000Y-54750000D03*
%TO.P,D2,2*%
%TO.N,Net-(D2-Pad2)*%
X86250000Y-55850000D03*
%TO.P,D2,1*%
%TO.N,+6V*%
X87750000Y-55850000D03*
%TD*%
%TO.P,C13,2*%
%TO.N,Net-(C13-Pad2)*%
%TA.AperFunction,SMDPad,CuDef*%
G36*
G01*
X85050000Y-65643750D02*
X85050000Y-66156250D01*
G75*
G02*
X84831250Y-66375000I-218750J0D01*
G01*
X84393750Y-66375000D01*
G75*
G02*
X84175000Y-66156250I0J218750D01*
G01*
X84175000Y-65643750D01*
G75*
G02*
X84393750Y-65425000I218750J0D01*
G01*
X84831250Y-65425000D01*
G75*
G02*
X85050000Y-65643750I0J-218750D01*
G01*
G37*
%TD.AperFunction*%
%TO.P,C13,1*%
%TO.N,+6V*%
%TA.AperFunction,SMDPad,CuDef*%
G36*
G01*
X86625000Y-65643750D02*
X86625000Y-66156250D01*
G75*
G02*
X86406250Y-66375000I-218750J0D01*
G01*
X85968750Y-66375000D01*
G75*
G02*
X85750000Y-66156250I0J218750D01*
G01*
X85750000Y-65643750D01*
G75*
G02*
X85968750Y-65425000I218750J0D01*
G01*
X86406250Y-65425000D01*
G75*
G02*
X86625000Y-65643750I0J-218750D01*
G01*
G37*
%TD.AperFunction*%
%TD*%
%TO.P,C9,2*%
%TO.N,GND*%
%TA.AperFunction,SMDPad,CuDef*%
G36*
G01*
X85050000Y-58043750D02*
X85050000Y-58556250D01*
G75*
G02*
X84831250Y-58775000I-218750J0D01*
G01*
X84393750Y-58775000D01*
G75*
G02*
X84175000Y-58556250I0J218750D01*
G01*
X84175000Y-58043750D01*
G75*
G02*
X84393750Y-57825000I218750J0D01*
G01*
X84831250Y-57825000D01*
G75*
G02*
X85050000Y-58043750I0J-218750D01*
G01*
G37*
%TD.AperFunction*%
%TO.P,C9,1*%
%TO.N,+6V*%
%TA.AperFunction,SMDPad,CuDef*%
G36*
G01*
X86625000Y-58043750D02*
X86625000Y-58556250D01*
G75*
G02*
X86406250Y-58775000I-218750J0D01*
G01*
X85968750Y-58775000D01*
G75*
G02*
X85750000Y-58556250I0J218750D01*
G01*
X85750000Y-58043750D01*
G75*
G02*
X85968750Y-57825000I218750J0D01*
G01*
X86406250Y-57825000D01*
G75*
G02*
X86625000Y-58043750I0J-218750D01*
G01*
G37*
%TD.AperFunction*%
%TD*%
%TO.P,C8,2*%
%TO.N,+3V3*%
%TA.AperFunction,SMDPad,CuDef*%
G36*
G01*
X92750000Y-46743750D02*
X92750000Y-47256250D01*
G75*
G02*
X92531250Y-47475000I-218750J0D01*
G01*
X92093750Y-47475000D01*
G75*
G02*
X91875000Y-47256250I0J218750D01*
G01*
X91875000Y-46743750D01*
G75*
G02*
X92093750Y-46525000I218750J0D01*
G01*
X92531250Y-46525000D01*
G75*
G02*
X92750000Y-46743750I0J-218750D01*
G01*
G37*
%TD.AperFunction*%
%TO.P,C8,1*%
%TO.N,GND*%
%TA.AperFunction,SMDPad,CuDef*%
G36*
G01*
X94325000Y-46743750D02*
X94325000Y-47256250D01*
G75*
G02*
X94106250Y-47475000I-218750J0D01*
G01*
X93668750Y-47475000D01*
G75*
G02*
X93450000Y-47256250I0J218750D01*
G01*
X93450000Y-46743750D01*
G75*
G02*
X93668750Y-46525000I218750J0D01*
G01*
X94106250Y-46525000D01*
G75*
G02*
X94325000Y-46743750I0J-218750D01*
G01*
G37*
%TD.AperFunction*%
%TD*%
%TO.P,C4,2*%
%TO.N,GND*%
%TA.AperFunction,SMDPad,CuDef*%
G36*
G01*
X105950000Y-77456250D02*
X105950000Y-76943750D01*
G75*
G02*
X106168750Y-76725000I218750J0D01*
G01*
X106606250Y-76725000D01*
G75*
G02*
X106825000Y-76943750I0J-218750D01*
G01*
X106825000Y-77456250D01*
G75*
G02*
X106606250Y-77675000I-218750J0D01*
G01*
X106168750Y-77675000D01*
G75*
G02*
X105950000Y-77456250I0J218750D01*
G01*
G37*
%TD.AperFunction*%
%TO.P,C4,1*%
%TO.N,+3V3*%
%TA.AperFunction,SMDPad,CuDef*%
G36*
G01*
X104375000Y-77456250D02*
X104375000Y-76943750D01*
G75*
G02*
X104593750Y-76725000I218750J0D01*
G01*
X105031250Y-76725000D01*
G75*
G02*
X105250000Y-76943750I0J-218750D01*
G01*
X105250000Y-77456250D01*
G75*
G02*
X105031250Y-77675000I-218750J0D01*
G01*
X104593750Y-77675000D01*
G75*
G02*
X104375000Y-77456250I0J218750D01*
G01*
G37*
%TD.AperFunction*%
%TD*%
%TO.P,C3,2*%
%TO.N,GND*%
%TA.AperFunction,SMDPad,CuDef*%
G36*
G01*
X84950000Y-77356250D02*
X84950000Y-76843750D01*
G75*
G02*
X85168750Y-76625000I218750J0D01*
G01*
X85606250Y-76625000D01*
G75*
G02*
X85825000Y-76843750I0J-218750D01*
G01*
X85825000Y-77356250D01*
G75*
G02*
X85606250Y-77575000I-218750J0D01*
G01*
X85168750Y-77575000D01*
G75*
G02*
X84950000Y-77356250I0J218750D01*
G01*
G37*
%TD.AperFunction*%
%TO.P,C3,1*%
%TO.N,+3V3*%
%TA.AperFunction,SMDPad,CuDef*%
G36*
G01*
X83375000Y-77356250D02*
X83375000Y-76843750D01*
G75*
G02*
X83593750Y-76625000I218750J0D01*
G01*
X84031250Y-76625000D01*
G75*
G02*
X84250000Y-76843750I0J-218750D01*
G01*
X84250000Y-77356250D01*
G75*
G02*
X84031250Y-77575000I-218750J0D01*
G01*
X83593750Y-77575000D01*
G75*
G02*
X83375000Y-77356250I0J218750D01*
G01*
G37*
%TD.AperFunction*%
%TD*%
D14*
%TO.P,J5,12*%
%TO.N,P1_09*%
X110500000Y-65070000D03*
%TO.P,J5,11*%
%TO.N,P0_28*%
X110500000Y-63800000D03*
%TO.P,J5,10*%
%TO.N,P0_02*%
X110500000Y-62530000D03*
%TO.P,J5,9*%
%TO.N,P0_11*%
X110500000Y-61260000D03*
%TO.P,J5,8*%
%TO.N,P0_15*%
X110500000Y-59990000D03*
%TO.P,J5,7*%
%TO.N,P0_17*%
X110500000Y-58720000D03*
%TO.P,J5,6*%
%TO.N,P0_04*%
X110500000Y-57450000D03*
%TO.P,J5,5*%
%TO.N,P0_03*%
X110500000Y-56180000D03*
%TO.P,J5,4*%
%TO.N,P0_05*%
X110500000Y-54910000D03*
%TO.P,J5,3*%
%TO.N,P0_20*%
X110500000Y-53640000D03*
%TO.P,J5,2*%
%TO.N,P0_29*%
X110500000Y-52370000D03*
D15*
%TO.P,J5,1*%
%TO.N,P0_30*%
X110500000Y-51100000D03*
%TD*%
D16*
%TO.P,J6,6*%
%TO.N,GND*%
X109580000Y-70760000D03*
%TO.P,J6,5*%
X109580000Y-73300000D03*
%TO.P,J6,4*%
%TO.N,VDD*%
X107040000Y-70760000D03*
%TO.P,J6,3*%
%TO.N,P0_09*%
X107040000Y-73300000D03*
%TO.P,J6,2*%
%TO.N,P0_10*%
X104500000Y-70760000D03*
D17*
%TO.P,J6,1*%
%TO.N,P0_31*%
X104500000Y-73300000D03*
%TD*%
%TO.P,C7,1*%
%TO.N,+6V*%
%TA.AperFunction,SMDPad,CuDef*%
G36*
G01*
X95100000Y-67550000D02*
X95100000Y-67050000D01*
G75*
G02*
X95325000Y-66825000I225000J0D01*
G01*
X95775000Y-66825000D01*
G75*
G02*
X96000000Y-67050000I0J-225000D01*
G01*
X96000000Y-67550000D01*
G75*
G02*
X95775000Y-67775000I-225000J0D01*
G01*
X95325000Y-67775000D01*
G75*
G02*
X95100000Y-67550000I0J225000D01*
G01*
G37*
%TD.AperFunction*%
%TO.P,C7,2*%
%TO.N,Net-(C7-Pad2)*%
%TA.AperFunction,SMDPad,CuDef*%
G36*
G01*
X96650000Y-67550000D02*
X96650000Y-67050000D01*
G75*
G02*
X96875000Y-66825000I225000J0D01*
G01*
X97325000Y-66825000D01*
G75*
G02*
X97550000Y-67050000I0J-225000D01*
G01*
X97550000Y-67550000D01*
G75*
G02*
X97325000Y-67775000I-225000J0D01*
G01*
X96875000Y-67775000D01*
G75*
G02*
X96650000Y-67550000I0J225000D01*
G01*
G37*
%TD.AperFunction*%
%TD*%
D16*
%TO.P,J2,2*%
%TO.N,Net-(J2-Pad2)*%
X100200000Y-76760000D03*
D17*
%TO.P,J2,1*%
%TO.N,Net-(J2-Pad1)*%
X100200000Y-79300000D03*
%TD*%
D18*
%TO.P,TP3,1*%
%TO.N,GND*%
X77000000Y-54300000D03*
%TD*%
%TO.P,TP1,1*%
%TO.N,GND*%
X89700000Y-72500000D03*
%TD*%
D19*
%TO.P,J3,1*%
%TO.N,VDD*%
X100365000Y-59860000D03*
%TO.P,J3,2*%
%TO.N,SWDIO*%
X104435000Y-59860000D03*
%TO.P,J3,3*%
%TO.N,GND*%
X100365000Y-61130000D03*
%TO.P,J3,4*%
%TO.N,SWDCLK*%
X104435000Y-61130000D03*
%TO.P,J3,5*%
%TO.N,GND*%
X100365000Y-62400000D03*
%TO.P,J3,6*%
%TO.N,Net-(J3-Pad6)*%
X104435000Y-62400000D03*
%TO.P,J3,7*%
%TO.N,Net-(J3-Pad7)*%
X100365000Y-63670000D03*
%TO.P,J3,8*%
%TO.N,Net-(J3-Pad8)*%
X104435000Y-63670000D03*
%TO.P,J3,9*%
%TO.N,GND*%
X100365000Y-64940000D03*
%TO.P,J3,10*%
%TO.N,RESET*%
X104435000Y-64940000D03*
%TD*%
D16*
%TO.P,J4,2*%
%TO.N,Net-(J4-Pad2)*%
X88822000Y-62226000D03*
D17*
%TO.P,J4,1*%
%TO.N,GND*%
X91362000Y-62226000D03*
%TD*%
D16*
%TO.P,J1,2*%
%TO.N,Net-(J1-Pad2)*%
X90750000Y-76810000D03*
D17*
%TO.P,J1,1*%
%TO.N,Net-(J1-Pad1)*%
X90750000Y-79350000D03*
%TD*%
D20*
%TO.P,U4,C3*%
%TO.N,+3V3*%
X81212000Y-51120000D03*
%TO.P,U4,C2*%
%TO.N,P0_30*%
X80712000Y-51120000D03*
%TO.P,U4,C1*%
%TO.N,P0_29*%
X80212000Y-51120000D03*
%TO.P,U4,B1*%
%TO.N,Net-(R2-Pad2)*%
X80212000Y-50620000D03*
%TO.P,U4,B3*%
%TO.N,GND*%
X81212000Y-50620000D03*
%TO.P,U4,A3*%
%TO.N,Net-(D1-Pad1)*%
X81212000Y-50120000D03*
%TO.P,U4,A1*%
%TO.N,Net-(C2-Pad2)*%
X80212000Y-50120000D03*
%TO.P,U4,A2*%
%TO.N,Net-(D1-Pad2)*%
X80712000Y-50120000D03*
%TO.P,U4,B2*%
%TO.N,GND*%
X80712000Y-50620000D03*
%TD*%
%TO.P,C6,2*%
%TO.N,GND*%
%TA.AperFunction,SMDPad,CuDef*%
G36*
G01*
X92750000Y-67075000D02*
X92750000Y-67575000D01*
G75*
G02*
X92525000Y-67800000I-225000J0D01*
G01*
X92075000Y-67800000D01*
G75*
G02*
X91850000Y-67575000I0J225000D01*
G01*
X91850000Y-67075000D01*
G75*
G02*
X92075000Y-66850000I225000J0D01*
G01*
X92525000Y-66850000D01*
G75*
G02*
X92750000Y-67075000I0J-225000D01*
G01*
G37*
%TD.AperFunction*%
%TO.P,C6,1*%
%TO.N,Net-(C6-Pad1)*%
%TA.AperFunction,SMDPad,CuDef*%
G36*
G01*
X94300000Y-67075000D02*
X94300000Y-67575000D01*
G75*
G02*
X94075000Y-67800000I-225000J0D01*
G01*
X93625000Y-67800000D01*
G75*
G02*
X93400000Y-67575000I0J225000D01*
G01*
X93400000Y-67075000D01*
G75*
G02*
X93625000Y-66850000I225000J0D01*
G01*
X94075000Y-66850000D01*
G75*
G02*
X94300000Y-67075000I0J-225000D01*
G01*
G37*
%TD.AperFunction*%
%TD*%
%TO.P,C11,2*%
%TO.N,GND*%
%TA.AperFunction,SMDPad,CuDef*%
G36*
G01*
X78550000Y-58025000D02*
X79050000Y-58025000D01*
G75*
G02*
X79275000Y-58250000I0J-225000D01*
G01*
X79275000Y-58700000D01*
G75*
G02*
X79050000Y-58925000I-225000J0D01*
G01*
X78550000Y-58925000D01*
G75*
G02*
X78325000Y-58700000I0J225000D01*
G01*
X78325000Y-58250000D01*
G75*
G02*
X78550000Y-58025000I225000J0D01*
G01*
G37*
%TD.AperFunction*%
%TO.P,C11,1*%
%TO.N,+3V3*%
%TA.AperFunction,SMDPad,CuDef*%
G36*
G01*
X78550000Y-56475000D02*
X79050000Y-56475000D01*
G75*
G02*
X79275000Y-56700000I0J-225000D01*
G01*
X79275000Y-57150000D01*
G75*
G02*
X79050000Y-57375000I-225000J0D01*
G01*
X78550000Y-57375000D01*
G75*
G02*
X78325000Y-57150000I0J225000D01*
G01*
X78325000Y-56700000D01*
G75*
G02*
X78550000Y-56475000I225000J0D01*
G01*
G37*
%TD.AperFunction*%
%TD*%
%TO.P,C12,1*%
%TO.N,+6V*%
%TA.AperFunction,SMDPad,CuDef*%
G36*
G01*
X80075000Y-60750000D02*
X80075000Y-60250000D01*
G75*
G02*
X80300000Y-60025000I225000J0D01*
G01*
X80750000Y-60025000D01*
G75*
G02*
X80975000Y-60250000I0J-225000D01*
G01*
X80975000Y-60750000D01*
G75*
G02*
X80750000Y-60975000I-225000J0D01*
G01*
X80300000Y-60975000D01*
G75*
G02*
X80075000Y-60750000I0J225000D01*
G01*
G37*
%TD.AperFunction*%
%TO.P,C12,2*%
%TO.N,GND*%
%TA.AperFunction,SMDPad,CuDef*%
G36*
G01*
X81625000Y-60750000D02*
X81625000Y-60250000D01*
G75*
G02*
X81850000Y-60025000I225000J0D01*
G01*
X82300000Y-60025000D01*
G75*
G02*
X82525000Y-60250000I0J-225000D01*
G01*
X82525000Y-60750000D01*
G75*
G02*
X82300000Y-60975000I-225000J0D01*
G01*
X81850000Y-60975000D01*
G75*
G02*
X81625000Y-60750000I0J225000D01*
G01*
G37*
%TD.AperFunction*%
%TD*%
D21*
%TO.P,D1,2*%
%TO.N,Net-(D1-Pad2)*%
X78200000Y-47300000D03*
D22*
%TO.P,D1,1*%
%TO.N,Net-(D1-Pad1)*%
X84300000Y-47300000D03*
%TD*%
D23*
%TO.P,Q4,1*%
%TO.N,GND*%
X91450000Y-57700000D03*
%TO.P,Q4,2*%
%TO.N,VDD*%
X89550000Y-57700000D03*
%TO.P,Q4,3*%
%TO.N,Net-(J4-Pad2)*%
X90500000Y-59700000D03*
%TD*%
%TO.P,R1,2*%
%TO.N,+6V*%
%TA.AperFunction,SMDPad,CuDef*%
G36*
G01*
X91975000Y-71725000D02*
X91425000Y-71725000D01*
G75*
G02*
X91225000Y-71525000I0J200000D01*
G01*
X91225000Y-71125000D01*
G75*
G02*
X91425000Y-70925000I200000J0D01*
G01*
X91975000Y-70925000D01*
G75*
G02*
X92175000Y-71125000I0J-200000D01*
G01*
X92175000Y-71525000D01*
G75*
G02*
X91975000Y-71725000I-200000J0D01*
G01*
G37*
%TD.AperFunction*%
%TO.P,R1,1*%
%TO.N,Net-(R1-Pad1)*%
%TA.AperFunction,SMDPad,CuDef*%
G36*
G01*
X91975000Y-73375000D02*
X91425000Y-73375000D01*
G75*
G02*
X91225000Y-73175000I0J200000D01*
G01*
X91225000Y-72775000D01*
G75*
G02*
X91425000Y-72575000I200000J0D01*
G01*
X91975000Y-72575000D01*
G75*
G02*
X92175000Y-72775000I0J-200000D01*
G01*
X92175000Y-73175000D01*
G75*
G02*
X91975000Y-73375000I-200000J0D01*
G01*
G37*
%TD.AperFunction*%
%TD*%
%TO.P,R3,1*%
%TO.N,GND*%
%TA.AperFunction,SMDPad,CuDef*%
G36*
G01*
X97475000Y-78975000D02*
X96925000Y-78975000D01*
G75*
G02*
X96725000Y-78775000I0J200000D01*
G01*
X96725000Y-78375000D01*
G75*
G02*
X96925000Y-78175000I200000J0D01*
G01*
X97475000Y-78175000D01*
G75*
G02*
X97675000Y-78375000I0J-200000D01*
G01*
X97675000Y-78775000D01*
G75*
G02*
X97475000Y-78975000I-200000J0D01*
G01*
G37*
%TD.AperFunction*%
%TO.P,R3,2*%
%TO.N,P0_05*%
%TA.AperFunction,SMDPad,CuDef*%
G36*
G01*
X97475000Y-77325000D02*
X96925000Y-77325000D01*
G75*
G02*
X96725000Y-77125000I0J200000D01*
G01*
X96725000Y-76725000D01*
G75*
G02*
X96925000Y-76525000I200000J0D01*
G01*
X97475000Y-76525000D01*
G75*
G02*
X97675000Y-76725000I0J-200000D01*
G01*
X97675000Y-77125000D01*
G75*
G02*
X97475000Y-77325000I-200000J0D01*
G01*
G37*
%TD.AperFunction*%
%TD*%
%TO.P,R4,2*%
%TO.N,P0_04*%
%TA.AperFunction,SMDPad,CuDef*%
G36*
G01*
X94175000Y-77325000D02*
X93625000Y-77325000D01*
G75*
G02*
X93425000Y-77125000I0J200000D01*
G01*
X93425000Y-76725000D01*
G75*
G02*
X93625000Y-76525000I200000J0D01*
G01*
X94175000Y-76525000D01*
G75*
G02*
X94375000Y-76725000I0J-200000D01*
G01*
X94375000Y-77125000D01*
G75*
G02*
X94175000Y-77325000I-200000J0D01*
G01*
G37*
%TD.AperFunction*%
%TO.P,R4,1*%
%TO.N,GND*%
%TA.AperFunction,SMDPad,CuDef*%
G36*
G01*
X94175000Y-78975000D02*
X93625000Y-78975000D01*
G75*
G02*
X93425000Y-78775000I0J200000D01*
G01*
X93425000Y-78375000D01*
G75*
G02*
X93625000Y-78175000I200000J0D01*
G01*
X94175000Y-78175000D01*
G75*
G02*
X94375000Y-78375000I0J-200000D01*
G01*
X94375000Y-78775000D01*
G75*
G02*
X94175000Y-78975000I-200000J0D01*
G01*
G37*
%TD.AperFunction*%
%TD*%
%TO.P,R5,1*%
%TO.N,GND*%
%TA.AperFunction,SMDPad,CuDef*%
G36*
G01*
X89775000Y-54675000D02*
X89775000Y-54125000D01*
G75*
G02*
X89975000Y-53925000I200000J0D01*
G01*
X90375000Y-53925000D01*
G75*
G02*
X90575000Y-54125000I0J-200000D01*
G01*
X90575000Y-54675000D01*
G75*
G02*
X90375000Y-54875000I-200000J0D01*
G01*
X89975000Y-54875000D01*
G75*
G02*
X89775000Y-54675000I0J200000D01*
G01*
G37*
%TD.AperFunction*%
%TO.P,R5,2*%
%TO.N,Net-(R5-Pad2)*%
%TA.AperFunction,SMDPad,CuDef*%
G36*
G01*
X91425000Y-54675000D02*
X91425000Y-54125000D01*
G75*
G02*
X91625000Y-53925000I200000J0D01*
G01*
X92025000Y-53925000D01*
G75*
G02*
X92225000Y-54125000I0J-200000D01*
G01*
X92225000Y-54675000D01*
G75*
G02*
X92025000Y-54875000I-200000J0D01*
G01*
X91625000Y-54875000D01*
G75*
G02*
X91425000Y-54675000I0J200000D01*
G01*
G37*
%TD.AperFunction*%
%TD*%
%TO.P,R6,1*%
%TO.N,+6V*%
%TA.AperFunction,SMDPad,CuDef*%
G36*
G01*
X86625000Y-67225000D02*
X86625000Y-67775000D01*
G75*
G02*
X86425000Y-67975000I-200000J0D01*
G01*
X86025000Y-67975000D01*
G75*
G02*
X85825000Y-67775000I0J200000D01*
G01*
X85825000Y-67225000D01*
G75*
G02*
X86025000Y-67025000I200000J0D01*
G01*
X86425000Y-67025000D01*
G75*
G02*
X86625000Y-67225000I0J-200000D01*
G01*
G37*
%TD.AperFunction*%
%TO.P,R6,2*%
%TO.N,Net-(C13-Pad2)*%
%TA.AperFunction,SMDPad,CuDef*%
G36*
G01*
X84975000Y-67225000D02*
X84975000Y-67775000D01*
G75*
G02*
X84775000Y-67975000I-200000J0D01*
G01*
X84375000Y-67975000D01*
G75*
G02*
X84175000Y-67775000I0J200000D01*
G01*
X84175000Y-67225000D01*
G75*
G02*
X84375000Y-67025000I200000J0D01*
G01*
X84775000Y-67025000D01*
G75*
G02*
X84975000Y-67225000I0J-200000D01*
G01*
G37*
%TD.AperFunction*%
%TD*%
%TO.P,R7,2*%
%TO.N,GND*%
%TA.AperFunction,SMDPad,CuDef*%
G36*
G01*
X85825000Y-64575000D02*
X85825000Y-64025000D01*
G75*
G02*
X86025000Y-63825000I200000J0D01*
G01*
X86425000Y-63825000D01*
G75*
G02*
X86625000Y-64025000I0J-200000D01*
G01*
X86625000Y-64575000D01*
G75*
G02*
X86425000Y-64775000I-200000J0D01*
G01*
X86025000Y-64775000D01*
G75*
G02*
X85825000Y-64575000I0J200000D01*
G01*
G37*
%TD.AperFunction*%
%TO.P,R7,1*%
%TO.N,Net-(C13-Pad2)*%
%TA.AperFunction,SMDPad,CuDef*%
G36*
G01*
X84175000Y-64575000D02*
X84175000Y-64025000D01*
G75*
G02*
X84375000Y-63825000I200000J0D01*
G01*
X84775000Y-63825000D01*
G75*
G02*
X84975000Y-64025000I0J-200000D01*
G01*
X84975000Y-64575000D01*
G75*
G02*
X84775000Y-64775000I-200000J0D01*
G01*
X84375000Y-64775000D01*
G75*
G02*
X84175000Y-64575000I0J200000D01*
G01*
G37*
%TD.AperFunction*%
%TD*%
D24*
%TO.P,U1,3*%
%TO.N,GND*%
X85800000Y-79700000D03*
%TO.P,U1,2*%
%TO.N,P0_17*%
X83800000Y-80650000D03*
%TO.P,U1,1*%
%TO.N,+3V3*%
X83800000Y-78750000D03*
%TD*%
%TO.P,U2,3*%
%TO.N,GND*%
X106700000Y-79800000D03*
%TO.P,U2,2*%
%TO.N,P0_15*%
X104700000Y-80750000D03*
%TO.P,U2,1*%
%TO.N,+3V3*%
X104700000Y-78850000D03*
%TD*%
%TO.P,U3,1*%
%TO.N,Net-(R1-Pad1)*%
%TA.AperFunction,SMDPad,CuDef*%
G36*
G01*
X93325000Y-75650000D02*
X93125000Y-75650000D01*
G75*
G02*
X93025000Y-75550000I0J100000D01*
G01*
X93025000Y-74175000D01*
G75*
G02*
X93125000Y-74075000I100000J0D01*
G01*
X93325000Y-74075000D01*
G75*
G02*
X93425000Y-74175000I0J-100000D01*
G01*
X93425000Y-75550000D01*
G75*
G02*
X93325000Y-75650000I-100000J0D01*
G01*
G37*
%TD.AperFunction*%
%TO.P,U3,2*%
%TO.N,Net-(J1-Pad2)*%
%TA.AperFunction,SMDPad,CuDef*%
G36*
G01*
X93975000Y-75650000D02*
X93775000Y-75650000D01*
G75*
G02*
X93675000Y-75550000I0J100000D01*
G01*
X93675000Y-74175000D01*
G75*
G02*
X93775000Y-74075000I100000J0D01*
G01*
X93975000Y-74075000D01*
G75*
G02*
X94075000Y-74175000I0J-100000D01*
G01*
X94075000Y-75550000D01*
G75*
G02*
X93975000Y-75650000I-100000J0D01*
G01*
G37*
%TD.AperFunction*%
%TO.P,U3,3*%
%TO.N,P0_04*%
%TA.AperFunction,SMDPad,CuDef*%
G36*
G01*
X94625000Y-75650000D02*
X94425000Y-75650000D01*
G75*
G02*
X94325000Y-75550000I0J100000D01*
G01*
X94325000Y-74175000D01*
G75*
G02*
X94425000Y-74075000I100000J0D01*
G01*
X94625000Y-74075000D01*
G75*
G02*
X94725000Y-74175000I0J-100000D01*
G01*
X94725000Y-75550000D01*
G75*
G02*
X94625000Y-75650000I-100000J0D01*
G01*
G37*
%TD.AperFunction*%
%TO.P,U3,4*%
%TO.N,Net-(J1-Pad1)*%
%TA.AperFunction,SMDPad,CuDef*%
G36*
G01*
X95275000Y-75650000D02*
X95075000Y-75650000D01*
G75*
G02*
X94975000Y-75550000I0J100000D01*
G01*
X94975000Y-74175000D01*
G75*
G02*
X95075000Y-74075000I100000J0D01*
G01*
X95275000Y-74075000D01*
G75*
G02*
X95375000Y-74175000I0J-100000D01*
G01*
X95375000Y-75550000D01*
G75*
G02*
X95275000Y-75650000I-100000J0D01*
G01*
G37*
%TD.AperFunction*%
%TO.P,U3,5*%
%TO.N,Net-(J2-Pad1)*%
%TA.AperFunction,SMDPad,CuDef*%
G36*
G01*
X95925000Y-75650000D02*
X95725000Y-75650000D01*
G75*
G02*
X95625000Y-75550000I0J100000D01*
G01*
X95625000Y-74175000D01*
G75*
G02*
X95725000Y-74075000I100000J0D01*
G01*
X95925000Y-74075000D01*
G75*
G02*
X96025000Y-74175000I0J-100000D01*
G01*
X96025000Y-75550000D01*
G75*
G02*
X95925000Y-75650000I-100000J0D01*
G01*
G37*
%TD.AperFunction*%
%TO.P,U3,6*%
%TO.N,P0_05*%
%TA.AperFunction,SMDPad,CuDef*%
G36*
G01*
X96575000Y-75650000D02*
X96375000Y-75650000D01*
G75*
G02*
X96275000Y-75550000I0J100000D01*
G01*
X96275000Y-74175000D01*
G75*
G02*
X96375000Y-74075000I100000J0D01*
G01*
X96575000Y-74075000D01*
G75*
G02*
X96675000Y-74175000I0J-100000D01*
G01*
X96675000Y-75550000D01*
G75*
G02*
X96575000Y-75650000I-100000J0D01*
G01*
G37*
%TD.AperFunction*%
%TO.P,U3,7*%
%TO.N,Net-(J2-Pad2)*%
%TA.AperFunction,SMDPad,CuDef*%
G36*
G01*
X97225000Y-75650000D02*
X97025000Y-75650000D01*
G75*
G02*
X96925000Y-75550000I0J100000D01*
G01*
X96925000Y-74175000D01*
G75*
G02*
X97025000Y-74075000I100000J0D01*
G01*
X97225000Y-74075000D01*
G75*
G02*
X97325000Y-74175000I0J-100000D01*
G01*
X97325000Y-75550000D01*
G75*
G02*
X97225000Y-75650000I-100000J0D01*
G01*
G37*
%TD.AperFunction*%
%TO.P,U3,8*%
%TO.N,Net-(U3-Pad8)*%
%TA.AperFunction,SMDPad,CuDef*%
G36*
G01*
X97875000Y-75650000D02*
X97675000Y-75650000D01*
G75*
G02*
X97575000Y-75550000I0J100000D01*
G01*
X97575000Y-74175000D01*
G75*
G02*
X97675000Y-74075000I100000J0D01*
G01*
X97875000Y-74075000D01*
G75*
G02*
X97975000Y-74175000I0J-100000D01*
G01*
X97975000Y-75550000D01*
G75*
G02*
X97875000Y-75650000I-100000J0D01*
G01*
G37*
%TD.AperFunction*%
%TO.P,U3,9*%
%TO.N,P0_11*%
%TA.AperFunction,SMDPad,CuDef*%
G36*
G01*
X97875000Y-69925000D02*
X97675000Y-69925000D01*
G75*
G02*
X97575000Y-69825000I0J100000D01*
G01*
X97575000Y-68450000D01*
G75*
G02*
X97675000Y-68350000I100000J0D01*
G01*
X97875000Y-68350000D01*
G75*
G02*
X97975000Y-68450000I0J-100000D01*
G01*
X97975000Y-69825000D01*
G75*
G02*
X97875000Y-69925000I-100000J0D01*
G01*
G37*
%TD.AperFunction*%
%TO.P,U3,10*%
%TO.N,P1_09*%
%TA.AperFunction,SMDPad,CuDef*%
G36*
G01*
X97225000Y-69925000D02*
X97025000Y-69925000D01*
G75*
G02*
X96925000Y-69825000I0J100000D01*
G01*
X96925000Y-68450000D01*
G75*
G02*
X97025000Y-68350000I100000J0D01*
G01*
X97225000Y-68350000D01*
G75*
G02*
X97325000Y-68450000I0J-100000D01*
G01*
X97325000Y-69825000D01*
G75*
G02*
X97225000Y-69925000I-100000J0D01*
G01*
G37*
%TD.AperFunction*%
%TO.P,U3,11*%
%TO.N,Net-(C7-Pad2)*%
%TA.AperFunction,SMDPad,CuDef*%
G36*
G01*
X96575000Y-69925000D02*
X96375000Y-69925000D01*
G75*
G02*
X96275000Y-69825000I0J100000D01*
G01*
X96275000Y-68450000D01*
G75*
G02*
X96375000Y-68350000I100000J0D01*
G01*
X96575000Y-68350000D01*
G75*
G02*
X96675000Y-68450000I0J-100000D01*
G01*
X96675000Y-69825000D01*
G75*
G02*
X96575000Y-69925000I-100000J0D01*
G01*
G37*
%TD.AperFunction*%
%TO.P,U3,12*%
%TO.N,+6V*%
%TA.AperFunction,SMDPad,CuDef*%
G36*
G01*
X95925000Y-69925000D02*
X95725000Y-69925000D01*
G75*
G02*
X95625000Y-69825000I0J100000D01*
G01*
X95625000Y-68450000D01*
G75*
G02*
X95725000Y-68350000I100000J0D01*
G01*
X95925000Y-68350000D01*
G75*
G02*
X96025000Y-68450000I0J-100000D01*
G01*
X96025000Y-69825000D01*
G75*
G02*
X95925000Y-69925000I-100000J0D01*
G01*
G37*
%TD.AperFunction*%
%TO.P,U3,13*%
%TO.N,GND*%
%TA.AperFunction,SMDPad,CuDef*%
G36*
G01*
X95275000Y-69925000D02*
X95075000Y-69925000D01*
G75*
G02*
X94975000Y-69825000I0J100000D01*
G01*
X94975000Y-68450000D01*
G75*
G02*
X95075000Y-68350000I100000J0D01*
G01*
X95275000Y-68350000D01*
G75*
G02*
X95375000Y-68450000I0J-100000D01*
G01*
X95375000Y-69825000D01*
G75*
G02*
X95275000Y-69925000I-100000J0D01*
G01*
G37*
%TD.AperFunction*%
%TO.P,U3,14*%
%TO.N,Net-(C6-Pad1)*%
%TA.AperFunction,SMDPad,CuDef*%
G36*
G01*
X94625000Y-69925000D02*
X94425000Y-69925000D01*
G75*
G02*
X94325000Y-69825000I0J100000D01*
G01*
X94325000Y-68450000D01*
G75*
G02*
X94425000Y-68350000I100000J0D01*
G01*
X94625000Y-68350000D01*
G75*
G02*
X94725000Y-68450000I0J-100000D01*
G01*
X94725000Y-69825000D01*
G75*
G02*
X94625000Y-69925000I-100000J0D01*
G01*
G37*
%TD.AperFunction*%
%TO.P,U3,15*%
%TO.N,P0_28*%
%TA.AperFunction,SMDPad,CuDef*%
G36*
G01*
X93975000Y-69925000D02*
X93775000Y-69925000D01*
G75*
G02*
X93675000Y-69825000I0J100000D01*
G01*
X93675000Y-68450000D01*
G75*
G02*
X93775000Y-68350000I100000J0D01*
G01*
X93975000Y-68350000D01*
G75*
G02*
X94075000Y-68450000I0J-100000D01*
G01*
X94075000Y-69825000D01*
G75*
G02*
X93975000Y-69925000I-100000J0D01*
G01*
G37*
%TD.AperFunction*%
%TO.P,U3,16*%
%TO.N,P0_02*%
%TA.AperFunction,SMDPad,CuDef*%
G36*
G01*
X93325000Y-69925000D02*
X93125000Y-69925000D01*
G75*
G02*
X93025000Y-69825000I0J100000D01*
G01*
X93025000Y-68450000D01*
G75*
G02*
X93125000Y-68350000I100000J0D01*
G01*
X93325000Y-68350000D01*
G75*
G02*
X93425000Y-68450000I0J-100000D01*
G01*
X93425000Y-69825000D01*
G75*
G02*
X93325000Y-69925000I-100000J0D01*
G01*
G37*
%TD.AperFunction*%
D25*
%TD*%
%TO.N,GND*%
%TO.C,U3*%
X95500000Y-72000000D03*
D26*
%TO.N,GND*%
%TO.C,U3*%
X94000000Y-72750000D03*
X94000000Y-71250000D03*
X95500000Y-72750000D03*
X95500000Y-71250000D03*
X97000000Y-72750000D03*
X97000000Y-71250000D03*
%TD*%
%TO.P,U5,1*%
%TO.N,VDD*%
%TA.AperFunction,SMDPad,CuDef*%
G36*
G01*
X95850200Y-49699400D02*
X95850200Y-49699400D01*
G75*
G02*
X96104200Y-49445400I254000J0D01*
G01*
X96104200Y-49445400D01*
G75*
G02*
X96358200Y-49699400I0J-254000D01*
G01*
X96358200Y-49699400D01*
G75*
G02*
X96104200Y-49953400I-254000J0D01*
G01*
X96104200Y-49953400D01*
G75*
G02*
X95850200Y-49699400I0J254000D01*
G01*
G37*
%TD.AperFunction*%
%TO.P,U5,2*%
%TO.N,P0_03*%
%TA.AperFunction,SMDPad,CuDef*%
G36*
G01*
X95850200Y-50690000D02*
X95850200Y-50690000D01*
G75*
G02*
X96104200Y-50436000I254000J0D01*
G01*
X96104200Y-50436000D01*
G75*
G02*
X96358200Y-50690000I0J-254000D01*
G01*
X96358200Y-50690000D01*
G75*
G02*
X96104200Y-50944000I-254000J0D01*
G01*
X96104200Y-50944000D01*
G75*
G02*
X95850200Y-50690000I0J254000D01*
G01*
G37*
%TD.AperFunction*%
%TO.P,U5,3*%
%TO.N,P0_02*%
%TA.AperFunction,SMDPad,CuDef*%
G36*
G01*
X95850200Y-51706000D02*
X95850200Y-51706000D01*
G75*
G02*
X96104200Y-51452000I254000J0D01*
G01*
X96104200Y-51452000D01*
G75*
G02*
X96358200Y-51706000I0J-254000D01*
G01*
X96358200Y-51706000D01*
G75*
G02*
X96104200Y-51960000I-254000J0D01*
G01*
X96104200Y-51960000D01*
G75*
G02*
X95850200Y-51706000I0J254000D01*
G01*
G37*
%TD.AperFunction*%
%TO.P,U5,4*%
%TO.N,P0_28*%
%TA.AperFunction,SMDPad,CuDef*%
G36*
G01*
X95850200Y-52696600D02*
X95850200Y-52696600D01*
G75*
G02*
X96104200Y-52442600I254000J0D01*
G01*
X96104200Y-52442600D01*
G75*
G02*
X96358200Y-52696600I0J-254000D01*
G01*
X96358200Y-52696600D01*
G75*
G02*
X96104200Y-52950600I-254000J0D01*
G01*
X96104200Y-52950600D01*
G75*
G02*
X95850200Y-52696600I0J254000D01*
G01*
G37*
%TD.AperFunction*%
%TO.P,U5,5*%
%TO.N,GND*%
%TA.AperFunction,SMDPad,CuDef*%
G36*
G01*
X95850200Y-53712600D02*
X95850200Y-53712600D01*
G75*
G02*
X96104200Y-53458600I254000J0D01*
G01*
X96104200Y-53458600D01*
G75*
G02*
X96358200Y-53712600I0J-254000D01*
G01*
X96358200Y-53712600D01*
G75*
G02*
X96104200Y-53966600I-254000J0D01*
G01*
X96104200Y-53966600D01*
G75*
G02*
X95850200Y-53712600I0J254000D01*
G01*
G37*
%TD.AperFunction*%
%TO.P,U5,6*%
%TO.N,P0_29*%
%TA.AperFunction,SMDPad,CuDef*%
G36*
G01*
X96840800Y-50690000D02*
X96840800Y-50690000D01*
G75*
G02*
X97094800Y-50436000I254000J0D01*
G01*
X97094800Y-50436000D01*
G75*
G02*
X97348800Y-50690000I0J-254000D01*
G01*
X97348800Y-50690000D01*
G75*
G02*
X97094800Y-50944000I-254000J0D01*
G01*
X97094800Y-50944000D01*
G75*
G02*
X96840800Y-50690000I0J254000D01*
G01*
G37*
%TD.AperFunction*%
%TO.P,U5,7*%
%TO.N,P0_30*%
%TA.AperFunction,SMDPad,CuDef*%
G36*
G01*
X96840800Y-51706000D02*
X96840800Y-51706000D01*
G75*
G02*
X97094800Y-51452000I254000J0D01*
G01*
X97094800Y-51452000D01*
G75*
G02*
X97348800Y-51706000I0J-254000D01*
G01*
X97348800Y-51706000D01*
G75*
G02*
X97094800Y-51960000I-254000J0D01*
G01*
X97094800Y-51960000D01*
G75*
G02*
X96840800Y-51706000I0J254000D01*
G01*
G37*
%TD.AperFunction*%
%TO.P,U5,8*%
%TO.N,P0_31*%
%TA.AperFunction,SMDPad,CuDef*%
G36*
G01*
X96840800Y-52696600D02*
X96840800Y-52696600D01*
G75*
G02*
X97094800Y-52442600I254000J0D01*
G01*
X97094800Y-52442600D01*
G75*
G02*
X97348800Y-52696600I0J-254000D01*
G01*
X97348800Y-52696600D01*
G75*
G02*
X97094800Y-52950600I-254000J0D01*
G01*
X97094800Y-52950600D01*
G75*
G02*
X96840800Y-52696600I0J254000D01*
G01*
G37*
%TD.AperFunction*%
%TO.P,U5,9*%
%TO.N,P0_04*%
%TA.AperFunction,SMDPad,CuDef*%
G36*
G01*
X99838000Y-54703200D02*
X99838000Y-54703200D01*
G75*
G02*
X100092000Y-54449200I254000J0D01*
G01*
X100092000Y-54449200D01*
G75*
G02*
X100346000Y-54703200I0J-254000D01*
G01*
X100346000Y-54703200D01*
G75*
G02*
X100092000Y-54957200I-254000J0D01*
G01*
X100092000Y-54957200D01*
G75*
G02*
X99838000Y-54703200I0J254000D01*
G01*
G37*
%TD.AperFunction*%
%TO.P,U5,10*%
%TO.N,P0_05*%
%TA.AperFunction,SMDPad,CuDef*%
G36*
G01*
X100854000Y-54703200D02*
X100854000Y-54703200D01*
G75*
G02*
X101108000Y-54449200I254000J0D01*
G01*
X101108000Y-54449200D01*
G75*
G02*
X101362000Y-54703200I0J-254000D01*
G01*
X101362000Y-54703200D01*
G75*
G02*
X101108000Y-54957200I-254000J0D01*
G01*
X101108000Y-54957200D01*
G75*
G02*
X100854000Y-54703200I0J254000D01*
G01*
G37*
%TD.AperFunction*%
%TO.P,U5,11*%
%TO.N,P1_09*%
%TA.AperFunction,SMDPad,CuDef*%
G36*
G01*
X101844600Y-54703200D02*
X101844600Y-54703200D01*
G75*
G02*
X102098600Y-54449200I254000J0D01*
G01*
X102098600Y-54449200D01*
G75*
G02*
X102352600Y-54703200I0J-254000D01*
G01*
X102352600Y-54703200D01*
G75*
G02*
X102098600Y-54957200I-254000J0D01*
G01*
X102098600Y-54957200D01*
G75*
G02*
X101844600Y-54703200I0J254000D01*
G01*
G37*
%TD.AperFunction*%
%TO.P,U5,12*%
%TO.N,P0_11*%
%TA.AperFunction,SMDPad,CuDef*%
G36*
G01*
X102835200Y-54703200D02*
X102835200Y-54703200D01*
G75*
G02*
X103089200Y-54449200I254000J0D01*
G01*
X103089200Y-54449200D01*
G75*
G02*
X103343200Y-54703200I0J-254000D01*
G01*
X103343200Y-54703200D01*
G75*
G02*
X103089200Y-54957200I-254000J0D01*
G01*
X103089200Y-54957200D01*
G75*
G02*
X102835200Y-54703200I0J254000D01*
G01*
G37*
%TD.AperFunction*%
%TO.P,U5,13*%
%TO.N,VDD*%
%TA.AperFunction,SMDPad,CuDef*%
G36*
G01*
X103851200Y-54703200D02*
X103851200Y-54703200D01*
G75*
G02*
X104105200Y-54449200I254000J0D01*
G01*
X104105200Y-54449200D01*
G75*
G02*
X104359200Y-54703200I0J-254000D01*
G01*
X104359200Y-54703200D01*
G75*
G02*
X104105200Y-54957200I-254000J0D01*
G01*
X104105200Y-54957200D01*
G75*
G02*
X103851200Y-54703200I0J254000D01*
G01*
G37*
%TD.AperFunction*%
%TO.P,U5,14*%
%TO.N,Net-(U5-Pad14)*%
%TA.AperFunction,SMDPad,CuDef*%
G36*
G01*
X104841800Y-54703200D02*
X104841800Y-54703200D01*
G75*
G02*
X105095800Y-54449200I254000J0D01*
G01*
X105095800Y-54449200D01*
G75*
G02*
X105349800Y-54703200I0J-254000D01*
G01*
X105349800Y-54703200D01*
G75*
G02*
X105095800Y-54957200I-254000J0D01*
G01*
X105095800Y-54957200D01*
G75*
G02*
X104841800Y-54703200I0J254000D01*
G01*
G37*
%TD.AperFunction*%
%TO.P,U5,15*%
%TO.N,Net-(U5-Pad15)*%
%TA.AperFunction,SMDPad,CuDef*%
G36*
G01*
X104841800Y-52696600D02*
X104841800Y-52696600D01*
G75*
G02*
X105095800Y-52442600I254000J0D01*
G01*
X105095800Y-52442600D01*
G75*
G02*
X105349800Y-52696600I0J-254000D01*
G01*
X105349800Y-52696600D01*
G75*
G02*
X105095800Y-52950600I-254000J0D01*
G01*
X105095800Y-52950600D01*
G75*
G02*
X104841800Y-52696600I0J254000D01*
G01*
G37*
%TD.AperFunction*%
%TO.P,U5,16*%
%TO.N,P0_15*%
%TA.AperFunction,SMDPad,CuDef*%
G36*
G01*
X104841800Y-51706000D02*
X104841800Y-51706000D01*
G75*
G02*
X105095800Y-51452000I254000J0D01*
G01*
X105095800Y-51452000D01*
G75*
G02*
X105349800Y-51706000I0J-254000D01*
G01*
X105349800Y-51706000D01*
G75*
G02*
X105095800Y-51960000I-254000J0D01*
G01*
X105095800Y-51960000D01*
G75*
G02*
X104841800Y-51706000I0J254000D01*
G01*
G37*
%TD.AperFunction*%
%TO.P,U5,17*%
%TO.N,RESET*%
%TA.AperFunction,SMDPad,CuDef*%
G36*
G01*
X104841800Y-50690000D02*
X104841800Y-50690000D01*
G75*
G02*
X105095800Y-50436000I254000J0D01*
G01*
X105095800Y-50436000D01*
G75*
G02*
X105349800Y-50690000I0J-254000D01*
G01*
X105349800Y-50690000D01*
G75*
G02*
X105095800Y-50944000I-254000J0D01*
G01*
X105095800Y-50944000D01*
G75*
G02*
X104841800Y-50690000I0J254000D01*
G01*
G37*
%TD.AperFunction*%
%TO.P,U5,18*%
%TO.N,SWDIO*%
%TA.AperFunction,SMDPad,CuDef*%
G36*
G01*
X104841800Y-49699400D02*
X104841800Y-49699400D01*
G75*
G02*
X105095800Y-49445400I254000J0D01*
G01*
X105095800Y-49445400D01*
G75*
G02*
X105349800Y-49699400I0J-254000D01*
G01*
X105349800Y-49699400D01*
G75*
G02*
X105095800Y-49953400I-254000J0D01*
G01*
X105095800Y-49953400D01*
G75*
G02*
X104841800Y-49699400I0J254000D01*
G01*
G37*
%TD.AperFunction*%
%TO.P,U5,19*%
%TO.N,Net-(U5-Pad19)*%
%TA.AperFunction,SMDPad,CuDef*%
G36*
G01*
X103851200Y-52696600D02*
X103851200Y-52696600D01*
G75*
G02*
X104105200Y-52442600I254000J0D01*
G01*
X104105200Y-52442600D01*
G75*
G02*
X104359200Y-52696600I0J-254000D01*
G01*
X104359200Y-52696600D01*
G75*
G02*
X104105200Y-52950600I-254000J0D01*
G01*
X104105200Y-52950600D01*
G75*
G02*
X103851200Y-52696600I0J254000D01*
G01*
G37*
%TD.AperFunction*%
%TO.P,U5,20*%
%TO.N,P0_17*%
%TA.AperFunction,SMDPad,CuDef*%
G36*
G01*
X103851200Y-51706000D02*
X103851200Y-51706000D01*
G75*
G02*
X104105200Y-51452000I254000J0D01*
G01*
X104105200Y-51452000D01*
G75*
G02*
X104359200Y-51706000I0J-254000D01*
G01*
X104359200Y-51706000D01*
G75*
G02*
X104105200Y-51960000I-254000J0D01*
G01*
X104105200Y-51960000D01*
G75*
G02*
X103851200Y-51706000I0J254000D01*
G01*
G37*
%TD.AperFunction*%
%TO.P,U5,21*%
%TO.N,P0_20*%
%TA.AperFunction,SMDPad,CuDef*%
G36*
G01*
X103851200Y-50690000D02*
X103851200Y-50690000D01*
G75*
G02*
X104105200Y-50436000I254000J0D01*
G01*
X104105200Y-50436000D01*
G75*
G02*
X104359200Y-50690000I0J-254000D01*
G01*
X104359200Y-50690000D01*
G75*
G02*
X104105200Y-50944000I-254000J0D01*
G01*
X104105200Y-50944000D01*
G75*
G02*
X103851200Y-50690000I0J254000D01*
G01*
G37*
%TD.AperFunction*%
%TO.P,U5,22*%
%TO.N,SWDCLK*%
%TA.AperFunction,SMDPad,CuDef*%
G36*
G01*
X103851200Y-49699400D02*
X103851200Y-49699400D01*
G75*
G02*
X104105200Y-49445400I254000J0D01*
G01*
X104105200Y-49445400D01*
G75*
G02*
X104359200Y-49699400I0J-254000D01*
G01*
X104359200Y-49699400D01*
G75*
G02*
X104105200Y-49953400I-254000J0D01*
G01*
X104105200Y-49953400D01*
G75*
G02*
X103851200Y-49699400I0J254000D01*
G01*
G37*
%TD.AperFunction*%
%TO.P,U5,23*%
%TO.N,P0_09*%
%TA.AperFunction,SMDPad,CuDef*%
G36*
G01*
X102835200Y-49699400D02*
X102835200Y-49699400D01*
G75*
G02*
X103089200Y-49445400I254000J0D01*
G01*
X103089200Y-49445400D01*
G75*
G02*
X103343200Y-49699400I0J-254000D01*
G01*
X103343200Y-49699400D01*
G75*
G02*
X103089200Y-49953400I-254000J0D01*
G01*
X103089200Y-49953400D01*
G75*
G02*
X102835200Y-49699400I0J254000D01*
G01*
G37*
%TD.AperFunction*%
%TO.P,U5,24*%
%TO.N,P0_10*%
%TA.AperFunction,SMDPad,CuDef*%
G36*
G01*
X101844600Y-49699400D02*
X101844600Y-49699400D01*
G75*
G02*
X102098600Y-49445400I254000J0D01*
G01*
X102098600Y-49445400D01*
G75*
G02*
X102352600Y-49699400I0J-254000D01*
G01*
X102352600Y-49699400D01*
G75*
G02*
X102098600Y-49953400I-254000J0D01*
G01*
X102098600Y-49953400D01*
G75*
G02*
X101844600Y-49699400I0J254000D01*
G01*
G37*
%TD.AperFunction*%
%TO.P,U5,25*%
%TO.N,GND*%
%TA.AperFunction,SMDPad,CuDef*%
G36*
G01*
X100854000Y-51706000D02*
X100854000Y-51706000D01*
G75*
G02*
X101108000Y-51452000I254000J0D01*
G01*
X101108000Y-51452000D01*
G75*
G02*
X101362000Y-51706000I0J-254000D01*
G01*
X101362000Y-51706000D01*
G75*
G02*
X101108000Y-51960000I-254000J0D01*
G01*
X101108000Y-51960000D01*
G75*
G02*
X100854000Y-51706000I0J254000D01*
G01*
G37*
%TD.AperFunction*%
%TO.P,U5,26*%
%TA.AperFunction,SMDPad,CuDef*%
G36*
G01*
X100854000Y-52696600D02*
X100854000Y-52696600D01*
G75*
G02*
X101108000Y-52442600I254000J0D01*
G01*
X101108000Y-52442600D01*
G75*
G02*
X101362000Y-52696600I0J-254000D01*
G01*
X101362000Y-52696600D01*
G75*
G02*
X101108000Y-52950600I-254000J0D01*
G01*
X101108000Y-52950600D01*
G75*
G02*
X100854000Y-52696600I0J254000D01*
G01*
G37*
%TD.AperFunction*%
%TO.P,U5,27*%
%TA.AperFunction,SMDPad,CuDef*%
G36*
G01*
X99838000Y-51706000D02*
X99838000Y-51706000D01*
G75*
G02*
X100092000Y-51452000I254000J0D01*
G01*
X100092000Y-51452000D01*
G75*
G02*
X100346000Y-51706000I0J-254000D01*
G01*
X100346000Y-51706000D01*
G75*
G02*
X100092000Y-51960000I-254000J0D01*
G01*
X100092000Y-51960000D01*
G75*
G02*
X99838000Y-51706000I0J254000D01*
G01*
G37*
%TD.AperFunction*%
%TO.P,U5,28*%
%TA.AperFunction,SMDPad,CuDef*%
G36*
G01*
X99838000Y-52696600D02*
X99838000Y-52696600D01*
G75*
G02*
X100092000Y-52442600I254000J0D01*
G01*
X100092000Y-52442600D01*
G75*
G02*
X100346000Y-52696600I0J-254000D01*
G01*
X100346000Y-52696600D01*
G75*
G02*
X100092000Y-52950600I-254000J0D01*
G01*
X100092000Y-52950600D01*
G75*
G02*
X99838000Y-52696600I0J254000D01*
G01*
G37*
%TD.AperFunction*%
%TD*%
D27*
%TO.P,U6,1*%
%TO.N,+6V*%
X80450000Y-58900000D03*
%TO.P,U6,2*%
%TO.N,GND*%
X81400000Y-58900000D03*
%TO.P,U6,3*%
%TO.N,Net-(U6-Pad3)*%
X82350000Y-58900000D03*
%TO.P,U6,4*%
%TO.N,Net-(U6-Pad4)*%
X82350000Y-56700000D03*
%TO.P,U6,5*%
%TO.N,+3V3*%
X80450000Y-56700000D03*
%TD*%
D28*
%TO.N,GND*%
X84300000Y-49900000D03*
X104000000Y-75800000D03*
X98700000Y-52800000D03*
X99500000Y-53400000D03*
X91362000Y-66262000D03*
X94625000Y-79675000D03*
X96575000Y-79625000D03*
X95299986Y-79099986D03*
X95825000Y-77975000D03*
X95650000Y-79875000D03*
X95974979Y-54800000D03*
X98450000Y-62125000D03*
X77100000Y-59200000D03*
X89200000Y-52200000D03*
X90200000Y-55600000D03*
X83666109Y-59766109D03*
X94300000Y-48900000D03*
X78800000Y-54300000D03*
X86999992Y-77200000D03*
X79000000Y-59700002D03*
%TO.N,+3V3*%
X82100000Y-54900000D03*
X76600000Y-56900000D03*
X102800000Y-77500000D03*
X84362357Y-79250010D03*
X90300000Y-48800000D03*
X84200000Y-51000000D03*
%TO.N,+6V*%
X78200000Y-60400000D03*
X89700000Y-65500000D03*
X84500000Y-56900000D03*
%TO.N,VDD*%
X97000000Y-49000000D03*
X103825000Y-55950000D03*
X99100000Y-58600000D03*
X92525728Y-55725728D03*
%TO.N,P0_30*%
X100000000Y-48900000D03*
X83280331Y-53100000D03*
%TO.N,P0_29*%
X98500000Y-48900000D03*
X83200000Y-54200000D03*
%TO.N,P0_02*%
X91900000Y-69950000D03*
X96011833Y-63419958D03*
%TO.N,P0_05*%
X101500000Y-53700000D03*
X98375000Y-76950000D03*
X99925000Y-73275000D03*
%TO.N,P0_04*%
X92700000Y-76875000D03*
X97000000Y-58700000D03*
X99200000Y-74100000D03*
%TO.N,P0_03*%
X94400000Y-57100000D03*
%TO.N,P0_17*%
X86800000Y-81000000D03*
X102874537Y-52720132D03*
X107400000Y-56300000D03*
X107200000Y-58800000D03*
X107800000Y-77300000D03*
%TO.N,P0_15*%
X104813516Y-53625904D03*
X108100000Y-55600000D03*
%TO.N,P0_10*%
X112800001Y-72699999D03*
%TO.N,P1_09*%
X98700000Y-68175000D03*
X101950000Y-68175000D03*
X110475000Y-68175000D03*
%TO.N,P0_11*%
X98750000Y-69125000D03*
X102550000Y-69125000D03*
X111700000Y-68800000D03*
%TO.N,P0_31*%
X112800000Y-75300000D03*
%TO.N,P0_28*%
X92386772Y-69011772D03*
X96700000Y-64199994D03*
%TO.N,P0_20*%
X98700000Y-51500000D03*
X79600000Y-66300000D03*
%TO.N,P0_09*%
X112200000Y-74300000D03*
%TD*%
D29*
%TO.N,GND*%
X80712000Y-50620000D02*
X81212000Y-50620000D01*
X81756000Y-50620000D02*
X82236000Y-50140000D01*
X81212000Y-50620000D02*
X81756000Y-50620000D01*
D30*
X81400000Y-59825000D02*
X81400000Y-58900000D01*
X82075000Y-60500000D02*
X81400000Y-59825000D01*
X78800000Y-58475000D02*
X78900000Y-58375000D01*
X81400000Y-58120000D02*
X81400000Y-58900000D01*
X81080000Y-57800000D02*
X81400000Y-58120000D01*
X79475000Y-57800000D02*
X81080000Y-57800000D01*
X78900000Y-58375000D02*
X79475000Y-57800000D01*
D31*
X100092000Y-52696600D02*
X101108000Y-52696600D01*
X101108000Y-52696600D02*
X101108000Y-51706000D01*
X101108000Y-51706000D02*
X100092000Y-51706000D01*
X100092000Y-52808000D02*
X99500000Y-53400000D01*
X100092000Y-52696600D02*
X100092000Y-52808000D01*
D32*
X100365000Y-61130000D02*
X100365000Y-62400000D01*
D33*
X91463000Y-62125000D02*
X91362000Y-62226000D01*
D29*
X99509998Y-62400000D02*
X100365000Y-62400000D01*
X98769999Y-63139999D02*
X99509998Y-62400000D01*
X98769999Y-64369999D02*
X98769999Y-63139999D01*
X99340000Y-64940000D02*
X98769999Y-64369999D01*
X100365000Y-64940000D02*
X99340000Y-64940000D01*
D30*
X95175000Y-71675000D02*
X95500000Y-72000000D01*
X95175000Y-69137500D02*
X95175000Y-71675000D01*
X95175000Y-68363586D02*
X95175000Y-69137500D01*
X94699990Y-67888576D02*
X95175000Y-68363586D01*
X94699990Y-66049990D02*
X94699990Y-67888576D01*
X94425000Y-65775000D02*
X94699990Y-66049990D01*
X93975000Y-65775000D02*
X94425000Y-65775000D01*
X93850000Y-65775000D02*
X92300000Y-67325000D01*
X93975000Y-65775000D02*
X93850000Y-65775000D01*
X92300000Y-67200000D02*
X91362000Y-66262000D01*
X92300000Y-67325000D02*
X92300000Y-67200000D01*
X94750000Y-79550000D02*
X94625000Y-79675000D01*
X94750000Y-78575000D02*
X94750000Y-79550000D01*
X93900000Y-78575000D02*
X94750000Y-78575000D01*
X96450000Y-79500000D02*
X96575000Y-79625000D01*
X96450000Y-78575000D02*
X96450000Y-79500000D01*
X96450000Y-78575000D02*
X97200000Y-78575000D01*
X94750000Y-78575000D02*
X95275000Y-78575000D01*
X95275000Y-78575000D02*
X95299986Y-78599986D01*
X95299986Y-78599986D02*
X95299986Y-79099986D01*
X96050000Y-78575000D02*
X96050000Y-78200000D01*
X96050000Y-78200000D02*
X95825000Y-77975000D01*
X95275000Y-78575000D02*
X96050000Y-78575000D01*
X96050000Y-78575000D02*
X96450000Y-78575000D01*
X96050000Y-79475000D02*
X95650000Y-79875000D01*
X96050000Y-78575000D02*
X96050000Y-79475000D01*
D29*
X96104200Y-53712600D02*
X96104200Y-54670779D01*
X96104200Y-54670779D02*
X95974979Y-54800000D01*
X100365000Y-62400000D02*
X98725000Y-62400000D01*
X98725000Y-62400000D02*
X98450000Y-62125000D01*
D30*
X77100000Y-59200000D02*
X78000000Y-58300000D01*
X78825000Y-58300000D02*
X78900000Y-58375000D01*
X78000000Y-58300000D02*
X78825000Y-58300000D01*
D31*
X100092000Y-51706000D02*
X98998000Y-52800000D01*
X98998000Y-52800000D02*
X98700000Y-52800000D01*
D32*
X87525000Y-52505000D02*
X88895000Y-52505000D01*
X88895000Y-52505000D02*
X89200000Y-52200000D01*
X90175000Y-54400000D02*
X90175000Y-55575000D01*
X90175000Y-55575000D02*
X90200000Y-55600000D01*
D30*
X82932218Y-60500000D02*
X83666109Y-59766109D01*
X82075000Y-60500000D02*
X82932218Y-60500000D01*
D34*
X81200000Y-66300000D02*
X80700000Y-65800000D01*
X81800000Y-66300000D02*
X81200000Y-66300000D01*
X80700000Y-64087500D02*
X81187500Y-63600000D01*
X80700000Y-65800000D02*
X80700000Y-64087500D01*
X84095400Y-63349990D02*
X85274990Y-63349990D01*
X83845390Y-63600000D02*
X84095400Y-63349990D01*
X85274990Y-63349990D02*
X86225000Y-64300000D01*
X81187500Y-63600000D02*
X83845390Y-63600000D01*
X86225000Y-64300000D02*
X87300000Y-64300000D01*
X87300000Y-64300000D02*
X88300000Y-65300000D01*
X89288000Y-64300000D02*
X91362000Y-62226000D01*
X87300000Y-64300000D02*
X89288000Y-64300000D01*
D33*
X94187500Y-47000000D02*
X94187500Y-48787500D01*
D29*
X94187500Y-48787500D02*
X94300000Y-48900000D01*
D30*
X84612500Y-58819718D02*
X83666109Y-59766109D01*
X84612500Y-58300000D02*
X84612500Y-58819718D01*
X88300000Y-65300000D02*
X88500000Y-65500000D01*
D34*
X88500000Y-67262500D02*
X88600000Y-67362500D01*
X88500000Y-65500000D02*
X88500000Y-67262500D01*
D35*
X93400000Y-59300000D02*
X92000000Y-57900000D01*
X93400000Y-60500000D02*
X93400000Y-59300000D01*
D36*
X92000000Y-57900000D02*
X91450000Y-57900000D01*
D35*
X91362000Y-62226000D02*
X91674000Y-62226000D01*
X91674000Y-62226000D02*
X93400000Y-60500000D01*
D30*
X78800000Y-52787500D02*
X78512500Y-52500000D01*
X78800000Y-54300000D02*
X78800000Y-52787500D01*
D33*
X78512500Y-52500000D02*
X78300000Y-52500000D01*
X77312500Y-51512500D02*
X77312500Y-50400000D01*
X78300000Y-52500000D02*
X77312500Y-51512500D01*
D30*
X83112500Y-49900000D02*
X82700000Y-50312500D01*
X84300000Y-49900000D02*
X83112500Y-49900000D01*
X85387500Y-77327500D02*
X85387500Y-77100000D01*
X85800000Y-79700000D02*
X85800000Y-77740000D01*
X85800000Y-77740000D02*
X85387500Y-77327500D01*
X106387500Y-77200000D02*
X106387500Y-77087500D01*
X105100000Y-75800000D02*
X104000000Y-75800000D01*
X106387500Y-77087500D02*
X105100000Y-75800000D01*
X106400000Y-78900000D02*
X106400000Y-77212500D01*
X106400000Y-77212500D02*
X106387500Y-77200000D01*
X106700000Y-79800000D02*
X106700000Y-79200000D01*
X106700000Y-79200000D02*
X106400000Y-78900000D01*
D37*
X85080000Y-77300000D02*
X86899992Y-77300000D01*
X86899992Y-77300000D02*
X86999992Y-77200000D01*
D30*
X78800000Y-58475000D02*
X78800000Y-59500002D01*
X78800000Y-59500002D02*
X79000000Y-59700002D01*
D33*
%TO.N,+3V3*%
X80325000Y-56825000D02*
X80450000Y-56700000D01*
D30*
X78900000Y-56825000D02*
X80325000Y-56825000D01*
X80450000Y-56550000D02*
X82100000Y-54900000D01*
X80450000Y-56700000D02*
X80450000Y-56550000D01*
X83800000Y-78750000D02*
X83800000Y-77620000D01*
X76675000Y-56825000D02*
X76600000Y-56900000D01*
X78900000Y-56825000D02*
X76675000Y-56825000D01*
X103350000Y-77500000D02*
X104700000Y-78850000D01*
X102800000Y-77500000D02*
X103350000Y-77500000D01*
X83800000Y-78750000D02*
X83862347Y-78750000D01*
X83862347Y-78750000D02*
X84362357Y-79250010D01*
D33*
X92475000Y-47137500D02*
X92612500Y-47000000D01*
X92475000Y-48695000D02*
X92475000Y-47137500D01*
D32*
X92370000Y-48800000D02*
X92475000Y-48695000D01*
X90300000Y-48800000D02*
X92370000Y-48800000D01*
D30*
X83812500Y-77607500D02*
X83800000Y-77620000D01*
X83812500Y-77100000D02*
X83812500Y-77607500D01*
D29*
X81932500Y-51120000D02*
X81212000Y-51120000D01*
X82700000Y-51887500D02*
X81932500Y-51120000D01*
D30*
X83587500Y-51000000D02*
X82700000Y-51887500D01*
X84200000Y-51000000D02*
X83587500Y-51000000D01*
X104700000Y-77312500D02*
X104812500Y-77200000D01*
X104700000Y-78850000D02*
X104700000Y-77312500D01*
D29*
%TO.N,Net-(C2-Pad2)*%
X79167500Y-50120000D02*
X78887500Y-50400000D01*
X80212000Y-50120000D02*
X79167500Y-50120000D01*
D33*
%TO.N,+6V*%
X80525000Y-58975000D02*
X80450000Y-58900000D01*
D30*
X80525000Y-60500000D02*
X80525000Y-58975000D01*
X95825000Y-67575000D02*
X95825000Y-69137500D01*
X95550000Y-67300000D02*
X95825000Y-67575000D01*
X86400000Y-67675000D02*
X86225000Y-67500000D01*
X86400000Y-69300000D02*
X86400000Y-67675000D01*
X86225000Y-65937500D02*
X86187500Y-65900000D01*
X86225000Y-67500000D02*
X86225000Y-65937500D01*
D34*
X90100000Y-65900000D02*
X90100000Y-66043998D01*
X89700000Y-65500000D02*
X90100000Y-65900000D01*
D30*
X86700000Y-56900000D02*
X87750000Y-55850000D01*
X86187500Y-58300000D02*
X86187500Y-57012500D01*
X84500000Y-56900000D02*
X86300000Y-56900000D01*
X86187500Y-57012500D02*
X86300000Y-56900000D01*
X86300000Y-56900000D02*
X86700000Y-56900000D01*
D31*
X94800000Y-63900000D02*
X92243998Y-63900000D01*
X95687500Y-65500000D02*
X95687500Y-64787500D01*
X92243998Y-63900000D02*
X90100000Y-66043998D01*
X95687500Y-64787500D02*
X94800000Y-63900000D01*
X95687500Y-67162500D02*
X95550000Y-67300000D01*
X95687500Y-65500000D02*
X95687500Y-67162500D01*
D33*
X90687500Y-71325000D02*
X88600000Y-69237500D01*
X91700000Y-71325000D02*
X90687500Y-71325000D01*
D31*
X90100000Y-68200000D02*
X90100000Y-66043998D01*
X89125000Y-69175000D02*
X90100000Y-68200000D01*
X88300000Y-69175000D02*
X89125000Y-69175000D01*
X86400000Y-69300000D02*
X88175000Y-69300000D01*
X88175000Y-69300000D02*
X88300000Y-69175000D01*
D30*
X78500000Y-60700000D02*
X78200000Y-60400000D01*
X80525000Y-60500000D02*
X80325000Y-60700000D01*
X80325000Y-60700000D02*
X78500000Y-60700000D01*
D29*
%TO.N,Net-(C6-Pad1)*%
X93950000Y-67500000D02*
X94000000Y-67450000D01*
X94525000Y-68550000D02*
X93950000Y-67975000D01*
X93950000Y-67975000D02*
X93950000Y-67500000D01*
X94525000Y-69137500D02*
X94525000Y-68550000D01*
D33*
%TO.N,Net-(C7-Pad2)*%
X96475000Y-67750000D02*
X96475000Y-69137500D01*
X97075000Y-67150000D02*
X96475000Y-67750000D01*
D37*
%TO.N,VDD*%
X96300600Y-49699400D02*
X97000000Y-49000000D01*
D29*
X96104200Y-49699400D02*
X96300600Y-49699400D01*
D30*
X103825000Y-55950000D02*
X103825000Y-55775000D01*
X104105200Y-55494800D02*
X104105200Y-54703200D01*
X103825000Y-55775000D02*
X104105200Y-55494800D01*
X99105000Y-58600000D02*
X99100000Y-58600000D01*
X100365000Y-59860000D02*
X99105000Y-58600000D01*
X91674272Y-55725728D02*
X92525728Y-55725728D01*
X89550000Y-57850000D02*
X91674272Y-55725728D01*
X89550000Y-57900000D02*
X89550000Y-57850000D01*
D36*
X79600000Y-71450000D02*
X79350000Y-71700000D01*
X77200000Y-69550000D02*
X79350000Y-71700000D01*
X77200000Y-65364998D02*
X77200000Y-69550000D01*
D30*
X79085002Y-67250000D02*
X77200000Y-65364998D01*
X79600000Y-67250000D02*
X79085002Y-67250000D01*
D36*
X78525010Y-62274990D02*
X77200000Y-63600000D01*
X77200000Y-63600000D02*
X77200000Y-65364998D01*
D30*
X79612500Y-63362480D02*
X78525010Y-62274990D01*
X79612500Y-63600000D02*
X79612500Y-63362480D01*
D36*
X88900000Y-57900000D02*
X86000000Y-60800000D01*
X86000000Y-60800000D02*
X84600000Y-60800000D01*
X83500000Y-61900000D02*
X78900000Y-61900000D01*
X78900000Y-61900000D02*
X78525010Y-62274990D01*
X89550000Y-57900000D02*
X88900000Y-57900000D01*
X84600000Y-60800000D02*
X83500000Y-61900000D01*
D29*
%TO.N,Net-(D1-Pad2)*%
X80712000Y-50120000D02*
X80712000Y-49152000D01*
X78860000Y-47300000D02*
X78200000Y-47300000D01*
X80712000Y-49152000D02*
X78860000Y-47300000D01*
%TO.N,Net-(D1-Pad1)*%
X81212000Y-50120000D02*
X81212000Y-49508000D01*
X83420000Y-47300000D02*
X84300000Y-47300000D01*
X81212000Y-49508000D02*
X83420000Y-47300000D01*
D30*
%TO.N,Net-(J1-Pad1)*%
X95175000Y-76902832D02*
X95175000Y-74862500D01*
X94402822Y-77675010D02*
X95175000Y-76902832D01*
X92424990Y-77675010D02*
X94402822Y-77675010D01*
X90750000Y-79350000D02*
X92424990Y-77675010D01*
%TO.N,Net-(J1-Pad2)*%
X91485010Y-76074990D02*
X90750000Y-76810000D01*
X93525010Y-76074990D02*
X91485010Y-76074990D01*
X93875000Y-75725000D02*
X93525010Y-76074990D01*
X93875000Y-74862500D02*
X93875000Y-75725000D01*
%TO.N,Net-(J2-Pad2)*%
X97125000Y-75636414D02*
X97125000Y-74862500D01*
X97488596Y-76000010D02*
X97125000Y-75636414D01*
X99440010Y-76000010D02*
X97488596Y-76000010D01*
X100200000Y-76760000D02*
X99440010Y-76000010D01*
%TO.N,Net-(J2-Pad1)*%
X96697178Y-77675010D02*
X95825000Y-76802832D01*
X95825000Y-76802832D02*
X95825000Y-74862500D01*
X97675010Y-77675010D02*
X96697178Y-77675010D01*
X99300000Y-79300000D02*
X97675010Y-77675010D01*
X100200000Y-79300000D02*
X99300000Y-79300000D01*
D29*
%TO.N,SWDIO*%
X106030000Y-59860000D02*
X106200011Y-59689989D01*
X106500022Y-51103622D02*
X105095800Y-49699400D01*
X104435000Y-59860000D02*
X106030000Y-59860000D01*
X106500022Y-53448536D02*
X106500022Y-51103622D01*
X106200011Y-53748546D02*
X106500022Y-53448536D01*
X106200011Y-59689989D02*
X106200011Y-53748546D01*
%TO.N,SWDCLK*%
X106800033Y-53572804D02*
X106500022Y-53872814D01*
X104604589Y-49200011D02*
X105724289Y-49200011D01*
X104105200Y-49699400D02*
X104604589Y-49200011D01*
X106500022Y-53872814D02*
X106500022Y-60659978D01*
X105724289Y-49200011D02*
X106800033Y-50275755D01*
X106800033Y-50275755D02*
X106800033Y-53572804D01*
X106500022Y-60659978D02*
X106030000Y-61130000D01*
X106030000Y-61130000D02*
X104435000Y-61130000D01*
%TO.N,RESET*%
X106200011Y-51794211D02*
X105095800Y-50690000D01*
X104435000Y-64940000D02*
X103410000Y-64940000D01*
X106200011Y-53324268D02*
X106200011Y-51794211D01*
X103410000Y-64940000D02*
X102839999Y-64369999D01*
X102839999Y-64369999D02*
X102839999Y-58060001D01*
X105900000Y-53624278D02*
X106200011Y-53324268D01*
X105900000Y-55000000D02*
X105900000Y-53624278D01*
X102839999Y-58060001D02*
X105900000Y-55000000D01*
D36*
%TO.N,Net-(J4-Pad2)*%
X89945919Y-59900000D02*
X90480138Y-59900000D01*
D35*
X88822000Y-62226000D02*
X88822000Y-61023919D01*
X88822000Y-61023919D02*
X89945919Y-59900000D01*
D29*
%TO.N,P0_30*%
X80712000Y-51120000D02*
X80712000Y-51402842D01*
X80712000Y-51402842D02*
X82409158Y-53100000D01*
X82409158Y-53100000D02*
X83280331Y-53100000D01*
X97094800Y-51505200D02*
X97094800Y-51706000D01*
X100000000Y-48900000D02*
X99700000Y-48900000D01*
X99700000Y-48900000D02*
X97094800Y-51505200D01*
%TO.N,P0_29*%
X83000000Y-54200000D02*
X83200000Y-54200000D01*
X80212000Y-51412000D02*
X83000000Y-54200000D01*
X80212000Y-51120000D02*
X80212000Y-51412000D01*
X97900000Y-49500000D02*
X98500000Y-48900000D01*
X97094800Y-50690000D02*
X97900000Y-49884800D01*
X97900000Y-49884800D02*
X97900000Y-49500000D01*
%TO.N,P0_02*%
X92412500Y-69950000D02*
X91900000Y-69950000D01*
X93225000Y-69137500D02*
X92412500Y-69950000D01*
X95100000Y-52710200D02*
X95100000Y-62508125D01*
X96104200Y-51706000D02*
X95100000Y-52710200D01*
X95100000Y-62508125D02*
X96011833Y-63419958D01*
D33*
%TO.N,Net-(R1-Pad1)*%
X91700000Y-73337500D02*
X91700000Y-72975000D01*
X93225000Y-74862500D02*
X91700000Y-73337500D01*
D29*
%TO.N,Net-(R2-Pad2)*%
X79711999Y-52201999D02*
X79810000Y-52300000D01*
X79711999Y-50837159D02*
X79711999Y-52201999D01*
X79929158Y-50620000D02*
X79711999Y-50837159D01*
X80212000Y-50620000D02*
X79929158Y-50620000D01*
%TO.N,P0_05*%
X101108000Y-54703200D02*
X101108000Y-54092000D01*
X101108000Y-54092000D02*
X101500000Y-53700000D01*
D30*
X96475000Y-76200000D02*
X96475000Y-74862500D01*
X97200000Y-76925000D02*
X96475000Y-76200000D01*
D29*
X98350000Y-76925000D02*
X98375000Y-76950000D01*
X97200000Y-76925000D02*
X98350000Y-76925000D01*
X97849999Y-57961201D02*
X97849999Y-65674999D01*
X97849999Y-65674999D02*
X99925000Y-67750000D01*
X101108000Y-54703200D02*
X97849999Y-57961201D01*
X99925000Y-67750000D02*
X99925000Y-73275000D01*
D30*
%TO.N,P0_04*%
X94525000Y-76300000D02*
X94525000Y-74862500D01*
X93900000Y-76925000D02*
X94525000Y-76300000D01*
D29*
X92750000Y-76925000D02*
X92700000Y-76875000D01*
X93900000Y-76925000D02*
X92750000Y-76925000D01*
X97400000Y-57395200D02*
X100092000Y-54703200D01*
X97400000Y-60800000D02*
X97400000Y-57395200D01*
D33*
X97400000Y-60800000D02*
X97399999Y-59099999D01*
X97399999Y-59099999D02*
X97000000Y-58700000D01*
D29*
X99200000Y-73061998D02*
X99200000Y-74100000D01*
X99599999Y-72661999D02*
X99200000Y-73061998D01*
X97400002Y-65900002D02*
X99599999Y-68099999D01*
X97400002Y-60800002D02*
X97400002Y-65900002D01*
X99599999Y-68099999D02*
X99599999Y-72661999D01*
X97400000Y-60800000D02*
X97400002Y-60800002D01*
%TO.N,P0_03*%
X94500000Y-52600000D02*
X94500000Y-52294200D01*
X94500000Y-55925000D02*
X94500000Y-52600000D01*
D33*
X94500000Y-57000000D02*
X94400000Y-57100000D01*
X94500000Y-55925000D02*
X94500000Y-57000000D01*
X95410000Y-50690000D02*
X96104200Y-50690000D01*
X94865000Y-51235000D02*
X95410000Y-50690000D01*
D29*
X94500000Y-51270000D02*
X94465000Y-51235000D01*
X94500000Y-52294200D02*
X94500000Y-51270000D01*
D33*
X92475000Y-51235000D02*
X94465000Y-51235000D01*
X94465000Y-51235000D02*
X94865000Y-51235000D01*
D29*
%TO.N,P0_17*%
X86450000Y-80650000D02*
X86800000Y-81000000D01*
X83800000Y-80650000D02*
X86450000Y-80650000D01*
X104105200Y-51706000D02*
X103091068Y-52720132D01*
X103091068Y-52720132D02*
X102874537Y-52720132D01*
X107500000Y-56400000D02*
X107400000Y-56300000D01*
X107400000Y-58600000D02*
X107200000Y-58800000D01*
X107500000Y-58600000D02*
X107400000Y-58600000D01*
X107500000Y-58600000D02*
X107500000Y-56400000D01*
X107500000Y-58600000D02*
X107500000Y-65600000D01*
X108199999Y-76900001D02*
X107800000Y-77300000D01*
X107500000Y-65600000D02*
X108199999Y-66299999D01*
X108199999Y-66299999D02*
X108199999Y-76900001D01*
%TO.N,P0_15*%
X105095800Y-51706000D02*
X105095800Y-51704200D01*
X105474096Y-53625904D02*
X104813516Y-53625904D01*
X105900000Y-53200000D02*
X105474096Y-53625904D01*
X105900000Y-52510200D02*
X105900000Y-53200000D01*
X105095800Y-51706000D02*
X105900000Y-52510200D01*
X108200000Y-55700000D02*
X108100000Y-55600000D01*
X108210000Y-59990000D02*
X108200000Y-60000000D01*
X110500000Y-59990000D02*
X108210000Y-59990000D01*
X108200000Y-60000000D02*
X108200000Y-55700000D01*
X108200000Y-65875722D02*
X108200000Y-62600000D01*
X108500000Y-79650000D02*
X108500000Y-66175722D01*
X108500000Y-66175722D02*
X108200000Y-65875722D01*
X104700000Y-80750000D02*
X107400000Y-80750000D01*
X107400000Y-80750000D02*
X108500000Y-79650000D01*
X108200000Y-62600000D02*
X108200000Y-60000000D01*
%TO.N,P0_10*%
X112800001Y-50975723D02*
X112800001Y-72699999D01*
X111662139Y-49837861D02*
X112800001Y-50975723D01*
X107937861Y-49837861D02*
X111662139Y-49837861D01*
X106699990Y-48599990D02*
X107937861Y-49837861D01*
X103198010Y-48599990D02*
X106699990Y-48599990D01*
X102098600Y-49699400D02*
X103198010Y-48599990D01*
%TO.N,P1_09*%
X102098600Y-66173600D02*
X102098600Y-54703200D01*
X98674990Y-68149990D02*
X98700000Y-68175000D01*
X97325010Y-68149990D02*
X98674990Y-68149990D01*
X97125000Y-68350000D02*
X97325010Y-68149990D01*
X97125000Y-69137500D02*
X97125000Y-68350000D01*
X101950000Y-66322200D02*
X102098600Y-66173600D01*
X101950000Y-68175000D02*
X101950000Y-66322200D01*
D33*
X110475000Y-65095000D02*
X110500000Y-65070000D01*
X110475000Y-68175000D02*
X110475000Y-65095000D01*
D29*
%TO.N,P0_11*%
X103089200Y-55985800D02*
X103089200Y-54703200D01*
X102539989Y-56535011D02*
X103089200Y-55985800D01*
X102539989Y-66339989D02*
X102539989Y-56535011D01*
D33*
X98737500Y-69137500D02*
X98750000Y-69125000D01*
X97775000Y-69137500D02*
X98737500Y-69137500D01*
D29*
X102550000Y-66350000D02*
X102539989Y-66339989D01*
X102550000Y-69125000D02*
X102550000Y-66350000D01*
D33*
X111700000Y-62460000D02*
X110500000Y-61260000D01*
X111700000Y-68800000D02*
X111700000Y-62460000D01*
D29*
%TO.N,P0_31*%
X98099999Y-51211999D02*
X99211998Y-50100000D01*
X98099999Y-51691401D02*
X98099999Y-51211999D01*
X97094800Y-52696600D02*
X98099999Y-51691401D01*
X99211998Y-50100000D02*
X100600000Y-50100000D01*
X100600000Y-50100000D02*
X102600000Y-48100000D01*
X102600000Y-48100000D02*
X104800000Y-48100000D01*
X106700000Y-48100000D02*
X108137851Y-49537851D01*
X104800000Y-48100000D02*
X106700000Y-48100000D01*
X113400002Y-74699998D02*
X112800000Y-75300000D01*
X113400002Y-51151446D02*
X113400002Y-74699998D01*
X111786408Y-49537852D02*
X113400002Y-51151446D01*
X108137851Y-49537851D02*
X111786408Y-49537852D01*
%TO.N,P0_28*%
X93674990Y-68149990D02*
X92682869Y-68149990D01*
X93875000Y-69137500D02*
X93875000Y-68350000D01*
X92682869Y-68149990D02*
X92386772Y-68446087D01*
X93875000Y-68350000D02*
X93674990Y-68149990D01*
X92386772Y-68446087D02*
X92386772Y-69011772D01*
X96104200Y-52696600D02*
X96104200Y-52804200D01*
X96700000Y-63234313D02*
X96700000Y-64199994D01*
X97000000Y-55300000D02*
X96299998Y-56000002D01*
X97000000Y-53592400D02*
X97000000Y-55300000D01*
X96299998Y-62834311D02*
X96700000Y-63234313D01*
X96104200Y-52696600D02*
X97000000Y-53592400D01*
X96299998Y-56000002D02*
X96299998Y-62834311D01*
%TO.N,P0_20*%
X99510000Y-50690000D02*
X98700000Y-51500000D01*
X104105200Y-50690000D02*
X99510000Y-50690000D01*
D33*
X79600000Y-65350000D02*
X79600000Y-66300000D01*
D30*
%TO.N,Net-(D2-Pad2)*%
X86550000Y-48695000D02*
X87525000Y-48695000D01*
X86250000Y-55850000D02*
X85819998Y-55850000D01*
X85250001Y-49994999D02*
X86550000Y-48695000D01*
X85250001Y-55280003D02*
X85250001Y-49994999D01*
X85819998Y-55850000D02*
X85250001Y-55280003D01*
D29*
%TO.N,P0_09*%
X112200000Y-72411998D02*
X112200000Y-74300000D01*
X112300001Y-50900001D02*
X112300001Y-72311997D01*
X112300001Y-72311997D02*
X112200000Y-72411998D01*
X111650000Y-50250000D02*
X112300001Y-50900001D01*
X106400001Y-48900001D02*
X107750000Y-50250000D01*
X107750000Y-50250000D02*
X111650000Y-50250000D01*
X103888599Y-48900001D02*
X106400001Y-48900001D01*
X103089200Y-49699400D02*
X103888599Y-48900001D01*
D30*
%TO.N,Net-(C13-Pad2)*%
X84575000Y-67500000D02*
X84575000Y-64300000D01*
X84062500Y-65350000D02*
X84612500Y-65900000D01*
X81800000Y-65350000D02*
X84062500Y-65350000D01*
%TO.N,Net-(D2-Pad4)*%
X88500000Y-49965000D02*
X87525000Y-49965000D01*
X90100000Y-51565000D02*
X88500000Y-49965000D01*
X90100000Y-52500000D02*
X90100000Y-51565000D01*
X87750000Y-54750000D02*
X87850000Y-54750000D01*
X87850000Y-54750000D02*
X90100000Y-52500000D01*
%TO.N,Net-(D2-Pad3)*%
X86000000Y-51785000D02*
X86550000Y-51235000D01*
X86550000Y-51235000D02*
X87525000Y-51235000D01*
X86000000Y-53900000D02*
X86000000Y-51785000D01*
X86250000Y-54150000D02*
X86000000Y-53900000D01*
X86250000Y-54750000D02*
X86250000Y-54150000D01*
D36*
%TO.N,Net-(D3-Pad2)*%
X84050000Y-71700000D02*
X83400000Y-71700000D01*
X83400000Y-71700000D02*
X81800000Y-70100000D01*
X81800000Y-70100000D02*
X81800000Y-67800000D01*
X86000000Y-71700000D02*
X86400000Y-72100000D01*
X84050000Y-71700000D02*
X86000000Y-71700000D01*
D32*
%TO.N,Net-(R5-Pad2)*%
X91500000Y-49965000D02*
X92475000Y-49965000D01*
X91199990Y-50265010D02*
X91500000Y-49965000D01*
X91199990Y-53774990D02*
X91199990Y-50265010D01*
X91825000Y-54400000D02*
X91199990Y-53774990D01*
%TD*%
M02*
