M48
; DRILL file {KiCad (5.1.9)-1} date 03/26/21 19:00:22
; FORMAT={-:-/ absolute / inch / decimal}
; #@! TF.CreationDate,2021-03-26T19:00:22+01:00
; #@! TF.GenerationSoftware,Kicad,Pcbnew,(5.1.9)-1
; #@! TF.FileFunction,Plated,1,4,PTH
FMAT,2
INCH
T1C0.0079
T2C0.0157
T3C0.0197
T4C0.0256
T5C0.0394
%
G90
G05
T1
X3.7008Y-2.8051
X3.7008Y-2.8642
X3.7598Y-2.8051
X3.7598Y-2.8642
X3.8189Y-2.8051
X3.8189Y-2.8642
T2
X3.0157Y-2.2402
X3.0354Y-2.3307
X3.1024Y-2.0984
X3.1024Y-2.3504
X3.1693Y-2.811
X3.1709Y-2.8921
X3.189Y-2.0669
X3.2047Y-2.4291
X3.2323Y-2.1614
X3.2441Y-2.5079
X3.2764Y-2.515
X3.2835Y-2.4016
X3.2953Y-2.0
X3.3189Y-1.9646
X3.3214Y-3.1201
X3.3768Y-2.6154
X3.4055Y-3.0433
X3.4173Y-3.189
X3.4724Y-2.5866
X3.4764Y-2.0433
X3.4843Y-2.6299
X3.5969Y-2.6087
X3.6181Y-2.7539
X3.6373Y-2.717
X3.6427Y-2.1939
X3.6496Y-3.0266
X3.7165Y-2.248
X3.7254Y-3.1368
X3.7274Y-1.9872
X3.7362Y-1.9016
X3.752Y-3.1142
X3.7657Y-3.1447
X3.7726Y-3.0699
X3.7736Y-2.5217
X3.7785Y-2.1575
X3.8022Y-3.1348
X3.8081Y-2.5453
X3.8189Y-1.9291
X3.8189Y-2.311
X3.873Y-3.0295
X3.876Y-2.4459
X3.878Y-1.9252
X3.8858Y-2.0276
X3.8858Y-2.0787
X3.8858Y-2.6841
X3.8878Y-2.7215
X3.9016Y-2.3071
X3.9055Y-2.9173
X3.9173Y-2.1024
X3.9341Y-2.8848
X3.937Y-1.9252
X3.9961Y-2.1142
X4.0138Y-2.6841
X4.0374Y-2.7215
X4.0472Y-3.0512
X4.0502Y-2.0756
X4.0876Y-2.2028
X4.0945Y-2.9843
X4.1265Y-2.1113
X4.2205Y-2.315
X4.2283Y-2.2165
X4.2323Y-3.0404
X4.2559Y-2.189
X4.3494Y-2.6841
X4.3976Y-2.7087
X4.4173Y-2.9252
X4.4409Y-2.9646
X4.4409Y-2.8622
T3
X3.0315Y-2.0984
X3.4291Y-2.8937
X3.5315Y-2.8543
T4
X4.3504Y-2.0118
X4.3504Y-2.0618
X4.3504Y-2.1118
X4.3504Y-2.1618
X4.3504Y-2.2118
X4.3504Y-2.2618
X4.3504Y-2.3118
X4.3504Y-2.3618
X4.3504Y-2.4118
X4.3504Y-2.4618
X4.3504Y-2.5118
X4.3504Y-2.5618
T5
X3.4969Y-2.4498
X3.5728Y-3.024
X3.5728Y-3.124
X3.5969Y-2.4498
X3.9449Y-3.022
X3.9449Y-3.122
X4.1142Y-2.7858
X4.1142Y-2.8858
X4.2142Y-2.7858
X4.2142Y-2.8858
X4.3142Y-2.7858
X4.3142Y-2.8858
T0
M30
