%TF.GenerationSoftware,KiCad,Pcbnew,(5.1.6)-1*%
%TF.CreationDate,2021-10-06T19:04:01+02:00*%
%TF.ProjectId,DotBot,446f7442-6f74-42e6-9b69-6361645f7063,rev?*%
%TF.SameCoordinates,Original*%
%TF.FileFunction,Copper,L4,Bot*%
%TF.FilePolarity,Positive*%
%FSLAX46Y46*%
G04 Gerber Fmt 4.6, Leading zero omitted, Abs format (unit mm)*
G04 Created by KiCad (PCBNEW (5.1.6)-1) date 2021-10-06 19:04:01*
%MOMM*%
%LPD*%
G01*
G04 APERTURE LIST*
%TA.AperFunction,ComponentPad*%
%ADD10O,1.000000X1.000000*%
%TD*%
%TA.AperFunction,ComponentPad*%
%ADD11R,1.000000X1.000000*%
%TD*%
%TA.AperFunction,ComponentPad*%
%ADD12O,1.700000X1.700000*%
%TD*%
%TA.AperFunction,ComponentPad*%
%ADD13R,1.700000X1.700000*%
%TD*%
%TA.AperFunction,Conductor*%
%ADD14R,3.500000X2.000000*%
%TD*%
%TA.AperFunction,ViaPad*%
%ADD15C,0.500000*%
%TD*%
%TA.AperFunction,ViaPad*%
%ADD16C,0.800000*%
%TD*%
%TA.AperFunction,Conductor*%
%ADD17C,0.200000*%
%TD*%
%TA.AperFunction,Conductor*%
%ADD18C,0.250000*%
%TD*%
G04 APERTURE END LIST*
D10*
%TO.P,J5,12*%
%TO.N,P1_09*%
X112800000Y-65070000D03*
%TO.P,J5,11*%
%TO.N,P0_28*%
X112800000Y-63800000D03*
%TO.P,J5,10*%
%TO.N,P0_02*%
X112800000Y-62530000D03*
%TO.P,J5,9*%
%TO.N,P0_11*%
X112800000Y-61260000D03*
%TO.P,J5,8*%
%TO.N,P0_15*%
X112800000Y-59990000D03*
%TO.P,J5,7*%
%TO.N,P0_17*%
X112800000Y-58720000D03*
%TO.P,J5,6*%
%TO.N,P0_04*%
X112800000Y-57450000D03*
%TO.P,J5,5*%
%TO.N,P0_03*%
X112800000Y-56180000D03*
%TO.P,J5,4*%
%TO.N,P0_05*%
X112800000Y-54910000D03*
%TO.P,J5,3*%
%TO.N,P0_20*%
X112800000Y-53640000D03*
%TO.P,J5,2*%
%TO.N,P0_29*%
X112800000Y-52370000D03*
D11*
%TO.P,J5,1*%
%TO.N,P0_30*%
X112800000Y-51100000D03*
%TD*%
D12*
%TO.P,J6,6*%
%TO.N,GND*%
X111080000Y-70760000D03*
%TO.P,J6,5*%
X111080000Y-73300000D03*
%TO.P,J6,4*%
%TO.N,VDD*%
X108540000Y-70760000D03*
%TO.P,J6,3*%
%TO.N,P0_09*%
X108540000Y-73300000D03*
%TO.P,J6,2*%
%TO.N,P0_10*%
X106000000Y-70760000D03*
D13*
%TO.P,J6,1*%
%TO.N,P0_31*%
X106000000Y-73300000D03*
%TD*%
D12*
%TO.P,J2,2*%
%TO.N,Net-(C16-Pad2)*%
X100200000Y-76760000D03*
D13*
%TO.P,J2,1*%
%TO.N,Net-(C16-Pad1)*%
X100200000Y-79300000D03*
%TD*%
D12*
%TO.P,J4,2*%
%TO.N,Net-(J4-Pad2)*%
X90772000Y-62176000D03*
D13*
%TO.P,J4,1*%
%TO.N,GND*%
X93312000Y-62176000D03*
%TD*%
D12*
%TO.P,J1,2*%
%TO.N,Net-(C15-Pad2)*%
X90750000Y-76810000D03*
D13*
%TO.P,J1,1*%
%TO.N,Net-(C15-Pad1)*%
X90750000Y-79350000D03*
%TD*%
D14*
%TO.N,GND*%
%TO.C,U3*%
X95500000Y-72000000D03*
D15*
X97000000Y-71250000D03*
X97000000Y-72750000D03*
X95500000Y-71250000D03*
X95500000Y-72750000D03*
X94000000Y-71250000D03*
X94000000Y-72750000D03*
%TD*%
D16*
%TO.N,GND*%
X84300000Y-49900000D03*
X104000000Y-75800000D03*
X100700000Y-52850000D03*
X101500000Y-53450000D03*
X94625000Y-79675000D03*
X96575000Y-79625000D03*
X95299986Y-79099986D03*
X95825000Y-77975000D03*
X95650000Y-79875000D03*
X97974979Y-54850000D03*
X100450000Y-62175000D03*
X90700000Y-52150000D03*
X91700000Y-55550000D03*
X95800000Y-48850000D03*
X86700000Y-77300000D03*
X77100000Y-52650000D03*
X101600000Y-73800000D03*
X89600000Y-70350000D03*
X88750000Y-70350000D03*
X87750000Y-70350000D03*
X87637500Y-64912500D03*
X88450000Y-63300000D03*
X89000000Y-64750000D03*
X92799994Y-65550006D03*
X87250000Y-60200000D03*
X83500000Y-55750000D03*
X84550000Y-55750000D03*
X85450000Y-56300000D03*
%TO.N,+3V3*%
X84362357Y-79250010D03*
X91800000Y-48750000D03*
X84200000Y-51000000D03*
X103300000Y-80350000D03*
X75600000Y-58199996D03*
X78200000Y-54150000D03*
%TO.N,+6V*%
X89350000Y-57450000D03*
X90850000Y-65599982D03*
%TO.N,VDD*%
X99000000Y-49050000D03*
X105825000Y-56000000D03*
X101100000Y-58650000D03*
X94025728Y-55675728D03*
%TO.N,P0_30*%
X102000000Y-48950000D03*
X84250000Y-52800000D03*
%TO.N,P0_29*%
X100500000Y-48950000D03*
X83400000Y-53550000D03*
%TO.N,P0_02*%
X98011833Y-63469958D03*
X92000000Y-69700000D03*
%TO.N,P0_05*%
X103500000Y-53750000D03*
X98375000Y-76950000D03*
X99925000Y-73275000D03*
%TO.N,P0_04*%
X92700000Y-76875000D03*
X99000000Y-58750000D03*
X99200000Y-74100000D03*
%TO.N,P0_03*%
X96000000Y-56950000D03*
%TO.N,P0_17*%
X86800000Y-81000000D03*
X104874537Y-52770132D03*
X109400000Y-56350000D03*
X109200000Y-58850000D03*
X107800000Y-77300000D03*
%TO.N,P0_15*%
X106813516Y-53675904D03*
X110100000Y-55650000D03*
%TO.N,P0_10*%
X113900000Y-72700000D03*
%TO.N,P1_09*%
X98700000Y-68175000D03*
X112800000Y-67649996D03*
X103800000Y-68174998D03*
%TO.N,P0_11*%
X98750000Y-69125000D03*
X113350000Y-70350000D03*
X104700000Y-69125002D03*
%TO.N,P0_31*%
X113850000Y-75150000D03*
%TO.N,P0_28*%
X98700000Y-64249994D03*
X92497198Y-68712107D03*
%TO.N,P0_20*%
X100700000Y-51550000D03*
X78350000Y-67300000D03*
X79350000Y-61500000D03*
X89050000Y-74800000D03*
%TO.N,P0_09*%
X113250000Y-74250000D03*
%TD*%
D17*
%TO.N,P0_30*%
X103400000Y-50350000D02*
X102000000Y-48950000D01*
X108900000Y-50350000D02*
X103400000Y-50350000D01*
X109700000Y-51150000D02*
X108900000Y-50350000D01*
X112750000Y-51150000D02*
X112800000Y-51100000D01*
X109700000Y-51150000D02*
X112750000Y-51150000D01*
X89750000Y-47300000D02*
X84250000Y-52800000D01*
X102000000Y-48950000D02*
X100350000Y-47300000D01*
X100350000Y-47300000D02*
X89750000Y-47300000D01*
%TO.N,P0_29*%
X108000000Y-50750000D02*
X102300000Y-50750000D01*
X109670000Y-52420000D02*
X108000000Y-50750000D01*
X102300000Y-50750000D02*
X100500000Y-48950000D01*
X112750000Y-52420000D02*
X112800000Y-52370000D01*
X109670000Y-52420000D02*
X112750000Y-52420000D01*
X99550000Y-48000000D02*
X99500000Y-48000000D01*
X100500000Y-48950000D02*
X99550000Y-48000000D01*
X84365685Y-53550000D02*
X83400000Y-53550000D01*
X89915685Y-48000000D02*
X84365685Y-53550000D01*
X99550000Y-48000000D02*
X89915685Y-48000000D01*
D18*
%TO.N,P0_02*%
X98401792Y-63079999D02*
X98011833Y-63469958D01*
X96750000Y-63000000D02*
X96750000Y-63025002D01*
X96750000Y-63025002D02*
X91600001Y-68175001D01*
X96700000Y-63050000D02*
X96750000Y-63000000D01*
X91600001Y-68175001D02*
X91600001Y-69300001D01*
X91600001Y-69300001D02*
X92000000Y-69700000D01*
X96770001Y-63029999D02*
X96750000Y-63050000D01*
X112300001Y-63029999D02*
X96770001Y-63029999D01*
X112800000Y-62530000D02*
X112300001Y-63029999D01*
D17*
%TO.N,P0_05*%
X99925000Y-75400000D02*
X99925000Y-73275000D01*
X98375000Y-76950000D02*
X99925000Y-75400000D01*
X103500000Y-52750000D02*
X103500000Y-53750000D01*
X104300000Y-51950000D02*
X103500000Y-52750000D01*
X106300000Y-51950000D02*
X104300000Y-51950000D01*
X109310000Y-54960000D02*
X106300000Y-51950000D01*
X112750000Y-54960000D02*
X112800000Y-54910000D01*
X109310000Y-54960000D02*
X112750000Y-54960000D01*
%TO.N,P0_04*%
X96425000Y-76875000D02*
X99200000Y-74100000D01*
X92700000Y-76875000D02*
X96425000Y-76875000D01*
X112500000Y-57750000D02*
X112800000Y-57450000D01*
X100000000Y-57750000D02*
X112500000Y-57750000D01*
X99000000Y-58750000D02*
X100000000Y-57750000D01*
%TO.N,P0_03*%
X112800000Y-56180000D02*
X112030000Y-56950000D01*
X112030000Y-56950000D02*
X96000000Y-56950000D01*
%TO.N,P0_17*%
X108454405Y-56350000D02*
X109400000Y-56350000D01*
X104874537Y-52770132D02*
X108454405Y-56350000D01*
X86800000Y-81000000D02*
X106800000Y-81000000D01*
X107800000Y-80000000D02*
X107800000Y-77300000D01*
X106800000Y-81000000D02*
X107800000Y-80000000D01*
X112720000Y-58800000D02*
X112800000Y-58720000D01*
D18*
X109330000Y-58720000D02*
X109200000Y-58850000D01*
X112800000Y-58720000D02*
X109330000Y-58720000D01*
D17*
%TO.N,P0_15*%
X106813516Y-53675904D02*
X108787612Y-55650000D01*
X108787612Y-55650000D02*
X110100000Y-55650000D01*
%TO.N,P0_10*%
X113200000Y-72000000D02*
X113900000Y-72700000D01*
X107240000Y-72000000D02*
X113200000Y-72000000D01*
X106000000Y-70760000D02*
X107240000Y-72000000D01*
%TO.N,P1_09*%
X98700000Y-68175000D02*
X103799998Y-68175000D01*
X103799998Y-68175000D02*
X103800000Y-68174998D01*
D18*
X112800000Y-67649996D02*
X112274998Y-68174998D01*
X112274998Y-68174998D02*
X103800000Y-68174998D01*
%TO.N,P0_11*%
X109675000Y-69125000D02*
X109700000Y-69100000D01*
X109675000Y-69125000D02*
X112125000Y-69125000D01*
X112125000Y-69125000D02*
X113350000Y-70350000D01*
X98750000Y-69125000D02*
X104699998Y-69125000D01*
X104699998Y-69125000D02*
X104700000Y-69125002D01*
X109675000Y-69125000D02*
X104700002Y-69125000D01*
X104700002Y-69125000D02*
X104700000Y-69125002D01*
D17*
%TO.N,P0_31*%
X107850000Y-75150000D02*
X113850000Y-75150000D01*
X106000000Y-73300000D02*
X107850000Y-75150000D01*
D18*
%TO.N,P0_28*%
X108950000Y-64650000D02*
X109600000Y-64650000D01*
X108950000Y-64650000D02*
X97150006Y-64650000D01*
X99150006Y-64700000D02*
X98700000Y-64249994D01*
D17*
X98400006Y-64249994D02*
X98700000Y-64249994D01*
D18*
X111950000Y-64650000D02*
X108950000Y-64650000D01*
X112800000Y-63800000D02*
X111950000Y-64650000D01*
X97150000Y-64650000D02*
X93087893Y-68712107D01*
X93087893Y-68712107D02*
X93062883Y-68712107D01*
X93062883Y-68712107D02*
X92497198Y-68712107D01*
D17*
%TO.N,P0_20*%
X107200000Y-51550000D02*
X100700000Y-51550000D01*
X109340000Y-53690000D02*
X107200000Y-51550000D01*
X112750000Y-53690000D02*
X112800000Y-53640000D01*
X109340000Y-53690000D02*
X112750000Y-53690000D01*
D18*
X80650000Y-63700000D02*
X83900000Y-63700000D01*
X78350000Y-66000000D02*
X80650000Y-63700000D01*
X78350000Y-67300000D02*
X78350000Y-66000000D01*
X80650000Y-62800000D02*
X79350000Y-61500000D01*
X80650000Y-63700000D02*
X80650000Y-62800000D01*
X83900000Y-63700000D02*
X84700000Y-63700000D01*
X84700000Y-63700000D02*
X86750000Y-65750000D01*
X86750000Y-72500000D02*
X89050000Y-74800000D01*
X86750000Y-65750000D02*
X86750000Y-72500000D01*
X86450000Y-61150000D02*
X86450000Y-60400000D01*
X83900000Y-63700000D02*
X86450000Y-61150000D01*
X97334311Y-51550000D02*
X100700000Y-51550000D01*
X93550000Y-51550000D02*
X97334311Y-51550000D01*
X86450000Y-58650000D02*
X93550000Y-51550000D01*
X86450000Y-61150000D02*
X86450000Y-58650000D01*
D17*
%TO.N,P0_09*%
X112800001Y-74699999D02*
X113250000Y-74250000D01*
X109939999Y-74699999D02*
X112800001Y-74699999D01*
X108540000Y-73300000D02*
X109939999Y-74699999D01*
%TD*%
M02*
