M48
; DRILL file {KiCad (6.0.0)} date Fri Jan 21 19:21:58 2022
; FORMAT={-:-/ absolute / inch / decimal}
; #@! TF.CreationDate,2022-01-21T19:21:58+01:00
; #@! TF.GenerationSoftware,Kicad,Pcbnew,(6.0.0)
; #@! TF.FileFunction,MixedPlating,1,4
FMAT,2
INCH
; #@! TA.AperFunction,Plated,PTH,ComponentDrill
T1C0.0079
; #@! TA.AperFunction,Plated,PTH,ViaDrill
T2C0.0157
; #@! TA.AperFunction,Plated,PTH,ComponentDrill
T3C0.0256
; #@! TA.AperFunction,Plated,PTH,ComponentDrill
T4C0.0394
; #@! TA.AperFunction,NonPlated,NPTH,ComponentDrill
T5C0.0866
%
G90
G05
T1
X3.1122Y-2.6949
X3.1122Y-2.7382
X3.1555Y-2.6949
X3.1555Y-2.7382
X3.7008Y-2.8051
X3.7008Y-2.8642
X3.7598Y-2.8051
X3.7598Y-2.8642
X3.8189Y-2.8051
X3.8189Y-2.8642
T2
X3.0118Y-2.2638
X3.0328Y-2.0433
X3.0472Y-2.6614
X3.0591Y-2.1102
X3.1024Y-2.6063
X3.122Y-2.1437
X3.1929Y-2.5827
X3.2008Y-2.3504
X3.2244Y-2.5984
X3.2264Y-2.1516
X3.2461Y-2.3051
X3.248Y-2.2756
X3.2874Y-2.0709
X3.3124Y-1.9783
X3.315Y-2.122
X3.3163Y-1.935
X3.3214Y-3.1201
X3.3228Y-2.0354
X3.3346Y-2.3031
X3.3504Y-2.6614
X3.3622Y-2.1063
X3.372Y-2.3051
X3.3819Y-2.6358
X3.3976Y-2.3898
X3.4173Y-3.189
X3.4252Y-3.0315
X3.437Y-2.3228
X3.4503Y-2.5556
X3.4547Y-2.7697
X3.4941Y-2.7697
X3.5039Y-2.5492
X3.5059Y-2.9449
X3.5276Y-2.7697
X3.5372Y-2.2481
X3.5768Y-2.5827
X3.5906Y-2.0433
X3.622Y-2.7441
X3.6299Y-2.1772
X3.6329Y-1.9153
X3.6416Y-2.7052
X3.6496Y-3.0266
X3.6535Y-2.5807
X3.7215Y-2.1821
X3.7254Y-3.1368
X3.752Y-3.1142
X3.7598Y-2.3346
X3.7657Y-3.1447
X3.7726Y-3.0699
X3.7913Y-1.9153
X3.7992Y-2.2323
X3.8022Y-3.1348
X3.8465Y-2.5866
X3.8573Y-2.1594
X3.8587Y-2.4988
X3.873Y-3.0295
X3.8858Y-2.5295
X3.8858Y-2.6841
X3.8878Y-2.7215
X3.8976Y-1.9311
X3.8976Y-2.313
X3.9055Y-2.9173
X3.9341Y-2.8848
X3.9547Y-2.4478
X3.9567Y-1.9272
X3.9646Y-2.0295
X3.9646Y-2.0807
X3.9803Y-2.3091
X3.9961Y-2.1043
X4.0157Y-1.9272
X4.0394Y-2.878
X4.0669Y-3.1634
X4.0748Y-2.1161
X4.0866Y-2.6841
X4.0945Y-2.9843
X4.122Y-2.7215
X4.1289Y-2.0776
X4.1663Y-2.2047
X4.2053Y-2.1132
X4.2441Y-3.0433
X4.2992Y-2.3169
X4.3071Y-2.2185
X4.3346Y-2.1909
X4.4409Y-2.6634
X4.4587Y-2.9232
X4.4626Y-2.7697
X4.4823Y-2.9587
X4.4843Y-2.8622
T3
X4.4409Y-2.0118
X4.4409Y-2.0618
X4.4409Y-2.1118
X4.4409Y-2.1618
X4.4409Y-2.2118
X4.4409Y-2.2618
X4.4409Y-2.3118
X4.4409Y-2.3618
X4.4409Y-2.4118
X4.4409Y-2.4618
X4.4409Y-2.5118
X4.4409Y-2.5618
T4
X3.5728Y-3.024
X3.5728Y-3.124
X3.5934Y-2.438
X3.6934Y-2.438
X3.9449Y-3.022
X3.9449Y-3.122
X4.1732Y-2.7858
X4.1732Y-2.8858
X4.2732Y-2.7858
X4.2732Y-2.8858
X4.3732Y-2.7858
X4.3732Y-2.8858
T5
X3.0906Y-3.0906
X4.3898Y-1.7913
X4.3898Y-3.0906
T0
M30
