%TF.GenerationSoftware,KiCad,Pcbnew,(6.0.0)*%
%TF.CreationDate,2022-01-21T19:20:27+01:00*%
%TF.ProjectId,DotBot,446f7442-6f74-42e6-9b69-6361645f7063,rev?*%
%TF.SameCoordinates,Original*%
%TF.FileFunction,Copper,L2,Inr*%
%TF.FilePolarity,Positive*%
%FSLAX46Y46*%
G04 Gerber Fmt 4.6, Leading zero omitted, Abs format (unit mm)*
G04 Created by KiCad (PCBNEW (6.0.0)) date 2022-01-21 19:20:27*
%MOMM*%
%LPD*%
G01*
G04 APERTURE LIST*
%TA.AperFunction,ComponentPad*%
%ADD10R,1.700000X1.700000*%
%TD*%
%TA.AperFunction,ComponentPad*%
%ADD11O,1.700000X1.700000*%
%TD*%
%TA.AperFunction,ComponentPad*%
%ADD12R,1.000000X1.000000*%
%TD*%
%TA.AperFunction,ComponentPad*%
%ADD13O,1.000000X1.000000*%
%TD*%
%TA.AperFunction,ComponentPad*%
%ADD14C,0.500000*%
%TD*%
%TA.AperFunction,ViaPad*%
%ADD15C,0.800000*%
%TD*%
%TA.AperFunction,Conductor*%
%ADD16C,0.250000*%
%TD*%
%TA.AperFunction,Conductor*%
%ADD17C,1.000000*%
%TD*%
%TA.AperFunction,Conductor*%
%ADD18C,0.300000*%
%TD*%
%TA.AperFunction,Conductor*%
%ADD19C,0.200000*%
%TD*%
%TA.AperFunction,Conductor*%
%ADD20C,2.000000*%
%TD*%
%TA.AperFunction,Conductor*%
%ADD21C,1.500000*%
%TD*%
%TA.AperFunction,Conductor*%
%ADD22C,0.750000*%
%TD*%
%TA.AperFunction,Conductor*%
%ADD23C,0.400000*%
%TD*%
%TA.AperFunction,Conductor*%
%ADD24C,0.500000*%
%TD*%
G04 APERTURE END LIST*
D10*
%TO.N,Net-(C15-Pad1)*%
%TO.C,J1*%
X90750000Y-79350000D03*
D11*
%TO.N,Net-(C15-Pad2)*%
X90750000Y-76810000D03*
%TD*%
D10*
%TO.N,Net-(C16-Pad1)*%
%TO.C,J2*%
X100200000Y-79300000D03*
D11*
%TO.N,Net-(C16-Pad2)*%
X100200000Y-76760000D03*
%TD*%
D10*
%TO.N,GND*%
%TO.C,J4*%
X93812000Y-61926000D03*
D11*
%TO.N,Net-(J4-Pad2)*%
X91272000Y-61926000D03*
%TD*%
D12*
%TO.N,P0_30*%
%TO.C,J5*%
X112800000Y-51100000D03*
D13*
%TO.N,P0_29*%
X112800000Y-52370000D03*
%TO.N,P0_20*%
X112800000Y-53640000D03*
%TO.N,P0_05*%
X112800000Y-54910000D03*
%TO.N,P0_03*%
X112800000Y-56180000D03*
%TO.N,P0_04*%
X112800000Y-57450000D03*
%TO.N,P0_17*%
X112800000Y-58720000D03*
%TO.N,P0_15*%
X112800000Y-59990000D03*
%TO.N,P0_11*%
X112800000Y-61260000D03*
%TO.N,P0_02*%
X112800000Y-62530000D03*
%TO.N,P0_28*%
X112800000Y-63800000D03*
%TO.N,P1_09*%
X112800000Y-65070000D03*
%TD*%
D10*
%TO.N,P0_31*%
%TO.C,J6*%
X106000000Y-73300000D03*
D11*
%TO.N,P0_10*%
X106000000Y-70760000D03*
%TO.N,P0_09*%
X108540000Y-73300000D03*
%TO.N,VDD*%
X108540000Y-70760000D03*
%TO.N,GND*%
X111080000Y-73300000D03*
%TO.N,+6V*%
X111080000Y-70760000D03*
%TD*%
D14*
%TO.N,GND*%
%TO.C,U3*%
X94000000Y-71250000D03*
X97000000Y-72750000D03*
X95500000Y-72750000D03*
X95500000Y-71250000D03*
X94000000Y-72750000D03*
X97000000Y-71250000D03*
%TD*%
%TO.N,GND*%
%TO.C,U8*%
X79050000Y-68450000D03*
X80150000Y-69550000D03*
X80150000Y-68450000D03*
X79050000Y-69550000D03*
%TD*%
D15*
%TO.N,GND*%
X101500000Y-53450000D03*
X100450000Y-62175000D03*
X97974979Y-54850000D03*
X100700000Y-52850000D03*
X85100000Y-67600000D03*
X87750000Y-70350000D03*
X82500000Y-57800000D03*
X92200000Y-55300000D03*
X102600000Y-73100000D03*
X87637500Y-64912500D03*
X95650000Y-79875000D03*
X85650000Y-58550000D03*
X85900000Y-66950000D03*
X87300000Y-59000000D03*
X95299986Y-79099986D03*
X96575000Y-79625000D03*
X84234315Y-49150000D03*
X89000000Y-64750000D03*
X104000000Y-75800000D03*
X89600000Y-70350000D03*
X96300000Y-48649500D03*
X81950000Y-54650000D03*
X84700000Y-58500000D03*
X81900000Y-66000000D03*
X95825000Y-77975000D03*
X92799994Y-65550006D03*
X87000000Y-77000000D03*
X82450000Y-58550000D03*
X94625000Y-79675000D03*
X77034315Y-51900000D03*
X88750000Y-70350000D03*
X91200000Y-51900000D03*
X95500000Y-59300000D03*
X79300000Y-54449500D03*
X85400000Y-53500000D03*
X81100000Y-65600000D03*
%TO.N,+3V3*%
X84134315Y-50250000D03*
X77700000Y-53600000D03*
X92276923Y-48649500D03*
X84362357Y-79250010D03*
X76500000Y-57500000D03*
X103300000Y-80350000D03*
%TO.N,+6V*%
X90850000Y-65599982D03*
X89846075Y-57101795D03*
X97700000Y-65700000D03*
%TO.N,VDD*%
X99000000Y-49050000D03*
X101100000Y-58650000D03*
X105825000Y-56000000D03*
X94525728Y-55425728D03*
%TO.N,P0_30*%
X102000000Y-48950000D03*
X84400000Y-51700000D03*
%TO.N,P0_29*%
X100500000Y-48950000D03*
X83500000Y-52600000D03*
%TO.N,P0_02*%
X98011833Y-63469958D03*
X92000000Y-69700000D03*
%TO.N,P0_05*%
X103500000Y-53750000D03*
X99925000Y-73275000D03*
X98375000Y-76950000D03*
%TO.N,P0_04*%
X99000000Y-58750000D03*
X99200000Y-74100000D03*
X92700000Y-76875000D03*
%TO.N,P0_03*%
X96500000Y-56700000D03*
%TO.N,P0_17*%
X104874537Y-52770132D03*
X107800000Y-77300000D03*
X109400000Y-56350000D03*
X86800000Y-81000000D03*
X109200000Y-58850000D03*
%TO.N,P0_15*%
X106813516Y-53675904D03*
X110100000Y-55650000D03*
%TO.N,P0_10*%
X113900000Y-72700000D03*
%TO.N,P1_09*%
X98700000Y-68175000D03*
X112800000Y-67649996D03*
X103800000Y-68174998D03*
%TO.N,P0_11*%
X98750000Y-69125000D03*
X104700000Y-69125002D03*
X113350000Y-70350000D03*
%TO.N,P0_31*%
X113850000Y-75150000D03*
%TO.N,P0_28*%
X98700000Y-64249994D03*
X92497198Y-68712107D03*
%TO.N,P0_20*%
X100700000Y-51550000D03*
X81300000Y-59700000D03*
X77400000Y-67600000D03*
X89050000Y-74800000D03*
X84200000Y-53900000D03*
%TO.N,P0_09*%
X113250000Y-74250000D03*
%TO.N,/+3.8v*%
X86300000Y-60700000D03*
X78800000Y-66200000D03*
%TD*%
D16*
%TO.N,GND*%
X96250500Y-48649500D02*
X96300000Y-48649500D01*
X93400000Y-51500000D02*
X96250500Y-48649500D01*
X93400000Y-56500000D02*
X93400000Y-51500000D01*
D17*
X86000000Y-48500000D02*
X84934315Y-48500000D01*
X93812000Y-56312000D02*
X86000000Y-48500000D01*
X93812000Y-61926000D02*
X93812000Y-56312000D01*
D18*
X97800000Y-50600000D02*
X100050000Y-52850000D01*
X100050000Y-52850000D02*
X100700000Y-52850000D01*
X86400000Y-47600000D02*
X97800000Y-47600000D01*
X97800000Y-47600000D02*
X97800000Y-50600000D01*
X85500000Y-48500000D02*
X86400000Y-47600000D01*
D17*
X84334314Y-49249999D02*
X84934315Y-48500000D01*
D18*
X84934315Y-48500000D02*
X85500000Y-48500000D01*
D17*
X84234315Y-49150000D02*
X84334314Y-49249999D01*
X98722000Y-55872000D02*
X98722000Y-55972000D01*
D19*
X100349000Y-62276000D02*
X100450000Y-62175000D01*
D17*
X98400000Y-55550000D02*
X98722000Y-55872000D01*
X101244000Y-53450000D02*
X99922000Y-54772000D01*
X99600000Y-54350000D02*
X98400000Y-55550000D01*
X100700000Y-52850000D02*
X99600000Y-53950000D01*
X99922000Y-54772000D02*
X98722000Y-55972000D01*
X99600000Y-53950000D02*
X99600000Y-54350000D01*
X101500000Y-53450000D02*
X101300000Y-53450000D01*
X101300000Y-53450000D02*
X100700000Y-52850000D01*
X101500000Y-53450000D02*
X101244000Y-53450000D01*
D18*
X93249999Y-72500001D02*
X93750001Y-72500001D01*
X93750001Y-72500001D02*
X94000000Y-72750000D01*
D20*
X97000000Y-71250000D02*
X97000000Y-70851000D01*
D21*
X94000000Y-68404998D02*
X94553998Y-68404998D01*
X94553998Y-68404998D02*
X97000000Y-70851000D01*
D20*
X95825000Y-72425000D02*
X97000000Y-71250000D01*
D17*
X94625000Y-73375000D02*
X94000000Y-72750000D01*
X96575000Y-73175000D02*
X97000000Y-72750000D01*
X96575000Y-73825000D02*
X94000000Y-71250000D01*
D20*
X95299986Y-74049986D02*
X94000000Y-72750000D01*
X95500000Y-71250000D02*
X95500000Y-69904998D01*
X94249999Y-71000001D02*
X94249999Y-68654997D01*
D17*
X93812000Y-61926000D02*
X93624000Y-61738000D01*
D20*
X94100000Y-62400000D02*
X94100000Y-66500000D01*
D21*
X93812000Y-61926000D02*
X93812000Y-63338000D01*
D22*
X93312000Y-63188000D02*
X94100000Y-62400000D01*
D23*
X96000000Y-67000000D02*
X93350000Y-64350000D01*
D17*
X93812000Y-61926000D02*
X93812000Y-60712000D01*
D22*
X85900000Y-66950000D02*
X84450000Y-65500000D01*
D24*
X83000000Y-55700000D02*
X85900000Y-55700000D01*
D22*
X94100000Y-62200000D02*
X93800000Y-61900000D01*
D17*
X98722000Y-55972000D02*
X98722000Y-56158002D01*
D18*
X97974979Y-54850000D02*
X97974979Y-55924979D01*
D20*
X95500000Y-67900000D02*
X95500000Y-71250000D01*
D22*
X85100000Y-67100000D02*
X85100000Y-67600000D01*
D19*
X100399000Y-62226000D02*
X100450000Y-62175000D01*
D17*
X95650000Y-79875000D02*
X96325000Y-79875000D01*
D22*
X90525017Y-66474983D02*
X91875017Y-66474983D01*
D20*
X95825000Y-77975000D02*
X95825000Y-72425000D01*
D17*
X89885978Y-58100499D02*
X88986477Y-59000000D01*
X89399999Y-64249999D02*
X89399999Y-64350001D01*
D24*
X89504250Y-55700000D02*
X91200499Y-57396249D01*
D17*
X93812000Y-60712000D02*
X91200499Y-58100499D01*
D23*
X87000000Y-77000000D02*
X87886002Y-77000000D01*
D17*
X98465001Y-56415001D02*
X97465001Y-57415001D01*
X96575000Y-79625000D02*
X96575000Y-73175000D01*
X88986477Y-59000000D02*
X86100000Y-59000000D01*
X96325000Y-79875000D02*
X96575000Y-79625000D01*
X89000000Y-64750000D02*
X89399999Y-64350001D01*
X94625000Y-79675000D02*
X94625000Y-73375000D01*
D22*
X89600000Y-70350000D02*
X90000000Y-69950000D01*
D23*
X91299999Y-68704987D02*
X92799994Y-67204992D01*
D24*
X84234315Y-49150000D02*
X79784315Y-49150000D01*
D17*
X94825000Y-79875000D02*
X94625000Y-79675000D01*
X88450000Y-63300000D02*
X89399999Y-64249999D01*
X92549999Y-64350001D02*
X93312000Y-63588000D01*
D24*
X79300000Y-54449500D02*
X81749500Y-54449500D01*
D20*
X95299986Y-79099986D02*
X95299986Y-74049986D01*
D21*
X93312000Y-65038000D02*
X92799994Y-65550006D01*
D24*
X85900000Y-55700000D02*
X89504250Y-55700000D01*
D17*
X93624000Y-61738000D02*
X93362000Y-61738000D01*
D18*
X97974979Y-57275021D02*
X97974979Y-54850000D01*
D17*
X88450000Y-64200000D02*
X89000000Y-64750000D01*
D21*
X92799994Y-67204992D02*
X92799994Y-65550006D01*
X93312000Y-63588000D02*
X93312000Y-65038000D01*
D22*
X84450000Y-65500000D02*
X81200000Y-65500000D01*
D23*
X93400000Y-55575000D02*
X93400000Y-56500000D01*
D20*
X94249999Y-68654997D02*
X94000000Y-68404998D01*
D24*
X79784315Y-49150000D02*
X77034315Y-51900000D01*
D17*
X96575000Y-79625000D02*
X96575000Y-73825000D01*
X87637500Y-64912500D02*
X88737498Y-64912500D01*
D23*
X87886002Y-77000000D02*
X90386002Y-74500000D01*
X91299999Y-71700001D02*
X91299999Y-68704987D01*
D17*
X88737498Y-64912500D02*
X89399999Y-64249999D01*
X89399999Y-64350001D02*
X92549999Y-64350001D01*
D22*
X81900000Y-66000000D02*
X84000000Y-66000000D01*
D24*
X85400000Y-55200000D02*
X85900000Y-55700000D01*
D23*
X93400000Y-56500000D02*
X93400000Y-61888000D01*
D24*
X91200499Y-57396249D02*
X91200499Y-58100499D01*
D17*
X97465001Y-57415001D02*
X96580002Y-58300000D01*
D22*
X91875017Y-66474983D02*
X92799994Y-65550006D01*
D24*
X85400000Y-53500000D02*
X85400000Y-55200000D01*
D22*
X94100000Y-62400000D02*
X94100000Y-62200000D01*
X81200000Y-65500000D02*
X81100000Y-65600000D01*
D18*
X97974979Y-55924979D02*
X98465001Y-56415001D01*
D17*
X88450000Y-63300000D02*
X88450000Y-64200000D01*
D22*
X87750000Y-70350000D02*
X89600000Y-70350000D01*
D20*
X94000000Y-71250000D02*
X94249999Y-71000001D01*
D24*
X81749500Y-54449500D02*
X81950000Y-54650000D01*
D21*
X94000000Y-68404998D02*
X92799994Y-67204992D01*
D22*
X84000000Y-66000000D02*
X85100000Y-67100000D01*
D23*
X91200000Y-51900000D02*
X91200000Y-54300000D01*
X90386002Y-72613998D02*
X91299999Y-71700001D01*
D22*
X93312000Y-66638000D02*
X93312000Y-63188000D01*
X90000000Y-67000000D02*
X90525017Y-66474983D01*
D17*
X85650000Y-58550000D02*
X82450000Y-58550000D01*
X93812000Y-61926000D02*
X93812000Y-61068002D01*
D23*
X93125000Y-55300000D02*
X93400000Y-55575000D01*
D17*
X98722000Y-56158002D02*
X98465001Y-56415001D01*
D23*
X92200000Y-55300000D02*
X93125000Y-55300000D01*
D18*
X93813000Y-61925000D02*
X93812000Y-61926000D01*
D24*
X81950000Y-54650000D02*
X83000000Y-55700000D01*
D17*
X93812000Y-61068002D02*
X97465001Y-57415001D01*
X95650000Y-79875000D02*
X94825000Y-79875000D01*
D23*
X93350000Y-64350000D02*
X93350000Y-63000000D01*
D22*
X90000000Y-69950000D02*
X90000000Y-67000000D01*
D17*
X86100000Y-59000000D02*
X85650000Y-58550000D01*
D23*
X91200000Y-54300000D02*
X92200000Y-55300000D01*
D17*
X91200499Y-58100499D02*
X89885978Y-58100499D01*
D20*
X94100000Y-66500000D02*
X95500000Y-67900000D01*
D23*
X93850000Y-61888000D02*
X93812000Y-61926000D01*
X90386002Y-74500000D02*
X90386002Y-72613998D01*
%TD*%
%TA.AperFunction,Conductor*%
%TO.N,GND*%
G36*
X96992713Y-46520002D02*
G01*
X97028408Y-46561521D01*
X97031511Y-46559563D01*
X97031512Y-46559565D01*
X97047274Y-46584548D01*
X97055404Y-46599614D01*
X97067633Y-46626510D01*
X97084374Y-46645939D01*
X97095479Y-46660947D01*
X97109160Y-46682631D01*
X97115888Y-46688573D01*
X97131296Y-46702181D01*
X97143340Y-46714373D01*
X97162619Y-46736747D01*
X97170147Y-46741626D01*
X97170150Y-46741629D01*
X97184139Y-46750696D01*
X97199013Y-46761986D01*
X97218228Y-46778956D01*
X97226354Y-46782771D01*
X97226355Y-46782772D01*
X97232021Y-46785432D01*
X97244966Y-46791510D01*
X97259935Y-46799824D01*
X97284727Y-46815893D01*
X97301650Y-46820954D01*
X97309290Y-46823239D01*
X97326736Y-46829901D01*
X97349948Y-46840799D01*
X97379130Y-46845343D01*
X97395849Y-46849126D01*
X97415536Y-46855014D01*
X97415539Y-46855015D01*
X97424141Y-46857587D01*
X97433116Y-46857642D01*
X97433117Y-46857642D01*
X97439810Y-46857683D01*
X97458556Y-46857797D01*
X97459328Y-46857830D01*
X97460423Y-46858000D01*
X97491298Y-46858000D01*
X97492068Y-46858002D01*
X97565716Y-46858452D01*
X97565717Y-46858452D01*
X97569652Y-46858476D01*
X97570996Y-46858092D01*
X97572341Y-46858000D01*
X107691298Y-46858000D01*
X107692069Y-46858002D01*
X107769652Y-46858476D01*
X107778281Y-46856010D01*
X107778286Y-46856009D01*
X107798048Y-46850361D01*
X107814809Y-46846783D01*
X107835152Y-46843870D01*
X107835162Y-46843867D01*
X107844045Y-46842595D01*
X107867395Y-46831979D01*
X107884907Y-46825536D01*
X107900937Y-46820954D01*
X107909565Y-46818488D01*
X107934548Y-46802726D01*
X107949614Y-46794596D01*
X107976510Y-46782367D01*
X107995939Y-46765626D01*
X108010947Y-46754521D01*
X108025039Y-46745630D01*
X108032631Y-46740840D01*
X108052182Y-46718703D01*
X108064374Y-46706659D01*
X108079949Y-46693239D01*
X108079950Y-46693237D01*
X108086747Y-46687381D01*
X108091626Y-46679853D01*
X108091629Y-46679850D01*
X108100696Y-46665861D01*
X108111986Y-46650987D01*
X108123012Y-46638502D01*
X108128956Y-46631772D01*
X108134247Y-46620504D01*
X108139884Y-46608496D01*
X108141510Y-46605034D01*
X108149824Y-46590065D01*
X108165893Y-46565273D01*
X108165894Y-46565271D01*
X108167072Y-46566034D01*
X108207583Y-46519700D01*
X108275232Y-46500000D01*
X110180676Y-46500000D01*
X110248797Y-46520002D01*
X110276487Y-46544169D01*
X110317172Y-46591805D01*
X110359102Y-46640898D01*
X110362858Y-46644106D01*
X110370915Y-46650987D01*
X110551624Y-46805328D01*
X110767498Y-46937616D01*
X110772068Y-46939509D01*
X110772072Y-46939511D01*
X110996836Y-47032611D01*
X111001409Y-47034505D01*
X111035465Y-47042681D01*
X111242784Y-47092454D01*
X111242790Y-47092455D01*
X111247597Y-47093609D01*
X111347416Y-47101465D01*
X111434345Y-47108307D01*
X111434352Y-47108307D01*
X111436801Y-47108500D01*
X111563199Y-47108500D01*
X111565648Y-47108307D01*
X111565655Y-47108307D01*
X111652584Y-47101465D01*
X111752403Y-47093609D01*
X111757210Y-47092455D01*
X111757216Y-47092454D01*
X111964535Y-47042681D01*
X111998591Y-47034505D01*
X112003164Y-47032611D01*
X112227928Y-46939511D01*
X112227932Y-46939509D01*
X112232502Y-46937616D01*
X112448376Y-46805328D01*
X112629085Y-46650987D01*
X112637142Y-46644106D01*
X112640898Y-46640898D01*
X112682828Y-46591805D01*
X112723513Y-46544169D01*
X112782964Y-46505360D01*
X112819324Y-46500000D01*
X114349551Y-46500000D01*
X114417672Y-46520002D01*
X114464165Y-46573658D01*
X114475431Y-46620504D01*
X114490104Y-46956583D01*
X114488724Y-46981461D01*
X114486814Y-46993730D01*
X114488638Y-47007678D01*
X114490936Y-47025251D01*
X114492000Y-47041589D01*
X114492000Y-70133485D01*
X114471998Y-70201606D01*
X114418342Y-70248099D01*
X114348068Y-70258203D01*
X114283488Y-70228709D01*
X114245104Y-70168983D01*
X114244033Y-70164745D01*
X114243542Y-70160072D01*
X114184527Y-69978444D01*
X114089040Y-69813056D01*
X114084264Y-69807751D01*
X113965675Y-69676045D01*
X113965674Y-69676044D01*
X113961253Y-69671134D01*
X113806752Y-69558882D01*
X113800724Y-69556198D01*
X113800722Y-69556197D01*
X113638319Y-69483891D01*
X113638318Y-69483891D01*
X113632288Y-69481206D01*
X113507367Y-69454653D01*
X113451944Y-69442872D01*
X113451939Y-69442872D01*
X113445487Y-69441500D01*
X113254513Y-69441500D01*
X113248061Y-69442872D01*
X113248056Y-69442872D01*
X113192633Y-69454653D01*
X113067712Y-69481206D01*
X113061682Y-69483891D01*
X113061681Y-69483891D01*
X112899278Y-69556197D01*
X112899276Y-69556198D01*
X112893248Y-69558882D01*
X112738747Y-69671134D01*
X112734326Y-69676044D01*
X112734325Y-69676045D01*
X112615737Y-69807751D01*
X112610960Y-69813056D01*
X112515473Y-69978444D01*
X112491084Y-70053504D01*
X112489297Y-70059005D01*
X112449223Y-70117610D01*
X112383826Y-70145247D01*
X112313870Y-70133140D01*
X112263672Y-70088508D01*
X112262490Y-70086680D01*
X112200663Y-69991111D01*
X112162822Y-69932617D01*
X112162820Y-69932614D01*
X112160014Y-69928277D01*
X112009670Y-69763051D01*
X112005619Y-69759852D01*
X112005615Y-69759848D01*
X111838414Y-69627800D01*
X111838410Y-69627798D01*
X111834359Y-69624598D01*
X111638789Y-69516638D01*
X111633920Y-69514914D01*
X111633916Y-69514912D01*
X111433087Y-69443795D01*
X111433083Y-69443794D01*
X111428212Y-69442069D01*
X111423119Y-69441162D01*
X111423116Y-69441161D01*
X111213373Y-69403800D01*
X111213367Y-69403799D01*
X111208284Y-69402894D01*
X111134452Y-69401992D01*
X110990081Y-69400228D01*
X110990079Y-69400228D01*
X110984911Y-69400165D01*
X110764091Y-69433955D01*
X110551756Y-69503357D01*
X110521443Y-69519137D01*
X110413711Y-69575219D01*
X110353607Y-69606507D01*
X110349474Y-69609610D01*
X110349471Y-69609612D01*
X110184288Y-69733635D01*
X110174965Y-69740635D01*
X110020629Y-69902138D01*
X109913201Y-70059621D01*
X109858293Y-70104621D01*
X109787768Y-70112792D01*
X109724021Y-70081538D01*
X109703324Y-70057054D01*
X109622822Y-69932617D01*
X109622820Y-69932614D01*
X109620014Y-69928277D01*
X109469670Y-69763051D01*
X109465619Y-69759852D01*
X109465615Y-69759848D01*
X109298414Y-69627800D01*
X109298410Y-69627798D01*
X109294359Y-69624598D01*
X109098789Y-69516638D01*
X109093920Y-69514914D01*
X109093916Y-69514912D01*
X108893087Y-69443795D01*
X108893083Y-69443794D01*
X108888212Y-69442069D01*
X108883119Y-69441162D01*
X108883116Y-69441161D01*
X108673373Y-69403800D01*
X108673367Y-69403799D01*
X108668284Y-69402894D01*
X108594452Y-69401992D01*
X108450081Y-69400228D01*
X108450079Y-69400228D01*
X108444911Y-69400165D01*
X108224091Y-69433955D01*
X108011756Y-69503357D01*
X107981443Y-69519137D01*
X107873711Y-69575219D01*
X107813607Y-69606507D01*
X107809474Y-69609610D01*
X107809471Y-69609612D01*
X107644288Y-69733635D01*
X107634965Y-69740635D01*
X107480629Y-69902138D01*
X107373201Y-70059621D01*
X107318293Y-70104621D01*
X107247768Y-70112792D01*
X107184021Y-70081538D01*
X107163324Y-70057054D01*
X107082822Y-69932617D01*
X107082820Y-69932614D01*
X107080014Y-69928277D01*
X106929670Y-69763051D01*
X106925619Y-69759852D01*
X106925615Y-69759848D01*
X106758414Y-69627800D01*
X106758410Y-69627798D01*
X106754359Y-69624598D01*
X106558789Y-69516638D01*
X106553920Y-69514914D01*
X106553916Y-69514912D01*
X106353087Y-69443795D01*
X106353083Y-69443794D01*
X106348212Y-69442069D01*
X106343119Y-69441162D01*
X106343116Y-69441161D01*
X106133373Y-69403800D01*
X106133367Y-69403799D01*
X106128284Y-69402894D01*
X106054452Y-69401992D01*
X105910081Y-69400228D01*
X105910079Y-69400228D01*
X105904911Y-69400165D01*
X105788360Y-69418000D01*
X105740788Y-69425279D01*
X105670425Y-69415811D01*
X105616351Y-69369805D01*
X105595734Y-69301868D01*
X105596419Y-69287559D01*
X105612814Y-69131567D01*
X105612814Y-69131565D01*
X105613504Y-69125002D01*
X105603103Y-69026045D01*
X105594232Y-68941637D01*
X105594232Y-68941635D01*
X105593542Y-68935074D01*
X105534527Y-68753446D01*
X105439040Y-68588058D01*
X105406825Y-68552279D01*
X105315675Y-68451047D01*
X105315674Y-68451046D01*
X105311253Y-68446136D01*
X105199480Y-68364928D01*
X105162094Y-68337765D01*
X105162093Y-68337764D01*
X105156752Y-68333884D01*
X105150724Y-68331200D01*
X105150722Y-68331199D01*
X104988319Y-68258893D01*
X104988318Y-68258893D01*
X104982288Y-68256208D01*
X104975836Y-68254836D01*
X104975831Y-68254835D01*
X104805637Y-68218659D01*
X104743163Y-68184930D01*
X104708842Y-68122781D01*
X104706524Y-68108583D01*
X104694232Y-67991633D01*
X104694232Y-67991631D01*
X104693542Y-67985070D01*
X104634527Y-67803442D01*
X104545935Y-67649996D01*
X111886496Y-67649996D01*
X111887186Y-67656561D01*
X111902624Y-67803442D01*
X111906458Y-67839924D01*
X111965473Y-68021552D01*
X111968776Y-68027274D01*
X111968777Y-68027275D01*
X111975057Y-68038152D01*
X112060960Y-68186940D01*
X112065378Y-68191847D01*
X112065379Y-68191848D01*
X112139312Y-68273959D01*
X112188747Y-68328862D01*
X112343248Y-68441114D01*
X112349276Y-68443798D01*
X112349278Y-68443799D01*
X112494600Y-68508500D01*
X112517712Y-68518790D01*
X112611113Y-68538643D01*
X112698056Y-68557124D01*
X112698061Y-68557124D01*
X112704513Y-68558496D01*
X112895487Y-68558496D01*
X112901939Y-68557124D01*
X112901944Y-68557124D01*
X112988887Y-68538643D01*
X113082288Y-68518790D01*
X113105400Y-68508500D01*
X113250722Y-68443799D01*
X113250724Y-68443798D01*
X113256752Y-68441114D01*
X113411253Y-68328862D01*
X113460688Y-68273959D01*
X113534621Y-68191848D01*
X113534622Y-68191847D01*
X113539040Y-68186940D01*
X113624943Y-68038152D01*
X113631223Y-68027275D01*
X113631224Y-68027274D01*
X113634527Y-68021552D01*
X113693542Y-67839924D01*
X113697377Y-67803442D01*
X113712814Y-67656561D01*
X113713504Y-67649996D01*
X113697333Y-67496134D01*
X113694232Y-67466631D01*
X113694232Y-67466629D01*
X113693542Y-67460068D01*
X113634527Y-67278440D01*
X113628425Y-67267870D01*
X113569828Y-67166379D01*
X113539040Y-67113052D01*
X113496773Y-67066109D01*
X113415675Y-66976041D01*
X113415674Y-66976040D01*
X113411253Y-66971130D01*
X113295516Y-66887042D01*
X113262094Y-66862759D01*
X113262093Y-66862758D01*
X113256752Y-66858878D01*
X113250724Y-66856194D01*
X113250722Y-66856193D01*
X113088319Y-66783887D01*
X113088318Y-66783887D01*
X113082288Y-66781202D01*
X112965614Y-66756402D01*
X112901944Y-66742868D01*
X112901939Y-66742868D01*
X112895487Y-66741496D01*
X112704513Y-66741496D01*
X112698061Y-66742868D01*
X112698056Y-66742868D01*
X112634386Y-66756402D01*
X112517712Y-66781202D01*
X112511682Y-66783887D01*
X112511681Y-66783887D01*
X112349278Y-66856193D01*
X112349276Y-66856194D01*
X112343248Y-66858878D01*
X112337907Y-66862758D01*
X112337906Y-66862759D01*
X112304484Y-66887042D01*
X112188747Y-66971130D01*
X112184326Y-66976040D01*
X112184325Y-66976041D01*
X112103228Y-67066109D01*
X112060960Y-67113052D01*
X112030172Y-67166379D01*
X111971576Y-67267870D01*
X111965473Y-67278440D01*
X111906458Y-67460068D01*
X111905768Y-67466629D01*
X111905768Y-67466631D01*
X111902667Y-67496134D01*
X111886496Y-67649996D01*
X104545935Y-67649996D01*
X104539040Y-67638054D01*
X104518832Y-67615610D01*
X104415675Y-67501043D01*
X104415674Y-67501042D01*
X104411253Y-67496132D01*
X104284161Y-67403794D01*
X104262094Y-67387761D01*
X104262093Y-67387760D01*
X104256752Y-67383880D01*
X104250724Y-67381196D01*
X104250722Y-67381195D01*
X104088319Y-67308889D01*
X104088318Y-67308889D01*
X104082288Y-67306204D01*
X103981238Y-67284725D01*
X103901944Y-67267870D01*
X103901939Y-67267870D01*
X103895487Y-67266498D01*
X103704513Y-67266498D01*
X103698061Y-67267870D01*
X103698056Y-67267870D01*
X103618762Y-67284725D01*
X103517712Y-67306204D01*
X103511682Y-67308889D01*
X103511681Y-67308889D01*
X103349278Y-67381195D01*
X103349276Y-67381196D01*
X103343248Y-67383880D01*
X103337907Y-67387760D01*
X103337906Y-67387761D01*
X103315839Y-67403794D01*
X103188747Y-67496132D01*
X103184326Y-67501042D01*
X103184325Y-67501043D01*
X103081169Y-67615610D01*
X103060960Y-67638054D01*
X102965473Y-67803442D01*
X102906458Y-67985070D01*
X102905768Y-67991631D01*
X102905768Y-67991633D01*
X102896047Y-68084129D01*
X102886496Y-68174998D01*
X102887186Y-68181563D01*
X102904557Y-68346836D01*
X102906458Y-68364926D01*
X102965473Y-68546554D01*
X102968776Y-68552276D01*
X102968777Y-68552277D01*
X102972368Y-68558496D01*
X103060960Y-68711942D01*
X103065378Y-68716849D01*
X103065379Y-68716850D01*
X103115512Y-68772528D01*
X103188747Y-68853864D01*
X103266534Y-68910380D01*
X103300523Y-68935074D01*
X103343248Y-68966116D01*
X103349276Y-68968800D01*
X103349278Y-68968801D01*
X103466821Y-69021134D01*
X103517712Y-69043792D01*
X103524164Y-69045164D01*
X103524169Y-69045165D01*
X103694363Y-69081341D01*
X103756837Y-69115070D01*
X103791158Y-69177219D01*
X103793476Y-69191417D01*
X103805085Y-69301868D01*
X103806458Y-69314930D01*
X103865473Y-69496558D01*
X103960960Y-69661946D01*
X103965378Y-69666853D01*
X103965379Y-69666854D01*
X104048227Y-69758866D01*
X104088747Y-69803868D01*
X104170266Y-69863095D01*
X104237904Y-69912237D01*
X104243248Y-69916120D01*
X104249276Y-69918804D01*
X104249278Y-69918805D01*
X104397340Y-69984726D01*
X104417712Y-69993796D01*
X104511112Y-70013649D01*
X104598056Y-70032130D01*
X104598061Y-70032130D01*
X104604513Y-70033502D01*
X104642027Y-70033502D01*
X104710148Y-70053504D01*
X104756641Y-70107160D01*
X104766745Y-70177434D01*
X104756315Y-70212552D01*
X104747647Y-70231226D01*
X104720688Y-70289305D01*
X104660989Y-70504570D01*
X104660440Y-70509707D01*
X104654126Y-70568794D01*
X104637251Y-70726695D01*
X104637548Y-70731848D01*
X104637548Y-70731851D01*
X104648555Y-70922747D01*
X104650110Y-70949715D01*
X104651247Y-70954761D01*
X104651248Y-70954767D01*
X104658299Y-70986052D01*
X104699222Y-71167639D01*
X104783266Y-71374616D01*
X104827183Y-71446283D01*
X104897291Y-71560688D01*
X104899987Y-71565088D01*
X105046250Y-71733938D01*
X105050230Y-71737242D01*
X105054981Y-71741187D01*
X105094616Y-71800090D01*
X105096113Y-71871071D01*
X105058997Y-71931593D01*
X105018725Y-71956112D01*
X104977913Y-71971412D01*
X104903295Y-71999385D01*
X104786739Y-72086739D01*
X104699385Y-72203295D01*
X104648255Y-72339684D01*
X104641500Y-72401866D01*
X104641500Y-74198134D01*
X104648255Y-74260316D01*
X104699385Y-74396705D01*
X104786739Y-74513261D01*
X104903295Y-74600615D01*
X105039684Y-74651745D01*
X105101866Y-74658500D01*
X106898134Y-74658500D01*
X106960316Y-74651745D01*
X107096705Y-74600615D01*
X107213261Y-74513261D01*
X107300615Y-74396705D01*
X107309460Y-74373112D01*
X107344598Y-74279382D01*
X107387240Y-74222618D01*
X107453802Y-74197918D01*
X107523150Y-74213126D01*
X107557817Y-74241114D01*
X107586250Y-74273938D01*
X107758126Y-74416632D01*
X107951000Y-74529338D01*
X108159692Y-74609030D01*
X108164760Y-74610061D01*
X108164763Y-74610062D01*
X108249388Y-74627279D01*
X108378597Y-74653567D01*
X108383772Y-74653757D01*
X108383774Y-74653757D01*
X108596673Y-74661564D01*
X108596677Y-74661564D01*
X108601837Y-74661753D01*
X108606957Y-74661097D01*
X108606959Y-74661097D01*
X108818288Y-74634025D01*
X108818289Y-74634025D01*
X108823416Y-74633368D01*
X108828366Y-74631883D01*
X109032429Y-74570661D01*
X109032434Y-74570659D01*
X109037384Y-74569174D01*
X109237994Y-74470896D01*
X109419860Y-74341173D01*
X109464985Y-74296206D01*
X109563616Y-74197918D01*
X109578096Y-74183489D01*
X109584915Y-74174000D01*
X109708453Y-74002077D01*
X109709640Y-74002930D01*
X109756960Y-73959362D01*
X109826897Y-73947145D01*
X109892338Y-73974678D01*
X109920166Y-74006511D01*
X109977694Y-74100388D01*
X109983777Y-74108699D01*
X110123213Y-74269667D01*
X110130580Y-74276883D01*
X110294434Y-74412916D01*
X110302881Y-74418831D01*
X110486756Y-74526279D01*
X110496042Y-74530729D01*
X110695001Y-74606703D01*
X110704899Y-74609579D01*
X110808250Y-74630606D01*
X110822299Y-74629410D01*
X110826000Y-74619065D01*
X110826000Y-73172000D01*
X110846002Y-73103879D01*
X110899658Y-73057386D01*
X110952000Y-73046000D01*
X112398344Y-73046000D01*
X112411875Y-73042027D01*
X112413180Y-73032947D01*
X112371214Y-72865875D01*
X112367894Y-72856124D01*
X112282972Y-72660814D01*
X112278105Y-72651739D01*
X112162426Y-72472926D01*
X112156136Y-72464757D01*
X112012806Y-72307240D01*
X112005273Y-72300215D01*
X111838139Y-72168222D01*
X111829556Y-72162520D01*
X111792602Y-72142120D01*
X111742631Y-72091687D01*
X111727859Y-72022245D01*
X111752975Y-71955839D01*
X111780327Y-71929232D01*
X111835764Y-71889689D01*
X111959860Y-71801173D01*
X111986050Y-71775075D01*
X112114435Y-71647137D01*
X112118096Y-71643489D01*
X112137587Y-71616365D01*
X112245435Y-71466277D01*
X112248453Y-71462077D01*
X112269320Y-71419857D01*
X112345136Y-71266453D01*
X112345137Y-71266451D01*
X112347430Y-71261811D01*
X112412370Y-71048069D01*
X112420535Y-70986052D01*
X112449258Y-70921125D01*
X112508523Y-70882034D01*
X112579515Y-70881189D01*
X112639093Y-70918189D01*
X112738747Y-71028866D01*
X112893248Y-71141118D01*
X112899276Y-71143802D01*
X112899278Y-71143803D01*
X113061681Y-71216109D01*
X113067712Y-71218794D01*
X113161112Y-71238647D01*
X113248056Y-71257128D01*
X113248061Y-71257128D01*
X113254513Y-71258500D01*
X113445487Y-71258500D01*
X113451939Y-71257128D01*
X113451944Y-71257128D01*
X113538888Y-71238647D01*
X113632288Y-71218794D01*
X113638319Y-71216109D01*
X113800722Y-71143803D01*
X113800724Y-71143802D01*
X113806752Y-71141118D01*
X113961253Y-71028866D01*
X114089040Y-70886944D01*
X114184527Y-70721556D01*
X114243542Y-70539928D01*
X114243682Y-70538599D01*
X114276482Y-70477844D01*
X114338632Y-70443523D01*
X114409471Y-70448252D01*
X114466508Y-70490528D01*
X114491635Y-70556929D01*
X114492000Y-70566515D01*
X114492000Y-71775075D01*
X114471998Y-71843196D01*
X114418342Y-71889689D01*
X114348068Y-71899793D01*
X114314751Y-71890182D01*
X114188319Y-71833891D01*
X114188318Y-71833891D01*
X114182288Y-71831206D01*
X114088887Y-71811353D01*
X114001944Y-71792872D01*
X114001939Y-71792872D01*
X113995487Y-71791500D01*
X113804513Y-71791500D01*
X113798061Y-71792872D01*
X113798056Y-71792872D01*
X113711113Y-71811353D01*
X113617712Y-71831206D01*
X113611682Y-71833891D01*
X113611681Y-71833891D01*
X113449278Y-71906197D01*
X113449276Y-71906198D01*
X113443248Y-71908882D01*
X113437907Y-71912762D01*
X113437906Y-71912763D01*
X113415683Y-71928909D01*
X113288747Y-72021134D01*
X113284326Y-72026044D01*
X113284325Y-72026045D01*
X113180102Y-72141797D01*
X113160960Y-72163056D01*
X113065473Y-72328444D01*
X113006458Y-72510072D01*
X113005768Y-72516633D01*
X113005768Y-72516635D01*
X112996896Y-72601045D01*
X112986496Y-72700000D01*
X112987186Y-72706565D01*
X112991440Y-72747035D01*
X113006458Y-72889928D01*
X113065473Y-73071556D01*
X113068776Y-73077278D01*
X113068777Y-73077279D01*
X113127310Y-73178661D01*
X113144048Y-73247656D01*
X113120828Y-73314748D01*
X113065020Y-73358635D01*
X113044389Y-73364908D01*
X112967712Y-73381206D01*
X112961682Y-73383891D01*
X112961681Y-73383891D01*
X112799278Y-73456197D01*
X112799276Y-73456198D01*
X112793248Y-73458882D01*
X112638747Y-73571134D01*
X112624358Y-73587114D01*
X112563916Y-73624352D01*
X112492933Y-73623002D01*
X112433947Y-73583489D01*
X112432124Y-73579460D01*
X112413259Y-73558205D01*
X112398617Y-73554000D01*
X111352115Y-73554000D01*
X111336876Y-73558475D01*
X111335671Y-73559865D01*
X111334000Y-73567548D01*
X111334000Y-74618517D01*
X111338064Y-74632359D01*
X111351478Y-74634393D01*
X111358184Y-74633534D01*
X111368262Y-74631392D01*
X111572255Y-74570191D01*
X111581842Y-74566433D01*
X111773095Y-74472739D01*
X111781945Y-74467464D01*
X111955328Y-74343792D01*
X111963200Y-74337139D01*
X112114044Y-74186819D01*
X112115593Y-74184999D01*
X112116404Y-74184468D01*
X112117713Y-74183163D01*
X112117982Y-74183433D01*
X112174974Y-74146082D01*
X112245967Y-74145447D01*
X112306035Y-74183295D01*
X112336862Y-74253485D01*
X112354241Y-74418831D01*
X112356458Y-74439928D01*
X112415473Y-74621556D01*
X112418776Y-74627278D01*
X112418777Y-74627279D01*
X112434064Y-74653757D01*
X112510960Y-74786944D01*
X112515378Y-74791851D01*
X112515379Y-74791852D01*
X112528627Y-74806565D01*
X112638747Y-74928866D01*
X112793248Y-75041118D01*
X112865066Y-75073093D01*
X112919162Y-75119073D01*
X112939127Y-75175029D01*
X112956458Y-75339928D01*
X113015473Y-75521556D01*
X113018776Y-75527278D01*
X113018777Y-75527279D01*
X113033833Y-75553357D01*
X113110960Y-75686944D01*
X113115378Y-75691851D01*
X113115379Y-75691852D01*
X113201528Y-75787530D01*
X113238747Y-75828866D01*
X113393248Y-75941118D01*
X113399276Y-75943802D01*
X113399278Y-75943803D01*
X113545469Y-76008891D01*
X113567712Y-76018794D01*
X113661112Y-76038647D01*
X113748056Y-76057128D01*
X113748061Y-76057128D01*
X113754513Y-76058500D01*
X113945487Y-76058500D01*
X113951939Y-76057128D01*
X113951944Y-76057128D01*
X114038888Y-76038647D01*
X114132288Y-76018794D01*
X114160562Y-76006206D01*
X114272403Y-75956411D01*
X114306752Y-75941118D01*
X114306936Y-75941532D01*
X114371998Y-75925750D01*
X114439089Y-75948972D01*
X114482975Y-76004780D01*
X114492000Y-76051607D01*
X114492000Y-80737388D01*
X114471998Y-80805509D01*
X114455096Y-80826483D01*
X113826485Y-81455095D01*
X113764172Y-81489120D01*
X113737389Y-81492000D01*
X103495767Y-81492000D01*
X103427646Y-81471998D01*
X103381153Y-81418342D01*
X103371049Y-81348068D01*
X103400543Y-81283488D01*
X103460269Y-81245104D01*
X103469570Y-81242753D01*
X103582288Y-81218794D01*
X103588319Y-81216109D01*
X103750722Y-81143803D01*
X103750724Y-81143802D01*
X103756752Y-81141118D01*
X103772614Y-81129594D01*
X103871156Y-81057998D01*
X103911253Y-81028866D01*
X103943155Y-80993435D01*
X104034621Y-80891852D01*
X104034622Y-80891851D01*
X104039040Y-80886944D01*
X104097314Y-80786010D01*
X104131223Y-80727279D01*
X104131224Y-80727278D01*
X104134527Y-80721556D01*
X104193542Y-80539928D01*
X104197100Y-80506081D01*
X104212814Y-80356565D01*
X104213504Y-80350000D01*
X104202798Y-80248134D01*
X104194232Y-80166635D01*
X104194232Y-80166633D01*
X104193542Y-80160072D01*
X104134527Y-79978444D01*
X104103074Y-79923965D01*
X104042341Y-79818774D01*
X104039040Y-79813056D01*
X104029191Y-79802117D01*
X103915675Y-79676045D01*
X103915674Y-79676044D01*
X103911253Y-79671134D01*
X103756752Y-79558882D01*
X103750724Y-79556198D01*
X103750722Y-79556197D01*
X103588319Y-79483891D01*
X103588318Y-79483891D01*
X103582288Y-79481206D01*
X103488888Y-79461353D01*
X103401944Y-79442872D01*
X103401939Y-79442872D01*
X103395487Y-79441500D01*
X103204513Y-79441500D01*
X103198061Y-79442872D01*
X103198056Y-79442872D01*
X103152197Y-79452620D01*
X103081406Y-79447218D01*
X103024773Y-79404401D01*
X103000280Y-79337763D01*
X103000000Y-79329373D01*
X103000000Y-78500000D01*
X109886526Y-78500000D01*
X109906391Y-78752403D01*
X109965495Y-78998591D01*
X110062384Y-79232502D01*
X110194672Y-79448376D01*
X110359102Y-79640898D01*
X110551624Y-79805328D01*
X110767498Y-79937616D01*
X110772068Y-79939509D01*
X110772072Y-79939511D01*
X110954720Y-80015166D01*
X111001409Y-80034505D01*
X111086032Y-80054821D01*
X111242784Y-80092454D01*
X111242790Y-80092455D01*
X111247597Y-80093609D01*
X111347416Y-80101465D01*
X111434345Y-80108307D01*
X111434352Y-80108307D01*
X111436801Y-80108500D01*
X111563199Y-80108500D01*
X111565648Y-80108307D01*
X111565655Y-80108307D01*
X111652584Y-80101465D01*
X111752403Y-80093609D01*
X111757210Y-80092455D01*
X111757216Y-80092454D01*
X111913968Y-80054821D01*
X111998591Y-80034505D01*
X112045280Y-80015166D01*
X112227928Y-79939511D01*
X112227932Y-79939509D01*
X112232502Y-79937616D01*
X112448376Y-79805328D01*
X112640898Y-79640898D01*
X112805328Y-79448376D01*
X112937616Y-79232502D01*
X113034505Y-78998591D01*
X113093609Y-78752403D01*
X113113474Y-78500000D01*
X113093609Y-78247597D01*
X113083894Y-78207128D01*
X113040066Y-78024574D01*
X113034505Y-78001409D01*
X113026008Y-77980896D01*
X112939511Y-77772072D01*
X112939509Y-77772068D01*
X112937616Y-77767498D01*
X112805328Y-77551624D01*
X112640898Y-77359102D01*
X112448376Y-77194672D01*
X112232502Y-77062384D01*
X112227932Y-77060491D01*
X112227928Y-77060489D01*
X112003164Y-76967389D01*
X112003162Y-76967388D01*
X111998591Y-76965495D01*
X111906704Y-76943435D01*
X111757216Y-76907546D01*
X111757210Y-76907545D01*
X111752403Y-76906391D01*
X111652584Y-76898535D01*
X111565655Y-76891693D01*
X111565648Y-76891693D01*
X111563199Y-76891500D01*
X111436801Y-76891500D01*
X111434352Y-76891693D01*
X111434345Y-76891693D01*
X111347416Y-76898535D01*
X111247597Y-76906391D01*
X111242790Y-76907545D01*
X111242784Y-76907546D01*
X111093296Y-76943435D01*
X111001409Y-76965495D01*
X110996838Y-76967388D01*
X110996836Y-76967389D01*
X110772072Y-77060489D01*
X110772068Y-77060491D01*
X110767498Y-77062384D01*
X110551624Y-77194672D01*
X110359102Y-77359102D01*
X110194672Y-77551624D01*
X110062384Y-77767498D01*
X110060491Y-77772068D01*
X110060489Y-77772072D01*
X109973992Y-77980896D01*
X109965495Y-78001409D01*
X109959934Y-78024574D01*
X109916107Y-78207128D01*
X109906391Y-78247597D01*
X109886526Y-78500000D01*
X103000000Y-78500000D01*
X103000000Y-77300000D01*
X106886496Y-77300000D01*
X106887186Y-77306565D01*
X106899594Y-77424616D01*
X106906458Y-77489928D01*
X106965473Y-77671556D01*
X107060960Y-77836944D01*
X107065378Y-77841851D01*
X107065379Y-77841852D01*
X107184325Y-77973955D01*
X107188747Y-77978866D01*
X107281469Y-78046233D01*
X107329815Y-78081358D01*
X107343248Y-78091118D01*
X107349276Y-78093802D01*
X107349278Y-78093803D01*
X107511681Y-78166109D01*
X107517712Y-78168794D01*
X107611113Y-78188647D01*
X107698056Y-78207128D01*
X107698061Y-78207128D01*
X107704513Y-78208500D01*
X107895487Y-78208500D01*
X107901939Y-78207128D01*
X107901944Y-78207128D01*
X107988887Y-78188647D01*
X108082288Y-78168794D01*
X108088319Y-78166109D01*
X108250722Y-78093803D01*
X108250724Y-78093802D01*
X108256752Y-78091118D01*
X108270186Y-78081358D01*
X108318531Y-78046233D01*
X108411253Y-77978866D01*
X108415675Y-77973955D01*
X108534621Y-77841852D01*
X108534622Y-77841851D01*
X108539040Y-77836944D01*
X108634527Y-77671556D01*
X108693542Y-77489928D01*
X108700407Y-77424616D01*
X108712814Y-77306565D01*
X108713504Y-77300000D01*
X108693542Y-77110072D01*
X108634527Y-76928444D01*
X108539040Y-76763056D01*
X108530701Y-76753794D01*
X108415675Y-76626045D01*
X108415674Y-76626044D01*
X108411253Y-76621134D01*
X108256752Y-76508882D01*
X108250724Y-76506198D01*
X108250722Y-76506197D01*
X108088319Y-76433891D01*
X108088318Y-76433891D01*
X108082288Y-76431206D01*
X107988888Y-76411353D01*
X107901944Y-76392872D01*
X107901939Y-76392872D01*
X107895487Y-76391500D01*
X107704513Y-76391500D01*
X107698061Y-76392872D01*
X107698056Y-76392872D01*
X107611112Y-76411353D01*
X107517712Y-76431206D01*
X107511682Y-76433891D01*
X107511681Y-76433891D01*
X107349278Y-76506197D01*
X107349276Y-76506198D01*
X107343248Y-76508882D01*
X107188747Y-76621134D01*
X107184326Y-76626044D01*
X107184325Y-76626045D01*
X107069300Y-76753794D01*
X107060960Y-76763056D01*
X106965473Y-76928444D01*
X106906458Y-77110072D01*
X106886496Y-77300000D01*
X103000000Y-77300000D01*
X103000000Y-73500000D01*
X100954793Y-73500000D01*
X100886672Y-73479998D01*
X100840179Y-73426342D01*
X100829483Y-73360830D01*
X100837814Y-73281565D01*
X100838504Y-73275000D01*
X100834504Y-73236944D01*
X100819232Y-73091635D01*
X100819232Y-73091633D01*
X100818542Y-73085072D01*
X100759527Y-72903444D01*
X100737837Y-72865875D01*
X100673223Y-72753962D01*
X100664040Y-72738056D01*
X100635686Y-72706565D01*
X100540675Y-72601045D01*
X100540674Y-72601044D01*
X100536253Y-72596134D01*
X100437157Y-72524136D01*
X100387094Y-72487763D01*
X100387093Y-72487762D01*
X100381752Y-72483882D01*
X100375724Y-72481198D01*
X100375722Y-72481197D01*
X100213319Y-72408891D01*
X100213318Y-72408891D01*
X100207288Y-72406206D01*
X100113887Y-72386353D01*
X100026944Y-72367872D01*
X100026939Y-72367872D01*
X100020487Y-72366500D01*
X99829513Y-72366500D01*
X99823061Y-72367872D01*
X99823056Y-72367872D01*
X99683822Y-72397468D01*
X99652197Y-72404190D01*
X99581406Y-72398788D01*
X99524774Y-72355971D01*
X99500280Y-72289334D01*
X99500000Y-72280943D01*
X99500000Y-69676722D01*
X99516881Y-69613722D01*
X99581223Y-69502279D01*
X99581224Y-69502278D01*
X99584527Y-69496556D01*
X99643542Y-69314928D01*
X99653117Y-69223832D01*
X99662814Y-69131565D01*
X99663504Y-69125000D01*
X99652115Y-69016643D01*
X99644232Y-68941635D01*
X99644232Y-68941633D01*
X99643542Y-68935072D01*
X99584527Y-68753444D01*
X99535962Y-68669327D01*
X99519225Y-68600336D01*
X99529976Y-68555080D01*
X99531224Y-68552276D01*
X99534527Y-68546556D01*
X99544488Y-68515901D01*
X99591502Y-68371206D01*
X99593542Y-68364928D01*
X99613504Y-68175000D01*
X99593542Y-67985072D01*
X99534527Y-67803444D01*
X99530348Y-67796206D01*
X99516881Y-67772880D01*
X99500000Y-67709880D01*
X99500000Y-65055851D01*
X111786719Y-65055851D01*
X111787613Y-65066495D01*
X111800730Y-65222703D01*
X111803268Y-65252934D01*
X111804967Y-65258858D01*
X111848322Y-65410054D01*
X111857783Y-65443050D01*
X111860602Y-65448535D01*
X111941810Y-65606547D01*
X111948187Y-65618956D01*
X112071035Y-65773953D01*
X112221650Y-65902136D01*
X112394294Y-65998624D01*
X112582392Y-66059740D01*
X112778777Y-66083158D01*
X112784912Y-66082686D01*
X112784914Y-66082686D01*
X112969830Y-66068457D01*
X112969834Y-66068456D01*
X112975972Y-66067984D01*
X113166463Y-66014798D01*
X113171967Y-66012018D01*
X113171969Y-66012017D01*
X113337495Y-65928404D01*
X113337497Y-65928403D01*
X113342996Y-65925625D01*
X113498847Y-65803861D01*
X113615451Y-65668774D01*
X113624049Y-65658813D01*
X113624050Y-65658811D01*
X113628078Y-65654145D01*
X113725769Y-65482179D01*
X113788197Y-65294513D01*
X113812985Y-65098295D01*
X113813380Y-65070000D01*
X113794080Y-64873167D01*
X113775838Y-64812745D01*
X113767983Y-64786731D01*
X113736916Y-64683831D01*
X113644066Y-64509204D01*
X113640167Y-64504424D01*
X113639715Y-64503743D01*
X113618676Y-64435935D01*
X113635105Y-64371775D01*
X113722723Y-64217542D01*
X113722725Y-64217537D01*
X113725769Y-64212179D01*
X113788197Y-64024513D01*
X113812985Y-63828295D01*
X113813380Y-63800000D01*
X113794080Y-63603167D01*
X113783235Y-63567245D01*
X113754979Y-63473658D01*
X113736916Y-63413831D01*
X113644066Y-63239204D01*
X113640167Y-63234424D01*
X113639715Y-63233743D01*
X113618676Y-63165935D01*
X113635105Y-63101775D01*
X113722723Y-62947542D01*
X113722725Y-62947537D01*
X113725769Y-62942179D01*
X113788197Y-62754513D01*
X113812985Y-62558295D01*
X113813380Y-62530000D01*
X113794080Y-62333167D01*
X113736916Y-62143831D01*
X113644066Y-61969204D01*
X113640167Y-61964424D01*
X113639715Y-61963743D01*
X113618676Y-61895935D01*
X113635105Y-61831775D01*
X113722723Y-61677542D01*
X113722725Y-61677537D01*
X113725769Y-61672179D01*
X113788197Y-61484513D01*
X113812985Y-61288295D01*
X113813380Y-61260000D01*
X113794080Y-61063167D01*
X113736916Y-60873831D01*
X113644066Y-60699204D01*
X113640167Y-60694424D01*
X113639715Y-60693743D01*
X113618676Y-60625935D01*
X113635105Y-60561775D01*
X113722723Y-60407542D01*
X113722725Y-60407537D01*
X113725769Y-60402179D01*
X113788197Y-60214513D01*
X113812985Y-60018295D01*
X113813380Y-59990000D01*
X113794080Y-59793167D01*
X113783614Y-59758500D01*
X113763969Y-59693435D01*
X113736916Y-59603831D01*
X113644066Y-59429204D01*
X113640167Y-59424424D01*
X113639715Y-59423743D01*
X113618676Y-59355935D01*
X113635105Y-59291775D01*
X113637850Y-59286944D01*
X113671744Y-59227279D01*
X113722723Y-59137542D01*
X113722725Y-59137537D01*
X113725769Y-59132179D01*
X113788197Y-58944513D01*
X113812985Y-58748295D01*
X113813380Y-58720000D01*
X113794080Y-58523167D01*
X113787086Y-58500000D01*
X113750385Y-58378444D01*
X113736916Y-58333831D01*
X113644066Y-58159204D01*
X113640167Y-58154424D01*
X113639715Y-58153743D01*
X113618676Y-58085935D01*
X113635105Y-58021775D01*
X113722723Y-57867542D01*
X113722725Y-57867537D01*
X113725769Y-57862179D01*
X113788197Y-57674513D01*
X113812985Y-57478295D01*
X113813380Y-57450000D01*
X113794080Y-57253167D01*
X113784117Y-57220166D01*
X113738697Y-57069731D01*
X113736916Y-57063831D01*
X113644066Y-56889204D01*
X113640167Y-56884424D01*
X113639715Y-56883743D01*
X113618676Y-56815935D01*
X113635105Y-56751775D01*
X113722723Y-56597542D01*
X113722725Y-56597537D01*
X113725769Y-56592179D01*
X113788197Y-56404513D01*
X113812985Y-56208295D01*
X113813380Y-56180000D01*
X113794080Y-55983167D01*
X113775332Y-55921069D01*
X113752729Y-55846206D01*
X113736916Y-55793831D01*
X113644066Y-55619204D01*
X113640167Y-55614424D01*
X113639715Y-55613743D01*
X113618676Y-55545935D01*
X113635105Y-55481775D01*
X113637458Y-55477634D01*
X113685353Y-55393324D01*
X113722723Y-55327542D01*
X113722725Y-55327537D01*
X113725769Y-55322179D01*
X113788197Y-55134513D01*
X113812985Y-54938295D01*
X113813380Y-54910000D01*
X113794080Y-54713167D01*
X113787791Y-54692335D01*
X113742135Y-54541118D01*
X113736916Y-54523831D01*
X113644066Y-54349204D01*
X113640167Y-54344424D01*
X113639715Y-54343743D01*
X113618676Y-54275935D01*
X113635105Y-54211775D01*
X113722723Y-54057542D01*
X113722725Y-54057537D01*
X113725769Y-54052179D01*
X113788197Y-53864513D01*
X113812985Y-53668295D01*
X113813380Y-53640000D01*
X113794080Y-53443167D01*
X113783431Y-53407894D01*
X113754473Y-53311984D01*
X113736916Y-53253831D01*
X113644066Y-53079204D01*
X113640167Y-53074424D01*
X113639715Y-53073743D01*
X113618676Y-53005935D01*
X113635105Y-52941775D01*
X113722723Y-52787542D01*
X113722725Y-52787537D01*
X113725769Y-52782179D01*
X113788197Y-52594513D01*
X113812985Y-52398295D01*
X113813380Y-52370000D01*
X113794080Y-52173167D01*
X113736916Y-51983831D01*
X113734024Y-51978391D01*
X113732195Y-51973954D01*
X113724731Y-51903350D01*
X113742512Y-51862631D01*
X113740921Y-51861760D01*
X113745229Y-51853891D01*
X113750615Y-51846705D01*
X113801745Y-51710316D01*
X113808500Y-51648134D01*
X113808500Y-50551866D01*
X113801745Y-50489684D01*
X113750615Y-50353295D01*
X113663261Y-50236739D01*
X113546705Y-50149385D01*
X113410316Y-50098255D01*
X113348134Y-50091500D01*
X112251866Y-50091500D01*
X112189684Y-50098255D01*
X112053295Y-50149385D01*
X111936739Y-50236739D01*
X111849385Y-50353295D01*
X111798255Y-50489684D01*
X111791500Y-50551866D01*
X111791500Y-51648134D01*
X111798255Y-51710316D01*
X111849385Y-51846705D01*
X111854771Y-51853892D01*
X111859079Y-51861760D01*
X111856858Y-51862976D01*
X111877013Y-51916910D01*
X111867993Y-51970605D01*
X111868567Y-51970787D01*
X111866706Y-51976654D01*
X111866705Y-51976656D01*
X111831720Y-52086944D01*
X111808765Y-52159306D01*
X111786719Y-52355851D01*
X111787235Y-52361995D01*
X111792120Y-52420166D01*
X111803268Y-52552934D01*
X111815191Y-52594513D01*
X111855157Y-52733891D01*
X111857783Y-52743050D01*
X111871133Y-52769026D01*
X111926078Y-52875936D01*
X111948187Y-52918956D01*
X111952016Y-52923787D01*
X111953839Y-52926088D01*
X111954414Y-52927509D01*
X111955353Y-52928966D01*
X111955076Y-52929144D01*
X111980474Y-52991898D01*
X111967301Y-53061662D01*
X111963846Y-53067474D01*
X111868567Y-53240787D01*
X111866706Y-53246654D01*
X111866705Y-53246656D01*
X111812785Y-53416633D01*
X111808765Y-53429306D01*
X111786719Y-53625851D01*
X111787613Y-53636495D01*
X111801024Y-53796206D01*
X111803268Y-53822934D01*
X111804967Y-53828858D01*
X111847526Y-53977279D01*
X111857783Y-54013050D01*
X111948187Y-54188956D01*
X111952016Y-54193787D01*
X111953839Y-54196088D01*
X111954414Y-54197509D01*
X111955353Y-54198966D01*
X111955076Y-54199144D01*
X111980474Y-54261898D01*
X111967301Y-54331662D01*
X111963846Y-54337474D01*
X111868567Y-54510787D01*
X111866706Y-54516654D01*
X111866705Y-54516656D01*
X111812113Y-54688752D01*
X111808765Y-54699306D01*
X111786719Y-54895851D01*
X111803268Y-55092934D01*
X111815012Y-55133891D01*
X111836516Y-55208882D01*
X111857783Y-55283050D01*
X111860602Y-55288535D01*
X111914457Y-55393324D01*
X111948187Y-55458956D01*
X111952016Y-55463787D01*
X111953839Y-55466088D01*
X111954414Y-55467509D01*
X111955353Y-55468966D01*
X111955076Y-55469144D01*
X111980474Y-55531898D01*
X111967301Y-55601662D01*
X111963846Y-55607474D01*
X111868567Y-55780787D01*
X111866706Y-55786654D01*
X111866705Y-55786656D01*
X111824067Y-55921069D01*
X111808765Y-55969306D01*
X111786719Y-56165851D01*
X111789139Y-56194667D01*
X111801631Y-56343435D01*
X111803268Y-56362934D01*
X111813436Y-56398393D01*
X111855821Y-56546206D01*
X111857783Y-56553050D01*
X111860602Y-56558535D01*
X111936680Y-56706565D01*
X111948187Y-56728956D01*
X111952016Y-56733787D01*
X111953839Y-56736088D01*
X111954414Y-56737509D01*
X111955353Y-56738966D01*
X111955076Y-56739144D01*
X111980474Y-56801898D01*
X111967301Y-56871662D01*
X111963846Y-56877474D01*
X111868567Y-57050787D01*
X111866706Y-57056654D01*
X111866705Y-57056656D01*
X111811328Y-57231226D01*
X111808765Y-57239306D01*
X111786719Y-57435851D01*
X111803268Y-57632934D01*
X111804967Y-57638858D01*
X111846742Y-57784544D01*
X111857783Y-57823050D01*
X111860602Y-57828535D01*
X111940445Y-57983891D01*
X111948187Y-57998956D01*
X111952016Y-58003787D01*
X111953839Y-58006088D01*
X111954414Y-58007509D01*
X111955353Y-58008966D01*
X111955076Y-58009144D01*
X111980474Y-58071898D01*
X111967301Y-58141662D01*
X111963846Y-58147474D01*
X111868567Y-58320787D01*
X111866706Y-58326654D01*
X111866705Y-58326656D01*
X111824383Y-58460072D01*
X111808765Y-58509306D01*
X111786719Y-58705851D01*
X111787235Y-58711995D01*
X111798505Y-58846206D01*
X111803268Y-58902934D01*
X111811994Y-58933365D01*
X111844351Y-59046206D01*
X111857783Y-59093050D01*
X111860602Y-59098535D01*
X111923827Y-59221556D01*
X111948187Y-59268956D01*
X111952016Y-59273787D01*
X111953839Y-59276088D01*
X111954414Y-59277509D01*
X111955353Y-59278966D01*
X111955076Y-59279144D01*
X111980474Y-59341898D01*
X111967301Y-59411662D01*
X111963846Y-59417474D01*
X111868567Y-59590787D01*
X111866706Y-59596654D01*
X111866705Y-59596656D01*
X111827525Y-59720166D01*
X111808765Y-59779306D01*
X111786719Y-59975851D01*
X111787235Y-59981995D01*
X111802439Y-60163056D01*
X111803268Y-60172934D01*
X111857783Y-60363050D01*
X111865911Y-60378866D01*
X111933343Y-60510072D01*
X111948187Y-60538956D01*
X111952016Y-60543787D01*
X111953839Y-60546088D01*
X111954414Y-60547509D01*
X111955353Y-60548966D01*
X111955076Y-60549144D01*
X111980474Y-60611898D01*
X111967301Y-60681662D01*
X111963846Y-60687474D01*
X111868567Y-60860787D01*
X111866706Y-60866654D01*
X111866705Y-60866656D01*
X111861405Y-60883365D01*
X111808765Y-61049306D01*
X111786719Y-61245851D01*
X111803268Y-61442934D01*
X111857783Y-61633050D01*
X111948187Y-61808956D01*
X111952016Y-61813787D01*
X111953839Y-61816088D01*
X111954414Y-61817509D01*
X111955353Y-61818966D01*
X111955076Y-61819144D01*
X111980474Y-61881898D01*
X111967301Y-61951662D01*
X111963846Y-61957474D01*
X111868567Y-62130787D01*
X111866706Y-62136654D01*
X111866705Y-62136656D01*
X111852043Y-62182876D01*
X111808765Y-62319306D01*
X111786719Y-62515851D01*
X111787235Y-62521995D01*
X111800180Y-62676155D01*
X111803268Y-62712934D01*
X111813436Y-62748393D01*
X111850701Y-62878351D01*
X111857783Y-62903050D01*
X111948187Y-63078956D01*
X111952016Y-63083787D01*
X111953839Y-63086088D01*
X111954414Y-63087509D01*
X111955353Y-63088966D01*
X111955076Y-63089144D01*
X111980474Y-63151898D01*
X111967301Y-63221662D01*
X111963846Y-63227474D01*
X111868567Y-63400787D01*
X111866706Y-63406654D01*
X111866705Y-63406656D01*
X111810627Y-63583436D01*
X111808765Y-63589306D01*
X111786719Y-63785851D01*
X111787235Y-63791995D01*
X111794494Y-63878438D01*
X111803268Y-63982934D01*
X111857783Y-64173050D01*
X111860602Y-64178535D01*
X111903023Y-64261076D01*
X111948187Y-64348956D01*
X111952016Y-64353787D01*
X111953839Y-64356088D01*
X111954414Y-64357509D01*
X111955353Y-64358966D01*
X111955076Y-64359144D01*
X111980474Y-64421898D01*
X111967301Y-64491662D01*
X111963846Y-64497474D01*
X111868567Y-64670787D01*
X111866706Y-64676654D01*
X111866705Y-64676656D01*
X111830274Y-64791500D01*
X111808765Y-64859306D01*
X111786719Y-65055851D01*
X99500000Y-65055851D01*
X99500000Y-65000000D01*
X99492206Y-65000000D01*
X99489692Y-64997821D01*
X99436157Y-64968589D01*
X99402132Y-64906277D01*
X99407196Y-64835461D01*
X99431615Y-64795184D01*
X99439040Y-64786938D01*
X99501709Y-64678392D01*
X99531223Y-64627273D01*
X99531224Y-64627272D01*
X99534527Y-64621550D01*
X99593542Y-64439922D01*
X99594525Y-64430575D01*
X99612814Y-64256559D01*
X99613504Y-64249994D01*
X99608914Y-64206326D01*
X99594232Y-64066629D01*
X99594232Y-64066627D01*
X99593542Y-64060066D01*
X99534527Y-63878438D01*
X99439040Y-63713050D01*
X99311253Y-63571128D01*
X99156752Y-63458876D01*
X99150724Y-63456192D01*
X99150722Y-63456191D01*
X98982288Y-63381200D01*
X98983153Y-63379258D01*
X98932765Y-63344812D01*
X98907051Y-63291237D01*
X98906066Y-63286602D01*
X98905375Y-63280030D01*
X98846360Y-63098402D01*
X98839251Y-63086088D01*
X98806665Y-63029649D01*
X98750873Y-62933014D01*
X98724065Y-62903240D01*
X98627508Y-62796003D01*
X98627507Y-62796002D01*
X98623086Y-62791092D01*
X98468585Y-62678840D01*
X98462557Y-62676156D01*
X98462555Y-62676155D01*
X98300152Y-62603849D01*
X98300151Y-62603849D01*
X98294121Y-62601164D01*
X98200720Y-62581311D01*
X98113777Y-62562830D01*
X98113772Y-62562830D01*
X98107320Y-62561458D01*
X97916346Y-62561458D01*
X97909894Y-62562830D01*
X97909889Y-62562830D01*
X97822946Y-62581311D01*
X97729545Y-62601164D01*
X97723512Y-62603850D01*
X97723506Y-62603852D01*
X97677249Y-62624447D01*
X97606882Y-62633882D01*
X97542585Y-62603776D01*
X97504772Y-62543687D01*
X97500000Y-62509341D01*
X97500000Y-58750000D01*
X98086496Y-58750000D01*
X98087186Y-58756565D01*
X98096608Y-58846206D01*
X98106458Y-58939928D01*
X98165473Y-59121556D01*
X98168776Y-59127278D01*
X98168777Y-59127279D01*
X98186599Y-59158148D01*
X98260960Y-59286944D01*
X98265378Y-59291851D01*
X98265379Y-59291852D01*
X98384134Y-59423743D01*
X98388747Y-59428866D01*
X98409306Y-59443803D01*
X98526385Y-59528866D01*
X98543248Y-59541118D01*
X98549276Y-59543802D01*
X98549278Y-59543803D01*
X98667989Y-59596656D01*
X98717712Y-59618794D01*
X98804479Y-59637237D01*
X98898056Y-59657128D01*
X98898061Y-59657128D01*
X98904513Y-59658500D01*
X99095487Y-59658500D01*
X99101939Y-59657128D01*
X99101944Y-59657128D01*
X99195521Y-59637237D01*
X99282288Y-59618794D01*
X99332011Y-59596656D01*
X99450722Y-59543803D01*
X99450724Y-59543802D01*
X99456752Y-59541118D01*
X99473616Y-59528866D01*
X99590694Y-59443803D01*
X99611253Y-59428866D01*
X99615866Y-59423743D01*
X99734621Y-59291852D01*
X99734622Y-59291851D01*
X99739040Y-59286944D01*
X99813401Y-59158148D01*
X99831223Y-59127279D01*
X99831224Y-59127278D01*
X99834527Y-59121556D01*
X99893542Y-58939928D01*
X99903393Y-58846206D01*
X99912814Y-58756565D01*
X99913504Y-58750000D01*
X99903684Y-58656565D01*
X99902994Y-58650000D01*
X100186496Y-58650000D01*
X100206458Y-58839928D01*
X100265473Y-59021556D01*
X100360960Y-59186944D01*
X100365378Y-59191851D01*
X100365379Y-59191852D01*
X100442505Y-59277509D01*
X100488747Y-59328866D01*
X100587843Y-59400864D01*
X100626385Y-59428866D01*
X100643248Y-59441118D01*
X100649276Y-59443802D01*
X100649278Y-59443803D01*
X100784021Y-59503794D01*
X100817712Y-59518794D01*
X100883365Y-59532749D01*
X100998056Y-59557128D01*
X100998061Y-59557128D01*
X101004513Y-59558500D01*
X101195487Y-59558500D01*
X101201939Y-59557128D01*
X101201944Y-59557128D01*
X101316635Y-59532749D01*
X101382288Y-59518794D01*
X101415979Y-59503794D01*
X101550722Y-59443803D01*
X101550724Y-59443802D01*
X101556752Y-59441118D01*
X101573616Y-59428866D01*
X101612157Y-59400864D01*
X101711253Y-59328866D01*
X101757495Y-59277509D01*
X101834621Y-59191852D01*
X101834622Y-59191851D01*
X101839040Y-59186944D01*
X101934527Y-59021556D01*
X101990269Y-58850000D01*
X108286496Y-58850000D01*
X108287186Y-58856565D01*
X108305129Y-59027279D01*
X108306458Y-59039928D01*
X108365473Y-59221556D01*
X108368776Y-59227278D01*
X108368777Y-59227279D01*
X108399924Y-59281226D01*
X108460960Y-59386944D01*
X108465378Y-59391851D01*
X108465379Y-59391852D01*
X108577734Y-59516635D01*
X108588747Y-59528866D01*
X108743248Y-59641118D01*
X108749276Y-59643802D01*
X108749278Y-59643803D01*
X108890245Y-59706565D01*
X108917712Y-59718794D01*
X109011112Y-59738647D01*
X109098056Y-59757128D01*
X109098061Y-59757128D01*
X109104513Y-59758500D01*
X109295487Y-59758500D01*
X109301939Y-59757128D01*
X109301944Y-59757128D01*
X109388888Y-59738647D01*
X109482288Y-59718794D01*
X109509755Y-59706565D01*
X109650722Y-59643803D01*
X109650724Y-59643802D01*
X109656752Y-59641118D01*
X109811253Y-59528866D01*
X109822266Y-59516635D01*
X109934621Y-59391852D01*
X109934622Y-59391851D01*
X109939040Y-59386944D01*
X110000076Y-59281226D01*
X110031223Y-59227279D01*
X110031224Y-59227278D01*
X110034527Y-59221556D01*
X110093542Y-59039928D01*
X110094872Y-59027279D01*
X110112814Y-58856565D01*
X110113504Y-58850000D01*
X110111529Y-58831206D01*
X110094232Y-58666635D01*
X110094232Y-58666633D01*
X110093542Y-58660072D01*
X110034527Y-58478444D01*
X109939040Y-58313056D01*
X109915793Y-58287237D01*
X109815675Y-58176045D01*
X109815674Y-58176044D01*
X109811253Y-58171134D01*
X109693987Y-58085935D01*
X109662094Y-58062763D01*
X109662093Y-58062762D01*
X109656752Y-58058882D01*
X109650724Y-58056198D01*
X109650722Y-58056197D01*
X109488319Y-57983891D01*
X109488318Y-57983891D01*
X109482288Y-57981206D01*
X109388887Y-57961353D01*
X109301944Y-57942872D01*
X109301939Y-57942872D01*
X109295487Y-57941500D01*
X109104513Y-57941500D01*
X109098061Y-57942872D01*
X109098056Y-57942872D01*
X109011113Y-57961353D01*
X108917712Y-57981206D01*
X108911682Y-57983891D01*
X108911681Y-57983891D01*
X108749278Y-58056197D01*
X108749276Y-58056198D01*
X108743248Y-58058882D01*
X108737907Y-58062762D01*
X108737906Y-58062763D01*
X108706013Y-58085935D01*
X108588747Y-58171134D01*
X108584326Y-58176044D01*
X108584325Y-58176045D01*
X108484208Y-58287237D01*
X108460960Y-58313056D01*
X108365473Y-58478444D01*
X108306458Y-58660072D01*
X108305768Y-58666633D01*
X108305768Y-58666635D01*
X108288471Y-58831206D01*
X108286496Y-58850000D01*
X101990269Y-58850000D01*
X101993542Y-58839928D01*
X102013504Y-58650000D01*
X102004052Y-58560072D01*
X101994232Y-58466635D01*
X101994232Y-58466633D01*
X101993542Y-58460072D01*
X101934527Y-58278444D01*
X101839040Y-58113056D01*
X101813715Y-58084929D01*
X101715675Y-57976045D01*
X101715674Y-57976044D01*
X101711253Y-57971134D01*
X101607287Y-57895598D01*
X101562094Y-57862763D01*
X101562093Y-57862762D01*
X101556752Y-57858882D01*
X101550724Y-57856198D01*
X101550722Y-57856197D01*
X101388319Y-57783891D01*
X101388318Y-57783891D01*
X101382288Y-57781206D01*
X101288887Y-57761353D01*
X101201944Y-57742872D01*
X101201939Y-57742872D01*
X101195487Y-57741500D01*
X101004513Y-57741500D01*
X100998061Y-57742872D01*
X100998056Y-57742872D01*
X100911113Y-57761353D01*
X100817712Y-57781206D01*
X100811682Y-57783891D01*
X100811681Y-57783891D01*
X100649278Y-57856197D01*
X100649276Y-57856198D01*
X100643248Y-57858882D01*
X100637907Y-57862762D01*
X100637906Y-57862763D01*
X100592713Y-57895598D01*
X100488747Y-57971134D01*
X100484326Y-57976044D01*
X100484325Y-57976045D01*
X100386286Y-58084929D01*
X100360960Y-58113056D01*
X100265473Y-58278444D01*
X100206458Y-58460072D01*
X100205768Y-58466633D01*
X100205768Y-58466635D01*
X100195948Y-58560072D01*
X100186496Y-58650000D01*
X99902994Y-58650000D01*
X99894232Y-58566635D01*
X99894232Y-58566633D01*
X99893542Y-58560072D01*
X99834527Y-58378444D01*
X99827406Y-58366109D01*
X99796775Y-58313056D01*
X99739040Y-58213056D01*
X99711752Y-58182749D01*
X99615675Y-58076045D01*
X99615674Y-58076044D01*
X99611253Y-58071134D01*
X99474754Y-57971961D01*
X99462094Y-57962763D01*
X99462093Y-57962762D01*
X99456752Y-57958882D01*
X99450724Y-57956198D01*
X99450722Y-57956197D01*
X99288319Y-57883891D01*
X99288318Y-57883891D01*
X99282288Y-57881206D01*
X99188887Y-57861353D01*
X99101944Y-57842872D01*
X99101939Y-57842872D01*
X99095487Y-57841500D01*
X98904513Y-57841500D01*
X98898061Y-57842872D01*
X98898056Y-57842872D01*
X98811113Y-57861353D01*
X98717712Y-57881206D01*
X98711682Y-57883891D01*
X98711681Y-57883891D01*
X98549278Y-57956197D01*
X98549276Y-57956198D01*
X98543248Y-57958882D01*
X98537907Y-57962762D01*
X98537906Y-57962763D01*
X98525246Y-57971961D01*
X98388747Y-58071134D01*
X98384326Y-58076044D01*
X98384325Y-58076045D01*
X98288249Y-58182749D01*
X98260960Y-58213056D01*
X98203225Y-58313056D01*
X98172595Y-58366109D01*
X98165473Y-58378444D01*
X98106458Y-58560072D01*
X98105768Y-58566633D01*
X98105768Y-58566635D01*
X98096316Y-58656565D01*
X98086496Y-58750000D01*
X97500000Y-58750000D01*
X97500000Y-57500000D01*
X96500000Y-58500000D01*
X96500000Y-66000000D01*
X96752545Y-66000000D01*
X96820666Y-66020002D01*
X96865096Y-66071774D01*
X96865473Y-66071556D01*
X96868777Y-66077279D01*
X96868779Y-66077283D01*
X96872171Y-66083158D01*
X96960960Y-66236944D01*
X96965378Y-66241851D01*
X96965379Y-66241852D01*
X96998690Y-66278848D01*
X97088747Y-66378866D01*
X97243248Y-66491118D01*
X97249276Y-66493802D01*
X97249278Y-66493803D01*
X97282248Y-66508482D01*
X97417712Y-66568794D01*
X97511112Y-66588647D01*
X97598056Y-66607128D01*
X97598061Y-66607128D01*
X97604513Y-66608500D01*
X97795487Y-66608500D01*
X97801939Y-66607128D01*
X97801944Y-66607128D01*
X97888888Y-66588647D01*
X97982288Y-66568794D01*
X98117752Y-66508482D01*
X98150722Y-66493803D01*
X98150724Y-66493802D01*
X98156752Y-66491118D01*
X98299939Y-66387086D01*
X98366806Y-66363228D01*
X98435958Y-66379308D01*
X98485438Y-66430222D01*
X98500000Y-66489022D01*
X98500000Y-67188650D01*
X98479998Y-67256771D01*
X98426342Y-67303264D01*
X98420076Y-67305703D01*
X98417712Y-67306206D01*
X98411682Y-67308891D01*
X98411681Y-67308891D01*
X98249278Y-67381197D01*
X98249276Y-67381198D01*
X98243248Y-67383882D01*
X98237909Y-67387761D01*
X98237906Y-67387763D01*
X98187843Y-67424136D01*
X98088747Y-67496134D01*
X98084327Y-67501043D01*
X98084325Y-67501045D01*
X97989315Y-67606565D01*
X97960960Y-67638056D01*
X97865473Y-67803444D01*
X97806458Y-67985072D01*
X97786496Y-68175000D01*
X97806458Y-68364928D01*
X97865473Y-68546556D01*
X97868776Y-68552277D01*
X97868777Y-68552279D01*
X97914036Y-68630670D01*
X97930774Y-68699666D01*
X97920025Y-68744916D01*
X97918774Y-68747726D01*
X97915473Y-68753444D01*
X97913434Y-68759720D01*
X97913432Y-68759724D01*
X97873415Y-68882883D01*
X97856458Y-68935072D01*
X97855768Y-68941633D01*
X97855768Y-68941635D01*
X97847885Y-69016643D01*
X97836496Y-69125000D01*
X97837186Y-69131565D01*
X97846884Y-69223832D01*
X97856458Y-69314928D01*
X97915473Y-69496556D01*
X97918776Y-69502278D01*
X97918777Y-69502279D01*
X97919652Y-69503794D01*
X98010960Y-69661944D01*
X98015378Y-69666851D01*
X98015379Y-69666852D01*
X98082115Y-69740970D01*
X98138747Y-69803866D01*
X98144641Y-69808148D01*
X98283289Y-69908882D01*
X98293248Y-69916118D01*
X98299274Y-69918801D01*
X98299281Y-69918805D01*
X98425248Y-69974888D01*
X98479344Y-70020868D01*
X98500000Y-70089995D01*
X98500000Y-73471331D01*
X98479998Y-73539452D01*
X98467635Y-73555643D01*
X98460960Y-73563056D01*
X98457657Y-73568777D01*
X98419278Y-73635252D01*
X98365473Y-73728444D01*
X98306458Y-73910072D01*
X98305768Y-73916633D01*
X98305768Y-73916635D01*
X98301277Y-73959362D01*
X98286496Y-74100000D01*
X98287186Y-74106565D01*
X98305350Y-74279382D01*
X98306458Y-74289928D01*
X98365473Y-74471556D01*
X98368776Y-74477278D01*
X98368777Y-74477279D01*
X98420250Y-74566433D01*
X98460960Y-74636944D01*
X98465378Y-74641851D01*
X98465379Y-74641852D01*
X98467634Y-74644356D01*
X98468482Y-74646123D01*
X98469261Y-74647195D01*
X98469065Y-74647337D01*
X98498353Y-74708362D01*
X98500000Y-74728669D01*
X98500000Y-75000000D01*
X99051279Y-75000000D01*
X99077476Y-75002754D01*
X99098047Y-75007127D01*
X99098060Y-75007128D01*
X99104513Y-75008500D01*
X99295487Y-75008500D01*
X99301940Y-75007128D01*
X99301953Y-75007127D01*
X99322524Y-75002754D01*
X99348721Y-75000000D01*
X101374000Y-75000000D01*
X101442121Y-75020002D01*
X101488614Y-75073658D01*
X101500000Y-75126000D01*
X101500000Y-75844506D01*
X101479998Y-75912627D01*
X101426342Y-75959120D01*
X101356068Y-75969224D01*
X101291488Y-75939730D01*
X101280372Y-75927951D01*
X101280014Y-75928277D01*
X101133145Y-75766870D01*
X101129670Y-75763051D01*
X101125619Y-75759852D01*
X101125615Y-75759848D01*
X100958414Y-75627800D01*
X100958410Y-75627798D01*
X100954359Y-75624598D01*
X100758789Y-75516638D01*
X100753920Y-75514914D01*
X100753916Y-75514912D01*
X100553087Y-75443795D01*
X100553083Y-75443794D01*
X100548212Y-75442069D01*
X100543119Y-75441162D01*
X100543116Y-75441161D01*
X100333373Y-75403800D01*
X100333367Y-75403799D01*
X100328284Y-75402894D01*
X100254452Y-75401992D01*
X100110081Y-75400228D01*
X100110079Y-75400228D01*
X100104911Y-75400165D01*
X99884091Y-75433955D01*
X99671756Y-75503357D01*
X99641443Y-75519137D01*
X99550195Y-75566638D01*
X99473607Y-75606507D01*
X99469474Y-75609610D01*
X99469471Y-75609612D01*
X99299100Y-75737530D01*
X99294965Y-75740635D01*
X99140629Y-75902138D01*
X99137715Y-75906410D01*
X99137714Y-75906411D01*
X99085730Y-75982617D01*
X99014743Y-76086680D01*
X99012563Y-76091377D01*
X99007339Y-76102630D01*
X98960515Y-76155996D01*
X98892271Y-76175576D01*
X98832359Y-76159323D01*
X98831752Y-76158882D01*
X98825722Y-76156197D01*
X98663319Y-76083891D01*
X98663318Y-76083891D01*
X98657288Y-76081206D01*
X98563887Y-76061353D01*
X98476944Y-76042872D01*
X98476939Y-76042872D01*
X98470487Y-76041500D01*
X98279513Y-76041500D01*
X98273061Y-76042872D01*
X98273056Y-76042872D01*
X98186113Y-76061353D01*
X98092712Y-76081206D01*
X98086682Y-76083891D01*
X98086681Y-76083891D01*
X97924278Y-76156197D01*
X97924276Y-76156198D01*
X97918248Y-76158882D01*
X97763747Y-76271134D01*
X97759326Y-76276044D01*
X97759325Y-76276045D01*
X97702366Y-76339305D01*
X97635960Y-76413056D01*
X97540473Y-76578444D01*
X97481458Y-76760072D01*
X97480768Y-76766633D01*
X97480768Y-76766635D01*
X97467624Y-76891693D01*
X97461496Y-76950000D01*
X97481458Y-77139928D01*
X97540473Y-77321556D01*
X97635960Y-77486944D01*
X97640378Y-77491851D01*
X97640379Y-77491852D01*
X97759325Y-77623955D01*
X97763747Y-77628866D01*
X97820751Y-77670282D01*
X97908366Y-77733938D01*
X97918248Y-77741118D01*
X97924276Y-77743802D01*
X97924278Y-77743803D01*
X98050702Y-77800090D01*
X98092712Y-77818794D01*
X98178101Y-77836944D01*
X98273056Y-77857128D01*
X98273061Y-77857128D01*
X98279513Y-77858500D01*
X98470487Y-77858500D01*
X98476939Y-77857128D01*
X98476944Y-77857128D01*
X98571899Y-77836944D01*
X98657288Y-77818794D01*
X98699298Y-77800090D01*
X98825722Y-77743803D01*
X98825724Y-77743802D01*
X98831752Y-77741118D01*
X98841635Y-77733938D01*
X98971903Y-77639292D01*
X98986253Y-77628866D01*
X98987078Y-77627949D01*
X99049290Y-77598092D01*
X99119743Y-77606855D01*
X99164832Y-77639947D01*
X99242865Y-77730031D01*
X99242869Y-77730035D01*
X99246250Y-77733938D01*
X99250230Y-77737242D01*
X99254981Y-77741187D01*
X99294616Y-77800090D01*
X99296113Y-77871071D01*
X99258997Y-77931593D01*
X99218725Y-77956112D01*
X99171129Y-77973955D01*
X99103295Y-77999385D01*
X98986739Y-78086739D01*
X98899385Y-78203295D01*
X98848255Y-78339684D01*
X98841500Y-78401866D01*
X98841500Y-80198134D01*
X98848255Y-80260316D01*
X98899385Y-80396705D01*
X98986739Y-80513261D01*
X99103295Y-80600615D01*
X99239684Y-80651745D01*
X99301866Y-80658500D01*
X101098134Y-80658500D01*
X101160316Y-80651745D01*
X101296705Y-80600615D01*
X101303892Y-80595229D01*
X101311760Y-80590921D01*
X101313315Y-80593762D01*
X101364921Y-80574472D01*
X101434306Y-80589513D01*
X101484544Y-80639679D01*
X101500000Y-80700144D01*
X101500000Y-81366000D01*
X101479998Y-81434121D01*
X101426342Y-81480614D01*
X101374000Y-81492000D01*
X87768816Y-81492000D01*
X87700695Y-81471998D01*
X87654202Y-81418342D01*
X87644098Y-81348068D01*
X87648981Y-81327071D01*
X87693542Y-81189928D01*
X87705807Y-81073238D01*
X87712814Y-81006565D01*
X87713504Y-81000000D01*
X87707848Y-80946187D01*
X87694232Y-80816635D01*
X87694232Y-80816633D01*
X87693542Y-80810072D01*
X87634527Y-80628444D01*
X87539040Y-80463056D01*
X87522258Y-80444417D01*
X87415675Y-80326045D01*
X87415674Y-80326044D01*
X87411253Y-80321134D01*
X87256752Y-80208882D01*
X87250724Y-80206198D01*
X87250722Y-80206197D01*
X87088319Y-80133891D01*
X87088318Y-80133891D01*
X87082288Y-80131206D01*
X86988888Y-80111353D01*
X86901944Y-80092872D01*
X86901939Y-80092872D01*
X86895487Y-80091500D01*
X86704513Y-80091500D01*
X86698061Y-80092872D01*
X86698056Y-80092872D01*
X86611112Y-80111353D01*
X86517712Y-80131206D01*
X86511682Y-80133891D01*
X86511681Y-80133891D01*
X86349278Y-80206197D01*
X86349276Y-80206198D01*
X86343248Y-80208882D01*
X86188747Y-80321134D01*
X86184326Y-80326044D01*
X86184325Y-80326045D01*
X86077743Y-80444417D01*
X86060960Y-80463056D01*
X85965473Y-80628444D01*
X85906458Y-80810072D01*
X85905768Y-80816633D01*
X85905768Y-80816635D01*
X85892152Y-80946187D01*
X85886496Y-81000000D01*
X85887186Y-81006565D01*
X85894194Y-81073238D01*
X85906458Y-81189928D01*
X85951017Y-81327066D01*
X85953045Y-81398031D01*
X85916383Y-81458829D01*
X85852670Y-81490154D01*
X85831184Y-81492000D01*
X80049328Y-81492000D01*
X80029943Y-81490500D01*
X80015142Y-81488195D01*
X80015139Y-81488195D01*
X80006270Y-81486814D01*
X79985842Y-81489485D01*
X79964017Y-81490429D01*
X79613993Y-81475147D01*
X79603042Y-81474189D01*
X79225421Y-81424473D01*
X79214597Y-81422564D01*
X78842757Y-81340130D01*
X78832139Y-81337285D01*
X78468890Y-81222752D01*
X78458575Y-81218999D01*
X78106666Y-81073234D01*
X78096731Y-81068601D01*
X77758872Y-80892722D01*
X77749363Y-80887232D01*
X77739936Y-80881226D01*
X77508297Y-80733656D01*
X77428140Y-80682590D01*
X77419136Y-80676286D01*
X77206677Y-80513261D01*
X77116954Y-80444414D01*
X77108537Y-80437351D01*
X77052471Y-80385976D01*
X76827728Y-80180037D01*
X76819959Y-80172268D01*
X76814798Y-80166635D01*
X76562647Y-79891460D01*
X76555583Y-79883043D01*
X76495951Y-79805328D01*
X76356628Y-79623759D01*
X76323714Y-79580864D01*
X76317410Y-79571860D01*
X76180875Y-79357543D01*
X76112767Y-79250635D01*
X76107278Y-79241128D01*
X75931399Y-78903269D01*
X75926762Y-78893325D01*
X75920603Y-78878454D01*
X75781001Y-78541425D01*
X75777245Y-78531103D01*
X75767439Y-78500000D01*
X76886526Y-78500000D01*
X76906391Y-78752403D01*
X76965495Y-78998591D01*
X77062384Y-79232502D01*
X77194672Y-79448376D01*
X77359102Y-79640898D01*
X77551624Y-79805328D01*
X77767498Y-79937616D01*
X77772068Y-79939509D01*
X77772072Y-79939511D01*
X77954720Y-80015166D01*
X78001409Y-80034505D01*
X78086032Y-80054821D01*
X78242784Y-80092454D01*
X78242790Y-80092455D01*
X78247597Y-80093609D01*
X78347416Y-80101465D01*
X78434345Y-80108307D01*
X78434352Y-80108307D01*
X78436801Y-80108500D01*
X78563199Y-80108500D01*
X78565648Y-80108307D01*
X78565655Y-80108307D01*
X78652584Y-80101465D01*
X78752403Y-80093609D01*
X78757210Y-80092455D01*
X78757216Y-80092454D01*
X78913968Y-80054821D01*
X78998591Y-80034505D01*
X79045280Y-80015166D01*
X79227928Y-79939511D01*
X79227932Y-79939509D01*
X79232502Y-79937616D01*
X79448376Y-79805328D01*
X79640898Y-79640898D01*
X79805328Y-79448376D01*
X79926887Y-79250010D01*
X83448853Y-79250010D01*
X83468815Y-79439938D01*
X83527830Y-79621566D01*
X83531133Y-79627288D01*
X83531134Y-79627289D01*
X83565043Y-79686020D01*
X83623317Y-79786954D01*
X83751104Y-79928876D01*
X83763134Y-79937616D01*
X83869872Y-80015166D01*
X83905605Y-80041128D01*
X83911633Y-80043812D01*
X83911635Y-80043813D01*
X84074038Y-80116119D01*
X84080069Y-80118804D01*
X84173469Y-80138657D01*
X84260413Y-80157138D01*
X84260418Y-80157138D01*
X84266870Y-80158510D01*
X84457844Y-80158510D01*
X84464296Y-80157138D01*
X84464301Y-80157138D01*
X84551245Y-80138657D01*
X84644645Y-80118804D01*
X84650676Y-80116119D01*
X84813079Y-80043813D01*
X84813081Y-80043812D01*
X84819109Y-80041128D01*
X84854843Y-80015166D01*
X84961580Y-79937616D01*
X84973610Y-79928876D01*
X85101397Y-79786954D01*
X85159671Y-79686020D01*
X85193580Y-79627289D01*
X85193581Y-79627288D01*
X85196884Y-79621566D01*
X85255899Y-79439938D01*
X85275861Y-79250010D01*
X85255899Y-79060082D01*
X85196884Y-78878454D01*
X85101397Y-78713066D01*
X84973610Y-78571144D01*
X84819109Y-78458892D01*
X84813081Y-78456208D01*
X84813079Y-78456207D01*
X84650676Y-78383901D01*
X84650675Y-78383901D01*
X84644645Y-78381216D01*
X84551245Y-78361363D01*
X84464301Y-78342882D01*
X84464296Y-78342882D01*
X84457844Y-78341510D01*
X84266870Y-78341510D01*
X84260418Y-78342882D01*
X84260413Y-78342882D01*
X84173469Y-78361363D01*
X84080069Y-78381216D01*
X84074039Y-78383901D01*
X84074038Y-78383901D01*
X83911635Y-78456207D01*
X83911633Y-78456208D01*
X83905605Y-78458892D01*
X83751104Y-78571144D01*
X83623317Y-78713066D01*
X83527830Y-78878454D01*
X83468815Y-79060082D01*
X83448853Y-79250010D01*
X79926887Y-79250010D01*
X79937616Y-79232502D01*
X80034505Y-78998591D01*
X80093609Y-78752403D01*
X80113474Y-78500000D01*
X80093609Y-78247597D01*
X80083894Y-78207128D01*
X80040066Y-78024574D01*
X80034505Y-78001409D01*
X80026008Y-77980896D01*
X79939511Y-77772072D01*
X79939509Y-77772068D01*
X79937616Y-77767498D01*
X79805328Y-77551624D01*
X79640898Y-77359102D01*
X79448376Y-77194672D01*
X79232502Y-77062384D01*
X79227932Y-77060491D01*
X79227928Y-77060489D01*
X79003164Y-76967389D01*
X79003162Y-76967388D01*
X78998591Y-76965495D01*
X78906704Y-76943435D01*
X78757216Y-76907546D01*
X78757210Y-76907545D01*
X78752403Y-76906391D01*
X78652584Y-76898535D01*
X78565655Y-76891693D01*
X78565648Y-76891693D01*
X78563199Y-76891500D01*
X78436801Y-76891500D01*
X78434352Y-76891693D01*
X78434345Y-76891693D01*
X78347416Y-76898535D01*
X78247597Y-76906391D01*
X78242790Y-76907545D01*
X78242784Y-76907546D01*
X78093296Y-76943435D01*
X78001409Y-76965495D01*
X77996838Y-76967388D01*
X77996836Y-76967389D01*
X77772072Y-77060489D01*
X77772068Y-77060491D01*
X77767498Y-77062384D01*
X77551624Y-77194672D01*
X77359102Y-77359102D01*
X77194672Y-77551624D01*
X77062384Y-77767498D01*
X77060491Y-77772068D01*
X77060489Y-77772072D01*
X76973992Y-77980896D01*
X76965495Y-78001409D01*
X76959934Y-78024574D01*
X76916107Y-78207128D01*
X76906391Y-78247597D01*
X76886526Y-78500000D01*
X75767439Y-78500000D01*
X75662715Y-78167860D01*
X75659870Y-78157243D01*
X75654132Y-78131358D01*
X75626503Y-78006734D01*
X75577436Y-77785403D01*
X75575527Y-77774579D01*
X75525811Y-77396957D01*
X75524853Y-77386006D01*
X75510059Y-77047173D01*
X75511686Y-77020769D01*
X75512263Y-77017342D01*
X75512263Y-77017340D01*
X75513071Y-77012539D01*
X75513224Y-77000000D01*
X75509273Y-76972412D01*
X75508000Y-76954549D01*
X75508000Y-76776695D01*
X89387251Y-76776695D01*
X89387548Y-76781848D01*
X89387548Y-76781851D01*
X89397506Y-76954549D01*
X89400110Y-76999715D01*
X89401247Y-77004761D01*
X89401248Y-77004767D01*
X89414816Y-77064970D01*
X89449222Y-77217639D01*
X89482665Y-77300000D01*
X89525799Y-77406226D01*
X89533266Y-77424616D01*
X89649987Y-77615088D01*
X89796250Y-77783938D01*
X89800230Y-77787242D01*
X89804981Y-77791187D01*
X89844616Y-77850090D01*
X89846113Y-77921071D01*
X89808997Y-77981593D01*
X89768725Y-78006112D01*
X89719478Y-78024574D01*
X89653295Y-78049385D01*
X89536739Y-78136739D01*
X89449385Y-78253295D01*
X89398255Y-78389684D01*
X89391500Y-78451866D01*
X89391500Y-80248134D01*
X89398255Y-80310316D01*
X89449385Y-80446705D01*
X89536739Y-80563261D01*
X89653295Y-80650615D01*
X89789684Y-80701745D01*
X89851866Y-80708500D01*
X91648134Y-80708500D01*
X91710316Y-80701745D01*
X91846705Y-80650615D01*
X91963261Y-80563261D01*
X92050615Y-80446705D01*
X92101745Y-80310316D01*
X92108500Y-80248134D01*
X92108500Y-78451866D01*
X92101745Y-78389684D01*
X92050615Y-78253295D01*
X91963261Y-78136739D01*
X91846705Y-78049385D01*
X91834132Y-78044672D01*
X91728203Y-78004960D01*
X91671439Y-77962318D01*
X91646739Y-77895756D01*
X91661947Y-77826408D01*
X91683493Y-77797727D01*
X91784435Y-77697137D01*
X91788096Y-77693489D01*
X91886052Y-77557168D01*
X91942046Y-77513521D01*
X92012749Y-77507075D01*
X92075713Y-77539877D01*
X92082009Y-77546383D01*
X92083344Y-77547865D01*
X92088747Y-77553866D01*
X92104193Y-77565088D01*
X92191900Y-77628811D01*
X92243248Y-77666118D01*
X92249276Y-77668802D01*
X92249278Y-77668803D01*
X92402996Y-77737242D01*
X92417712Y-77743794D01*
X92509377Y-77763278D01*
X92598056Y-77782128D01*
X92598061Y-77782128D01*
X92604513Y-77783500D01*
X92795487Y-77783500D01*
X92801939Y-77782128D01*
X92801944Y-77782128D01*
X92890623Y-77763278D01*
X92982288Y-77743794D01*
X92997004Y-77737242D01*
X93150722Y-77668803D01*
X93150724Y-77668802D01*
X93156752Y-77666118D01*
X93311253Y-77553866D01*
X93439040Y-77411944D01*
X93534527Y-77246556D01*
X93593542Y-77064928D01*
X93598544Y-77017342D01*
X93612814Y-76881565D01*
X93613504Y-76875000D01*
X93593542Y-76685072D01*
X93534527Y-76503444D01*
X93439040Y-76338056D01*
X93423415Y-76320702D01*
X93315675Y-76201045D01*
X93315674Y-76201044D01*
X93311253Y-76196134D01*
X93156752Y-76083882D01*
X93150724Y-76081198D01*
X93150722Y-76081197D01*
X92988319Y-76008891D01*
X92988318Y-76008891D01*
X92982288Y-76006206D01*
X92888887Y-75986353D01*
X92801944Y-75967872D01*
X92801939Y-75967872D01*
X92795487Y-75966500D01*
X92604513Y-75966500D01*
X92598061Y-75967872D01*
X92598056Y-75967872D01*
X92511113Y-75986353D01*
X92417712Y-76006206D01*
X92411682Y-76008891D01*
X92411681Y-76008891D01*
X92249278Y-76081197D01*
X92249276Y-76081198D01*
X92243248Y-76083882D01*
X92237907Y-76087762D01*
X92237906Y-76087763D01*
X92116222Y-76176172D01*
X92049354Y-76200030D01*
X91980203Y-76183950D01*
X91936369Y-76142676D01*
X91832822Y-75982617D01*
X91832820Y-75982614D01*
X91830014Y-75978277D01*
X91679670Y-75813051D01*
X91675619Y-75809852D01*
X91675615Y-75809848D01*
X91508414Y-75677800D01*
X91508410Y-75677798D01*
X91504359Y-75674598D01*
X91496331Y-75670166D01*
X91409260Y-75622101D01*
X91308789Y-75566638D01*
X91303920Y-75564914D01*
X91303916Y-75564912D01*
X91103087Y-75493795D01*
X91103083Y-75493794D01*
X91098212Y-75492069D01*
X91093119Y-75491162D01*
X91093116Y-75491161D01*
X90883373Y-75453800D01*
X90883367Y-75453799D01*
X90878284Y-75452894D01*
X90804452Y-75451992D01*
X90660081Y-75450228D01*
X90660079Y-75450228D01*
X90654911Y-75450165D01*
X90434091Y-75483955D01*
X90221756Y-75553357D01*
X90191443Y-75569137D01*
X90078753Y-75627800D01*
X90023607Y-75656507D01*
X90019474Y-75659610D01*
X90019471Y-75659612D01*
X89906580Y-75744373D01*
X89844965Y-75790635D01*
X89690629Y-75952138D01*
X89564743Y-76136680D01*
X89470688Y-76339305D01*
X89410989Y-76554570D01*
X89387251Y-76776695D01*
X75508000Y-76776695D01*
X75508000Y-75026000D01*
X75528002Y-74957879D01*
X75581658Y-74911386D01*
X75634000Y-74900000D01*
X85600000Y-74900000D01*
X85600000Y-74800000D01*
X88136496Y-74800000D01*
X88137186Y-74806565D01*
X88155613Y-74981885D01*
X88156458Y-74989928D01*
X88215473Y-75171556D01*
X88310960Y-75336944D01*
X88315378Y-75341851D01*
X88315379Y-75341852D01*
X88415305Y-75452831D01*
X88438747Y-75478866D01*
X88593248Y-75591118D01*
X88599276Y-75593802D01*
X88599278Y-75593803D01*
X88761681Y-75666109D01*
X88767712Y-75668794D01*
X88853101Y-75686944D01*
X88948056Y-75707128D01*
X88948061Y-75707128D01*
X88954513Y-75708500D01*
X89145487Y-75708500D01*
X89151939Y-75707128D01*
X89151944Y-75707128D01*
X89246899Y-75686944D01*
X89332288Y-75668794D01*
X89338319Y-75666109D01*
X89500722Y-75593803D01*
X89500724Y-75593802D01*
X89506752Y-75591118D01*
X89661253Y-75478866D01*
X89684695Y-75452831D01*
X89784621Y-75341852D01*
X89784622Y-75341851D01*
X89789040Y-75336944D01*
X89884527Y-75171556D01*
X89943542Y-74989928D01*
X89944388Y-74981885D01*
X89962814Y-74806565D01*
X89963504Y-74800000D01*
X89953873Y-74708362D01*
X89944232Y-74616635D01*
X89944232Y-74616633D01*
X89943542Y-74610072D01*
X89884527Y-74428444D01*
X89866203Y-74396705D01*
X89825904Y-74326907D01*
X89789040Y-74263056D01*
X89779500Y-74252460D01*
X89665675Y-74126045D01*
X89665674Y-74126044D01*
X89661253Y-74121134D01*
X89506752Y-74008882D01*
X89500724Y-74006198D01*
X89500722Y-74006197D01*
X89338319Y-73933891D01*
X89338318Y-73933891D01*
X89332288Y-73931206D01*
X89232861Y-73910072D01*
X89151944Y-73892872D01*
X89151939Y-73892872D01*
X89145487Y-73891500D01*
X88954513Y-73891500D01*
X88948061Y-73892872D01*
X88948056Y-73892872D01*
X88867139Y-73910072D01*
X88767712Y-73931206D01*
X88761682Y-73933891D01*
X88761681Y-73933891D01*
X88599278Y-74006197D01*
X88599276Y-74006198D01*
X88593248Y-74008882D01*
X88438747Y-74121134D01*
X88434326Y-74126044D01*
X88434325Y-74126045D01*
X88320501Y-74252460D01*
X88310960Y-74263056D01*
X88274096Y-74326907D01*
X88233798Y-74396705D01*
X88215473Y-74428444D01*
X88156458Y-74610072D01*
X88155768Y-74616633D01*
X88155768Y-74616635D01*
X88146127Y-74708362D01*
X88136496Y-74800000D01*
X85600000Y-74800000D01*
X85600000Y-73434934D01*
X93674239Y-73434934D01*
X93677022Y-73438652D01*
X93808857Y-73487681D01*
X93822448Y-73491070D01*
X93977044Y-73511697D01*
X93991040Y-73511991D01*
X94146360Y-73497855D01*
X94160085Y-73495038D01*
X94308415Y-73446843D01*
X94317055Y-73442924D01*
X94324463Y-73434934D01*
X95174239Y-73434934D01*
X95177022Y-73438652D01*
X95308857Y-73487681D01*
X95322448Y-73491070D01*
X95477044Y-73511697D01*
X95491040Y-73511991D01*
X95646360Y-73497855D01*
X95660085Y-73495038D01*
X95808415Y-73446843D01*
X95817055Y-73442924D01*
X95824463Y-73434934D01*
X96674239Y-73434934D01*
X96677022Y-73438652D01*
X96808857Y-73487681D01*
X96822448Y-73491070D01*
X96977044Y-73511697D01*
X96991040Y-73511991D01*
X97146360Y-73497855D01*
X97160085Y-73495038D01*
X97308415Y-73446843D01*
X97317055Y-73442924D01*
X97325430Y-73433891D01*
X97321925Y-73425478D01*
X97012812Y-73116365D01*
X96998868Y-73108751D01*
X96997035Y-73108882D01*
X96990420Y-73113133D01*
X96680999Y-73422554D01*
X96674239Y-73434934D01*
X95824463Y-73434934D01*
X95825430Y-73433891D01*
X95821925Y-73425478D01*
X95512812Y-73116365D01*
X95498868Y-73108751D01*
X95497035Y-73108882D01*
X95490420Y-73113133D01*
X95180999Y-73422554D01*
X95174239Y-73434934D01*
X94324463Y-73434934D01*
X94325430Y-73433891D01*
X94321925Y-73425478D01*
X94012812Y-73116365D01*
X93998868Y-73108751D01*
X93997035Y-73108882D01*
X93990420Y-73113133D01*
X93680999Y-73422554D01*
X93674239Y-73434934D01*
X85600000Y-73434934D01*
X85600000Y-72746362D01*
X93237966Y-72746362D01*
X93253186Y-72901585D01*
X93256097Y-72915280D01*
X93305327Y-73063270D01*
X93307729Y-73068468D01*
X93315717Y-73075772D01*
X93324338Y-73072109D01*
X93633635Y-72762812D01*
X93640013Y-72751132D01*
X94358751Y-72751132D01*
X94358882Y-72752965D01*
X94363133Y-72759580D01*
X94672178Y-73068625D01*
X94686122Y-73076239D01*
X94695861Y-73075543D01*
X94739436Y-73059291D01*
X94808810Y-73074383D01*
X94810990Y-73075940D01*
X94814077Y-73076468D01*
X94824338Y-73072109D01*
X95133635Y-72762812D01*
X95140013Y-72751132D01*
X95858751Y-72751132D01*
X95858882Y-72752965D01*
X95863133Y-72759580D01*
X96172178Y-73068625D01*
X96186122Y-73076239D01*
X96195861Y-73075543D01*
X96239436Y-73059291D01*
X96308810Y-73074383D01*
X96310990Y-73075940D01*
X96314077Y-73076468D01*
X96324338Y-73072109D01*
X96633635Y-72762812D01*
X96640013Y-72751132D01*
X97358751Y-72751132D01*
X97358882Y-72752965D01*
X97363133Y-72759580D01*
X97672178Y-73068625D01*
X97684558Y-73075385D01*
X97688374Y-73072528D01*
X97736331Y-72946283D01*
X97739811Y-72932727D01*
X97761948Y-72775221D01*
X97762554Y-72767338D01*
X97762741Y-72753962D01*
X97762354Y-72746062D01*
X97744625Y-72588003D01*
X97741523Y-72574350D01*
X97690700Y-72428407D01*
X97685141Y-72423467D01*
X97676088Y-72427465D01*
X97366365Y-72737188D01*
X97358751Y-72751132D01*
X96640013Y-72751132D01*
X96641249Y-72748868D01*
X96641118Y-72747035D01*
X96636867Y-72740420D01*
X96327039Y-72430592D01*
X96313095Y-72422978D01*
X96302595Y-72423729D01*
X96260394Y-72439469D01*
X96191020Y-72424378D01*
X96189256Y-72423137D01*
X96186770Y-72422747D01*
X96176088Y-72427465D01*
X95866365Y-72737188D01*
X95858751Y-72751132D01*
X95140013Y-72751132D01*
X95141249Y-72748868D01*
X95141118Y-72747035D01*
X95136867Y-72740420D01*
X94827039Y-72430592D01*
X94813095Y-72422978D01*
X94802595Y-72423729D01*
X94760394Y-72439469D01*
X94691020Y-72424378D01*
X94689256Y-72423137D01*
X94686770Y-72422747D01*
X94676088Y-72427465D01*
X94366365Y-72737188D01*
X94358751Y-72751132D01*
X93640013Y-72751132D01*
X93641249Y-72748868D01*
X93641118Y-72747035D01*
X93636867Y-72740420D01*
X93327039Y-72430592D01*
X93314659Y-72423832D01*
X93311037Y-72426543D01*
X93261001Y-72564016D01*
X93257709Y-72577625D01*
X93238162Y-72732356D01*
X93237966Y-72746362D01*
X85600000Y-72746362D01*
X85600000Y-72063666D01*
X93673152Y-72063666D01*
X93677684Y-72074131D01*
X93987188Y-72383635D01*
X94001132Y-72391249D01*
X94002965Y-72391118D01*
X94009580Y-72386867D01*
X94319847Y-72076600D01*
X94326909Y-72063666D01*
X95173152Y-72063666D01*
X95177684Y-72074131D01*
X95487188Y-72383635D01*
X95501132Y-72391249D01*
X95502965Y-72391118D01*
X95509580Y-72386867D01*
X95819847Y-72076600D01*
X95826909Y-72063666D01*
X96673152Y-72063666D01*
X96677684Y-72074131D01*
X96987188Y-72383635D01*
X97001132Y-72391249D01*
X97002965Y-72391118D01*
X97009580Y-72386867D01*
X97319847Y-72076600D01*
X97327461Y-72062656D01*
X97326795Y-72053333D01*
X97310263Y-72009008D01*
X97325355Y-71939634D01*
X97325394Y-71939580D01*
X97326115Y-71935535D01*
X97321925Y-71925478D01*
X97012812Y-71616365D01*
X96998868Y-71608751D01*
X96997035Y-71608882D01*
X96990420Y-71613133D01*
X96680999Y-71922554D01*
X96673385Y-71936498D01*
X96674107Y-71946603D01*
X96690113Y-71989518D01*
X96675021Y-72058892D01*
X96673608Y-72060885D01*
X96673152Y-72063666D01*
X95826909Y-72063666D01*
X95827461Y-72062656D01*
X95826795Y-72053333D01*
X95810263Y-72009008D01*
X95825355Y-71939634D01*
X95825394Y-71939580D01*
X95826115Y-71935535D01*
X95821925Y-71925478D01*
X95512812Y-71616365D01*
X95498868Y-71608751D01*
X95497035Y-71608882D01*
X95490420Y-71613133D01*
X95180999Y-71922554D01*
X95173385Y-71936498D01*
X95174107Y-71946603D01*
X95190113Y-71989518D01*
X95175021Y-72058892D01*
X95173608Y-72060885D01*
X95173152Y-72063666D01*
X94326909Y-72063666D01*
X94327461Y-72062656D01*
X94326795Y-72053333D01*
X94310263Y-72009008D01*
X94325355Y-71939634D01*
X94325394Y-71939580D01*
X94326115Y-71935535D01*
X94321925Y-71925478D01*
X94012812Y-71616365D01*
X93998868Y-71608751D01*
X93997035Y-71608882D01*
X93990420Y-71613133D01*
X93680999Y-71922554D01*
X93673385Y-71936498D01*
X93674107Y-71946603D01*
X93690113Y-71989518D01*
X93675021Y-72058892D01*
X93673608Y-72060885D01*
X93673152Y-72063666D01*
X85600000Y-72063666D01*
X85600000Y-71246362D01*
X93237966Y-71246362D01*
X93253186Y-71401585D01*
X93256097Y-71415280D01*
X93305327Y-71563270D01*
X93307729Y-71568468D01*
X93315717Y-71575772D01*
X93324338Y-71572109D01*
X93633635Y-71262812D01*
X93640013Y-71251132D01*
X94358751Y-71251132D01*
X94358882Y-71252965D01*
X94363133Y-71259580D01*
X94672178Y-71568625D01*
X94686122Y-71576239D01*
X94695861Y-71575543D01*
X94739436Y-71559291D01*
X94808810Y-71574383D01*
X94810990Y-71575940D01*
X94814077Y-71576468D01*
X94824338Y-71572109D01*
X95133635Y-71262812D01*
X95140013Y-71251132D01*
X95858751Y-71251132D01*
X95858882Y-71252965D01*
X95863133Y-71259580D01*
X96172178Y-71568625D01*
X96186122Y-71576239D01*
X96195861Y-71575543D01*
X96239436Y-71559291D01*
X96308810Y-71574383D01*
X96310990Y-71575940D01*
X96314077Y-71576468D01*
X96324338Y-71572109D01*
X96633635Y-71262812D01*
X96640013Y-71251132D01*
X97358751Y-71251132D01*
X97358882Y-71252965D01*
X97363133Y-71259580D01*
X97672178Y-71568625D01*
X97684558Y-71575385D01*
X97688374Y-71572528D01*
X97736331Y-71446283D01*
X97739811Y-71432727D01*
X97761948Y-71275221D01*
X97762554Y-71267338D01*
X97762741Y-71253962D01*
X97762354Y-71246062D01*
X97744625Y-71088003D01*
X97741523Y-71074350D01*
X97690700Y-70928407D01*
X97685141Y-70923467D01*
X97676088Y-70927465D01*
X97366365Y-71237188D01*
X97358751Y-71251132D01*
X96640013Y-71251132D01*
X96641249Y-71248868D01*
X96641118Y-71247035D01*
X96636867Y-71240420D01*
X96327039Y-70930592D01*
X96313095Y-70922978D01*
X96302595Y-70923729D01*
X96260394Y-70939469D01*
X96191020Y-70924378D01*
X96189256Y-70923137D01*
X96186770Y-70922747D01*
X96176088Y-70927465D01*
X95866365Y-71237188D01*
X95858751Y-71251132D01*
X95140013Y-71251132D01*
X95141249Y-71248868D01*
X95141118Y-71247035D01*
X95136867Y-71240420D01*
X94827039Y-70930592D01*
X94813095Y-70922978D01*
X94802595Y-70923729D01*
X94760394Y-70939469D01*
X94691020Y-70924378D01*
X94689256Y-70923137D01*
X94686770Y-70922747D01*
X94676088Y-70927465D01*
X94366365Y-71237188D01*
X94358751Y-71251132D01*
X93640013Y-71251132D01*
X93641249Y-71248868D01*
X93641118Y-71247035D01*
X93636867Y-71240420D01*
X93327039Y-70930592D01*
X93314659Y-70923832D01*
X93311037Y-70926543D01*
X93261001Y-71064016D01*
X93257709Y-71077625D01*
X93238162Y-71232356D01*
X93237966Y-71246362D01*
X85600000Y-71246362D01*
X85600000Y-70800000D01*
X82726000Y-70800000D01*
X82657879Y-70779998D01*
X82611386Y-70726342D01*
X82600000Y-70674000D01*
X82600000Y-69800000D01*
X81025303Y-69800000D01*
X80957182Y-69779998D01*
X80910689Y-69726342D01*
X80906859Y-69700000D01*
X91086496Y-69700000D01*
X91087186Y-69706565D01*
X91098980Y-69818774D01*
X91106458Y-69889928D01*
X91165473Y-70071556D01*
X91260960Y-70236944D01*
X91265378Y-70241851D01*
X91265379Y-70241852D01*
X91384325Y-70373955D01*
X91388747Y-70378866D01*
X91543248Y-70491118D01*
X91549276Y-70493802D01*
X91549278Y-70493803D01*
X91711681Y-70566109D01*
X91717712Y-70568794D01*
X91811112Y-70588647D01*
X91898056Y-70607128D01*
X91898061Y-70607128D01*
X91904513Y-70608500D01*
X92095487Y-70608500D01*
X92101939Y-70607128D01*
X92101944Y-70607128D01*
X92188888Y-70588647D01*
X92282288Y-70568794D01*
X92288319Y-70566109D01*
X92290132Y-70565302D01*
X93673860Y-70565302D01*
X93677684Y-70574131D01*
X93987188Y-70883635D01*
X94001132Y-70891249D01*
X94002965Y-70891118D01*
X94009580Y-70886867D01*
X94319847Y-70576600D01*
X94326016Y-70565302D01*
X95173860Y-70565302D01*
X95177684Y-70574131D01*
X95487188Y-70883635D01*
X95501132Y-70891249D01*
X95502965Y-70891118D01*
X95509580Y-70886867D01*
X95819847Y-70576600D01*
X95826016Y-70565302D01*
X96673860Y-70565302D01*
X96677684Y-70574131D01*
X96987188Y-70883635D01*
X97001132Y-70891249D01*
X97002965Y-70891118D01*
X97009580Y-70886867D01*
X97319847Y-70576600D01*
X97326607Y-70564220D01*
X97324022Y-70560766D01*
X97323722Y-70560606D01*
X97180820Y-70509720D01*
X97167195Y-70506524D01*
X97012318Y-70488057D01*
X96998321Y-70487959D01*
X96843207Y-70504262D01*
X96829533Y-70507268D01*
X96681884Y-70557532D01*
X96680113Y-70558366D01*
X96673860Y-70565302D01*
X95826016Y-70565302D01*
X95826607Y-70564220D01*
X95824022Y-70560766D01*
X95823722Y-70560606D01*
X95680820Y-70509720D01*
X95667195Y-70506524D01*
X95512318Y-70488057D01*
X95498321Y-70487959D01*
X95343207Y-70504262D01*
X95329533Y-70507268D01*
X95181884Y-70557532D01*
X95180113Y-70558366D01*
X95173860Y-70565302D01*
X94326016Y-70565302D01*
X94326607Y-70564220D01*
X94324022Y-70560766D01*
X94323722Y-70560606D01*
X94180820Y-70509720D01*
X94167195Y-70506524D01*
X94012318Y-70488057D01*
X93998321Y-70487959D01*
X93843207Y-70504262D01*
X93829533Y-70507268D01*
X93681884Y-70557532D01*
X93680113Y-70558366D01*
X93673860Y-70565302D01*
X92290132Y-70565302D01*
X92450722Y-70493803D01*
X92450724Y-70493802D01*
X92456752Y-70491118D01*
X92611253Y-70378866D01*
X92615675Y-70373955D01*
X92734621Y-70241852D01*
X92734622Y-70241851D01*
X92739040Y-70236944D01*
X92834527Y-70071556D01*
X92893542Y-69889928D01*
X92901021Y-69818774D01*
X92912814Y-69706565D01*
X92913504Y-69700000D01*
X92904763Y-69616833D01*
X92917535Y-69546995D01*
X92956012Y-69501727D01*
X93037018Y-69442872D01*
X93108451Y-69390973D01*
X93120470Y-69377625D01*
X93231819Y-69253959D01*
X93231820Y-69253958D01*
X93236238Y-69249051D01*
X93331725Y-69083663D01*
X93390740Y-68902035D01*
X93400170Y-68812319D01*
X93410012Y-68718672D01*
X93410702Y-68712107D01*
X93399659Y-68607039D01*
X93391430Y-68528742D01*
X93391430Y-68528740D01*
X93390740Y-68522179D01*
X93331725Y-68340551D01*
X93324977Y-68328862D01*
X93251057Y-68200831D01*
X93236238Y-68175163D01*
X93201826Y-68136944D01*
X93112873Y-68038152D01*
X93112872Y-68038151D01*
X93108451Y-68033241D01*
X92953950Y-67920989D01*
X92947922Y-67918305D01*
X92947920Y-67918304D01*
X92785517Y-67845998D01*
X92785516Y-67845998D01*
X92779486Y-67843313D01*
X92686085Y-67823460D01*
X92599142Y-67804979D01*
X92599137Y-67804979D01*
X92592685Y-67803607D01*
X92401711Y-67803607D01*
X92395259Y-67804979D01*
X92395254Y-67804979D01*
X92308311Y-67823460D01*
X92214910Y-67843313D01*
X92208880Y-67845998D01*
X92208879Y-67845998D01*
X92046476Y-67918304D01*
X92046474Y-67918305D01*
X92040446Y-67920989D01*
X91885945Y-68033241D01*
X91881524Y-68038151D01*
X91881523Y-68038152D01*
X91792571Y-68136944D01*
X91758158Y-68175163D01*
X91743339Y-68200831D01*
X91669420Y-68328862D01*
X91662671Y-68340551D01*
X91603656Y-68522179D01*
X91602966Y-68528740D01*
X91602966Y-68528742D01*
X91594737Y-68607039D01*
X91583694Y-68712107D01*
X91584384Y-68718672D01*
X91592435Y-68795274D01*
X91579663Y-68865112D01*
X91541186Y-68910380D01*
X91388747Y-69021134D01*
X91384326Y-69026044D01*
X91384325Y-69026045D01*
X91289315Y-69131565D01*
X91260960Y-69163056D01*
X91165473Y-69328444D01*
X91106458Y-69510072D01*
X91105768Y-69516633D01*
X91105768Y-69516635D01*
X91100920Y-69562763D01*
X91086496Y-69700000D01*
X80906859Y-69700000D01*
X80900529Y-69656463D01*
X80911948Y-69575219D01*
X80912554Y-69567338D01*
X80912741Y-69553962D01*
X80912354Y-69546062D01*
X80894625Y-69388003D01*
X80891523Y-69374350D01*
X80840700Y-69228407D01*
X80835141Y-69223467D01*
X80826090Y-69227464D01*
X80515873Y-69537682D01*
X80453560Y-69571707D01*
X80382745Y-69566643D01*
X80337682Y-69537682D01*
X80162319Y-69362319D01*
X80128293Y-69300007D01*
X80133358Y-69229192D01*
X80162318Y-69184129D01*
X80333636Y-69012810D01*
X80341249Y-68998868D01*
X80341118Y-68997035D01*
X80336867Y-68990420D01*
X80162812Y-68816365D01*
X80148868Y-68808751D01*
X80147035Y-68808882D01*
X80140423Y-68813131D01*
X79965873Y-68987682D01*
X79903561Y-69021707D01*
X79832745Y-69016643D01*
X79787682Y-68987682D01*
X79612319Y-68812319D01*
X79578293Y-68750007D01*
X79583358Y-68679192D01*
X79612318Y-68634129D01*
X79783636Y-68462810D01*
X79790013Y-68451132D01*
X80508751Y-68451132D01*
X80508882Y-68452965D01*
X80513133Y-68459580D01*
X80822178Y-68768625D01*
X80834558Y-68775385D01*
X80838374Y-68772528D01*
X80886331Y-68646283D01*
X80889811Y-68632727D01*
X80911948Y-68475221D01*
X80912554Y-68467338D01*
X80912741Y-68453962D01*
X80912354Y-68446062D01*
X80894625Y-68288003D01*
X80891523Y-68274350D01*
X80840700Y-68128407D01*
X80835141Y-68123467D01*
X80826088Y-68127465D01*
X80516365Y-68437188D01*
X80508751Y-68451132D01*
X79790013Y-68451132D01*
X79791249Y-68448868D01*
X79791118Y-68447035D01*
X79786867Y-68440420D01*
X79612812Y-68266365D01*
X79598868Y-68258751D01*
X79597035Y-68258882D01*
X79590423Y-68263131D01*
X79415873Y-68437682D01*
X79353561Y-68471707D01*
X79282745Y-68466643D01*
X79237682Y-68437682D01*
X79062319Y-68262319D01*
X79028293Y-68200007D01*
X79033358Y-68129192D01*
X79062319Y-68084129D01*
X79369848Y-67776600D01*
X79376017Y-67765302D01*
X79823860Y-67765302D01*
X79827684Y-67774131D01*
X80137188Y-68083635D01*
X80151132Y-68091249D01*
X80152965Y-68091118D01*
X80159580Y-68086867D01*
X80469847Y-67776600D01*
X80476607Y-67764220D01*
X80474022Y-67760766D01*
X80473722Y-67760606D01*
X80330820Y-67709720D01*
X80317195Y-67706524D01*
X80162318Y-67688057D01*
X80148321Y-67687959D01*
X79993207Y-67704262D01*
X79979533Y-67707268D01*
X79831884Y-67757532D01*
X79830113Y-67758366D01*
X79823860Y-67765302D01*
X79376017Y-67765302D01*
X79376607Y-67764221D01*
X79374020Y-67760765D01*
X79373726Y-67760607D01*
X79230820Y-67709720D01*
X79217195Y-67706524D01*
X79062318Y-67688057D01*
X79048321Y-67687959D01*
X78893207Y-67704262D01*
X78879529Y-67707269D01*
X78866607Y-67711668D01*
X78795675Y-67714687D01*
X78734370Y-67678878D01*
X78702158Y-67615610D01*
X78700000Y-67592391D01*
X78700000Y-67234500D01*
X78720002Y-67166379D01*
X78773658Y-67119886D01*
X78826000Y-67108500D01*
X78895487Y-67108500D01*
X78901939Y-67107128D01*
X78901944Y-67107128D01*
X78988887Y-67088647D01*
X79082288Y-67068794D01*
X79095176Y-67063056D01*
X79250722Y-66993803D01*
X79250724Y-66993802D01*
X79256752Y-66991118D01*
X79289608Y-66967247D01*
X79358421Y-66917251D01*
X79411253Y-66878866D01*
X79475928Y-66807037D01*
X79534621Y-66741852D01*
X79534622Y-66741851D01*
X79539040Y-66736944D01*
X79613197Y-66608500D01*
X79631223Y-66577279D01*
X79631224Y-66577278D01*
X79634527Y-66571556D01*
X79693542Y-66389928D01*
X79713504Y-66200000D01*
X79700606Y-66077283D01*
X79694232Y-66016635D01*
X79694232Y-66016633D01*
X79693542Y-66010072D01*
X79634527Y-65828444D01*
X79622525Y-65807655D01*
X79542341Y-65668774D01*
X79539040Y-65663056D01*
X79526190Y-65648784D01*
X79482248Y-65599982D01*
X89936496Y-65599982D01*
X89956458Y-65789910D01*
X90015473Y-65971538D01*
X90018776Y-65977260D01*
X90018777Y-65977261D01*
X90032210Y-66000528D01*
X90110960Y-66136926D01*
X90115378Y-66141833D01*
X90115379Y-66141834D01*
X90205436Y-66241852D01*
X90238747Y-66278848D01*
X90337843Y-66350846D01*
X90382602Y-66383365D01*
X90393248Y-66391100D01*
X90399276Y-66393784D01*
X90399278Y-66393785D01*
X90561681Y-66466091D01*
X90567712Y-66468776D01*
X90654564Y-66487237D01*
X90748056Y-66507110D01*
X90748061Y-66507110D01*
X90754513Y-66508482D01*
X90945487Y-66508482D01*
X90951939Y-66507110D01*
X90951944Y-66507110D01*
X91045436Y-66487237D01*
X91132288Y-66468776D01*
X91138319Y-66466091D01*
X91300722Y-66393785D01*
X91300724Y-66393784D01*
X91306752Y-66391100D01*
X91317399Y-66383365D01*
X91362157Y-66350846D01*
X91461253Y-66278848D01*
X91494564Y-66241852D01*
X91584621Y-66141834D01*
X91584622Y-66141833D01*
X91589040Y-66136926D01*
X91667790Y-66000528D01*
X91681223Y-65977261D01*
X91681224Y-65977260D01*
X91684527Y-65971538D01*
X91743542Y-65789910D01*
X91763504Y-65599982D01*
X91751123Y-65482179D01*
X91744232Y-65416617D01*
X91744232Y-65416615D01*
X91743542Y-65410054D01*
X91684527Y-65228426D01*
X91589040Y-65063038D01*
X91532281Y-65000000D01*
X91465675Y-64926027D01*
X91465674Y-64926026D01*
X91461253Y-64921116D01*
X91356457Y-64844977D01*
X91312094Y-64812745D01*
X91312093Y-64812744D01*
X91306752Y-64808864D01*
X91300724Y-64806180D01*
X91300722Y-64806179D01*
X91138319Y-64733873D01*
X91138318Y-64733873D01*
X91132288Y-64731188D01*
X91038887Y-64711335D01*
X90951944Y-64692854D01*
X90951939Y-64692854D01*
X90945487Y-64691482D01*
X90754513Y-64691482D01*
X90748061Y-64692854D01*
X90748056Y-64692854D01*
X90661113Y-64711335D01*
X90567712Y-64731188D01*
X90561682Y-64733873D01*
X90561681Y-64733873D01*
X90399278Y-64806179D01*
X90399276Y-64806180D01*
X90393248Y-64808864D01*
X90387907Y-64812744D01*
X90387906Y-64812745D01*
X90343543Y-64844977D01*
X90238747Y-64921116D01*
X90234326Y-64926026D01*
X90234325Y-64926027D01*
X90167720Y-65000000D01*
X90110960Y-65063038D01*
X90015473Y-65228426D01*
X89956458Y-65410054D01*
X89955768Y-65416615D01*
X89955768Y-65416617D01*
X89948877Y-65482179D01*
X89936496Y-65599982D01*
X79482248Y-65599982D01*
X79415675Y-65526045D01*
X79415674Y-65526044D01*
X79411253Y-65521134D01*
X79295622Y-65437123D01*
X79262094Y-65412763D01*
X79262093Y-65412762D01*
X79256752Y-65408882D01*
X79250724Y-65406198D01*
X79250722Y-65406197D01*
X79088319Y-65333891D01*
X79088318Y-65333891D01*
X79082288Y-65331206D01*
X78988887Y-65311353D01*
X78901944Y-65292872D01*
X78901939Y-65292872D01*
X78895487Y-65291500D01*
X78826000Y-65291500D01*
X78757879Y-65271498D01*
X78711386Y-65217842D01*
X78700000Y-65165500D01*
X78700000Y-62800000D01*
X75634000Y-62800000D01*
X75565879Y-62779998D01*
X75519386Y-62726342D01*
X75508000Y-62674000D01*
X75508000Y-61892695D01*
X89909251Y-61892695D01*
X89909548Y-61897848D01*
X89909548Y-61897851D01*
X89913662Y-61969204D01*
X89922110Y-62115715D01*
X89923247Y-62120761D01*
X89923248Y-62120767D01*
X89937606Y-62184475D01*
X89971222Y-62333639D01*
X90055266Y-62540616D01*
X90057965Y-62545020D01*
X90169079Y-62726342D01*
X90171987Y-62731088D01*
X90318250Y-62899938D01*
X90490126Y-63042632D01*
X90683000Y-63155338D01*
X90687825Y-63157180D01*
X90687826Y-63157181D01*
X90760612Y-63184975D01*
X90891692Y-63235030D01*
X90896760Y-63236061D01*
X90896763Y-63236062D01*
X91004017Y-63257883D01*
X91110597Y-63279567D01*
X91115772Y-63279757D01*
X91115774Y-63279757D01*
X91328673Y-63287564D01*
X91328677Y-63287564D01*
X91333837Y-63287753D01*
X91338957Y-63287097D01*
X91338959Y-63287097D01*
X91550288Y-63260025D01*
X91550289Y-63260025D01*
X91555416Y-63259368D01*
X91560366Y-63257883D01*
X91764429Y-63196661D01*
X91764434Y-63196659D01*
X91769384Y-63195174D01*
X91969994Y-63096896D01*
X92151860Y-62967173D01*
X92176942Y-62942179D01*
X92260479Y-62858933D01*
X92322851Y-62825017D01*
X92393658Y-62830205D01*
X92450419Y-62872851D01*
X92467401Y-62903954D01*
X92508676Y-63014054D01*
X92517214Y-63029649D01*
X92593715Y-63131724D01*
X92606276Y-63144285D01*
X92708351Y-63220786D01*
X92723946Y-63229324D01*
X92844394Y-63274478D01*
X92859649Y-63278105D01*
X92910514Y-63283631D01*
X92917328Y-63284000D01*
X93539885Y-63284000D01*
X93555124Y-63279525D01*
X93556329Y-63278135D01*
X93558000Y-63270452D01*
X93558000Y-63265884D01*
X94066000Y-63265884D01*
X94070475Y-63281123D01*
X94071865Y-63282328D01*
X94079548Y-63283999D01*
X94706669Y-63283999D01*
X94713490Y-63283629D01*
X94764352Y-63278105D01*
X94779604Y-63274479D01*
X94900054Y-63229324D01*
X94915649Y-63220786D01*
X95017724Y-63144285D01*
X95030285Y-63131724D01*
X95106786Y-63029649D01*
X95115324Y-63014054D01*
X95160478Y-62893606D01*
X95164105Y-62878351D01*
X95169631Y-62827486D01*
X95170000Y-62820672D01*
X95170000Y-62198115D01*
X95165525Y-62182876D01*
X95164135Y-62181671D01*
X95156452Y-62180000D01*
X94084115Y-62180000D01*
X94068876Y-62184475D01*
X94067671Y-62185865D01*
X94066000Y-62193548D01*
X94066000Y-63265884D01*
X93558000Y-63265884D01*
X93558000Y-61653885D01*
X94066000Y-61653885D01*
X94070475Y-61669124D01*
X94071865Y-61670329D01*
X94079548Y-61672000D01*
X95151884Y-61672000D01*
X95167123Y-61667525D01*
X95168328Y-61666135D01*
X95169999Y-61658452D01*
X95169999Y-61031331D01*
X95169629Y-61024510D01*
X95164105Y-60973648D01*
X95160479Y-60958396D01*
X95115324Y-60837946D01*
X95106786Y-60822351D01*
X95030285Y-60720276D01*
X95017724Y-60707715D01*
X94915649Y-60631214D01*
X94900054Y-60622676D01*
X94779606Y-60577522D01*
X94764351Y-60573895D01*
X94713486Y-60568369D01*
X94706672Y-60568000D01*
X94084115Y-60568000D01*
X94068876Y-60572475D01*
X94067671Y-60573865D01*
X94066000Y-60581548D01*
X94066000Y-61653885D01*
X93558000Y-61653885D01*
X93558000Y-60586116D01*
X93553525Y-60570877D01*
X93552135Y-60569672D01*
X93544452Y-60568001D01*
X92917331Y-60568001D01*
X92910510Y-60568371D01*
X92859648Y-60573895D01*
X92844396Y-60577521D01*
X92723946Y-60622676D01*
X92708351Y-60631214D01*
X92606276Y-60707715D01*
X92593715Y-60720276D01*
X92517214Y-60822351D01*
X92508676Y-60837946D01*
X92467297Y-60948322D01*
X92424655Y-61005087D01*
X92358093Y-61029786D01*
X92288744Y-61014578D01*
X92256121Y-60988891D01*
X92205151Y-60932876D01*
X92205148Y-60932873D01*
X92201670Y-60929051D01*
X92197619Y-60925852D01*
X92197615Y-60925848D01*
X92030414Y-60793800D01*
X92030410Y-60793798D01*
X92026359Y-60790598D01*
X91830789Y-60682638D01*
X91825920Y-60680914D01*
X91825916Y-60680912D01*
X91625087Y-60609795D01*
X91625083Y-60609794D01*
X91620212Y-60608069D01*
X91615119Y-60607162D01*
X91615116Y-60607161D01*
X91405373Y-60569800D01*
X91405367Y-60569799D01*
X91400284Y-60568894D01*
X91326452Y-60567992D01*
X91182081Y-60566228D01*
X91182079Y-60566228D01*
X91176911Y-60566165D01*
X90956091Y-60599955D01*
X90743756Y-60669357D01*
X90545607Y-60772507D01*
X90541474Y-60775610D01*
X90541471Y-60775612D01*
X90380855Y-60896206D01*
X90366965Y-60906635D01*
X90212629Y-61068138D01*
X90086743Y-61252680D01*
X90071847Y-61284771D01*
X89995681Y-61448858D01*
X89992688Y-61455305D01*
X89932989Y-61670570D01*
X89909251Y-61892695D01*
X75508000Y-61892695D01*
X75508000Y-60700000D01*
X85386496Y-60700000D01*
X85387186Y-60706565D01*
X85404195Y-60868392D01*
X85406458Y-60889928D01*
X85465473Y-61071556D01*
X85560960Y-61236944D01*
X85565378Y-61241851D01*
X85565379Y-61241852D01*
X85684325Y-61373955D01*
X85688747Y-61378866D01*
X85768476Y-61436793D01*
X85825734Y-61478393D01*
X85843248Y-61491118D01*
X85849276Y-61493802D01*
X85849278Y-61493803D01*
X86011681Y-61566109D01*
X86017712Y-61568794D01*
X86111112Y-61588647D01*
X86198056Y-61607128D01*
X86198061Y-61607128D01*
X86204513Y-61608500D01*
X86395487Y-61608500D01*
X86401939Y-61607128D01*
X86401944Y-61607128D01*
X86488888Y-61588647D01*
X86582288Y-61568794D01*
X86588319Y-61566109D01*
X86750722Y-61493803D01*
X86750724Y-61493802D01*
X86756752Y-61491118D01*
X86774267Y-61478393D01*
X86831524Y-61436793D01*
X86911253Y-61378866D01*
X86915675Y-61373955D01*
X87034621Y-61241852D01*
X87034622Y-61241851D01*
X87039040Y-61236944D01*
X87134527Y-61071556D01*
X87193542Y-60889928D01*
X87195806Y-60868392D01*
X87212814Y-60706565D01*
X87213504Y-60700000D01*
X87202907Y-60599173D01*
X87194232Y-60516635D01*
X87194232Y-60516633D01*
X87193542Y-60510072D01*
X87134527Y-60328444D01*
X87039040Y-60163056D01*
X86911253Y-60021134D01*
X86756752Y-59908882D01*
X86750724Y-59906198D01*
X86750722Y-59906197D01*
X86588319Y-59833891D01*
X86588318Y-59833891D01*
X86582288Y-59831206D01*
X86488887Y-59811353D01*
X86401944Y-59792872D01*
X86401939Y-59792872D01*
X86395487Y-59791500D01*
X86204513Y-59791500D01*
X86198061Y-59792872D01*
X86198056Y-59792872D01*
X86111113Y-59811353D01*
X86017712Y-59831206D01*
X86011682Y-59833891D01*
X86011681Y-59833891D01*
X85849278Y-59906197D01*
X85849276Y-59906198D01*
X85843248Y-59908882D01*
X85688747Y-60021134D01*
X85560960Y-60163056D01*
X85465473Y-60328444D01*
X85406458Y-60510072D01*
X85405768Y-60516633D01*
X85405768Y-60516635D01*
X85397093Y-60599173D01*
X85386496Y-60700000D01*
X75508000Y-60700000D01*
X75508000Y-59700000D01*
X80386496Y-59700000D01*
X80387186Y-59706565D01*
X80392645Y-59758500D01*
X80406458Y-59889928D01*
X80465473Y-60071556D01*
X80560960Y-60236944D01*
X80565378Y-60241851D01*
X80565379Y-60241852D01*
X80674506Y-60363050D01*
X80688747Y-60378866D01*
X80843248Y-60491118D01*
X80849276Y-60493802D01*
X80849278Y-60493803D01*
X80973177Y-60548966D01*
X81017712Y-60568794D01*
X81077715Y-60581548D01*
X81198056Y-60607128D01*
X81198061Y-60607128D01*
X81204513Y-60608500D01*
X81395487Y-60608500D01*
X81401939Y-60607128D01*
X81401944Y-60607128D01*
X81522285Y-60581548D01*
X81582288Y-60568794D01*
X81626823Y-60548966D01*
X81750722Y-60493803D01*
X81750724Y-60493802D01*
X81756752Y-60491118D01*
X81911253Y-60378866D01*
X81925494Y-60363050D01*
X82034621Y-60241852D01*
X82034622Y-60241851D01*
X82039040Y-60236944D01*
X82134527Y-60071556D01*
X82193542Y-59889928D01*
X82207356Y-59758500D01*
X82212814Y-59706565D01*
X82213504Y-59700000D01*
X82204687Y-59616109D01*
X82194232Y-59516635D01*
X82194232Y-59516633D01*
X82193542Y-59510072D01*
X82134527Y-59328444D01*
X82039040Y-59163056D01*
X81976007Y-59093050D01*
X81915675Y-59026045D01*
X81915674Y-59026044D01*
X81911253Y-59021134D01*
X81756752Y-58908882D01*
X81750724Y-58906198D01*
X81750722Y-58906197D01*
X81588319Y-58833891D01*
X81588318Y-58833891D01*
X81582288Y-58831206D01*
X81488888Y-58811353D01*
X81401944Y-58792872D01*
X81401939Y-58792872D01*
X81395487Y-58791500D01*
X81204513Y-58791500D01*
X81198061Y-58792872D01*
X81198056Y-58792872D01*
X81111112Y-58811353D01*
X81017712Y-58831206D01*
X81011682Y-58833891D01*
X81011681Y-58833891D01*
X80849278Y-58906197D01*
X80849276Y-58906198D01*
X80843248Y-58908882D01*
X80688747Y-59021134D01*
X80684326Y-59026044D01*
X80684325Y-59026045D01*
X80623994Y-59093050D01*
X80560960Y-59163056D01*
X80465473Y-59328444D01*
X80406458Y-59510072D01*
X80405768Y-59516633D01*
X80405768Y-59516635D01*
X80395313Y-59616109D01*
X80386496Y-59700000D01*
X75508000Y-59700000D01*
X75508000Y-58069043D01*
X75528002Y-58000922D01*
X75581658Y-57954429D01*
X75651932Y-57944325D01*
X75716512Y-57973819D01*
X75743118Y-58006041D01*
X75760960Y-58036944D01*
X75765378Y-58041851D01*
X75765379Y-58041852D01*
X75866126Y-58153743D01*
X75888747Y-58178866D01*
X76043248Y-58291118D01*
X76049276Y-58293802D01*
X76049278Y-58293803D01*
X76123068Y-58326656D01*
X76217712Y-58368794D01*
X76292680Y-58384729D01*
X76398056Y-58407128D01*
X76398061Y-58407128D01*
X76404513Y-58408500D01*
X76595487Y-58408500D01*
X76601939Y-58407128D01*
X76601944Y-58407128D01*
X76707320Y-58384729D01*
X76782288Y-58368794D01*
X76876932Y-58326656D01*
X76950722Y-58293803D01*
X76950724Y-58293802D01*
X76956752Y-58291118D01*
X77111253Y-58178866D01*
X77133874Y-58153743D01*
X77234621Y-58041852D01*
X77234622Y-58041851D01*
X77239040Y-58036944D01*
X77324437Y-57889032D01*
X77331223Y-57877279D01*
X77331224Y-57877278D01*
X77334527Y-57871556D01*
X77393542Y-57689928D01*
X77395806Y-57668393D01*
X77412814Y-57506565D01*
X77413504Y-57500000D01*
X77408249Y-57450000D01*
X77394232Y-57316635D01*
X77394232Y-57316633D01*
X77393542Y-57310072D01*
X77334527Y-57128444D01*
X77322932Y-57108360D01*
X77319142Y-57101795D01*
X88932571Y-57101795D01*
X88933261Y-57108360D01*
X88948481Y-57253167D01*
X88952533Y-57291723D01*
X89011548Y-57473351D01*
X89014851Y-57479073D01*
X89014852Y-57479074D01*
X89048761Y-57537805D01*
X89107035Y-57638739D01*
X89111453Y-57643646D01*
X89111454Y-57643647D01*
X89139246Y-57674513D01*
X89234822Y-57780661D01*
X89293165Y-57823050D01*
X89342484Y-57858882D01*
X89389323Y-57892913D01*
X89395351Y-57895597D01*
X89395353Y-57895598D01*
X89557756Y-57967904D01*
X89563787Y-57970589D01*
X89626368Y-57983891D01*
X89744131Y-58008923D01*
X89744136Y-58008923D01*
X89750588Y-58010295D01*
X89941562Y-58010295D01*
X89948014Y-58008923D01*
X89948019Y-58008923D01*
X90065782Y-57983891D01*
X90128363Y-57970589D01*
X90134394Y-57967904D01*
X90296797Y-57895598D01*
X90296799Y-57895597D01*
X90302827Y-57892913D01*
X90349667Y-57858882D01*
X90398985Y-57823050D01*
X90457328Y-57780661D01*
X90552904Y-57674513D01*
X90580696Y-57643647D01*
X90580697Y-57643646D01*
X90585115Y-57638739D01*
X90643389Y-57537805D01*
X90677298Y-57479074D01*
X90677299Y-57479073D01*
X90680602Y-57473351D01*
X90739617Y-57291723D01*
X90743670Y-57253167D01*
X90758889Y-57108360D01*
X90759579Y-57101795D01*
X90744481Y-56958148D01*
X90740307Y-56918430D01*
X90740307Y-56918428D01*
X90739617Y-56911867D01*
X90680602Y-56730239D01*
X90663144Y-56700000D01*
X95586496Y-56700000D01*
X95587186Y-56706565D01*
X95603955Y-56866109D01*
X95606458Y-56889928D01*
X95665473Y-57071556D01*
X95668776Y-57077278D01*
X95668777Y-57077279D01*
X95686722Y-57108360D01*
X95760960Y-57236944D01*
X95888747Y-57378866D01*
X95958750Y-57429726D01*
X96030422Y-57481799D01*
X96043248Y-57491118D01*
X96049276Y-57493802D01*
X96049278Y-57493803D01*
X96211681Y-57566109D01*
X96217712Y-57568794D01*
X96311113Y-57588647D01*
X96398056Y-57607128D01*
X96398061Y-57607128D01*
X96404513Y-57608500D01*
X96595487Y-57608500D01*
X96601939Y-57607128D01*
X96601944Y-57607128D01*
X96688887Y-57588647D01*
X96782288Y-57568794D01*
X96788319Y-57566109D01*
X96950722Y-57493803D01*
X96950724Y-57493802D01*
X96956752Y-57491118D01*
X96969579Y-57481799D01*
X97041250Y-57429726D01*
X97111253Y-57378866D01*
X97239040Y-57236944D01*
X97313278Y-57108360D01*
X97331223Y-57077279D01*
X97331224Y-57077278D01*
X97334527Y-57071556D01*
X97393542Y-56889928D01*
X97396046Y-56866109D01*
X97412814Y-56706565D01*
X97413504Y-56700000D01*
X97401557Y-56586326D01*
X97394232Y-56516635D01*
X97394232Y-56516633D01*
X97393542Y-56510072D01*
X97334527Y-56328444D01*
X97239040Y-56163056D01*
X97230701Y-56153794D01*
X97115675Y-56026045D01*
X97115674Y-56026044D01*
X97111253Y-56021134D01*
X97082165Y-56000000D01*
X104911496Y-56000000D01*
X104912186Y-56006565D01*
X104930415Y-56180000D01*
X104931458Y-56189928D01*
X104990473Y-56371556D01*
X105085960Y-56536944D01*
X105090378Y-56541851D01*
X105090379Y-56541852D01*
X105148747Y-56606676D01*
X105213747Y-56678866D01*
X105368248Y-56791118D01*
X105374276Y-56793802D01*
X105374278Y-56793803D01*
X105536681Y-56866109D01*
X105542712Y-56868794D01*
X105628101Y-56886944D01*
X105723056Y-56907128D01*
X105723061Y-56907128D01*
X105729513Y-56908500D01*
X105920487Y-56908500D01*
X105926939Y-56907128D01*
X105926944Y-56907128D01*
X106021899Y-56886944D01*
X106107288Y-56868794D01*
X106113319Y-56866109D01*
X106275722Y-56793803D01*
X106275724Y-56793802D01*
X106281752Y-56791118D01*
X106436253Y-56678866D01*
X106501253Y-56606676D01*
X106559621Y-56541852D01*
X106559622Y-56541851D01*
X106564040Y-56536944D01*
X106659527Y-56371556D01*
X106666531Y-56350000D01*
X108486496Y-56350000D01*
X108487186Y-56356565D01*
X108503955Y-56516109D01*
X108506458Y-56539928D01*
X108565473Y-56721556D01*
X108568776Y-56727278D01*
X108568777Y-56727279D01*
X108573863Y-56736088D01*
X108660960Y-56886944D01*
X108665378Y-56891851D01*
X108665379Y-56891852D01*
X108677748Y-56905589D01*
X108788747Y-57028866D01*
X108943248Y-57141118D01*
X108949276Y-57143802D01*
X108949278Y-57143803D01*
X109111681Y-57216109D01*
X109117712Y-57218794D01*
X109186597Y-57233436D01*
X109298056Y-57257128D01*
X109298061Y-57257128D01*
X109304513Y-57258500D01*
X109495487Y-57258500D01*
X109501939Y-57257128D01*
X109501944Y-57257128D01*
X109613403Y-57233436D01*
X109682288Y-57218794D01*
X109688319Y-57216109D01*
X109850722Y-57143803D01*
X109850724Y-57143802D01*
X109856752Y-57141118D01*
X110011253Y-57028866D01*
X110122252Y-56905589D01*
X110134621Y-56891852D01*
X110134622Y-56891851D01*
X110139040Y-56886944D01*
X110226137Y-56736088D01*
X110231223Y-56727279D01*
X110231224Y-56727278D01*
X110234527Y-56721556D01*
X110271854Y-56606676D01*
X110311928Y-56548070D01*
X110365487Y-56522366D01*
X110375826Y-56520168D01*
X110375830Y-56520167D01*
X110382288Y-56518794D01*
X110415979Y-56503794D01*
X110550722Y-56443803D01*
X110550724Y-56443802D01*
X110556752Y-56441118D01*
X110587132Y-56419046D01*
X110661146Y-56365271D01*
X110711253Y-56328866D01*
X110716786Y-56322721D01*
X110834621Y-56191852D01*
X110834622Y-56191851D01*
X110839040Y-56186944D01*
X110934527Y-56021556D01*
X110993542Y-55839928D01*
X110995766Y-55818774D01*
X111012814Y-55656565D01*
X111013504Y-55650000D01*
X111003645Y-55556197D01*
X110994232Y-55466635D01*
X110994232Y-55466633D01*
X110993542Y-55460072D01*
X110934527Y-55278444D01*
X110839040Y-55113056D01*
X110711253Y-54971134D01*
X110556752Y-54858882D01*
X110550724Y-54856198D01*
X110550722Y-54856197D01*
X110388319Y-54783891D01*
X110388318Y-54783891D01*
X110382288Y-54781206D01*
X110288887Y-54761353D01*
X110201944Y-54742872D01*
X110201939Y-54742872D01*
X110195487Y-54741500D01*
X110004513Y-54741500D01*
X109998061Y-54742872D01*
X109998056Y-54742872D01*
X109911113Y-54761353D01*
X109817712Y-54781206D01*
X109811682Y-54783891D01*
X109811681Y-54783891D01*
X109649278Y-54856197D01*
X109649276Y-54856198D01*
X109643248Y-54858882D01*
X109488747Y-54971134D01*
X109360960Y-55113056D01*
X109265473Y-55278444D01*
X109263431Y-55284729D01*
X109228146Y-55393324D01*
X109188072Y-55451930D01*
X109134513Y-55477634D01*
X109124174Y-55479832D01*
X109124170Y-55479833D01*
X109117712Y-55481206D01*
X109111682Y-55483891D01*
X109111681Y-55483891D01*
X108949278Y-55556197D01*
X108949276Y-55556198D01*
X108943248Y-55558882D01*
X108788747Y-55671134D01*
X108784326Y-55676044D01*
X108784325Y-55676045D01*
X108669300Y-55803794D01*
X108660960Y-55813056D01*
X108565473Y-55978444D01*
X108506458Y-56160072D01*
X108505768Y-56166633D01*
X108505768Y-56166635D01*
X108489363Y-56322721D01*
X108486496Y-56350000D01*
X106666531Y-56350000D01*
X106718542Y-56189928D01*
X106719586Y-56180000D01*
X106737814Y-56006565D01*
X106738504Y-56000000D01*
X106721680Y-55839928D01*
X106719232Y-55816635D01*
X106719232Y-55816633D01*
X106718542Y-55810072D01*
X106659527Y-55628444D01*
X106651040Y-55613743D01*
X106574519Y-55481206D01*
X106564040Y-55463056D01*
X106555701Y-55453794D01*
X106440675Y-55326045D01*
X106440674Y-55326044D01*
X106436253Y-55321134D01*
X106281752Y-55208882D01*
X106275724Y-55206198D01*
X106275722Y-55206197D01*
X106113319Y-55133891D01*
X106113318Y-55133891D01*
X106107288Y-55131206D01*
X106013888Y-55111353D01*
X105926944Y-55092872D01*
X105926939Y-55092872D01*
X105920487Y-55091500D01*
X105729513Y-55091500D01*
X105723061Y-55092872D01*
X105723056Y-55092872D01*
X105636112Y-55111353D01*
X105542712Y-55131206D01*
X105536682Y-55133891D01*
X105536681Y-55133891D01*
X105374278Y-55206197D01*
X105374276Y-55206198D01*
X105368248Y-55208882D01*
X105213747Y-55321134D01*
X105209326Y-55326044D01*
X105209325Y-55326045D01*
X105094300Y-55453794D01*
X105085960Y-55463056D01*
X105075481Y-55481206D01*
X104998961Y-55613743D01*
X104990473Y-55628444D01*
X104931458Y-55810072D01*
X104930768Y-55816633D01*
X104930768Y-55816635D01*
X104928320Y-55839928D01*
X104911496Y-56000000D01*
X97082165Y-56000000D01*
X96956752Y-55908882D01*
X96950724Y-55906198D01*
X96950722Y-55906197D01*
X96788319Y-55833891D01*
X96788318Y-55833891D01*
X96782288Y-55831206D01*
X96682861Y-55810072D01*
X96601944Y-55792872D01*
X96601939Y-55792872D01*
X96595487Y-55791500D01*
X96404513Y-55791500D01*
X96398061Y-55792872D01*
X96398056Y-55792872D01*
X96317139Y-55810072D01*
X96217712Y-55831206D01*
X96211682Y-55833891D01*
X96211681Y-55833891D01*
X96049278Y-55906197D01*
X96049276Y-55906198D01*
X96043248Y-55908882D01*
X95888747Y-56021134D01*
X95884326Y-56026044D01*
X95884325Y-56026045D01*
X95769300Y-56153794D01*
X95760960Y-56163056D01*
X95665473Y-56328444D01*
X95606458Y-56510072D01*
X95605768Y-56516633D01*
X95605768Y-56516635D01*
X95598443Y-56586326D01*
X95586496Y-56700000D01*
X90663144Y-56700000D01*
X90600501Y-56591500D01*
X90585115Y-56564851D01*
X90574490Y-56553050D01*
X90461750Y-56427840D01*
X90461749Y-56427839D01*
X90457328Y-56422929D01*
X90335932Y-56334729D01*
X90308169Y-56314558D01*
X90308168Y-56314557D01*
X90302827Y-56310677D01*
X90296799Y-56307993D01*
X90296797Y-56307992D01*
X90134394Y-56235686D01*
X90134393Y-56235686D01*
X90128363Y-56233001D01*
X90028616Y-56211799D01*
X89948019Y-56194667D01*
X89948014Y-56194667D01*
X89941562Y-56193295D01*
X89750588Y-56193295D01*
X89744136Y-56194667D01*
X89744131Y-56194667D01*
X89663534Y-56211799D01*
X89563787Y-56233001D01*
X89557757Y-56235686D01*
X89557756Y-56235686D01*
X89395353Y-56307992D01*
X89395351Y-56307993D01*
X89389323Y-56310677D01*
X89383982Y-56314557D01*
X89383981Y-56314558D01*
X89356218Y-56334729D01*
X89234822Y-56422929D01*
X89230401Y-56427839D01*
X89230400Y-56427840D01*
X89117661Y-56553050D01*
X89107035Y-56564851D01*
X89091649Y-56591500D01*
X89029007Y-56700000D01*
X89011548Y-56730239D01*
X88952533Y-56911867D01*
X88951843Y-56918428D01*
X88951843Y-56918430D01*
X88947669Y-56958148D01*
X88932571Y-57101795D01*
X77319142Y-57101795D01*
X77242341Y-56968774D01*
X77239040Y-56963056D01*
X77172544Y-56889204D01*
X77115675Y-56826045D01*
X77115674Y-56826044D01*
X77111253Y-56821134D01*
X76986147Y-56730239D01*
X76962094Y-56712763D01*
X76962093Y-56712762D01*
X76956752Y-56708882D01*
X76950724Y-56706198D01*
X76950722Y-56706197D01*
X76788319Y-56633891D01*
X76788318Y-56633891D01*
X76782288Y-56631206D01*
X76688888Y-56611353D01*
X76601944Y-56592872D01*
X76601939Y-56592872D01*
X76595487Y-56591500D01*
X76404513Y-56591500D01*
X76398061Y-56592872D01*
X76398056Y-56592872D01*
X76311112Y-56611353D01*
X76217712Y-56631206D01*
X76211682Y-56633891D01*
X76211681Y-56633891D01*
X76049278Y-56706197D01*
X76049276Y-56706198D01*
X76043248Y-56708882D01*
X76037907Y-56712762D01*
X76037906Y-56712763D01*
X76013853Y-56730239D01*
X75888747Y-56821134D01*
X75884326Y-56826044D01*
X75884325Y-56826045D01*
X75827457Y-56889204D01*
X75760960Y-56963056D01*
X75757659Y-56968774D01*
X75743119Y-56993958D01*
X75691736Y-57042951D01*
X75622022Y-57056386D01*
X75556111Y-57029999D01*
X75514930Y-56972167D01*
X75508000Y-56930957D01*
X75508000Y-53405585D01*
X75528002Y-53337464D01*
X75581658Y-53290971D01*
X75633023Y-53279589D01*
X76680112Y-53271472D01*
X76748386Y-53290945D01*
X76795293Y-53344239D01*
X76806399Y-53410637D01*
X76786496Y-53600000D01*
X76787186Y-53606565D01*
X76802264Y-53750021D01*
X76806458Y-53789928D01*
X76865473Y-53971556D01*
X76960960Y-54136944D01*
X76965378Y-54141851D01*
X76965379Y-54141852D01*
X77014213Y-54196088D01*
X77088747Y-54278866D01*
X77243248Y-54391118D01*
X77249276Y-54393802D01*
X77249278Y-54393803D01*
X77333332Y-54431226D01*
X77417712Y-54468794D01*
X77511112Y-54488647D01*
X77598056Y-54507128D01*
X77598061Y-54507128D01*
X77604513Y-54508500D01*
X77795487Y-54508500D01*
X77801939Y-54507128D01*
X77801944Y-54507128D01*
X77888888Y-54488647D01*
X77982288Y-54468794D01*
X78066668Y-54431226D01*
X78150722Y-54393803D01*
X78150724Y-54393802D01*
X78156752Y-54391118D01*
X78311253Y-54278866D01*
X78385787Y-54196088D01*
X78434621Y-54141852D01*
X78434622Y-54141851D01*
X78439040Y-54136944D01*
X78534527Y-53971556D01*
X78593542Y-53789928D01*
X78597737Y-53750021D01*
X78612814Y-53606565D01*
X78613504Y-53600000D01*
X78609997Y-53566635D01*
X78594232Y-53416633D01*
X78594231Y-53416629D01*
X78593542Y-53410072D01*
X78592462Y-53406747D01*
X78597775Y-53337104D01*
X78640592Y-53280471D01*
X78707229Y-53255977D01*
X78714643Y-53255701D01*
X80299961Y-53243411D01*
X82782417Y-53224167D01*
X82850690Y-53243640D01*
X82877029Y-53265852D01*
X82888747Y-53278866D01*
X83043248Y-53391118D01*
X83049276Y-53393802D01*
X83049278Y-53393803D01*
X83211681Y-53466109D01*
X83217712Y-53468794D01*
X83224170Y-53470167D01*
X83224174Y-53470168D01*
X83237180Y-53472933D01*
X83299653Y-53506663D01*
X83333972Y-53568814D01*
X83330813Y-53635115D01*
X83306458Y-53710072D01*
X83286496Y-53900000D01*
X83306458Y-54089928D01*
X83365473Y-54271556D01*
X83460960Y-54436944D01*
X83465378Y-54441851D01*
X83465379Y-54441852D01*
X83555564Y-54542013D01*
X83588747Y-54578866D01*
X83743248Y-54691118D01*
X83749276Y-54693802D01*
X83749278Y-54693803D01*
X83787614Y-54710871D01*
X83917712Y-54768794D01*
X84011113Y-54788647D01*
X84098056Y-54807128D01*
X84098061Y-54807128D01*
X84104513Y-54808500D01*
X84295487Y-54808500D01*
X84301939Y-54807128D01*
X84301944Y-54807128D01*
X84388888Y-54788647D01*
X84482288Y-54768794D01*
X84612386Y-54710871D01*
X84650722Y-54693803D01*
X84650724Y-54693802D01*
X84656752Y-54691118D01*
X84811253Y-54578866D01*
X84844436Y-54542013D01*
X84934621Y-54441852D01*
X84934622Y-54441851D01*
X84939040Y-54436944D01*
X85034527Y-54271556D01*
X85093542Y-54089928D01*
X85113504Y-53900000D01*
X85093542Y-53710072D01*
X85034527Y-53528444D01*
X85010008Y-53485976D01*
X84957750Y-53395462D01*
X84941012Y-53326467D01*
X84964233Y-53259375D01*
X85020040Y-53215488D01*
X85065892Y-53206466D01*
X85899484Y-53200004D01*
X85900461Y-53200000D01*
X88447810Y-53200000D01*
X88515931Y-53220002D01*
X88536905Y-53236905D01*
X91800000Y-56500000D01*
X94500000Y-56500000D01*
X94738282Y-56321289D01*
X94787680Y-56298845D01*
X94808016Y-56294522D01*
X94814049Y-56291836D01*
X94976450Y-56219531D01*
X94976452Y-56219530D01*
X94982480Y-56216846D01*
X94994250Y-56208295D01*
X95060622Y-56160072D01*
X95136981Y-56104594D01*
X95264768Y-55962672D01*
X95288788Y-55921069D01*
X95322307Y-55883270D01*
X95697784Y-55601662D01*
X96900000Y-54700000D01*
X96900000Y-53750000D01*
X102586496Y-53750000D01*
X102606458Y-53939928D01*
X102665473Y-54121556D01*
X102760960Y-54286944D01*
X102765378Y-54291851D01*
X102765379Y-54291852D01*
X102857176Y-54393803D01*
X102888747Y-54428866D01*
X102987843Y-54500864D01*
X103019455Y-54523831D01*
X103043248Y-54541118D01*
X103049276Y-54543802D01*
X103049278Y-54543803D01*
X103140470Y-54584404D01*
X103217712Y-54618794D01*
X103311113Y-54638647D01*
X103398056Y-54657128D01*
X103398061Y-54657128D01*
X103404513Y-54658500D01*
X103595487Y-54658500D01*
X103601939Y-54657128D01*
X103601944Y-54657128D01*
X103688887Y-54638647D01*
X103782288Y-54618794D01*
X103859530Y-54584404D01*
X103950722Y-54543803D01*
X103950724Y-54543802D01*
X103956752Y-54541118D01*
X103980546Y-54523831D01*
X104012157Y-54500864D01*
X104111253Y-54428866D01*
X104142824Y-54393803D01*
X104234621Y-54291852D01*
X104234622Y-54291851D01*
X104239040Y-54286944D01*
X104334527Y-54121556D01*
X104393542Y-53939928D01*
X104413504Y-53750000D01*
X104413706Y-53750021D01*
X104432816Y-53684939D01*
X104486472Y-53638446D01*
X104556746Y-53628342D01*
X104579690Y-53634960D01*
X104579937Y-53634200D01*
X104586217Y-53636240D01*
X104592249Y-53638926D01*
X104685649Y-53658779D01*
X104772593Y-53677260D01*
X104772598Y-53677260D01*
X104779050Y-53678632D01*
X104970024Y-53678632D01*
X104976476Y-53677260D01*
X104976481Y-53677260D01*
X104982860Y-53675904D01*
X105900012Y-53675904D01*
X105919974Y-53865832D01*
X105978989Y-54047460D01*
X106074476Y-54212848D01*
X106202263Y-54354770D01*
X106246950Y-54387237D01*
X106322121Y-54441852D01*
X106356764Y-54467022D01*
X106362792Y-54469706D01*
X106362794Y-54469707D01*
X106497611Y-54529731D01*
X106531228Y-54544698D01*
X106624629Y-54564551D01*
X106711572Y-54583032D01*
X106711577Y-54583032D01*
X106718029Y-54584404D01*
X106909003Y-54584404D01*
X106915455Y-54583032D01*
X106915460Y-54583032D01*
X107002404Y-54564551D01*
X107095804Y-54544698D01*
X107129421Y-54529731D01*
X107264238Y-54469707D01*
X107264240Y-54469706D01*
X107270268Y-54467022D01*
X107304912Y-54441852D01*
X107380082Y-54387237D01*
X107424769Y-54354770D01*
X107552556Y-54212848D01*
X107648043Y-54047460D01*
X107707058Y-53865832D01*
X107727020Y-53675904D01*
X107714186Y-53553794D01*
X107707748Y-53492539D01*
X107707748Y-53492537D01*
X107707058Y-53485976D01*
X107648043Y-53304348D01*
X107635571Y-53282745D01*
X107598637Y-53218774D01*
X107552556Y-53138960D01*
X107503653Y-53084647D01*
X107429191Y-53001949D01*
X107429190Y-53001948D01*
X107424769Y-52997038D01*
X107270268Y-52884786D01*
X107264240Y-52882102D01*
X107264238Y-52882101D01*
X107101835Y-52809795D01*
X107101834Y-52809795D01*
X107095804Y-52807110D01*
X106978514Y-52782179D01*
X106915460Y-52768776D01*
X106915455Y-52768776D01*
X106909003Y-52767404D01*
X106718029Y-52767404D01*
X106711577Y-52768776D01*
X106711572Y-52768776D01*
X106648518Y-52782179D01*
X106531228Y-52807110D01*
X106525198Y-52809795D01*
X106525197Y-52809795D01*
X106362794Y-52882101D01*
X106362792Y-52882102D01*
X106356764Y-52884786D01*
X106202263Y-52997038D01*
X106197842Y-53001948D01*
X106197841Y-53001949D01*
X106123380Y-53084647D01*
X106074476Y-53138960D01*
X106028395Y-53218774D01*
X105991462Y-53282745D01*
X105978989Y-53304348D01*
X105919974Y-53485976D01*
X105919284Y-53492537D01*
X105919284Y-53492539D01*
X105912846Y-53553794D01*
X105900012Y-53675904D01*
X104982860Y-53675904D01*
X105063425Y-53658779D01*
X105156825Y-53638926D01*
X105167440Y-53634200D01*
X105325259Y-53563935D01*
X105325261Y-53563934D01*
X105331289Y-53561250D01*
X105341552Y-53553794D01*
X105458543Y-53468794D01*
X105485790Y-53448998D01*
X105554470Y-53372721D01*
X105609158Y-53311984D01*
X105609159Y-53311983D01*
X105613577Y-53307076D01*
X105675395Y-53200004D01*
X105705760Y-53147411D01*
X105705761Y-53147410D01*
X105709064Y-53141688D01*
X105768079Y-52960060D01*
X105771329Y-52929144D01*
X105787351Y-52776697D01*
X105788041Y-52770132D01*
X105768079Y-52580204D01*
X105709064Y-52398576D01*
X105697685Y-52378866D01*
X105616878Y-52238906D01*
X105613577Y-52233188D01*
X105604153Y-52222721D01*
X105490212Y-52096177D01*
X105490211Y-52096176D01*
X105485790Y-52091266D01*
X105331289Y-51979014D01*
X105325261Y-51976330D01*
X105325259Y-51976329D01*
X105162856Y-51904023D01*
X105162855Y-51904023D01*
X105156825Y-51901338D01*
X105063424Y-51881485D01*
X104976481Y-51863004D01*
X104976476Y-51863004D01*
X104970024Y-51861632D01*
X104779050Y-51861632D01*
X104772598Y-51863004D01*
X104772593Y-51863004D01*
X104685649Y-51881485D01*
X104592249Y-51901338D01*
X104586219Y-51904023D01*
X104586218Y-51904023D01*
X104423815Y-51976329D01*
X104423813Y-51976330D01*
X104417785Y-51979014D01*
X104263284Y-52091266D01*
X104258863Y-52096176D01*
X104258862Y-52096177D01*
X104144922Y-52222721D01*
X104135497Y-52233188D01*
X104132196Y-52238906D01*
X104051390Y-52378866D01*
X104040010Y-52398576D01*
X103980995Y-52580204D01*
X103961033Y-52770132D01*
X103960831Y-52770111D01*
X103941721Y-52835193D01*
X103888065Y-52881686D01*
X103817791Y-52891790D01*
X103794847Y-52885172D01*
X103794600Y-52885932D01*
X103788320Y-52883892D01*
X103782288Y-52881206D01*
X103688887Y-52861353D01*
X103601944Y-52842872D01*
X103601939Y-52842872D01*
X103595487Y-52841500D01*
X103404513Y-52841500D01*
X103398061Y-52842872D01*
X103398056Y-52842872D01*
X103311113Y-52861353D01*
X103217712Y-52881206D01*
X103211682Y-52883891D01*
X103211681Y-52883891D01*
X103049278Y-52956197D01*
X103049276Y-52956198D01*
X103043248Y-52958882D01*
X103037907Y-52962762D01*
X103037906Y-52962763D01*
X103012014Y-52981575D01*
X102888747Y-53071134D01*
X102884326Y-53076044D01*
X102884325Y-53076045D01*
X102766894Y-53206466D01*
X102760960Y-53213056D01*
X102665473Y-53378444D01*
X102606458Y-53560072D01*
X102605768Y-53566633D01*
X102605768Y-53566635D01*
X102598899Y-53631995D01*
X102586496Y-53750000D01*
X96900000Y-53750000D01*
X96900000Y-51550000D01*
X99786496Y-51550000D01*
X99806458Y-51739928D01*
X99865473Y-51921556D01*
X99868776Y-51927278D01*
X99868777Y-51927279D01*
X99893897Y-51970787D01*
X99960960Y-52086944D01*
X99965378Y-52091851D01*
X99965379Y-52091852D01*
X100083214Y-52222721D01*
X100088747Y-52228866D01*
X100243248Y-52341118D01*
X100249276Y-52343802D01*
X100249278Y-52343803D01*
X100398122Y-52410072D01*
X100417712Y-52418794D01*
X100511113Y-52438647D01*
X100598056Y-52457128D01*
X100598061Y-52457128D01*
X100604513Y-52458500D01*
X100795487Y-52458500D01*
X100801939Y-52457128D01*
X100801944Y-52457128D01*
X100888887Y-52438647D01*
X100982288Y-52418794D01*
X101001878Y-52410072D01*
X101150722Y-52343803D01*
X101150724Y-52343802D01*
X101156752Y-52341118D01*
X101311253Y-52228866D01*
X101316786Y-52222721D01*
X101434621Y-52091852D01*
X101434622Y-52091851D01*
X101439040Y-52086944D01*
X101506103Y-51970787D01*
X101531223Y-51927279D01*
X101531224Y-51927278D01*
X101534527Y-51921556D01*
X101593542Y-51739928D01*
X101613504Y-51550000D01*
X101593542Y-51360072D01*
X101534527Y-51178444D01*
X101439040Y-51013056D01*
X101345242Y-50908882D01*
X101315675Y-50876045D01*
X101315674Y-50876044D01*
X101311253Y-50871134D01*
X101156752Y-50758882D01*
X101150724Y-50756198D01*
X101150722Y-50756197D01*
X100988319Y-50683891D01*
X100988318Y-50683891D01*
X100982288Y-50681206D01*
X100888888Y-50661353D01*
X100801944Y-50642872D01*
X100801939Y-50642872D01*
X100795487Y-50641500D01*
X100604513Y-50641500D01*
X100598061Y-50642872D01*
X100598056Y-50642872D01*
X100511112Y-50661353D01*
X100417712Y-50681206D01*
X100411682Y-50683891D01*
X100411681Y-50683891D01*
X100249278Y-50756197D01*
X100249276Y-50756198D01*
X100243248Y-50758882D01*
X100088747Y-50871134D01*
X100084326Y-50876044D01*
X100084325Y-50876045D01*
X100054759Y-50908882D01*
X99960960Y-51013056D01*
X99865473Y-51178444D01*
X99806458Y-51360072D01*
X99786496Y-51550000D01*
X96900000Y-51550000D01*
X96900000Y-49700000D01*
X92743877Y-49700000D01*
X92675756Y-49679998D01*
X92629263Y-49626342D01*
X92619159Y-49556068D01*
X92648653Y-49491488D01*
X92692629Y-49458893D01*
X92727642Y-49443305D01*
X92727649Y-49443301D01*
X92733675Y-49440618D01*
X92752035Y-49427279D01*
X92868210Y-49342872D01*
X92888176Y-49328366D01*
X93015963Y-49186444D01*
X93094739Y-49050000D01*
X98086496Y-49050000D01*
X98087186Y-49056565D01*
X98101353Y-49191352D01*
X98106458Y-49239928D01*
X98165473Y-49421556D01*
X98168776Y-49427278D01*
X98168777Y-49427279D01*
X98189264Y-49462763D01*
X98260960Y-49586944D01*
X98265378Y-49591851D01*
X98265379Y-49591852D01*
X98366785Y-49704475D01*
X98388747Y-49728866D01*
X98543248Y-49841118D01*
X98549276Y-49843802D01*
X98549278Y-49843803D01*
X98641200Y-49884729D01*
X98717712Y-49918794D01*
X98811112Y-49938647D01*
X98898056Y-49957128D01*
X98898061Y-49957128D01*
X98904513Y-49958500D01*
X99095487Y-49958500D01*
X99101939Y-49957128D01*
X99101944Y-49957128D01*
X99188888Y-49938647D01*
X99282288Y-49918794D01*
X99358800Y-49884729D01*
X99450722Y-49843803D01*
X99450724Y-49843802D01*
X99456752Y-49841118D01*
X99611253Y-49728866D01*
X99634655Y-49702876D01*
X99655254Y-49679998D01*
X99701385Y-49628765D01*
X99761830Y-49591525D01*
X99832813Y-49592877D01*
X99877553Y-49621618D01*
X99879423Y-49619541D01*
X99884325Y-49623954D01*
X99888747Y-49628866D01*
X99905597Y-49641108D01*
X100026385Y-49728866D01*
X100043248Y-49741118D01*
X100049276Y-49743802D01*
X100049278Y-49743803D01*
X100211681Y-49816109D01*
X100217712Y-49818794D01*
X100304479Y-49837237D01*
X100398056Y-49857128D01*
X100398061Y-49857128D01*
X100404513Y-49858500D01*
X100595487Y-49858500D01*
X100601939Y-49857128D01*
X100601944Y-49857128D01*
X100695521Y-49837237D01*
X100782288Y-49818794D01*
X100788319Y-49816109D01*
X100950722Y-49743803D01*
X100950724Y-49743802D01*
X100956752Y-49741118D01*
X100973616Y-49728866D01*
X101094403Y-49641108D01*
X101111253Y-49628866D01*
X101156364Y-49578765D01*
X101216810Y-49541525D01*
X101287793Y-49542877D01*
X101343636Y-49578765D01*
X101388747Y-49628866D01*
X101405597Y-49641108D01*
X101526385Y-49728866D01*
X101543248Y-49741118D01*
X101549276Y-49743802D01*
X101549278Y-49743803D01*
X101711681Y-49816109D01*
X101717712Y-49818794D01*
X101804479Y-49837237D01*
X101898056Y-49857128D01*
X101898061Y-49857128D01*
X101904513Y-49858500D01*
X102095487Y-49858500D01*
X102101939Y-49857128D01*
X102101944Y-49857128D01*
X102195521Y-49837237D01*
X102282288Y-49818794D01*
X102288319Y-49816109D01*
X102450722Y-49743803D01*
X102450724Y-49743802D01*
X102456752Y-49741118D01*
X102473616Y-49728866D01*
X102594403Y-49641108D01*
X102611253Y-49628866D01*
X102689895Y-49541525D01*
X102734621Y-49491852D01*
X102734622Y-49491851D01*
X102739040Y-49486944D01*
X102823012Y-49341500D01*
X102831223Y-49327279D01*
X102831224Y-49327278D01*
X102834527Y-49321556D01*
X102893542Y-49139928D01*
X102913504Y-48950000D01*
X102904052Y-48860072D01*
X102894232Y-48766635D01*
X102894232Y-48766633D01*
X102893542Y-48760072D01*
X102834527Y-48578444D01*
X102739040Y-48413056D01*
X102707820Y-48378382D01*
X102615675Y-48276045D01*
X102615674Y-48276044D01*
X102611253Y-48271134D01*
X102456752Y-48158882D01*
X102450724Y-48156198D01*
X102450722Y-48156197D01*
X102288319Y-48083891D01*
X102288318Y-48083891D01*
X102282288Y-48081206D01*
X102188888Y-48061353D01*
X102101944Y-48042872D01*
X102101939Y-48042872D01*
X102095487Y-48041500D01*
X101904513Y-48041500D01*
X101898061Y-48042872D01*
X101898056Y-48042872D01*
X101811113Y-48061353D01*
X101717712Y-48081206D01*
X101711682Y-48083891D01*
X101711681Y-48083891D01*
X101549278Y-48156197D01*
X101549276Y-48156198D01*
X101543248Y-48158882D01*
X101388747Y-48271134D01*
X101384326Y-48276044D01*
X101384325Y-48276045D01*
X101343636Y-48321235D01*
X101283190Y-48358475D01*
X101212207Y-48357123D01*
X101156364Y-48321235D01*
X101115675Y-48276045D01*
X101115674Y-48276044D01*
X101111253Y-48271134D01*
X100956752Y-48158882D01*
X100950724Y-48156198D01*
X100950722Y-48156197D01*
X100788319Y-48083891D01*
X100788318Y-48083891D01*
X100782288Y-48081206D01*
X100688888Y-48061353D01*
X100601944Y-48042872D01*
X100601939Y-48042872D01*
X100595487Y-48041500D01*
X100404513Y-48041500D01*
X100398061Y-48042872D01*
X100398056Y-48042872D01*
X100311113Y-48061353D01*
X100217712Y-48081206D01*
X100211682Y-48083891D01*
X100211681Y-48083891D01*
X100049278Y-48156197D01*
X100049276Y-48156198D01*
X100043248Y-48158882D01*
X99888747Y-48271134D01*
X99884326Y-48276044D01*
X99884325Y-48276045D01*
X99798616Y-48371235D01*
X99738170Y-48408475D01*
X99667187Y-48407123D01*
X99622447Y-48378382D01*
X99620577Y-48380459D01*
X99615675Y-48376045D01*
X99611253Y-48371134D01*
X99491639Y-48284229D01*
X99462094Y-48262763D01*
X99462093Y-48262762D01*
X99456752Y-48258882D01*
X99450724Y-48256198D01*
X99450722Y-48256197D01*
X99288319Y-48183891D01*
X99288318Y-48183891D01*
X99282288Y-48181206D01*
X99188887Y-48161353D01*
X99101944Y-48142872D01*
X99101939Y-48142872D01*
X99095487Y-48141500D01*
X98904513Y-48141500D01*
X98898061Y-48142872D01*
X98898056Y-48142872D01*
X98811113Y-48161353D01*
X98717712Y-48181206D01*
X98711682Y-48183891D01*
X98711681Y-48183891D01*
X98549278Y-48256197D01*
X98549276Y-48256198D01*
X98543248Y-48258882D01*
X98537907Y-48262762D01*
X98537906Y-48262763D01*
X98508361Y-48284229D01*
X98388747Y-48371134D01*
X98260960Y-48513056D01*
X98202686Y-48613990D01*
X98178394Y-48656065D01*
X98165473Y-48678444D01*
X98106458Y-48860072D01*
X98086496Y-49050000D01*
X93094739Y-49050000D01*
X93108146Y-49026779D01*
X93108147Y-49026778D01*
X93111450Y-49021056D01*
X93170465Y-48839428D01*
X93179466Y-48753794D01*
X93189737Y-48656065D01*
X93190427Y-48649500D01*
X93176086Y-48513056D01*
X93171155Y-48466135D01*
X93171155Y-48466133D01*
X93170465Y-48459572D01*
X93111450Y-48277944D01*
X93105277Y-48267251D01*
X93019264Y-48118274D01*
X93015963Y-48112556D01*
X92987736Y-48081206D01*
X92892598Y-47975545D01*
X92892597Y-47975544D01*
X92888176Y-47970634D01*
X92733675Y-47858382D01*
X92727647Y-47855698D01*
X92727645Y-47855697D01*
X92565242Y-47783391D01*
X92565241Y-47783391D01*
X92559211Y-47780706D01*
X92465811Y-47760853D01*
X92378867Y-47742372D01*
X92378862Y-47742372D01*
X92372410Y-47741000D01*
X92181436Y-47741000D01*
X92174984Y-47742372D01*
X92174979Y-47742372D01*
X92088035Y-47760853D01*
X91994635Y-47780706D01*
X91988605Y-47783391D01*
X91988604Y-47783391D01*
X91826201Y-47855697D01*
X91826199Y-47855698D01*
X91820171Y-47858382D01*
X91665670Y-47970634D01*
X91661249Y-47975544D01*
X91661248Y-47975545D01*
X91566111Y-48081206D01*
X91537883Y-48112556D01*
X91534582Y-48118274D01*
X91448570Y-48267251D01*
X91442396Y-48277944D01*
X91383381Y-48459572D01*
X91382691Y-48466133D01*
X91382691Y-48466135D01*
X91377760Y-48513056D01*
X91363419Y-48649500D01*
X91364109Y-48656065D01*
X91374381Y-48753794D01*
X91383381Y-48839428D01*
X91442396Y-49021056D01*
X91445699Y-49026778D01*
X91445700Y-49026779D01*
X91459107Y-49050000D01*
X91537883Y-49186444D01*
X91665670Y-49328366D01*
X91685636Y-49342872D01*
X91801812Y-49427279D01*
X91820171Y-49440618D01*
X91826197Y-49443301D01*
X91826204Y-49443305D01*
X91861217Y-49458893D01*
X91915313Y-49504873D01*
X91935963Y-49572800D01*
X91916611Y-49641108D01*
X91863401Y-49688110D01*
X91809969Y-49700000D01*
X85900000Y-49700000D01*
X85900000Y-52774000D01*
X85879998Y-52842121D01*
X85826342Y-52888614D01*
X85774000Y-52900000D01*
X84521910Y-52900000D01*
X84453789Y-52879998D01*
X84407296Y-52826342D01*
X84396600Y-52760829D01*
X84401148Y-52717559D01*
X84428162Y-52651904D01*
X84486384Y-52611275D01*
X84500257Y-52607486D01*
X84682288Y-52568794D01*
X84704605Y-52558858D01*
X84850722Y-52493803D01*
X84850724Y-52493802D01*
X84856752Y-52491118D01*
X85011253Y-52378866D01*
X85042824Y-52343803D01*
X85134621Y-52241852D01*
X85134622Y-52241851D01*
X85139040Y-52236944D01*
X85222809Y-52091852D01*
X85231223Y-52077279D01*
X85231224Y-52077278D01*
X85234527Y-52071556D01*
X85293542Y-51889928D01*
X85313504Y-51700000D01*
X85293542Y-51510072D01*
X85234527Y-51328444D01*
X85139040Y-51163056D01*
X85011253Y-51021134D01*
X84993380Y-51008148D01*
X84969483Y-50990787D01*
X84910634Y-50948030D01*
X84867281Y-50891809D01*
X84861206Y-50821073D01*
X84875577Y-50783095D01*
X84889557Y-50758882D01*
X84968842Y-50621556D01*
X85027857Y-50439928D01*
X85036963Y-50353295D01*
X85047129Y-50256565D01*
X85047819Y-50250000D01*
X85031870Y-50098255D01*
X85028547Y-50066635D01*
X85028547Y-50066633D01*
X85027857Y-50060072D01*
X84968842Y-49878444D01*
X84873355Y-49713056D01*
X84861600Y-49700000D01*
X84749990Y-49576045D01*
X84749989Y-49576044D01*
X84745568Y-49571134D01*
X84591067Y-49458882D01*
X84585039Y-49456198D01*
X84585037Y-49456197D01*
X84422634Y-49383891D01*
X84422633Y-49383891D01*
X84416603Y-49381206D01*
X84323202Y-49361353D01*
X84236259Y-49342872D01*
X84236254Y-49342872D01*
X84229802Y-49341500D01*
X84038828Y-49341500D01*
X84032376Y-49342872D01*
X84032371Y-49342872D01*
X83945428Y-49361353D01*
X83852027Y-49381206D01*
X83845997Y-49383891D01*
X83845996Y-49383891D01*
X83683593Y-49456197D01*
X83683591Y-49456198D01*
X83677563Y-49458882D01*
X83523062Y-49571134D01*
X83518641Y-49576044D01*
X83518640Y-49576045D01*
X83407031Y-49700000D01*
X83395275Y-49713056D01*
X83299788Y-49878444D01*
X83240773Y-50060072D01*
X83240083Y-50066633D01*
X83240083Y-50066635D01*
X83236760Y-50098255D01*
X83220811Y-50250000D01*
X83221501Y-50256565D01*
X83231668Y-50353295D01*
X83240773Y-50439928D01*
X83299788Y-50621556D01*
X83395275Y-50786944D01*
X83523062Y-50928866D01*
X83623681Y-51001970D01*
X83667034Y-51058191D01*
X83673109Y-51128927D01*
X83658738Y-51166904D01*
X83565473Y-51328444D01*
X83506458Y-51510072D01*
X83505768Y-51516635D01*
X83505768Y-51516637D01*
X83498852Y-51582438D01*
X83471839Y-51648095D01*
X83413617Y-51688725D01*
X83399743Y-51692514D01*
X83217712Y-51731206D01*
X83211682Y-51733891D01*
X83211681Y-51733891D01*
X83049278Y-51806197D01*
X83049276Y-51806198D01*
X83043248Y-51808882D01*
X82888747Y-51921134D01*
X82760960Y-52063056D01*
X82665473Y-52228444D01*
X82606458Y-52410072D01*
X82586496Y-52600000D01*
X82602108Y-52748535D01*
X82603400Y-52760829D01*
X82590628Y-52830668D01*
X82542126Y-52882514D01*
X82478090Y-52900000D01*
X78323105Y-52900000D01*
X78249044Y-52875936D01*
X78162094Y-52812763D01*
X78162093Y-52812762D01*
X78156752Y-52808882D01*
X78150724Y-52806198D01*
X78150722Y-52806197D01*
X77988319Y-52733891D01*
X77988318Y-52733891D01*
X77982288Y-52731206D01*
X77888887Y-52711353D01*
X77801944Y-52692872D01*
X77801939Y-52692872D01*
X77795487Y-52691500D01*
X77604513Y-52691500D01*
X77598061Y-52692872D01*
X77598056Y-52692872D01*
X77511113Y-52711353D01*
X77417712Y-52731206D01*
X77411682Y-52733891D01*
X77411681Y-52733891D01*
X77249278Y-52806197D01*
X77249276Y-52806198D01*
X77243248Y-52808882D01*
X77237907Y-52812762D01*
X77237906Y-52812763D01*
X77150956Y-52875936D01*
X77076895Y-52900000D01*
X75634000Y-52900000D01*
X75565879Y-52879998D01*
X75519386Y-52826342D01*
X75508000Y-52774000D01*
X75508000Y-47053207D01*
X75509746Y-47032303D01*
X75512264Y-47017335D01*
X75513071Y-47012539D01*
X75513224Y-47000000D01*
X75510885Y-46983664D01*
X75509733Y-46960311D01*
X75514534Y-46850361D01*
X75519791Y-46729949D01*
X75524569Y-46620504D01*
X75547523Y-46553321D01*
X75603156Y-46509212D01*
X75650449Y-46500000D01*
X96924592Y-46500000D01*
X96992713Y-46520002D01*
G37*
%TD.AperFunction*%
%TA.AperFunction,Conductor*%
G36*
X78142121Y-63420002D02*
G01*
X78188614Y-63473658D01*
X78200000Y-63526000D01*
X78200000Y-65460270D01*
X78179998Y-65528391D01*
X78167636Y-65544580D01*
X78073811Y-65648784D01*
X78060960Y-65663056D01*
X78057659Y-65668774D01*
X77977476Y-65807655D01*
X77965473Y-65828444D01*
X77906458Y-66010072D01*
X77905768Y-66016633D01*
X77905768Y-66016635D01*
X77899394Y-66077283D01*
X77886496Y-66200000D01*
X77906458Y-66389928D01*
X77965473Y-66571556D01*
X77986011Y-66607128D01*
X77993624Y-66620315D01*
X78010361Y-66689310D01*
X77987140Y-66756402D01*
X77931333Y-66800289D01*
X77860657Y-66807037D01*
X77833259Y-66798422D01*
X77724323Y-66749921D01*
X77688319Y-66733891D01*
X77688318Y-66733891D01*
X77682288Y-66731206D01*
X77588888Y-66711353D01*
X77501944Y-66692872D01*
X77501939Y-66692872D01*
X77495487Y-66691500D01*
X77304513Y-66691500D01*
X77298061Y-66692872D01*
X77298056Y-66692872D01*
X77211112Y-66711353D01*
X77117712Y-66731206D01*
X77111682Y-66733891D01*
X77111681Y-66733891D01*
X76949278Y-66806197D01*
X76949276Y-66806198D01*
X76943248Y-66808882D01*
X76788747Y-66921134D01*
X76784326Y-66926044D01*
X76784325Y-66926045D01*
X76723316Y-66993803D01*
X76660960Y-67063056D01*
X76565473Y-67228444D01*
X76506458Y-67410072D01*
X76486496Y-67600000D01*
X76487186Y-67606565D01*
X76504798Y-67774131D01*
X76506458Y-67789928D01*
X76565473Y-67971556D01*
X76660960Y-68136944D01*
X76665378Y-68141851D01*
X76665379Y-68141852D01*
X76773848Y-68262319D01*
X76788747Y-68278866D01*
X76865772Y-68334828D01*
X76915842Y-68371206D01*
X76943248Y-68391118D01*
X76949276Y-68393802D01*
X76949278Y-68393803D01*
X77111681Y-68466109D01*
X77117712Y-68468794D01*
X77211112Y-68488647D01*
X77298056Y-68507128D01*
X77298061Y-68507128D01*
X77304513Y-68508500D01*
X77495487Y-68508500D01*
X77501939Y-68507128D01*
X77501944Y-68507128D01*
X77588888Y-68488647D01*
X77682288Y-68468794D01*
X77688319Y-68466109D01*
X77850722Y-68393803D01*
X77850724Y-68393802D01*
X77856752Y-68391118D01*
X77884159Y-68371206D01*
X77934228Y-68334828D01*
X78011253Y-68278866D01*
X78049203Y-68236718D01*
X78109650Y-68199479D01*
X78180634Y-68200831D01*
X78231934Y-68231934D01*
X78260687Y-68260687D01*
X78294713Y-68322999D01*
X78296598Y-68365574D01*
X78288162Y-68432355D01*
X78287966Y-68446362D01*
X78303186Y-68601585D01*
X78306097Y-68615280D01*
X78355327Y-68763270D01*
X78357729Y-68768468D01*
X78365717Y-68775772D01*
X78374340Y-68772108D01*
X78484129Y-68662319D01*
X78546441Y-68628293D01*
X78617256Y-68633358D01*
X78662319Y-68662319D01*
X78842341Y-68842341D01*
X78876367Y-68904653D01*
X78871302Y-68975468D01*
X78863834Y-68991820D01*
X78858751Y-69001130D01*
X78858882Y-69002966D01*
X78863133Y-69009580D01*
X79037188Y-69183635D01*
X79051132Y-69191249D01*
X79055032Y-69190970D01*
X79119769Y-69171961D01*
X79187890Y-69191962D01*
X79208866Y-69208866D01*
X79392341Y-69392341D01*
X79426367Y-69454653D01*
X79421302Y-69525468D01*
X79413834Y-69541820D01*
X79408751Y-69551130D01*
X79408882Y-69552966D01*
X79413133Y-69559580D01*
X79587188Y-69733635D01*
X79601132Y-69741249D01*
X79605032Y-69740970D01*
X79669769Y-69721961D01*
X79737890Y-69741962D01*
X79758866Y-69758866D01*
X79863095Y-69863095D01*
X79897121Y-69925407D01*
X79900000Y-69952190D01*
X79900000Y-70101363D01*
X79879998Y-70169484D01*
X79863095Y-70190458D01*
X79830999Y-70222554D01*
X79824239Y-70234934D01*
X79827101Y-70238758D01*
X79834333Y-70242702D01*
X79884559Y-70292881D01*
X79900000Y-70353318D01*
X79900000Y-71500000D01*
X84774000Y-71500000D01*
X84842121Y-71520002D01*
X84888614Y-71573658D01*
X84900000Y-71626000D01*
X84900000Y-74174000D01*
X84879998Y-74242121D01*
X84826342Y-74288614D01*
X84774000Y-74300000D01*
X75634000Y-74300000D01*
X75565879Y-74279998D01*
X75519386Y-74226342D01*
X75508000Y-74174000D01*
X75508000Y-70234934D01*
X78724239Y-70234934D01*
X78727022Y-70238652D01*
X78858857Y-70287681D01*
X78872448Y-70291070D01*
X79027044Y-70311697D01*
X79041040Y-70311991D01*
X79196360Y-70297855D01*
X79210085Y-70295038D01*
X79358415Y-70246843D01*
X79367055Y-70242924D01*
X79375430Y-70233891D01*
X79371925Y-70225478D01*
X79062812Y-69916365D01*
X79048868Y-69908751D01*
X79047035Y-69908882D01*
X79040420Y-69913133D01*
X78730999Y-70222554D01*
X78724239Y-70234934D01*
X75508000Y-70234934D01*
X75508000Y-69546362D01*
X78287966Y-69546362D01*
X78303186Y-69701585D01*
X78306097Y-69715280D01*
X78355327Y-69863270D01*
X78357729Y-69868468D01*
X78365717Y-69875772D01*
X78374338Y-69872109D01*
X78683635Y-69562812D01*
X78691249Y-69548868D01*
X78691118Y-69547035D01*
X78686867Y-69540420D01*
X78377039Y-69230592D01*
X78364659Y-69223832D01*
X78361037Y-69226543D01*
X78311001Y-69364016D01*
X78307709Y-69377625D01*
X78288162Y-69532356D01*
X78287966Y-69546362D01*
X75508000Y-69546362D01*
X75508000Y-63526000D01*
X75528002Y-63457879D01*
X75581658Y-63411386D01*
X75634000Y-63400000D01*
X78074000Y-63400000D01*
X78142121Y-63420002D01*
G37*
%TD.AperFunction*%
%TD*%
M02*
