%TF.GenerationSoftware,KiCad,Pcbnew,(6.0.0)*%
%TF.CreationDate,2022-01-21T19:20:27+01:00*%
%TF.ProjectId,DotBot,446f7442-6f74-42e6-9b69-6361645f7063,rev?*%
%TF.SameCoordinates,Original*%
%TF.FileFunction,Legend,Top*%
%TF.FilePolarity,Positive*%
%FSLAX46Y46*%
G04 Gerber Fmt 4.6, Leading zero omitted, Abs format (unit mm)*
G04 Created by KiCad (PCBNEW (6.0.0)) date 2022-01-21 19:20:27*
%MOMM*%
%LPD*%
G01*
G04 APERTURE LIST*
%ADD10C,0.150000*%
%ADD11C,0.105664*%
%ADD12C,0.120000*%
%ADD13C,0.100000*%
G04 APERTURE END LIST*
D10*
X109071428Y-59589285D02*
X109142857Y-59589285D01*
X109214285Y-59625000D01*
X109250000Y-59660714D01*
X109285714Y-59732142D01*
X109321428Y-59875000D01*
X109321428Y-60053571D01*
X109285714Y-60196428D01*
X109250000Y-60267857D01*
X109214285Y-60303571D01*
X109142857Y-60339285D01*
X109071428Y-60339285D01*
X109000000Y-60303571D01*
X108964285Y-60267857D01*
X108928571Y-60196428D01*
X108892857Y-60053571D01*
X108892857Y-59875000D01*
X108928571Y-59732142D01*
X108964285Y-59660714D01*
X109000000Y-59625000D01*
X109071428Y-59589285D01*
X109642857Y-60267857D02*
X109678571Y-60303571D01*
X109642857Y-60339285D01*
X109607142Y-60303571D01*
X109642857Y-60267857D01*
X109642857Y-60339285D01*
X110392857Y-60339285D02*
X109964285Y-60339285D01*
X110178571Y-60339285D02*
X110178571Y-59589285D01*
X110107142Y-59696428D01*
X110035714Y-59767857D01*
X109964285Y-59803571D01*
X111071428Y-59589285D02*
X110714285Y-59589285D01*
X110678571Y-59946428D01*
X110714285Y-59910714D01*
X110785714Y-59875000D01*
X110964285Y-59875000D01*
X111035714Y-59910714D01*
X111071428Y-59946428D01*
X111107142Y-60017857D01*
X111107142Y-60196428D01*
X111071428Y-60267857D01*
X111035714Y-60303571D01*
X110964285Y-60339285D01*
X110785714Y-60339285D01*
X110714285Y-60303571D01*
X110678571Y-60267857D01*
X113075000Y-74121428D02*
X113039285Y-74192857D01*
X113039285Y-74300000D01*
X113075000Y-74407142D01*
X113146428Y-74478571D01*
X113217857Y-74514285D01*
X113360714Y-74550000D01*
X113467857Y-74550000D01*
X113610714Y-74514285D01*
X113682142Y-74478571D01*
X113753571Y-74407142D01*
X113789285Y-74300000D01*
X113789285Y-74228571D01*
X113753571Y-74121428D01*
X113717857Y-74085714D01*
X113467857Y-74085714D01*
X113467857Y-74228571D01*
X113789285Y-73764285D02*
X113039285Y-73764285D01*
X113789285Y-73335714D01*
X113039285Y-73335714D01*
X113789285Y-72978571D02*
X113039285Y-72978571D01*
X113039285Y-72800000D01*
X113075000Y-72692857D01*
X113146428Y-72621428D01*
X113217857Y-72585714D01*
X113360714Y-72550000D01*
X113467857Y-72550000D01*
X113610714Y-72585714D01*
X113682142Y-72621428D01*
X113753571Y-72692857D01*
X113789285Y-72800000D01*
X113789285Y-72978571D01*
X109071428Y-53189285D02*
X109142857Y-53189285D01*
X109214285Y-53225000D01*
X109250000Y-53260714D01*
X109285714Y-53332142D01*
X109321428Y-53475000D01*
X109321428Y-53653571D01*
X109285714Y-53796428D01*
X109250000Y-53867857D01*
X109214285Y-53903571D01*
X109142857Y-53939285D01*
X109071428Y-53939285D01*
X109000000Y-53903571D01*
X108964285Y-53867857D01*
X108928571Y-53796428D01*
X108892857Y-53653571D01*
X108892857Y-53475000D01*
X108928571Y-53332142D01*
X108964285Y-53260714D01*
X109000000Y-53225000D01*
X109071428Y-53189285D01*
X109642857Y-53867857D02*
X109678571Y-53903571D01*
X109642857Y-53939285D01*
X109607142Y-53903571D01*
X109642857Y-53867857D01*
X109642857Y-53939285D01*
X109964285Y-53260714D02*
X110000000Y-53225000D01*
X110071428Y-53189285D01*
X110250000Y-53189285D01*
X110321428Y-53225000D01*
X110357142Y-53260714D01*
X110392857Y-53332142D01*
X110392857Y-53403571D01*
X110357142Y-53510714D01*
X109928571Y-53939285D01*
X110392857Y-53939285D01*
X110857142Y-53189285D02*
X110928571Y-53189285D01*
X111000000Y-53225000D01*
X111035714Y-53260714D01*
X111071428Y-53332142D01*
X111107142Y-53475000D01*
X111107142Y-53653571D01*
X111071428Y-53796428D01*
X111035714Y-53867857D01*
X111000000Y-53903571D01*
X110928571Y-53939285D01*
X110857142Y-53939285D01*
X110785714Y-53903571D01*
X110750000Y-53867857D01*
X110714285Y-53796428D01*
X110678571Y-53653571D01*
X110678571Y-53475000D01*
X110714285Y-53332142D01*
X110750000Y-53260714D01*
X110785714Y-53225000D01*
X110857142Y-53189285D01*
X109071428Y-55789285D02*
X109142857Y-55789285D01*
X109214285Y-55825000D01*
X109250000Y-55860714D01*
X109285714Y-55932142D01*
X109321428Y-56075000D01*
X109321428Y-56253571D01*
X109285714Y-56396428D01*
X109250000Y-56467857D01*
X109214285Y-56503571D01*
X109142857Y-56539285D01*
X109071428Y-56539285D01*
X109000000Y-56503571D01*
X108964285Y-56467857D01*
X108928571Y-56396428D01*
X108892857Y-56253571D01*
X108892857Y-56075000D01*
X108928571Y-55932142D01*
X108964285Y-55860714D01*
X109000000Y-55825000D01*
X109071428Y-55789285D01*
X109642857Y-56467857D02*
X109678571Y-56503571D01*
X109642857Y-56539285D01*
X109607142Y-56503571D01*
X109642857Y-56467857D01*
X109642857Y-56539285D01*
X110142857Y-55789285D02*
X110214285Y-55789285D01*
X110285714Y-55825000D01*
X110321428Y-55860714D01*
X110357142Y-55932142D01*
X110392857Y-56075000D01*
X110392857Y-56253571D01*
X110357142Y-56396428D01*
X110321428Y-56467857D01*
X110285714Y-56503571D01*
X110214285Y-56539285D01*
X110142857Y-56539285D01*
X110071428Y-56503571D01*
X110035714Y-56467857D01*
X110000000Y-56396428D01*
X109964285Y-56253571D01*
X109964285Y-56075000D01*
X110000000Y-55932142D01*
X110035714Y-55860714D01*
X110071428Y-55825000D01*
X110142857Y-55789285D01*
X110642857Y-55789285D02*
X111107142Y-55789285D01*
X110857142Y-56075000D01*
X110964285Y-56075000D01*
X111035714Y-56110714D01*
X111071428Y-56146428D01*
X111107142Y-56217857D01*
X111107142Y-56396428D01*
X111071428Y-56467857D01*
X111035714Y-56503571D01*
X110964285Y-56539285D01*
X110750000Y-56539285D01*
X110678571Y-56503571D01*
X110642857Y-56467857D01*
X111057142Y-68089285D02*
X110914285Y-68089285D01*
X110842857Y-68125000D01*
X110807142Y-68160714D01*
X110735714Y-68267857D01*
X110700000Y-68410714D01*
X110700000Y-68696428D01*
X110735714Y-68767857D01*
X110771428Y-68803571D01*
X110842857Y-68839285D01*
X110985714Y-68839285D01*
X111057142Y-68803571D01*
X111092857Y-68767857D01*
X111128571Y-68696428D01*
X111128571Y-68517857D01*
X111092857Y-68446428D01*
X111057142Y-68410714D01*
X110985714Y-68375000D01*
X110842857Y-68375000D01*
X110771428Y-68410714D01*
X110735714Y-68446428D01*
X110700000Y-68517857D01*
X111378571Y-68339285D02*
X111557142Y-68839285D01*
X111735714Y-68339285D01*
X109321428Y-65439285D02*
X108892857Y-65439285D01*
X109107142Y-65439285D02*
X109107142Y-64689285D01*
X109035714Y-64796428D01*
X108964285Y-64867857D01*
X108892857Y-64903571D01*
X109642857Y-65367857D02*
X109678571Y-65403571D01*
X109642857Y-65439285D01*
X109607142Y-65403571D01*
X109642857Y-65367857D01*
X109642857Y-65439285D01*
X110142857Y-64689285D02*
X110214285Y-64689285D01*
X110285714Y-64725000D01*
X110321428Y-64760714D01*
X110357142Y-64832142D01*
X110392857Y-64975000D01*
X110392857Y-65153571D01*
X110357142Y-65296428D01*
X110321428Y-65367857D01*
X110285714Y-65403571D01*
X110214285Y-65439285D01*
X110142857Y-65439285D01*
X110071428Y-65403571D01*
X110035714Y-65367857D01*
X110000000Y-65296428D01*
X109964285Y-65153571D01*
X109964285Y-64975000D01*
X110000000Y-64832142D01*
X110035714Y-64760714D01*
X110071428Y-64725000D01*
X110142857Y-64689285D01*
X110750000Y-65439285D02*
X110892857Y-65439285D01*
X110964285Y-65403571D01*
X111000000Y-65367857D01*
X111071428Y-65260714D01*
X111107142Y-65117857D01*
X111107142Y-64832142D01*
X111071428Y-64760714D01*
X111035714Y-64725000D01*
X110964285Y-64689285D01*
X110821428Y-64689285D01*
X110750000Y-64725000D01*
X110714285Y-64760714D01*
X110678571Y-64832142D01*
X110678571Y-65010714D01*
X110714285Y-65082142D01*
X110750000Y-65117857D01*
X110821428Y-65153571D01*
X110964285Y-65153571D01*
X111035714Y-65117857D01*
X111071428Y-65082142D01*
X111107142Y-65010714D01*
X109071428Y-54489285D02*
X109142857Y-54489285D01*
X109214285Y-54525000D01*
X109250000Y-54560714D01*
X109285714Y-54632142D01*
X109321428Y-54775000D01*
X109321428Y-54953571D01*
X109285714Y-55096428D01*
X109250000Y-55167857D01*
X109214285Y-55203571D01*
X109142857Y-55239285D01*
X109071428Y-55239285D01*
X109000000Y-55203571D01*
X108964285Y-55167857D01*
X108928571Y-55096428D01*
X108892857Y-54953571D01*
X108892857Y-54775000D01*
X108928571Y-54632142D01*
X108964285Y-54560714D01*
X109000000Y-54525000D01*
X109071428Y-54489285D01*
X109642857Y-55167857D02*
X109678571Y-55203571D01*
X109642857Y-55239285D01*
X109607142Y-55203571D01*
X109642857Y-55167857D01*
X109642857Y-55239285D01*
X110142857Y-54489285D02*
X110214285Y-54489285D01*
X110285714Y-54525000D01*
X110321428Y-54560714D01*
X110357142Y-54632142D01*
X110392857Y-54775000D01*
X110392857Y-54953571D01*
X110357142Y-55096428D01*
X110321428Y-55167857D01*
X110285714Y-55203571D01*
X110214285Y-55239285D01*
X110142857Y-55239285D01*
X110071428Y-55203571D01*
X110035714Y-55167857D01*
X110000000Y-55096428D01*
X109964285Y-54953571D01*
X109964285Y-54775000D01*
X110000000Y-54632142D01*
X110035714Y-54560714D01*
X110071428Y-54525000D01*
X110142857Y-54489285D01*
X111071428Y-54489285D02*
X110714285Y-54489285D01*
X110678571Y-54846428D01*
X110714285Y-54810714D01*
X110785714Y-54775000D01*
X110964285Y-54775000D01*
X111035714Y-54810714D01*
X111071428Y-54846428D01*
X111107142Y-54917857D01*
X111107142Y-55096428D01*
X111071428Y-55167857D01*
X111035714Y-55203571D01*
X110964285Y-55239285D01*
X110785714Y-55239285D01*
X110714285Y-55203571D01*
X110678571Y-55167857D01*
X109071428Y-51989285D02*
X109142857Y-51989285D01*
X109214285Y-52025000D01*
X109250000Y-52060714D01*
X109285714Y-52132142D01*
X109321428Y-52275000D01*
X109321428Y-52453571D01*
X109285714Y-52596428D01*
X109250000Y-52667857D01*
X109214285Y-52703571D01*
X109142857Y-52739285D01*
X109071428Y-52739285D01*
X109000000Y-52703571D01*
X108964285Y-52667857D01*
X108928571Y-52596428D01*
X108892857Y-52453571D01*
X108892857Y-52275000D01*
X108928571Y-52132142D01*
X108964285Y-52060714D01*
X109000000Y-52025000D01*
X109071428Y-51989285D01*
X109642857Y-52667857D02*
X109678571Y-52703571D01*
X109642857Y-52739285D01*
X109607142Y-52703571D01*
X109642857Y-52667857D01*
X109642857Y-52739285D01*
X109964285Y-52060714D02*
X110000000Y-52025000D01*
X110071428Y-51989285D01*
X110250000Y-51989285D01*
X110321428Y-52025000D01*
X110357142Y-52060714D01*
X110392857Y-52132142D01*
X110392857Y-52203571D01*
X110357142Y-52310714D01*
X109928571Y-52739285D01*
X110392857Y-52739285D01*
X110750000Y-52739285D02*
X110892857Y-52739285D01*
X110964285Y-52703571D01*
X111000000Y-52667857D01*
X111071428Y-52560714D01*
X111107142Y-52417857D01*
X111107142Y-52132142D01*
X111071428Y-52060714D01*
X111035714Y-52025000D01*
X110964285Y-51989285D01*
X110821428Y-51989285D01*
X110750000Y-52025000D01*
X110714285Y-52060714D01*
X110678571Y-52132142D01*
X110678571Y-52310714D01*
X110714285Y-52382142D01*
X110750000Y-52417857D01*
X110821428Y-52453571D01*
X110964285Y-52453571D01*
X111035714Y-52417857D01*
X111071428Y-52382142D01*
X111107142Y-52310714D01*
X109071428Y-58389285D02*
X109142857Y-58389285D01*
X109214285Y-58425000D01*
X109250000Y-58460714D01*
X109285714Y-58532142D01*
X109321428Y-58675000D01*
X109321428Y-58853571D01*
X109285714Y-58996428D01*
X109250000Y-59067857D01*
X109214285Y-59103571D01*
X109142857Y-59139285D01*
X109071428Y-59139285D01*
X109000000Y-59103571D01*
X108964285Y-59067857D01*
X108928571Y-58996428D01*
X108892857Y-58853571D01*
X108892857Y-58675000D01*
X108928571Y-58532142D01*
X108964285Y-58460714D01*
X109000000Y-58425000D01*
X109071428Y-58389285D01*
X109642857Y-59067857D02*
X109678571Y-59103571D01*
X109642857Y-59139285D01*
X109607142Y-59103571D01*
X109642857Y-59067857D01*
X109642857Y-59139285D01*
X110392857Y-59139285D02*
X109964285Y-59139285D01*
X110178571Y-59139285D02*
X110178571Y-58389285D01*
X110107142Y-58496428D01*
X110035714Y-58567857D01*
X109964285Y-58603571D01*
X110642857Y-58389285D02*
X111142857Y-58389285D01*
X110821428Y-59139285D01*
X109071428Y-62189285D02*
X109142857Y-62189285D01*
X109214285Y-62225000D01*
X109250000Y-62260714D01*
X109285714Y-62332142D01*
X109321428Y-62475000D01*
X109321428Y-62653571D01*
X109285714Y-62796428D01*
X109250000Y-62867857D01*
X109214285Y-62903571D01*
X109142857Y-62939285D01*
X109071428Y-62939285D01*
X109000000Y-62903571D01*
X108964285Y-62867857D01*
X108928571Y-62796428D01*
X108892857Y-62653571D01*
X108892857Y-62475000D01*
X108928571Y-62332142D01*
X108964285Y-62260714D01*
X109000000Y-62225000D01*
X109071428Y-62189285D01*
X109642857Y-62867857D02*
X109678571Y-62903571D01*
X109642857Y-62939285D01*
X109607142Y-62903571D01*
X109642857Y-62867857D01*
X109642857Y-62939285D01*
X110142857Y-62189285D02*
X110214285Y-62189285D01*
X110285714Y-62225000D01*
X110321428Y-62260714D01*
X110357142Y-62332142D01*
X110392857Y-62475000D01*
X110392857Y-62653571D01*
X110357142Y-62796428D01*
X110321428Y-62867857D01*
X110285714Y-62903571D01*
X110214285Y-62939285D01*
X110142857Y-62939285D01*
X110071428Y-62903571D01*
X110035714Y-62867857D01*
X110000000Y-62796428D01*
X109964285Y-62653571D01*
X109964285Y-62475000D01*
X110000000Y-62332142D01*
X110035714Y-62260714D01*
X110071428Y-62225000D01*
X110142857Y-62189285D01*
X110678571Y-62260714D02*
X110714285Y-62225000D01*
X110785714Y-62189285D01*
X110964285Y-62189285D01*
X111035714Y-62225000D01*
X111071428Y-62260714D01*
X111107142Y-62332142D01*
X111107142Y-62403571D01*
X111071428Y-62510714D01*
X110642857Y-62939285D01*
X111107142Y-62939285D01*
X103239285Y-71378571D02*
X103239285Y-71307142D01*
X103275000Y-71235714D01*
X103310714Y-71200000D01*
X103382142Y-71164285D01*
X103525000Y-71128571D01*
X103703571Y-71128571D01*
X103846428Y-71164285D01*
X103917857Y-71200000D01*
X103953571Y-71235714D01*
X103989285Y-71307142D01*
X103989285Y-71378571D01*
X103953571Y-71450000D01*
X103917857Y-71485714D01*
X103846428Y-71521428D01*
X103703571Y-71557142D01*
X103525000Y-71557142D01*
X103382142Y-71521428D01*
X103310714Y-71485714D01*
X103275000Y-71450000D01*
X103239285Y-71378571D01*
X103917857Y-70807142D02*
X103953571Y-70771428D01*
X103989285Y-70807142D01*
X103953571Y-70842857D01*
X103917857Y-70807142D01*
X103989285Y-70807142D01*
X103989285Y-70057142D02*
X103989285Y-70485714D01*
X103989285Y-70271428D02*
X103239285Y-70271428D01*
X103346428Y-70342857D01*
X103417857Y-70414285D01*
X103453571Y-70485714D01*
X103239285Y-69592857D02*
X103239285Y-69521428D01*
X103275000Y-69450000D01*
X103310714Y-69414285D01*
X103382142Y-69378571D01*
X103525000Y-69342857D01*
X103703571Y-69342857D01*
X103846428Y-69378571D01*
X103917857Y-69414285D01*
X103953571Y-69450000D01*
X103989285Y-69521428D01*
X103989285Y-69592857D01*
X103953571Y-69664285D01*
X103917857Y-69700000D01*
X103846428Y-69735714D01*
X103703571Y-69771428D01*
X103525000Y-69771428D01*
X103382142Y-69735714D01*
X103310714Y-69700000D01*
X103275000Y-69664285D01*
X103239285Y-69592857D01*
X109071428Y-60889285D02*
X109142857Y-60889285D01*
X109214285Y-60925000D01*
X109250000Y-60960714D01*
X109285714Y-61032142D01*
X109321428Y-61175000D01*
X109321428Y-61353571D01*
X109285714Y-61496428D01*
X109250000Y-61567857D01*
X109214285Y-61603571D01*
X109142857Y-61639285D01*
X109071428Y-61639285D01*
X109000000Y-61603571D01*
X108964285Y-61567857D01*
X108928571Y-61496428D01*
X108892857Y-61353571D01*
X108892857Y-61175000D01*
X108928571Y-61032142D01*
X108964285Y-60960714D01*
X109000000Y-60925000D01*
X109071428Y-60889285D01*
X109642857Y-61567857D02*
X109678571Y-61603571D01*
X109642857Y-61639285D01*
X109607142Y-61603571D01*
X109642857Y-61567857D01*
X109642857Y-61639285D01*
X110392857Y-61639285D02*
X109964285Y-61639285D01*
X110178571Y-61639285D02*
X110178571Y-60889285D01*
X110107142Y-60996428D01*
X110035714Y-61067857D01*
X109964285Y-61103571D01*
X111107142Y-61639285D02*
X110678571Y-61639285D01*
X110892857Y-61639285D02*
X110892857Y-60889285D01*
X110821428Y-60996428D01*
X110750000Y-61067857D01*
X110678571Y-61103571D01*
X107721428Y-75239285D02*
X107792857Y-75239285D01*
X107864285Y-75275000D01*
X107900000Y-75310714D01*
X107935714Y-75382142D01*
X107971428Y-75525000D01*
X107971428Y-75703571D01*
X107935714Y-75846428D01*
X107900000Y-75917857D01*
X107864285Y-75953571D01*
X107792857Y-75989285D01*
X107721428Y-75989285D01*
X107650000Y-75953571D01*
X107614285Y-75917857D01*
X107578571Y-75846428D01*
X107542857Y-75703571D01*
X107542857Y-75525000D01*
X107578571Y-75382142D01*
X107614285Y-75310714D01*
X107650000Y-75275000D01*
X107721428Y-75239285D01*
X108292857Y-75917857D02*
X108328571Y-75953571D01*
X108292857Y-75989285D01*
X108257142Y-75953571D01*
X108292857Y-75917857D01*
X108292857Y-75989285D01*
X108792857Y-75239285D02*
X108864285Y-75239285D01*
X108935714Y-75275000D01*
X108971428Y-75310714D01*
X109007142Y-75382142D01*
X109042857Y-75525000D01*
X109042857Y-75703571D01*
X109007142Y-75846428D01*
X108971428Y-75917857D01*
X108935714Y-75953571D01*
X108864285Y-75989285D01*
X108792857Y-75989285D01*
X108721428Y-75953571D01*
X108685714Y-75917857D01*
X108650000Y-75846428D01*
X108614285Y-75703571D01*
X108614285Y-75525000D01*
X108650000Y-75382142D01*
X108685714Y-75310714D01*
X108721428Y-75275000D01*
X108792857Y-75239285D01*
X109400000Y-75989285D02*
X109542857Y-75989285D01*
X109614285Y-75953571D01*
X109650000Y-75917857D01*
X109721428Y-75810714D01*
X109757142Y-75667857D01*
X109757142Y-75382142D01*
X109721428Y-75310714D01*
X109685714Y-75275000D01*
X109614285Y-75239285D01*
X109471428Y-75239285D01*
X109400000Y-75275000D01*
X109364285Y-75310714D01*
X109328571Y-75382142D01*
X109328571Y-75560714D01*
X109364285Y-75632142D01*
X109400000Y-75667857D01*
X109471428Y-75703571D01*
X109614285Y-75703571D01*
X109685714Y-75667857D01*
X109721428Y-75632142D01*
X109757142Y-75560714D01*
X109071428Y-50689285D02*
X109142857Y-50689285D01*
X109214285Y-50725000D01*
X109250000Y-50760714D01*
X109285714Y-50832142D01*
X109321428Y-50975000D01*
X109321428Y-51153571D01*
X109285714Y-51296428D01*
X109250000Y-51367857D01*
X109214285Y-51403571D01*
X109142857Y-51439285D01*
X109071428Y-51439285D01*
X109000000Y-51403571D01*
X108964285Y-51367857D01*
X108928571Y-51296428D01*
X108892857Y-51153571D01*
X108892857Y-50975000D01*
X108928571Y-50832142D01*
X108964285Y-50760714D01*
X109000000Y-50725000D01*
X109071428Y-50689285D01*
X109642857Y-51367857D02*
X109678571Y-51403571D01*
X109642857Y-51439285D01*
X109607142Y-51403571D01*
X109642857Y-51367857D01*
X109642857Y-51439285D01*
X109928571Y-50689285D02*
X110392857Y-50689285D01*
X110142857Y-50975000D01*
X110250000Y-50975000D01*
X110321428Y-51010714D01*
X110357142Y-51046428D01*
X110392857Y-51117857D01*
X110392857Y-51296428D01*
X110357142Y-51367857D01*
X110321428Y-51403571D01*
X110250000Y-51439285D01*
X110035714Y-51439285D01*
X109964285Y-51403571D01*
X109928571Y-51367857D01*
X110857142Y-50689285D02*
X110928571Y-50689285D01*
X111000000Y-50725000D01*
X111035714Y-50760714D01*
X111071428Y-50832142D01*
X111107142Y-50975000D01*
X111107142Y-51153571D01*
X111071428Y-51296428D01*
X111035714Y-51367857D01*
X111000000Y-51403571D01*
X110928571Y-51439285D01*
X110857142Y-51439285D01*
X110785714Y-51403571D01*
X110750000Y-51367857D01*
X110714285Y-51296428D01*
X110678571Y-51153571D01*
X110678571Y-50975000D01*
X110714285Y-50832142D01*
X110750000Y-50760714D01*
X110785714Y-50725000D01*
X110857142Y-50689285D01*
X109071428Y-57089285D02*
X109142857Y-57089285D01*
X109214285Y-57125000D01*
X109250000Y-57160714D01*
X109285714Y-57232142D01*
X109321428Y-57375000D01*
X109321428Y-57553571D01*
X109285714Y-57696428D01*
X109250000Y-57767857D01*
X109214285Y-57803571D01*
X109142857Y-57839285D01*
X109071428Y-57839285D01*
X109000000Y-57803571D01*
X108964285Y-57767857D01*
X108928571Y-57696428D01*
X108892857Y-57553571D01*
X108892857Y-57375000D01*
X108928571Y-57232142D01*
X108964285Y-57160714D01*
X109000000Y-57125000D01*
X109071428Y-57089285D01*
X109642857Y-57767857D02*
X109678571Y-57803571D01*
X109642857Y-57839285D01*
X109607142Y-57803571D01*
X109642857Y-57767857D01*
X109642857Y-57839285D01*
X110142857Y-57089285D02*
X110214285Y-57089285D01*
X110285714Y-57125000D01*
X110321428Y-57160714D01*
X110357142Y-57232142D01*
X110392857Y-57375000D01*
X110392857Y-57553571D01*
X110357142Y-57696428D01*
X110321428Y-57767857D01*
X110285714Y-57803571D01*
X110214285Y-57839285D01*
X110142857Y-57839285D01*
X110071428Y-57803571D01*
X110035714Y-57767857D01*
X110000000Y-57696428D01*
X109964285Y-57553571D01*
X109964285Y-57375000D01*
X110000000Y-57232142D01*
X110035714Y-57160714D01*
X110071428Y-57125000D01*
X110142857Y-57089285D01*
X111035714Y-57339285D02*
X111035714Y-57839285D01*
X110857142Y-57053571D02*
X110678571Y-57589285D01*
X111142857Y-57589285D01*
X103239285Y-74678571D02*
X103239285Y-74607142D01*
X103275000Y-74535714D01*
X103310714Y-74500000D01*
X103382142Y-74464285D01*
X103525000Y-74428571D01*
X103703571Y-74428571D01*
X103846428Y-74464285D01*
X103917857Y-74500000D01*
X103953571Y-74535714D01*
X103989285Y-74607142D01*
X103989285Y-74678571D01*
X103953571Y-74750000D01*
X103917857Y-74785714D01*
X103846428Y-74821428D01*
X103703571Y-74857142D01*
X103525000Y-74857142D01*
X103382142Y-74821428D01*
X103310714Y-74785714D01*
X103275000Y-74750000D01*
X103239285Y-74678571D01*
X103917857Y-74107142D02*
X103953571Y-74071428D01*
X103989285Y-74107142D01*
X103953571Y-74142857D01*
X103917857Y-74107142D01*
X103989285Y-74107142D01*
X103239285Y-73821428D02*
X103239285Y-73357142D01*
X103525000Y-73607142D01*
X103525000Y-73500000D01*
X103560714Y-73428571D01*
X103596428Y-73392857D01*
X103667857Y-73357142D01*
X103846428Y-73357142D01*
X103917857Y-73392857D01*
X103953571Y-73428571D01*
X103989285Y-73500000D01*
X103989285Y-73714285D01*
X103953571Y-73785714D01*
X103917857Y-73821428D01*
X103989285Y-72642857D02*
X103989285Y-73071428D01*
X103989285Y-72857142D02*
X103239285Y-72857142D01*
X103346428Y-72928571D01*
X103417857Y-73000000D01*
X103453571Y-73071428D01*
X107550000Y-68039285D02*
X107800000Y-68789285D01*
X108050000Y-68039285D01*
X108300000Y-68789285D02*
X108300000Y-68039285D01*
X108478571Y-68039285D01*
X108585714Y-68075000D01*
X108657142Y-68146428D01*
X108692857Y-68217857D01*
X108728571Y-68360714D01*
X108728571Y-68467857D01*
X108692857Y-68610714D01*
X108657142Y-68682142D01*
X108585714Y-68753571D01*
X108478571Y-68789285D01*
X108300000Y-68789285D01*
X109050000Y-68789285D02*
X109050000Y-68039285D01*
X109228571Y-68039285D01*
X109335714Y-68075000D01*
X109407142Y-68146428D01*
X109442857Y-68217857D01*
X109478571Y-68360714D01*
X109478571Y-68467857D01*
X109442857Y-68610714D01*
X109407142Y-68682142D01*
X109335714Y-68753571D01*
X109228571Y-68789285D01*
X109050000Y-68789285D01*
X109071428Y-63389285D02*
X109142857Y-63389285D01*
X109214285Y-63425000D01*
X109250000Y-63460714D01*
X109285714Y-63532142D01*
X109321428Y-63675000D01*
X109321428Y-63853571D01*
X109285714Y-63996428D01*
X109250000Y-64067857D01*
X109214285Y-64103571D01*
X109142857Y-64139285D01*
X109071428Y-64139285D01*
X109000000Y-64103571D01*
X108964285Y-64067857D01*
X108928571Y-63996428D01*
X108892857Y-63853571D01*
X108892857Y-63675000D01*
X108928571Y-63532142D01*
X108964285Y-63460714D01*
X109000000Y-63425000D01*
X109071428Y-63389285D01*
X109642857Y-64067857D02*
X109678571Y-64103571D01*
X109642857Y-64139285D01*
X109607142Y-64103571D01*
X109642857Y-64067857D01*
X109642857Y-64139285D01*
X109964285Y-63460714D02*
X110000000Y-63425000D01*
X110071428Y-63389285D01*
X110250000Y-63389285D01*
X110321428Y-63425000D01*
X110357142Y-63460714D01*
X110392857Y-63532142D01*
X110392857Y-63603571D01*
X110357142Y-63710714D01*
X109928571Y-64139285D01*
X110392857Y-64139285D01*
X110821428Y-63710714D02*
X110750000Y-63675000D01*
X110714285Y-63639285D01*
X110678571Y-63567857D01*
X110678571Y-63532142D01*
X110714285Y-63460714D01*
X110750000Y-63425000D01*
X110821428Y-63389285D01*
X110964285Y-63389285D01*
X111035714Y-63425000D01*
X111071428Y-63460714D01*
X111107142Y-63532142D01*
X111107142Y-63567857D01*
X111071428Y-63639285D01*
X111035714Y-63675000D01*
X110964285Y-63710714D01*
X110821428Y-63710714D01*
X110750000Y-63746428D01*
X110714285Y-63782142D01*
X110678571Y-63853571D01*
X110678571Y-63996428D01*
X110714285Y-64067857D01*
X110750000Y-64103571D01*
X110821428Y-64139285D01*
X110964285Y-64139285D01*
X111035714Y-64103571D01*
X111071428Y-64067857D01*
X111107142Y-63996428D01*
X111107142Y-63853571D01*
X111071428Y-63782142D01*
X111035714Y-63746428D01*
X110964285Y-63710714D01*
%TO.C,3.3v*%
X75457142Y-52961904D02*
X75952380Y-52961904D01*
X75685714Y-53266666D01*
X75800000Y-53266666D01*
X75876190Y-53304761D01*
X75914285Y-53342857D01*
X75952380Y-53419047D01*
X75952380Y-53609523D01*
X75914285Y-53685714D01*
X75876190Y-53723809D01*
X75800000Y-53761904D01*
X75571428Y-53761904D01*
X75495238Y-53723809D01*
X75457142Y-53685714D01*
X76295238Y-53685714D02*
X76333333Y-53723809D01*
X76295238Y-53761904D01*
X76257142Y-53723809D01*
X76295238Y-53685714D01*
X76295238Y-53761904D01*
X76600000Y-52961904D02*
X77095238Y-52961904D01*
X76828571Y-53266666D01*
X76942857Y-53266666D01*
X77019047Y-53304761D01*
X77057142Y-53342857D01*
X77095238Y-53419047D01*
X77095238Y-53609523D01*
X77057142Y-53685714D01*
X77019047Y-53723809D01*
X76942857Y-53761904D01*
X76714285Y-53761904D01*
X76638095Y-53723809D01*
X76600000Y-53685714D01*
X77361904Y-53228571D02*
X77552380Y-53761904D01*
X77742857Y-53228571D01*
%TO.C,pg*%
X75566666Y-61628571D02*
X75566666Y-62428571D01*
X75566666Y-61666666D02*
X75642857Y-61628571D01*
X75795238Y-61628571D01*
X75871428Y-61666666D01*
X75909523Y-61704761D01*
X75947619Y-61780952D01*
X75947619Y-62009523D01*
X75909523Y-62085714D01*
X75871428Y-62123809D01*
X75795238Y-62161904D01*
X75642857Y-62161904D01*
X75566666Y-62123809D01*
X76633333Y-61628571D02*
X76633333Y-62276190D01*
X76595238Y-62352380D01*
X76557142Y-62390476D01*
X76480952Y-62428571D01*
X76366666Y-62428571D01*
X76290476Y-62390476D01*
X76633333Y-62123809D02*
X76557142Y-62161904D01*
X76404761Y-62161904D01*
X76328571Y-62123809D01*
X76290476Y-62085714D01*
X76252380Y-62009523D01*
X76252380Y-61780952D01*
X76290476Y-61704761D01*
X76328571Y-61666666D01*
X76404761Y-61628571D01*
X76557142Y-61628571D01*
X76633333Y-61666666D01*
%TO.C,6v*%
X86447619Y-73461904D02*
X86295238Y-73461904D01*
X86219047Y-73500000D01*
X86180952Y-73538095D01*
X86104761Y-73652380D01*
X86066666Y-73804761D01*
X86066666Y-74109523D01*
X86104761Y-74185714D01*
X86142857Y-74223809D01*
X86219047Y-74261904D01*
X86371428Y-74261904D01*
X86447619Y-74223809D01*
X86485714Y-74185714D01*
X86523809Y-74109523D01*
X86523809Y-73919047D01*
X86485714Y-73842857D01*
X86447619Y-73804761D01*
X86371428Y-73766666D01*
X86219047Y-73766666D01*
X86142857Y-73804761D01*
X86104761Y-73842857D01*
X86066666Y-73919047D01*
X86790476Y-73728571D02*
X86980952Y-74261904D01*
X87171428Y-73728571D01*
%TO.C,GND*%
X100990476Y-70102000D02*
X100914285Y-70063904D01*
X100800000Y-70063904D01*
X100685714Y-70102000D01*
X100609523Y-70178190D01*
X100571428Y-70254380D01*
X100533333Y-70406761D01*
X100533333Y-70521047D01*
X100571428Y-70673428D01*
X100609523Y-70749619D01*
X100685714Y-70825809D01*
X100800000Y-70863904D01*
X100876190Y-70863904D01*
X100990476Y-70825809D01*
X101028571Y-70787714D01*
X101028571Y-70521047D01*
X100876190Y-70521047D01*
X101371428Y-70863904D02*
X101371428Y-70063904D01*
X101828571Y-70863904D01*
X101828571Y-70063904D01*
X102209523Y-70863904D02*
X102209523Y-70063904D01*
X102400000Y-70063904D01*
X102514285Y-70102000D01*
X102590476Y-70178190D01*
X102628571Y-70254380D01*
X102666666Y-70406761D01*
X102666666Y-70521047D01*
X102628571Y-70673428D01*
X102590476Y-70749619D01*
X102514285Y-70825809D01*
X102400000Y-70863904D01*
X102209523Y-70863904D01*
%TO.C,U4*%
X80872410Y-52002380D02*
X80872410Y-52811904D01*
X80920029Y-52907142D01*
X80967648Y-52954761D01*
X81062886Y-53002380D01*
X81253362Y-53002380D01*
X81348600Y-52954761D01*
X81396219Y-52907142D01*
X81443838Y-52811904D01*
X81443838Y-52002380D01*
X82348600Y-52335714D02*
X82348600Y-53002380D01*
X82110505Y-51954761D02*
X81872410Y-52669047D01*
X82491457Y-52669047D01*
%TO.C,C1*%
X84421457Y-50516666D02*
X84469076Y-50564285D01*
X84516695Y-50707142D01*
X84516695Y-50802380D01*
X84469076Y-50945238D01*
X84373838Y-51040476D01*
X84278600Y-51088095D01*
X84088124Y-51135714D01*
X83945267Y-51135714D01*
X83754791Y-51088095D01*
X83659553Y-51040476D01*
X83564315Y-50945238D01*
X83516695Y-50802380D01*
X83516695Y-50707142D01*
X83564315Y-50564285D01*
X83611934Y-50516666D01*
X84516695Y-49564285D02*
X84516695Y-50135714D01*
X84516695Y-49850000D02*
X83516695Y-49850000D01*
X83659553Y-49945238D01*
X83754791Y-50040476D01*
X83802410Y-50135714D01*
%TO.C,C2*%
X77567648Y-48577142D02*
X77520029Y-48624761D01*
X77377172Y-48672380D01*
X77281934Y-48672380D01*
X77139076Y-48624761D01*
X77043838Y-48529523D01*
X76996219Y-48434285D01*
X76948600Y-48243809D01*
X76948600Y-48100952D01*
X76996219Y-47910476D01*
X77043838Y-47815238D01*
X77139076Y-47720000D01*
X77281934Y-47672380D01*
X77377172Y-47672380D01*
X77520029Y-47720000D01*
X77567648Y-47767619D01*
X77948600Y-47767619D02*
X77996219Y-47720000D01*
X78091457Y-47672380D01*
X78329553Y-47672380D01*
X78424791Y-47720000D01*
X78472410Y-47767619D01*
X78520029Y-47862857D01*
X78520029Y-47958095D01*
X78472410Y-48100952D01*
X77900981Y-48672380D01*
X78520029Y-48672380D01*
%TO.C,D1*%
X80496219Y-44202380D02*
X80496219Y-43202380D01*
X80734315Y-43202380D01*
X80877172Y-43250000D01*
X80972410Y-43345238D01*
X81020029Y-43440476D01*
X81067648Y-43630952D01*
X81067648Y-43773809D01*
X81020029Y-43964285D01*
X80972410Y-44059523D01*
X80877172Y-44154761D01*
X80734315Y-44202380D01*
X80496219Y-44202380D01*
X82020029Y-44202380D02*
X81448600Y-44202380D01*
X81734315Y-44202380D02*
X81734315Y-43202380D01*
X81639076Y-43345238D01*
X81543838Y-43440476D01*
X81448600Y-43488095D01*
%TO.C,J1*%
X90483333Y-80911904D02*
X90483333Y-81483333D01*
X90445238Y-81597619D01*
X90369047Y-81673809D01*
X90254761Y-81711904D01*
X90178571Y-81711904D01*
X91283333Y-81711904D02*
X90826190Y-81711904D01*
X91054761Y-81711904D02*
X91054761Y-80911904D01*
X90978571Y-81026190D01*
X90902380Y-81102380D01*
X90826190Y-81140476D01*
%TO.C,J2*%
X99933333Y-80961904D02*
X99933333Y-81533333D01*
X99895238Y-81647619D01*
X99819047Y-81723809D01*
X99704761Y-81761904D01*
X99628571Y-81761904D01*
X100276190Y-81038095D02*
X100314285Y-81000000D01*
X100390476Y-80961904D01*
X100580952Y-80961904D01*
X100657142Y-81000000D01*
X100695238Y-81038095D01*
X100733333Y-81114285D01*
X100733333Y-81190476D01*
X100695238Y-81304761D01*
X100238095Y-81761904D01*
X100733333Y-81761904D01*
%TO.C,R2*%
X76233333Y-52252380D02*
X75900000Y-51776190D01*
X75661904Y-52252380D02*
X75661904Y-51252380D01*
X76042857Y-51252380D01*
X76138095Y-51300000D01*
X76185714Y-51347619D01*
X76233333Y-51442857D01*
X76233333Y-51585714D01*
X76185714Y-51680952D01*
X76138095Y-51728571D01*
X76042857Y-51776190D01*
X75661904Y-51776190D01*
X76614285Y-51347619D02*
X76661904Y-51300000D01*
X76757142Y-51252380D01*
X76995238Y-51252380D01*
X77090476Y-51300000D01*
X77138095Y-51347619D01*
X77185714Y-51442857D01*
X77185714Y-51538095D01*
X77138095Y-51680952D01*
X76566666Y-52252380D01*
X77185714Y-52252380D01*
%TO.C,R5*%
X95175000Y-54539285D02*
X94925000Y-54182142D01*
X94746428Y-54539285D02*
X94746428Y-53789285D01*
X95032142Y-53789285D01*
X95103571Y-53825000D01*
X95139285Y-53860714D01*
X95175000Y-53932142D01*
X95175000Y-54039285D01*
X95139285Y-54110714D01*
X95103571Y-54146428D01*
X95032142Y-54182142D01*
X94746428Y-54182142D01*
X95853571Y-53789285D02*
X95496428Y-53789285D01*
X95460714Y-54146428D01*
X95496428Y-54110714D01*
X95567857Y-54075000D01*
X95746428Y-54075000D01*
X95817857Y-54110714D01*
X95853571Y-54146428D01*
X95889285Y-54217857D01*
X95889285Y-54396428D01*
X95853571Y-54467857D01*
X95817857Y-54503571D01*
X95746428Y-54539285D01*
X95567857Y-54539285D01*
X95496428Y-54503571D01*
X95460714Y-54467857D01*
%TO.C,J4*%
X95966666Y-61452380D02*
X95966666Y-62166666D01*
X95919047Y-62309523D01*
X95823809Y-62404761D01*
X95680952Y-62452380D01*
X95585714Y-62452380D01*
X96871428Y-61785714D02*
X96871428Y-62452380D01*
X96633333Y-61404761D02*
X96395238Y-62119047D01*
X97014285Y-62119047D01*
%TO.C,C3*%
X82033333Y-78157142D02*
X81985714Y-78204761D01*
X81842857Y-78252380D01*
X81747619Y-78252380D01*
X81604761Y-78204761D01*
X81509523Y-78109523D01*
X81461904Y-78014285D01*
X81414285Y-77823809D01*
X81414285Y-77680952D01*
X81461904Y-77490476D01*
X81509523Y-77395238D01*
X81604761Y-77300000D01*
X81747619Y-77252380D01*
X81842857Y-77252380D01*
X81985714Y-77300000D01*
X82033333Y-77347619D01*
X82366666Y-77252380D02*
X82985714Y-77252380D01*
X82652380Y-77633333D01*
X82795238Y-77633333D01*
X82890476Y-77680952D01*
X82938095Y-77728571D01*
X82985714Y-77823809D01*
X82985714Y-78061904D01*
X82938095Y-78157142D01*
X82890476Y-78204761D01*
X82795238Y-78252380D01*
X82509523Y-78252380D01*
X82414285Y-78204761D01*
X82366666Y-78157142D01*
%TO.C,C4*%
X107933333Y-77557142D02*
X107885714Y-77604761D01*
X107742857Y-77652380D01*
X107647619Y-77652380D01*
X107504761Y-77604761D01*
X107409523Y-77509523D01*
X107361904Y-77414285D01*
X107314285Y-77223809D01*
X107314285Y-77080952D01*
X107361904Y-76890476D01*
X107409523Y-76795238D01*
X107504761Y-76700000D01*
X107647619Y-76652380D01*
X107742857Y-76652380D01*
X107885714Y-76700000D01*
X107933333Y-76747619D01*
X108790476Y-76985714D02*
X108790476Y-77652380D01*
X108552380Y-76604761D02*
X108314285Y-77319047D01*
X108933333Y-77319047D01*
%TO.C,R4*%
X93833333Y-80502380D02*
X93500000Y-80026190D01*
X93261904Y-80502380D02*
X93261904Y-79502380D01*
X93642857Y-79502380D01*
X93738095Y-79550000D01*
X93785714Y-79597619D01*
X93833333Y-79692857D01*
X93833333Y-79835714D01*
X93785714Y-79930952D01*
X93738095Y-79978571D01*
X93642857Y-80026190D01*
X93261904Y-80026190D01*
X94690476Y-79835714D02*
X94690476Y-80502380D01*
X94452380Y-79454761D02*
X94214285Y-80169047D01*
X94833333Y-80169047D01*
%TO.C,C12*%
X76535714Y-60651785D02*
X76573809Y-60689880D01*
X76611904Y-60804166D01*
X76611904Y-60880357D01*
X76573809Y-60994642D01*
X76497619Y-61070833D01*
X76421428Y-61108928D01*
X76269047Y-61147023D01*
X76154761Y-61147023D01*
X76002380Y-61108928D01*
X75926190Y-61070833D01*
X75850000Y-60994642D01*
X75811904Y-60880357D01*
X75811904Y-60804166D01*
X75850000Y-60689880D01*
X75888095Y-60651785D01*
X76611904Y-59889880D02*
X76611904Y-60347023D01*
X76611904Y-60118452D02*
X75811904Y-60118452D01*
X75926190Y-60194642D01*
X76002380Y-60270833D01*
X76040476Y-60347023D01*
X75888095Y-59585119D02*
X75850000Y-59547023D01*
X75811904Y-59470833D01*
X75811904Y-59280357D01*
X75850000Y-59204166D01*
X75888095Y-59166071D01*
X75964285Y-59127976D01*
X76040476Y-59127976D01*
X76154761Y-59166071D01*
X76611904Y-59623214D01*
X76611904Y-59127976D01*
%TO.C,R3*%
X97133333Y-80502380D02*
X96800000Y-80026190D01*
X96561904Y-80502380D02*
X96561904Y-79502380D01*
X96942857Y-79502380D01*
X97038095Y-79550000D01*
X97085714Y-79597619D01*
X97133333Y-79692857D01*
X97133333Y-79835714D01*
X97085714Y-79930952D01*
X97038095Y-79978571D01*
X96942857Y-80026190D01*
X96561904Y-80026190D01*
X97466666Y-79502380D02*
X98085714Y-79502380D01*
X97752380Y-79883333D01*
X97895238Y-79883333D01*
X97990476Y-79930952D01*
X98038095Y-79978571D01*
X98085714Y-80073809D01*
X98085714Y-80311904D01*
X98038095Y-80407142D01*
X97990476Y-80454761D01*
X97895238Y-80502380D01*
X97609523Y-80502380D01*
X97514285Y-80454761D01*
X97466666Y-80407142D01*
%TO.C,U2*%
X107652380Y-80661904D02*
X108461904Y-80661904D01*
X108557142Y-80614285D01*
X108604761Y-80566666D01*
X108652380Y-80471428D01*
X108652380Y-80280952D01*
X108604761Y-80185714D01*
X108557142Y-80138095D01*
X108461904Y-80090476D01*
X107652380Y-80090476D01*
X107747619Y-79661904D02*
X107700000Y-79614285D01*
X107652380Y-79519047D01*
X107652380Y-79280952D01*
X107700000Y-79185714D01*
X107747619Y-79138095D01*
X107842857Y-79090476D01*
X107938095Y-79090476D01*
X108080952Y-79138095D01*
X108652380Y-79709523D01*
X108652380Y-79090476D01*
%TO.C,U1*%
X81952380Y-81361904D02*
X82761904Y-81361904D01*
X82857142Y-81314285D01*
X82904761Y-81266666D01*
X82952380Y-81171428D01*
X82952380Y-80980952D01*
X82904761Y-80885714D01*
X82857142Y-80838095D01*
X82761904Y-80790476D01*
X81952380Y-80790476D01*
X82952380Y-79790476D02*
X82952380Y-80361904D01*
X82952380Y-80076190D02*
X81952380Y-80076190D01*
X82095238Y-80171428D01*
X82190476Y-80266666D01*
X82238095Y-80361904D01*
%TO.C,C9*%
X90116666Y-58535714D02*
X90078571Y-58573809D01*
X89964285Y-58611904D01*
X89888095Y-58611904D01*
X89773809Y-58573809D01*
X89697619Y-58497619D01*
X89659523Y-58421428D01*
X89621428Y-58269047D01*
X89621428Y-58154761D01*
X89659523Y-58002380D01*
X89697619Y-57926190D01*
X89773809Y-57850000D01*
X89888095Y-57811904D01*
X89964285Y-57811904D01*
X90078571Y-57850000D01*
X90116666Y-57888095D01*
X90497619Y-58611904D02*
X90650000Y-58611904D01*
X90726190Y-58573809D01*
X90764285Y-58535714D01*
X90840476Y-58421428D01*
X90878571Y-58269047D01*
X90878571Y-57964285D01*
X90840476Y-57888095D01*
X90802380Y-57850000D01*
X90726190Y-57811904D01*
X90573809Y-57811904D01*
X90497619Y-57850000D01*
X90459523Y-57888095D01*
X90421428Y-57964285D01*
X90421428Y-58154761D01*
X90459523Y-58230952D01*
X90497619Y-58269047D01*
X90573809Y-58307142D01*
X90726190Y-58307142D01*
X90802380Y-58269047D01*
X90840476Y-58230952D01*
X90878571Y-58154761D01*
%TO.C,D2*%
X87052380Y-55888095D02*
X86052380Y-55888095D01*
X86052380Y-55650000D01*
X86100000Y-55507142D01*
X86195238Y-55411904D01*
X86290476Y-55364285D01*
X86480952Y-55316666D01*
X86623809Y-55316666D01*
X86814285Y-55364285D01*
X86909523Y-55411904D01*
X87004761Y-55507142D01*
X87052380Y-55650000D01*
X87052380Y-55888095D01*
X86147619Y-54935714D02*
X86100000Y-54888095D01*
X86052380Y-54792857D01*
X86052380Y-54554761D01*
X86100000Y-54459523D01*
X86147619Y-54411904D01*
X86242857Y-54364285D01*
X86338095Y-54364285D01*
X86480952Y-54411904D01*
X87052380Y-54983333D01*
X87052380Y-54364285D01*
%TO.C,C8*%
X94933333Y-45757142D02*
X94885714Y-45804761D01*
X94742857Y-45852380D01*
X94647619Y-45852380D01*
X94504761Y-45804761D01*
X94409523Y-45709523D01*
X94361904Y-45614285D01*
X94314285Y-45423809D01*
X94314285Y-45280952D01*
X94361904Y-45090476D01*
X94409523Y-44995238D01*
X94504761Y-44900000D01*
X94647619Y-44852380D01*
X94742857Y-44852380D01*
X94885714Y-44900000D01*
X94933333Y-44947619D01*
X95504761Y-45280952D02*
X95409523Y-45233333D01*
X95361904Y-45185714D01*
X95314285Y-45090476D01*
X95314285Y-45042857D01*
X95361904Y-44947619D01*
X95409523Y-44900000D01*
X95504761Y-44852380D01*
X95695238Y-44852380D01*
X95790476Y-44900000D01*
X95838095Y-44947619D01*
X95885714Y-45042857D01*
X95885714Y-45090476D01*
X95838095Y-45185714D01*
X95790476Y-45233333D01*
X95695238Y-45280952D01*
X95504761Y-45280952D01*
X95409523Y-45328571D01*
X95361904Y-45376190D01*
X95314285Y-45471428D01*
X95314285Y-45661904D01*
X95361904Y-45757142D01*
X95409523Y-45804761D01*
X95504761Y-45852380D01*
X95695238Y-45852380D01*
X95790476Y-45804761D01*
X95838095Y-45757142D01*
X95885714Y-45661904D01*
X95885714Y-45471428D01*
X95838095Y-45376190D01*
X95790476Y-45328571D01*
X95695238Y-45280952D01*
%TO.C,Q4*%
X95997619Y-58195238D02*
X95950000Y-58290476D01*
X95854761Y-58385714D01*
X95711904Y-58528571D01*
X95664285Y-58623809D01*
X95664285Y-58719047D01*
X95902380Y-58671428D02*
X95854761Y-58766666D01*
X95759523Y-58861904D01*
X95569047Y-58909523D01*
X95235714Y-58909523D01*
X95045238Y-58861904D01*
X94950000Y-58766666D01*
X94902380Y-58671428D01*
X94902380Y-58480952D01*
X94950000Y-58385714D01*
X95045238Y-58290476D01*
X95235714Y-58242857D01*
X95569047Y-58242857D01*
X95759523Y-58290476D01*
X95854761Y-58385714D01*
X95902380Y-58480952D01*
X95902380Y-58671428D01*
X95235714Y-57385714D02*
X95902380Y-57385714D01*
X94854761Y-57623809D02*
X95569047Y-57861904D01*
X95569047Y-57242857D01*
%TO.C,U7*%
X88538095Y-46352380D02*
X88538095Y-47161904D01*
X88585714Y-47257142D01*
X88633333Y-47304761D01*
X88728571Y-47352380D01*
X88919047Y-47352380D01*
X89014285Y-47304761D01*
X89061904Y-47257142D01*
X89109523Y-47161904D01*
X89109523Y-46352380D01*
X89490476Y-46352380D02*
X90157142Y-46352380D01*
X89728571Y-47352380D01*
%TO.C,C15*%
X87735714Y-80535714D02*
X87697619Y-80573809D01*
X87583333Y-80611904D01*
X87507142Y-80611904D01*
X87392857Y-80573809D01*
X87316666Y-80497619D01*
X87278571Y-80421428D01*
X87240476Y-80269047D01*
X87240476Y-80154761D01*
X87278571Y-80002380D01*
X87316666Y-79926190D01*
X87392857Y-79850000D01*
X87507142Y-79811904D01*
X87583333Y-79811904D01*
X87697619Y-79850000D01*
X87735714Y-79888095D01*
X88497619Y-80611904D02*
X88040476Y-80611904D01*
X88269047Y-80611904D02*
X88269047Y-79811904D01*
X88192857Y-79926190D01*
X88116666Y-80002380D01*
X88040476Y-80040476D01*
X89221428Y-79811904D02*
X88840476Y-79811904D01*
X88802380Y-80192857D01*
X88840476Y-80154761D01*
X88916666Y-80116666D01*
X89107142Y-80116666D01*
X89183333Y-80154761D01*
X89221428Y-80192857D01*
X89259523Y-80269047D01*
X89259523Y-80459523D01*
X89221428Y-80535714D01*
X89183333Y-80573809D01*
X89107142Y-80611904D01*
X88916666Y-80611904D01*
X88840476Y-80573809D01*
X88802380Y-80535714D01*
%TO.C,JP1*%
X89833333Y-64261904D02*
X89833333Y-64833333D01*
X89795238Y-64947619D01*
X89719047Y-65023809D01*
X89604761Y-65061904D01*
X89528571Y-65061904D01*
X90214285Y-65061904D02*
X90214285Y-64261904D01*
X90519047Y-64261904D01*
X90595238Y-64300000D01*
X90633333Y-64338095D01*
X90671428Y-64414285D01*
X90671428Y-64528571D01*
X90633333Y-64604761D01*
X90595238Y-64642857D01*
X90519047Y-64680952D01*
X90214285Y-64680952D01*
X91433333Y-65061904D02*
X90976190Y-65061904D01*
X91204761Y-65061904D02*
X91204761Y-64261904D01*
X91128571Y-64376190D01*
X91052380Y-64452380D01*
X90976190Y-64490476D01*
%TO.C,L2*%
X78783333Y-58914880D02*
X78307142Y-58914880D01*
X78307142Y-57914880D01*
X79069047Y-58010119D02*
X79116666Y-57962500D01*
X79211904Y-57914880D01*
X79450000Y-57914880D01*
X79545238Y-57962500D01*
X79592857Y-58010119D01*
X79640476Y-58105357D01*
X79640476Y-58200595D01*
X79592857Y-58343452D01*
X79021428Y-58914880D01*
X79640476Y-58914880D01*
%TO.C,Q1*%
X88673809Y-70788095D02*
X88597619Y-70750000D01*
X88521428Y-70673809D01*
X88407142Y-70559523D01*
X88330952Y-70521428D01*
X88254761Y-70521428D01*
X88292857Y-70711904D02*
X88216666Y-70673809D01*
X88140476Y-70597619D01*
X88102380Y-70445238D01*
X88102380Y-70178571D01*
X88140476Y-70026190D01*
X88216666Y-69950000D01*
X88292857Y-69911904D01*
X88445238Y-69911904D01*
X88521428Y-69950000D01*
X88597619Y-70026190D01*
X88635714Y-70178571D01*
X88635714Y-70445238D01*
X88597619Y-70597619D01*
X88521428Y-70673809D01*
X88445238Y-70711904D01*
X88292857Y-70711904D01*
X89397619Y-70711904D02*
X88940476Y-70711904D01*
X89169047Y-70711904D02*
X89169047Y-69911904D01*
X89092857Y-70026190D01*
X89016666Y-70102380D01*
X88940476Y-70140476D01*
%TO.C,R8*%
X90966666Y-74711904D02*
X90700000Y-74330952D01*
X90509523Y-74711904D02*
X90509523Y-73911904D01*
X90814285Y-73911904D01*
X90890476Y-73950000D01*
X90928571Y-73988095D01*
X90966666Y-74064285D01*
X90966666Y-74178571D01*
X90928571Y-74254761D01*
X90890476Y-74292857D01*
X90814285Y-74330952D01*
X90509523Y-74330952D01*
X91423809Y-74254761D02*
X91347619Y-74216666D01*
X91309523Y-74178571D01*
X91271428Y-74102380D01*
X91271428Y-74064285D01*
X91309523Y-73988095D01*
X91347619Y-73950000D01*
X91423809Y-73911904D01*
X91576190Y-73911904D01*
X91652380Y-73950000D01*
X91690476Y-73988095D01*
X91728571Y-74064285D01*
X91728571Y-74102380D01*
X91690476Y-74178571D01*
X91652380Y-74216666D01*
X91576190Y-74254761D01*
X91423809Y-74254761D01*
X91347619Y-74292857D01*
X91309523Y-74330952D01*
X91271428Y-74407142D01*
X91271428Y-74559523D01*
X91309523Y-74635714D01*
X91347619Y-74673809D01*
X91423809Y-74711904D01*
X91576190Y-74711904D01*
X91652380Y-74673809D01*
X91690476Y-74635714D01*
X91728571Y-74559523D01*
X91728571Y-74407142D01*
X91690476Y-74330952D01*
X91652380Y-74292857D01*
X91576190Y-74254761D01*
%TO.C,C16*%
X102635714Y-76085714D02*
X102597619Y-76123809D01*
X102483333Y-76161904D01*
X102407142Y-76161904D01*
X102292857Y-76123809D01*
X102216666Y-76047619D01*
X102178571Y-75971428D01*
X102140476Y-75819047D01*
X102140476Y-75704761D01*
X102178571Y-75552380D01*
X102216666Y-75476190D01*
X102292857Y-75400000D01*
X102407142Y-75361904D01*
X102483333Y-75361904D01*
X102597619Y-75400000D01*
X102635714Y-75438095D01*
X103397619Y-76161904D02*
X102940476Y-76161904D01*
X103169047Y-76161904D02*
X103169047Y-75361904D01*
X103092857Y-75476190D01*
X103016666Y-75552380D01*
X102940476Y-75590476D01*
X104083333Y-75361904D02*
X103930952Y-75361904D01*
X103854761Y-75400000D01*
X103816666Y-75438095D01*
X103740476Y-75552380D01*
X103702380Y-75704761D01*
X103702380Y-76009523D01*
X103740476Y-76085714D01*
X103778571Y-76123809D01*
X103854761Y-76161904D01*
X104007142Y-76161904D01*
X104083333Y-76123809D01*
X104121428Y-76085714D01*
X104159523Y-76009523D01*
X104159523Y-75819047D01*
X104121428Y-75742857D01*
X104083333Y-75704761D01*
X104007142Y-75666666D01*
X103854761Y-75666666D01*
X103778571Y-75704761D01*
X103740476Y-75742857D01*
X103702380Y-75819047D01*
%TO.C,C11*%
X87085714Y-58014285D02*
X87123809Y-58052380D01*
X87161904Y-58166666D01*
X87161904Y-58242857D01*
X87123809Y-58357142D01*
X87047619Y-58433333D01*
X86971428Y-58471428D01*
X86819047Y-58509523D01*
X86704761Y-58509523D01*
X86552380Y-58471428D01*
X86476190Y-58433333D01*
X86400000Y-58357142D01*
X86361904Y-58242857D01*
X86361904Y-58166666D01*
X86400000Y-58052380D01*
X86438095Y-58014285D01*
X87161904Y-57252380D02*
X87161904Y-57709523D01*
X87161904Y-57480952D02*
X86361904Y-57480952D01*
X86476190Y-57557142D01*
X86552380Y-57633333D01*
X86590476Y-57709523D01*
X87161904Y-56490476D02*
X87161904Y-56947619D01*
X87161904Y-56719047D02*
X86361904Y-56719047D01*
X86476190Y-56795238D01*
X86552380Y-56871428D01*
X86590476Y-56947619D01*
%TO.C,J5*%
X112466666Y-48857380D02*
X112466666Y-49571666D01*
X112419047Y-49714523D01*
X112323809Y-49809761D01*
X112180952Y-49857380D01*
X112085714Y-49857380D01*
X113419047Y-48857380D02*
X112942857Y-48857380D01*
X112895238Y-49333571D01*
X112942857Y-49285952D01*
X113038095Y-49238333D01*
X113276190Y-49238333D01*
X113371428Y-49285952D01*
X113419047Y-49333571D01*
X113466666Y-49428809D01*
X113466666Y-49666904D01*
X113419047Y-49762142D01*
X113371428Y-49809761D01*
X113276190Y-49857380D01*
X113038095Y-49857380D01*
X112942857Y-49809761D01*
X112895238Y-49762142D01*
%TO.C,U5*%
X108004523Y-49517619D02*
X109032619Y-49517619D01*
X109153571Y-49457142D01*
X109214047Y-49396666D01*
X109274523Y-49275714D01*
X109274523Y-49033809D01*
X109214047Y-48912857D01*
X109153571Y-48852380D01*
X109032619Y-48791904D01*
X108004523Y-48791904D01*
X108004523Y-47582380D02*
X108004523Y-48187142D01*
X108609285Y-48247619D01*
X108548809Y-48187142D01*
X108488333Y-48066190D01*
X108488333Y-47763809D01*
X108548809Y-47642857D01*
X108609285Y-47582380D01*
X108730238Y-47521904D01*
X109032619Y-47521904D01*
X109153571Y-47582380D01*
X109214047Y-47642857D01*
X109274523Y-47763809D01*
X109274523Y-48066190D01*
X109214047Y-48187142D01*
X109153571Y-48247619D01*
D11*
X100009915Y-47108765D02*
X100120224Y-47145535D01*
X100156993Y-47182304D01*
X100193763Y-47255843D01*
X100193763Y-47366152D01*
X100156993Y-47439691D01*
X100120224Y-47476460D01*
X100046685Y-47513230D01*
X99752529Y-47513230D01*
X99752529Y-46741070D01*
X100009915Y-46741070D01*
X100083454Y-46777840D01*
X100120224Y-46814609D01*
X100156993Y-46888148D01*
X100156993Y-46961687D01*
X100120224Y-47035226D01*
X100083454Y-47071996D01*
X100009915Y-47108765D01*
X99752529Y-47108765D01*
X100965923Y-47439691D02*
X100929153Y-47476460D01*
X100818845Y-47513230D01*
X100745306Y-47513230D01*
X100634997Y-47476460D01*
X100561458Y-47402921D01*
X100524689Y-47329382D01*
X100487919Y-47182304D01*
X100487919Y-47071996D01*
X100524689Y-46924918D01*
X100561458Y-46851379D01*
X100634997Y-46777840D01*
X100745306Y-46741070D01*
X100818845Y-46741070D01*
X100929153Y-46777840D01*
X100965923Y-46814609D01*
X101407157Y-47071996D02*
X101333618Y-47035226D01*
X101296849Y-46998457D01*
X101260079Y-46924918D01*
X101260079Y-46888148D01*
X101296849Y-46814609D01*
X101333618Y-46777840D01*
X101407157Y-46741070D01*
X101554235Y-46741070D01*
X101627774Y-46777840D01*
X101664544Y-46814609D01*
X101701313Y-46888148D01*
X101701313Y-46924918D01*
X101664544Y-46998457D01*
X101627774Y-47035226D01*
X101554235Y-47071996D01*
X101407157Y-47071996D01*
X101333618Y-47108765D01*
X101296849Y-47145535D01*
X101260079Y-47219074D01*
X101260079Y-47366152D01*
X101296849Y-47439691D01*
X101333618Y-47476460D01*
X101407157Y-47513230D01*
X101554235Y-47513230D01*
X101627774Y-47476460D01*
X101664544Y-47439691D01*
X101701313Y-47366152D01*
X101701313Y-47219074D01*
X101664544Y-47145535D01*
X101627774Y-47108765D01*
X101554235Y-47071996D01*
X101958700Y-46741070D02*
X102436704Y-46741070D01*
X102179317Y-47035226D01*
X102289626Y-47035226D01*
X102363165Y-47071996D01*
X102399934Y-47108765D01*
X102436704Y-47182304D01*
X102436704Y-47366152D01*
X102399934Y-47439691D01*
X102363165Y-47476460D01*
X102289626Y-47513230D01*
X102069009Y-47513230D01*
X101995470Y-47476460D01*
X101958700Y-47439691D01*
X102694091Y-46741070D02*
X103172094Y-46741070D01*
X102914708Y-47035226D01*
X103025016Y-47035226D01*
X103098555Y-47071996D01*
X103135325Y-47108765D01*
X103172094Y-47182304D01*
X103172094Y-47366152D01*
X103135325Y-47439691D01*
X103098555Y-47476460D01*
X103025016Y-47513230D01*
X102804399Y-47513230D01*
X102730860Y-47476460D01*
X102694091Y-47439691D01*
X103503020Y-47219074D02*
X104091333Y-47219074D01*
X104348719Y-46741070D02*
X104606106Y-47513230D01*
X104863493Y-46741070D01*
X105451805Y-46998457D02*
X105451805Y-47513230D01*
X105267957Y-46704300D02*
X105084110Y-47255843D01*
X105562113Y-47255843D01*
D10*
%TO.C,J3*%
X104066666Y-57667380D02*
X104066666Y-58381666D01*
X104019047Y-58524523D01*
X103923809Y-58619761D01*
X103780952Y-58667380D01*
X103685714Y-58667380D01*
X104447619Y-57667380D02*
X105066666Y-57667380D01*
X104733333Y-58048333D01*
X104876190Y-58048333D01*
X104971428Y-58095952D01*
X105019047Y-58143571D01*
X105066666Y-58238809D01*
X105066666Y-58476904D01*
X105019047Y-58572142D01*
X104971428Y-58619761D01*
X104876190Y-58667380D01*
X104590476Y-58667380D01*
X104495238Y-58619761D01*
X104447619Y-58572142D01*
%TO.C,C5*%
X95166666Y-64385714D02*
X95128571Y-64423809D01*
X95014285Y-64461904D01*
X94938095Y-64461904D01*
X94823809Y-64423809D01*
X94747619Y-64347619D01*
X94709523Y-64271428D01*
X94671428Y-64119047D01*
X94671428Y-64004761D01*
X94709523Y-63852380D01*
X94747619Y-63776190D01*
X94823809Y-63700000D01*
X94938095Y-63661904D01*
X95014285Y-63661904D01*
X95128571Y-63700000D01*
X95166666Y-63738095D01*
X95890476Y-63661904D02*
X95509523Y-63661904D01*
X95471428Y-64042857D01*
X95509523Y-64004761D01*
X95585714Y-63966666D01*
X95776190Y-63966666D01*
X95852380Y-64004761D01*
X95890476Y-64042857D01*
X95928571Y-64119047D01*
X95928571Y-64309523D01*
X95890476Y-64385714D01*
X95852380Y-64423809D01*
X95776190Y-64461904D01*
X95585714Y-64461904D01*
X95509523Y-64423809D01*
X95471428Y-64385714D01*
%TO.C,U3*%
X98652380Y-72761904D02*
X99461904Y-72761904D01*
X99557142Y-72714285D01*
X99604761Y-72666666D01*
X99652380Y-72571428D01*
X99652380Y-72380952D01*
X99604761Y-72285714D01*
X99557142Y-72238095D01*
X99461904Y-72190476D01*
X98652380Y-72190476D01*
X98652380Y-71809523D02*
X98652380Y-71190476D01*
X99033333Y-71523809D01*
X99033333Y-71380952D01*
X99080952Y-71285714D01*
X99128571Y-71238095D01*
X99223809Y-71190476D01*
X99461904Y-71190476D01*
X99557142Y-71238095D01*
X99604761Y-71285714D01*
X99652380Y-71380952D01*
X99652380Y-71666666D01*
X99604761Y-71761904D01*
X99557142Y-71809523D01*
%TO.C,R1*%
X91552380Y-69866666D02*
X91076190Y-70200000D01*
X91552380Y-70438095D02*
X90552380Y-70438095D01*
X90552380Y-70057142D01*
X90600000Y-69961904D01*
X90647619Y-69914285D01*
X90742857Y-69866666D01*
X90885714Y-69866666D01*
X90980952Y-69914285D01*
X91028571Y-69961904D01*
X91076190Y-70057142D01*
X91076190Y-70438095D01*
X91552380Y-68914285D02*
X91552380Y-69485714D01*
X91552380Y-69200000D02*
X90552380Y-69200000D01*
X90695238Y-69295238D01*
X90790476Y-69390476D01*
X90838095Y-69485714D01*
%TO.C,C6*%
X92216666Y-66235714D02*
X92178571Y-66273809D01*
X92064285Y-66311904D01*
X91988095Y-66311904D01*
X91873809Y-66273809D01*
X91797619Y-66197619D01*
X91759523Y-66121428D01*
X91721428Y-65969047D01*
X91721428Y-65854761D01*
X91759523Y-65702380D01*
X91797619Y-65626190D01*
X91873809Y-65550000D01*
X91988095Y-65511904D01*
X92064285Y-65511904D01*
X92178571Y-65550000D01*
X92216666Y-65588095D01*
X92902380Y-65511904D02*
X92750000Y-65511904D01*
X92673809Y-65550000D01*
X92635714Y-65588095D01*
X92559523Y-65702380D01*
X92521428Y-65854761D01*
X92521428Y-66159523D01*
X92559523Y-66235714D01*
X92597619Y-66273809D01*
X92673809Y-66311904D01*
X92826190Y-66311904D01*
X92902380Y-66273809D01*
X92940476Y-66235714D01*
X92978571Y-66159523D01*
X92978571Y-65969047D01*
X92940476Y-65892857D01*
X92902380Y-65854761D01*
X92826190Y-65816666D01*
X92673809Y-65816666D01*
X92597619Y-65854761D01*
X92559523Y-65892857D01*
X92521428Y-65969047D01*
%TO.C,C7*%
X97116666Y-66285714D02*
X97078571Y-66323809D01*
X96964285Y-66361904D01*
X96888095Y-66361904D01*
X96773809Y-66323809D01*
X96697619Y-66247619D01*
X96659523Y-66171428D01*
X96621428Y-66019047D01*
X96621428Y-65904761D01*
X96659523Y-65752380D01*
X96697619Y-65676190D01*
X96773809Y-65600000D01*
X96888095Y-65561904D01*
X96964285Y-65561904D01*
X97078571Y-65600000D01*
X97116666Y-65638095D01*
X97383333Y-65561904D02*
X97916666Y-65561904D01*
X97573809Y-66361904D01*
%TO.C,R13*%
X83261904Y-76014285D02*
X82880952Y-76280952D01*
X83261904Y-76471428D02*
X82461904Y-76471428D01*
X82461904Y-76166666D01*
X82500000Y-76090476D01*
X82538095Y-76052380D01*
X82614285Y-76014285D01*
X82728571Y-76014285D01*
X82804761Y-76052380D01*
X82842857Y-76090476D01*
X82880952Y-76166666D01*
X82880952Y-76471428D01*
X83261904Y-75252380D02*
X83261904Y-75709523D01*
X83261904Y-75480952D02*
X82461904Y-75480952D01*
X82576190Y-75557142D01*
X82652380Y-75633333D01*
X82690476Y-75709523D01*
X82461904Y-74985714D02*
X82461904Y-74490476D01*
X82766666Y-74757142D01*
X82766666Y-74642857D01*
X82804761Y-74566666D01*
X82842857Y-74528571D01*
X82919047Y-74490476D01*
X83109523Y-74490476D01*
X83185714Y-74528571D01*
X83223809Y-74566666D01*
X83261904Y-74642857D01*
X83261904Y-74871428D01*
X83223809Y-74947619D01*
X83185714Y-74985714D01*
%TO.C,C19*%
X76757142Y-75357142D02*
X76709523Y-75404761D01*
X76566666Y-75452380D01*
X76471428Y-75452380D01*
X76328571Y-75404761D01*
X76233333Y-75309523D01*
X76185714Y-75214285D01*
X76138095Y-75023809D01*
X76138095Y-74880952D01*
X76185714Y-74690476D01*
X76233333Y-74595238D01*
X76328571Y-74500000D01*
X76471428Y-74452380D01*
X76566666Y-74452380D01*
X76709523Y-74500000D01*
X76757142Y-74547619D01*
X77709523Y-75452380D02*
X77138095Y-75452380D01*
X77423809Y-75452380D02*
X77423809Y-74452380D01*
X77328571Y-74595238D01*
X77233333Y-74690476D01*
X77138095Y-74738095D01*
X78185714Y-75452380D02*
X78376190Y-75452380D01*
X78471428Y-75404761D01*
X78519047Y-75357142D01*
X78614285Y-75214285D01*
X78661904Y-75023809D01*
X78661904Y-74642857D01*
X78614285Y-74547619D01*
X78566666Y-74500000D01*
X78471428Y-74452380D01*
X78280952Y-74452380D01*
X78185714Y-74500000D01*
X78138095Y-74547619D01*
X78090476Y-74642857D01*
X78090476Y-74880952D01*
X78138095Y-74976190D01*
X78185714Y-75023809D01*
X78280952Y-75071428D01*
X78471428Y-75071428D01*
X78566666Y-75023809D01*
X78614285Y-74976190D01*
X78661904Y-74880952D01*
%TO.C,U6*%
X82061904Y-58409523D02*
X82709523Y-58409523D01*
X82785714Y-58371428D01*
X82823809Y-58333333D01*
X82861904Y-58257142D01*
X82861904Y-58104761D01*
X82823809Y-58028571D01*
X82785714Y-57990476D01*
X82709523Y-57952380D01*
X82061904Y-57952380D01*
X82061904Y-57228571D02*
X82061904Y-57380952D01*
X82100000Y-57457142D01*
X82138095Y-57495238D01*
X82252380Y-57571428D01*
X82404761Y-57609523D01*
X82709523Y-57609523D01*
X82785714Y-57571428D01*
X82823809Y-57533333D01*
X82861904Y-57457142D01*
X82861904Y-57304761D01*
X82823809Y-57228571D01*
X82785714Y-57190476D01*
X82709523Y-57152380D01*
X82519047Y-57152380D01*
X82442857Y-57190476D01*
X82404761Y-57228571D01*
X82366666Y-57304761D01*
X82366666Y-57457142D01*
X82404761Y-57533333D01*
X82442857Y-57571428D01*
X82519047Y-57609523D01*
%TO.C,R7*%
X81952380Y-75466666D02*
X81476190Y-75800000D01*
X81952380Y-76038095D02*
X80952380Y-76038095D01*
X80952380Y-75657142D01*
X81000000Y-75561904D01*
X81047619Y-75514285D01*
X81142857Y-75466666D01*
X81285714Y-75466666D01*
X81380952Y-75514285D01*
X81428571Y-75561904D01*
X81476190Y-75657142D01*
X81476190Y-76038095D01*
X80952380Y-75133333D02*
X80952380Y-74466666D01*
X81952380Y-74895238D01*
%TO.C,D3*%
X83661904Y-69590476D02*
X82861904Y-69590476D01*
X82861904Y-69400000D01*
X82900000Y-69285714D01*
X82976190Y-69209523D01*
X83052380Y-69171428D01*
X83204761Y-69133333D01*
X83319047Y-69133333D01*
X83471428Y-69171428D01*
X83547619Y-69209523D01*
X83623809Y-69285714D01*
X83661904Y-69400000D01*
X83661904Y-69590476D01*
X82861904Y-68866666D02*
X82861904Y-68371428D01*
X83166666Y-68638095D01*
X83166666Y-68523809D01*
X83204761Y-68447619D01*
X83242857Y-68409523D01*
X83319047Y-68371428D01*
X83509523Y-68371428D01*
X83585714Y-68409523D01*
X83623809Y-68447619D01*
X83661904Y-68523809D01*
X83661904Y-68752380D01*
X83623809Y-68828571D01*
X83585714Y-68866666D01*
%TO.C,C14*%
X80057142Y-76342857D02*
X80104761Y-76390476D01*
X80152380Y-76533333D01*
X80152380Y-76628571D01*
X80104761Y-76771428D01*
X80009523Y-76866666D01*
X79914285Y-76914285D01*
X79723809Y-76961904D01*
X79580952Y-76961904D01*
X79390476Y-76914285D01*
X79295238Y-76866666D01*
X79200000Y-76771428D01*
X79152380Y-76628571D01*
X79152380Y-76533333D01*
X79200000Y-76390476D01*
X79247619Y-76342857D01*
X80152380Y-75390476D02*
X80152380Y-75961904D01*
X80152380Y-75676190D02*
X79152380Y-75676190D01*
X79295238Y-75771428D01*
X79390476Y-75866666D01*
X79438095Y-75961904D01*
X79485714Y-74533333D02*
X80152380Y-74533333D01*
X79104761Y-74771428D02*
X79819047Y-75009523D01*
X79819047Y-74390476D01*
%TO.C,C17*%
X86785714Y-53014285D02*
X86823809Y-53052380D01*
X86861904Y-53166666D01*
X86861904Y-53242857D01*
X86823809Y-53357142D01*
X86747619Y-53433333D01*
X86671428Y-53471428D01*
X86519047Y-53509523D01*
X86404761Y-53509523D01*
X86252380Y-53471428D01*
X86176190Y-53433333D01*
X86100000Y-53357142D01*
X86061904Y-53242857D01*
X86061904Y-53166666D01*
X86100000Y-53052380D01*
X86138095Y-53014285D01*
X86861904Y-52252380D02*
X86861904Y-52709523D01*
X86861904Y-52480952D02*
X86061904Y-52480952D01*
X86176190Y-52557142D01*
X86252380Y-52633333D01*
X86290476Y-52709523D01*
X86061904Y-51985714D02*
X86061904Y-51452380D01*
X86861904Y-51795238D01*
%TO.C,R9*%
X86932380Y-60929166D02*
X86456190Y-61262500D01*
X86932380Y-61500595D02*
X85932380Y-61500595D01*
X85932380Y-61119642D01*
X85980000Y-61024404D01*
X86027619Y-60976785D01*
X86122857Y-60929166D01*
X86265714Y-60929166D01*
X86360952Y-60976785D01*
X86408571Y-61024404D01*
X86456190Y-61119642D01*
X86456190Y-61500595D01*
X86932380Y-60452976D02*
X86932380Y-60262500D01*
X86884761Y-60167261D01*
X86837142Y-60119642D01*
X86694285Y-60024404D01*
X86503809Y-59976785D01*
X86122857Y-59976785D01*
X86027619Y-60024404D01*
X85980000Y-60072023D01*
X85932380Y-60167261D01*
X85932380Y-60357738D01*
X85980000Y-60452976D01*
X86027619Y-60500595D01*
X86122857Y-60548214D01*
X86360952Y-60548214D01*
X86456190Y-60500595D01*
X86503809Y-60452976D01*
X86551428Y-60357738D01*
X86551428Y-60167261D01*
X86503809Y-60072023D01*
X86456190Y-60024404D01*
X86360952Y-59976785D01*
%TO.C,C10*%
X78985714Y-63485714D02*
X78947619Y-63523809D01*
X78833333Y-63561904D01*
X78757142Y-63561904D01*
X78642857Y-63523809D01*
X78566666Y-63447619D01*
X78528571Y-63371428D01*
X78490476Y-63219047D01*
X78490476Y-63104761D01*
X78528571Y-62952380D01*
X78566666Y-62876190D01*
X78642857Y-62800000D01*
X78757142Y-62761904D01*
X78833333Y-62761904D01*
X78947619Y-62800000D01*
X78985714Y-62838095D01*
X79747619Y-63561904D02*
X79290476Y-63561904D01*
X79519047Y-63561904D02*
X79519047Y-62761904D01*
X79442857Y-62876190D01*
X79366666Y-62952380D01*
X79290476Y-62990476D01*
X80242857Y-62761904D02*
X80319047Y-62761904D01*
X80395238Y-62800000D01*
X80433333Y-62838095D01*
X80471428Y-62914285D01*
X80509523Y-63066666D01*
X80509523Y-63257142D01*
X80471428Y-63409523D01*
X80433333Y-63485714D01*
X80395238Y-63523809D01*
X80319047Y-63561904D01*
X80242857Y-63561904D01*
X80166666Y-63523809D01*
X80128571Y-63485714D01*
X80090476Y-63409523D01*
X80052380Y-63257142D01*
X80052380Y-63066666D01*
X80090476Y-62914285D01*
X80128571Y-62838095D01*
X80166666Y-62800000D01*
X80242857Y-62761904D01*
%TO.C,C20*%
X75885714Y-70214285D02*
X75923809Y-70252380D01*
X75961904Y-70366666D01*
X75961904Y-70442857D01*
X75923809Y-70557142D01*
X75847619Y-70633333D01*
X75771428Y-70671428D01*
X75619047Y-70709523D01*
X75504761Y-70709523D01*
X75352380Y-70671428D01*
X75276190Y-70633333D01*
X75200000Y-70557142D01*
X75161904Y-70442857D01*
X75161904Y-70366666D01*
X75200000Y-70252380D01*
X75238095Y-70214285D01*
X75238095Y-69909523D02*
X75200000Y-69871428D01*
X75161904Y-69795238D01*
X75161904Y-69604761D01*
X75200000Y-69528571D01*
X75238095Y-69490476D01*
X75314285Y-69452380D01*
X75390476Y-69452380D01*
X75504761Y-69490476D01*
X75961904Y-69947619D01*
X75961904Y-69452380D01*
X75161904Y-68957142D02*
X75161904Y-68880952D01*
X75200000Y-68804761D01*
X75238095Y-68766666D01*
X75314285Y-68728571D01*
X75466666Y-68690476D01*
X75657142Y-68690476D01*
X75809523Y-68728571D01*
X75885714Y-68766666D01*
X75923809Y-68804761D01*
X75961904Y-68880952D01*
X75961904Y-68957142D01*
X75923809Y-69033333D01*
X75885714Y-69071428D01*
X75809523Y-69109523D01*
X75657142Y-69147619D01*
X75466666Y-69147619D01*
X75314285Y-69109523D01*
X75238095Y-69071428D01*
X75200000Y-69033333D01*
X75161904Y-68957142D01*
%TO.C,R6*%
X76066666Y-65061904D02*
X75800000Y-64680952D01*
X75609523Y-65061904D02*
X75609523Y-64261904D01*
X75914285Y-64261904D01*
X75990476Y-64300000D01*
X76028571Y-64338095D01*
X76066666Y-64414285D01*
X76066666Y-64528571D01*
X76028571Y-64604761D01*
X75990476Y-64642857D01*
X75914285Y-64680952D01*
X75609523Y-64680952D01*
X76752380Y-64261904D02*
X76600000Y-64261904D01*
X76523809Y-64300000D01*
X76485714Y-64338095D01*
X76409523Y-64452380D01*
X76371428Y-64604761D01*
X76371428Y-64909523D01*
X76409523Y-64985714D01*
X76447619Y-65023809D01*
X76523809Y-65061904D01*
X76676190Y-65061904D01*
X76752380Y-65023809D01*
X76790476Y-64985714D01*
X76828571Y-64909523D01*
X76828571Y-64719047D01*
X76790476Y-64642857D01*
X76752380Y-64604761D01*
X76676190Y-64566666D01*
X76523809Y-64566666D01*
X76447619Y-64604761D01*
X76409523Y-64642857D01*
X76371428Y-64719047D01*
%TO.C,L1*%
X86033333Y-63952380D02*
X85557142Y-63952380D01*
X85557142Y-62952380D01*
X86890476Y-63952380D02*
X86319047Y-63952380D01*
X86604761Y-63952380D02*
X86604761Y-62952380D01*
X86509523Y-63095238D01*
X86414285Y-63190476D01*
X86319047Y-63238095D01*
%TO.C,C18*%
X76985714Y-56485714D02*
X76947619Y-56523809D01*
X76833333Y-56561904D01*
X76757142Y-56561904D01*
X76642857Y-56523809D01*
X76566666Y-56447619D01*
X76528571Y-56371428D01*
X76490476Y-56219047D01*
X76490476Y-56104761D01*
X76528571Y-55952380D01*
X76566666Y-55876190D01*
X76642857Y-55800000D01*
X76757142Y-55761904D01*
X76833333Y-55761904D01*
X76947619Y-55800000D01*
X76985714Y-55838095D01*
X77747619Y-56561904D02*
X77290476Y-56561904D01*
X77519047Y-56561904D02*
X77519047Y-55761904D01*
X77442857Y-55876190D01*
X77366666Y-55952380D01*
X77290476Y-55990476D01*
X78204761Y-56104761D02*
X78128571Y-56066666D01*
X78090476Y-56028571D01*
X78052380Y-55952380D01*
X78052380Y-55914285D01*
X78090476Y-55838095D01*
X78128571Y-55800000D01*
X78204761Y-55761904D01*
X78357142Y-55761904D01*
X78433333Y-55800000D01*
X78471428Y-55838095D01*
X78509523Y-55914285D01*
X78509523Y-55952380D01*
X78471428Y-56028571D01*
X78433333Y-56066666D01*
X78357142Y-56104761D01*
X78204761Y-56104761D01*
X78128571Y-56142857D01*
X78090476Y-56180952D01*
X78052380Y-56257142D01*
X78052380Y-56409523D01*
X78090476Y-56485714D01*
X78128571Y-56523809D01*
X78204761Y-56561904D01*
X78357142Y-56561904D01*
X78433333Y-56523809D01*
X78471428Y-56485714D01*
X78509523Y-56409523D01*
X78509523Y-56257142D01*
X78471428Y-56180952D01*
X78433333Y-56142857D01*
X78357142Y-56104761D01*
%TO.C,C13*%
X78685714Y-65314285D02*
X78723809Y-65352380D01*
X78761904Y-65466666D01*
X78761904Y-65542857D01*
X78723809Y-65657142D01*
X78647619Y-65733333D01*
X78571428Y-65771428D01*
X78419047Y-65809523D01*
X78304761Y-65809523D01*
X78152380Y-65771428D01*
X78076190Y-65733333D01*
X78000000Y-65657142D01*
X77961904Y-65542857D01*
X77961904Y-65466666D01*
X78000000Y-65352380D01*
X78038095Y-65314285D01*
X78761904Y-64552380D02*
X78761904Y-65009523D01*
X78761904Y-64780952D02*
X77961904Y-64780952D01*
X78076190Y-64857142D01*
X78152380Y-64933333D01*
X78190476Y-65009523D01*
X77961904Y-64285714D02*
X77961904Y-63790476D01*
X78266666Y-64057142D01*
X78266666Y-63942857D01*
X78304761Y-63866666D01*
X78342857Y-63828571D01*
X78419047Y-63790476D01*
X78609523Y-63790476D01*
X78685714Y-63828571D01*
X78723809Y-63866666D01*
X78761904Y-63942857D01*
X78761904Y-64171428D01*
X78723809Y-64247619D01*
X78685714Y-64285714D01*
%TO.C,U9*%
X80990476Y-54361904D02*
X80990476Y-55009523D01*
X81028571Y-55085714D01*
X81066666Y-55123809D01*
X81142857Y-55161904D01*
X81295238Y-55161904D01*
X81371428Y-55123809D01*
X81409523Y-55085714D01*
X81447619Y-55009523D01*
X81447619Y-54361904D01*
X81866666Y-55161904D02*
X82019047Y-55161904D01*
X82095238Y-55123809D01*
X82133333Y-55085714D01*
X82209523Y-54971428D01*
X82247619Y-54819047D01*
X82247619Y-54514285D01*
X82209523Y-54438095D01*
X82171428Y-54400000D01*
X82095238Y-54361904D01*
X81942857Y-54361904D01*
X81866666Y-54400000D01*
X81828571Y-54438095D01*
X81790476Y-54514285D01*
X81790476Y-54704761D01*
X81828571Y-54780952D01*
X81866666Y-54819047D01*
X81942857Y-54857142D01*
X82095238Y-54857142D01*
X82171428Y-54819047D01*
X82209523Y-54780952D01*
X82247619Y-54704761D01*
%TO.C,C21*%
X86157142Y-72042857D02*
X86204761Y-72090476D01*
X86252380Y-72233333D01*
X86252380Y-72328571D01*
X86204761Y-72471428D01*
X86109523Y-72566666D01*
X86014285Y-72614285D01*
X85823809Y-72661904D01*
X85680952Y-72661904D01*
X85490476Y-72614285D01*
X85395238Y-72566666D01*
X85300000Y-72471428D01*
X85252380Y-72328571D01*
X85252380Y-72233333D01*
X85300000Y-72090476D01*
X85347619Y-72042857D01*
X85347619Y-71661904D02*
X85300000Y-71614285D01*
X85252380Y-71519047D01*
X85252380Y-71280952D01*
X85300000Y-71185714D01*
X85347619Y-71138095D01*
X85442857Y-71090476D01*
X85538095Y-71090476D01*
X85680952Y-71138095D01*
X86252380Y-71709523D01*
X86252380Y-71090476D01*
X86252380Y-70138095D02*
X86252380Y-70709523D01*
X86252380Y-70423809D02*
X85252380Y-70423809D01*
X85395238Y-70519047D01*
X85490476Y-70614285D01*
X85538095Y-70709523D01*
%TO.C,U8*%
X77090476Y-66361904D02*
X77090476Y-67009523D01*
X77128571Y-67085714D01*
X77166666Y-67123809D01*
X77242857Y-67161904D01*
X77395238Y-67161904D01*
X77471428Y-67123809D01*
X77509523Y-67085714D01*
X77547619Y-67009523D01*
X77547619Y-66361904D01*
X78042857Y-66704761D02*
X77966666Y-66666666D01*
X77928571Y-66628571D01*
X77890476Y-66552380D01*
X77890476Y-66514285D01*
X77928571Y-66438095D01*
X77966666Y-66400000D01*
X78042857Y-66361904D01*
X78195238Y-66361904D01*
X78271428Y-66400000D01*
X78309523Y-66438095D01*
X78347619Y-66514285D01*
X78347619Y-66552380D01*
X78309523Y-66628571D01*
X78271428Y-66666666D01*
X78195238Y-66704761D01*
X78042857Y-66704761D01*
X77966666Y-66742857D01*
X77928571Y-66780952D01*
X77890476Y-66857142D01*
X77890476Y-67009523D01*
X77928571Y-67085714D01*
X77966666Y-67123809D01*
X78042857Y-67161904D01*
X78195238Y-67161904D01*
X78271428Y-67123809D01*
X78309523Y-67085714D01*
X78347619Y-67009523D01*
X78347619Y-66857142D01*
X78309523Y-66780952D01*
X78271428Y-66742857D01*
X78195238Y-66704761D01*
%TO.C,R11*%
X75961904Y-72814285D02*
X75580952Y-73080952D01*
X75961904Y-73271428D02*
X75161904Y-73271428D01*
X75161904Y-72966666D01*
X75200000Y-72890476D01*
X75238095Y-72852380D01*
X75314285Y-72814285D01*
X75428571Y-72814285D01*
X75504761Y-72852380D01*
X75542857Y-72890476D01*
X75580952Y-72966666D01*
X75580952Y-73271428D01*
X75961904Y-72052380D02*
X75961904Y-72509523D01*
X75961904Y-72280952D02*
X75161904Y-72280952D01*
X75276190Y-72357142D01*
X75352380Y-72433333D01*
X75390476Y-72509523D01*
X75961904Y-71290476D02*
X75961904Y-71747619D01*
X75961904Y-71519047D02*
X75161904Y-71519047D01*
X75276190Y-71595238D01*
X75352380Y-71671428D01*
X75390476Y-71747619D01*
%TO.C,R10*%
X80961904Y-62151785D02*
X80580952Y-62418452D01*
X80961904Y-62608928D02*
X80161904Y-62608928D01*
X80161904Y-62304166D01*
X80200000Y-62227976D01*
X80238095Y-62189880D01*
X80314285Y-62151785D01*
X80428571Y-62151785D01*
X80504761Y-62189880D01*
X80542857Y-62227976D01*
X80580952Y-62304166D01*
X80580952Y-62608928D01*
X80961904Y-61389880D02*
X80961904Y-61847023D01*
X80961904Y-61618452D02*
X80161904Y-61618452D01*
X80276190Y-61694642D01*
X80352380Y-61770833D01*
X80390476Y-61847023D01*
X80161904Y-60894642D02*
X80161904Y-60818452D01*
X80200000Y-60742261D01*
X80238095Y-60704166D01*
X80314285Y-60666071D01*
X80466666Y-60627976D01*
X80657142Y-60627976D01*
X80809523Y-60666071D01*
X80885714Y-60704166D01*
X80923809Y-60742261D01*
X80961904Y-60818452D01*
X80961904Y-60894642D01*
X80923809Y-60970833D01*
X80885714Y-61008928D01*
X80809523Y-61047023D01*
X80657142Y-61085119D01*
X80466666Y-61085119D01*
X80314285Y-61047023D01*
X80238095Y-61008928D01*
X80200000Y-60970833D01*
X80161904Y-60894642D01*
%TO.C,R12*%
X84085714Y-75261904D02*
X83819047Y-74880952D01*
X83628571Y-75261904D02*
X83628571Y-74461904D01*
X83933333Y-74461904D01*
X84009523Y-74500000D01*
X84047619Y-74538095D01*
X84085714Y-74614285D01*
X84085714Y-74728571D01*
X84047619Y-74804761D01*
X84009523Y-74842857D01*
X83933333Y-74880952D01*
X83628571Y-74880952D01*
X84847619Y-75261904D02*
X84390476Y-75261904D01*
X84619047Y-75261904D02*
X84619047Y-74461904D01*
X84542857Y-74576190D01*
X84466666Y-74652380D01*
X84390476Y-74690476D01*
X85152380Y-74538095D02*
X85190476Y-74500000D01*
X85266666Y-74461904D01*
X85457142Y-74461904D01*
X85533333Y-74500000D01*
X85571428Y-74538095D01*
X85609523Y-74614285D01*
X85609523Y-74690476D01*
X85571428Y-74804761D01*
X85114285Y-75261904D01*
X85609523Y-75261904D01*
D12*
%TO.C,3.3v*%
X77200000Y-54700000D02*
G75*
G03*
X77200000Y-54700000I-700000J0D01*
G01*
%TO.C,pg*%
X76900000Y-63300000D02*
G75*
G03*
X76900000Y-63300000I-700000J0D01*
G01*
%TO.C,6v*%
X87650000Y-75350000D02*
G75*
G03*
X87650000Y-75350000I-700000J0D01*
G01*
%TO.C,GND*%
X102300000Y-71950000D02*
G75*
G03*
X102300000Y-71950000I-700000J0D01*
G01*
D13*
%TO.C,U4*%
X79846315Y-49070000D02*
X81446315Y-49070000D01*
X81446315Y-49070000D02*
X81446315Y-50670000D01*
X81446315Y-50670000D02*
X79846315Y-50670000D01*
X79846315Y-50670000D02*
X79846315Y-49070000D01*
D12*
X79646315Y-49270000D02*
G75*
G03*
X79646315Y-49270000I-100000J0D01*
G01*
%TO.C,C1*%
X82124315Y-50187221D02*
X82124315Y-50512779D01*
X83144315Y-50187221D02*
X83144315Y-50512779D01*
%TO.C,C2*%
X77871536Y-49140000D02*
X78197094Y-49140000D01*
X77871536Y-50160000D02*
X78197094Y-50160000D01*
%TO.C,D1*%
X83334315Y-48550000D02*
X78934315Y-48550000D01*
X83334315Y-44550000D02*
X83334315Y-48550000D01*
X78934315Y-44550000D02*
X83334315Y-44550000D01*
X78934315Y-48550000D02*
X78934315Y-44550000D01*
X84034315Y-44850000D02*
G75*
G03*
X84034315Y-44850000I-200000J0D01*
G01*
%TO.C,J1*%
X92080000Y-80680000D02*
X90750000Y-80680000D01*
X89420000Y-78080000D02*
X89420000Y-75480000D01*
X92080000Y-75480000D02*
X89420000Y-75480000D01*
X92080000Y-79350000D02*
X92080000Y-80680000D01*
X92080000Y-78080000D02*
X89420000Y-78080000D01*
X92080000Y-78080000D02*
X92080000Y-75480000D01*
%TO.C,J2*%
X101530000Y-78030000D02*
X101530000Y-75430000D01*
X101530000Y-79300000D02*
X101530000Y-80630000D01*
X101530000Y-75430000D02*
X98870000Y-75430000D01*
X101530000Y-80630000D02*
X100200000Y-80630000D01*
X101530000Y-78030000D02*
X98870000Y-78030000D01*
X98870000Y-78030000D02*
X98870000Y-75430000D01*
%TO.C,R2*%
X78737221Y-51390000D02*
X79062779Y-51390000D01*
X78737221Y-52410000D02*
X79062779Y-52410000D01*
%TO.C,R5*%
X92762742Y-54622500D02*
X93237258Y-54622500D01*
X92762742Y-53577500D02*
X93237258Y-53577500D01*
%TO.C,J4*%
X92542000Y-63256000D02*
X89942000Y-63256000D01*
X95142000Y-60596000D02*
X95142000Y-61926000D01*
X92542000Y-60596000D02*
X89942000Y-60596000D01*
X92542000Y-60596000D02*
X92542000Y-63256000D01*
X89942000Y-60596000D02*
X89942000Y-63256000D01*
X93812000Y-60596000D02*
X95142000Y-60596000D01*
%TO.C,C3*%
X84437221Y-77610000D02*
X84762779Y-77610000D01*
X84437221Y-76590000D02*
X84762779Y-76590000D01*
%TO.C,C4*%
X105437221Y-76690000D02*
X105762779Y-76690000D01*
X105437221Y-77710000D02*
X105762779Y-77710000D01*
%TO.C,R4*%
X93377500Y-77987258D02*
X93377500Y-77512742D01*
X94422500Y-77987258D02*
X94422500Y-77512742D01*
%TO.C,C12*%
X78238748Y-60565000D02*
X78761252Y-60565000D01*
X78238748Y-62035000D02*
X78761252Y-62035000D01*
%TO.C,R3*%
X96677500Y-77987258D02*
X96677500Y-77512742D01*
X97722500Y-77987258D02*
X97722500Y-77512742D01*
%TO.C,U2*%
X106460000Y-81380000D02*
X106460000Y-80450000D01*
X106460000Y-81380000D02*
X105000000Y-81380000D01*
X106460000Y-78220000D02*
X104300000Y-78220000D01*
X106460000Y-78220000D02*
X106460000Y-79150000D01*
%TO.C,U1*%
X85560000Y-81280000D02*
X84100000Y-81280000D01*
X85560000Y-78120000D02*
X85560000Y-79050000D01*
X85560000Y-78120000D02*
X83400000Y-78120000D01*
X85560000Y-81280000D02*
X85560000Y-80350000D01*
%TO.C,C9*%
X88140000Y-57737221D02*
X88140000Y-58062779D01*
X89160000Y-57737221D02*
X89160000Y-58062779D01*
%TO.C,D2*%
X90450000Y-55550000D02*
X90450000Y-56150000D01*
X90450000Y-53850000D02*
X87550000Y-53850000D01*
X90450000Y-56150000D02*
X87550000Y-56150000D01*
%TO.C,C8*%
X95262779Y-46190000D02*
X94937221Y-46190000D01*
X95262779Y-47210000D02*
X94937221Y-47210000D01*
%TO.C,Q4*%
X94530000Y-59160000D02*
X93600000Y-59160000D01*
X91370000Y-59160000D02*
X92300000Y-59160000D01*
X91370000Y-59160000D02*
X91370000Y-57700000D01*
X94530000Y-59160000D02*
X94530000Y-57000000D01*
%TO.C,U7*%
X92000000Y-47740000D02*
X93950000Y-47740000D01*
X92000000Y-52860000D02*
X93950000Y-52860000D01*
X92000000Y-52860000D02*
X90050000Y-52860000D01*
X92000000Y-47740000D02*
X88550000Y-47740000D01*
%TO.C,C15*%
X87640000Y-78240580D02*
X87640000Y-77959420D01*
X88660000Y-78240580D02*
X88660000Y-77959420D01*
%TO.C,JP1*%
X90850000Y-66200000D02*
X90850000Y-66800000D01*
X88050000Y-66800000D02*
X88050000Y-66200000D01*
X90150000Y-67500000D02*
X88750000Y-67500000D01*
X88750000Y-65500000D02*
X90150000Y-65500000D01*
X88050000Y-66800000D02*
G75*
G03*
X88750000Y-67500000I699999J-1D01*
G01*
X90150000Y-67500000D02*
G75*
G03*
X90850000Y-66800000I1J699999D01*
G01*
X90850000Y-66200000D02*
G75*
G03*
X90150000Y-65500000I-699999J1D01*
G01*
X88750000Y-65500000D02*
G75*
G03*
X88050000Y-66200000I-1J-699999D01*
G01*
%TO.C,L2*%
X80450000Y-59962500D02*
X80450000Y-56962500D01*
X77250000Y-59962500D02*
X77250000Y-56962500D01*
%TO.C,Q1*%
X90160000Y-71280000D02*
X90160000Y-68850000D01*
X87090000Y-69520000D02*
X87090000Y-71280000D01*
%TO.C,R8*%
X88462742Y-73872500D02*
X88937258Y-73872500D01*
X88462742Y-72827500D02*
X88937258Y-72827500D01*
%TO.C,C16*%
X103310000Y-77990580D02*
X103310000Y-77709420D01*
X102290000Y-77990580D02*
X102290000Y-77709420D01*
%TO.C,C11*%
X85985000Y-57138748D02*
X85985000Y-57661252D01*
X84515000Y-57138748D02*
X84515000Y-57661252D01*
%TO.C,J5*%
X113363471Y-51860000D02*
X113910000Y-51860000D01*
X111690000Y-65765000D02*
X112492470Y-65765000D01*
X111690000Y-51860000D02*
X112236529Y-51860000D01*
X113107530Y-65765000D02*
X113910000Y-65765000D01*
X113910000Y-51860000D02*
X113910000Y-65765000D01*
X111690000Y-51100000D02*
X111690000Y-50340000D01*
X111690000Y-50340000D02*
X112800000Y-50340000D01*
X111690000Y-51860000D02*
X111690000Y-65765000D01*
D13*
%TO.C,U5*%
X97596200Y-42129400D02*
X107603800Y-42129400D01*
X97596200Y-56429600D02*
X97596200Y-42129400D01*
X107603800Y-56429600D02*
X107603800Y-42129400D01*
X97596200Y-56429600D02*
X107603800Y-56429600D01*
D12*
%TO.C,J3*%
X106165000Y-59215000D02*
X106165000Y-59280000D01*
X102635000Y-65685000D02*
X106165000Y-65685000D01*
X102635000Y-59215000D02*
X102635000Y-59280000D01*
X101310000Y-59280000D02*
X102635000Y-59280000D01*
X106165000Y-65620000D02*
X106165000Y-65685000D01*
X102635000Y-59215000D02*
X106165000Y-59215000D01*
X102635000Y-65620000D02*
X102635000Y-65685000D01*
%TO.C,J6*%
X107270000Y-72030000D02*
X104670000Y-72030000D01*
X104670000Y-69430000D02*
X112410000Y-69430000D01*
X107270000Y-74630000D02*
X107270000Y-72030000D01*
X104670000Y-74630000D02*
X104670000Y-73300000D01*
X104670000Y-72030000D02*
X104670000Y-69430000D01*
X107270000Y-74630000D02*
X112410000Y-74630000D01*
X112410000Y-74630000D02*
X112410000Y-69430000D01*
X106000000Y-74630000D02*
X104670000Y-74630000D01*
%TO.C,C5*%
X95008578Y-64790000D02*
X94491422Y-64790000D01*
X95008578Y-66210000D02*
X94491422Y-66210000D01*
%TO.C,U3*%
X98260000Y-72000000D02*
X98260000Y-69800000D01*
X92740000Y-72000000D02*
X92740000Y-69800000D01*
X98260000Y-72000000D02*
X98260000Y-74200000D01*
X92740000Y-72000000D02*
X92740000Y-75650000D01*
%TO.C,R1*%
X91177500Y-72387258D02*
X91177500Y-71912742D01*
X92222500Y-72387258D02*
X92222500Y-71912742D01*
%TO.C,C6*%
X93215580Y-67835000D02*
X92934420Y-67835000D01*
X93215580Y-66815000D02*
X92934420Y-66815000D01*
%TO.C,C7*%
X96184420Y-66790000D02*
X96465580Y-66790000D01*
X96184420Y-67810000D02*
X96465580Y-67810000D01*
%TO.C,R13*%
X82277500Y-72562742D02*
X82277500Y-73037258D01*
X83322500Y-72562742D02*
X83322500Y-73037258D01*
%TO.C,C19*%
X77259420Y-73090000D02*
X77540580Y-73090000D01*
X77259420Y-74110000D02*
X77540580Y-74110000D01*
%TO.C,U6*%
X80890000Y-58662500D02*
X80890000Y-57862500D01*
X80890000Y-58662500D02*
X80890000Y-60462500D01*
X84010000Y-58662500D02*
X84010000Y-57862500D01*
X84010000Y-58662500D02*
X84010000Y-59462500D01*
%TO.C,R7*%
X80777500Y-72562742D02*
X80777500Y-73037258D01*
X81822500Y-72562742D02*
X81822500Y-73037258D01*
%TO.C,D3*%
X82200000Y-71100000D02*
X84200000Y-71100000D01*
X84200000Y-71100000D02*
X84200000Y-67250000D01*
X82200000Y-71100000D02*
X82200000Y-67250000D01*
%TO.C,C14*%
X79190000Y-72940580D02*
X79190000Y-72659420D01*
X80210000Y-72940580D02*
X80210000Y-72659420D01*
%TO.C,C17*%
X85910000Y-54340580D02*
X85910000Y-54059420D01*
X84890000Y-54340580D02*
X84890000Y-54059420D01*
%TO.C,R9*%
X85572500Y-60525242D02*
X85572500Y-60999758D01*
X84527500Y-60525242D02*
X84527500Y-60999758D01*
%TO.C,C10*%
X80865000Y-65161252D02*
X80865000Y-64638748D01*
X82335000Y-65161252D02*
X82335000Y-64638748D01*
%TO.C,C20*%
X77210000Y-69559420D02*
X77210000Y-69840580D01*
X76190000Y-69559420D02*
X76190000Y-69840580D01*
%TO.C,R6*%
X76722500Y-66462742D02*
X76722500Y-66937258D01*
X75677500Y-66462742D02*
X75677500Y-66937258D01*
%TO.C,L1*%
X82890000Y-64438748D02*
X82890000Y-64961252D01*
X85110000Y-64438748D02*
X85110000Y-64961252D01*
%TO.C,C18*%
X78690000Y-55090580D02*
X78690000Y-54809420D01*
X79710000Y-55090580D02*
X79710000Y-54809420D01*
%TO.C,C13*%
X80310000Y-65340580D02*
X80310000Y-65059420D01*
X79290000Y-65340580D02*
X79290000Y-65059420D01*
%TO.C,U9*%
X82100000Y-53240000D02*
X82900000Y-53240000D01*
X82100000Y-56360000D02*
X81300000Y-56360000D01*
X82100000Y-56360000D02*
X83900000Y-56360000D01*
X82100000Y-53240000D02*
X81300000Y-53240000D01*
%TO.C,C21*%
X86135000Y-68138748D02*
X86135000Y-68661252D01*
X84665000Y-68138748D02*
X84665000Y-68661252D01*
%TO.C,U8*%
X81210000Y-70135000D02*
X81210000Y-70610000D01*
X81210000Y-70610000D02*
X80735000Y-70610000D01*
X81210000Y-67865000D02*
X81210000Y-67390000D01*
X77990000Y-70135000D02*
X77990000Y-70610000D01*
X77990000Y-67865000D02*
X77990000Y-67390000D01*
X77990000Y-70610000D02*
X78465000Y-70610000D01*
X77990000Y-67390000D02*
X78465000Y-67390000D01*
%TO.C,R11*%
X77637258Y-71477500D02*
X77162742Y-71477500D01*
X77637258Y-72522500D02*
X77162742Y-72522500D01*
%TO.C,R10*%
X82887258Y-61177500D02*
X82412742Y-61177500D01*
X82887258Y-62222500D02*
X82412742Y-62222500D01*
%TO.C,R12*%
X84822500Y-72562742D02*
X84822500Y-73037258D01*
X83777500Y-72562742D02*
X83777500Y-73037258D01*
%TD*%
M02*
