%TF.GenerationSoftware,KiCad,Pcbnew,(5.1.6)-1*%
%TF.CreationDate,2021-10-06T19:04:01+02:00*%
%TF.ProjectId,DotBot,446f7442-6f74-42e6-9b69-6361645f7063,rev?*%
%TF.SameCoordinates,Original*%
%TF.FileFunction,Copper,L1,Top*%
%TF.FilePolarity,Positive*%
%FSLAX46Y46*%
G04 Gerber Fmt 4.6, Leading zero omitted, Abs format (unit mm)*
G04 Created by KiCad (PCBNEW (5.1.6)-1) date 2021-10-06 19:04:01*
%MOMM*%
%LPD*%
G01*
G04 APERTURE LIST*
%TA.AperFunction,SMDPad,CuDef*%
%ADD10R,2.790000X0.740000*%
%TD*%
%TA.AperFunction,SMDPad,CuDef*%
%ADD11C,0.400000*%
%TD*%
%TA.AperFunction,SMDPad,CuDef*%
%ADD12R,1.400000X2.000000*%
%TD*%
%TA.AperFunction,SMDPad,CuDef*%
%ADD13R,1.400000X1.200000*%
%TD*%
%TA.AperFunction,SMDPad,CuDef*%
%ADD14R,0.650000X1.220000*%
%TD*%
%TA.AperFunction,SMDPad,CuDef*%
%ADD15C,1.500000*%
%TD*%
%TA.AperFunction,SMDPad,CuDef*%
%ADD16R,2.900000X0.800000*%
%TD*%
%TA.AperFunction,SMDPad,CuDef*%
%ADD17C,0.100000*%
%TD*%
%TA.AperFunction,SMDPad,CuDef*%
%ADD18R,1.060000X0.650000*%
%TD*%
%TA.AperFunction,SMDPad,CuDef*%
%ADD19R,1.600000X5.900000*%
%TD*%
%TA.AperFunction,SMDPad,CuDef*%
%ADD20R,1.100000X1.100000*%
%TD*%
%TA.AperFunction,SMDPad,CuDef*%
%ADD21R,1.000000X0.800000*%
%TD*%
%TA.AperFunction,ComponentPad*%
%ADD22O,1.000000X1.000000*%
%TD*%
%TA.AperFunction,ComponentPad*%
%ADD23R,1.000000X1.000000*%
%TD*%
%TA.AperFunction,ComponentPad*%
%ADD24O,1.700000X1.700000*%
%TD*%
%TA.AperFunction,ComponentPad*%
%ADD25R,1.700000X1.700000*%
%TD*%
%TA.AperFunction,SMDPad,CuDef*%
%ADD26R,0.800000X0.900000*%
%TD*%
%TA.AperFunction,SMDPad,CuDef*%
%ADD27R,0.900000X0.800000*%
%TD*%
%TA.AperFunction,ViaPad*%
%ADD28C,0.500000*%
%TD*%
%TA.AperFunction,Conductor*%
%ADD29R,5.000000X3.400000*%
%TD*%
%TA.AperFunction,ViaPad*%
%ADD30C,0.800000*%
%TD*%
%TA.AperFunction,Conductor*%
%ADD31C,0.200000*%
%TD*%
%TA.AperFunction,Conductor*%
%ADD32C,1.000000*%
%TD*%
%TA.AperFunction,Conductor*%
%ADD33C,0.400000*%
%TD*%
%TA.AperFunction,Conductor*%
%ADD34C,0.250000*%
%TD*%
%TA.AperFunction,Conductor*%
%ADD35C,0.500000*%
%TD*%
%TA.AperFunction,Conductor*%
%ADD36C,0.750000*%
%TD*%
%TA.AperFunction,Conductor*%
%ADD37C,2.000000*%
%TD*%
%TA.AperFunction,Conductor*%
%ADD38C,1.500000*%
%TD*%
%TA.AperFunction,Conductor*%
%ADD39C,0.300000*%
%TD*%
G04 APERTURE END LIST*
D10*
%TO.P,J3,10*%
%TO.N,RESET*%
X106435000Y-64990000D03*
%TO.P,J3,9*%
%TO.N,GND*%
X102365000Y-64990000D03*
%TO.P,J3,8*%
%TO.N,N/C*%
X106435000Y-63720000D03*
%TO.P,J3,7*%
X102365000Y-63720000D03*
%TO.P,J3,6*%
X106435000Y-62450000D03*
%TO.P,J3,5*%
%TO.N,GND*%
X102365000Y-62450000D03*
%TO.P,J3,4*%
%TO.N,SWDCLK*%
X106435000Y-61180000D03*
%TO.P,J3,3*%
%TO.N,GND*%
X102365000Y-61180000D03*
%TO.P,J3,2*%
%TO.N,SWDIO*%
X106435000Y-59910000D03*
%TO.P,J3,1*%
%TO.N,VDD*%
X102365000Y-59910000D03*
%TD*%
%TO.P,U5,28*%
%TO.N,GND*%
%TA.AperFunction,SMDPad,CuDef*%
G36*
G01*
X101838000Y-52746600D02*
X101838000Y-52746600D01*
G75*
G02*
X102092000Y-52492600I254000J0D01*
G01*
X102092000Y-52492600D01*
G75*
G02*
X102346000Y-52746600I0J-254000D01*
G01*
X102346000Y-52746600D01*
G75*
G02*
X102092000Y-53000600I-254000J0D01*
G01*
X102092000Y-53000600D01*
G75*
G02*
X101838000Y-52746600I0J254000D01*
G01*
G37*
%TD.AperFunction*%
%TO.P,U5,27*%
%TA.AperFunction,SMDPad,CuDef*%
G36*
G01*
X101838000Y-51756000D02*
X101838000Y-51756000D01*
G75*
G02*
X102092000Y-51502000I254000J0D01*
G01*
X102092000Y-51502000D01*
G75*
G02*
X102346000Y-51756000I0J-254000D01*
G01*
X102346000Y-51756000D01*
G75*
G02*
X102092000Y-52010000I-254000J0D01*
G01*
X102092000Y-52010000D01*
G75*
G02*
X101838000Y-51756000I0J254000D01*
G01*
G37*
%TD.AperFunction*%
%TO.P,U5,26*%
%TA.AperFunction,SMDPad,CuDef*%
G36*
G01*
X102854000Y-52746600D02*
X102854000Y-52746600D01*
G75*
G02*
X103108000Y-52492600I254000J0D01*
G01*
X103108000Y-52492600D01*
G75*
G02*
X103362000Y-52746600I0J-254000D01*
G01*
X103362000Y-52746600D01*
G75*
G02*
X103108000Y-53000600I-254000J0D01*
G01*
X103108000Y-53000600D01*
G75*
G02*
X102854000Y-52746600I0J254000D01*
G01*
G37*
%TD.AperFunction*%
%TO.P,U5,25*%
%TA.AperFunction,SMDPad,CuDef*%
G36*
G01*
X102854000Y-51756000D02*
X102854000Y-51756000D01*
G75*
G02*
X103108000Y-51502000I254000J0D01*
G01*
X103108000Y-51502000D01*
G75*
G02*
X103362000Y-51756000I0J-254000D01*
G01*
X103362000Y-51756000D01*
G75*
G02*
X103108000Y-52010000I-254000J0D01*
G01*
X103108000Y-52010000D01*
G75*
G02*
X102854000Y-51756000I0J254000D01*
G01*
G37*
%TD.AperFunction*%
%TO.P,U5,24*%
%TO.N,P0_10*%
%TA.AperFunction,SMDPad,CuDef*%
G36*
G01*
X103844600Y-49749400D02*
X103844600Y-49749400D01*
G75*
G02*
X104098600Y-49495400I254000J0D01*
G01*
X104098600Y-49495400D01*
G75*
G02*
X104352600Y-49749400I0J-254000D01*
G01*
X104352600Y-49749400D01*
G75*
G02*
X104098600Y-50003400I-254000J0D01*
G01*
X104098600Y-50003400D01*
G75*
G02*
X103844600Y-49749400I0J254000D01*
G01*
G37*
%TD.AperFunction*%
%TO.P,U5,23*%
%TO.N,P0_09*%
%TA.AperFunction,SMDPad,CuDef*%
G36*
G01*
X104835200Y-49749400D02*
X104835200Y-49749400D01*
G75*
G02*
X105089200Y-49495400I254000J0D01*
G01*
X105089200Y-49495400D01*
G75*
G02*
X105343200Y-49749400I0J-254000D01*
G01*
X105343200Y-49749400D01*
G75*
G02*
X105089200Y-50003400I-254000J0D01*
G01*
X105089200Y-50003400D01*
G75*
G02*
X104835200Y-49749400I0J254000D01*
G01*
G37*
%TD.AperFunction*%
%TO.P,U5,22*%
%TO.N,SWDCLK*%
%TA.AperFunction,SMDPad,CuDef*%
G36*
G01*
X105851200Y-49749400D02*
X105851200Y-49749400D01*
G75*
G02*
X106105200Y-49495400I254000J0D01*
G01*
X106105200Y-49495400D01*
G75*
G02*
X106359200Y-49749400I0J-254000D01*
G01*
X106359200Y-49749400D01*
G75*
G02*
X106105200Y-50003400I-254000J0D01*
G01*
X106105200Y-50003400D01*
G75*
G02*
X105851200Y-49749400I0J254000D01*
G01*
G37*
%TD.AperFunction*%
%TO.P,U5,21*%
%TO.N,P0_20*%
%TA.AperFunction,SMDPad,CuDef*%
G36*
G01*
X105851200Y-50740000D02*
X105851200Y-50740000D01*
G75*
G02*
X106105200Y-50486000I254000J0D01*
G01*
X106105200Y-50486000D01*
G75*
G02*
X106359200Y-50740000I0J-254000D01*
G01*
X106359200Y-50740000D01*
G75*
G02*
X106105200Y-50994000I-254000J0D01*
G01*
X106105200Y-50994000D01*
G75*
G02*
X105851200Y-50740000I0J254000D01*
G01*
G37*
%TD.AperFunction*%
%TO.P,U5,20*%
%TO.N,P0_17*%
%TA.AperFunction,SMDPad,CuDef*%
G36*
G01*
X105851200Y-51756000D02*
X105851200Y-51756000D01*
G75*
G02*
X106105200Y-51502000I254000J0D01*
G01*
X106105200Y-51502000D01*
G75*
G02*
X106359200Y-51756000I0J-254000D01*
G01*
X106359200Y-51756000D01*
G75*
G02*
X106105200Y-52010000I-254000J0D01*
G01*
X106105200Y-52010000D01*
G75*
G02*
X105851200Y-51756000I0J254000D01*
G01*
G37*
%TD.AperFunction*%
%TO.P,U5,19*%
%TO.N,N/C*%
%TA.AperFunction,SMDPad,CuDef*%
G36*
G01*
X105851200Y-52746600D02*
X105851200Y-52746600D01*
G75*
G02*
X106105200Y-52492600I254000J0D01*
G01*
X106105200Y-52492600D01*
G75*
G02*
X106359200Y-52746600I0J-254000D01*
G01*
X106359200Y-52746600D01*
G75*
G02*
X106105200Y-53000600I-254000J0D01*
G01*
X106105200Y-53000600D01*
G75*
G02*
X105851200Y-52746600I0J254000D01*
G01*
G37*
%TD.AperFunction*%
%TO.P,U5,18*%
%TO.N,SWDIO*%
%TA.AperFunction,SMDPad,CuDef*%
G36*
G01*
X106841800Y-49749400D02*
X106841800Y-49749400D01*
G75*
G02*
X107095800Y-49495400I254000J0D01*
G01*
X107095800Y-49495400D01*
G75*
G02*
X107349800Y-49749400I0J-254000D01*
G01*
X107349800Y-49749400D01*
G75*
G02*
X107095800Y-50003400I-254000J0D01*
G01*
X107095800Y-50003400D01*
G75*
G02*
X106841800Y-49749400I0J254000D01*
G01*
G37*
%TD.AperFunction*%
%TO.P,U5,17*%
%TO.N,RESET*%
%TA.AperFunction,SMDPad,CuDef*%
G36*
G01*
X106841800Y-50740000D02*
X106841800Y-50740000D01*
G75*
G02*
X107095800Y-50486000I254000J0D01*
G01*
X107095800Y-50486000D01*
G75*
G02*
X107349800Y-50740000I0J-254000D01*
G01*
X107349800Y-50740000D01*
G75*
G02*
X107095800Y-50994000I-254000J0D01*
G01*
X107095800Y-50994000D01*
G75*
G02*
X106841800Y-50740000I0J254000D01*
G01*
G37*
%TD.AperFunction*%
%TO.P,U5,16*%
%TO.N,P0_15*%
%TA.AperFunction,SMDPad,CuDef*%
G36*
G01*
X106841800Y-51756000D02*
X106841800Y-51756000D01*
G75*
G02*
X107095800Y-51502000I254000J0D01*
G01*
X107095800Y-51502000D01*
G75*
G02*
X107349800Y-51756000I0J-254000D01*
G01*
X107349800Y-51756000D01*
G75*
G02*
X107095800Y-52010000I-254000J0D01*
G01*
X107095800Y-52010000D01*
G75*
G02*
X106841800Y-51756000I0J254000D01*
G01*
G37*
%TD.AperFunction*%
%TO.P,U5,15*%
%TO.N,N/C*%
%TA.AperFunction,SMDPad,CuDef*%
G36*
G01*
X106841800Y-52746600D02*
X106841800Y-52746600D01*
G75*
G02*
X107095800Y-52492600I254000J0D01*
G01*
X107095800Y-52492600D01*
G75*
G02*
X107349800Y-52746600I0J-254000D01*
G01*
X107349800Y-52746600D01*
G75*
G02*
X107095800Y-53000600I-254000J0D01*
G01*
X107095800Y-53000600D01*
G75*
G02*
X106841800Y-52746600I0J254000D01*
G01*
G37*
%TD.AperFunction*%
%TO.P,U5,14*%
%TA.AperFunction,SMDPad,CuDef*%
G36*
G01*
X106841800Y-54753200D02*
X106841800Y-54753200D01*
G75*
G02*
X107095800Y-54499200I254000J0D01*
G01*
X107095800Y-54499200D01*
G75*
G02*
X107349800Y-54753200I0J-254000D01*
G01*
X107349800Y-54753200D01*
G75*
G02*
X107095800Y-55007200I-254000J0D01*
G01*
X107095800Y-55007200D01*
G75*
G02*
X106841800Y-54753200I0J254000D01*
G01*
G37*
%TD.AperFunction*%
%TO.P,U5,13*%
%TO.N,VDD*%
%TA.AperFunction,SMDPad,CuDef*%
G36*
G01*
X105851200Y-54753200D02*
X105851200Y-54753200D01*
G75*
G02*
X106105200Y-54499200I254000J0D01*
G01*
X106105200Y-54499200D01*
G75*
G02*
X106359200Y-54753200I0J-254000D01*
G01*
X106359200Y-54753200D01*
G75*
G02*
X106105200Y-55007200I-254000J0D01*
G01*
X106105200Y-55007200D01*
G75*
G02*
X105851200Y-54753200I0J254000D01*
G01*
G37*
%TD.AperFunction*%
%TO.P,U5,12*%
%TO.N,P0_11*%
%TA.AperFunction,SMDPad,CuDef*%
G36*
G01*
X104835200Y-54753200D02*
X104835200Y-54753200D01*
G75*
G02*
X105089200Y-54499200I254000J0D01*
G01*
X105089200Y-54499200D01*
G75*
G02*
X105343200Y-54753200I0J-254000D01*
G01*
X105343200Y-54753200D01*
G75*
G02*
X105089200Y-55007200I-254000J0D01*
G01*
X105089200Y-55007200D01*
G75*
G02*
X104835200Y-54753200I0J254000D01*
G01*
G37*
%TD.AperFunction*%
%TO.P,U5,11*%
%TO.N,P1_09*%
%TA.AperFunction,SMDPad,CuDef*%
G36*
G01*
X103844600Y-54753200D02*
X103844600Y-54753200D01*
G75*
G02*
X104098600Y-54499200I254000J0D01*
G01*
X104098600Y-54499200D01*
G75*
G02*
X104352600Y-54753200I0J-254000D01*
G01*
X104352600Y-54753200D01*
G75*
G02*
X104098600Y-55007200I-254000J0D01*
G01*
X104098600Y-55007200D01*
G75*
G02*
X103844600Y-54753200I0J254000D01*
G01*
G37*
%TD.AperFunction*%
%TO.P,U5,10*%
%TO.N,P0_05*%
%TA.AperFunction,SMDPad,CuDef*%
G36*
G01*
X102854000Y-54753200D02*
X102854000Y-54753200D01*
G75*
G02*
X103108000Y-54499200I254000J0D01*
G01*
X103108000Y-54499200D01*
G75*
G02*
X103362000Y-54753200I0J-254000D01*
G01*
X103362000Y-54753200D01*
G75*
G02*
X103108000Y-55007200I-254000J0D01*
G01*
X103108000Y-55007200D01*
G75*
G02*
X102854000Y-54753200I0J254000D01*
G01*
G37*
%TD.AperFunction*%
%TO.P,U5,9*%
%TO.N,P0_04*%
%TA.AperFunction,SMDPad,CuDef*%
G36*
G01*
X101838000Y-54753200D02*
X101838000Y-54753200D01*
G75*
G02*
X102092000Y-54499200I254000J0D01*
G01*
X102092000Y-54499200D01*
G75*
G02*
X102346000Y-54753200I0J-254000D01*
G01*
X102346000Y-54753200D01*
G75*
G02*
X102092000Y-55007200I-254000J0D01*
G01*
X102092000Y-55007200D01*
G75*
G02*
X101838000Y-54753200I0J254000D01*
G01*
G37*
%TD.AperFunction*%
%TO.P,U5,8*%
%TO.N,P0_31*%
%TA.AperFunction,SMDPad,CuDef*%
G36*
G01*
X98840800Y-52746600D02*
X98840800Y-52746600D01*
G75*
G02*
X99094800Y-52492600I254000J0D01*
G01*
X99094800Y-52492600D01*
G75*
G02*
X99348800Y-52746600I0J-254000D01*
G01*
X99348800Y-52746600D01*
G75*
G02*
X99094800Y-53000600I-254000J0D01*
G01*
X99094800Y-53000600D01*
G75*
G02*
X98840800Y-52746600I0J254000D01*
G01*
G37*
%TD.AperFunction*%
%TO.P,U5,7*%
%TO.N,P0_30*%
%TA.AperFunction,SMDPad,CuDef*%
G36*
G01*
X98840800Y-51756000D02*
X98840800Y-51756000D01*
G75*
G02*
X99094800Y-51502000I254000J0D01*
G01*
X99094800Y-51502000D01*
G75*
G02*
X99348800Y-51756000I0J-254000D01*
G01*
X99348800Y-51756000D01*
G75*
G02*
X99094800Y-52010000I-254000J0D01*
G01*
X99094800Y-52010000D01*
G75*
G02*
X98840800Y-51756000I0J254000D01*
G01*
G37*
%TD.AperFunction*%
%TO.P,U5,6*%
%TO.N,P0_29*%
%TA.AperFunction,SMDPad,CuDef*%
G36*
G01*
X98840800Y-50740000D02*
X98840800Y-50740000D01*
G75*
G02*
X99094800Y-50486000I254000J0D01*
G01*
X99094800Y-50486000D01*
G75*
G02*
X99348800Y-50740000I0J-254000D01*
G01*
X99348800Y-50740000D01*
G75*
G02*
X99094800Y-50994000I-254000J0D01*
G01*
X99094800Y-50994000D01*
G75*
G02*
X98840800Y-50740000I0J254000D01*
G01*
G37*
%TD.AperFunction*%
%TO.P,U5,5*%
%TO.N,GND*%
%TA.AperFunction,SMDPad,CuDef*%
G36*
G01*
X97850200Y-53762600D02*
X97850200Y-53762600D01*
G75*
G02*
X98104200Y-53508600I254000J0D01*
G01*
X98104200Y-53508600D01*
G75*
G02*
X98358200Y-53762600I0J-254000D01*
G01*
X98358200Y-53762600D01*
G75*
G02*
X98104200Y-54016600I-254000J0D01*
G01*
X98104200Y-54016600D01*
G75*
G02*
X97850200Y-53762600I0J254000D01*
G01*
G37*
%TD.AperFunction*%
%TO.P,U5,4*%
%TO.N,P0_28*%
%TA.AperFunction,SMDPad,CuDef*%
G36*
G01*
X97850200Y-52746600D02*
X97850200Y-52746600D01*
G75*
G02*
X98104200Y-52492600I254000J0D01*
G01*
X98104200Y-52492600D01*
G75*
G02*
X98358200Y-52746600I0J-254000D01*
G01*
X98358200Y-52746600D01*
G75*
G02*
X98104200Y-53000600I-254000J0D01*
G01*
X98104200Y-53000600D01*
G75*
G02*
X97850200Y-52746600I0J254000D01*
G01*
G37*
%TD.AperFunction*%
%TO.P,U5,3*%
%TO.N,P0_02*%
%TA.AperFunction,SMDPad,CuDef*%
G36*
G01*
X97850200Y-51756000D02*
X97850200Y-51756000D01*
G75*
G02*
X98104200Y-51502000I254000J0D01*
G01*
X98104200Y-51502000D01*
G75*
G02*
X98358200Y-51756000I0J-254000D01*
G01*
X98358200Y-51756000D01*
G75*
G02*
X98104200Y-52010000I-254000J0D01*
G01*
X98104200Y-52010000D01*
G75*
G02*
X97850200Y-51756000I0J254000D01*
G01*
G37*
%TD.AperFunction*%
%TO.P,U5,2*%
%TO.N,P0_03*%
%TA.AperFunction,SMDPad,CuDef*%
G36*
G01*
X97850200Y-50740000D02*
X97850200Y-50740000D01*
G75*
G02*
X98104200Y-50486000I254000J0D01*
G01*
X98104200Y-50486000D01*
G75*
G02*
X98358200Y-50740000I0J-254000D01*
G01*
X98358200Y-50740000D01*
G75*
G02*
X98104200Y-50994000I-254000J0D01*
G01*
X98104200Y-50994000D01*
G75*
G02*
X97850200Y-50740000I0J254000D01*
G01*
G37*
%TD.AperFunction*%
%TO.P,U5,1*%
%TO.N,VDD*%
%TA.AperFunction,SMDPad,CuDef*%
G36*
G01*
X97850200Y-49749400D02*
X97850200Y-49749400D01*
G75*
G02*
X98104200Y-49495400I254000J0D01*
G01*
X98104200Y-49495400D01*
G75*
G02*
X98358200Y-49749400I0J-254000D01*
G01*
X98358200Y-49749400D01*
G75*
G02*
X98104200Y-50003400I-254000J0D01*
G01*
X98104200Y-50003400D01*
G75*
G02*
X97850200Y-49749400I0J254000D01*
G01*
G37*
%TD.AperFunction*%
%TD*%
D11*
%TO.P,U4,C3*%
%TO.N,+3V3*%
X81212000Y-51120000D03*
%TO.P,U4,C2*%
%TO.N,P0_30*%
X80712000Y-51120000D03*
%TO.P,U4,C1*%
%TO.N,P0_29*%
X80212000Y-51120000D03*
%TO.P,U4,B1*%
%TO.N,Net-(R2-Pad2)*%
X80212000Y-50620000D03*
%TO.P,U4,B3*%
%TO.N,GND*%
X81212000Y-50620000D03*
%TO.P,U4,A3*%
%TO.N,Net-(D1-Pad1)*%
X81212000Y-50120000D03*
%TO.P,U4,A1*%
%TO.N,Net-(C2-Pad2)*%
X80212000Y-50120000D03*
%TO.P,U4,A2*%
%TO.N,Net-(D1-Pad2)*%
X80712000Y-50120000D03*
%TO.P,U4,B2*%
%TO.N,GND*%
X80712000Y-50620000D03*
%TD*%
D12*
%TO.P,D1,1*%
%TO.N,Net-(D1-Pad1)*%
X84300000Y-47300000D03*
D13*
%TO.P,D1,2*%
%TO.N,Net-(D1-Pad2)*%
X78200000Y-47300000D03*
%TD*%
D14*
%TO.P,U6,6*%
%TO.N,Net-(L2-Pad1)*%
X81300000Y-60260000D03*
%TO.P,U6,5*%
%TO.N,VDD*%
X80350000Y-60260000D03*
%TO.P,U6,4*%
%TO.N,P0_20*%
X79400000Y-60260000D03*
%TO.P,U6,3*%
%TO.N,+3V3*%
X79400000Y-57640000D03*
%TO.P,U6,2*%
%TO.N,GND*%
X80350000Y-57640000D03*
%TO.P,U6,1*%
%TO.N,Net-(L2-Pad2)*%
X81300000Y-57640000D03*
%TD*%
D15*
%TO.P,3.3v,1*%
%TO.N,+3V3*%
X77250000Y-55900000D03*
%TD*%
%TO.P,6v,1*%
%TO.N,Net-(C13-Pad1)*%
X86950000Y-75350000D03*
%TD*%
%TO.P,GND,1*%
%TO.N,GND*%
X101600000Y-71950000D03*
%TD*%
%TO.P,R8,2*%
%TO.N,Net-(Q1-Pad6)*%
%TA.AperFunction,SMDPad,CuDef*%
G36*
G01*
X89125000Y-73625000D02*
X89125000Y-73075000D01*
G75*
G02*
X89325000Y-72875000I200000J0D01*
G01*
X89725000Y-72875000D01*
G75*
G02*
X89925000Y-73075000I0J-200000D01*
G01*
X89925000Y-73625000D01*
G75*
G02*
X89725000Y-73825000I-200000J0D01*
G01*
X89325000Y-73825000D01*
G75*
G02*
X89125000Y-73625000I0J200000D01*
G01*
G37*
%TD.AperFunction*%
%TO.P,R8,1*%
%TO.N,Net-(C13-Pad1)*%
%TA.AperFunction,SMDPad,CuDef*%
G36*
G01*
X87475000Y-73625000D02*
X87475000Y-73075000D01*
G75*
G02*
X87675000Y-72875000I200000J0D01*
G01*
X88075000Y-72875000D01*
G75*
G02*
X88275000Y-73075000I0J-200000D01*
G01*
X88275000Y-73625000D01*
G75*
G02*
X88075000Y-73825000I-200000J0D01*
G01*
X87675000Y-73825000D01*
G75*
G02*
X87475000Y-73625000I0J200000D01*
G01*
G37*
%TD.AperFunction*%
%TD*%
D14*
%TO.P,Q1,6*%
%TO.N,Net-(Q1-Pad6)*%
X89600000Y-71710000D03*
%TO.P,Q1,5*%
%TO.N,P0_20*%
X88650000Y-71710000D03*
%TO.P,Q1,4*%
%TO.N,Net-(C13-Pad1)*%
X87700000Y-71710000D03*
%TO.P,Q1,3*%
%TO.N,+6V*%
X87700000Y-69090000D03*
%TO.P,Q1,2*%
X88650000Y-69090000D03*
%TO.P,Q1,1*%
%TO.N,GND*%
X89600000Y-69090000D03*
%TD*%
D16*
%TO.P,L2,2*%
%TO.N,Net-(L2-Pad2)*%
X83900000Y-57850000D03*
%TO.P,L2,1*%
%TO.N,Net-(L2-Pad1)*%
X83900000Y-60050000D03*
%TD*%
%TA.AperFunction,SMDPad,CuDef*%
D17*
%TO.P,LSJ,2*%
%TO.N,+6V*%
G36*
X90100000Y-65750602D02*
G01*
X90124534Y-65750602D01*
X90173365Y-65755412D01*
X90221490Y-65764984D01*
X90268445Y-65779228D01*
X90313778Y-65798005D01*
X90357051Y-65821136D01*
X90397850Y-65848396D01*
X90435779Y-65879524D01*
X90470476Y-65914221D01*
X90501604Y-65952150D01*
X90528864Y-65992949D01*
X90551995Y-66036222D01*
X90570772Y-66081555D01*
X90585016Y-66128510D01*
X90594588Y-66176635D01*
X90599398Y-66225466D01*
X90599398Y-66250000D01*
X90600000Y-66250000D01*
X90600000Y-66750000D01*
X90599398Y-66750000D01*
X90599398Y-66774534D01*
X90594588Y-66823365D01*
X90585016Y-66871490D01*
X90570772Y-66918445D01*
X90551995Y-66963778D01*
X90528864Y-67007051D01*
X90501604Y-67047850D01*
X90470476Y-67085779D01*
X90435779Y-67120476D01*
X90397850Y-67151604D01*
X90357051Y-67178864D01*
X90313778Y-67201995D01*
X90268445Y-67220772D01*
X90221490Y-67235016D01*
X90173365Y-67244588D01*
X90124534Y-67249398D01*
X90100000Y-67249398D01*
X90100000Y-67250000D01*
X89600000Y-67250000D01*
X89600000Y-65750000D01*
X90100000Y-65750000D01*
X90100000Y-65750602D01*
G37*
%TD.AperFunction*%
%TA.AperFunction,SMDPad,CuDef*%
%TO.P,LSJ,1*%
%TO.N,Net-(C13-Pad1)*%
G36*
X89300000Y-67250000D02*
G01*
X88800000Y-67250000D01*
X88800000Y-67249398D01*
X88775466Y-67249398D01*
X88726635Y-67244588D01*
X88678510Y-67235016D01*
X88631555Y-67220772D01*
X88586222Y-67201995D01*
X88542949Y-67178864D01*
X88502150Y-67151604D01*
X88464221Y-67120476D01*
X88429524Y-67085779D01*
X88398396Y-67047850D01*
X88371136Y-67007051D01*
X88348005Y-66963778D01*
X88329228Y-66918445D01*
X88314984Y-66871490D01*
X88305412Y-66823365D01*
X88300602Y-66774534D01*
X88300602Y-66750000D01*
X88300000Y-66750000D01*
X88300000Y-66250000D01*
X88300602Y-66250000D01*
X88300602Y-66225466D01*
X88305412Y-66176635D01*
X88314984Y-66128510D01*
X88329228Y-66081555D01*
X88348005Y-66036222D01*
X88371136Y-65992949D01*
X88398396Y-65952150D01*
X88429524Y-65914221D01*
X88464221Y-65879524D01*
X88502150Y-65848396D01*
X88542949Y-65821136D01*
X88586222Y-65798005D01*
X88631555Y-65779228D01*
X88678510Y-65764984D01*
X88726635Y-65755412D01*
X88775466Y-65750602D01*
X88800000Y-65750602D01*
X88800000Y-65750000D01*
X89300000Y-65750000D01*
X89300000Y-67250000D01*
G37*
%TD.AperFunction*%
%TD*%
%TO.P,C16,2*%
%TO.N,Net-(C16-Pad2)*%
%TA.AperFunction,SMDPad,CuDef*%
G36*
G01*
X103050000Y-77525000D02*
X102550000Y-77525000D01*
G75*
G02*
X102325000Y-77300000I0J225000D01*
G01*
X102325000Y-76850000D01*
G75*
G02*
X102550000Y-76625000I225000J0D01*
G01*
X103050000Y-76625000D01*
G75*
G02*
X103275000Y-76850000I0J-225000D01*
G01*
X103275000Y-77300000D01*
G75*
G02*
X103050000Y-77525000I-225000J0D01*
G01*
G37*
%TD.AperFunction*%
%TO.P,C16,1*%
%TO.N,Net-(C16-Pad1)*%
%TA.AperFunction,SMDPad,CuDef*%
G36*
G01*
X103050000Y-79075000D02*
X102550000Y-79075000D01*
G75*
G02*
X102325000Y-78850000I0J225000D01*
G01*
X102325000Y-78400000D01*
G75*
G02*
X102550000Y-78175000I225000J0D01*
G01*
X103050000Y-78175000D01*
G75*
G02*
X103275000Y-78400000I0J-225000D01*
G01*
X103275000Y-78850000D01*
G75*
G02*
X103050000Y-79075000I-225000J0D01*
G01*
G37*
%TD.AperFunction*%
%TD*%
%TO.P,C15,2*%
%TO.N,Net-(C15-Pad2)*%
%TA.AperFunction,SMDPad,CuDef*%
G36*
G01*
X88400000Y-77775000D02*
X87900000Y-77775000D01*
G75*
G02*
X87675000Y-77550000I0J225000D01*
G01*
X87675000Y-77100000D01*
G75*
G02*
X87900000Y-76875000I225000J0D01*
G01*
X88400000Y-76875000D01*
G75*
G02*
X88625000Y-77100000I0J-225000D01*
G01*
X88625000Y-77550000D01*
G75*
G02*
X88400000Y-77775000I-225000J0D01*
G01*
G37*
%TD.AperFunction*%
%TO.P,C15,1*%
%TO.N,Net-(C15-Pad1)*%
%TA.AperFunction,SMDPad,CuDef*%
G36*
G01*
X88400000Y-79325000D02*
X87900000Y-79325000D01*
G75*
G02*
X87675000Y-79100000I0J225000D01*
G01*
X87675000Y-78650000D01*
G75*
G02*
X87900000Y-78425000I225000J0D01*
G01*
X88400000Y-78425000D01*
G75*
G02*
X88625000Y-78650000I0J-225000D01*
G01*
X88625000Y-79100000D01*
G75*
G02*
X88400000Y-79325000I-225000J0D01*
G01*
G37*
%TD.AperFunction*%
%TD*%
%TO.P,C12,2*%
%TO.N,GND*%
%TA.AperFunction,SMDPad,CuDef*%
G36*
G01*
X78125000Y-58950000D02*
X77175000Y-58950000D01*
G75*
G02*
X76925000Y-58700000I0J250000D01*
G01*
X76925000Y-58200000D01*
G75*
G02*
X77175000Y-57950000I250000J0D01*
G01*
X78125000Y-57950000D01*
G75*
G02*
X78375000Y-58200000I0J-250000D01*
G01*
X78375000Y-58700000D01*
G75*
G02*
X78125000Y-58950000I-250000J0D01*
G01*
G37*
%TD.AperFunction*%
%TO.P,C12,1*%
%TO.N,VDD*%
%TA.AperFunction,SMDPad,CuDef*%
G36*
G01*
X78125000Y-60850000D02*
X77175000Y-60850000D01*
G75*
G02*
X76925000Y-60600000I0J250000D01*
G01*
X76925000Y-60100000D01*
G75*
G02*
X77175000Y-59850000I250000J0D01*
G01*
X78125000Y-59850000D01*
G75*
G02*
X78375000Y-60100000I0J-250000D01*
G01*
X78375000Y-60600000D01*
G75*
G02*
X78125000Y-60850000I-250000J0D01*
G01*
G37*
%TD.AperFunction*%
%TD*%
%TO.P,C11,2*%
%TO.N,GND*%
%TA.AperFunction,SMDPad,CuDef*%
G36*
G01*
X80800000Y-56225000D02*
X80800000Y-55275000D01*
G75*
G02*
X81050000Y-55025000I250000J0D01*
G01*
X81550000Y-55025000D01*
G75*
G02*
X81800000Y-55275000I0J-250000D01*
G01*
X81800000Y-56225000D01*
G75*
G02*
X81550000Y-56475000I-250000J0D01*
G01*
X81050000Y-56475000D01*
G75*
G02*
X80800000Y-56225000I0J250000D01*
G01*
G37*
%TD.AperFunction*%
%TO.P,C11,1*%
%TO.N,+3V3*%
%TA.AperFunction,SMDPad,CuDef*%
G36*
G01*
X78900000Y-56225000D02*
X78900000Y-55275000D01*
G75*
G02*
X79150000Y-55025000I250000J0D01*
G01*
X79650000Y-55025000D01*
G75*
G02*
X79900000Y-55275000I0J-250000D01*
G01*
X79900000Y-56225000D01*
G75*
G02*
X79650000Y-56475000I-250000J0D01*
G01*
X79150000Y-56475000D01*
G75*
G02*
X78900000Y-56225000I0J250000D01*
G01*
G37*
%TD.AperFunction*%
%TD*%
%TO.P,R2,2*%
%TO.N,Net-(R2-Pad2)*%
%TA.AperFunction,SMDPad,CuDef*%
G36*
G01*
X79650000Y-52756250D02*
X79650000Y-52243750D01*
G75*
G02*
X79868750Y-52025000I218750J0D01*
G01*
X80306250Y-52025000D01*
G75*
G02*
X80525000Y-52243750I0J-218750D01*
G01*
X80525000Y-52756250D01*
G75*
G02*
X80306250Y-52975000I-218750J0D01*
G01*
X79868750Y-52975000D01*
G75*
G02*
X79650000Y-52756250I0J218750D01*
G01*
G37*
%TD.AperFunction*%
%TO.P,R2,1*%
%TO.N,GND*%
%TA.AperFunction,SMDPad,CuDef*%
G36*
G01*
X78075000Y-52756250D02*
X78075000Y-52243750D01*
G75*
G02*
X78293750Y-52025000I218750J0D01*
G01*
X78731250Y-52025000D01*
G75*
G02*
X78950000Y-52243750I0J-218750D01*
G01*
X78950000Y-52756250D01*
G75*
G02*
X78731250Y-52975000I-218750J0D01*
G01*
X78293750Y-52975000D01*
G75*
G02*
X78075000Y-52756250I0J218750D01*
G01*
G37*
%TD.AperFunction*%
%TD*%
%TO.P,C2,2*%
%TO.N,Net-(C2-Pad2)*%
%TA.AperFunction,SMDPad,CuDef*%
G36*
G01*
X78450000Y-50656250D02*
X78450000Y-50143750D01*
G75*
G02*
X78668750Y-49925000I218750J0D01*
G01*
X79106250Y-49925000D01*
G75*
G02*
X79325000Y-50143750I0J-218750D01*
G01*
X79325000Y-50656250D01*
G75*
G02*
X79106250Y-50875000I-218750J0D01*
G01*
X78668750Y-50875000D01*
G75*
G02*
X78450000Y-50656250I0J218750D01*
G01*
G37*
%TD.AperFunction*%
%TO.P,C2,1*%
%TO.N,GND*%
%TA.AperFunction,SMDPad,CuDef*%
G36*
G01*
X76875000Y-50656250D02*
X76875000Y-50143750D01*
G75*
G02*
X77093750Y-49925000I218750J0D01*
G01*
X77531250Y-49925000D01*
G75*
G02*
X77750000Y-50143750I0J-218750D01*
G01*
X77750000Y-50656250D01*
G75*
G02*
X77531250Y-50875000I-218750J0D01*
G01*
X77093750Y-50875000D01*
G75*
G02*
X76875000Y-50656250I0J218750D01*
G01*
G37*
%TD.AperFunction*%
%TD*%
%TO.P,C1,2*%
%TO.N,+3V3*%
%TA.AperFunction,SMDPad,CuDef*%
G36*
G01*
X82443750Y-51450000D02*
X82956250Y-51450000D01*
G75*
G02*
X83175000Y-51668750I0J-218750D01*
G01*
X83175000Y-52106250D01*
G75*
G02*
X82956250Y-52325000I-218750J0D01*
G01*
X82443750Y-52325000D01*
G75*
G02*
X82225000Y-52106250I0J218750D01*
G01*
X82225000Y-51668750D01*
G75*
G02*
X82443750Y-51450000I218750J0D01*
G01*
G37*
%TD.AperFunction*%
%TO.P,C1,1*%
%TO.N,GND*%
%TA.AperFunction,SMDPad,CuDef*%
G36*
G01*
X82443750Y-49875000D02*
X82956250Y-49875000D01*
G75*
G02*
X83175000Y-50093750I0J-218750D01*
G01*
X83175000Y-50531250D01*
G75*
G02*
X82956250Y-50750000I-218750J0D01*
G01*
X82443750Y-50750000D01*
G75*
G02*
X82225000Y-50531250I0J218750D01*
G01*
X82225000Y-50093750D01*
G75*
G02*
X82443750Y-49875000I218750J0D01*
G01*
G37*
%TD.AperFunction*%
%TD*%
%TO.P,C14,2*%
%TO.N,GND*%
%TA.AperFunction,SMDPad,CuDef*%
G36*
G01*
X87206250Y-65400000D02*
X86293750Y-65400000D01*
G75*
G02*
X86050000Y-65156250I0J243750D01*
G01*
X86050000Y-64668750D01*
G75*
G02*
X86293750Y-64425000I243750J0D01*
G01*
X87206250Y-64425000D01*
G75*
G02*
X87450000Y-64668750I0J-243750D01*
G01*
X87450000Y-65156250D01*
G75*
G02*
X87206250Y-65400000I-243750J0D01*
G01*
G37*
%TD.AperFunction*%
%TO.P,C14,1*%
%TO.N,Net-(C13-Pad1)*%
%TA.AperFunction,SMDPad,CuDef*%
G36*
G01*
X87206250Y-67275000D02*
X86293750Y-67275000D01*
G75*
G02*
X86050000Y-67031250I0J243750D01*
G01*
X86050000Y-66543750D01*
G75*
G02*
X86293750Y-66300000I243750J0D01*
G01*
X87206250Y-66300000D01*
G75*
G02*
X87450000Y-66543750I0J-243750D01*
G01*
X87450000Y-67031250D01*
G75*
G02*
X87206250Y-67275000I-243750J0D01*
G01*
G37*
%TD.AperFunction*%
%TD*%
%TO.P,C10,2*%
%TO.N,GND*%
%TA.AperFunction,SMDPad,CuDef*%
G36*
G01*
X79700000Y-64956250D02*
X79700000Y-64043750D01*
G75*
G02*
X79943750Y-63800000I243750J0D01*
G01*
X80431250Y-63800000D01*
G75*
G02*
X80675000Y-64043750I0J-243750D01*
G01*
X80675000Y-64956250D01*
G75*
G02*
X80431250Y-65200000I-243750J0D01*
G01*
X79943750Y-65200000D01*
G75*
G02*
X79700000Y-64956250I0J243750D01*
G01*
G37*
%TD.AperFunction*%
%TO.P,C10,1*%
%TO.N,VDD*%
%TA.AperFunction,SMDPad,CuDef*%
G36*
G01*
X77825000Y-64956250D02*
X77825000Y-64043750D01*
G75*
G02*
X78068750Y-63800000I243750J0D01*
G01*
X78556250Y-63800000D01*
G75*
G02*
X78800000Y-64043750I0J-243750D01*
G01*
X78800000Y-64956250D01*
G75*
G02*
X78556250Y-65200000I-243750J0D01*
G01*
X78068750Y-65200000D01*
G75*
G02*
X77825000Y-64956250I0J243750D01*
G01*
G37*
%TD.AperFunction*%
%TD*%
%TO.P,C5,2*%
%TO.N,GND*%
%TA.AperFunction,SMDPad,CuDef*%
G36*
G01*
X94300000Y-65043750D02*
X94300000Y-65956250D01*
G75*
G02*
X94056250Y-66200000I-243750J0D01*
G01*
X93568750Y-66200000D01*
G75*
G02*
X93325000Y-65956250I0J243750D01*
G01*
X93325000Y-65043750D01*
G75*
G02*
X93568750Y-64800000I243750J0D01*
G01*
X94056250Y-64800000D01*
G75*
G02*
X94300000Y-65043750I0J-243750D01*
G01*
G37*
%TD.AperFunction*%
%TO.P,C5,1*%
%TO.N,+6V*%
%TA.AperFunction,SMDPad,CuDef*%
G36*
G01*
X96175000Y-65043750D02*
X96175000Y-65956250D01*
G75*
G02*
X95931250Y-66200000I-243750J0D01*
G01*
X95443750Y-66200000D01*
G75*
G02*
X95200000Y-65956250I0J243750D01*
G01*
X95200000Y-65043750D01*
G75*
G02*
X95443750Y-64800000I243750J0D01*
G01*
X95931250Y-64800000D01*
G75*
G02*
X96175000Y-65043750I0J-243750D01*
G01*
G37*
%TD.AperFunction*%
%TD*%
D18*
%TO.P,U8,5*%
%TO.N,VDD*%
X78350000Y-68250000D03*
%TO.P,U8,4*%
%TO.N,P0_20*%
X78350000Y-66350000D03*
%TO.P,U8,3*%
%TO.N,Net-(C13-Pad2)*%
X80550000Y-66350000D03*
%TO.P,U8,2*%
%TO.N,GND*%
X80550000Y-67300000D03*
%TO.P,U8,1*%
%TO.N,Net-(D3-Pad2)*%
X80550000Y-68250000D03*
%TD*%
%TO.P,U7,1*%
%TO.N,Net-(D2-Pad2)*%
%TA.AperFunction,SMDPad,CuDef*%
G36*
G01*
X88050000Y-48795000D02*
X88050000Y-48495000D01*
G75*
G02*
X88200000Y-48345000I150000J0D01*
G01*
X89850000Y-48345000D01*
G75*
G02*
X90000000Y-48495000I0J-150000D01*
G01*
X90000000Y-48795000D01*
G75*
G02*
X89850000Y-48945000I-150000J0D01*
G01*
X88200000Y-48945000D01*
G75*
G02*
X88050000Y-48795000I0J150000D01*
G01*
G37*
%TD.AperFunction*%
%TO.P,U7,2*%
%TO.N,Net-(D2-Pad4)*%
%TA.AperFunction,SMDPad,CuDef*%
G36*
G01*
X88050000Y-50065000D02*
X88050000Y-49765000D01*
G75*
G02*
X88200000Y-49615000I150000J0D01*
G01*
X89850000Y-49615000D01*
G75*
G02*
X90000000Y-49765000I0J-150000D01*
G01*
X90000000Y-50065000D01*
G75*
G02*
X89850000Y-50215000I-150000J0D01*
G01*
X88200000Y-50215000D01*
G75*
G02*
X88050000Y-50065000I0J150000D01*
G01*
G37*
%TD.AperFunction*%
%TO.P,U7,3*%
%TO.N,Net-(D2-Pad3)*%
%TA.AperFunction,SMDPad,CuDef*%
G36*
G01*
X88050000Y-51335000D02*
X88050000Y-51035000D01*
G75*
G02*
X88200000Y-50885000I150000J0D01*
G01*
X89850000Y-50885000D01*
G75*
G02*
X90000000Y-51035000I0J-150000D01*
G01*
X90000000Y-51335000D01*
G75*
G02*
X89850000Y-51485000I-150000J0D01*
G01*
X88200000Y-51485000D01*
G75*
G02*
X88050000Y-51335000I0J150000D01*
G01*
G37*
%TD.AperFunction*%
%TO.P,U7,4*%
%TO.N,GND*%
%TA.AperFunction,SMDPad,CuDef*%
G36*
G01*
X88050000Y-52605000D02*
X88050000Y-52305000D01*
G75*
G02*
X88200000Y-52155000I150000J0D01*
G01*
X89850000Y-52155000D01*
G75*
G02*
X90000000Y-52305000I0J-150000D01*
G01*
X90000000Y-52605000D01*
G75*
G02*
X89850000Y-52755000I-150000J0D01*
G01*
X88200000Y-52755000D01*
G75*
G02*
X88050000Y-52605000I0J150000D01*
G01*
G37*
%TD.AperFunction*%
%TO.P,U7,5*%
%TO.N,N/C*%
%TA.AperFunction,SMDPad,CuDef*%
G36*
G01*
X93000000Y-52605000D02*
X93000000Y-52305000D01*
G75*
G02*
X93150000Y-52155000I150000J0D01*
G01*
X94800000Y-52155000D01*
G75*
G02*
X94950000Y-52305000I0J-150000D01*
G01*
X94950000Y-52605000D01*
G75*
G02*
X94800000Y-52755000I-150000J0D01*
G01*
X93150000Y-52755000D01*
G75*
G02*
X93000000Y-52605000I0J150000D01*
G01*
G37*
%TD.AperFunction*%
%TO.P,U7,6*%
%TO.N,P0_03*%
%TA.AperFunction,SMDPad,CuDef*%
G36*
G01*
X93000000Y-51335000D02*
X93000000Y-51035000D01*
G75*
G02*
X93150000Y-50885000I150000J0D01*
G01*
X94800000Y-50885000D01*
G75*
G02*
X94950000Y-51035000I0J-150000D01*
G01*
X94950000Y-51335000D01*
G75*
G02*
X94800000Y-51485000I-150000J0D01*
G01*
X93150000Y-51485000D01*
G75*
G02*
X93000000Y-51335000I0J150000D01*
G01*
G37*
%TD.AperFunction*%
%TO.P,U7,7*%
%TO.N,Net-(R5-Pad2)*%
%TA.AperFunction,SMDPad,CuDef*%
G36*
G01*
X93000000Y-50065000D02*
X93000000Y-49765000D01*
G75*
G02*
X93150000Y-49615000I150000J0D01*
G01*
X94800000Y-49615000D01*
G75*
G02*
X94950000Y-49765000I0J-150000D01*
G01*
X94950000Y-50065000D01*
G75*
G02*
X94800000Y-50215000I-150000J0D01*
G01*
X93150000Y-50215000D01*
G75*
G02*
X93000000Y-50065000I0J150000D01*
G01*
G37*
%TD.AperFunction*%
%TO.P,U7,8*%
%TO.N,+3V3*%
%TA.AperFunction,SMDPad,CuDef*%
G36*
G01*
X93000000Y-48795000D02*
X93000000Y-48495000D01*
G75*
G02*
X93150000Y-48345000I150000J0D01*
G01*
X94800000Y-48345000D01*
G75*
G02*
X94950000Y-48495000I0J-150000D01*
G01*
X94950000Y-48795000D01*
G75*
G02*
X94800000Y-48945000I-150000J0D01*
G01*
X93150000Y-48945000D01*
G75*
G02*
X93000000Y-48795000I0J150000D01*
G01*
G37*
%TD.AperFunction*%
%TD*%
D19*
%TO.P,L1,2*%
%TO.N,Net-(D3-Pad2)*%
X82800000Y-72700000D03*
%TO.P,L1,1*%
%TO.N,VDD*%
X78100000Y-72700000D03*
%TD*%
D20*
%TO.P,D3,2*%
%TO.N,Net-(D3-Pad2)*%
X85150000Y-73100000D03*
%TO.P,D3,1*%
%TO.N,Net-(C13-Pad1)*%
X85150000Y-70300000D03*
%TD*%
D21*
%TO.P,D2,4*%
%TO.N,Net-(D2-Pad4)*%
X89250000Y-54700000D03*
%TO.P,D2,3*%
%TO.N,Net-(D2-Pad3)*%
X87750000Y-54700000D03*
%TO.P,D2,2*%
%TO.N,Net-(D2-Pad2)*%
X87750000Y-55800000D03*
%TO.P,D2,1*%
%TO.N,+6V*%
X89250000Y-55800000D03*
%TD*%
%TO.P,C13,2*%
%TO.N,Net-(C13-Pad2)*%
%TA.AperFunction,SMDPad,CuDef*%
G36*
G01*
X83800000Y-66643750D02*
X83800000Y-67156250D01*
G75*
G02*
X83581250Y-67375000I-218750J0D01*
G01*
X83143750Y-67375000D01*
G75*
G02*
X82925000Y-67156250I0J218750D01*
G01*
X82925000Y-66643750D01*
G75*
G02*
X83143750Y-66425000I218750J0D01*
G01*
X83581250Y-66425000D01*
G75*
G02*
X83800000Y-66643750I0J-218750D01*
G01*
G37*
%TD.AperFunction*%
%TO.P,C13,1*%
%TO.N,Net-(C13-Pad1)*%
%TA.AperFunction,SMDPad,CuDef*%
G36*
G01*
X85375000Y-66643750D02*
X85375000Y-67156250D01*
G75*
G02*
X85156250Y-67375000I-218750J0D01*
G01*
X84718750Y-67375000D01*
G75*
G02*
X84500000Y-67156250I0J218750D01*
G01*
X84500000Y-66643750D01*
G75*
G02*
X84718750Y-66425000I218750J0D01*
G01*
X85156250Y-66425000D01*
G75*
G02*
X85375000Y-66643750I0J-218750D01*
G01*
G37*
%TD.AperFunction*%
%TD*%
%TO.P,C9,2*%
%TO.N,GND*%
%TA.AperFunction,SMDPad,CuDef*%
G36*
G01*
X87893750Y-58500000D02*
X88406250Y-58500000D01*
G75*
G02*
X88625000Y-58718750I0J-218750D01*
G01*
X88625000Y-59156250D01*
G75*
G02*
X88406250Y-59375000I-218750J0D01*
G01*
X87893750Y-59375000D01*
G75*
G02*
X87675000Y-59156250I0J218750D01*
G01*
X87675000Y-58718750D01*
G75*
G02*
X87893750Y-58500000I218750J0D01*
G01*
G37*
%TD.AperFunction*%
%TO.P,C9,1*%
%TO.N,+6V*%
%TA.AperFunction,SMDPad,CuDef*%
G36*
G01*
X87893750Y-56925000D02*
X88406250Y-56925000D01*
G75*
G02*
X88625000Y-57143750I0J-218750D01*
G01*
X88625000Y-57581250D01*
G75*
G02*
X88406250Y-57800000I-218750J0D01*
G01*
X87893750Y-57800000D01*
G75*
G02*
X87675000Y-57581250I0J218750D01*
G01*
X87675000Y-57143750D01*
G75*
G02*
X87893750Y-56925000I218750J0D01*
G01*
G37*
%TD.AperFunction*%
%TD*%
%TO.P,C8,2*%
%TO.N,+3V3*%
%TA.AperFunction,SMDPad,CuDef*%
G36*
G01*
X94250000Y-46693750D02*
X94250000Y-47206250D01*
G75*
G02*
X94031250Y-47425000I-218750J0D01*
G01*
X93593750Y-47425000D01*
G75*
G02*
X93375000Y-47206250I0J218750D01*
G01*
X93375000Y-46693750D01*
G75*
G02*
X93593750Y-46475000I218750J0D01*
G01*
X94031250Y-46475000D01*
G75*
G02*
X94250000Y-46693750I0J-218750D01*
G01*
G37*
%TD.AperFunction*%
%TO.P,C8,1*%
%TO.N,GND*%
%TA.AperFunction,SMDPad,CuDef*%
G36*
G01*
X95825000Y-46693750D02*
X95825000Y-47206250D01*
G75*
G02*
X95606250Y-47425000I-218750J0D01*
G01*
X95168750Y-47425000D01*
G75*
G02*
X94950000Y-47206250I0J218750D01*
G01*
X94950000Y-46693750D01*
G75*
G02*
X95168750Y-46475000I218750J0D01*
G01*
X95606250Y-46475000D01*
G75*
G02*
X95825000Y-46693750I0J-218750D01*
G01*
G37*
%TD.AperFunction*%
%TD*%
%TO.P,C4,2*%
%TO.N,GND*%
%TA.AperFunction,SMDPad,CuDef*%
G36*
G01*
X105950000Y-77456250D02*
X105950000Y-76943750D01*
G75*
G02*
X106168750Y-76725000I218750J0D01*
G01*
X106606250Y-76725000D01*
G75*
G02*
X106825000Y-76943750I0J-218750D01*
G01*
X106825000Y-77456250D01*
G75*
G02*
X106606250Y-77675000I-218750J0D01*
G01*
X106168750Y-77675000D01*
G75*
G02*
X105950000Y-77456250I0J218750D01*
G01*
G37*
%TD.AperFunction*%
%TO.P,C4,1*%
%TO.N,+3V3*%
%TA.AperFunction,SMDPad,CuDef*%
G36*
G01*
X104375000Y-77456250D02*
X104375000Y-76943750D01*
G75*
G02*
X104593750Y-76725000I218750J0D01*
G01*
X105031250Y-76725000D01*
G75*
G02*
X105250000Y-76943750I0J-218750D01*
G01*
X105250000Y-77456250D01*
G75*
G02*
X105031250Y-77675000I-218750J0D01*
G01*
X104593750Y-77675000D01*
G75*
G02*
X104375000Y-77456250I0J218750D01*
G01*
G37*
%TD.AperFunction*%
%TD*%
%TO.P,C3,2*%
%TO.N,GND*%
%TA.AperFunction,SMDPad,CuDef*%
G36*
G01*
X84950000Y-77356250D02*
X84950000Y-76843750D01*
G75*
G02*
X85168750Y-76625000I218750J0D01*
G01*
X85606250Y-76625000D01*
G75*
G02*
X85825000Y-76843750I0J-218750D01*
G01*
X85825000Y-77356250D01*
G75*
G02*
X85606250Y-77575000I-218750J0D01*
G01*
X85168750Y-77575000D01*
G75*
G02*
X84950000Y-77356250I0J218750D01*
G01*
G37*
%TD.AperFunction*%
%TO.P,C3,1*%
%TO.N,+3V3*%
%TA.AperFunction,SMDPad,CuDef*%
G36*
G01*
X83375000Y-77356250D02*
X83375000Y-76843750D01*
G75*
G02*
X83593750Y-76625000I218750J0D01*
G01*
X84031250Y-76625000D01*
G75*
G02*
X84250000Y-76843750I0J-218750D01*
G01*
X84250000Y-77356250D01*
G75*
G02*
X84031250Y-77575000I-218750J0D01*
G01*
X83593750Y-77575000D01*
G75*
G02*
X83375000Y-77356250I0J218750D01*
G01*
G37*
%TD.AperFunction*%
%TD*%
D22*
%TO.P,J5,12*%
%TO.N,P1_09*%
X112800000Y-65070000D03*
%TO.P,J5,11*%
%TO.N,P0_28*%
X112800000Y-63800000D03*
%TO.P,J5,10*%
%TO.N,P0_02*%
X112800000Y-62530000D03*
%TO.P,J5,9*%
%TO.N,P0_11*%
X112800000Y-61260000D03*
%TO.P,J5,8*%
%TO.N,P0_15*%
X112800000Y-59990000D03*
%TO.P,J5,7*%
%TO.N,P0_17*%
X112800000Y-58720000D03*
%TO.P,J5,6*%
%TO.N,P0_04*%
X112800000Y-57450000D03*
%TO.P,J5,5*%
%TO.N,P0_03*%
X112800000Y-56180000D03*
%TO.P,J5,4*%
%TO.N,P0_05*%
X112800000Y-54910000D03*
%TO.P,J5,3*%
%TO.N,P0_20*%
X112800000Y-53640000D03*
%TO.P,J5,2*%
%TO.N,P0_29*%
X112800000Y-52370000D03*
D23*
%TO.P,J5,1*%
%TO.N,P0_30*%
X112800000Y-51100000D03*
%TD*%
D24*
%TO.P,J6,6*%
%TO.N,GND*%
X111080000Y-70760000D03*
%TO.P,J6,5*%
X111080000Y-73300000D03*
%TO.P,J6,4*%
%TO.N,VDD*%
X108540000Y-70760000D03*
%TO.P,J6,3*%
%TO.N,P0_09*%
X108540000Y-73300000D03*
%TO.P,J6,2*%
%TO.N,P0_10*%
X106000000Y-70760000D03*
D25*
%TO.P,J6,1*%
%TO.N,P0_31*%
X106000000Y-73300000D03*
%TD*%
%TO.P,C7,1*%
%TO.N,+6V*%
%TA.AperFunction,SMDPad,CuDef*%
G36*
G01*
X95100000Y-67550000D02*
X95100000Y-67050000D01*
G75*
G02*
X95325000Y-66825000I225000J0D01*
G01*
X95775000Y-66825000D01*
G75*
G02*
X96000000Y-67050000I0J-225000D01*
G01*
X96000000Y-67550000D01*
G75*
G02*
X95775000Y-67775000I-225000J0D01*
G01*
X95325000Y-67775000D01*
G75*
G02*
X95100000Y-67550000I0J225000D01*
G01*
G37*
%TD.AperFunction*%
%TO.P,C7,2*%
%TO.N,Net-(C7-Pad2)*%
%TA.AperFunction,SMDPad,CuDef*%
G36*
G01*
X96650000Y-67550000D02*
X96650000Y-67050000D01*
G75*
G02*
X96875000Y-66825000I225000J0D01*
G01*
X97325000Y-66825000D01*
G75*
G02*
X97550000Y-67050000I0J-225000D01*
G01*
X97550000Y-67550000D01*
G75*
G02*
X97325000Y-67775000I-225000J0D01*
G01*
X96875000Y-67775000D01*
G75*
G02*
X96650000Y-67550000I0J225000D01*
G01*
G37*
%TD.AperFunction*%
%TD*%
D24*
%TO.P,J2,2*%
%TO.N,Net-(C16-Pad2)*%
X100200000Y-76760000D03*
D25*
%TO.P,J2,1*%
%TO.N,Net-(C16-Pad1)*%
X100200000Y-79300000D03*
%TD*%
D24*
%TO.P,J4,2*%
%TO.N,Net-(J4-Pad2)*%
X90772000Y-62176000D03*
D25*
%TO.P,J4,1*%
%TO.N,GND*%
X93312000Y-62176000D03*
%TD*%
D24*
%TO.P,J1,2*%
%TO.N,Net-(C15-Pad2)*%
X90750000Y-76810000D03*
D25*
%TO.P,J1,1*%
%TO.N,Net-(C15-Pad1)*%
X90750000Y-79350000D03*
%TD*%
%TO.P,C6,2*%
%TO.N,GND*%
%TA.AperFunction,SMDPad,CuDef*%
G36*
G01*
X92750000Y-67075000D02*
X92750000Y-67575000D01*
G75*
G02*
X92525000Y-67800000I-225000J0D01*
G01*
X92075000Y-67800000D01*
G75*
G02*
X91850000Y-67575000I0J225000D01*
G01*
X91850000Y-67075000D01*
G75*
G02*
X92075000Y-66850000I225000J0D01*
G01*
X92525000Y-66850000D01*
G75*
G02*
X92750000Y-67075000I0J-225000D01*
G01*
G37*
%TD.AperFunction*%
%TO.P,C6,1*%
%TO.N,Net-(C6-Pad1)*%
%TA.AperFunction,SMDPad,CuDef*%
G36*
G01*
X94300000Y-67075000D02*
X94300000Y-67575000D01*
G75*
G02*
X94075000Y-67800000I-225000J0D01*
G01*
X93625000Y-67800000D01*
G75*
G02*
X93400000Y-67575000I0J225000D01*
G01*
X93400000Y-67075000D01*
G75*
G02*
X93625000Y-66850000I225000J0D01*
G01*
X94075000Y-66850000D01*
G75*
G02*
X94300000Y-67075000I0J-225000D01*
G01*
G37*
%TD.AperFunction*%
%TD*%
D26*
%TO.P,Q4,1*%
%TO.N,GND*%
X93400000Y-57650000D03*
%TO.P,Q4,2*%
%TO.N,VDD*%
X91500000Y-57650000D03*
%TO.P,Q4,3*%
%TO.N,Net-(J4-Pad2)*%
X92450000Y-59650000D03*
%TD*%
%TO.P,R1,2*%
%TO.N,+6V*%
%TA.AperFunction,SMDPad,CuDef*%
G36*
G01*
X91975000Y-71725000D02*
X91425000Y-71725000D01*
G75*
G02*
X91225000Y-71525000I0J200000D01*
G01*
X91225000Y-71125000D01*
G75*
G02*
X91425000Y-70925000I200000J0D01*
G01*
X91975000Y-70925000D01*
G75*
G02*
X92175000Y-71125000I0J-200000D01*
G01*
X92175000Y-71525000D01*
G75*
G02*
X91975000Y-71725000I-200000J0D01*
G01*
G37*
%TD.AperFunction*%
%TO.P,R1,1*%
%TO.N,Net-(R1-Pad1)*%
%TA.AperFunction,SMDPad,CuDef*%
G36*
G01*
X91975000Y-73375000D02*
X91425000Y-73375000D01*
G75*
G02*
X91225000Y-73175000I0J200000D01*
G01*
X91225000Y-72775000D01*
G75*
G02*
X91425000Y-72575000I200000J0D01*
G01*
X91975000Y-72575000D01*
G75*
G02*
X92175000Y-72775000I0J-200000D01*
G01*
X92175000Y-73175000D01*
G75*
G02*
X91975000Y-73375000I-200000J0D01*
G01*
G37*
%TD.AperFunction*%
%TD*%
%TO.P,R3,1*%
%TO.N,GND*%
%TA.AperFunction,SMDPad,CuDef*%
G36*
G01*
X97475000Y-78975000D02*
X96925000Y-78975000D01*
G75*
G02*
X96725000Y-78775000I0J200000D01*
G01*
X96725000Y-78375000D01*
G75*
G02*
X96925000Y-78175000I200000J0D01*
G01*
X97475000Y-78175000D01*
G75*
G02*
X97675000Y-78375000I0J-200000D01*
G01*
X97675000Y-78775000D01*
G75*
G02*
X97475000Y-78975000I-200000J0D01*
G01*
G37*
%TD.AperFunction*%
%TO.P,R3,2*%
%TO.N,P0_05*%
%TA.AperFunction,SMDPad,CuDef*%
G36*
G01*
X97475000Y-77325000D02*
X96925000Y-77325000D01*
G75*
G02*
X96725000Y-77125000I0J200000D01*
G01*
X96725000Y-76725000D01*
G75*
G02*
X96925000Y-76525000I200000J0D01*
G01*
X97475000Y-76525000D01*
G75*
G02*
X97675000Y-76725000I0J-200000D01*
G01*
X97675000Y-77125000D01*
G75*
G02*
X97475000Y-77325000I-200000J0D01*
G01*
G37*
%TD.AperFunction*%
%TD*%
%TO.P,R4,2*%
%TO.N,P0_04*%
%TA.AperFunction,SMDPad,CuDef*%
G36*
G01*
X94175000Y-77325000D02*
X93625000Y-77325000D01*
G75*
G02*
X93425000Y-77125000I0J200000D01*
G01*
X93425000Y-76725000D01*
G75*
G02*
X93625000Y-76525000I200000J0D01*
G01*
X94175000Y-76525000D01*
G75*
G02*
X94375000Y-76725000I0J-200000D01*
G01*
X94375000Y-77125000D01*
G75*
G02*
X94175000Y-77325000I-200000J0D01*
G01*
G37*
%TD.AperFunction*%
%TO.P,R4,1*%
%TO.N,GND*%
%TA.AperFunction,SMDPad,CuDef*%
G36*
G01*
X94175000Y-78975000D02*
X93625000Y-78975000D01*
G75*
G02*
X93425000Y-78775000I0J200000D01*
G01*
X93425000Y-78375000D01*
G75*
G02*
X93625000Y-78175000I200000J0D01*
G01*
X94175000Y-78175000D01*
G75*
G02*
X94375000Y-78375000I0J-200000D01*
G01*
X94375000Y-78775000D01*
G75*
G02*
X94175000Y-78975000I-200000J0D01*
G01*
G37*
%TD.AperFunction*%
%TD*%
%TO.P,R5,1*%
%TO.N,GND*%
%TA.AperFunction,SMDPad,CuDef*%
G36*
G01*
X91275000Y-54625000D02*
X91275000Y-54075000D01*
G75*
G02*
X91475000Y-53875000I200000J0D01*
G01*
X91875000Y-53875000D01*
G75*
G02*
X92075000Y-54075000I0J-200000D01*
G01*
X92075000Y-54625000D01*
G75*
G02*
X91875000Y-54825000I-200000J0D01*
G01*
X91475000Y-54825000D01*
G75*
G02*
X91275000Y-54625000I0J200000D01*
G01*
G37*
%TD.AperFunction*%
%TO.P,R5,2*%
%TO.N,Net-(R5-Pad2)*%
%TA.AperFunction,SMDPad,CuDef*%
G36*
G01*
X92925000Y-54625000D02*
X92925000Y-54075000D01*
G75*
G02*
X93125000Y-53875000I200000J0D01*
G01*
X93525000Y-53875000D01*
G75*
G02*
X93725000Y-54075000I0J-200000D01*
G01*
X93725000Y-54625000D01*
G75*
G02*
X93525000Y-54825000I-200000J0D01*
G01*
X93125000Y-54825000D01*
G75*
G02*
X92925000Y-54625000I0J200000D01*
G01*
G37*
%TD.AperFunction*%
%TD*%
%TO.P,R6,1*%
%TO.N,Net-(C13-Pad1)*%
%TA.AperFunction,SMDPad,CuDef*%
G36*
G01*
X85375000Y-68225000D02*
X85375000Y-68775000D01*
G75*
G02*
X85175000Y-68975000I-200000J0D01*
G01*
X84775000Y-68975000D01*
G75*
G02*
X84575000Y-68775000I0J200000D01*
G01*
X84575000Y-68225000D01*
G75*
G02*
X84775000Y-68025000I200000J0D01*
G01*
X85175000Y-68025000D01*
G75*
G02*
X85375000Y-68225000I0J-200000D01*
G01*
G37*
%TD.AperFunction*%
%TO.P,R6,2*%
%TO.N,Net-(C13-Pad2)*%
%TA.AperFunction,SMDPad,CuDef*%
G36*
G01*
X83725000Y-68225000D02*
X83725000Y-68775000D01*
G75*
G02*
X83525000Y-68975000I-200000J0D01*
G01*
X83125000Y-68975000D01*
G75*
G02*
X82925000Y-68775000I0J200000D01*
G01*
X82925000Y-68225000D01*
G75*
G02*
X83125000Y-68025000I200000J0D01*
G01*
X83525000Y-68025000D01*
G75*
G02*
X83725000Y-68225000I0J-200000D01*
G01*
G37*
%TD.AperFunction*%
%TD*%
%TO.P,R7,2*%
%TO.N,GND*%
%TA.AperFunction,SMDPad,CuDef*%
G36*
G01*
X84575000Y-65575000D02*
X84575000Y-65025000D01*
G75*
G02*
X84775000Y-64825000I200000J0D01*
G01*
X85175000Y-64825000D01*
G75*
G02*
X85375000Y-65025000I0J-200000D01*
G01*
X85375000Y-65575000D01*
G75*
G02*
X85175000Y-65775000I-200000J0D01*
G01*
X84775000Y-65775000D01*
G75*
G02*
X84575000Y-65575000I0J200000D01*
G01*
G37*
%TD.AperFunction*%
%TO.P,R7,1*%
%TO.N,Net-(C13-Pad2)*%
%TA.AperFunction,SMDPad,CuDef*%
G36*
G01*
X82925000Y-65575000D02*
X82925000Y-65025000D01*
G75*
G02*
X83125000Y-64825000I200000J0D01*
G01*
X83525000Y-64825000D01*
G75*
G02*
X83725000Y-65025000I0J-200000D01*
G01*
X83725000Y-65575000D01*
G75*
G02*
X83525000Y-65775000I-200000J0D01*
G01*
X83125000Y-65775000D01*
G75*
G02*
X82925000Y-65575000I0J200000D01*
G01*
G37*
%TD.AperFunction*%
%TD*%
D27*
%TO.P,U1,3*%
%TO.N,GND*%
X85800000Y-79700000D03*
%TO.P,U1,2*%
%TO.N,P0_17*%
X83800000Y-80650000D03*
%TO.P,U1,1*%
%TO.N,+3V3*%
X83800000Y-78750000D03*
%TD*%
%TO.P,U2,3*%
%TO.N,GND*%
X106700000Y-79800000D03*
%TO.P,U2,2*%
%TO.N,P0_15*%
X104700000Y-80750000D03*
%TO.P,U2,1*%
%TO.N,+3V3*%
X104700000Y-78850000D03*
%TD*%
D28*
%TO.N,GND*%
%TO.C,U3*%
X97000000Y-71250000D03*
X97000000Y-72750000D03*
X95500000Y-71250000D03*
X95500000Y-72750000D03*
X94000000Y-71250000D03*
X94000000Y-72750000D03*
D29*
X95500000Y-72000000D03*
%TD*%
%TO.P,U3,16*%
%TO.N,P0_02*%
%TA.AperFunction,SMDPad,CuDef*%
G36*
G01*
X93325000Y-69925000D02*
X93125000Y-69925000D01*
G75*
G02*
X93025000Y-69825000I0J100000D01*
G01*
X93025000Y-68450000D01*
G75*
G02*
X93125000Y-68350000I100000J0D01*
G01*
X93325000Y-68350000D01*
G75*
G02*
X93425000Y-68450000I0J-100000D01*
G01*
X93425000Y-69825000D01*
G75*
G02*
X93325000Y-69925000I-100000J0D01*
G01*
G37*
%TD.AperFunction*%
%TO.P,U3,15*%
%TO.N,P0_28*%
%TA.AperFunction,SMDPad,CuDef*%
G36*
G01*
X93975000Y-69925000D02*
X93775000Y-69925000D01*
G75*
G02*
X93675000Y-69825000I0J100000D01*
G01*
X93675000Y-68450000D01*
G75*
G02*
X93775000Y-68350000I100000J0D01*
G01*
X93975000Y-68350000D01*
G75*
G02*
X94075000Y-68450000I0J-100000D01*
G01*
X94075000Y-69825000D01*
G75*
G02*
X93975000Y-69925000I-100000J0D01*
G01*
G37*
%TD.AperFunction*%
%TO.P,U3,14*%
%TO.N,Net-(C6-Pad1)*%
%TA.AperFunction,SMDPad,CuDef*%
G36*
G01*
X94625000Y-69925000D02*
X94425000Y-69925000D01*
G75*
G02*
X94325000Y-69825000I0J100000D01*
G01*
X94325000Y-68450000D01*
G75*
G02*
X94425000Y-68350000I100000J0D01*
G01*
X94625000Y-68350000D01*
G75*
G02*
X94725000Y-68450000I0J-100000D01*
G01*
X94725000Y-69825000D01*
G75*
G02*
X94625000Y-69925000I-100000J0D01*
G01*
G37*
%TD.AperFunction*%
%TO.P,U3,13*%
%TO.N,GND*%
%TA.AperFunction,SMDPad,CuDef*%
G36*
G01*
X95275000Y-69925000D02*
X95075000Y-69925000D01*
G75*
G02*
X94975000Y-69825000I0J100000D01*
G01*
X94975000Y-68450000D01*
G75*
G02*
X95075000Y-68350000I100000J0D01*
G01*
X95275000Y-68350000D01*
G75*
G02*
X95375000Y-68450000I0J-100000D01*
G01*
X95375000Y-69825000D01*
G75*
G02*
X95275000Y-69925000I-100000J0D01*
G01*
G37*
%TD.AperFunction*%
%TO.P,U3,12*%
%TO.N,+6V*%
%TA.AperFunction,SMDPad,CuDef*%
G36*
G01*
X95925000Y-69925000D02*
X95725000Y-69925000D01*
G75*
G02*
X95625000Y-69825000I0J100000D01*
G01*
X95625000Y-68450000D01*
G75*
G02*
X95725000Y-68350000I100000J0D01*
G01*
X95925000Y-68350000D01*
G75*
G02*
X96025000Y-68450000I0J-100000D01*
G01*
X96025000Y-69825000D01*
G75*
G02*
X95925000Y-69925000I-100000J0D01*
G01*
G37*
%TD.AperFunction*%
%TO.P,U3,11*%
%TO.N,Net-(C7-Pad2)*%
%TA.AperFunction,SMDPad,CuDef*%
G36*
G01*
X96575000Y-69925000D02*
X96375000Y-69925000D01*
G75*
G02*
X96275000Y-69825000I0J100000D01*
G01*
X96275000Y-68450000D01*
G75*
G02*
X96375000Y-68350000I100000J0D01*
G01*
X96575000Y-68350000D01*
G75*
G02*
X96675000Y-68450000I0J-100000D01*
G01*
X96675000Y-69825000D01*
G75*
G02*
X96575000Y-69925000I-100000J0D01*
G01*
G37*
%TD.AperFunction*%
%TO.P,U3,10*%
%TO.N,P1_09*%
%TA.AperFunction,SMDPad,CuDef*%
G36*
G01*
X97225000Y-69925000D02*
X97025000Y-69925000D01*
G75*
G02*
X96925000Y-69825000I0J100000D01*
G01*
X96925000Y-68450000D01*
G75*
G02*
X97025000Y-68350000I100000J0D01*
G01*
X97225000Y-68350000D01*
G75*
G02*
X97325000Y-68450000I0J-100000D01*
G01*
X97325000Y-69825000D01*
G75*
G02*
X97225000Y-69925000I-100000J0D01*
G01*
G37*
%TD.AperFunction*%
%TO.P,U3,9*%
%TO.N,P0_11*%
%TA.AperFunction,SMDPad,CuDef*%
G36*
G01*
X97875000Y-69925000D02*
X97675000Y-69925000D01*
G75*
G02*
X97575000Y-69825000I0J100000D01*
G01*
X97575000Y-68450000D01*
G75*
G02*
X97675000Y-68350000I100000J0D01*
G01*
X97875000Y-68350000D01*
G75*
G02*
X97975000Y-68450000I0J-100000D01*
G01*
X97975000Y-69825000D01*
G75*
G02*
X97875000Y-69925000I-100000J0D01*
G01*
G37*
%TD.AperFunction*%
%TO.P,U3,8*%
%TO.N,N/C*%
%TA.AperFunction,SMDPad,CuDef*%
G36*
G01*
X97875000Y-75650000D02*
X97675000Y-75650000D01*
G75*
G02*
X97575000Y-75550000I0J100000D01*
G01*
X97575000Y-74175000D01*
G75*
G02*
X97675000Y-74075000I100000J0D01*
G01*
X97875000Y-74075000D01*
G75*
G02*
X97975000Y-74175000I0J-100000D01*
G01*
X97975000Y-75550000D01*
G75*
G02*
X97875000Y-75650000I-100000J0D01*
G01*
G37*
%TD.AperFunction*%
%TO.P,U3,7*%
%TO.N,Net-(C16-Pad2)*%
%TA.AperFunction,SMDPad,CuDef*%
G36*
G01*
X97225000Y-75650000D02*
X97025000Y-75650000D01*
G75*
G02*
X96925000Y-75550000I0J100000D01*
G01*
X96925000Y-74175000D01*
G75*
G02*
X97025000Y-74075000I100000J0D01*
G01*
X97225000Y-74075000D01*
G75*
G02*
X97325000Y-74175000I0J-100000D01*
G01*
X97325000Y-75550000D01*
G75*
G02*
X97225000Y-75650000I-100000J0D01*
G01*
G37*
%TD.AperFunction*%
%TO.P,U3,6*%
%TO.N,P0_05*%
%TA.AperFunction,SMDPad,CuDef*%
G36*
G01*
X96575000Y-75650000D02*
X96375000Y-75650000D01*
G75*
G02*
X96275000Y-75550000I0J100000D01*
G01*
X96275000Y-74175000D01*
G75*
G02*
X96375000Y-74075000I100000J0D01*
G01*
X96575000Y-74075000D01*
G75*
G02*
X96675000Y-74175000I0J-100000D01*
G01*
X96675000Y-75550000D01*
G75*
G02*
X96575000Y-75650000I-100000J0D01*
G01*
G37*
%TD.AperFunction*%
%TO.P,U3,5*%
%TO.N,Net-(C16-Pad1)*%
%TA.AperFunction,SMDPad,CuDef*%
G36*
G01*
X95925000Y-75650000D02*
X95725000Y-75650000D01*
G75*
G02*
X95625000Y-75550000I0J100000D01*
G01*
X95625000Y-74175000D01*
G75*
G02*
X95725000Y-74075000I100000J0D01*
G01*
X95925000Y-74075000D01*
G75*
G02*
X96025000Y-74175000I0J-100000D01*
G01*
X96025000Y-75550000D01*
G75*
G02*
X95925000Y-75650000I-100000J0D01*
G01*
G37*
%TD.AperFunction*%
%TO.P,U3,4*%
%TO.N,Net-(C15-Pad1)*%
%TA.AperFunction,SMDPad,CuDef*%
G36*
G01*
X95275000Y-75650000D02*
X95075000Y-75650000D01*
G75*
G02*
X94975000Y-75550000I0J100000D01*
G01*
X94975000Y-74175000D01*
G75*
G02*
X95075000Y-74075000I100000J0D01*
G01*
X95275000Y-74075000D01*
G75*
G02*
X95375000Y-74175000I0J-100000D01*
G01*
X95375000Y-75550000D01*
G75*
G02*
X95275000Y-75650000I-100000J0D01*
G01*
G37*
%TD.AperFunction*%
%TO.P,U3,3*%
%TO.N,P0_04*%
%TA.AperFunction,SMDPad,CuDef*%
G36*
G01*
X94625000Y-75650000D02*
X94425000Y-75650000D01*
G75*
G02*
X94325000Y-75550000I0J100000D01*
G01*
X94325000Y-74175000D01*
G75*
G02*
X94425000Y-74075000I100000J0D01*
G01*
X94625000Y-74075000D01*
G75*
G02*
X94725000Y-74175000I0J-100000D01*
G01*
X94725000Y-75550000D01*
G75*
G02*
X94625000Y-75650000I-100000J0D01*
G01*
G37*
%TD.AperFunction*%
%TO.P,U3,2*%
%TO.N,Net-(C15-Pad2)*%
%TA.AperFunction,SMDPad,CuDef*%
G36*
G01*
X93975000Y-75650000D02*
X93775000Y-75650000D01*
G75*
G02*
X93675000Y-75550000I0J100000D01*
G01*
X93675000Y-74175000D01*
G75*
G02*
X93775000Y-74075000I100000J0D01*
G01*
X93975000Y-74075000D01*
G75*
G02*
X94075000Y-74175000I0J-100000D01*
G01*
X94075000Y-75550000D01*
G75*
G02*
X93975000Y-75650000I-100000J0D01*
G01*
G37*
%TD.AperFunction*%
%TO.P,U3,1*%
%TO.N,Net-(R1-Pad1)*%
%TA.AperFunction,SMDPad,CuDef*%
G36*
G01*
X93325000Y-75650000D02*
X93125000Y-75650000D01*
G75*
G02*
X93025000Y-75550000I0J100000D01*
G01*
X93025000Y-74175000D01*
G75*
G02*
X93125000Y-74075000I100000J0D01*
G01*
X93325000Y-74075000D01*
G75*
G02*
X93425000Y-74175000I0J-100000D01*
G01*
X93425000Y-75550000D01*
G75*
G02*
X93325000Y-75650000I-100000J0D01*
G01*
G37*
%TD.AperFunction*%
%TD*%
D30*
%TO.N,GND*%
X84300000Y-49900000D03*
X104000000Y-75800000D03*
X100700000Y-52850000D03*
X101500000Y-53450000D03*
X94625000Y-79675000D03*
X96575000Y-79625000D03*
X95299986Y-79099986D03*
X95825000Y-77975000D03*
X95650000Y-79875000D03*
X97974979Y-54850000D03*
X100450000Y-62175000D03*
X90700000Y-52150000D03*
X91700000Y-55550000D03*
X95800000Y-48850000D03*
X86700000Y-77300000D03*
X77100000Y-52650000D03*
X101600000Y-73800000D03*
X89600000Y-70350000D03*
X88750000Y-70350000D03*
X87750000Y-70350000D03*
X87637500Y-64912500D03*
X88450000Y-63300000D03*
X89000000Y-64750000D03*
X92799994Y-65550006D03*
X87250000Y-60200000D03*
X83500000Y-55750000D03*
X84550000Y-55750000D03*
X85450000Y-56300000D03*
%TO.N,+3V3*%
X84362357Y-79250010D03*
X91800000Y-48750000D03*
X84200000Y-51000000D03*
X103300000Y-80350000D03*
X75600000Y-58199996D03*
X78200000Y-54150000D03*
%TO.N,+6V*%
X89350000Y-57450000D03*
X90850000Y-65599982D03*
%TO.N,VDD*%
X99000000Y-49050000D03*
X105825000Y-56000000D03*
X101100000Y-58650000D03*
X94025728Y-55675728D03*
%TO.N,P0_30*%
X102000000Y-48950000D03*
X84250000Y-52800000D03*
%TO.N,P0_29*%
X100500000Y-48950000D03*
X83400000Y-53550000D03*
%TO.N,P0_02*%
X98011833Y-63469958D03*
X92000000Y-69700000D03*
%TO.N,P0_05*%
X103500000Y-53750000D03*
X98375000Y-76950000D03*
X99925000Y-73275000D03*
%TO.N,P0_04*%
X92700000Y-76875000D03*
X99000000Y-58750000D03*
X99200000Y-74100000D03*
%TO.N,P0_03*%
X96000000Y-56950000D03*
%TO.N,P0_17*%
X86800000Y-81000000D03*
X104874537Y-52770132D03*
X109400000Y-56350000D03*
X109200000Y-58850000D03*
X107800000Y-77300000D03*
%TO.N,P0_15*%
X106813516Y-53675904D03*
X110100000Y-55650000D03*
%TO.N,P0_10*%
X113900000Y-72700000D03*
%TO.N,P1_09*%
X98700000Y-68175000D03*
X112800000Y-67649996D03*
X103800000Y-68174998D03*
%TO.N,P0_11*%
X98750000Y-69125000D03*
X113350000Y-70350000D03*
X104700000Y-69125002D03*
%TO.N,P0_31*%
X113850000Y-75150000D03*
%TO.N,P0_28*%
X98700000Y-64249994D03*
X92497198Y-68712107D03*
%TO.N,P0_20*%
X100700000Y-51550000D03*
X78350000Y-67300000D03*
X79350000Y-61500000D03*
X89050000Y-74800000D03*
%TO.N,P0_09*%
X113250000Y-74250000D03*
%TD*%
D31*
%TO.N,GND*%
X80712000Y-50620000D02*
X81212000Y-50620000D01*
X81756000Y-50620000D02*
X82236000Y-50140000D01*
X81212000Y-50620000D02*
X81756000Y-50620000D01*
D32*
X102092000Y-52746600D02*
X103108000Y-52746600D01*
X103108000Y-52746600D02*
X103108000Y-51756000D01*
X103108000Y-51756000D02*
X102092000Y-51756000D01*
X102092000Y-52858000D02*
X101500000Y-53450000D01*
X102092000Y-52746600D02*
X102092000Y-52858000D01*
D33*
X102365000Y-61180000D02*
X102365000Y-62450000D01*
D34*
X93413000Y-62075000D02*
X93312000Y-62176000D01*
D31*
X101509998Y-62450000D02*
X102365000Y-62450000D01*
X100769999Y-63189999D02*
X101509998Y-62450000D01*
X100769999Y-64419999D02*
X100769999Y-63189999D01*
X101340000Y-64990000D02*
X100769999Y-64419999D01*
X102365000Y-64990000D02*
X101340000Y-64990000D01*
D35*
X95175000Y-71675000D02*
X95500000Y-72000000D01*
X95175000Y-69137500D02*
X95175000Y-71675000D01*
X95175000Y-68363586D02*
X95175000Y-69137500D01*
X94699990Y-67888576D02*
X95175000Y-68363586D01*
X94699990Y-66049990D02*
X94699990Y-67888576D01*
X94425000Y-65775000D02*
X94699990Y-66049990D01*
X93975000Y-65775000D02*
X94425000Y-65775000D01*
X93850000Y-65775000D02*
X92300000Y-67325000D01*
X93975000Y-65775000D02*
X93850000Y-65775000D01*
X94750000Y-79550000D02*
X94625000Y-79675000D01*
X94750000Y-78575000D02*
X94750000Y-79550000D01*
X93900000Y-78575000D02*
X94750000Y-78575000D01*
X96450000Y-79500000D02*
X96575000Y-79625000D01*
X96450000Y-78575000D02*
X96450000Y-79500000D01*
X96450000Y-78575000D02*
X97200000Y-78575000D01*
X94750000Y-78575000D02*
X95275000Y-78575000D01*
X95275000Y-78575000D02*
X95299986Y-78599986D01*
X95299986Y-78599986D02*
X95299986Y-79099986D01*
X96050000Y-78575000D02*
X96050000Y-78200000D01*
X96050000Y-78200000D02*
X95825000Y-77975000D01*
X95275000Y-78575000D02*
X96050000Y-78575000D01*
X96050000Y-78575000D02*
X96450000Y-78575000D01*
X96050000Y-79475000D02*
X95650000Y-79875000D01*
X96050000Y-78575000D02*
X96050000Y-79475000D01*
D31*
X98104200Y-53762600D02*
X98104200Y-54720779D01*
X98104200Y-54720779D02*
X97974979Y-54850000D01*
X102365000Y-62450000D02*
X100725000Y-62450000D01*
X100725000Y-62450000D02*
X100450000Y-62175000D01*
D32*
X102092000Y-51756000D02*
X100998000Y-52850000D01*
X100998000Y-52850000D02*
X100700000Y-52850000D01*
D33*
X89025000Y-52455000D02*
X90395000Y-52455000D01*
X90395000Y-52455000D02*
X90700000Y-52150000D01*
X91675000Y-54350000D02*
X91675000Y-55525000D01*
X91675000Y-55525000D02*
X91700000Y-55550000D01*
D36*
X79950000Y-67300000D02*
X79450000Y-66800000D01*
X80550000Y-67300000D02*
X79950000Y-67300000D01*
X79450000Y-65087500D02*
X79937500Y-64600000D01*
X79450000Y-66800000D02*
X79450000Y-65087500D01*
X82845400Y-64349990D02*
X84024990Y-64349990D01*
X82595390Y-64600000D02*
X82845400Y-64349990D01*
X84024990Y-64349990D02*
X84975000Y-65300000D01*
X79937500Y-64600000D02*
X82595390Y-64600000D01*
D34*
X95687500Y-46950000D02*
X95687500Y-48737500D01*
D31*
X95687500Y-48737500D02*
X95800000Y-48850000D01*
D37*
X95350000Y-59250000D02*
X93950000Y-57850000D01*
X95350000Y-60450000D02*
X95350000Y-59250000D01*
D38*
X93950000Y-57850000D02*
X93400000Y-57850000D01*
D37*
X93312000Y-62176000D02*
X93624000Y-62176000D01*
X93624000Y-62176000D02*
X95350000Y-60450000D01*
D34*
X78512500Y-52500000D02*
X78300000Y-52500000D01*
X77312500Y-51512500D02*
X77312500Y-50400000D01*
X78300000Y-52500000D02*
X77312500Y-51512500D01*
D35*
X83112500Y-49900000D02*
X82700000Y-50312500D01*
X84300000Y-49900000D02*
X83112500Y-49900000D01*
X85387500Y-77327500D02*
X85387500Y-77100000D01*
X85800000Y-79700000D02*
X85800000Y-77740000D01*
X85800000Y-77740000D02*
X85387500Y-77327500D01*
X106387500Y-77200000D02*
X106387500Y-77087500D01*
X105100000Y-75800000D02*
X104000000Y-75800000D01*
X106387500Y-77087500D02*
X105100000Y-75800000D01*
X106400000Y-78900000D02*
X106400000Y-77212500D01*
X106400000Y-77212500D02*
X106387500Y-77200000D01*
X106700000Y-79800000D02*
X106700000Y-79200000D01*
X106700000Y-79200000D02*
X106400000Y-78900000D01*
D39*
X86899992Y-77300000D02*
X85080000Y-77300000D01*
X86700000Y-77300000D02*
X86899992Y-77300000D01*
D35*
X78512500Y-52500000D02*
X77250000Y-52500000D01*
X77250000Y-52500000D02*
X77100000Y-52650000D01*
D33*
X101600000Y-73800000D02*
X101600000Y-71950000D01*
D35*
X81300000Y-55287500D02*
X78512500Y-52500000D01*
X81300000Y-55750000D02*
X81300000Y-55287500D01*
X77650000Y-58450000D02*
X78000000Y-58800000D01*
X80350000Y-58750000D02*
X80350000Y-57640000D01*
X80300000Y-58800000D02*
X80350000Y-58750000D01*
X78000000Y-58800000D02*
X80300000Y-58800000D01*
X80350000Y-56700000D02*
X81300000Y-55750000D01*
X80350000Y-57640000D02*
X80350000Y-56700000D01*
D36*
X89600000Y-69090000D02*
X89600000Y-70350000D01*
X89600000Y-70350000D02*
X88750000Y-70350000D01*
X88750000Y-70350000D02*
X87750000Y-70350000D01*
D32*
X86362500Y-65300000D02*
X86750000Y-64912500D01*
X84975000Y-65300000D02*
X86362500Y-65300000D01*
X86750000Y-64912500D02*
X87637500Y-64912500D01*
X87800000Y-64750000D02*
X89000000Y-64750000D01*
X87637500Y-64912500D02*
X87800000Y-64750000D01*
D35*
X92300000Y-66050000D02*
X92799994Y-65550006D01*
X92300000Y-67325000D02*
X92300000Y-66050000D01*
D39*
X88150000Y-59300000D02*
X87250000Y-60200000D01*
X88150000Y-58937500D02*
X88150000Y-59300000D01*
D32*
X81300000Y-55750000D02*
X83500000Y-55750000D01*
X83500000Y-55750000D02*
X84550000Y-55750000D01*
X84900000Y-55750000D02*
X85450000Y-56300000D01*
X84550000Y-55750000D02*
X84900000Y-55750000D01*
D35*
%TO.N,+3V3*%
X83800000Y-78750000D02*
X83800000Y-77620000D01*
X83800000Y-78750000D02*
X83862347Y-78750000D01*
X83862347Y-78750000D02*
X84362357Y-79250010D01*
D34*
X93975000Y-47087500D02*
X94112500Y-46950000D01*
X93975000Y-48645000D02*
X93975000Y-47087500D01*
D33*
X93870000Y-48750000D02*
X93975000Y-48645000D01*
X91800000Y-48750000D02*
X93870000Y-48750000D01*
D35*
X83812500Y-77607500D02*
X83800000Y-77620000D01*
X83812500Y-77100000D02*
X83812500Y-77607500D01*
D31*
X81932500Y-51120000D02*
X81212000Y-51120000D01*
X82700000Y-51887500D02*
X81932500Y-51120000D01*
D35*
X83587500Y-51000000D02*
X82700000Y-51887500D01*
X84200000Y-51000000D02*
X83587500Y-51000000D01*
X104700000Y-77312500D02*
X104812500Y-77200000D01*
X104700000Y-78850000D02*
X104700000Y-77312500D01*
X104700000Y-78850000D02*
X103300000Y-80250000D01*
X103300000Y-80250000D02*
X103300000Y-80350000D01*
X75600000Y-57550000D02*
X77250000Y-55900000D01*
X75600000Y-58199996D02*
X75600000Y-57550000D01*
X79250000Y-55900000D02*
X79400000Y-55750000D01*
X77250000Y-55900000D02*
X79250000Y-55900000D01*
X79400000Y-57640000D02*
X79400000Y-55750000D01*
X79400000Y-55750000D02*
X78200000Y-54550000D01*
X78200000Y-54550000D02*
X78200000Y-54150000D01*
D31*
%TO.N,Net-(C2-Pad2)*%
X79167500Y-50120000D02*
X78887500Y-50400000D01*
X80212000Y-50120000D02*
X79167500Y-50120000D01*
D35*
%TO.N,+6V*%
X95825000Y-67575000D02*
X95825000Y-69137500D01*
X95550000Y-67300000D02*
X95825000Y-67575000D01*
D32*
X95687500Y-65500000D02*
X95687500Y-67162500D01*
D35*
X88237500Y-57450000D02*
X88150000Y-57362500D01*
X89350000Y-57450000D02*
X88237500Y-57450000D01*
X89350000Y-55900000D02*
X89250000Y-55800000D01*
X89350000Y-57450000D02*
X89350000Y-55900000D01*
D36*
X90100000Y-67247592D02*
X90100000Y-66500000D01*
X89622582Y-67725010D02*
X90100000Y-67247592D01*
X88650000Y-68249998D02*
X89174988Y-67725010D01*
X89174988Y-67725010D02*
X89622582Y-67725010D01*
X88650000Y-69090000D02*
X88650000Y-68249998D01*
X88650000Y-69090000D02*
X87700000Y-69090000D01*
X90850000Y-66100000D02*
X90850000Y-65599982D01*
X90100000Y-66850000D02*
X90850000Y-66100000D01*
D34*
X91225000Y-71325000D02*
X90850000Y-70950000D01*
X90850000Y-70950000D02*
X90850000Y-65599982D01*
X91700000Y-71325000D02*
X91225000Y-71325000D01*
D32*
X91300018Y-65599982D02*
X90850000Y-65599982D01*
X92700000Y-64200000D02*
X91300018Y-65599982D01*
X95100000Y-64200000D02*
X92700000Y-64200000D01*
X95687500Y-64787500D02*
X95100000Y-64200000D01*
X95687500Y-65500000D02*
X95687500Y-64787500D01*
D31*
%TO.N,Net-(C6-Pad1)*%
X93950000Y-67500000D02*
X94000000Y-67450000D01*
X94525000Y-68550000D02*
X93950000Y-67975000D01*
X93950000Y-67975000D02*
X93950000Y-67500000D01*
X94525000Y-69137500D02*
X94525000Y-68550000D01*
D34*
%TO.N,Net-(C7-Pad2)*%
X96475000Y-67750000D02*
X96475000Y-69137500D01*
X97075000Y-67150000D02*
X96475000Y-67750000D01*
D39*
%TO.N,VDD*%
X98300600Y-49749400D02*
X99000000Y-49050000D01*
D31*
X98104200Y-49749400D02*
X98300600Y-49749400D01*
D35*
X105825000Y-56000000D02*
X105825000Y-55825000D01*
X106105200Y-55544800D02*
X106105200Y-54753200D01*
X105825000Y-55825000D02*
X106105200Y-55544800D01*
X101105000Y-58650000D02*
X101100000Y-58650000D01*
X102365000Y-59910000D02*
X101105000Y-58650000D01*
X93174272Y-55675728D02*
X94025728Y-55675728D01*
X91050000Y-57800000D02*
X93174272Y-55675728D01*
X91500000Y-57850000D02*
X91500000Y-57800000D01*
D38*
X78350000Y-72450000D02*
X78100000Y-72700000D01*
D35*
X78350000Y-68250000D02*
X77835002Y-68250000D01*
X78362500Y-64362480D02*
X77275010Y-63274990D01*
X78362500Y-64600000D02*
X78362500Y-64362480D01*
D38*
X91500000Y-57850000D02*
X91500000Y-58200000D01*
X91500000Y-57650000D02*
X91500000Y-58200000D01*
X78225010Y-63274990D02*
X78600000Y-62900000D01*
X77275010Y-63274990D02*
X78225010Y-63274990D01*
D35*
X77650000Y-62900000D02*
X77275010Y-63274990D01*
X77650000Y-60350000D02*
X77650000Y-62900000D01*
X80350000Y-60260000D02*
X80350000Y-62900000D01*
D38*
X78600000Y-62900000D02*
X80350000Y-62900000D01*
X76800000Y-63750000D02*
X76800000Y-65400000D01*
X77275010Y-63274990D02*
X76800000Y-63750000D01*
X76550000Y-71150000D02*
X78100000Y-72700000D01*
X76800000Y-65400000D02*
X76550000Y-65650000D01*
X86590797Y-62900000D02*
X91290797Y-58200000D01*
X80350000Y-62900000D02*
X86590797Y-62900000D01*
X91290797Y-58200000D02*
X91500000Y-58200000D01*
D39*
X75950000Y-66250000D02*
X76550000Y-65650000D01*
X75950000Y-66364998D02*
X75950000Y-66250000D01*
D35*
X77650000Y-68250000D02*
X76550000Y-67150000D01*
X78350000Y-68250000D02*
X77650000Y-68250000D01*
D38*
X76550000Y-67150000D02*
X76550000Y-71150000D01*
X76550000Y-65650000D02*
X76550000Y-67150000D01*
D31*
%TO.N,Net-(D1-Pad2)*%
X80712000Y-50120000D02*
X80712000Y-49152000D01*
X78860000Y-47300000D02*
X78200000Y-47300000D01*
X80712000Y-49152000D02*
X78860000Y-47300000D01*
%TO.N,Net-(D1-Pad1)*%
X81212000Y-50120000D02*
X81212000Y-49508000D01*
X83420000Y-47300000D02*
X84300000Y-47300000D01*
X81212000Y-49508000D02*
X83420000Y-47300000D01*
%TO.N,SWDIO*%
X108030000Y-59910000D02*
X108200011Y-59739989D01*
X108500022Y-51153622D02*
X107095800Y-49749400D01*
X106435000Y-59910000D02*
X108030000Y-59910000D01*
X108500022Y-53498536D02*
X108500022Y-51153622D01*
X108200011Y-53798546D02*
X108500022Y-53498536D01*
X108200011Y-59739989D02*
X108200011Y-53798546D01*
%TO.N,SWDCLK*%
X108800033Y-53622804D02*
X108500022Y-53922814D01*
X106604589Y-49250011D02*
X107724289Y-49250011D01*
X106105200Y-49749400D02*
X106604589Y-49250011D01*
X108500022Y-53922814D02*
X108500022Y-60709978D01*
X107724289Y-49250011D02*
X108800033Y-50325755D01*
X108800033Y-50325755D02*
X108800033Y-53622804D01*
X108500022Y-60709978D02*
X108030000Y-61180000D01*
X108030000Y-61180000D02*
X106435000Y-61180000D01*
%TO.N,RESET*%
X108200011Y-51844211D02*
X107095800Y-50740000D01*
X106435000Y-64990000D02*
X105410000Y-64990000D01*
X108200011Y-53374268D02*
X108200011Y-51844211D01*
X105410000Y-64990000D02*
X104839999Y-64419999D01*
X104839999Y-64419999D02*
X104839999Y-58110001D01*
X107900000Y-53674278D02*
X108200011Y-53374268D01*
X107900000Y-55050000D02*
X107900000Y-53674278D01*
X104839999Y-58110001D02*
X107900000Y-55050000D01*
D38*
%TO.N,Net-(J4-Pad2)*%
X90772000Y-61328000D02*
X92450000Y-59650000D01*
X90772000Y-62176000D02*
X90772000Y-61328000D01*
D31*
%TO.N,P0_30*%
X99094800Y-51555200D02*
X99094800Y-51756000D01*
X102000000Y-48950000D02*
X101700000Y-48950000D01*
X101700000Y-48950000D02*
X99094800Y-51555200D01*
X82109158Y-52800000D02*
X84250000Y-52800000D01*
X80712000Y-51402842D02*
X82109158Y-52800000D01*
X80712000Y-51120000D02*
X80712000Y-51402842D01*
%TO.N,P0_29*%
X99900000Y-49550000D02*
X100500000Y-48950000D01*
X99094800Y-50740000D02*
X99900000Y-49934800D01*
X99900000Y-49934800D02*
X99900000Y-49550000D01*
X82338002Y-53550000D02*
X83400000Y-53550000D01*
X80212000Y-51120000D02*
X80212000Y-51423998D01*
X80212000Y-51423998D02*
X82338002Y-53550000D01*
%TO.N,P0_02*%
X97100000Y-52760200D02*
X97100000Y-62558125D01*
X98104200Y-51756000D02*
X97100000Y-52760200D01*
X97100000Y-62558125D02*
X98011833Y-63469958D01*
X93225000Y-69137500D02*
X92662500Y-69700000D01*
X92662500Y-69700000D02*
X92000000Y-69700000D01*
D34*
%TO.N,Net-(R1-Pad1)*%
X91700000Y-73337500D02*
X91700000Y-72975000D01*
X93225000Y-74862500D02*
X91700000Y-73337500D01*
D31*
%TO.N,Net-(R2-Pad2)*%
X79711999Y-52201999D02*
X79810000Y-52300000D01*
X79711999Y-50837159D02*
X79711999Y-52201999D01*
X79929158Y-50620000D02*
X79711999Y-50837159D01*
X80212000Y-50620000D02*
X79929158Y-50620000D01*
%TO.N,P0_05*%
X103108000Y-54753200D02*
X103108000Y-54142000D01*
X103108000Y-54142000D02*
X103500000Y-53750000D01*
D35*
X96475000Y-76200000D02*
X96475000Y-74862500D01*
X97200000Y-76925000D02*
X96475000Y-76200000D01*
D31*
X98350000Y-76925000D02*
X98375000Y-76950000D01*
X97200000Y-76925000D02*
X98350000Y-76925000D01*
X99849999Y-73199999D02*
X99925000Y-73275000D01*
X99849999Y-58011201D02*
X99849999Y-73199999D01*
X103108000Y-54753200D02*
X99849999Y-58011201D01*
D35*
%TO.N,P0_04*%
X94525000Y-76300000D02*
X94525000Y-74862500D01*
X93900000Y-76925000D02*
X94525000Y-76300000D01*
D31*
X92750000Y-76925000D02*
X92700000Y-76875000D01*
X93900000Y-76925000D02*
X92750000Y-76925000D01*
X99400000Y-57445200D02*
X102092000Y-54753200D01*
X99400000Y-60850000D02*
X99400000Y-57445200D01*
D34*
X99400000Y-60850000D02*
X99399999Y-59149999D01*
X99399999Y-59149999D02*
X99000000Y-58750000D01*
D31*
X99200000Y-70350000D02*
X99200000Y-74100000D01*
X99400002Y-70149998D02*
X99200000Y-70350000D01*
X99400002Y-60850002D02*
X99400002Y-70149998D01*
X99400000Y-60850000D02*
X99400002Y-60850002D01*
D34*
%TO.N,P0_03*%
X97410000Y-50740000D02*
X98104200Y-50740000D01*
X96865000Y-51285000D02*
X97410000Y-50740000D01*
D31*
X96000000Y-51220000D02*
X95965000Y-51185000D01*
D34*
X93975000Y-51185000D02*
X95965000Y-51185000D01*
D31*
X96000000Y-56950000D02*
X96000000Y-52370000D01*
X96000000Y-52150000D02*
X96865000Y-51285000D01*
X96000000Y-52370000D02*
X96000000Y-52150000D01*
D34*
X96965000Y-51185000D02*
X95965000Y-51185000D01*
X97410000Y-50740000D02*
X96965000Y-51185000D01*
D31*
%TO.N,P0_17*%
X86450000Y-80650000D02*
X86800000Y-81000000D01*
X83800000Y-80650000D02*
X86450000Y-80650000D01*
X106105200Y-51756000D02*
X105091068Y-52770132D01*
X105091068Y-52770132D02*
X104874537Y-52770132D01*
X109500000Y-56450000D02*
X109400000Y-56350000D01*
X109400000Y-58650000D02*
X109200000Y-58850000D01*
X109500000Y-58650000D02*
X109400000Y-58650000D01*
X109500000Y-58650000D02*
X109500000Y-56450000D01*
X109700000Y-75400000D02*
X107800000Y-77300000D01*
X109700000Y-65850000D02*
X109700000Y-75400000D01*
X109500000Y-65650000D02*
X109700000Y-65850000D01*
X109500000Y-58650000D02*
X109500000Y-65650000D01*
%TO.N,P0_15*%
X107095800Y-51756000D02*
X107095800Y-51754200D01*
X107474096Y-53675904D02*
X106813516Y-53675904D01*
X107900000Y-53250000D02*
X107474096Y-53675904D01*
X107900000Y-52560200D02*
X107900000Y-53250000D01*
X107095800Y-51756000D02*
X107900000Y-52560200D01*
X110200000Y-55750000D02*
X110100000Y-55650000D01*
X110210000Y-60040000D02*
X110200000Y-60050000D01*
D34*
X110590000Y-59990000D02*
X110200000Y-59600000D01*
X112800000Y-59990000D02*
X110590000Y-59990000D01*
D31*
X110200000Y-59600000D02*
X110200000Y-55750000D01*
X110200000Y-60050000D02*
X110200000Y-59600000D01*
X110029999Y-66095723D02*
X110200000Y-65925722D01*
X110029999Y-71264001D02*
X110029999Y-66095723D01*
X110050000Y-71284002D02*
X110029999Y-71264001D01*
X110050000Y-72775998D02*
X110050000Y-71284002D01*
X110029999Y-72795999D02*
X110050000Y-72775998D01*
X110029999Y-73804001D02*
X110029999Y-72795999D01*
X110050000Y-73824002D02*
X110029999Y-73804001D01*
X110200000Y-62650000D02*
X110200000Y-60050000D01*
X110050000Y-78100000D02*
X110050000Y-73824002D01*
X110200000Y-65925722D02*
X110200000Y-62650000D01*
X107400000Y-80750000D02*
X110050000Y-78100000D01*
X104700000Y-80750000D02*
X107400000Y-80750000D01*
%TO.N,P0_10*%
X114350000Y-72250000D02*
X113900000Y-72700000D01*
X114350000Y-50750000D02*
X114350000Y-72250000D01*
X109937861Y-49887861D02*
X113487861Y-49887861D01*
X113487861Y-49887861D02*
X114350000Y-50750000D01*
X108699990Y-48649990D02*
X109937861Y-49887861D01*
X105198010Y-48649990D02*
X108699990Y-48649990D01*
X104098600Y-49749400D02*
X105198010Y-48649990D01*
%TO.N,P1_09*%
X98674990Y-68149990D02*
X98700000Y-68175000D01*
X97325010Y-68149990D02*
X98674990Y-68149990D01*
X97125000Y-68350000D02*
X97325010Y-68149990D01*
X97125000Y-69137500D02*
X97125000Y-68350000D01*
D34*
X112800000Y-65070000D02*
X112800000Y-67649996D01*
D31*
X104098600Y-67876398D02*
X103800000Y-68174998D01*
X104098600Y-54753200D02*
X104098600Y-67876398D01*
D34*
%TO.N,P0_11*%
X98737500Y-69137500D02*
X98750000Y-69125000D01*
X97775000Y-69137500D02*
X98737500Y-69137500D01*
X113700000Y-70000000D02*
X113350000Y-70350000D01*
X113700000Y-61700000D02*
X113700000Y-70000000D01*
X113260000Y-61260000D02*
X113700000Y-61700000D01*
D31*
X104550000Y-66400000D02*
X104550000Y-68975002D01*
X104550000Y-68975002D02*
X104700000Y-69125002D01*
X104539989Y-56585011D02*
X104539989Y-66389989D01*
X104539989Y-66389989D02*
X104550000Y-66400000D01*
X105089200Y-56035800D02*
X104539989Y-56585011D01*
X105089200Y-54753200D02*
X105089200Y-56035800D01*
%TO.N,P0_31*%
X114650000Y-50550000D02*
X114650000Y-74350000D01*
X114650000Y-74350000D02*
X113850000Y-75150000D01*
X112250000Y-48150000D02*
X114650000Y-50550000D01*
X104600000Y-48150000D02*
X112250000Y-48150000D01*
X102600000Y-50150000D02*
X104600000Y-48150000D01*
X101211998Y-50150000D02*
X102600000Y-50150000D01*
X100099999Y-51261999D02*
X101211998Y-50150000D01*
X99094800Y-52746600D02*
X100099999Y-51741401D01*
X100099999Y-51741401D02*
X100099999Y-51261999D01*
%TO.N,P0_28*%
X98104200Y-52746600D02*
X98104200Y-52854200D01*
X98700000Y-63284313D02*
X98700000Y-64249994D01*
X99000000Y-55350000D02*
X98299998Y-56050002D01*
X99000000Y-53642400D02*
X99000000Y-55350000D01*
X98299998Y-62884311D02*
X98700000Y-63284313D01*
X98104200Y-52746600D02*
X99000000Y-53642400D01*
X98299998Y-56050002D02*
X98299998Y-62884311D01*
X92499518Y-68149990D02*
X92497198Y-68152310D01*
X93674990Y-68149990D02*
X92499518Y-68149990D01*
X92497198Y-68152310D02*
X92497198Y-68712107D01*
X93875000Y-68350000D02*
X93674990Y-68149990D01*
X93875000Y-69137500D02*
X93875000Y-68350000D01*
%TO.N,P0_20*%
X101510000Y-50740000D02*
X100700000Y-51550000D01*
X106105200Y-50740000D02*
X101510000Y-50740000D01*
D34*
X78350000Y-66350000D02*
X78350000Y-67300000D01*
X79350000Y-60310000D02*
X79400000Y-60260000D01*
X79350000Y-61500000D02*
X79350000Y-60310000D01*
X88650000Y-74400000D02*
X88650000Y-71710000D01*
X89050000Y-74800000D02*
X88650000Y-74400000D01*
D35*
%TO.N,Net-(D2-Pad2)*%
X88050000Y-48645000D02*
X89025000Y-48645000D01*
X87750000Y-55800000D02*
X87319998Y-55800000D01*
X86750001Y-49944999D02*
X88050000Y-48645000D01*
X86750001Y-55230003D02*
X86750001Y-49944999D01*
X87319998Y-55800000D02*
X86750001Y-55230003D01*
D31*
%TO.N,P0_09*%
X105089200Y-49749400D02*
X105888599Y-48950001D01*
X113450000Y-50300000D02*
X114050000Y-50900000D01*
X105888599Y-48950001D02*
X108400001Y-48950001D01*
X114050000Y-71450000D02*
X113250000Y-72250000D01*
X108400001Y-48950001D02*
X109750000Y-50300000D01*
X109750000Y-50300000D02*
X113450000Y-50300000D01*
X114050000Y-50900000D02*
X114050000Y-71450000D01*
X113250000Y-72250000D02*
X113250000Y-74250000D01*
D35*
%TO.N,Net-(C13-Pad2)*%
X83325000Y-68500000D02*
X83325000Y-65300000D01*
X82812500Y-66350000D02*
X83362500Y-66900000D01*
X80550000Y-66350000D02*
X82812500Y-66350000D01*
%TO.N,Net-(D2-Pad4)*%
X90000000Y-49915000D02*
X89025000Y-49915000D01*
X91600000Y-51515000D02*
X90000000Y-49915000D01*
X91600000Y-52450000D02*
X91600000Y-51515000D01*
X89250000Y-54700000D02*
X89350000Y-54700000D01*
X89350000Y-54700000D02*
X91600000Y-52450000D01*
%TO.N,Net-(D2-Pad3)*%
X87500000Y-51735000D02*
X88050000Y-51185000D01*
X88050000Y-51185000D02*
X89025000Y-51185000D01*
X87500000Y-53850000D02*
X87500000Y-51735000D01*
X87750000Y-54100000D02*
X87500000Y-53850000D01*
X87750000Y-54700000D02*
X87750000Y-54100000D01*
D38*
%TO.N,Net-(D3-Pad2)*%
X82800000Y-72700000D02*
X82150000Y-72700000D01*
X82150000Y-72700000D02*
X80550000Y-71100000D01*
X80550000Y-71100000D02*
X80550000Y-68800000D01*
X84750000Y-72700000D02*
X85150000Y-73100000D01*
X82800000Y-72700000D02*
X84750000Y-72700000D01*
D33*
%TO.N,Net-(R5-Pad2)*%
X93000000Y-49915000D02*
X93975000Y-49915000D01*
X92699990Y-50215010D02*
X93000000Y-49915000D01*
X92699990Y-53724990D02*
X92699990Y-50215010D01*
X93325000Y-54350000D02*
X92699990Y-53724990D01*
D35*
%TO.N,Net-(C13-Pad1)*%
X85150000Y-68675000D02*
X84975000Y-68500000D01*
X85150000Y-70300000D02*
X85150000Y-68675000D01*
X84975000Y-66937500D02*
X84937500Y-66900000D01*
X84975000Y-68500000D02*
X84975000Y-66937500D01*
X85150000Y-70300000D02*
X85150000Y-70400000D01*
D36*
X85150000Y-70300000D02*
X85150000Y-70500000D01*
X86360000Y-71710000D02*
X87700000Y-71710000D01*
X85150000Y-70500000D02*
X86360000Y-71710000D01*
X87875000Y-74425000D02*
X86950000Y-75350000D01*
X87875000Y-73350000D02*
X87875000Y-74425000D01*
X87700000Y-73175000D02*
X87875000Y-73350000D01*
X87700000Y-71710000D02*
X87700000Y-73175000D01*
X86637500Y-66900000D02*
X86750000Y-66787500D01*
X84937500Y-66900000D02*
X86637500Y-66900000D01*
X88737500Y-66787500D02*
X88800000Y-66850000D01*
X86750000Y-66787500D02*
X88737500Y-66787500D01*
D35*
%TO.N,Net-(C15-Pad2)*%
X91485010Y-76074990D02*
X90750000Y-76810000D01*
X93525010Y-76074990D02*
X91485010Y-76074990D01*
X93875000Y-75725000D02*
X93525010Y-76074990D01*
X93875000Y-74862500D02*
X93875000Y-75725000D01*
X90235000Y-77325000D02*
X90750000Y-76810000D01*
X88150000Y-77325000D02*
X90235000Y-77325000D01*
%TO.N,Net-(C15-Pad1)*%
X95175000Y-76902832D02*
X95175000Y-74862500D01*
X94402822Y-77675010D02*
X95175000Y-76902832D01*
X92424990Y-77675010D02*
X94402822Y-77675010D01*
X90750000Y-79350000D02*
X92424990Y-77675010D01*
X90275000Y-78875000D02*
X90750000Y-79350000D01*
X88150000Y-78875000D02*
X90275000Y-78875000D01*
%TO.N,Net-(C16-Pad2)*%
X97125000Y-75636414D02*
X97125000Y-74862500D01*
X97488596Y-76000010D02*
X97125000Y-75636414D01*
X99440010Y-76000010D02*
X97488596Y-76000010D01*
X100200000Y-76760000D02*
X99440010Y-76000010D01*
X100515000Y-77075000D02*
X100200000Y-76760000D01*
X102800000Y-77075000D02*
X100515000Y-77075000D01*
%TO.N,Net-(C16-Pad1)*%
X96697178Y-77675010D02*
X95825000Y-76802832D01*
X95825000Y-76802832D02*
X95825000Y-74862500D01*
X97675010Y-77675010D02*
X96697178Y-77675010D01*
X99300000Y-79300000D02*
X97675010Y-77675010D01*
X100200000Y-79300000D02*
X99300000Y-79300000D01*
X100875000Y-78625000D02*
X100200000Y-79300000D01*
X102800000Y-78625000D02*
X100875000Y-78625000D01*
%TO.N,Net-(L2-Pad2)*%
X83690000Y-57640000D02*
X83900000Y-57850000D01*
X81300000Y-57640000D02*
X83690000Y-57640000D01*
%TO.N,Net-(L2-Pad1)*%
X83690000Y-60260000D02*
X83900000Y-60050000D01*
X81300000Y-60260000D02*
X83690000Y-60260000D01*
D36*
%TO.N,Net-(Q1-Pad6)*%
X89650000Y-71760000D02*
X89600000Y-71710000D01*
X89650000Y-73225000D02*
X89650000Y-71760000D01*
X89525000Y-73350000D02*
X89650000Y-73225000D01*
%TD*%
M02*
