%TF.GenerationSoftware,KiCad,Pcbnew,(6.0.0)*%
%TF.CreationDate,2022-01-21T19:42:06+01:00*%
%TF.ProjectId,DotBot,446f7442-6f74-42e6-9b69-6361645f7063,rev?*%
%TF.SameCoordinates,Original*%
%TF.FileFunction,Soldermask,Top*%
%TF.FilePolarity,Negative*%
%FSLAX46Y46*%
G04 Gerber Fmt 4.6, Leading zero omitted, Abs format (unit mm)*
G04 Created by KiCad (PCBNEW (6.0.0)) date 2022-01-21 19:42:06*
%MOMM*%
%LPD*%
G01*
G04 APERTURE LIST*
G04 Aperture macros list*
%AMRoundRect*
0 Rectangle with rounded corners*
0 $1 Rounding radius*
0 $2 $3 $4 $5 $6 $7 $8 $9 X,Y pos of 4 corners*
0 Add a 4 corners polygon primitive as box body*
4,1,4,$2,$3,$4,$5,$6,$7,$8,$9,$2,$3,0*
0 Add four circle primitives for the rounded corners*
1,1,$1+$1,$2,$3*
1,1,$1+$1,$4,$5*
1,1,$1+$1,$6,$7*
1,1,$1+$1,$8,$9*
0 Add four rect primitives between the rounded corners*
20,1,$1+$1,$2,$3,$4,$5,0*
20,1,$1+$1,$4,$5,$6,$7,0*
20,1,$1+$1,$6,$7,$8,$9,0*
20,1,$1+$1,$8,$9,$2,$3,0*%
%AMFreePoly0*
4,1,22,0.500000,-0.750000,0.000000,-0.750000,0.000000,-0.745033,-0.079941,-0.743568,-0.215256,-0.701293,-0.333266,-0.622738,-0.424486,-0.514219,-0.481581,-0.384460,-0.499164,-0.250000,-0.500000,-0.250000,-0.500000,0.250000,-0.499164,0.250000,-0.499963,0.256109,-0.478152,0.396186,-0.417904,0.524511,-0.324060,0.630769,-0.204165,0.706417,-0.067858,0.745374,0.000000,0.744959,0.000000,0.750000,
0.500000,0.750000,0.500000,-0.750000,0.500000,-0.750000,$1*%
%AMFreePoly1*
4,1,20,0.000000,0.744959,0.073905,0.744508,0.209726,0.703889,0.328688,0.626782,0.421226,0.519385,0.479903,0.390333,0.500000,0.250000,0.500000,-0.250000,0.499851,-0.262216,0.476331,-0.402017,0.414519,-0.529596,0.319384,-0.634700,0.198574,-0.708877,0.061801,-0.746166,0.000000,-0.745033,0.000000,-0.750000,-0.500000,-0.750000,-0.500000,0.750000,0.000000,0.750000,0.000000,0.744959,
0.000000,0.744959,$1*%
G04 Aperture macros list end*
%ADD10C,0.400000*%
%ADD11RoundRect,0.218750X-0.256250X0.218750X-0.256250X-0.218750X0.256250X-0.218750X0.256250X0.218750X0*%
%ADD12RoundRect,0.218750X-0.218750X-0.256250X0.218750X-0.256250X0.218750X0.256250X-0.218750X0.256250X0*%
%ADD13R,1.400000X2.000000*%
%ADD14R,1.400000X1.200000*%
%ADD15R,1.700000X1.700000*%
%ADD16O,1.700000X1.700000*%
%ADD17RoundRect,0.200000X-0.200000X-0.275000X0.200000X-0.275000X0.200000X0.275000X-0.200000X0.275000X0*%
%ADD18RoundRect,0.200000X0.275000X-0.200000X0.275000X0.200000X-0.275000X0.200000X-0.275000X-0.200000X0*%
%ADD19RoundRect,0.250000X-0.250000X-0.475000X0.250000X-0.475000X0.250000X0.475000X-0.250000X0.475000X0*%
%ADD20R,0.900000X0.800000*%
%ADD21R,1.000000X0.800000*%
%ADD22RoundRect,0.218750X0.218750X0.256250X-0.218750X0.256250X-0.218750X-0.256250X0.218750X-0.256250X0*%
%ADD23R,0.800000X0.900000*%
%ADD24RoundRect,0.150000X-0.825000X-0.150000X0.825000X-0.150000X0.825000X0.150000X-0.825000X0.150000X0*%
%ADD25RoundRect,0.225000X0.250000X-0.225000X0.250000X0.225000X-0.250000X0.225000X-0.250000X-0.225000X0*%
%ADD26FreePoly0,0.000000*%
%ADD27FreePoly1,0.000000*%
%ADD28R,2.900000X0.800000*%
%ADD29R,0.650000X1.220000*%
%ADD30C,1.000000*%
%ADD31RoundRect,0.250000X-0.475000X0.250000X-0.475000X-0.250000X0.475000X-0.250000X0.475000X0.250000X0*%
%ADD32R,1.000000X1.000000*%
%ADD33O,1.000000X1.000000*%
%ADD34RoundRect,0.355600X0.000000X0.000000X0.000000X0.000000X0.000000X0.000000X0.000000X0.000000X0*%
%ADD35R,2.790000X0.740000*%
%ADD36RoundRect,0.243750X0.243750X0.456250X-0.243750X0.456250X-0.243750X-0.456250X0.243750X-0.456250X0*%
%ADD37R,2.310000X2.460000*%
%ADD38RoundRect,0.100000X0.100000X-0.687500X0.100000X0.687500X-0.100000X0.687500X-0.100000X-0.687500X0*%
%ADD39RoundRect,0.225000X0.225000X0.250000X-0.225000X0.250000X-0.225000X-0.250000X0.225000X-0.250000X0*%
%ADD40RoundRect,0.225000X-0.225000X-0.250000X0.225000X-0.250000X0.225000X0.250000X-0.225000X0.250000X0*%
%ADD41RoundRect,0.200000X-0.275000X0.200000X-0.275000X-0.200000X0.275000X-0.200000X0.275000X0.200000X0*%
%ADD42RoundRect,0.150000X0.150000X-0.512500X0.150000X0.512500X-0.150000X0.512500X-0.150000X-0.512500X0*%
%ADD43R,1.100000X1.100000*%
%ADD44C,2.200000*%
%ADD45RoundRect,0.250000X0.475000X-0.250000X0.475000X0.250000X-0.475000X0.250000X-0.475000X-0.250000X0*%
%ADD46RoundRect,0.225000X-0.250000X0.225000X-0.250000X-0.225000X0.250000X-0.225000X0.250000X0.225000X0*%
%ADD47RoundRect,0.250000X-0.850000X0.375000X-0.850000X-0.375000X0.850000X-0.375000X0.850000X0.375000X0*%
%ADD48RoundRect,0.150000X0.512500X0.150000X-0.512500X0.150000X-0.512500X-0.150000X0.512500X-0.150000X0*%
%ADD49RoundRect,0.062500X-0.062500X0.375000X-0.062500X-0.375000X0.062500X-0.375000X0.062500X0.375000X0*%
%ADD50RoundRect,0.062500X-0.375000X0.062500X-0.375000X-0.062500X0.375000X-0.062500X0.375000X0.062500X0*%
%ADD51R,1.600000X1.600000*%
%ADD52RoundRect,0.200000X0.200000X0.275000X-0.200000X0.275000X-0.200000X-0.275000X0.200000X-0.275000X0*%
G04 APERTURE END LIST*
D10*
%TO.C,U4*%
X80146315Y-49370000D03*
X80646315Y-49370000D03*
X81146315Y-49370000D03*
X80146315Y-49870000D03*
X80646315Y-49870000D03*
X81146315Y-49870000D03*
X80146315Y-50370000D03*
X80646315Y-50370000D03*
X81146315Y-50370000D03*
%TD*%
D11*
%TO.C,C1*%
X82634315Y-49562500D03*
X82634315Y-51137500D03*
%TD*%
D12*
%TO.C,C2*%
X77246815Y-49650000D03*
X78821815Y-49650000D03*
%TD*%
D13*
%TO.C,D1*%
X84234315Y-46550000D03*
D14*
X78134315Y-46550000D03*
%TD*%
D15*
%TO.C,J1*%
X90750000Y-79350000D03*
D16*
X90750000Y-76810000D03*
%TD*%
D15*
%TO.C,J2*%
X100200000Y-79300000D03*
D16*
X100200000Y-76760000D03*
%TD*%
D12*
%TO.C,R2*%
X78112500Y-51900000D03*
X79687500Y-51900000D03*
%TD*%
D17*
%TO.C,R5*%
X92175000Y-54100000D03*
X93825000Y-54100000D03*
%TD*%
D15*
%TO.C,J4*%
X93812000Y-61926000D03*
D16*
X91272000Y-61926000D03*
%TD*%
D12*
%TO.C,C3*%
X83812500Y-77100000D03*
X85387500Y-77100000D03*
%TD*%
%TO.C,C4*%
X104812500Y-77200000D03*
X106387500Y-77200000D03*
%TD*%
D18*
%TO.C,R4*%
X93900000Y-78575000D03*
X93900000Y-76925000D03*
%TD*%
D19*
%TO.C,C12*%
X77550000Y-61300000D03*
X79450000Y-61300000D03*
%TD*%
D18*
%TO.C,R3*%
X97200000Y-78575000D03*
X97200000Y-76925000D03*
%TD*%
D20*
%TO.C,U2*%
X104700000Y-78850000D03*
X104700000Y-80750000D03*
X106700000Y-79800000D03*
%TD*%
%TO.C,U1*%
X83800000Y-78750000D03*
X83800000Y-80650000D03*
X85800000Y-79700000D03*
%TD*%
D11*
%TO.C,C9*%
X88650000Y-57112500D03*
X88650000Y-58687500D03*
%TD*%
D21*
%TO.C,D2*%
X89750000Y-55550000D03*
X88250000Y-55550000D03*
X88250000Y-54450000D03*
X89750000Y-54450000D03*
%TD*%
D22*
%TO.C,C8*%
X95887500Y-46700000D03*
X94312500Y-46700000D03*
%TD*%
D23*
%TO.C,Q4*%
X93900000Y-57400000D03*
X92000000Y-57400000D03*
X92950000Y-59400000D03*
%TD*%
D24*
%TO.C,U7*%
X89525000Y-48395000D03*
X89525000Y-49665000D03*
X89525000Y-50935000D03*
X89525000Y-52205000D03*
X94475000Y-52205000D03*
X94475000Y-50935000D03*
X94475000Y-49665000D03*
X94475000Y-48395000D03*
%TD*%
D25*
%TO.C,C15*%
X88150000Y-78875000D03*
X88150000Y-77325000D03*
%TD*%
D26*
%TO.C,JP1*%
X88800000Y-66500000D03*
D27*
X90100000Y-66500000D03*
%TD*%
D28*
%TO.C,L2*%
X78850000Y-59562500D03*
X78850000Y-57362500D03*
%TD*%
D29*
%TO.C,Q1*%
X89600000Y-69090000D03*
X88650000Y-69090000D03*
X87700000Y-69090000D03*
X87700000Y-71710000D03*
X88650000Y-71710000D03*
X89600000Y-71710000D03*
%TD*%
D17*
%TO.C,R8*%
X87875000Y-73350000D03*
X89525000Y-73350000D03*
%TD*%
D30*
%TO.C,6v*%
X86950000Y-75350000D03*
%TD*%
%TO.C,3.3v*%
X76500000Y-54700000D03*
%TD*%
D25*
%TO.C,C16*%
X102800000Y-78625000D03*
X102800000Y-77075000D03*
%TD*%
D31*
%TO.C,C11*%
X85250000Y-56450000D03*
X85250000Y-58350000D03*
%TD*%
D32*
%TO.C,J5*%
X112800000Y-51100000D03*
D33*
X112800000Y-52370000D03*
X112800000Y-53640000D03*
X112800000Y-54910000D03*
X112800000Y-56180000D03*
X112800000Y-57450000D03*
X112800000Y-58720000D03*
X112800000Y-59990000D03*
X112800000Y-61260000D03*
X112800000Y-62530000D03*
X112800000Y-63800000D03*
X112800000Y-65070000D03*
%TD*%
D34*
%TO.C,U5*%
X98104200Y-49749400D03*
X98104200Y-50740000D03*
X98104200Y-51756000D03*
X98104200Y-52746600D03*
X98104200Y-53762600D03*
X99094800Y-50740000D03*
X99094800Y-51756000D03*
X99094800Y-52746600D03*
X102092000Y-54753200D03*
X103108000Y-54753200D03*
X104098600Y-54753200D03*
X105089200Y-54753200D03*
X106105200Y-54753200D03*
X107095800Y-54753200D03*
X107095800Y-52746600D03*
X107095800Y-51756000D03*
X107095800Y-50740000D03*
X107095800Y-49749400D03*
X106105200Y-52746600D03*
X106105200Y-51756000D03*
X106105200Y-50740000D03*
X106105200Y-49749400D03*
X105089200Y-49749400D03*
X104098600Y-49749400D03*
X103108000Y-51756000D03*
X103108000Y-52746600D03*
X102092000Y-51756000D03*
X102092000Y-52746600D03*
%TD*%
D35*
%TO.C,J3*%
X102365000Y-59910000D03*
X106435000Y-59910000D03*
X102365000Y-61180000D03*
X106435000Y-61180000D03*
X102365000Y-62450000D03*
X106435000Y-62450000D03*
X102365000Y-63720000D03*
X106435000Y-63720000D03*
X102365000Y-64990000D03*
X106435000Y-64990000D03*
%TD*%
D15*
%TO.C,J6*%
X106000000Y-73300000D03*
D16*
X106000000Y-70760000D03*
X108540000Y-73300000D03*
X108540000Y-70760000D03*
X111080000Y-73300000D03*
X111080000Y-70760000D03*
%TD*%
D36*
%TO.C,C5*%
X95687500Y-65500000D03*
X93812500Y-65500000D03*
%TD*%
D30*
%TO.C,GND*%
X101600000Y-71950000D03*
%TD*%
D37*
%TO.C,U3*%
X95500000Y-72000000D03*
D38*
X93225000Y-74862500D03*
X93875000Y-74862500D03*
X94525000Y-74862500D03*
X95175000Y-74862500D03*
X95825000Y-74862500D03*
X96475000Y-74862500D03*
X97125000Y-74862500D03*
X97775000Y-74862500D03*
X97775000Y-69137500D03*
X97125000Y-69137500D03*
X96475000Y-69137500D03*
X95825000Y-69137500D03*
X95175000Y-69137500D03*
X94525000Y-69137500D03*
X93875000Y-69137500D03*
X93225000Y-69137500D03*
%TD*%
D18*
%TO.C,R1*%
X91700000Y-72975000D03*
X91700000Y-71325000D03*
%TD*%
D39*
%TO.C,C6*%
X93850000Y-67325000D03*
X92300000Y-67325000D03*
%TD*%
D40*
%TO.C,C7*%
X95550000Y-67300000D03*
X97100000Y-67300000D03*
%TD*%
D41*
%TO.C,R13*%
X82800000Y-71975000D03*
X82800000Y-73625000D03*
%TD*%
D30*
%TO.C,pg*%
X76200000Y-63300000D03*
%TD*%
D40*
%TO.C,C19*%
X76625000Y-73600000D03*
X78175000Y-73600000D03*
%TD*%
D42*
%TO.C,U6*%
X81500000Y-59800000D03*
X82450000Y-59800000D03*
X83400000Y-59800000D03*
X83400000Y-57525000D03*
X81500000Y-57525000D03*
%TD*%
D41*
%TO.C,R7*%
X81300000Y-71975000D03*
X81300000Y-73625000D03*
%TD*%
D43*
%TO.C,D3*%
X83200000Y-70300000D03*
X83200000Y-67500000D03*
%TD*%
D44*
%TO.C,REF\u002A\u002A*%
X111500000Y-78500000D03*
%TD*%
D25*
%TO.C,C14*%
X79700000Y-73575000D03*
X79700000Y-72025000D03*
%TD*%
%TO.C,C17*%
X85400000Y-54975000D03*
X85400000Y-53425000D03*
%TD*%
D41*
%TO.C,R9*%
X85050000Y-59937500D03*
X85050000Y-61587500D03*
%TD*%
D45*
%TO.C,C10*%
X81600000Y-65850000D03*
X81600000Y-63950000D03*
%TD*%
D46*
%TO.C,C20*%
X76700000Y-68925000D03*
X76700000Y-70475000D03*
%TD*%
D41*
%TO.C,R6*%
X76200000Y-65875000D03*
X76200000Y-67525000D03*
%TD*%
D47*
%TO.C,L1*%
X84000000Y-63625000D03*
X84000000Y-65775000D03*
%TD*%
D44*
%TO.C,REF\u002A\u002A*%
X78500000Y-78500000D03*
%TD*%
%TO.C,REF\u002A\u002A*%
X111500000Y-45500000D03*
%TD*%
D25*
%TO.C,C18*%
X79200000Y-55725000D03*
X79200000Y-54175000D03*
%TD*%
%TO.C,C13*%
X79800000Y-65975000D03*
X79800000Y-64425000D03*
%TD*%
D48*
%TO.C,U9*%
X83237500Y-55750000D03*
X83237500Y-54800000D03*
X83237500Y-53850000D03*
X80962500Y-53850000D03*
X80962500Y-55750000D03*
%TD*%
D31*
%TO.C,C21*%
X85400000Y-67450000D03*
X85400000Y-69350000D03*
%TD*%
D49*
%TO.C,U8*%
X80350000Y-67562500D03*
X79850000Y-67562500D03*
X79350000Y-67562500D03*
X78850000Y-67562500D03*
D50*
X78162500Y-68250000D03*
X78162500Y-68750000D03*
X78162500Y-69250000D03*
X78162500Y-69750000D03*
D49*
X78850000Y-70437500D03*
X79350000Y-70437500D03*
X79850000Y-70437500D03*
X80350000Y-70437500D03*
D50*
X81037500Y-69750000D03*
X81037500Y-69250000D03*
X81037500Y-68750000D03*
X81037500Y-68250000D03*
D51*
X79600000Y-69000000D03*
%TD*%
D52*
%TO.C,R11*%
X78225000Y-72000000D03*
X76575000Y-72000000D03*
%TD*%
%TO.C,R10*%
X83475000Y-61700000D03*
X81825000Y-61700000D03*
%TD*%
D41*
%TO.C,R12*%
X84300000Y-71975000D03*
X84300000Y-73625000D03*
%TD*%
M02*
