%TF.GenerationSoftware,KiCad,Pcbnew,(6.0.0)*%
%TF.CreationDate,2022-01-21T19:42:06+01:00*%
%TF.ProjectId,DotBot,446f7442-6f74-42e6-9b69-6361645f7063,rev?*%
%TF.SameCoordinates,Original*%
%TF.FileFunction,Copper,L4,Bot*%
%TF.FilePolarity,Positive*%
%FSLAX46Y46*%
G04 Gerber Fmt 4.6, Leading zero omitted, Abs format (unit mm)*
G04 Created by KiCad (PCBNEW (6.0.0)) date 2022-01-21 19:42:06*
%MOMM*%
%LPD*%
G01*
G04 APERTURE LIST*
%TA.AperFunction,ComponentPad*%
%ADD10R,1.700000X1.700000*%
%TD*%
%TA.AperFunction,ComponentPad*%
%ADD11O,1.700000X1.700000*%
%TD*%
%TA.AperFunction,ComponentPad*%
%ADD12R,1.000000X1.000000*%
%TD*%
%TA.AperFunction,ComponentPad*%
%ADD13O,1.000000X1.000000*%
%TD*%
%TA.AperFunction,ComponentPad*%
%ADD14C,0.500000*%
%TD*%
%TA.AperFunction,SMDPad,CuDef*%
%ADD15R,3.500000X2.000000*%
%TD*%
%TA.AperFunction,SMDPad,CuDef*%
%ADD16R,1.600000X1.600000*%
%TD*%
%TA.AperFunction,ViaPad*%
%ADD17C,0.800000*%
%TD*%
%TA.AperFunction,Conductor*%
%ADD18C,0.300000*%
%TD*%
%TA.AperFunction,Conductor*%
%ADD19C,0.200000*%
%TD*%
%TA.AperFunction,Conductor*%
%ADD20C,0.250000*%
%TD*%
G04 APERTURE END LIST*
D10*
%TO.P,J1,1,Pin_1*%
%TO.N,Net-(C15-Pad1)*%
X90750000Y-79350000D03*
D11*
%TO.P,J1,2,Pin_2*%
%TO.N,Net-(C15-Pad2)*%
X90750000Y-76810000D03*
%TD*%
D10*
%TO.P,J2,1,Pin_1*%
%TO.N,Net-(C16-Pad1)*%
X100200000Y-79300000D03*
D11*
%TO.P,J2,2,Pin_2*%
%TO.N,Net-(C16-Pad2)*%
X100200000Y-76760000D03*
%TD*%
D10*
%TO.P,J4,1,Pin_1*%
%TO.N,GND*%
X93812000Y-61926000D03*
D11*
%TO.P,J4,2,Pin_2*%
%TO.N,Net-(J4-Pad2)*%
X91272000Y-61926000D03*
%TD*%
D12*
%TO.P,J5,1,Pin_1*%
%TO.N,P0_30*%
X112800000Y-51100000D03*
D13*
%TO.P,J5,2,Pin_2*%
%TO.N,P0_29*%
X112800000Y-52370000D03*
%TO.P,J5,3,Pin_3*%
%TO.N,P0_20*%
X112800000Y-53640000D03*
%TO.P,J5,4,Pin_4*%
%TO.N,P0_05*%
X112800000Y-54910000D03*
%TO.P,J5,5,Pin_5*%
%TO.N,P0_03*%
X112800000Y-56180000D03*
%TO.P,J5,6,Pin_6*%
%TO.N,P0_04*%
X112800000Y-57450000D03*
%TO.P,J5,7,Pin_7*%
%TO.N,P0_17*%
X112800000Y-58720000D03*
%TO.P,J5,8,Pin_8*%
%TO.N,P0_15*%
X112800000Y-59990000D03*
%TO.P,J5,9,Pin_9*%
%TO.N,P0_11*%
X112800000Y-61260000D03*
%TO.P,J5,10,Pin_10*%
%TO.N,P0_02*%
X112800000Y-62530000D03*
%TO.P,J5,11,Pin_11*%
%TO.N,P0_28*%
X112800000Y-63800000D03*
%TO.P,J5,12,Pin_12*%
%TO.N,P1_09*%
X112800000Y-65070000D03*
%TD*%
D10*
%TO.P,J6,1,Pin_1*%
%TO.N,P0_31*%
X106000000Y-73300000D03*
D11*
%TO.P,J6,2,Pin_2*%
%TO.N,P0_10*%
X106000000Y-70760000D03*
%TO.P,J6,3,Pin_3*%
%TO.N,P0_09*%
X108540000Y-73300000D03*
%TO.P,J6,4,Pin_4*%
%TO.N,VDD*%
X108540000Y-70760000D03*
%TO.P,J6,5,Pin_5*%
%TO.N,GND*%
X111080000Y-73300000D03*
%TO.P,J6,6,Pin_6*%
%TO.N,+6V*%
X111080000Y-70760000D03*
%TD*%
D14*
%TO.P,U3,17,GND(PPAD)*%
%TO.N,GND*%
X94000000Y-71250000D03*
X97000000Y-72750000D03*
X95500000Y-72750000D03*
X95500000Y-71250000D03*
D15*
X95500000Y-72000000D03*
D14*
X94000000Y-72750000D03*
X97000000Y-71250000D03*
%TD*%
D16*
%TO.P,U8,17,EP*%
%TO.N,GND*%
X79600000Y-69000000D03*
D14*
X79050000Y-68450000D03*
X80150000Y-69550000D03*
X80150000Y-68450000D03*
X79050000Y-69550000D03*
%TD*%
D17*
%TO.N,GND*%
X101500000Y-53450000D03*
X100450000Y-62175000D03*
X97974979Y-54850000D03*
X100700000Y-52850000D03*
X85100000Y-67600000D03*
X87750000Y-70350000D03*
X82500000Y-57800000D03*
X92200000Y-55300000D03*
X102600000Y-73100000D03*
X87637500Y-64912500D03*
X95650000Y-79875000D03*
X85650000Y-58550000D03*
X85900000Y-66950000D03*
X87300000Y-59000000D03*
X95299986Y-79099986D03*
X96575000Y-79625000D03*
X84234315Y-49150000D03*
X89000000Y-64750000D03*
X104000000Y-75800000D03*
X89600000Y-70350000D03*
X96300000Y-48649500D03*
X81950000Y-54650000D03*
X84700000Y-58500000D03*
X81900000Y-66000000D03*
X95825000Y-77975000D03*
X92799994Y-65550006D03*
X87000000Y-77000000D03*
X82450000Y-58550000D03*
X94625000Y-79675000D03*
X77034315Y-51900000D03*
X88750000Y-70350000D03*
X91200000Y-51900000D03*
X95500000Y-59300000D03*
X79300000Y-54449500D03*
X85400000Y-53500000D03*
X81100000Y-65600000D03*
%TO.N,+3V3*%
X84134315Y-50250000D03*
X77700000Y-53600000D03*
X92276923Y-48649500D03*
X84362357Y-79250010D03*
X76500000Y-57500000D03*
X103300000Y-80350000D03*
%TO.N,+6V*%
X90850000Y-65599982D03*
X89846075Y-57101795D03*
X97700000Y-65700000D03*
%TO.N,VDD*%
X99000000Y-49050000D03*
X101100000Y-58650000D03*
X105825000Y-56000000D03*
X94525728Y-55425728D03*
%TO.N,P0_30*%
X102000000Y-48950000D03*
X84400000Y-51700000D03*
%TO.N,P0_29*%
X100500000Y-48950000D03*
X83500000Y-52600000D03*
%TO.N,P0_02*%
X98011833Y-63469958D03*
X92000000Y-69700000D03*
%TO.N,P0_05*%
X103500000Y-53750000D03*
X99925000Y-73275000D03*
X98375000Y-76950000D03*
%TO.N,P0_04*%
X99000000Y-58750000D03*
X99200000Y-74100000D03*
X92700000Y-76875000D03*
%TO.N,P0_03*%
X96500000Y-56700000D03*
%TO.N,P0_17*%
X104874537Y-52770132D03*
X107800000Y-77300000D03*
X109400000Y-56350000D03*
X86800000Y-81000000D03*
X109200000Y-58850000D03*
%TO.N,P0_15*%
X106813516Y-53675904D03*
X110100000Y-55650000D03*
%TO.N,P0_10*%
X113900000Y-72700000D03*
%TO.N,P1_09*%
X98700000Y-68175000D03*
X112800000Y-67649996D03*
X103800000Y-68174998D03*
%TO.N,P0_11*%
X98750000Y-69125000D03*
X104700000Y-69125002D03*
X113350000Y-70350000D03*
%TO.N,P0_31*%
X113850000Y-75150000D03*
%TO.N,P0_28*%
X98700000Y-64249994D03*
X92497198Y-68712107D03*
%TO.N,P0_20*%
X100700000Y-51550000D03*
X81300000Y-59700000D03*
X77400000Y-67600000D03*
X89050000Y-74800000D03*
X84200000Y-53900000D03*
%TO.N,P0_09*%
X113250000Y-74250000D03*
%TO.N,/+3.8v*%
X86300000Y-60700000D03*
X78800000Y-66200000D03*
%TD*%
D18*
%TO.N,P0_30*%
X100050000Y-47000000D02*
X102000000Y-48950000D01*
X89800000Y-47000000D02*
X100050000Y-47000000D01*
X85100000Y-51700000D02*
X89800000Y-47000000D01*
X84400000Y-51700000D02*
X85100000Y-51700000D01*
%TO.N,P0_29*%
X90215685Y-47700000D02*
X85415685Y-52500000D01*
X85415685Y-52500000D02*
X83525980Y-52500000D01*
X99250000Y-47700000D02*
X90215685Y-47700000D01*
X99550000Y-48000000D02*
X99250000Y-47700000D01*
X83525980Y-52500000D02*
X83500000Y-52525980D01*
D19*
%TO.N,P0_30*%
X103400000Y-50350000D02*
X102000000Y-48950000D01*
X108900000Y-50350000D02*
X103400000Y-50350000D01*
X112750000Y-51150000D02*
X112800000Y-51100000D01*
X109700000Y-51150000D02*
X108900000Y-50350000D01*
X109700000Y-51150000D02*
X112750000Y-51150000D01*
%TO.N,P0_29*%
X102300000Y-50750000D02*
X100500000Y-48950000D01*
X108000000Y-50750000D02*
X102300000Y-50750000D01*
X109670000Y-52420000D02*
X108000000Y-50750000D01*
X112750000Y-52420000D02*
X112800000Y-52370000D01*
D18*
X100500000Y-48950000D02*
X99550000Y-48000000D01*
D19*
X83500000Y-52525980D02*
X83500000Y-52600000D01*
X99550000Y-48000000D02*
X99500000Y-48000000D01*
X109670000Y-52420000D02*
X112750000Y-52420000D01*
D20*
%TO.N,P0_02*%
X98401792Y-63079999D02*
X98011833Y-63469958D01*
X91600001Y-68175001D02*
X91600001Y-69300001D01*
X112300001Y-63029999D02*
X96770001Y-63029999D01*
X96750000Y-63025002D02*
X91600001Y-68175001D01*
X112800000Y-62530000D02*
X112300001Y-63029999D01*
X91600001Y-69300001D02*
X92000000Y-69700000D01*
D19*
%TO.N,P0_05*%
X103500000Y-52750000D02*
X103500000Y-53750000D01*
X104300000Y-51950000D02*
X103500000Y-52750000D01*
X106300000Y-51950000D02*
X104300000Y-51950000D01*
X99925000Y-75400000D02*
X99925000Y-73275000D01*
X98375000Y-76950000D02*
X99925000Y-75400000D01*
X112750000Y-54960000D02*
X112800000Y-54910000D01*
X109310000Y-54960000D02*
X112750000Y-54960000D01*
X109310000Y-54960000D02*
X106300000Y-51950000D01*
%TO.N,P0_04*%
X99000000Y-58750000D02*
X100000000Y-57750000D01*
X96425000Y-76875000D02*
X99200000Y-74100000D01*
X100000000Y-57750000D02*
X112500000Y-57750000D01*
X92700000Y-76875000D02*
X96425000Y-76875000D01*
X112500000Y-57750000D02*
X112800000Y-57450000D01*
%TO.N,P0_03*%
X112800000Y-56180000D02*
X112030000Y-56950000D01*
X96750000Y-56950000D02*
X96500000Y-56700000D01*
X112030000Y-56950000D02*
X96750000Y-56950000D01*
%TO.N,P0_17*%
X104874537Y-52770132D02*
X108454405Y-56350000D01*
D20*
X112800000Y-58720000D02*
X109330000Y-58720000D01*
D19*
X107800000Y-80000000D02*
X107800000Y-77300000D01*
X112720000Y-58800000D02*
X112800000Y-58720000D01*
X106800000Y-81000000D02*
X107800000Y-80000000D01*
X86800000Y-81000000D02*
X106800000Y-81000000D01*
X108454405Y-56350000D02*
X109400000Y-56350000D01*
D20*
X109330000Y-58720000D02*
X109200000Y-58850000D01*
D19*
%TO.N,P0_15*%
X106813516Y-53675904D02*
X108787612Y-55650000D01*
X108787612Y-55650000D02*
X110100000Y-55650000D01*
%TO.N,P0_10*%
X107240000Y-72000000D02*
X113200000Y-72000000D01*
X113200000Y-72000000D02*
X113900000Y-72700000D01*
X106000000Y-70760000D02*
X107240000Y-72000000D01*
%TO.N,P1_09*%
X98700000Y-68175000D02*
X103799998Y-68175000D01*
D20*
X112800000Y-67649996D02*
X112274998Y-68174998D01*
X112274998Y-68174998D02*
X103800000Y-68174998D01*
D19*
X103799998Y-68175000D02*
X103800000Y-68174998D01*
D20*
%TO.N,P0_11*%
X109675000Y-69125000D02*
X112125000Y-69125000D01*
X109675000Y-69125000D02*
X104700002Y-69125000D01*
X109675000Y-69125000D02*
X109700000Y-69100000D01*
X104700002Y-69125000D02*
X104700000Y-69125002D01*
X98750000Y-69125000D02*
X104699998Y-69125000D01*
X112125000Y-69125000D02*
X113350000Y-70350000D01*
X104699998Y-69125000D02*
X104700000Y-69125002D01*
D19*
%TO.N,P0_31*%
X107850000Y-75150000D02*
X113850000Y-75150000D01*
X106000000Y-73300000D02*
X107850000Y-75150000D01*
%TO.N,P0_28*%
X98400006Y-64249994D02*
X98700000Y-64249994D01*
D20*
X98749994Y-64249994D02*
X98700000Y-64249994D01*
X93087893Y-68712107D02*
X93062883Y-68712107D01*
X93062883Y-68712107D02*
X92497198Y-68712107D01*
X97150000Y-64650000D02*
X93087893Y-68712107D01*
X99100000Y-64600000D02*
X98749994Y-64249994D01*
X108950000Y-64650000D02*
X109600000Y-64650000D01*
X112800000Y-63800000D02*
X111950000Y-64650000D01*
X111950000Y-64650000D02*
X108950000Y-64650000D01*
X108950000Y-64650000D02*
X97150006Y-64650000D01*
D19*
%TO.N,P0_20*%
X107200000Y-51550000D02*
X100700000Y-51550000D01*
D20*
X93800000Y-51550000D02*
X90275000Y-55075000D01*
X85775000Y-59575000D02*
X83900000Y-61450000D01*
X77400000Y-66416821D02*
X77400000Y-67600000D01*
X90275000Y-55075000D02*
X85375000Y-55075000D01*
D18*
X81300000Y-59700000D02*
X85650000Y-59700000D01*
D19*
X109340000Y-53690000D02*
X107200000Y-51550000D01*
D20*
X100700000Y-51550000D02*
X93800000Y-51550000D01*
X83900000Y-61450000D02*
X83900000Y-63700000D01*
X80116821Y-63700000D02*
X77400000Y-66416821D01*
X90275000Y-55075000D02*
X85775000Y-59575000D01*
X86750000Y-65750000D02*
X86750000Y-72500000D01*
X83900000Y-63700000D02*
X80116821Y-63700000D01*
X86750000Y-72500000D02*
X89050000Y-74800000D01*
X84700000Y-63700000D02*
X86750000Y-65750000D01*
D18*
X85650000Y-59700000D02*
X85775000Y-59575000D01*
D20*
X83900000Y-63700000D02*
X84700000Y-63700000D01*
D19*
X109340000Y-53690000D02*
X112750000Y-53690000D01*
D20*
X85375000Y-55075000D02*
X84200000Y-53900000D01*
D19*
X112750000Y-53690000D02*
X112800000Y-53640000D01*
%TO.N,P0_09*%
X109939999Y-74699999D02*
X112800001Y-74699999D01*
X112800001Y-74699999D02*
X113250000Y-74250000D01*
X108540000Y-73300000D02*
X109939999Y-74699999D01*
%TD*%
%TA.AperFunction,Conductor*%
%TO.N,GND*%
G36*
X83851816Y-64335732D02*
G01*
X83852119Y-64335790D01*
X83852123Y-64335790D01*
X83859906Y-64337275D01*
X83915951Y-64333749D01*
X83923862Y-64333500D01*
X84385406Y-64333500D01*
X84453527Y-64353502D01*
X84474501Y-64370405D01*
X86079595Y-65975500D01*
X86113621Y-66037812D01*
X86116500Y-66064595D01*
X86116500Y-72421233D01*
X86115973Y-72432416D01*
X86114298Y-72439909D01*
X86114547Y-72447835D01*
X86114547Y-72447836D01*
X86116438Y-72507986D01*
X86116500Y-72511945D01*
X86116500Y-72539856D01*
X86116997Y-72543790D01*
X86116997Y-72543791D01*
X86117005Y-72543856D01*
X86117938Y-72555693D01*
X86119327Y-72599889D01*
X86124978Y-72619339D01*
X86128987Y-72638700D01*
X86131526Y-72658797D01*
X86134445Y-72666168D01*
X86134445Y-72666170D01*
X86147804Y-72699912D01*
X86151649Y-72711142D01*
X86163982Y-72753593D01*
X86168015Y-72760412D01*
X86168017Y-72760417D01*
X86174293Y-72771028D01*
X86182988Y-72788776D01*
X86190448Y-72807617D01*
X86195110Y-72814033D01*
X86195110Y-72814034D01*
X86216436Y-72843387D01*
X86222952Y-72853307D01*
X86245458Y-72891362D01*
X86259779Y-72905683D01*
X86272619Y-72920716D01*
X86284528Y-72937107D01*
X86290634Y-72942158D01*
X86318605Y-72965298D01*
X86327384Y-72973288D01*
X86963095Y-73608999D01*
X86997121Y-73671311D01*
X87000000Y-73698094D01*
X87000000Y-74774000D01*
X86979998Y-74842121D01*
X86926342Y-74888614D01*
X86874000Y-74900000D01*
X85726000Y-74900000D01*
X85657879Y-74879998D01*
X85611386Y-74826342D01*
X85600000Y-74774000D01*
X85600000Y-70800000D01*
X82726000Y-70800000D01*
X82657879Y-70779998D01*
X82611386Y-70726342D01*
X82600000Y-70674000D01*
X82600000Y-69800000D01*
X81034000Y-69800000D01*
X80965879Y-69779998D01*
X80919386Y-69726342D01*
X80908000Y-69674000D01*
X80908000Y-69612124D01*
X80909226Y-69594588D01*
X80911948Y-69575222D01*
X80912554Y-69567338D01*
X80912741Y-69553962D01*
X80912354Y-69546062D01*
X80908785Y-69514240D01*
X80908000Y-69500195D01*
X80908000Y-69272115D01*
X80903525Y-69256876D01*
X80902135Y-69255671D01*
X80894452Y-69254000D01*
X80817668Y-69254000D01*
X80792021Y-69261531D01*
X80515871Y-69537681D01*
X80453559Y-69571707D01*
X80382744Y-69566642D01*
X80337681Y-69537681D01*
X79062319Y-68262319D01*
X79028293Y-68200007D01*
X79033358Y-68129192D01*
X79062319Y-68084129D01*
X79333189Y-67813259D01*
X79346000Y-67789797D01*
X79346000Y-67782332D01*
X79854000Y-67782332D01*
X79861530Y-67807977D01*
X80786741Y-68733188D01*
X80810203Y-68746000D01*
X80889884Y-68746000D01*
X80905123Y-68741525D01*
X80906328Y-68740135D01*
X80907999Y-68732452D01*
X80907999Y-68512130D01*
X80909225Y-68494593D01*
X80911948Y-68475219D01*
X80912554Y-68467340D01*
X80912741Y-68453962D01*
X80912354Y-68446062D01*
X80908784Y-68414233D01*
X80907999Y-68400188D01*
X80907999Y-68155331D01*
X80907629Y-68148510D01*
X80902105Y-68097648D01*
X80898479Y-68082396D01*
X80853324Y-67961946D01*
X80844786Y-67946351D01*
X80768285Y-67844276D01*
X80755724Y-67831715D01*
X80653649Y-67755214D01*
X80638054Y-67746676D01*
X80517606Y-67701522D01*
X80502351Y-67697895D01*
X80451486Y-67692369D01*
X80444672Y-67692000D01*
X80202875Y-67692000D01*
X80187957Y-67691114D01*
X80162318Y-67688057D01*
X80148320Y-67687959D01*
X80116436Y-67691310D01*
X80103267Y-67692000D01*
X79872115Y-67692000D01*
X79856876Y-67696475D01*
X79855671Y-67697865D01*
X79854000Y-67705548D01*
X79854000Y-67782332D01*
X79346000Y-67782332D01*
X79346000Y-67710116D01*
X79341525Y-67694877D01*
X79340135Y-67693672D01*
X79332452Y-67692001D01*
X79102882Y-67692001D01*
X79087963Y-67691115D01*
X79062317Y-67688057D01*
X79048321Y-67687959D01*
X79016430Y-67691311D01*
X79003260Y-67692001D01*
X78826000Y-67692001D01*
X78757879Y-67671999D01*
X78711386Y-67618343D01*
X78700000Y-67566001D01*
X78700000Y-67234500D01*
X78720002Y-67166379D01*
X78773658Y-67119886D01*
X78826000Y-67108500D01*
X78895487Y-67108500D01*
X78901939Y-67107128D01*
X78901944Y-67107128D01*
X78988887Y-67088647D01*
X79082288Y-67068794D01*
X79095176Y-67063056D01*
X79250722Y-66993803D01*
X79250724Y-66993802D01*
X79256752Y-66991118D01*
X79411253Y-66878866D01*
X79539040Y-66736944D01*
X79634527Y-66571556D01*
X79693542Y-66389928D01*
X79694927Y-66376756D01*
X79712814Y-66206565D01*
X79713504Y-66200000D01*
X79701472Y-66085520D01*
X79694232Y-66016635D01*
X79694232Y-66016633D01*
X79693542Y-66010072D01*
X79634527Y-65828444D01*
X79629619Y-65819942D01*
X79542341Y-65668774D01*
X79539040Y-65663056D01*
X79411253Y-65521134D01*
X79403381Y-65515415D01*
X79402272Y-65513976D01*
X79401002Y-65512833D01*
X79401211Y-65512601D01*
X79360026Y-65459196D01*
X79353948Y-65388460D01*
X79388344Y-65324382D01*
X80342321Y-64370405D01*
X80404633Y-64336379D01*
X80431416Y-64333500D01*
X83828207Y-64333500D01*
X83851816Y-64335732D01*
G37*
%TD.AperFunction*%
%TA.AperFunction,Conductor*%
G36*
X78142121Y-63520002D02*
G01*
X78188614Y-63573658D01*
X78200000Y-63626000D01*
X78200000Y-64668726D01*
X78179998Y-64736847D01*
X78163095Y-64757821D01*
X77007747Y-65913169D01*
X76999461Y-65920709D01*
X76992982Y-65924821D01*
X76987557Y-65930598D01*
X76946357Y-65974472D01*
X76943602Y-65977314D01*
X76923865Y-65997051D01*
X76921385Y-66000248D01*
X76913682Y-66009268D01*
X76883414Y-66041500D01*
X76879595Y-66048446D01*
X76879593Y-66048449D01*
X76873652Y-66059255D01*
X76862801Y-66075774D01*
X76850386Y-66091780D01*
X76847241Y-66099049D01*
X76847238Y-66099053D01*
X76832826Y-66132358D01*
X76827609Y-66143008D01*
X76806305Y-66181761D01*
X76804334Y-66189436D01*
X76804334Y-66189437D01*
X76801267Y-66201383D01*
X76794863Y-66220087D01*
X76786819Y-66238676D01*
X76785580Y-66246499D01*
X76785577Y-66246509D01*
X76779901Y-66282345D01*
X76777495Y-66293965D01*
X76766500Y-66336791D01*
X76766500Y-66357045D01*
X76764949Y-66376755D01*
X76761780Y-66396764D01*
X76762526Y-66404656D01*
X76765941Y-66440782D01*
X76766500Y-66452640D01*
X76766500Y-66897476D01*
X76746498Y-66965597D01*
X76734142Y-66981779D01*
X76660960Y-67063056D01*
X76565473Y-67228444D01*
X76506458Y-67410072D01*
X76486496Y-67600000D01*
X76487186Y-67606565D01*
X76505660Y-67782332D01*
X76506458Y-67789928D01*
X76565473Y-67971556D01*
X76660960Y-68136944D01*
X76665378Y-68141851D01*
X76665379Y-68141852D01*
X76773848Y-68262319D01*
X76788747Y-68278866D01*
X76943248Y-68391118D01*
X76949276Y-68393802D01*
X76949278Y-68393803D01*
X77111681Y-68466109D01*
X77117712Y-68468794D01*
X77211112Y-68488647D01*
X77298056Y-68507128D01*
X77298061Y-68507128D01*
X77304513Y-68508500D01*
X77495487Y-68508500D01*
X77501939Y-68507128D01*
X77501944Y-68507128D01*
X77588888Y-68488647D01*
X77682288Y-68468794D01*
X77688319Y-68466109D01*
X77850722Y-68393803D01*
X77850724Y-68393802D01*
X77856752Y-68391118D01*
X78011253Y-68278866D01*
X78049203Y-68236718D01*
X78109650Y-68199479D01*
X78180634Y-68200831D01*
X78231934Y-68231934D01*
X78255095Y-68255095D01*
X78289121Y-68317407D01*
X78292000Y-68344190D01*
X78292000Y-68394047D01*
X78291007Y-68409839D01*
X78288161Y-68432365D01*
X78287966Y-68446362D01*
X78291399Y-68481378D01*
X78292000Y-68493674D01*
X78292000Y-68727885D01*
X78296475Y-68743124D01*
X78297865Y-68744329D01*
X78305548Y-68746000D01*
X78382332Y-68746000D01*
X78407979Y-68738469D01*
X78484129Y-68662319D01*
X78546441Y-68628293D01*
X78617256Y-68633358D01*
X78662319Y-68662319D01*
X79863095Y-69863095D01*
X79897121Y-69925407D01*
X79900000Y-69952190D01*
X79900000Y-70101363D01*
X79879998Y-70169484D01*
X79868328Y-70183965D01*
X79854000Y-70210203D01*
X79854000Y-70289884D01*
X79859206Y-70307614D01*
X79894896Y-70363148D01*
X79900000Y-70398647D01*
X79900000Y-71500000D01*
X84774000Y-71500000D01*
X84842121Y-71520002D01*
X84888614Y-71573658D01*
X84900000Y-71626000D01*
X84900000Y-74174000D01*
X84879998Y-74242121D01*
X84826342Y-74288614D01*
X84774000Y-74300000D01*
X75634000Y-74300000D01*
X75565879Y-74279998D01*
X75519386Y-74226342D01*
X75508000Y-74174000D01*
X75508000Y-69546362D01*
X78287966Y-69546362D01*
X78291400Y-69581387D01*
X78292001Y-69593683D01*
X78292001Y-69844669D01*
X78292371Y-69851490D01*
X78297895Y-69902352D01*
X78301521Y-69917604D01*
X78346676Y-70038054D01*
X78355214Y-70053649D01*
X78431715Y-70155724D01*
X78444276Y-70168285D01*
X78546351Y-70244786D01*
X78561946Y-70253324D01*
X78682394Y-70298478D01*
X78697649Y-70302105D01*
X78748514Y-70307631D01*
X78755328Y-70308000D01*
X78990964Y-70308000D01*
X79007628Y-70309107D01*
X79027043Y-70311697D01*
X79041040Y-70311991D01*
X79079187Y-70308519D01*
X79090607Y-70308000D01*
X79327885Y-70308000D01*
X79343124Y-70303525D01*
X79344329Y-70302135D01*
X79346000Y-70294452D01*
X79346000Y-70217668D01*
X79338470Y-70192023D01*
X78413259Y-69266812D01*
X78389797Y-69254000D01*
X78310116Y-69254000D01*
X78294877Y-69258475D01*
X78293672Y-69259865D01*
X78292001Y-69267548D01*
X78292001Y-69494041D01*
X78291007Y-69509834D01*
X78288162Y-69532356D01*
X78287966Y-69546362D01*
X75508000Y-69546362D01*
X75508000Y-63626000D01*
X75528002Y-63557879D01*
X75581658Y-63511386D01*
X75634000Y-63500000D01*
X78074000Y-63500000D01*
X78142121Y-63520002D01*
G37*
%TD.AperFunction*%
%TD*%
M02*
