M48
; DRILL file {KiCad (5.1.6)-1} date 10/06/21 19:04:06
; FORMAT={-:-/ absolute / inch / decimal}
; #@! TF.CreationDate,2021-10-06T19:04:06+02:00
; #@! TF.GenerationSoftware,Kicad,Pcbnew,(5.1.6)-1
; #@! TF.FileFunction,Plated,1,4,PTH
FMAT,2
INCH
T1C0.0079
T2C0.0157
T3C0.0256
T4C0.0394
%
G90
G05
T1
X3.7008Y-2.8051
X3.7008Y-2.8642
X3.7598Y-2.8051
X3.7598Y-2.8642
X3.8189Y-2.8051
X3.8189Y-2.8642
T2
X2.9764Y-2.2913
X3.0354Y-2.0728
X3.0787Y-2.1319
X3.0846Y-2.6496
X3.124Y-2.4213
X3.2835Y-2.1083
X3.2874Y-2.1949
X3.315Y-2.0079
X3.3169Y-2.0787
X3.3189Y-1.9646
X3.3214Y-3.1201
X3.3287Y-2.1949
X3.3642Y-2.2165
X3.4134Y-3.0433
X3.4173Y-3.189
X3.435Y-2.3701
X3.4503Y-2.5556
X3.4547Y-2.7697
X3.4823Y-2.4921
X3.4941Y-2.7697
X3.5039Y-2.5492
X3.5059Y-2.9449
X3.5177Y-2.2618
X3.5276Y-2.7697
X3.5709Y-2.0531
X3.5768Y-2.5827
X3.6102Y-2.187
X3.6142Y-1.9193
X3.622Y-2.7441
X3.6416Y-2.7052
X3.6496Y-3.0266
X3.6535Y-2.5807
X3.7018Y-2.192
X3.7254Y-3.1368
X3.752Y-3.1142
X3.7657Y-3.1447
X3.7717Y-1.9232
X3.7726Y-3.0699
X3.7795Y-2.2421
X3.8022Y-3.1348
X3.8573Y-2.1594
X3.8587Y-2.4988
X3.873Y-3.0295
X3.8858Y-2.5295
X3.8858Y-2.6841
X3.8878Y-2.7215
X3.8976Y-1.9311
X3.8976Y-2.313
X3.9055Y-2.9173
X3.9341Y-2.8848
X3.9547Y-2.4478
X3.9567Y-1.9272
X3.9646Y-2.0295
X3.9646Y-2.0807
X3.9803Y-2.3091
X3.9961Y-2.1043
X4.0Y-2.9055
X4.0157Y-1.9272
X4.0669Y-3.1634
X4.0748Y-2.1161
X4.0866Y-2.6841
X4.0945Y-2.9843
X4.122Y-2.7215
X4.1289Y-2.0776
X4.1663Y-2.2047
X4.2053Y-2.1132
X4.2441Y-3.0433
X4.2992Y-2.3169
X4.3071Y-2.2185
X4.3346Y-2.1909
X4.4409Y-2.6634
X4.4587Y-2.9232
X4.4626Y-2.7697
X4.4823Y-2.9587
X4.4843Y-2.8622
T3
X4.4409Y-2.0118
X4.4409Y-2.0618
X4.4409Y-2.1118
X4.4409Y-2.1618
X4.4409Y-2.2118
X4.4409Y-2.2618
X4.4409Y-2.3118
X4.4409Y-2.3618
X4.4409Y-2.4118
X4.4409Y-2.4618
X4.4409Y-2.5118
X4.4409Y-2.5618
T4
X3.5728Y-3.024
X3.5728Y-3.124
X4.1732Y-2.7858
X4.1732Y-2.8858
X4.2732Y-2.7858
X4.2732Y-2.8858
X4.3732Y-2.7858
X4.3732Y-2.8858
X3.5737Y-2.4479
X3.6737Y-2.4479
X3.9449Y-3.022
X3.9449Y-3.122
T0
M30
