%TF.GenerationSoftware,KiCad,Pcbnew,(5.1.6)-1*%
%TF.CreationDate,2021-10-06T19:04:01+02:00*%
%TF.ProjectId,DotBot,446f7442-6f74-42e6-9b69-6361645f7063,rev?*%
%TF.SameCoordinates,Original*%
%TF.FileFunction,Copper,L3,Inr*%
%TF.FilePolarity,Positive*%
%FSLAX46Y46*%
G04 Gerber Fmt 4.6, Leading zero omitted, Abs format (unit mm)*
G04 Created by KiCad (PCBNEW (5.1.6)-1) date 2021-10-06 19:04:01*
%MOMM*%
%LPD*%
G01*
G04 APERTURE LIST*
%TA.AperFunction,ViaPad*%
%ADD10O,1.000000X1.000000*%
%TD*%
%TA.AperFunction,ViaPad*%
%ADD11R,1.000000X1.000000*%
%TD*%
%TA.AperFunction,ViaPad*%
%ADD12O,1.700000X1.700000*%
%TD*%
%TA.AperFunction,ViaPad*%
%ADD13R,1.700000X1.700000*%
%TD*%
%TA.AperFunction,ViaPad*%
%ADD14C,0.500000*%
%TD*%
%TA.AperFunction,ViaPad*%
%ADD15C,0.800000*%
%TD*%
%TA.AperFunction,Conductor*%
%ADD16C,0.500000*%
%TD*%
%TA.AperFunction,Conductor*%
%ADD17C,0.400000*%
%TD*%
G04 APERTURE END LIST*
D10*
%TO.N,P1_09*%
%TO.C,J5*%
X112800000Y-65070000D03*
%TO.N,P0_28*%
X112800000Y-63800000D03*
%TO.N,P0_02*%
X112800000Y-62530000D03*
%TO.N,P0_11*%
X112800000Y-61260000D03*
%TO.N,P0_15*%
X112800000Y-59990000D03*
%TO.N,P0_17*%
X112800000Y-58720000D03*
%TO.N,P0_04*%
X112800000Y-57450000D03*
%TO.N,P0_03*%
X112800000Y-56180000D03*
%TO.N,P0_05*%
X112800000Y-54910000D03*
%TO.N,P0_20*%
X112800000Y-53640000D03*
%TO.N,P0_29*%
X112800000Y-52370000D03*
D11*
%TO.N,P0_30*%
X112800000Y-51100000D03*
%TD*%
D12*
%TO.N,GND*%
%TO.C,J6*%
X111080000Y-70760000D03*
X111080000Y-73300000D03*
%TO.N,VDD*%
X108540000Y-70760000D03*
%TO.N,P0_09*%
X108540000Y-73300000D03*
%TO.N,P0_10*%
X106000000Y-70760000D03*
D13*
%TO.N,P0_31*%
X106000000Y-73300000D03*
%TD*%
D12*
%TO.N,Net-(C16-Pad2)*%
%TO.C,J2*%
X100200000Y-76760000D03*
D13*
%TO.N,Net-(C16-Pad1)*%
X100200000Y-79300000D03*
%TD*%
D12*
%TO.N,Net-(J4-Pad2)*%
%TO.C,J4*%
X90772000Y-62176000D03*
D13*
%TO.N,GND*%
X93312000Y-62176000D03*
%TD*%
D12*
%TO.N,Net-(C15-Pad2)*%
%TO.C,J1*%
X90750000Y-76810000D03*
D13*
%TO.N,Net-(C15-Pad1)*%
X90750000Y-79350000D03*
%TD*%
D14*
%TO.N,GND*%
%TO.C,U3*%
X97000000Y-71250000D03*
X97000000Y-72750000D03*
X95500000Y-71250000D03*
X95500000Y-72750000D03*
X94000000Y-71250000D03*
X94000000Y-72750000D03*
%TD*%
D15*
%TO.N,GND*%
X84300000Y-49900000D03*
X104000000Y-75800000D03*
X100700000Y-52850000D03*
X101500000Y-53450000D03*
X94625000Y-79675000D03*
X96575000Y-79625000D03*
X95299986Y-79099986D03*
X95825000Y-77975000D03*
X95650000Y-79875000D03*
X97974979Y-54850000D03*
X100450000Y-62175000D03*
X90700000Y-52150000D03*
X91700000Y-55550000D03*
X95800000Y-48850000D03*
X86700000Y-77300000D03*
X77100000Y-52650000D03*
X101600000Y-73800000D03*
X89600000Y-70350000D03*
X88750000Y-70350000D03*
X87750000Y-70350000D03*
X87637500Y-64912500D03*
X88450000Y-63300000D03*
X89000000Y-64750000D03*
X92799994Y-65550006D03*
X87250000Y-60200000D03*
X83500000Y-55750000D03*
X84550000Y-55750000D03*
X85450000Y-56300000D03*
%TO.N,+3V3*%
X84362357Y-79250010D03*
X91800000Y-48750000D03*
X84200000Y-51000000D03*
X103300000Y-80350000D03*
X75600000Y-58199996D03*
X78200000Y-54150000D03*
%TO.N,+6V*%
X89350000Y-57450000D03*
X90850000Y-65599982D03*
%TO.N,VDD*%
X99000000Y-49050000D03*
X105825000Y-56000000D03*
X101100000Y-58650000D03*
X94025728Y-55675728D03*
%TO.N,P0_30*%
X102000000Y-48950000D03*
X84250000Y-52800000D03*
%TO.N,P0_29*%
X100500000Y-48950000D03*
X83400000Y-53550000D03*
%TO.N,P0_02*%
X98011833Y-63469958D03*
X92000000Y-69700000D03*
%TO.N,P0_05*%
X103500000Y-53750000D03*
X98375000Y-76950000D03*
X99925000Y-73275000D03*
%TO.N,P0_04*%
X92700000Y-76875000D03*
X99000000Y-58750000D03*
X99200000Y-74100000D03*
%TO.N,P0_03*%
X96000000Y-56950000D03*
%TO.N,P0_17*%
X86800000Y-81000000D03*
X104874537Y-52770132D03*
X109400000Y-56350000D03*
X109200000Y-58850000D03*
X107800000Y-77300000D03*
%TO.N,P0_15*%
X106813516Y-53675904D03*
X110100000Y-55650000D03*
%TO.N,P0_10*%
X113900000Y-72700000D03*
%TO.N,P1_09*%
X98700000Y-68175000D03*
X112800000Y-67649996D03*
X103800000Y-68174998D03*
%TO.N,P0_11*%
X98750000Y-69125000D03*
X113350000Y-70350000D03*
X104700000Y-69125002D03*
%TO.N,P0_31*%
X113850000Y-75150000D03*
%TO.N,P0_28*%
X98700000Y-64249994D03*
X92497198Y-68712107D03*
%TO.N,P0_20*%
X100700000Y-51550000D03*
X78350000Y-67300000D03*
X79350000Y-61500000D03*
X89050000Y-74800000D03*
%TO.N,P0_09*%
X113250000Y-74250000D03*
%TD*%
D16*
%TO.N,+3V3*%
X87715684Y-80749999D02*
X102900001Y-80749999D01*
X102900001Y-80749999D02*
X103300000Y-80350000D01*
X84362357Y-79250010D02*
X86215695Y-79250010D01*
X86215695Y-79250010D02*
X87715684Y-80749999D01*
X84362357Y-79250010D02*
X75600000Y-70487653D01*
X75600000Y-70487653D02*
X75600000Y-58199996D01*
D17*
X89600000Y-50950000D02*
X91800000Y-48750000D01*
X89550000Y-51000000D02*
X89600000Y-50950000D01*
X84200000Y-51000000D02*
X89550000Y-51000000D01*
D16*
X84200000Y-51000000D02*
X81050000Y-54150000D01*
X81050000Y-54150000D02*
X78200000Y-54150000D01*
%TO.N,+6V*%
X89350000Y-63100000D02*
X89350000Y-63743998D01*
X89350000Y-63150000D02*
X89350000Y-57450000D01*
X90850000Y-65200000D02*
X90850000Y-65599982D01*
X89350000Y-63700000D02*
X90850000Y-65200000D01*
%TO.N,VDD*%
X105600728Y-55775728D02*
X105825000Y-56000000D01*
X99725728Y-55775728D02*
X105600728Y-55775728D01*
X101100000Y-57150000D02*
X101100000Y-58650000D01*
X99725728Y-55775728D02*
X101100000Y-57150000D01*
D17*
X105820000Y-56005000D02*
X105825000Y-56000000D01*
X105820000Y-65870000D02*
X105820000Y-56005000D01*
X105825000Y-65875000D02*
X105820000Y-65870000D01*
X98250000Y-50000000D02*
X97700000Y-50550000D01*
X98250000Y-49800000D02*
X98250000Y-50000000D01*
X97700000Y-50550000D02*
X97000000Y-51250000D01*
X99000000Y-49050000D02*
X98250000Y-49800000D01*
X105820000Y-66620000D02*
X105820000Y-65890000D01*
X108540000Y-69340000D02*
X105820000Y-66620000D01*
X108540000Y-70760000D02*
X108540000Y-69340000D01*
X94025728Y-54225728D02*
X94025728Y-55675728D01*
X97000000Y-51251456D02*
X94025728Y-54225728D01*
D16*
X94075728Y-55725728D02*
X94025728Y-55675728D01*
X99675728Y-55725728D02*
X94075728Y-55725728D01*
X99700000Y-55750000D02*
X99675728Y-55725728D01*
%TD*%
M02*
