%TF.GenerationSoftware,KiCad,Pcbnew,(5.1.6)-1*%
%TF.CreationDate,2021-10-06T19:04:01+02:00*%
%TF.ProjectId,DotBot,446f7442-6f74-42e6-9b69-6361645f7063,rev?*%
%TF.SameCoordinates,Original*%
%TF.FileFunction,Legend,Bot*%
%TF.FilePolarity,Positive*%
%FSLAX46Y46*%
G04 Gerber Fmt 4.6, Leading zero omitted, Abs format (unit mm)*
G04 Created by KiCad (PCBNEW (5.1.6)-1) date 2021-10-06 19:04:01*
%MOMM*%
%LPD*%
G01*
G04 APERTURE LIST*
%ADD10C,0.150000*%
G04 APERTURE END LIST*
D10*
X88697619Y-62221428D02*
X87935714Y-62221428D01*
X88316666Y-62602380D02*
X88316666Y-61840476D01*
X87602380Y-61602380D02*
X87269047Y-62602380D01*
X86935714Y-61602380D01*
X86269047Y-62078571D02*
X86126190Y-62126190D01*
X86078571Y-62173809D01*
X86030952Y-62269047D01*
X86030952Y-62411904D01*
X86078571Y-62507142D01*
X86126190Y-62554761D01*
X86221428Y-62602380D01*
X86602380Y-62602380D01*
X86602380Y-61602380D01*
X86269047Y-61602380D01*
X86173809Y-61650000D01*
X86126190Y-61697619D01*
X86078571Y-61792857D01*
X86078571Y-61888095D01*
X86126190Y-61983333D01*
X86173809Y-62030952D01*
X86269047Y-62078571D01*
X86602380Y-62078571D01*
X85173809Y-62602380D02*
X85173809Y-62078571D01*
X85221428Y-61983333D01*
X85316666Y-61935714D01*
X85507142Y-61935714D01*
X85602380Y-61983333D01*
X85173809Y-62554761D02*
X85269047Y-62602380D01*
X85507142Y-62602380D01*
X85602380Y-62554761D01*
X85650000Y-62459523D01*
X85650000Y-62364285D01*
X85602380Y-62269047D01*
X85507142Y-62221428D01*
X85269047Y-62221428D01*
X85173809Y-62173809D01*
X84840476Y-61935714D02*
X84459523Y-61935714D01*
X84697619Y-61602380D02*
X84697619Y-62459523D01*
X84650000Y-62554761D01*
X84554761Y-62602380D01*
X84459523Y-62602380D01*
X82138095Y-45727380D02*
X82138095Y-44727380D01*
X81900000Y-44727380D01*
X81757142Y-44775000D01*
X81661904Y-44870238D01*
X81614285Y-44965476D01*
X81566666Y-45155952D01*
X81566666Y-45298809D01*
X81614285Y-45489285D01*
X81661904Y-45584523D01*
X81757142Y-45679761D01*
X81900000Y-45727380D01*
X82138095Y-45727380D01*
X80995238Y-45727380D02*
X81090476Y-45679761D01*
X81138095Y-45632142D01*
X81185714Y-45536904D01*
X81185714Y-45251190D01*
X81138095Y-45155952D01*
X81090476Y-45108333D01*
X80995238Y-45060714D01*
X80852380Y-45060714D01*
X80757142Y-45108333D01*
X80709523Y-45155952D01*
X80661904Y-45251190D01*
X80661904Y-45536904D01*
X80709523Y-45632142D01*
X80757142Y-45679761D01*
X80852380Y-45727380D01*
X80995238Y-45727380D01*
X80376190Y-45060714D02*
X79995238Y-45060714D01*
X80233333Y-44727380D02*
X80233333Y-45584523D01*
X80185714Y-45679761D01*
X80090476Y-45727380D01*
X79995238Y-45727380D01*
X79328571Y-45203571D02*
X79185714Y-45251190D01*
X79138095Y-45298809D01*
X79090476Y-45394047D01*
X79090476Y-45536904D01*
X79138095Y-45632142D01*
X79185714Y-45679761D01*
X79280952Y-45727380D01*
X79661904Y-45727380D01*
X79661904Y-44727380D01*
X79328571Y-44727380D01*
X79233333Y-44775000D01*
X79185714Y-44822619D01*
X79138095Y-44917857D01*
X79138095Y-45013095D01*
X79185714Y-45108333D01*
X79233333Y-45155952D01*
X79328571Y-45203571D01*
X79661904Y-45203571D01*
X78519047Y-45727380D02*
X78614285Y-45679761D01*
X78661904Y-45632142D01*
X78709523Y-45536904D01*
X78709523Y-45251190D01*
X78661904Y-45155952D01*
X78614285Y-45108333D01*
X78519047Y-45060714D01*
X78376190Y-45060714D01*
X78280952Y-45108333D01*
X78233333Y-45155952D01*
X78185714Y-45251190D01*
X78185714Y-45536904D01*
X78233333Y-45632142D01*
X78280952Y-45679761D01*
X78376190Y-45727380D01*
X78519047Y-45727380D01*
X77900000Y-45060714D02*
X77519047Y-45060714D01*
X77757142Y-44727380D02*
X77757142Y-45584523D01*
X77709523Y-45679761D01*
X77614285Y-45727380D01*
X77519047Y-45727380D01*
X81328571Y-46710714D02*
X81090476Y-47377380D01*
X80852380Y-46710714D01*
X79947619Y-47377380D02*
X80519047Y-47377380D01*
X80233333Y-47377380D02*
X80233333Y-46377380D01*
X80328571Y-46520238D01*
X80423809Y-46615476D01*
X80519047Y-46663095D01*
X79519047Y-47282142D02*
X79471428Y-47329761D01*
X79519047Y-47377380D01*
X79566666Y-47329761D01*
X79519047Y-47282142D01*
X79519047Y-47377380D01*
X78614285Y-46377380D02*
X78804761Y-46377380D01*
X78900000Y-46425000D01*
X78947619Y-46472619D01*
X79042857Y-46615476D01*
X79090476Y-46805952D01*
X79090476Y-47186904D01*
X79042857Y-47282142D01*
X78995238Y-47329761D01*
X78900000Y-47377380D01*
X78709523Y-47377380D01*
X78614285Y-47329761D01*
X78566666Y-47282142D01*
X78519047Y-47186904D01*
X78519047Y-46948809D01*
X78566666Y-46853571D01*
X78614285Y-46805952D01*
X78709523Y-46758333D01*
X78900000Y-46758333D01*
X78995238Y-46805952D01*
X79042857Y-46853571D01*
X79090476Y-46948809D01*
X102904761Y-76728571D02*
X102761904Y-76776190D01*
X102714285Y-76823809D01*
X102666666Y-76919047D01*
X102666666Y-77061904D01*
X102714285Y-77157142D01*
X102761904Y-77204761D01*
X102857142Y-77252380D01*
X103238095Y-77252380D01*
X103238095Y-76252380D01*
X102904761Y-76252380D01*
X102809523Y-76300000D01*
X102761904Y-76347619D01*
X102714285Y-76442857D01*
X102714285Y-76538095D01*
X102761904Y-76633333D01*
X102809523Y-76680952D01*
X102904761Y-76728571D01*
X103238095Y-76728571D01*
X101714285Y-77252380D02*
X102285714Y-77252380D01*
X102000000Y-77252380D02*
X102000000Y-76252380D01*
X102095238Y-76395238D01*
X102190476Y-76490476D01*
X102285714Y-76538095D01*
X103004761Y-79228571D02*
X102861904Y-79276190D01*
X102814285Y-79323809D01*
X102766666Y-79419047D01*
X102766666Y-79561904D01*
X102814285Y-79657142D01*
X102861904Y-79704761D01*
X102957142Y-79752380D01*
X103338095Y-79752380D01*
X103338095Y-78752380D01*
X103004761Y-78752380D01*
X102909523Y-78800000D01*
X102861904Y-78847619D01*
X102814285Y-78942857D01*
X102814285Y-79038095D01*
X102861904Y-79133333D01*
X102909523Y-79180952D01*
X103004761Y-79228571D01*
X103338095Y-79228571D01*
X102385714Y-78847619D02*
X102338095Y-78800000D01*
X102242857Y-78752380D01*
X102004761Y-78752380D01*
X101909523Y-78800000D01*
X101861904Y-78847619D01*
X101814285Y-78942857D01*
X101814285Y-79038095D01*
X101861904Y-79180952D01*
X102433333Y-79752380D01*
X101814285Y-79752380D01*
X88764285Y-76966666D02*
X88288095Y-76966666D01*
X88859523Y-77252380D02*
X88526190Y-76252380D01*
X88192857Y-77252380D01*
X87335714Y-77252380D02*
X87907142Y-77252380D01*
X87621428Y-77252380D02*
X87621428Y-76252380D01*
X87716666Y-76395238D01*
X87811904Y-76490476D01*
X87907142Y-76538095D01*
X88764285Y-79516666D02*
X88288095Y-79516666D01*
X88859523Y-79802380D02*
X88526190Y-78802380D01*
X88192857Y-79802380D01*
X87907142Y-78897619D02*
X87859523Y-78850000D01*
X87764285Y-78802380D01*
X87526190Y-78802380D01*
X87430952Y-78850000D01*
X87383333Y-78897619D01*
X87335714Y-78992857D01*
X87335714Y-79088095D01*
X87383333Y-79230952D01*
X87954761Y-79802380D01*
X87335714Y-79802380D01*
X96761904Y-61700000D02*
X96857142Y-61652380D01*
X97000000Y-61652380D01*
X97142857Y-61700000D01*
X97238095Y-61795238D01*
X97285714Y-61890476D01*
X97333333Y-62080952D01*
X97333333Y-62223809D01*
X97285714Y-62414285D01*
X97238095Y-62509523D01*
X97142857Y-62604761D01*
X97000000Y-62652380D01*
X96904761Y-62652380D01*
X96761904Y-62604761D01*
X96714285Y-62557142D01*
X96714285Y-62223809D01*
X96904761Y-62223809D01*
X96285714Y-62652380D02*
X96285714Y-61652380D01*
X95714285Y-62652380D01*
X95714285Y-61652380D01*
X95238095Y-62652380D02*
X95238095Y-61652380D01*
X95000000Y-61652380D01*
X94857142Y-61700000D01*
X94761904Y-61795238D01*
X94714285Y-61890476D01*
X94666666Y-62080952D01*
X94666666Y-62223809D01*
X94714285Y-62414285D01*
X94761904Y-62509523D01*
X94857142Y-62604761D01*
X95000000Y-62652380D01*
X95238095Y-62652380D01*
M02*
